<svg width="88" height="80" viewBox="0 0 88 80" fill="none" xmlns="http://www.w3.org/2000/svg">
<path d="M45.7295 78.1322C65.0159 78.1322 80.6505 77.0496 80.6505 75.7141C80.6505 74.3786 65.0159 73.296 45.7295 73.296C26.4432 73.296 10.8086 74.3786 10.8086 75.7141C10.8086 77.0496 26.4432 78.1322 45.7295 78.1322Z" fill="#263238"/>
<path d="M24.7488 57.4972C24.604 56.7939 24.4116 55.7846 24.2357 54.5651C24.184 54.2135 24.1343 53.841 24.0888 53.456C24.2461 53.4269 25.4957 53.1813 25.9819 52.8317C26.4246 52.5175 26.9004 51.9993 26.9191 51.4166C26.9298 51.2803 26.9115 51.1432 26.8656 51.0145C26.8196 50.8858 26.747 50.7683 26.6525 50.6699C26.558 50.5716 26.4439 50.4945 26.3175 50.4439C26.1912 50.3932 26.0556 50.3701 25.9198 50.3762C25.1088 50.4323 24.3598 51.6976 24.184 52.4072C24.1736 52.453 24.1012 53.0023 24.0702 53.2854C24.0433 53.0523 24.0164 52.8213 23.9916 52.5799C23.9543 52.2303 23.9254 51.862 23.8964 51.504C23.8964 51.3168 23.8778 51.1295 23.8695 50.9401C23.8612 50.7507 23.8695 50.5655 23.8695 50.3741C23.8695 50.0952 23.8902 49.806 23.9047 49.5188C24.2605 49.5022 25.3012 49.4335 25.7667 49.1963C26.2322 48.959 26.8011 48.5075 26.9067 47.9477C26.9356 47.8155 26.9367 47.6786 26.9099 47.546C26.8831 47.4133 26.829 47.2877 26.7511 47.1774C26.6731 47.067 26.5731 46.9743 26.4573 46.9052C26.3416 46.8361 26.2127 46.7921 26.0791 46.7761C25.2702 46.7095 24.3371 47.8457 24.0599 48.5199C24.0495 48.5407 24.0061 48.6906 23.9543 48.8675C23.9792 48.5865 24.0019 48.3056 24.0371 48.0226C24.1323 47.2214 24.2564 46.4057 24.3764 45.5879C24.4012 45.4172 24.424 45.2487 24.4488 45.078C24.7467 45.0635 25.8763 45.001 26.3667 44.7534C26.857 44.5058 27.4011 44.0625 27.5066 43.5048C27.5359 43.3726 27.5373 43.2356 27.5106 43.1028C27.484 42.97 27.4299 42.8444 27.3519 42.7339C27.2739 42.6235 27.1737 42.5307 27.0578 42.4617C26.9419 42.3927 26.8129 42.3489 26.6791 42.3332C25.8681 42.2666 24.9371 43.4029 24.6578 44.0771C24.6578 44.1 24.5957 44.2852 24.5378 44.4766C24.5978 44.0334 24.6495 43.5881 24.6888 43.1469C24.7616 42.3862 24.783 41.6214 24.7529 40.8578C24.8584 40.8578 26.1825 40.8058 26.7287 40.5311C27.2149 40.2876 27.7632 39.8423 27.8687 39.2825C27.898 39.1504 27.8993 39.0136 27.8727 38.8809C27.846 38.7482 27.7919 38.6227 27.7139 38.5124C27.6358 38.4021 27.5356 38.3096 27.4197 38.2408C27.3038 38.172 27.1748 38.1285 27.0411 38.113C26.2301 38.0444 25.2991 39.1827 25.0198 39.8548C24.9991 39.9027 24.8129 40.5478 24.7571 40.7788C24.756 40.7698 24.756 40.7607 24.7571 40.7517C24.7092 40.0043 24.5956 39.2627 24.4178 38.5355C24.2616 37.8852 24.0682 37.2446 23.8385 36.6168C23.6316 36.0342 23.4061 35.5118 23.2033 35.0519C23.0916 34.8022 22.984 34.5775 22.8826 34.3694H22.8992C22.9137 34.3694 22.8744 33.3809 22.8661 33.3289C22.7544 32.6089 22.1192 31.2812 21.3165 31.1522C21.1827 31.1343 21.0466 31.145 20.9172 31.1836C20.7877 31.2222 20.6678 31.2879 20.5653 31.3763C20.4628 31.4646 20.38 31.5738 20.3223 31.6965C20.2646 31.8193 20.2332 31.9529 20.2303 32.0886C20.1972 32.6651 20.6255 33.229 21.0372 33.5828C21.4489 33.9365 22.562 34.282 22.8351 34.3611C22.9364 34.5816 23.042 34.8168 23.1557 35.079C23.3481 35.543 23.5695 36.0674 23.7537 36.6543C23.8054 36.8104 23.855 36.981 23.9068 37.1433C23.764 36.8853 23.5633 36.5336 23.5385 36.5024C23.1102 35.9135 21.9372 35.029 21.1675 35.2871C21.0406 35.3332 20.9247 35.4057 20.8275 35.4998C20.7302 35.594 20.6539 35.7077 20.6033 35.8336C20.5527 35.9595 20.5291 36.0947 20.534 36.2303C20.5389 36.366 20.5722 36.4991 20.6317 36.621C20.8655 37.1475 21.5048 37.4534 22.0344 37.572C22.564 37.6906 23.7433 37.4804 23.9957 37.4305C24.1033 37.7946 24.2026 38.1713 24.2895 38.5708C24.4459 39.2888 24.5387 40.0193 24.5667 40.7538C24.5667 40.7975 24.5667 40.8412 24.5667 40.8849C24.5171 40.7434 24.1943 39.9963 24.1674 39.9464C23.8054 39.3221 22.7358 38.3045 21.9413 38.4751C21.8099 38.5071 21.6867 38.5666 21.5796 38.6497C21.4726 38.7328 21.3842 38.8376 21.3202 38.9574C21.2561 39.0772 21.2179 39.2092 21.208 39.3448C21.1981 39.4804 21.2168 39.6166 21.2627 39.7445C21.4386 40.2918 22.0427 40.6643 22.5537 40.8433C23.1433 41.0514 24.515 40.9182 24.5647 40.914C24.5759 41.6509 24.5393 42.3878 24.455 43.1198C24.395 43.663 24.3123 44.2103 24.2233 44.7576C24.155 44.5765 23.8571 43.8815 23.8281 43.8336C23.4681 43.2093 22.3985 42.1938 21.6041 42.3644C21.4729 42.3965 21.3499 42.4559 21.2431 42.5388C21.1362 42.6218 21.0479 42.7264 20.9839 42.846C20.9199 42.9655 20.8816 43.0972 20.8716 43.2326C20.8615 43.368 20.8799 43.504 20.9255 43.6318C21.1013 44.1811 21.7034 44.5515 22.2165 44.7326C22.7916 44.9407 24.1054 44.8137 24.2171 44.8033C24.1757 45.051 24.1364 45.3007 24.095 45.5504C23.9564 46.362 23.8157 47.1777 23.7019 47.9851C23.6606 48.2661 23.6316 48.5428 23.6026 48.8175C23.493 48.5491 23.284 48.0663 23.2613 48.0268C22.8992 47.4025 21.8296 46.3849 21.0351 46.5576C20.904 46.5896 20.781 46.649 20.6741 46.732C20.5673 46.8149 20.479 46.9196 20.415 47.0391C20.351 47.1586 20.3127 47.2904 20.3026 47.4257C20.2926 47.5611 20.3109 47.6971 20.3565 47.8249C20.5324 48.3743 21.1344 48.7447 21.6475 48.9257C22.1606 49.1068 23.2675 49.0277 23.5799 49.0027C23.5323 49.4647 23.4971 49.9246 23.4826 50.3782C23.4826 50.5739 23.464 50.7757 23.4826 50.963C23.5012 51.1503 23.4826 51.3417 23.495 51.5269C23.5199 51.9119 23.5385 52.2698 23.5695 52.6278C23.584 52.8088 23.6006 52.9795 23.6171 53.1543C23.5468 52.8671 23.4268 52.4113 23.4102 52.3718C23.1475 51.6913 22.2434 50.5322 21.4303 50.5801C21.2959 50.5922 21.1655 50.6325 21.0475 50.6985C20.9296 50.7644 20.8267 50.8545 20.7456 50.963C20.6645 51.0715 20.6069 51.1959 20.5766 51.3282C20.5463 51.4604 20.5439 51.5976 20.5696 51.7309C20.6607 52.299 21.1903 52.7589 21.6785 53.0148C22.2082 53.2958 23.4806 53.379 23.6357 53.3894C23.6771 53.8181 23.7226 54.2364 23.7702 54.6255C23.9233 55.8616 24.095 56.8833 24.2254 57.5992C24.3557 58.315 24.4488 58.7208 24.4488 58.7208C24.455 58.7601 24.4693 58.7976 24.4907 58.831C24.5121 58.8644 24.5402 58.8929 24.5731 58.9149C24.606 58.9368 24.6431 58.9516 24.6821 58.9584C24.721 58.9652 24.7609 58.9638 24.7992 58.9542C24.8376 58.9447 24.8735 58.9272 24.9049 58.903C24.9362 58.8788 24.9621 58.8483 24.9811 58.8134C25.0001 58.7786 25.0117 58.7402 25.0151 58.7006C25.0186 58.661 25.0139 58.6211 25.0012 58.5835C25.0012 58.5835 24.8936 58.2027 24.7488 57.4972Z" fill="#407BFF"/>
<path d="M24.0555 37.2784C24.0555 37.2784 25.421 36.8622 25.8947 36.4314C26.3085 36.0693 26.7223 35.4929 26.6623 34.9165C26.6558 34.781 26.621 34.6484 26.5602 34.5273C26.4994 34.4062 26.4138 34.2994 26.3092 34.2138C26.2046 34.1282 26.0832 34.0658 25.953 34.0305C25.8227 33.9952 25.6866 33.988 25.5534 34.0092C24.7548 34.159 24.1527 35.5033 24.0617 36.2275C24.0534 36.2899 24.041 37.2825 24.0555 37.2784Z" fill="#407BFF"/>
<path d="M24.7753 58.9539C24.809 58.9773 24.8373 59.0077 24.8583 59.0431C24.8792 59.0786 24.8924 59.1181 24.8968 59.159C24.9013 59.2 24.8969 59.2414 24.884 59.2806C24.8711 59.3197 24.85 59.3555 24.8221 59.3857C24.7942 59.4159 24.7601 59.4397 24.7223 59.4554C24.6844 59.4712 24.6437 59.4786 24.6027 59.4771C24.5618 59.4756 24.5216 59.4653 24.485 59.4468C24.4484 59.4284 24.4161 59.4022 24.3905 59.3701C24.3905 59.3701 24.0884 59.0787 23.5898 58.5564C23.0912 58.0341 22.3836 57.2745 21.5788 56.3298C21.3244 56.0301 21.0595 55.7055 20.7885 55.3725C20.654 55.4495 19.5472 56.0863 18.9513 56.1446C18.4114 56.1966 17.71 56.1134 17.3211 55.6888C17.2265 55.5921 17.1532 55.4765 17.1059 55.3495C17.0586 55.2225 17.0384 55.0868 17.0466 54.9515C17.0548 54.8161 17.0912 54.6839 17.1534 54.5636C17.2157 54.4432 17.3024 54.3374 17.4079 54.253C18.0596 53.7619 19.4499 54.228 20.0417 54.6504C20.0768 54.6754 20.4265 54.9876 20.6416 55.1873C20.532 55.05 20.4347 54.9189 20.3127 54.7711C20.0913 54.4902 19.8782 54.203 19.6486 53.893L19.3279 53.431C19.2162 53.2791 19.121 53.1043 19.0134 52.9399C18.7755 52.5528 18.5541 52.1491 18.341 51.7371C18.0948 51.9306 17.2135 52.609 16.6859 52.7443C16.1583 52.8795 15.4446 52.9024 15.006 52.5362C14.8977 52.455 14.8077 52.3518 14.7417 52.2334C14.6757 52.1149 14.6352 51.9838 14.6229 51.8485C14.6106 51.7133 14.6268 51.577 14.6703 51.4484C14.7139 51.3199 14.7838 51.202 14.8756 51.1024C15.4466 50.5197 16.8907 50.7674 17.5383 51.1024C17.5797 51.1232 18.0183 51.4104 18.2562 51.5727C18.13 51.323 18.0017 51.0753 17.8817 50.8194C17.5341 50.0827 17.2052 49.3253 16.8742 48.5699C16.7728 48.3389 16.6673 48.11 16.5659 47.879C16.479 47.9497 15.4487 48.78 14.8591 48.9299C14.3336 49.0651 13.6177 49.088 13.1791 48.7218C13.0709 48.6406 12.9808 48.5374 12.9148 48.4189C12.8489 48.3005 12.8084 48.1694 12.7961 48.0341C12.7838 47.8989 12.8 47.7626 12.8435 47.634C12.887 47.5055 12.957 47.3876 13.0488 47.288C13.6177 46.7053 15.0618 46.953 15.7114 47.288C15.7611 47.313 16.3921 47.7271 16.539 47.8394C16.3114 47.3338 16.0818 46.8323 15.8335 46.3453C15.502 45.6879 15.1289 45.0526 14.7163 44.4433C14.6749 44.4766 13.6053 45.3485 12.9991 45.5025C12.4736 45.6357 11.7578 45.6607 11.3192 45.2944C11.2108 45.2133 11.1207 45.1101 11.0547 44.9915C10.9887 44.873 10.9483 44.7417 10.9362 44.6064C10.9241 44.4711 10.9406 44.3347 10.9844 44.2062C11.0283 44.0777 11.0987 43.9599 11.1909 43.8606C11.7599 43.278 13.2039 43.5256 13.8515 43.8606C13.9032 43.8856 14.5818 44.3309 14.6998 44.4204C14.6749 44.385 14.6542 44.3476 14.6294 44.3122C14.1961 43.7156 13.7115 43.1586 13.1812 42.6474C12.8915 42.3603 12.5998 42.1022 12.3102 41.8567C12.126 42.0398 11.2757 42.8659 10.7523 43.0657C10.2289 43.2655 9.54613 43.3591 9.05994 43.0491C8.94357 42.9805 8.84287 42.888 8.7644 42.7777C8.68593 42.6674 8.63145 42.5417 8.60451 42.4088C8.57758 42.2758 8.57879 42.1387 8.60806 42.0063C8.63734 41.8739 8.69403 41.7492 8.77443 41.6402C9.27717 40.9972 10.7399 41.0826 11.4206 41.3364C11.4578 41.351 11.8178 41.532 12.0785 41.6673C11.9461 41.5591 11.8116 41.4446 11.6833 41.3448C11.1992 40.9619 10.7337 40.6414 10.3199 40.3625C10.082 40.2065 9.86474 40.0691 9.65992 39.9463C9.38683 40.0317 8.2841 40.3625 7.73378 40.2939C7.18345 40.2252 6.52761 39.9942 6.23796 39.4948C6.16658 39.3797 6.11999 39.2508 6.1012 39.1165C6.08241 38.9822 6.09185 38.8454 6.12889 38.715C6.16594 38.5846 6.22977 38.4635 6.31627 38.3594C6.40277 38.2554 6.51 38.1707 6.63105 38.1109C7.37172 37.7738 8.62961 38.5271 9.11373 39.0682C9.15511 39.116 9.7344 39.9214 9.71785 39.9255H9.7013C9.90819 40.0421 10.1151 40.1711 10.3427 40.3168C10.7564 40.5873 11.2385 40.8973 11.733 41.2698C12.2681 41.6664 12.7806 42.093 13.2681 42.5476C13.8143 43.0579 14.3155 43.6149 14.766 44.2123C14.7695 44.2207 14.7744 44.2284 14.7804 44.2352C14.7018 44.0105 14.5032 43.3695 14.4929 43.3196C14.3563 42.6037 14.5115 41.1367 15.2232 40.7434C15.3433 40.6815 15.475 40.6457 15.6098 40.6384C15.7445 40.631 15.8793 40.6523 16.0053 40.7008C16.1314 40.7493 16.2459 40.8239 16.3414 40.9197C16.4369 41.0156 16.5113 41.1307 16.5597 41.2574C16.7831 41.7901 16.5597 42.4664 16.299 42.9388C15.9928 43.4715 14.9149 44.2477 14.8301 44.308C15.2712 44.9274 15.6714 45.5753 16.028 46.2475C16.2349 46.6387 16.4418 47.0383 16.6321 47.442C16.57 47.2443 16.5162 47.0674 16.5121 47.0424C16.3756 46.3266 16.5287 44.8595 17.2424 44.4662C17.3627 44.4044 17.4945 44.3687 17.6294 44.3615C17.7642 44.3543 17.899 44.3758 18.0251 44.4244C18.1512 44.4731 18.2657 44.5479 18.3611 44.6441C18.4565 44.7402 18.5307 44.8554 18.5789 44.9823C18.8024 45.5129 18.5789 46.1892 18.3183 46.6616C18.0576 47.134 17.1369 47.8207 16.8949 47.9976C16.9673 48.1537 17.0417 48.3077 17.1142 48.4637C17.4638 49.2108 17.8072 49.96 18.1672 50.6841C18.2934 50.938 18.4279 51.1836 18.5603 51.4312C18.5065 51.2564 18.4631 51.1086 18.4569 51.0837C18.3203 50.3678 18.4755 48.9028 19.1872 48.5095C19.3073 48.4476 19.439 48.4119 19.5738 48.4045C19.7085 48.3972 19.8433 48.4185 19.9693 48.4669C20.0954 48.5154 20.2099 48.59 20.3054 48.6859C20.4009 48.7818 20.4753 48.8968 20.5237 49.0235C20.7471 49.5542 20.534 50.2326 20.263 50.7049C19.992 51.1773 19.1706 51.7954 18.8831 52.0076C19.0279 52.2553 19.1706 52.505 19.3217 52.7401C19.4293 52.8983 19.5286 53.0585 19.6361 53.2104L19.9672 53.6661C20.1885 53.9471 20.4141 54.2405 20.6375 54.5089C20.7906 54.6983 20.9396 54.8752 21.0906 55.0542C20.9602 54.8024 20.7182 54.3029 20.7037 54.2592C20.4596 53.5704 20.3913 52.0992 21.0368 51.6018C21.1462 51.5223 21.2709 51.4669 21.403 51.439C21.5351 51.4112 21.6715 51.4116 21.8034 51.4403C21.9353 51.4689 22.0597 51.5252 22.1686 51.6053C22.2775 51.6855 22.3684 51.7878 22.4354 51.9057C22.7354 52.3968 22.6257 53.1001 22.4354 53.6079C22.2285 54.1677 21.312 55.0646 21.194 55.1769C21.4444 55.4724 21.6885 55.7554 21.9264 56.0218C22.7416 56.9395 23.4553 57.6741 23.9622 58.1818C24.4691 58.6896 24.7753 58.9539 24.7753 58.9539ZM12.2936 41.6964C12.2936 41.6964 13.2019 40.5873 13.3632 39.9692C13.4998 39.4428 13.5288 38.7207 13.175 38.2795C13.0951 38.1699 12.9931 38.0784 12.8757 38.0111C12.7583 37.9438 12.6281 37.9021 12.4936 37.8887C12.3592 37.8754 12.2234 37.8907 12.0952 37.9336C11.967 37.9766 11.8492 38.0462 11.7495 38.138C11.1661 38.7061 11.4019 40.1607 11.7226 40.8162C11.7412 40.8724 12.2833 41.7068 12.2936 41.6964Z" fill="#407BFF"/>
<path opacity="0.1" d="M24.7753 58.9539C24.809 58.9773 24.8373 59.0077 24.8583 59.0431C24.8792 59.0786 24.8924 59.1181 24.8968 59.159C24.9013 59.2 24.8969 59.2414 24.884 59.2806C24.8711 59.3197 24.85 59.3555 24.8221 59.3857C24.7942 59.4159 24.7601 59.4397 24.7223 59.4554C24.6844 59.4712 24.6437 59.4786 24.6027 59.4771C24.5618 59.4756 24.5216 59.4653 24.485 59.4468C24.4484 59.4284 24.4161 59.4022 24.3905 59.3701C24.3905 59.3701 24.0884 59.0787 23.5898 58.5564C23.0912 58.0341 22.3836 57.2745 21.5788 56.3298C21.3244 56.0301 21.0595 55.7055 20.7885 55.3725C20.654 55.4495 19.5472 56.0863 18.9513 56.1446C18.4114 56.1966 17.71 56.1134 17.3211 55.6888C17.2265 55.5921 17.1532 55.4765 17.1059 55.3495C17.0586 55.2225 17.0384 55.0868 17.0466 54.9515C17.0548 54.8161 17.0912 54.6839 17.1534 54.5636C17.2157 54.4432 17.3024 54.3374 17.4079 54.253C18.0596 53.7619 19.4499 54.228 20.0417 54.6504C20.0768 54.6754 20.4265 54.9876 20.6416 55.1873C20.532 55.05 20.4347 54.9189 20.3127 54.7711C20.0913 54.4902 19.8782 54.203 19.6486 53.893L19.3279 53.431C19.2162 53.2791 19.121 53.1043 19.0134 52.9399C18.7755 52.5528 18.5541 52.1491 18.341 51.7371C18.0948 51.9306 17.2135 52.609 16.6859 52.7443C16.1583 52.8795 15.4446 52.9024 15.006 52.5362C14.8977 52.455 14.8077 52.3518 14.7417 52.2334C14.6757 52.1149 14.6352 51.9838 14.6229 51.8485C14.6106 51.7133 14.6268 51.577 14.6703 51.4484C14.7139 51.3199 14.7838 51.202 14.8756 51.1024C15.4466 50.5197 16.8907 50.7674 17.5383 51.1024C17.5797 51.1232 18.0183 51.4104 18.2562 51.5727C18.13 51.323 18.0017 51.0753 17.8817 50.8194C17.5341 50.0827 17.2052 49.3253 16.8742 48.5699C16.7728 48.3389 16.6673 48.11 16.5659 47.879C16.479 47.9497 15.4487 48.78 14.8591 48.9299C14.3336 49.0651 13.6177 49.088 13.1791 48.7218C13.0709 48.6406 12.9808 48.5374 12.9148 48.4189C12.8489 48.3005 12.8084 48.1694 12.7961 48.0341C12.7838 47.8989 12.8 47.7626 12.8435 47.634C12.887 47.5055 12.957 47.3876 13.0488 47.288C13.6177 46.7053 15.0618 46.953 15.7114 47.288C15.7611 47.313 16.3921 47.7271 16.539 47.8394C16.3114 47.3338 16.0818 46.8323 15.8335 46.3453C15.502 45.6879 15.1289 45.0526 14.7163 44.4433C14.6749 44.4766 13.6053 45.3485 12.9991 45.5025C12.4736 45.6357 11.7578 45.6607 11.3192 45.2944C11.2108 45.2133 11.1207 45.1101 11.0547 44.9915C10.9887 44.873 10.9483 44.7417 10.9362 44.6064C10.9241 44.4711 10.9406 44.3347 10.9844 44.2062C11.0283 44.0777 11.0987 43.9599 11.1909 43.8606C11.7599 43.278 13.2039 43.5256 13.8515 43.8606C13.9032 43.8856 14.5818 44.3309 14.6998 44.4204C14.6749 44.385 14.6542 44.3476 14.6294 44.3122C14.1961 43.7156 13.7115 43.1586 13.1812 42.6474C12.8915 42.3603 12.5998 42.1022 12.3102 41.8567C12.126 42.0398 11.2757 42.8659 10.7523 43.0657C10.2289 43.2655 9.54613 43.3591 9.05994 43.0491C8.94357 42.9805 8.84287 42.888 8.7644 42.7777C8.68593 42.6674 8.63145 42.5417 8.60451 42.4088C8.57758 42.2758 8.57879 42.1387 8.60806 42.0063C8.63734 41.8739 8.69403 41.7492 8.77443 41.6402C9.27717 40.9972 10.7399 41.0826 11.4206 41.3364C11.4578 41.351 11.8178 41.532 12.0785 41.6673C11.9461 41.5591 11.8116 41.4446 11.6833 41.3448C11.1992 40.9619 10.7337 40.6414 10.3199 40.3625C10.082 40.2065 9.86474 40.0691 9.65992 39.9463C9.38683 40.0317 8.2841 40.3625 7.73378 40.2939C7.18345 40.2252 6.52761 39.9942 6.23796 39.4948C6.16658 39.3797 6.11999 39.2508 6.1012 39.1165C6.08241 38.9822 6.09185 38.8454 6.12889 38.715C6.16594 38.5846 6.22977 38.4635 6.31627 38.3594C6.40277 38.2554 6.51 38.1707 6.63105 38.1109C7.37172 37.7738 8.62961 38.5271 9.11373 39.0682C9.15511 39.116 9.7344 39.9214 9.71785 39.9255H9.7013C9.90819 40.0421 10.1151 40.1711 10.3427 40.3168C10.7564 40.5873 11.2385 40.8973 11.733 41.2698C12.2681 41.6664 12.7806 42.093 13.2681 42.5476C13.8143 43.0579 14.3155 43.6149 14.766 44.2123C14.7695 44.2207 14.7744 44.2284 14.7804 44.2352C14.7018 44.0105 14.5032 43.3695 14.4929 43.3196C14.3563 42.6037 14.5115 41.1367 15.2232 40.7434C15.3433 40.6815 15.475 40.6457 15.6098 40.6384C15.7445 40.631 15.8793 40.6523 16.0053 40.7008C16.1314 40.7493 16.2459 40.8239 16.3414 40.9197C16.4369 41.0156 16.5113 41.1307 16.5597 41.2574C16.7831 41.7901 16.5597 42.4664 16.299 42.9388C15.9928 43.4715 14.9149 44.2477 14.8301 44.308C15.2712 44.9274 15.6714 45.5753 16.028 46.2475C16.2349 46.6387 16.4418 47.0383 16.6321 47.442C16.57 47.2443 16.5162 47.0674 16.5121 47.0424C16.3756 46.3266 16.5287 44.8595 17.2424 44.4662C17.3627 44.4044 17.4945 44.3687 17.6294 44.3615C17.7642 44.3543 17.899 44.3758 18.0251 44.4244C18.1512 44.4731 18.2657 44.5479 18.3611 44.6441C18.4565 44.7402 18.5307 44.8554 18.5789 44.9823C18.8024 45.5129 18.5789 46.1892 18.3183 46.6616C18.0576 47.134 17.1369 47.8207 16.8949 47.9976C16.9673 48.1537 17.0417 48.3077 17.1142 48.4637C17.4638 49.2108 17.8072 49.96 18.1672 50.6841C18.2934 50.938 18.4279 51.1836 18.5603 51.4312C18.5065 51.2564 18.4631 51.1086 18.4569 51.0837C18.3203 50.3678 18.4755 48.9028 19.1872 48.5095C19.3073 48.4476 19.439 48.4119 19.5738 48.4045C19.7085 48.3972 19.8433 48.4185 19.9693 48.4669C20.0954 48.5154 20.2099 48.59 20.3054 48.6859C20.4009 48.7818 20.4753 48.8968 20.5237 49.0235C20.7471 49.5542 20.534 50.2326 20.263 50.7049C19.992 51.1773 19.1706 51.7954 18.8831 52.0076C19.0279 52.2553 19.1706 52.505 19.3217 52.7401C19.4293 52.8983 19.5286 53.0585 19.6361 53.2104L19.9672 53.6661C20.1885 53.9471 20.4141 54.2405 20.6375 54.5089C20.7906 54.6983 20.9396 54.8752 21.0906 55.0542C20.9602 54.8024 20.7182 54.3029 20.7037 54.2592C20.4596 53.5704 20.3913 52.0992 21.0368 51.6018C21.1462 51.5223 21.2709 51.4669 21.403 51.439C21.5351 51.4112 21.6715 51.4116 21.8034 51.4403C21.9353 51.4689 22.0597 51.5252 22.1686 51.6053C22.2775 51.6855 22.3684 51.7878 22.4354 51.9057C22.7354 52.3968 22.6257 53.1001 22.4354 53.6079C22.2285 54.1677 21.312 55.0646 21.194 55.1769C21.4444 55.4724 21.6885 55.7554 21.9264 56.0218C22.7416 56.9395 23.4553 57.6741 23.9622 58.1818C24.4691 58.6896 24.7753 58.9539 24.7753 58.9539ZM12.2936 41.6964C12.2936 41.6964 13.2019 40.5873 13.3632 39.9692C13.4998 39.4428 13.5288 38.7207 13.175 38.2795C13.0951 38.1699 12.9931 38.0784 12.8757 38.0111C12.7583 37.9438 12.6281 37.9021 12.4936 37.8887C12.3592 37.8754 12.2234 37.8907 12.0952 37.9336C11.967 37.9766 11.8492 38.0462 11.7495 38.138C11.1661 38.7061 11.4019 40.1607 11.7226 40.8162C11.7412 40.8724 12.2833 41.7068 12.2936 41.6964Z" fill="black"/>
<path d="M19.4723 72.6779C19.2965 71.9807 19.0585 70.9819 18.831 69.7645C18.7648 69.417 18.6986 69.0445 18.6365 68.6637C18.7896 68.6262 20.0289 68.3266 20.4985 67.9582C20.9268 67.6232 21.3798 67.078 21.3736 66.5016C21.3766 66.3666 21.3515 66.2326 21.2998 66.108C21.2482 65.9835 21.1711 65.8712 21.0736 65.7785C20.9761 65.6857 20.8604 65.6146 20.7339 65.5696C20.6074 65.5246 20.473 65.5068 20.3392 65.5173C19.5303 65.6088 18.8372 66.9073 18.6841 67.6232C18.6841 67.669 18.6261 68.2225 18.6096 68.5055C18.5703 68.2745 18.533 68.0456 18.4979 67.8042C18.4461 67.4588 18.4006 67.0905 18.3551 66.7346L18.3055 66.1728C18.2827 65.9813 18.2868 65.7961 18.2765 65.6067C18.2765 65.3279 18.2765 65.0386 18.2765 64.7515C18.6303 64.7182 19.6668 64.6037 20.1261 64.3457C20.5854 64.0876 21.1295 63.6111 21.2081 63.0409C21.2317 62.9072 21.2269 62.7699 21.1942 62.6382C21.1614 62.5064 21.1014 62.3831 21.018 62.2763C20.9346 62.1694 20.8298 62.0815 20.7103 62.0182C20.5909 61.9549 20.4595 61.9176 20.3247 61.9089C19.5137 61.8756 18.6323 63.0534 18.382 63.7401C18.382 63.7609 18.3365 63.9108 18.2951 64.0897C18.2951 63.8088 18.3179 63.5299 18.3386 63.2448C18.4006 62.4374 18.4875 61.6196 18.5724 60.7976C18.5889 60.6249 18.6034 60.4543 18.622 60.2836C18.9199 60.2566 20.0433 60.1421 20.5233 59.8674C21.0033 59.5927 21.5267 59.1329 21.6074 58.5606C21.6307 58.4269 21.6257 58.2898 21.5928 58.1582C21.5599 58.0265 21.4998 57.9033 21.4165 57.7966C21.3332 57.6898 21.2285 57.6019 21.1092 57.5385C20.9899 57.4751 20.8586 57.4376 20.724 57.4285C19.913 57.3973 19.0296 58.5752 18.7813 59.2598C18.7813 59.2848 18.7275 59.4679 18.6799 59.6656C18.7192 59.2182 18.7523 58.7729 18.773 58.3296C18.8118 57.5666 18.7993 56.8019 18.7358 56.0405C18.8413 56.0405 20.1613 55.924 20.6971 55.6244C21.1688 55.3601 21.7005 54.8898 21.7791 54.3175C21.8027 54.1838 21.798 54.0465 21.7652 53.9148C21.7324 53.783 21.6724 53.6597 21.589 53.5528C21.5057 53.446 21.4008 53.3581 21.2813 53.2948C21.1619 53.2314 21.0305 53.1942 20.8957 53.1855C20.0847 53.1542 19.2034 54.3321 18.953 55.0167C18.9365 55.0646 18.7792 55.7159 18.7317 55.9511C18.7317 55.9511 18.7317 55.9323 18.7317 55.924C18.6524 55.1792 18.507 54.4431 18.2972 53.7244C18.112 53.0823 17.8902 52.4514 17.6331 51.8349C17.4014 51.2606 17.1531 50.7486 16.9296 50.2971C16.8076 50.0536 16.6917 49.8351 16.58 49.6291H16.5966C16.611 49.6291 16.5303 48.6448 16.5179 48.5886C16.3752 47.8728 15.6904 46.5742 14.8628 46.4806C14.729 46.4701 14.5946 46.4879 14.4681 46.5329C14.3416 46.5779 14.2259 46.649 14.1284 46.7418C14.0309 46.8345 13.9539 46.9468 13.9022 47.0714C13.8505 47.1959 13.8254 47.33 13.8284 47.4649C13.8284 48.0413 14.2732 48.5865 14.7014 48.9216C15.1297 49.2566 16.2531 49.5459 16.5303 49.6208C16.6421 49.8289 16.7579 50.0661 16.8821 50.3221C17.089 50.7778 17.3289 51.2918 17.5482 51.8703C17.6082 52.0243 17.6641 52.1908 17.722 52.3531C17.5689 52.1013 17.3517 51.7579 17.3269 51.7288C16.8738 51.1607 15.6718 50.3304 14.9042 50.6217C14.7796 50.6737 14.6673 50.7515 14.5746 50.85C14.4818 50.9485 14.4107 51.0656 14.3658 51.1935C14.3209 51.3214 14.3033 51.4574 14.3141 51.5927C14.3249 51.7279 14.3638 51.8594 14.4283 51.9785C14.6849 52.4946 15.3366 52.7672 15.8766 52.8671C16.4166 52.967 17.5793 52.6985 17.8296 52.6361C17.9538 52.9961 18.0717 53.3686 18.1731 53.764C18.3658 54.4778 18.494 55.2077 18.5558 55.9448C18.5558 55.9864 18.5558 56.0322 18.5558 56.0738C18.502 55.9365 18.142 55.2019 18.1172 55.1541C17.7282 54.5298 16.6152 53.5788 15.829 53.7848C15.6993 53.8225 15.579 53.8873 15.4758 53.9749C15.3727 54.0626 15.2892 54.1711 15.2306 54.2935C15.172 54.4158 15.1398 54.5492 15.1359 54.685C15.1321 54.8207 15.1568 54.9557 15.2083 55.0812C15.4152 55.6223 16.0359 55.9677 16.5448 56.1217C17.1427 56.3027 18.5061 56.1092 18.5579 56.103C18.5995 56.8385 18.5946 57.576 18.5434 58.3109C18.5061 58.8561 18.4482 59.4055 18.3841 59.9569C18.3096 59.78 17.9703 59.0975 17.9496 59.0517C17.5607 58.4274 16.4476 57.4764 15.6614 57.6824C15.5317 57.7201 15.4114 57.7849 15.3083 57.8726C15.2051 57.9602 15.1216 58.0688 15.063 58.1911C15.0044 58.3135 14.9722 58.4469 14.9683 58.5826C14.9645 58.7183 14.9892 58.8534 15.0407 58.9789C15.2476 59.5199 15.8683 59.8633 16.3773 60.0193C16.9607 60.1941 18.2682 60.0193 18.3799 60.0006C18.3489 60.2503 18.322 60.5021 18.291 60.7518C18.1896 61.5697 18.0841 62.3916 18.0034 63.2032C17.9765 63.4842 17.96 63.763 17.9413 64.0356C17.8193 63.7734 17.5896 63.299 17.5648 63.2615C17.1758 62.6372 16.0648 61.6862 15.289 61.8922C15.1595 61.9302 15.0394 61.9952 14.9364 62.0829C14.8335 62.1706 14.7501 62.2791 14.6915 62.4014C14.633 62.5236 14.6007 62.6569 14.5967 62.7925C14.5927 62.9282 14.6171 63.0631 14.6683 63.1887C14.8752 63.7297 15.4959 64.0731 16.0048 64.2291C16.5138 64.3852 17.6289 64.2604 17.9393 64.2187C17.9124 64.6828 17.8958 65.1448 17.902 65.5984C17.902 65.7961 17.902 65.9959 17.9206 66.1832L17.9579 66.7471C17.9993 67.13 18.0344 67.4859 18.08 67.8438C18.1027 68.0227 18.1275 68.1913 18.1524 68.3661C18.0675 68.0831 17.9289 67.6336 17.9124 67.5941C17.6186 66.9261 16.671 65.8086 15.8559 65.8918C15.7222 65.9096 15.5937 65.9555 15.4788 66.0265C15.3639 66.0974 15.2651 66.1919 15.1888 66.3037C15.1126 66.4156 15.0605 66.5423 15.0361 66.6757C15.0116 66.8091 15.0153 66.9461 15.0469 67.078C15.1628 67.644 15.7214 68.0789 16.2117 68.312C16.7517 68.57 18.0262 68.5971 18.1834 68.5992C18.2434 69.0278 18.3055 69.442 18.3717 69.8311C18.5786 71.0568 18.7854 72.0723 18.9551 72.7798C19.1247 73.4874 19.2282 73.8911 19.2282 73.8911C19.2536 73.959 19.3036 74.0148 19.3682 74.0471C19.4328 74.0795 19.5071 74.086 19.5763 74.0655C19.6456 74.0449 19.7044 73.9987 19.7412 73.9363C19.7779 73.8738 19.7898 73.7997 19.7744 73.7287C19.7744 73.7287 19.6482 73.3771 19.4723 72.6779Z" fill="#407BFF"/>
<path d="M17.8917 52.509C17.8917 52.509 19.2385 52.0304 19.6916 51.583C20.0785 51.2001 20.4675 50.607 20.3951 50.0348C20.3824 49.8995 20.3416 49.7685 20.2752 49.6502C20.2089 49.5318 20.1185 49.4289 20.01 49.348C19.9015 49.2671 19.7773 49.2102 19.6454 49.1808C19.5136 49.1514 19.3771 49.1502 19.2447 49.1774C18.4544 49.3626 17.9124 50.7319 17.8524 51.4665C17.8462 51.5268 17.8772 52.5153 17.8917 52.509Z" fill="#407BFF"/>
<path d="M18.6973 72.9712C18.1697 72.4884 17.4249 71.785 16.5684 70.9027C16.3222 70.6488 16.0636 70.3762 15.8029 70.0932C15.9105 69.9767 16.7773 69.0382 16.9698 68.4701C17.1435 67.954 17.2222 67.2485 16.8994 66.7699C16.8275 66.6552 16.7324 66.557 16.6202 66.4817C16.5081 66.4064 16.3814 66.3557 16.2485 66.333C16.1156 66.3102 15.9794 66.3158 15.8488 66.3495C15.7182 66.3832 15.5961 66.4442 15.4905 66.5285C14.8698 67.0529 15.0002 68.5221 15.2733 69.1963C15.2898 69.24 15.5546 69.7291 15.687 69.9746C15.5277 69.804 15.3705 69.6333 15.2091 69.4502C14.9753 69.1922 14.7374 68.9092 14.5036 68.6386L14.1519 68.1975C14.0299 68.0497 13.9326 67.8937 13.8188 67.7417C13.6574 67.5149 13.5023 67.2714 13.3471 67.028C13.6243 66.8053 14.4271 66.1332 14.6691 65.6649C14.9112 65.1967 15.1036 64.4954 14.8553 63.9752C14.8016 63.8507 14.7224 63.739 14.6228 63.6473C14.5232 63.5557 14.4056 63.4862 14.2775 63.4434C14.1494 63.4006 14.0138 63.3854 13.8795 63.3989C13.7452 63.4123 13.6153 63.4541 13.4981 63.5215C12.803 63.9377 12.714 65.4152 12.8775 66.1248C12.8775 66.1498 12.9354 66.2955 12.9975 66.4682C12.8526 66.2268 12.7078 65.9875 12.5692 65.7378C12.1782 65.0302 11.8016 64.2998 11.421 63.5673C11.3424 63.4154 11.2617 63.2635 11.181 63.1116C11.4148 62.9243 12.2899 62.2043 12.5444 61.7132C12.7989 61.2221 12.9768 60.5437 12.7306 60.0234C12.6768 59.8989 12.5976 59.7872 12.498 59.6956C12.3985 59.6039 12.2808 59.5345 12.1527 59.4916C12.0247 59.4488 11.8891 59.4337 11.7548 59.4471C11.6205 59.4606 11.4905 59.5024 11.3734 59.5698C10.6782 59.986 10.5893 61.4635 10.7527 62.1731C10.7527 62.2001 10.821 62.3812 10.8913 62.5685C10.6844 62.1731 10.461 61.7839 10.2355 61.401C9.84881 60.7456 9.41962 60.1165 8.95071 59.5178C9.03553 59.4512 10.0783 58.6292 10.3596 58.084C10.61 57.6012 10.7941 56.9145 10.5458 56.3942C10.4923 56.2695 10.4132 56.1576 10.3137 56.0658C10.2142 55.9739 10.0966 55.9042 9.96852 55.8612C9.84043 55.8182 9.70476 55.8028 9.57037 55.8162C9.43599 55.8295 9.30591 55.8712 9.18863 55.9385C8.49348 56.3547 8.40452 57.8343 8.56796 58.5439C8.58037 58.5938 8.80795 59.2243 8.89485 59.447L8.88036 59.4241C8.40408 58.8484 7.87864 58.3158 7.31007 57.8322C6.81057 57.3996 6.28698 56.9959 5.74184 56.6231C5.23289 56.2735 4.74463 55.9843 4.31223 55.7325C4.07638 55.5972 3.85708 55.4786 3.65433 55.3704H3.66881C3.68329 55.3704 3.07296 54.5859 3.02745 54.538C2.51643 54.0199 1.22751 53.3227 0.503393 53.6931C0.384737 53.7577 0.280934 53.8466 0.19875 53.9542C0.116567 54.0618 0.0578467 54.1856 0.026419 54.3175C-0.00500869 54.4495 -0.00843859 54.5866 0.0163525 54.72C0.0411436 54.8533 0.0935989 54.9799 0.1703 55.0916C0.480635 55.5785 1.15716 55.7824 1.69922 55.8241C2.24127 55.8657 3.33985 55.4869 3.60674 55.3912C3.81363 55.5077 4.04121 55.6347 4.28534 55.7824C4.71153 56.0426 5.19152 56.3422 5.69012 56.7022C5.8246 56.7979 5.96322 56.9103 6.1039 57.0081C5.83908 56.8833 5.46875 56.7189 5.43151 56.7064C4.7405 56.4837 3.27572 56.4608 2.80194 57.1226C2.72679 57.2352 2.67598 57.3625 2.65278 57.4961C2.62959 57.6298 2.63453 57.7668 2.66728 57.8984C2.70004 58.03 2.75989 58.1532 2.84295 58.2601C2.92602 58.367 3.03046 58.4552 3.14951 58.5189C3.64812 58.804 4.3412 58.6729 4.8398 58.4586C5.33841 58.2442 6.16804 57.3723 6.34389 57.1829C6.64388 57.4139 6.94594 57.6595 7.248 57.9321C7.79953 58.421 8.30637 58.9586 8.76243 59.5386C8.78933 59.5719 8.81209 59.6093 8.83899 59.6447C8.71692 59.5594 8.01143 59.1453 7.96591 59.1224C7.30386 58.8248 5.84943 58.6396 5.30738 59.2493C5.22018 59.3528 5.15559 59.4736 5.11779 59.6038C5.07999 59.734 5.06984 59.8707 5.08798 60.0051C5.10612 60.1396 5.15216 60.2686 5.22311 60.384C5.29405 60.4994 5.38831 60.5984 5.49978 60.6748C5.96322 61.014 6.66871 60.9599 7.18594 60.8017C7.78385 60.6207 8.81623 59.703 8.85554 59.6697C9.29508 60.2594 9.69592 60.8774 10.0555 61.5197C10.3245 61.9941 10.5769 62.4852 10.8251 62.9763C10.6658 62.8702 10.0162 62.4852 9.96653 62.4623C9.30449 62.1648 7.85005 61.9816 7.30593 62.5893C7.21853 62.6927 7.1538 62.8136 7.11599 62.9439C7.07817 63.0743 7.06811 63.2112 7.08646 63.3457C7.10481 63.4802 7.15117 63.6094 7.2225 63.7246C7.29382 63.8399 7.38852 63.9388 7.50041 64.0147C7.96384 64.356 8.66727 64.2998 9.18656 64.1438C9.76999 63.9648 10.7631 63.0908 10.8417 63.0179C10.9555 63.2427 11.0693 63.4674 11.181 63.6922C11.5451 64.433 11.9051 65.1738 12.2858 65.8959C12.4161 66.1456 12.5547 66.3891 12.6995 66.6305C12.4534 66.4786 12.0023 66.2143 11.961 66.1935C11.2989 65.8959 9.84447 65.7128 9.30242 66.3204C9.21522 66.4239 9.15063 66.5447 9.11283 66.6749C9.07504 66.8051 9.06488 66.9419 9.08302 67.0763C9.10117 67.2107 9.1472 67.3398 9.21815 67.4551C9.28909 67.5705 9.38336 67.6695 9.49483 67.7459C9.95826 68.0872 10.6617 68.031 11.181 67.8749C11.7003 67.7188 12.5527 66.9988 12.7906 66.7928C13.0223 67.1944 13.2602 67.5898 13.5147 67.9644C13.6285 68.1246 13.734 68.2953 13.8499 68.443L14.1912 68.8904C14.4354 69.188 14.6609 69.4669 14.8947 69.7374L15.2402 70.1348C15.0146 69.9434 14.6526 69.6479 14.6195 69.625C13.9988 69.2296 12.6002 68.8259 11.9713 69.3441C11.8692 69.4331 11.7869 69.5427 11.7298 69.6658C11.6726 69.7889 11.6418 69.9227 11.6395 70.0585C11.6372 70.1944 11.6633 70.3292 11.7162 70.4542C11.7691 70.5792 11.8475 70.6916 11.9465 70.7841C12.3602 71.1899 13.0595 71.244 13.6016 71.167C14.1933 71.0817 15.2712 70.397 15.4036 70.3117C15.687 70.6343 15.9684 70.936 16.2312 71.2336C17.0753 72.143 17.8139 72.8692 18.3373 73.3687C18.8607 73.8681 19.1649 74.1469 19.1649 74.1469C19.2233 74.1901 19.2959 74.2092 19.3679 74.2004C19.4398 74.1917 19.5058 74.1558 19.5524 74.0999C19.599 74.044 19.6227 73.9724 19.6187 73.8996C19.6148 73.8268 19.5834 73.7583 19.5311 73.7079C19.5311 73.7079 19.2269 73.4561 18.6973 72.9712Z" fill="#407BFF"/>
<path d="M6.31799 57.0289C6.31799 57.0289 7.17658 55.8823 7.31106 55.256C7.42485 54.7232 7.42278 54.0074 7.04831 53.5745C6.9634 53.469 6.85741 53.3826 6.73721 53.3209C6.61701 53.2592 6.48528 53.2236 6.35052 53.2164C6.21577 53.2091 6.081 53.2304 5.95494 53.2788C5.82887 53.3272 5.71433 53.4018 5.6187 53.4975C5.0601 54.0906 5.36009 55.5348 5.70766 56.1737C5.74283 56.2298 6.30764 57.0393 6.31799 57.0289Z" fill="#407BFF"/>
<g opacity="0.1">
<path d="M19.4723 72.6779C19.2965 71.9807 19.0585 70.9819 18.831 69.7645C18.7648 69.417 18.6986 69.0445 18.6365 68.6637C18.7896 68.6262 20.0289 68.3266 20.4985 67.9582C20.9268 67.6232 21.3798 67.078 21.3736 66.5016C21.3766 66.3666 21.3515 66.2326 21.2998 66.108C21.2482 65.9835 21.1711 65.8712 21.0736 65.7785C20.9761 65.6857 20.8604 65.6146 20.7339 65.5696C20.6074 65.5246 20.473 65.5068 20.3392 65.5173C19.5303 65.6088 18.8372 66.9073 18.6841 67.6232C18.6841 67.669 18.6261 68.2225 18.6096 68.5055C18.5703 68.2745 18.533 68.0456 18.4979 67.8042C18.4461 67.4588 18.4006 67.0905 18.3551 66.7346L18.3055 66.1728C18.2827 65.9813 18.2868 65.7961 18.2765 65.6067C18.2765 65.3279 18.2765 65.0386 18.2765 64.7515C18.6303 64.7182 19.6668 64.6037 20.1261 64.3457C20.5854 64.0876 21.1295 63.6111 21.2081 63.0409C21.2317 62.9072 21.2269 62.7699 21.1942 62.6382C21.1614 62.5064 21.1014 62.3831 21.018 62.2763C20.9346 62.1694 20.8298 62.0815 20.7103 62.0182C20.5909 61.9549 20.4595 61.9176 20.3247 61.9089C19.5137 61.8756 18.6323 63.0534 18.382 63.7401C18.382 63.7609 18.3365 63.9108 18.2951 64.0897C18.2951 63.8088 18.3179 63.5299 18.3386 63.2448C18.4006 62.4374 18.4875 61.6196 18.5724 60.7976C18.5889 60.6249 18.6034 60.4543 18.622 60.2836C18.9199 60.2566 20.0433 60.1421 20.5233 59.8674C21.0033 59.5927 21.5267 59.1329 21.6074 58.5606C21.6307 58.4269 21.6257 58.2898 21.5928 58.1582C21.5599 58.0265 21.4998 57.9033 21.4165 57.7966C21.3332 57.6898 21.2285 57.6019 21.1092 57.5385C20.9899 57.4751 20.8586 57.4376 20.724 57.4285C19.913 57.3973 19.0296 58.5752 18.7813 59.2598C18.7813 59.2848 18.7275 59.4679 18.6799 59.6656C18.7192 59.2182 18.7523 58.7729 18.773 58.3296C18.8118 57.5666 18.7993 56.8019 18.7358 56.0405C18.8413 56.0405 20.1613 55.924 20.6971 55.6244C21.1688 55.3601 21.7005 54.8898 21.7791 54.3175C21.8027 54.1838 21.798 54.0465 21.7652 53.9148C21.7324 53.783 21.6724 53.6597 21.589 53.5528C21.5057 53.446 21.4008 53.3581 21.2813 53.2948C21.1619 53.2314 21.0305 53.1942 20.8957 53.1855C20.0847 53.1542 19.2034 54.3321 18.953 55.0167C18.9365 55.0646 18.7792 55.7159 18.7317 55.9511C18.7317 55.9511 18.7317 55.9323 18.7317 55.924C18.6524 55.1792 18.507 54.4431 18.2972 53.7244C18.112 53.0823 17.8902 52.4514 17.6331 51.8349C17.4014 51.2606 17.1531 50.7486 16.9296 50.2971C16.8076 50.0536 16.6917 49.8351 16.58 49.6291H16.5966C16.611 49.6291 16.5303 48.6448 16.5179 48.5886C16.3752 47.8728 15.6904 46.5742 14.8628 46.4806C14.729 46.4701 14.5946 46.4879 14.4681 46.5329C14.3416 46.5779 14.2259 46.649 14.1284 46.7418C14.0309 46.8345 13.9539 46.9468 13.9022 47.0714C13.8505 47.1959 13.8254 47.33 13.8284 47.4649C13.8284 48.0413 14.2732 48.5865 14.7014 48.9216C15.1297 49.2566 16.2531 49.5459 16.5303 49.6208C16.6421 49.8289 16.7579 50.0661 16.8821 50.3221C17.089 50.7778 17.3289 51.2918 17.5482 51.8703C17.6082 52.0243 17.6641 52.1908 17.722 52.3531C17.5689 52.1013 17.3517 51.7579 17.3269 51.7288C16.8738 51.1607 15.6718 50.3304 14.9042 50.6217C14.7796 50.6737 14.6673 50.7515 14.5746 50.85C14.4818 50.9485 14.4107 51.0656 14.3658 51.1935C14.3209 51.3214 14.3033 51.4574 14.3141 51.5927C14.3249 51.7279 14.3638 51.8594 14.4283 51.9785C14.6849 52.4946 15.3366 52.7672 15.8766 52.8671C16.4166 52.967 17.5793 52.6985 17.8296 52.6361C17.9538 52.9961 18.0717 53.3686 18.1731 53.764C18.3658 54.4778 18.494 55.2077 18.5558 55.9448C18.5558 55.9864 18.5558 56.0322 18.5558 56.0738C18.502 55.9365 18.142 55.2019 18.1172 55.1541C17.7282 54.5298 16.6152 53.5788 15.829 53.7848C15.6993 53.8225 15.579 53.8873 15.4758 53.9749C15.3727 54.0626 15.2892 54.1711 15.2306 54.2935C15.172 54.4158 15.1398 54.5492 15.1359 54.685C15.1321 54.8207 15.1568 54.9557 15.2083 55.0812C15.4152 55.6223 16.0359 55.9677 16.5448 56.1217C17.1427 56.3027 18.5061 56.1092 18.5579 56.103C18.5995 56.8385 18.5946 57.576 18.5434 58.3109C18.5061 58.8561 18.4482 59.4055 18.3841 59.9569C18.3096 59.78 17.9703 59.0975 17.9496 59.0517C17.5607 58.4274 16.4476 57.4764 15.6614 57.6824C15.5317 57.7201 15.4114 57.7849 15.3083 57.8726C15.2051 57.9602 15.1216 58.0688 15.063 58.1911C15.0044 58.3135 14.9722 58.4469 14.9683 58.5826C14.9645 58.7183 14.9892 58.8534 15.0407 58.9789C15.2476 59.5199 15.8683 59.8633 16.3773 60.0193C16.9607 60.1941 18.2682 60.0193 18.3799 60.0006C18.3489 60.2503 18.322 60.5021 18.291 60.7518C18.1896 61.5697 18.0841 62.3916 18.0034 63.2032C17.9765 63.4842 17.96 63.763 17.9413 64.0356C17.8193 63.7734 17.5896 63.299 17.5648 63.2615C17.1758 62.6372 16.0648 61.6862 15.289 61.8922C15.1595 61.9302 15.0394 61.9952 14.9364 62.0829C14.8335 62.1706 14.7501 62.2791 14.6915 62.4014C14.633 62.5236 14.6007 62.6569 14.5967 62.7925C14.5927 62.9282 14.6171 63.0631 14.6683 63.1887C14.8752 63.7297 15.4959 64.0731 16.0048 64.2291C16.5138 64.3852 17.6289 64.2604 17.9393 64.2187C17.9124 64.6828 17.8958 65.1448 17.902 65.5984C17.902 65.7961 17.902 65.9959 17.9206 66.1832L17.9579 66.7471C17.9993 67.13 18.0344 67.4859 18.08 67.8438C18.1027 68.0227 18.1275 68.1913 18.1524 68.3661C18.0675 68.0831 17.9289 67.6336 17.9124 67.5941C17.6186 66.9261 16.671 65.8086 15.8559 65.8918C15.7222 65.9096 15.5937 65.9555 15.4788 66.0265C15.3639 66.0974 15.2651 66.1919 15.1888 66.3037C15.1126 66.4156 15.0605 66.5423 15.0361 66.6757C15.0116 66.8091 15.0153 66.9461 15.0469 67.078C15.1628 67.644 15.7214 68.0789 16.2117 68.312C16.7517 68.57 18.0262 68.5971 18.1834 68.5992C18.2434 69.0278 18.3055 69.442 18.3717 69.8311C18.5786 71.0568 18.7854 72.0723 18.9551 72.7798C19.1247 73.4874 19.2282 73.8911 19.2282 73.8911C19.2536 73.959 19.3036 74.0148 19.3682 74.0471C19.4328 74.0795 19.5071 74.086 19.5763 74.0655C19.6456 74.0449 19.7044 73.9987 19.7412 73.9363C19.7779 73.8738 19.7898 73.7997 19.7744 73.7287C19.7744 73.7287 19.6482 73.3771 19.4723 72.6779Z" fill="black"/>
<path d="M17.8917 52.509C17.8917 52.509 19.2385 52.0304 19.6916 51.583C20.0785 51.2001 20.4675 50.607 20.3951 50.0348C20.3824 49.8995 20.3416 49.7685 20.2752 49.6502C20.2089 49.5318 20.1185 49.4289 20.01 49.348C19.9015 49.2671 19.7773 49.2102 19.6454 49.1808C19.5136 49.1514 19.3771 49.1502 19.2447 49.1774C18.4544 49.3626 17.9124 50.7319 17.8524 51.4665C17.8462 51.5268 17.8772 52.5153 17.8917 52.509Z" fill="black"/>
<path d="M18.6973 72.9712C18.1697 72.4884 17.4249 71.785 16.5684 70.9027C16.3222 70.6488 16.0636 70.3762 15.8029 70.0932C15.9105 69.9767 16.7773 69.0382 16.9698 68.4701C17.1435 67.954 17.2222 67.2485 16.8994 66.7699C16.8275 66.6552 16.7324 66.557 16.6202 66.4817C16.5081 66.4064 16.3814 66.3557 16.2485 66.333C16.1156 66.3102 15.9794 66.3158 15.8488 66.3495C15.7182 66.3832 15.5961 66.4442 15.4905 66.5285C14.8698 67.0529 15.0002 68.5221 15.2733 69.1963C15.2898 69.24 15.5546 69.7291 15.687 69.9746C15.5277 69.804 15.3705 69.6333 15.2091 69.4502C14.9753 69.1922 14.7374 68.9092 14.5036 68.6386L14.1519 68.1975C14.0299 68.0497 13.9326 67.8937 13.8188 67.7417C13.6574 67.5149 13.5023 67.2714 13.3471 67.028C13.6243 66.8053 14.4271 66.1332 14.6691 65.6649C14.9112 65.1967 15.1036 64.4954 14.8553 63.9752C14.8016 63.8507 14.7224 63.739 14.6228 63.6473C14.5232 63.5557 14.4056 63.4862 14.2775 63.4434C14.1494 63.4006 14.0138 63.3854 13.8795 63.3989C13.7452 63.4123 13.6153 63.4541 13.4981 63.5215C12.803 63.9377 12.714 65.4152 12.8775 66.1248C12.8775 66.1498 12.9354 66.2955 12.9975 66.4682C12.8526 66.2268 12.7078 65.9875 12.5692 65.7378C12.1782 65.0302 11.8016 64.2998 11.421 63.5673C11.3424 63.4154 11.2617 63.2635 11.181 63.1116C11.4148 62.9243 12.2899 62.2043 12.5444 61.7132C12.7989 61.2221 12.9768 60.5437 12.7306 60.0234C12.6768 59.8989 12.5976 59.7872 12.498 59.6956C12.3985 59.6039 12.2808 59.5345 12.1527 59.4916C12.0247 59.4488 11.8891 59.4337 11.7548 59.4471C11.6205 59.4606 11.4905 59.5024 11.3734 59.5698C10.6782 59.986 10.5893 61.4635 10.7527 62.1731C10.7527 62.2001 10.821 62.3812 10.8913 62.5685C10.6844 62.1731 10.461 61.7839 10.2355 61.401C9.84881 60.7456 9.41962 60.1165 8.95071 59.5178C9.03553 59.4512 10.0783 58.6292 10.3596 58.084C10.61 57.6012 10.7941 56.9145 10.5458 56.3942C10.4923 56.2695 10.4132 56.1576 10.3137 56.0658C10.2142 55.9739 10.0966 55.9042 9.96852 55.8612C9.84043 55.8182 9.70476 55.8028 9.57037 55.8162C9.43599 55.8295 9.30591 55.8712 9.18863 55.9385C8.49348 56.3547 8.40452 57.8343 8.56796 58.5439C8.58037 58.5938 8.80795 59.2243 8.89485 59.447L8.88036 59.4241C8.40408 58.8484 7.87864 58.3158 7.31007 57.8322C6.81057 57.3996 6.28698 56.9959 5.74184 56.6231C5.23289 56.2735 4.74463 55.9843 4.31223 55.7325C4.07638 55.5972 3.85708 55.4786 3.65433 55.3704H3.66881C3.68329 55.3704 3.07296 54.5859 3.02745 54.538C2.51643 54.0199 1.22751 53.3227 0.503393 53.6931C0.384737 53.7577 0.280934 53.8466 0.19875 53.9542C0.116567 54.0618 0.0578467 54.1856 0.026419 54.3175C-0.00500869 54.4495 -0.00843859 54.5866 0.0163525 54.72C0.0411436 54.8533 0.0935989 54.9799 0.1703 55.0916C0.480635 55.5785 1.15716 55.7824 1.69922 55.8241C2.24127 55.8657 3.33985 55.4869 3.60674 55.3912C3.81363 55.5077 4.04121 55.6347 4.28534 55.7824C4.71153 56.0426 5.19152 56.3422 5.69012 56.7022C5.8246 56.7979 5.96322 56.9103 6.1039 57.0081C5.83908 56.8833 5.46875 56.7189 5.43151 56.7064C4.7405 56.4837 3.27572 56.4608 2.80194 57.1226C2.72679 57.2352 2.67598 57.3625 2.65278 57.4961C2.62959 57.6298 2.63453 57.7668 2.66728 57.8984C2.70004 58.03 2.75989 58.1532 2.84295 58.2601C2.92602 58.367 3.03046 58.4552 3.14951 58.5189C3.64812 58.804 4.3412 58.6729 4.8398 58.4586C5.33841 58.2442 6.16804 57.3723 6.34389 57.1829C6.64388 57.4139 6.94594 57.6595 7.248 57.9321C7.79953 58.421 8.30637 58.9586 8.76243 59.5386C8.78933 59.5719 8.81209 59.6093 8.83899 59.6447C8.71692 59.5594 8.01143 59.1453 7.96591 59.1224C7.30386 58.8248 5.84943 58.6396 5.30738 59.2493C5.22018 59.3528 5.15559 59.4736 5.11779 59.6038C5.07999 59.734 5.06984 59.8707 5.08798 60.0051C5.10612 60.1396 5.15216 60.2686 5.22311 60.384C5.29405 60.4994 5.38831 60.5984 5.49978 60.6748C5.96322 61.014 6.66871 60.9599 7.18594 60.8017C7.78385 60.6207 8.81623 59.703 8.85554 59.6697C9.29508 60.2594 9.69592 60.8774 10.0555 61.5197C10.3245 61.9941 10.5769 62.4852 10.8251 62.9763C10.6658 62.8702 10.0162 62.4852 9.96653 62.4623C9.30449 62.1648 7.85005 61.9816 7.30593 62.5893C7.21853 62.6927 7.1538 62.8136 7.11599 62.9439C7.07817 63.0743 7.06811 63.2112 7.08646 63.3457C7.10481 63.4802 7.15117 63.6094 7.2225 63.7246C7.29382 63.8399 7.38852 63.9388 7.50041 64.0147C7.96384 64.356 8.66727 64.2998 9.18656 64.1438C9.76999 63.9648 10.7631 63.0908 10.8417 63.0179C10.9555 63.2427 11.0693 63.4674 11.181 63.6922C11.5451 64.433 11.9051 65.1738 12.2858 65.8959C12.4161 66.1456 12.5547 66.3891 12.6995 66.6305C12.4534 66.4786 12.0023 66.2143 11.961 66.1935C11.2989 65.8959 9.84447 65.7128 9.30242 66.3204C9.21522 66.4239 9.15063 66.5447 9.11283 66.6749C9.07504 66.8051 9.06488 66.9419 9.08302 67.0763C9.10117 67.2107 9.1472 67.3398 9.21815 67.4551C9.28909 67.5705 9.38336 67.6695 9.49483 67.7459C9.95826 68.0872 10.6617 68.031 11.181 67.8749C11.7003 67.7188 12.5527 66.9988 12.7906 66.7928C13.0223 67.1944 13.2602 67.5898 13.5147 67.9644C13.6285 68.1246 13.734 68.2953 13.8499 68.443L14.1912 68.8904C14.4354 69.188 14.6609 69.4669 14.8947 69.7374L15.2402 70.1348C15.0146 69.9434 14.6526 69.6479 14.6195 69.625C13.9988 69.2296 12.6002 68.8259 11.9713 69.3441C11.8692 69.4331 11.7869 69.5427 11.7298 69.6658C11.6726 69.7889 11.6418 69.9227 11.6395 70.0585C11.6372 70.1944 11.6633 70.3292 11.7162 70.4542C11.7691 70.5792 11.8475 70.6916 11.9465 70.7841C12.3602 71.1899 13.0595 71.244 13.6016 71.167C14.1933 71.0817 15.2712 70.397 15.4036 70.3117C15.687 70.6343 15.9684 70.936 16.2312 71.2336C17.0753 72.143 17.8139 72.8692 18.3373 73.3687C18.8607 73.8681 19.1649 74.1469 19.1649 74.1469C19.2233 74.1901 19.2959 74.2092 19.3679 74.2004C19.4398 74.1917 19.5058 74.1558 19.5524 74.0999C19.599 74.044 19.6227 73.9724 19.6187 73.8996C19.6148 73.8268 19.5834 73.7583 19.5311 73.7079C19.5311 73.7079 19.2269 73.4561 18.6973 72.9712Z" fill="black"/>
<path d="M6.31799 57.0289C6.31799 57.0289 7.17658 55.8823 7.31106 55.256C7.42485 54.7232 7.42278 54.0074 7.04831 53.5745C6.9634 53.469 6.85741 53.3826 6.73721 53.3209C6.61701 53.2592 6.48528 53.2236 6.35052 53.2164C6.21577 53.2091 6.081 53.2304 5.95494 53.2788C5.82887 53.3272 5.71433 53.4018 5.6187 53.4975C5.0601 54.0906 5.36009 55.5348 5.70766 56.1737C5.74283 56.2298 6.30764 57.0393 6.31799 57.0289Z" fill="black"/>
</g>
<g opacity="0.1">
<path d="M24.7527 57.4972C24.6079 56.7939 24.4155 55.7846 24.2396 54.5651C24.1879 54.2135 24.1382 53.841 24.0927 53.456C24.25 53.4269 25.4996 53.1813 25.9858 52.8317C26.4285 52.5175 26.9044 51.9993 26.923 51.4166C26.9337 51.2803 26.9154 51.1432 26.8695 51.0145C26.8235 50.8858 26.7509 50.7683 26.6564 50.6699C26.5619 50.5716 26.4478 50.4945 26.3214 50.4439C26.1951 50.3932 26.0595 50.3701 25.9237 50.3762C25.1127 50.4323 24.3637 51.6976 24.1879 52.4072C24.1775 52.453 24.1051 53.0023 24.0741 53.2854C24.0472 53.0523 24.0203 52.8213 23.9955 52.5799C23.9582 52.2303 23.9293 51.862 23.9003 51.504C23.9003 51.3168 23.8817 51.1295 23.8734 50.9401C23.8651 50.7507 23.8734 50.5655 23.8734 50.3741C23.8734 50.0952 23.8941 49.806 23.9086 49.5188C24.2644 49.5022 25.3051 49.4335 25.7706 49.1963C26.2361 48.959 26.805 48.5075 26.9106 47.9477C26.9395 47.8155 26.9406 47.6786 26.9138 47.546C26.887 47.4133 26.8329 47.2877 26.755 47.1774C26.677 47.067 26.577 46.9743 26.4612 46.9052C26.3455 46.8361 26.2167 46.7921 26.083 46.7761C25.2741 46.7095 24.341 47.8457 24.0638 48.5199C24.0534 48.5407 24.01 48.6906 23.9582 48.8675C23.9831 48.5865 24.0058 48.3056 24.041 48.0226C24.1362 47.2214 24.2603 46.4057 24.3803 45.5879C24.4051 45.4172 24.4279 45.2487 24.4527 45.078C24.7506 45.0635 25.8803 45.001 26.3706 44.7534C26.8609 44.5058 27.405 44.0625 27.5105 43.5048C27.5398 43.3726 27.5412 43.2356 27.5145 43.1028C27.4879 42.97 27.4338 42.8444 27.3558 42.7339C27.2778 42.6235 27.1776 42.5307 27.0617 42.4617C26.9458 42.3927 26.8168 42.3489 26.683 42.3332C25.872 42.2666 24.941 43.4029 24.6617 44.0771C24.6617 44.1 24.5996 44.2852 24.5417 44.4766C24.6017 44.0334 24.6534 43.5881 24.6927 43.1469C24.7655 42.3862 24.787 41.6214 24.7568 40.8578C24.8624 40.8578 26.1864 40.8058 26.7326 40.5311C27.2188 40.2876 27.7671 39.8423 27.8726 39.2825C27.9019 39.1504 27.9033 39.0136 27.8766 38.8809C27.8499 38.7482 27.7958 38.6227 27.7178 38.5124C27.6397 38.4021 27.5395 38.3096 27.4236 38.2408C27.3077 38.172 27.1787 38.1285 27.045 38.113C26.234 38.0444 25.303 39.1827 25.0237 39.8548C25.003 39.9027 24.8168 40.5478 24.761 40.7788C24.76 40.7698 24.76 40.7607 24.761 40.7517C24.7131 40.0043 24.5996 39.2627 24.4217 38.5355C24.2655 37.8852 24.0721 37.2446 23.8424 36.6168C23.6355 36.0342 23.41 35.5118 23.2072 35.0519C23.0955 34.8022 22.9879 34.5775 22.8866 34.3694H22.9031C22.9176 34.3694 22.8783 33.3809 22.87 33.3289C22.7583 32.6089 22.1231 31.2812 21.3204 31.1522C21.1866 31.1343 21.0505 31.145 20.9211 31.1836C20.7916 31.2222 20.6717 31.2879 20.5692 31.3763C20.4667 31.4646 20.3839 31.5738 20.3262 31.6965C20.2685 31.8193 20.2371 31.9529 20.2342 32.0886C20.2011 32.6651 20.6294 33.229 21.0411 33.5828C21.4528 33.9365 22.5659 34.282 22.839 34.3611C22.9403 34.5816 23.0459 34.8168 23.1596 35.079C23.3521 35.543 23.5734 36.0674 23.7576 36.6543C23.8093 36.8104 23.8589 36.981 23.9107 37.1433C23.7679 36.8853 23.5672 36.5336 23.5424 36.5024C23.1141 35.9135 21.9411 35.029 21.1714 35.2871C21.0445 35.3332 20.9286 35.4057 20.8314 35.4998C20.7342 35.594 20.6578 35.7077 20.6072 35.8336C20.5566 35.9595 20.533 36.0947 20.5379 36.2303C20.5428 36.366 20.5761 36.4991 20.6356 36.621C20.8694 37.1475 21.5087 37.4534 22.0383 37.572C22.5679 37.6906 23.7472 37.4804 23.9996 37.4305C24.1072 37.7946 24.2065 38.1713 24.2934 38.5708C24.4498 39.2888 24.5426 40.0193 24.5706 40.7538C24.5706 40.7975 24.5706 40.8412 24.5706 40.8849C24.521 40.7434 24.1982 39.9963 24.1713 39.9464C23.8093 39.3221 22.7397 38.3045 21.9452 38.4751C21.8138 38.5071 21.6906 38.5666 21.5835 38.6497C21.4765 38.7328 21.3881 38.8376 21.3241 38.9574C21.26 39.0772 21.2218 39.2092 21.2119 39.3448C21.202 39.4804 21.2207 39.6166 21.2666 39.7445C21.4425 40.2918 22.0466 40.6643 22.5576 40.8433C23.1472 41.0514 24.5189 40.9182 24.5686 40.914C24.5798 41.6509 24.5432 42.3878 24.4589 43.1198C24.3989 43.663 24.3162 44.2103 24.2272 44.7576C24.1589 44.5765 23.861 43.8815 23.832 43.8336C23.4721 43.2093 22.4024 42.1938 21.608 42.3644C21.4768 42.3965 21.3538 42.4559 21.247 42.5388C21.1401 42.6218 21.0518 42.7264 20.9878 42.846C20.9238 42.9655 20.8856 43.0972 20.8755 43.2326C20.8654 43.368 20.8838 43.504 20.9294 43.6318C21.1052 44.1811 21.7073 44.5515 22.2204 44.7326C22.7955 44.9407 24.1093 44.8137 24.221 44.8033C24.1796 45.051 24.1403 45.3007 24.0989 45.5504C23.9603 46.362 23.8196 47.1777 23.7058 47.9851C23.6645 48.2661 23.6355 48.5428 23.6065 48.8175C23.4969 48.5491 23.2879 48.0663 23.2652 48.0268C22.9031 47.4025 21.8335 46.3849 21.039 46.5576C20.9079 46.5896 20.7849 46.649 20.678 46.732C20.5712 46.8149 20.4829 46.9196 20.4189 47.0391C20.3549 47.1586 20.3166 47.2904 20.3065 47.4257C20.2965 47.5611 20.3148 47.6971 20.3604 47.8249C20.5363 48.3743 21.1383 48.7447 21.6514 48.9257C22.1645 49.1068 23.2714 49.0277 23.5838 49.0027C23.5362 49.4647 23.501 49.9246 23.4865 50.3782C23.4865 50.5739 23.4679 50.7757 23.4865 50.963C23.5052 51.1503 23.4865 51.3417 23.499 51.5269C23.5238 51.9119 23.5424 52.2698 23.5734 52.6278C23.5879 52.8088 23.6045 52.9795 23.621 53.1543C23.5507 52.8671 23.4307 52.4113 23.4141 52.3718C23.1514 51.6913 22.2473 50.5322 21.4342 50.5801C21.2998 50.5922 21.1694 50.6325 21.0514 50.6985C20.9335 50.7644 20.8306 50.8545 20.7495 50.963C20.6684 51.0715 20.6108 51.1959 20.5805 51.3282C20.5502 51.4604 20.5478 51.5976 20.5735 51.7309C20.6646 52.299 21.1942 52.7589 21.6825 53.0148C22.2121 53.2958 23.4845 53.379 23.6396 53.3894C23.681 53.8181 23.7265 54.2364 23.7741 54.6255C23.9272 55.8616 24.0989 56.8833 24.2293 57.5992C24.3596 58.315 24.4527 58.7208 24.4527 58.7208C24.459 58.7601 24.4732 58.7976 24.4946 58.831C24.516 58.8644 24.5441 58.8929 24.577 58.9149C24.6099 58.9368 24.647 58.9516 24.686 58.9584C24.7249 58.9652 24.7648 58.9638 24.8031 58.9542C24.8415 58.9447 24.8775 58.9272 24.9088 58.903C24.9401 58.8788 24.966 58.8483 24.985 58.8134C25.004 58.7786 25.0156 58.7402 25.019 58.7006C25.0225 58.661 25.0178 58.6211 25.0051 58.5835C25.0051 58.5835 24.8975 58.2027 24.7527 57.4972Z" fill="black"/>
<path d="M24.0574 37.2785C24.0574 37.2785 25.4229 36.8623 25.8967 36.4316C26.3105 36.0695 26.7243 35.493 26.6643 34.9166C26.6578 34.7811 26.623 34.6485 26.5621 34.5274C26.5013 34.4064 26.4158 34.2996 26.3112 34.214C26.2065 34.1284 26.0852 34.0659 25.9549 34.0306C25.8247 33.9954 25.6885 33.9881 25.5553 34.0093C24.7567 34.1591 24.1547 35.5034 24.0637 36.2276C24.0554 36.29 24.043 37.2827 24.0574 37.2785Z" fill="black"/>
</g>
<path d="M68.506 62.6892C68.5329 69.2088 73.6906 74.4737 73.6906 74.4737C73.6906 74.4737 78.805 69.1651 78.776 62.6455C78.747 56.1258 73.6017 50.861 73.6017 50.861C73.6017 50.861 68.477 56.1695 68.506 62.6892Z" fill="#407BFF"/>
<path d="M73.6891 74.4737L73.5898 50.861" stroke="white" stroke-width="0.910297" stroke-miterlimit="10"/>
<path d="M73.6263 59.2534L70.7402 56.7417" stroke="white" stroke-width="0.910297" stroke-miterlimit="10"/>
<path d="M73.6895 63.1553L77.2273 57.9529" stroke="white" stroke-width="0.910297" stroke-miterlimit="10"/>
<path d="M73.6545 65.4047L69.3926 61.6132" stroke="white" stroke-width="0.910297" stroke-miterlimit="10"/>
<path d="M73.7109 68.4347L77.8943 64.6515" stroke="white" stroke-width="0.910297" stroke-miterlimit="10"/>
<path d="M73.7215 71.0505L70.4258 68.4493" stroke="white" stroke-width="0.910297" stroke-miterlimit="10"/>
<path d="M64.9904 72.7527C67.4958 75.5786 71.7391 75.8741 71.7391 75.8741C71.7391 75.8741 71.9274 71.5936 69.422 68.7759C66.9165 65.9583 62.665 65.6711 62.665 65.6711C62.665 65.6711 62.485 69.9434 64.9904 72.7527Z" fill="#407BFF"/>
<path d="M71.748 75.8658L62.6738 65.6628" stroke="white" stroke-width="0.910297" stroke-miterlimit="10"/>
<path d="M65.8993 69.2881L63.6855 69.315" stroke="white" stroke-width="0.910297" stroke-miterlimit="10"/>
<path d="M67.418 70.9568L66.9629 67.3318" stroke="white" stroke-width="0.910297" stroke-miterlimit="10"/>
<path d="M68.2627 71.9474L64.9648 71.9515" stroke="white" stroke-width="0.910297" stroke-miterlimit="10"/>
<path d="M69.4453 73.2375L69.814 69.9788" stroke="white" stroke-width="0.910297" stroke-miterlimit="10"/>
<path d="M70.4521 74.3696L68.0273 74.5147" stroke="white" stroke-width="0.910297" stroke-miterlimit="10"/>
<path d="M78.0581 68.6302C75.4513 71.3542 75.4844 75.6389 75.4844 75.6389C75.4844 75.6389 79.7422 75.5078 82.349 72.7838C84.9558 70.0599 84.9227 65.7751 84.9227 65.7751C84.9227 65.7751 80.6649 65.9062 78.0581 68.6302Z" fill="#407BFF"/>
<path d="M75.4844 75.6389L84.9227 65.7751" stroke="white" stroke-width="0.910297" stroke-miterlimit="10"/>
<path d="M81.5692 69.2817L81.377 67.0634" stroke="white" stroke-width="0.910297" stroke-miterlimit="10"/>
<path d="M80.0254 70.9299L83.586 70.2036" stroke="white" stroke-width="0.910297" stroke-miterlimit="10"/>
<path d="M79.1076 71.8516L78.8574 68.5428" stroke="white" stroke-width="0.910297" stroke-miterlimit="10"/>
<path d="M77.918 73.1355L81.1765 73.2598" stroke="white" stroke-width="0.910297" stroke-miterlimit="10"/>
<path d="M76.8703 74.2281L76.543 71.8059" stroke="white" stroke-width="0.910297" stroke-miterlimit="10"/>
<g opacity="0.1">
<path d="M68.506 62.6893C68.5329 69.209 73.6906 74.4738 73.6906 74.4738C73.6906 74.4738 78.805 69.1653 78.776 62.6456C78.747 56.1259 73.6017 50.8611 73.6017 50.8611C73.6017 50.8611 68.477 56.1696 68.506 62.6893Z" fill="black"/>
<path d="M64.9904 72.7529C67.4958 75.5789 71.7391 75.8744 71.7391 75.8744C71.7391 75.8744 71.9274 71.5938 69.422 68.7762C66.9165 65.9586 62.665 65.6714 62.665 65.6714C62.665 65.6714 62.485 69.9436 64.9904 72.7529Z" fill="black"/>
<path d="M78.0562 68.6304C75.4493 71.3543 75.4824 75.639 75.4824 75.639C75.4824 75.639 79.7402 75.5079 82.347 72.784C84.9539 70.06 84.9208 65.7753 84.9208 65.7753C84.9208 65.7753 80.663 65.9064 78.0562 68.6304Z" fill="black"/>
</g>
<path d="M69.9731 9.44556H18.9375V75.5183H69.9731V9.44556Z" fill="white" stroke="#263238" stroke-width="0.987488" stroke-linecap="round" stroke-linejoin="round"/>
<g style="mix-blend-mode:multiply">
<path d="M27.0786 9.44556H18.9375V75.5183H27.0786V9.44556Z" fill="#407BFF"/>
</g>
<path d="M58.6336 19.2073H42.9824V21.0593H58.6336V19.2073Z" fill="#407BFF" stroke="#263238" stroke-width="0.987488" stroke-linecap="round" stroke-linejoin="round"/>
<path d="M68.2621 34.9872H25.3594V36.8392H68.2621V34.9872Z" fill="#407BFF"/>
<path d="M68.2621 60.4415H25.3594V62.2936H68.2621V60.4415Z" fill="#407BFF"/>
<path d="M52.8469 22.3975H42.9824V24.2495H52.8469V22.3975Z" fill="#407BFF" stroke="#263238" stroke-width="0.987488" stroke-linecap="round" stroke-linejoin="round"/>
<path d="M52.8469 25.521H42.9824V27.3731H52.8469V25.521Z" fill="#407BFF" stroke="#263238" stroke-width="0.987488" stroke-linecap="round" stroke-linejoin="round"/>
<path d="M41.6252 38.8787H40.6094V39.9004H41.6252V38.8787Z" fill="#407BFF" stroke="#263238" stroke-width="0.987488" stroke-linecap="round" stroke-linejoin="round"/>
<path d="M41.6252 52.0199H40.6094V53.0417H41.6252V52.0199Z" fill="#407BFF" stroke="#263238" stroke-width="0.987488" stroke-linecap="round" stroke-linejoin="round"/>
<path d="M55.9592 38.8787H54.9434V39.9004H55.9592V38.8787Z" fill="#407BFF" stroke="#263238" stroke-width="0.987488" stroke-linecap="round" stroke-linejoin="round"/>
<path d="M55.9592 52.0199H54.9434V53.0417H55.9592V52.0199Z" fill="#407BFF" stroke="#263238" stroke-width="0.987488" stroke-linecap="round" stroke-linejoin="round"/>
<path d="M69.9731 9.44556H18.9375V12.8063H69.9731V9.44556Z" fill="#263238" stroke="#263238" stroke-width="0.987488" stroke-linecap="round" stroke-linejoin="round"/>
<path d="M52.2552 39.5883H43.2721C43.1953 39.5883 43.1216 39.5576 43.0673 39.503C43.0129 39.4483 42.9824 39.3742 42.9824 39.2969C42.9824 39.2197 43.0129 39.1456 43.0673 39.0909C43.1216 39.0363 43.1953 39.0056 43.2721 39.0056H52.2552C52.332 39.0056 52.4057 39.0363 52.46 39.0909C52.5144 39.1456 52.5449 39.2197 52.5449 39.2969C52.5449 39.3742 52.5144 39.4483 52.46 39.503C52.4057 39.5576 52.332 39.5883 52.2552 39.5883Z" fill="#263238"/>
<path d="M52.2552 41.0469H43.2721C43.1951 41.0464 43.1214 41.0152 43.0671 40.9602C43.0129 40.9053 42.9824 40.831 42.9824 40.7535C42.9824 40.6762 43.0129 40.6021 43.0673 40.5475C43.1216 40.4929 43.1953 40.4622 43.2721 40.4622H52.2552C52.332 40.4622 52.4057 40.4929 52.46 40.5475C52.5144 40.6021 52.5449 40.6762 52.5449 40.7535C52.5449 40.831 52.5144 40.9053 52.4602 40.9602C52.4059 41.0152 52.3322 41.0464 52.2552 41.0469Z" fill="#263238"/>
<path d="M52.2552 42.5036H43.2721C43.1953 42.5036 43.1216 42.4729 43.0673 42.4182C43.0129 42.3636 42.9824 42.2895 42.9824 42.2122C42.9824 42.135 43.0129 42.0609 43.0673 42.0062C43.1216 41.9516 43.1953 41.9209 43.2721 41.9209H52.2552C52.332 41.9209 52.4057 41.9516 52.46 42.0062C52.5144 42.0609 52.5449 42.135 52.5449 42.2122C52.5449 42.2895 52.5144 42.3636 52.46 42.4182C52.4057 42.4729 52.332 42.5036 52.2552 42.5036Z" fill="#263238"/>
<path d="M52.2552 43.9604H43.2721C43.1953 43.9604 43.1216 43.9297 43.0673 43.875C43.0129 43.8204 42.9824 43.7463 42.9824 43.669C42.9824 43.5918 43.0129 43.5177 43.0673 43.463C43.1216 43.4084 43.1953 43.3777 43.2721 43.3777H52.2552C52.332 43.3777 52.4057 43.4084 52.46 43.463C52.5144 43.5177 52.5449 43.5918 52.5449 43.669C52.5449 43.7463 52.5144 43.8204 52.46 43.875C52.4057 43.9297 52.332 43.9604 52.2552 43.9604Z" fill="#263238"/>
<path d="M52.2552 45.417H43.2721C43.1953 45.417 43.1216 45.3863 43.0673 45.3317C43.0129 45.2771 42.9824 45.203 42.9824 45.1257C42.9824 45.0484 43.0129 44.9743 43.0673 44.9197C43.1216 44.865 43.1953 44.8344 43.2721 44.8344H52.2552C52.332 44.8344 52.4057 44.865 52.46 44.9197C52.5144 44.9743 52.5449 45.0484 52.5449 45.1257C52.5449 45.203 52.5144 45.2771 52.46 45.3317C52.4057 45.3863 52.332 45.417 52.2552 45.417Z" fill="#263238"/>
<path d="M65.8451 39.5883H56.8619C56.7851 39.5883 56.7114 39.5576 56.6571 39.503C56.6028 39.4483 56.5723 39.3742 56.5723 39.2969C56.5723 39.2197 56.6028 39.1456 56.6571 39.0909C56.7114 39.0363 56.7851 39.0056 56.8619 39.0056H65.8451C65.9219 39.0056 65.9956 39.0363 66.0499 39.0909C66.1042 39.1456 66.1347 39.2197 66.1347 39.2969C66.1347 39.3742 66.1042 39.4483 66.0499 39.503C65.9956 39.5576 65.9219 39.5883 65.8451 39.5883Z" fill="#263238"/>
<path d="M65.8451 41.0469H56.8619C56.7849 41.0464 56.7112 41.0152 56.657 40.9602C56.6027 40.9053 56.5723 40.831 56.5723 40.7535C56.5723 40.6762 56.6028 40.6021 56.6571 40.5475C56.7114 40.4929 56.7851 40.4622 56.8619 40.4622H65.8451C65.9219 40.4622 65.9956 40.4929 66.0499 40.5475C66.1042 40.6021 66.1347 40.6762 66.1347 40.7535C66.1347 40.831 66.1043 40.9053 66.05 40.9602C65.9957 41.0152 65.9221 41.0464 65.8451 41.0469Z" fill="#263238"/>
<path d="M65.8451 42.5036H56.8619C56.7851 42.5036 56.7114 42.4729 56.6571 42.4182C56.6028 42.3636 56.5723 42.2895 56.5723 42.2122C56.5723 42.135 56.6028 42.0609 56.6571 42.0062C56.7114 41.9516 56.7851 41.9209 56.8619 41.9209H65.8451C65.9219 41.9209 65.9956 41.9516 66.0499 42.0062C66.1042 42.0609 66.1347 42.135 66.1347 42.2122C66.1347 42.2895 66.1042 42.3636 66.0499 42.4182C65.9956 42.4729 65.9219 42.5036 65.8451 42.5036Z" fill="#263238"/>
<path d="M65.8451 43.9604H56.8619C56.7851 43.9604 56.7114 43.9297 56.6571 43.875C56.6028 43.8204 56.5723 43.7463 56.5723 43.669C56.5723 43.5918 56.6028 43.5177 56.6571 43.463C56.7114 43.4084 56.7851 43.3777 56.8619 43.3777H65.8451C65.9219 43.3777 65.9956 43.4084 66.0499 43.463C66.1042 43.5177 66.1347 43.5918 66.1347 43.669C66.1347 43.7463 66.1042 43.8204 66.0499 43.875C65.9956 43.9297 65.9219 43.9604 65.8451 43.9604Z" fill="#263238"/>
<path d="M65.8451 45.417H56.8619C56.7851 45.417 56.7114 45.3863 56.6571 45.3317C56.6028 45.2771 56.5723 45.203 56.5723 45.1257C56.5723 45.0484 56.6028 44.9743 56.6571 44.9197C56.7114 44.865 56.7851 44.8344 56.8619 44.8344H65.8451C65.9219 44.8344 65.9956 44.865 66.0499 44.9197C66.1042 44.9743 66.1347 45.0484 66.1347 45.1257C66.1347 45.203 66.1042 45.2771 66.0499 45.3317C65.9956 45.3863 65.9219 45.417 65.8451 45.417Z" fill="#263238"/>
<path d="M52.2552 52.5111H43.2721C43.1951 52.5106 43.1214 52.4794 43.0671 52.4245C43.0129 52.3695 42.9824 52.2952 42.9824 52.2177C42.9824 52.1405 43.0129 52.0664 43.0673 52.0117C43.1216 51.9571 43.1953 51.9264 43.2721 51.9264H52.2552C52.332 51.9264 52.4057 51.9571 52.46 52.0117C52.5144 52.0664 52.5449 52.1405 52.5449 52.2177C52.5449 52.2952 52.5144 52.3695 52.4602 52.4245C52.4059 52.4794 52.3322 52.5106 52.2552 52.5111Z" fill="#263238"/>
<path d="M52.2552 53.9677H43.2721C43.1953 53.9677 43.1216 53.937 43.0673 53.8824C43.0129 53.8277 42.9824 53.7536 42.9824 53.6763C42.9824 53.5991 43.0129 53.525 43.0673 53.4703C43.1216 53.4157 43.1953 53.385 43.2721 53.385H52.2552C52.332 53.385 52.4057 53.4157 52.46 53.4703C52.5144 53.525 52.5449 53.5991 52.5449 53.6763C52.5449 53.7536 52.5144 53.8277 52.46 53.8824C52.4057 53.937 52.332 53.9677 52.2552 53.9677Z" fill="#263238"/>
<path d="M52.2552 55.4243H43.2721C43.1953 55.4243 43.1216 55.3937 43.0673 55.339C43.0129 55.2844 42.9824 55.2103 42.9824 55.133C42.9824 55.0557 43.0129 54.9816 43.0673 54.927C43.1216 54.8724 43.1953 54.8417 43.2721 54.8417H52.2552C52.332 54.8417 52.4057 54.8724 52.46 54.927C52.5144 54.9816 52.5449 55.0557 52.5449 55.133C52.5449 55.2103 52.5144 55.2844 52.46 55.339C52.4057 55.3937 52.332 55.4243 52.2552 55.4243Z" fill="#263238"/>
<path d="M52.2552 56.8811H43.2721C43.1953 56.8811 43.1216 56.8504 43.0673 56.7958C43.0129 56.7412 42.9824 56.6671 42.9824 56.5898C42.9824 56.5125 43.0129 56.4384 43.0673 56.3838C43.1216 56.3292 43.1953 56.2985 43.2721 56.2985H52.2552C52.332 56.2985 52.4057 56.3292 52.46 56.3838C52.5144 56.4384 52.5449 56.5125 52.5449 56.5898C52.5449 56.6671 52.5144 56.7412 52.46 56.7958C52.4057 56.8504 52.332 56.8811 52.2552 56.8811Z" fill="#263238"/>
<path d="M52.2552 58.3397H43.2721C43.1953 58.3397 43.1216 58.3091 43.0673 58.2544C43.0129 58.1998 42.9824 58.1257 42.9824 58.0484C42.9824 57.9711 43.0129 57.897 43.0673 57.8424C43.1216 57.7878 43.1953 57.7571 43.2721 57.7571H52.2552C52.332 57.7571 52.4057 57.7878 52.46 57.8424C52.5144 57.897 52.5449 57.9711 52.5449 58.0484C52.5449 58.1257 52.5144 58.1998 52.46 58.2544C52.4057 58.3091 52.332 58.3397 52.2552 58.3397Z" fill="#263238"/>
<path d="M65.8451 52.5111H56.8619C56.7849 52.5106 56.7112 52.4794 56.657 52.4245C56.6027 52.3695 56.5723 52.2952 56.5723 52.2177C56.5723 52.1405 56.6028 52.0664 56.6571 52.0117C56.7114 51.9571 56.7851 51.9264 56.8619 51.9264H65.8451C65.9219 51.9264 65.9956 51.9571 66.0499 52.0117C66.1042 52.0664 66.1347 52.1405 66.1347 52.2177C66.1347 52.2952 66.1043 52.3695 66.05 52.4245C65.9957 52.4794 65.9221 52.5106 65.8451 52.5111Z" fill="#263238"/>
<path d="M65.8451 53.9677H56.8619C56.7851 53.9677 56.7114 53.937 56.6571 53.8824C56.6028 53.8277 56.5723 53.7536 56.5723 53.6763C56.5723 53.5991 56.6028 53.525 56.6571 53.4703C56.7114 53.4157 56.7851 53.385 56.8619 53.385H65.8451C65.9219 53.385 65.9956 53.4157 66.0499 53.4703C66.1042 53.525 66.1347 53.5991 66.1347 53.6763C66.1347 53.7536 66.1042 53.8277 66.0499 53.8824C65.9956 53.937 65.9219 53.9677 65.8451 53.9677Z" fill="#263238"/>
<path d="M65.8451 55.4243H56.8619C56.7851 55.4243 56.7114 55.3937 56.6571 55.339C56.6028 55.2844 56.5723 55.2103 56.5723 55.133C56.5723 55.0557 56.6028 54.9816 56.6571 54.927C56.7114 54.8724 56.7851 54.8417 56.8619 54.8417H65.8451C65.9219 54.8417 65.9956 54.8724 66.0499 54.927C66.1042 54.9816 66.1347 55.0557 66.1347 55.133C66.1347 55.2103 66.1042 55.2844 66.0499 55.339C65.9956 55.3937 65.9219 55.4243 65.8451 55.4243Z" fill="#263238"/>
<path d="M65.8451 56.8811H56.8619C56.7851 56.8811 56.7114 56.8504 56.6571 56.7958C56.6028 56.7412 56.5723 56.6671 56.5723 56.5898C56.5723 56.5125 56.6028 56.4384 56.6571 56.3838C56.7114 56.3292 56.7851 56.2985 56.8619 56.2985H65.8451C65.9219 56.2985 65.9956 56.3292 66.0499 56.3838C66.1042 56.4384 66.1347 56.5125 66.1347 56.5898C66.1347 56.6671 66.1042 56.7412 66.0499 56.7958C65.9956 56.8504 65.9219 56.8811 65.8451 56.8811Z" fill="#263238"/>
<path d="M65.8451 58.3397H56.8619C56.7851 58.3397 56.7114 58.3091 56.6571 58.2544C56.6028 58.1998 56.5723 58.1257 56.5723 58.0484C56.5723 57.9711 56.6028 57.897 56.6571 57.8424C56.7114 57.7878 56.7851 57.7571 56.8619 57.7571H65.8451C65.9219 57.7571 65.9956 57.7878 66.0499 57.8424C66.1042 57.897 66.1347 57.9711 66.1347 58.0484C66.1347 58.1257 66.1042 58.1998 66.0499 58.2544C65.9956 58.3091 65.9219 58.3397 65.8451 58.3397Z" fill="#263238"/>
<path d="M65.8451 64.9908H56.8619C56.7851 64.9908 56.7114 64.9601 56.6571 64.9054C56.6028 64.8508 56.5723 64.7767 56.5723 64.6994C56.5723 64.6221 56.6028 64.5481 56.6571 64.4934C56.7114 64.4388 56.7851 64.4081 56.8619 64.4081H65.8451C65.9219 64.4081 65.9956 64.4388 66.0499 64.4934C66.1042 64.5481 66.1347 64.6221 66.1347 64.6994C66.1347 64.7767 66.1042 64.8508 66.0499 64.9054C65.9956 64.9601 65.9219 64.9908 65.8451 64.9908Z" fill="#263238"/>
<path d="M65.8451 66.4473H56.8619C56.7851 66.4473 56.7114 66.4166 56.6571 66.362C56.6028 66.3073 56.5723 66.2332 56.5723 66.156C56.5723 66.0787 56.6028 66.0046 56.6571 65.95C56.7114 65.8953 56.7851 65.8646 56.8619 65.8646H65.8451C65.9219 65.8646 65.9956 65.8953 66.0499 65.95C66.1042 66.0046 66.1347 66.0787 66.1347 66.156C66.1347 66.2332 66.1042 66.3073 66.0499 66.362C65.9956 66.4166 65.9219 66.4473 65.8451 66.4473Z" fill="#263238"/>
<path d="M65.8451 67.906H56.8619C56.7851 67.906 56.7114 67.8753 56.6571 67.8207C56.6028 67.7661 56.5723 67.692 56.5723 67.6147C56.5723 67.5374 56.6028 67.4633 56.6571 67.4087C56.7114 67.3541 56.7851 67.3234 56.8619 67.3234H65.8451C65.9219 67.3234 65.9956 67.3541 66.0499 67.4087C66.1042 67.4633 66.1347 67.5374 66.1347 67.6147C66.1347 67.692 66.1042 67.7661 66.0499 67.8207C65.9956 67.8753 65.9219 67.906 65.8451 67.906Z" fill="#263238"/>
<path d="M65.8451 68.7799H56.8619C56.7019 68.7799 56.5723 68.9103 56.5723 69.0712C56.5723 69.2321 56.7019 69.3626 56.8619 69.3626H65.8451C66.005 69.3626 66.1347 69.2321 66.1347 69.0712C66.1347 68.9103 66.005 68.7799 65.8451 68.7799Z" fill="#263238"/>
<path d="M65.8451 70.8195H56.8619C56.7851 70.8195 56.7114 70.7888 56.6571 70.7342C56.6028 70.6795 56.5723 70.6054 56.5723 70.5282C56.5723 70.4509 56.6028 70.3768 56.6571 70.3221C56.7114 70.2675 56.7851 70.2368 56.8619 70.2368H65.8451C65.9219 70.2368 65.9956 70.2675 66.0499 70.3221C66.1042 70.3768 66.1347 70.4509 66.1347 70.5282C66.1347 70.6054 66.1042 70.6795 66.0499 70.7342C65.9956 70.7888 65.9219 70.8195 65.8451 70.8195Z" fill="#263238"/>
<path d="M64.9742 48.0411C64.7004 48.0412 64.4354 48.1389 64.2264 48.3168C64.0173 48.4947 63.8777 48.7413 63.8322 49.013H62.446C62.3953 48.7468 62.254 48.5067 62.0463 48.334C61.8386 48.1613 61.5776 48.0669 61.3081 48.0669C61.0387 48.0669 60.7777 48.1613 60.57 48.334C60.3623 48.5067 60.2209 48.7468 60.1702 49.013H58.7841C58.7334 48.7468 58.592 48.5067 58.3844 48.334C58.1767 48.1613 57.9156 48.0669 57.6462 48.0669C57.3767 48.0669 57.1157 48.1613 56.908 48.334C56.7003 48.5067 56.559 48.7468 56.5083 49.013H55.1035C55.0551 48.7449 54.9147 48.5024 54.7067 48.3278C54.4988 48.1532 54.2365 48.0576 53.9656 48.0576C53.6947 48.0576 53.4325 48.1532 53.2245 48.3278C53.0166 48.5024 52.8761 48.7449 52.8277 49.013H51.4395C51.3911 48.7449 51.2507 48.5024 51.0427 48.3278C50.8348 48.1532 50.5725 48.0576 50.3016 48.0576C50.0307 48.0576 49.7684 48.1532 49.5605 48.3278C49.3525 48.5024 49.2121 48.7449 49.1637 49.013H47.7755C47.7271 48.7449 47.5866 48.5024 47.3787 48.3278C47.1707 48.1532 46.9085 48.0576 46.6376 48.0576C46.3667 48.0576 46.1044 48.1532 45.8965 48.3278C45.6885 48.5024 45.5481 48.7449 45.4997 49.013H44.1115C44.063 48.7249 43.9086 48.4657 43.6791 48.2866C43.4496 48.1076 43.1615 48.0218 42.8721 48.0463C42.5826 48.0708 42.3129 48.2037 42.1163 48.4188C41.9197 48.6338 41.8105 48.9154 41.8105 49.2075C41.8105 49.4997 41.9197 49.7812 42.1163 49.9963C42.3129 50.2113 42.5826 50.3443 42.8721 50.3688C43.1615 50.3932 43.4496 50.3075 43.6791 50.1284C43.9086 49.9494 44.063 49.6902 44.1115 49.4021H45.4997C45.5481 49.6702 45.6885 49.9126 45.8965 50.0872C46.1044 50.2618 46.3667 50.3574 46.6376 50.3574C46.9085 50.3574 47.1707 50.2618 47.3787 50.0872C47.5866 49.9126 47.7271 49.6702 47.7755 49.4021H49.1637C49.2121 49.6702 49.3525 49.9126 49.5605 50.0872C49.7684 50.2618 50.0307 50.3574 50.3016 50.3574C50.5725 50.3574 50.8348 50.2618 51.0427 50.0872C51.2507 49.9126 51.3911 49.6702 51.4395 49.4021H52.8277C52.8761 49.6702 53.0166 49.9126 53.2245 50.0872C53.4325 50.2618 53.6947 50.3574 53.9656 50.3574C54.2365 50.3574 54.4988 50.2618 54.7067 50.0872C54.9147 49.9126 55.0551 49.6702 55.1035 49.4021H56.4917C56.5424 49.6683 56.6838 49.9084 56.8915 50.081C57.0992 50.2537 57.3602 50.3482 57.6296 50.3482C57.8991 50.3482 58.1601 50.2537 58.3678 50.081C58.5755 49.9084 58.7168 49.6683 58.7675 49.4021H60.1537C60.2044 49.6683 60.3457 49.9084 60.5534 50.081C60.7611 50.2537 61.0221 50.3482 61.2916 50.3482C61.561 50.3482 61.8221 50.2537 62.0297 50.081C62.2374 49.9084 62.3788 49.6683 62.4295 49.4021H63.8156C63.8527 49.6211 63.9512 49.8248 64.0996 49.9893C64.2479 50.1539 64.44 50.2723 64.653 50.3308C64.8661 50.3892 65.0913 50.3852 65.3022 50.3191C65.513 50.2531 65.7007 50.1279 65.8432 49.9581C65.9856 49.7884 66.0768 49.5812 66.1061 49.3611C66.1354 49.1409 66.1016 48.9169 66.0085 48.7155C65.9155 48.514 65.7671 48.3435 65.5809 48.224C65.3948 48.1046 65.1785 48.0411 64.9577 48.0411H64.9742Z" fill="#263238"/>
<path d="M37.9512 64.5162C37.5648 64.5158 37.187 64.6307 36.8656 64.8463C36.5441 65.0619 36.2935 65.3686 36.1454 65.7275C35.9972 66.0864 35.9582 66.4814 36.0334 66.8626C36.1085 67.2438 36.2943 67.5941 36.5674 67.869C36.8405 68.1439 37.1884 68.3312 37.5674 68.4072C37.9463 68.4832 38.3391 68.4444 38.6961 68.2958C39.053 68.1471 39.3582 67.8954 39.5729 67.5723C39.7876 67.2492 39.9022 66.8693 39.9022 66.4807C39.9024 66.2228 39.8522 65.9674 39.7543 65.7291C39.6563 65.4907 39.5127 65.2742 39.3315 65.0917C39.1503 64.9093 38.9351 64.7646 38.6983 64.6658C38.4614 64.5671 38.2076 64.5162 37.9512 64.5162ZM37.9512 67.4587C37.7583 67.4591 37.5696 67.4019 37.409 67.2944C37.2485 67.1869 37.1233 67.0338 37.0493 66.8546C36.9752 66.6754 36.9558 66.4782 36.9933 66.2879C37.0308 66.0976 37.1237 65.9227 37.2601 65.7855C37.3965 65.6483 37.5703 65.5549 37.7595 65.5172C37.9488 65.4794 38.1449 65.499 38.323 65.5735C38.5011 65.6479 38.6533 65.7738 38.7602 65.9353C38.8671 66.0968 38.924 66.2866 38.9236 66.4807C38.923 66.7399 38.8204 66.9883 38.6382 67.1716C38.4559 67.3549 38.2089 67.4582 37.9512 67.4587Z" fill="#407BFF" stroke="#263238" stroke-width="0.987488" stroke-linecap="round" stroke-linejoin="round"/>
<path d="M38.5322 67.261L39.4632 67.7168C39.6955 67.4294 39.8423 67.0819 39.8865 66.7142C39.9307 66.3465 39.8705 65.9738 39.713 65.639C39.5555 65.3043 39.307 65.0212 38.9963 64.8225C38.6855 64.6238 38.3252 64.5176 37.957 64.5162V65.5005C38.1602 65.5027 38.3577 65.5688 38.5216 65.6897C38.6855 65.8105 38.8076 65.9799 38.8709 66.1742C38.9341 66.3684 38.9352 66.5777 38.8741 66.7727C38.813 66.9676 38.6927 67.1384 38.5301 67.261H38.5322Z" fill="#263238" stroke="#263238" stroke-width="0.987488" stroke-linecap="round" stroke-linejoin="round"/>
<path d="M38.89 70.8798H37.028C36.967 70.8801 36.9065 70.8682 36.85 70.8449C36.7936 70.8216 36.7422 70.7873 36.699 70.744C36.6557 70.7007 36.6214 70.6492 36.598 70.5925C36.5746 70.5358 36.5625 70.475 36.5625 70.4137C36.5625 70.2895 36.6115 70.1704 36.6988 70.0826C36.7861 69.9948 36.9045 69.9454 37.028 69.9454H38.89C39.0135 69.9454 39.1319 69.9948 39.2192 70.0826C39.3065 70.1704 39.3555 70.2895 39.3555 70.4137C39.3555 70.475 39.3435 70.5358 39.32 70.5925C39.2966 70.6492 39.2623 70.7007 39.219 70.744C39.1758 70.7873 39.1245 70.8216 39.068 70.8449C39.0115 70.8682 38.951 70.8801 38.89 70.8798Z" fill="#407BFF" stroke="#263238" stroke-width="0.987488" stroke-linecap="round" stroke-linejoin="round"/>
<path d="M43.7694 64.5162C43.3832 64.5162 43.0056 64.6314 42.6844 64.8473C42.3632 65.0632 42.1129 65.37 41.9651 65.7289C41.8173 66.0879 41.7786 66.4828 41.8539 66.8639C41.9293 67.245 42.1153 67.595 42.3884 67.8697C42.6616 68.1445 43.0096 68.3316 43.3884 68.4074C43.7673 68.4831 44.16 68.4442 44.5168 68.2956C44.8737 68.1469 45.1787 67.8951 45.3933 67.572C45.6079 67.249 45.7225 66.8692 45.7225 66.4807C45.7228 66.2226 45.6724 65.967 45.5744 65.7286C45.4763 65.4901 45.3325 65.2735 45.1511 65.091C44.9697 64.9085 44.7542 64.7638 44.5172 64.6652C44.2801 64.5666 44.026 64.516 43.7694 64.5162ZM43.7694 67.4587C43.5766 67.4587 43.3881 67.4012 43.2279 67.2934C43.0676 67.1856 42.9427 67.0324 42.869 66.8532C42.7953 66.674 42.7761 66.4768 42.8139 66.2866C42.8516 66.0964 42.9447 65.9218 43.0811 65.7848C43.2176 65.6478 43.3915 65.5546 43.5806 65.517C43.7698 65.4794 43.9658 65.4992 44.1438 65.5737C44.3218 65.6482 44.4739 65.7741 44.5807 65.9356C44.6875 66.097 44.7443 66.2867 44.7439 66.4807C44.7439 66.6093 44.7187 66.7366 44.6697 66.8554C44.6207 66.9742 44.5489 67.0821 44.4584 67.173C44.3679 67.2638 44.2604 67.3358 44.1422 67.3849C44.024 67.4339 43.8973 67.459 43.7694 67.4587Z" fill="#407BFF" stroke="#263238" stroke-width="0.987488" stroke-linecap="round" stroke-linejoin="round"/>
<path d="M45.7136 66.2746C45.6623 65.7941 45.437 65.3492 45.0807 65.025C44.7243 64.7007 44.2618 64.5196 43.7812 64.5162V65.5005C44.0379 65.5033 44.2831 65.6077 44.4636 65.7913C44.6441 65.9748 44.7454 66.2225 44.7454 66.4807C44.7432 66.5183 44.7391 66.5558 44.7329 66.593L45.7136 66.2746Z" fill="#263238" stroke="#263238" stroke-width="0.987488" stroke-linecap="round" stroke-linejoin="round"/>
<path d="M44.7025 70.8798H42.8405C42.7795 70.8801 42.719 70.8682 42.6625 70.8449C42.6061 70.8216 42.5547 70.7873 42.5115 70.744C42.4682 70.7007 42.4339 70.6492 42.4105 70.5925C42.3871 70.5358 42.375 70.475 42.375 70.4137C42.375 70.2895 42.424 70.1704 42.5113 70.0826C42.5986 69.9948 42.717 69.9454 42.8405 69.9454H44.7025C44.826 69.9454 44.9444 69.9948 45.0317 70.0826C45.119 70.1704 45.168 70.2895 45.168 70.4137C45.168 70.475 45.156 70.5358 45.1325 70.5925C45.1091 70.6492 45.0748 70.7007 45.0315 70.744C44.9883 70.7873 44.937 70.8216 44.8805 70.8449C44.824 70.8682 44.7635 70.8801 44.7025 70.8798Z" fill="#407BFF" stroke="#263238" stroke-width="0.987488" stroke-linecap="round" stroke-linejoin="round"/>
<path d="M49.6249 64.5162C49.2386 64.5162 48.861 64.6314 48.5399 64.8473C48.2187 65.0632 47.9684 65.37 47.8205 65.7289C47.6727 66.0879 47.634 66.4828 47.7094 66.8639C47.7848 67.245 47.9708 67.595 48.2439 67.8697C48.517 68.1445 48.865 68.3316 49.2439 68.4074C49.6227 68.4831 50.0154 68.4442 50.3723 68.2956C50.7292 68.1469 51.0342 67.8951 51.2488 67.572C51.4634 67.249 51.578 66.8692 51.578 66.4807C51.5782 66.2226 51.5279 65.967 51.4298 65.7286C51.3318 65.4901 51.1879 65.2735 51.0065 65.091C50.8251 64.9085 50.6097 64.7638 50.3726 64.6652C50.1356 64.5666 49.8815 64.516 49.6249 64.5162ZM49.6249 67.4587C49.4321 67.4587 49.2436 67.4012 49.0833 67.2934C48.923 67.1856 48.7981 67.0324 48.7244 66.8532C48.6508 66.674 48.6316 66.4768 48.6693 66.2866C48.7071 66.0964 48.8001 65.9218 48.9366 65.7848C49.0731 65.6478 49.2469 65.5546 49.4361 65.517C49.6252 65.4794 49.8212 65.4992 49.9993 65.5737C50.1773 65.6482 50.3293 65.7741 50.4361 65.9356C50.543 66.097 50.5998 66.2867 50.5994 66.4807C50.5994 66.6093 50.5741 66.7366 50.5252 66.8554C50.4762 66.9742 50.4043 67.0821 50.3138 67.173C50.2233 67.2638 50.1159 67.3358 49.9977 67.3849C49.8795 67.4339 49.7528 67.459 49.6249 67.4587Z" fill="#407BFF" stroke="#263238" stroke-width="0.987488" stroke-linecap="round" stroke-linejoin="round"/>
<path d="M49.6361 64.5162V65.5005C49.8001 65.5008 49.9614 65.5427 50.105 65.6223C50.2486 65.7019 50.3699 65.8167 50.4577 65.956C50.5455 66.0953 50.5969 66.2547 50.6071 66.4193C50.6174 66.5839 50.5862 66.7485 50.5164 66.8977C50.4467 67.047 50.3406 67.1761 50.208 67.2732C50.0754 67.3702 49.9206 67.432 49.7579 67.4529C49.5952 67.4738 49.43 67.453 49.2774 67.3926C49.1248 67.3321 48.9899 67.2339 48.8851 67.107L48.1113 67.7147C48.3186 67.9717 48.5871 68.1718 48.8919 68.2965C49.1967 68.4211 49.5279 68.4661 49.8546 68.4275C50.1814 68.3888 50.4931 68.2676 50.7608 68.0752C51.0285 67.8828 51.2435 67.6254 51.3858 67.327C51.528 67.0286 51.5929 66.6989 51.5745 66.3685C51.556 66.038 51.4548 65.7177 51.2802 65.4372C51.1056 65.1567 50.8633 64.9252 50.5758 64.7642C50.2884 64.6031 49.9651 64.5179 49.6361 64.5162Z" fill="#263238" stroke="#263238" stroke-width="0.987488" stroke-linecap="round" stroke-linejoin="round"/>
<path d="M50.556 70.8798H48.694C48.633 70.8801 48.5725 70.8682 48.516 70.8449C48.4596 70.8216 48.4082 70.7873 48.365 70.744C48.3217 70.7007 48.2874 70.6492 48.264 70.5925C48.2406 70.5358 48.2285 70.475 48.2285 70.4137C48.2282 70.3521 48.2401 70.2911 48.2634 70.2342C48.2867 70.1772 48.321 70.1255 48.3643 70.082C48.4075 70.0384 48.459 70.004 48.5156 69.9805C48.5722 69.9571 48.6328 69.9452 48.694 69.9454H50.556C50.6795 69.9454 50.7979 69.9948 50.8852 70.0826C50.9725 70.1704 51.0215 70.2895 51.0215 70.4137C51.0215 70.475 51.0095 70.5358 50.9861 70.5925C50.9626 70.6492 50.9283 70.7007 50.8851 70.744C50.8418 70.7873 50.7905 70.8216 50.734 70.8449C50.6776 70.8682 50.6171 70.8801 50.556 70.8798Z" fill="#407BFF" stroke="#263238" stroke-width="0.987488" stroke-linecap="round" stroke-linejoin="round"/>
<path d="M29.573 34.2382C34.3994 34.2382 38.312 30.3028 38.312 25.4482C38.312 20.5936 34.3994 16.6582 29.573 16.6582C24.7466 16.6582 20.834 20.5936 20.834 25.4482C20.834 30.3028 24.7466 34.2382 29.573 34.2382Z" fill="white"/>
<path d="M32.2225 74.3507C32.2225 74.3507 33.4845 76.259 33.3107 77.0144C33.1369 77.7698 32.028 77.5367 31.5025 76.723C30.977 75.9094 29.6405 74.6941 29.8825 74.1718C30.1246 73.6495 31.7508 73.8867 32.2225 74.3507Z" fill="white" stroke="#263238" stroke-width="1.02307" stroke-linecap="round" stroke-linejoin="round"/>
<path d="M26.7993 74.2447C26.7993 74.2447 25.2745 76.5213 25.5187 77.1435C25.7628 77.7657 26.5531 77.5805 27.1572 77.0186C27.7613 76.4568 28.9675 74.8794 28.9675 74.8794C28.9675 74.8794 27.9538 73.6225 26.7993 74.2447Z" fill="white" stroke="#263238" stroke-width="1.02307" stroke-linecap="round" stroke-linejoin="round"/>
<path d="M25.5195 77.1435C25.933 77.2008 26.3537 77.1181 26.7154 76.9084C27.4105 76.5546 28.6229 74.9585 28.6229 74.9585" stroke="#263238" stroke-width="0.767303" stroke-linecap="round" stroke-linejoin="round"/>
<path d="M30.3047 74.5527C30.3047 74.5527 30.9647 75.8013 31.7074 76.5088C32.4501 77.2164 32.8143 77.4182 33.3025 77.0145" stroke="#263238" stroke-width="0.767303" stroke-linecap="round" stroke-linejoin="round"/>
<path d="M24.6592 45.8354C24.6592 45.8354 23.3248 48.574 23.3848 49.6936C23.4448 50.8131 23.6889 56.4775 24.053 58.3441C24.4172 60.2108 24.7751 64.8596 25.0233 66.7179C25.2716 68.5762 26.8626 72.9296 26.8626 72.9296C26.8626 72.9296 26.6185 73.9264 26.8005 74.2365C26.9826 74.5465 28.9087 75.0584 28.9687 74.8712C29.0287 74.6839 29.3329 74.1241 29.3825 73.5643C29.4322 73.0045 28.5343 67.0301 28.8984 65.7232C29.2625 64.4164 29.3329 55.6306 29.3825 54.7253C29.4322 53.8201 29.368 52.2282 29.368 52.2282C29.4762 52.2617 29.5919 52.2619 29.7003 52.229C29.8086 52.196 29.9047 52.1312 29.9763 52.043C30.2183 51.7308 31.0211 60.1899 31.2652 62.1814C31.5093 64.1729 30.9611 64.7327 30.779 65.9771C30.597 67.2215 30.1728 71.2648 30.1728 71.7643C30.1728 72.2637 29.6266 73.8785 29.8687 74.1907C30.1108 74.5028 30.6259 74.4508 30.837 74.5091C31.47 74.6859 31.9645 74.4092 32.2066 74.3467C32.4486 74.2843 32.6534 73.3833 32.6534 73.3833C32.6534 73.3833 34.6023 67.8437 34.9665 65.5401C35.3306 63.2365 35.9368 58.9622 35.8168 56.3485C35.6968 53.7348 34.9665 48.4408 34.9665 48.4408L34.7844 46.8843L24.6592 45.8354Z" fill="#263238" stroke="#263238" stroke-width="1.02307" stroke-linecap="round" stroke-linejoin="round"/>
<path d="M23.807 49.0027C23.807 49.0027 23.6891 50.5384 24.6884 51.5415" stroke="white" stroke-width="0.506629" stroke-linecap="round" stroke-linejoin="round"/>
<path d="M23.8633 51.1879C23.8633 51.1879 24.4508 52.193 25.1563 52.3095" stroke="white" stroke-width="0.506629" stroke-linecap="round" stroke-linejoin="round"/>
<path d="M28.5589 67.9937C28.5589 67.9937 27.7313 69.9789 27.6196 71.0631C27.5079 72.1473 28.5589 71.7248 28.7947 72.4469C29.0306 73.169 27.3858 73.1107 27.6796 73.2897C27.9734 73.4687 28.8527 73.5914 28.8527 73.5914" stroke="white" stroke-width="0.511535" stroke-linecap="round" stroke-linejoin="round"/>
<path d="M30.1523 72.9297C30.3282 72.8694 32.3247 72.5135 32.0888 71.4252C31.853 70.3368 30.6799 70.2806 30.8475 69.0175C31.0151 67.7544 32.8419 64.9825 32.8419 64.2001C32.8419 63.4176 31.5509 60.5022 31.433 58.6959" stroke="white" stroke-width="0.511535" stroke-linecap="round" stroke-linejoin="round"/>
<path d="M33.0216 48.886C33.0216 48.886 31.6706 50.8338 31.4948 51.1293C31.3189 51.4248 33.0795 49.8307 33.0795 49.8307" stroke="white" stroke-width="0.506629" stroke-linecap="round" stroke-linejoin="round"/>
<path d="M29.4902 48.1973C29.4902 48.1973 29.637 49.6206 29.637 49.9141V51.5351" stroke="white" stroke-width="0.506629" stroke-linecap="round" stroke-linejoin="round"/>
<path d="M29.6348 50.6529C29.6348 50.6529 30.2699 50.5551 30.4147 50.064C30.5596 49.5729 30.514 48.5907 30.514 48.5907" stroke="white" stroke-width="0.506629" stroke-linecap="round" stroke-linejoin="round"/>
<path d="M41.8941 31.3081C41.1659 29.171 41.0438 28.0119 40.9838 27.4022C40.9238 26.7925 40.2555 26.9735 40.2555 26.9735C40.2555 26.9735 38.8073 27.8288 38.8073 28.014C38.8073 28.1992 39.4756 32.7149 39.5956 33.5077C39.6684 33.9726 39.7092 34.4419 39.7176 34.9124C39.7176 34.9124 37.1687 32.1655 36.5005 31.4934C35.9915 30.9794 35.5881 30.5403 35.1557 30.2781C34.9219 30.07 34.5164 29.993 33.8916 29.7849C32.7992 29.4186 31.6469 28.5634 30.3103 28.6237C29.4329 28.6843 28.5716 28.8911 27.7615 29.2355C27.7615 29.2355 25.8208 30.1511 24.4843 30.7609C24.3287 30.8308 24.1809 30.9173 24.0436 31.0189C23.8243 30.9918 23.3671 31.1105 22.8458 32.2862C22.1196 33.9343 18.8424 38.269 18.2942 39.7943C17.7459 41.3197 18.9004 42.8471 20.1748 44.0665C21.0943 44.976 21.9652 45.9339 22.7837 46.9362L24.2319 45.1424C24.2729 45.5415 24.342 45.9372 24.4388 46.3265C24.6209 46.9362 25.2271 47.6084 27.6559 47.7832C30.0848 47.958 35.5405 48.2951 35.3626 47.0506C35.1123 45.2818 35.2405 39.6029 35.1205 38.0775C35.085 37.0991 35.105 36.1195 35.1805 35.1434C35.4598 35.4992 36.0081 36.1589 36.3908 36.419C36.937 36.7852 39.2459 38.5 40.1562 38.8704C41.0666 39.2408 42.341 38.6269 42.8872 37.4137C43.4334 36.2005 42.6224 33.4453 41.8941 31.3081ZM22.1113 41.4404C21.8672 40.4644 21.7472 40.0981 21.7472 40.0981C21.7472 40.0981 23.303 38.4126 24.0519 37.5136C24.1533 39.9254 24.2174 42.5641 24.1471 42.9512C24.0919 43.6001 24.1064 44.2531 24.1905 44.8989C23.785 44.3392 22.3182 42.2811 22.1113 41.4404Z" fill="#407BFF" stroke="#263238" stroke-width="1.01326" stroke-linecap="round" stroke-linejoin="round"/>
<path opacity="0.1" d="M41.8941 31.3081C41.1659 29.171 41.0438 28.0119 40.9838 27.4022C40.9238 26.7925 40.2555 26.9735 40.2555 26.9735C40.2555 26.9735 38.8073 27.8288 38.8073 28.014C38.8073 28.1992 39.4756 32.7149 39.5956 33.5077C39.6684 33.9726 39.7092 34.4419 39.7176 34.9124C39.7176 34.9124 37.1687 32.1655 36.5005 31.4934C35.9915 30.9794 35.5881 30.5403 35.1557 30.2781C34.9219 30.07 34.5164 29.993 33.8916 29.7849C32.7992 29.4186 31.6469 28.5634 30.3103 28.6237C29.4329 28.6843 28.5716 28.8911 27.7615 29.2355C27.7615 29.2355 25.8208 30.1511 24.4843 30.7609C24.3287 30.8308 24.1809 30.9173 24.0436 31.0189C23.8243 30.9918 23.3671 31.1105 22.8458 32.2862C22.1196 33.9343 18.8424 38.269 18.2942 39.7943C17.7459 41.3197 18.9004 42.8471 20.1748 44.0665C21.0943 44.976 21.9652 45.9339 22.7837 46.9362L24.2319 45.1424C24.2729 45.5415 24.342 45.9372 24.4388 46.3265C24.6209 46.9362 25.2271 47.6084 27.6559 47.7832C30.0848 47.958 35.5405 48.2951 35.3626 47.0506C35.1123 45.2818 35.2405 39.6029 35.1205 38.0775C35.085 37.0991 35.105 36.1195 35.1805 35.1434C35.4598 35.4992 36.0081 36.1589 36.3908 36.419C36.937 36.7852 39.2459 38.5 40.1562 38.8704C41.0666 39.2408 42.341 38.6269 42.8872 37.4137C43.4334 36.2005 42.6224 33.4453 41.8941 31.3081ZM22.1113 41.4404C21.8672 40.4644 21.7472 40.0981 21.7472 40.0981C21.7472 40.0981 23.303 38.4126 24.0519 37.5136C24.1533 39.9254 24.2174 42.5641 24.1471 42.9512C24.0919 43.6001 24.1064 44.2531 24.1905 44.8989C23.785 44.3392 22.3182 42.2811 22.1113 41.4404Z" fill="black"/>
<path d="M24.8027 37.2515C25.1869 36.6715 25.5212 36.0595 25.802 35.4224" stroke="#263238" stroke-width="0.759943" stroke-linecap="round" stroke-linejoin="round"/>
<path d="M26.3278 35.5991C26.1873 35.8935 25.9872 36.1551 25.7402 36.367" stroke="#263238" stroke-width="0.759943" stroke-linecap="round" stroke-linejoin="round"/>
<path d="M39.7109 34.9104C39.7191 35.2621 39.7964 35.6086 39.9385 35.9301C40.0805 36.2516 40.2844 36.5415 40.5385 36.7833" stroke="#263238" stroke-width="1.01326" stroke-linecap="round" stroke-linejoin="round"/>
<path d="M39.9501 35.8949C39.9006 36.4503 40.0244 37.0074 40.3043 37.4889" stroke="#263238" stroke-width="1.01326" stroke-linecap="round" stroke-linejoin="round"/>
<path d="M21.7488 40.0983C21.7488 40.0983 21.3019 39.6717 20.1992 39.8569" stroke="#263238" stroke-width="0.759943" stroke-linecap="round" stroke-linejoin="round"/>
<path d="M19.5879 39.6112C19.5879 39.6112 19.8941 39.118 21.0547 39.4863" stroke="#263238" stroke-width="0.759943" stroke-linecap="round" stroke-linejoin="round"/>
<path d="M36.4703 33.2727C36.2262 33.3331 35.1855 35.1185 35.1855 35.1185L37.6951 34.4422" stroke="#263238" stroke-width="0.759943" stroke-linecap="round" stroke-linejoin="round"/>
<path d="M29.2638 32.0553C29.2638 32.0553 29.7334 32.7046 30.7906 32.4112C31.8478 32.1178 32.1996 30.994 32.032 30.2844C31.8644 29.5748 28.3245 30.1658 29.2638 32.0553Z" fill="white" stroke="#263238" stroke-width="1.01326" stroke-linecap="round" stroke-linejoin="round"/>
<path d="M28.2594 28.012C28.2594 28.012 27.5498 28.4865 27.4567 28.9152C27.3636 29.3439 27.5974 30.7194 27.7856 31.1938C27.9739 31.6683 28.5904 32.7608 28.5904 32.7608C28.5904 32.7608 30.7152 31.5268 30.8662 31.4311C31.0172 31.3353 32.5213 32.1906 32.8503 32.0553C33.1792 31.9201 32.0476 29.0151 31.5283 28.3991C31.009 27.7831 29.0145 27.4398 28.2594 28.012Z" fill="white" stroke="#263238" stroke-width="1.01326" stroke-linecap="round" stroke-linejoin="round"/>
<path d="M27.877 26.4429C27.877 26.4429 27.9245 27.2024 28.0197 28.3428C28.1149 29.4832 28.4976 30.3842 29.1183 30.9065C29.739 31.4289 30.6286 31.714 30.8644 31.4289C31.1003 31.1438 31.3837 29.9576 31.2782 29.2438C31.1727 28.5301 31.0424 27.0131 31.0424 27.0131L27.877 26.4429Z" fill="white" stroke="#263238" stroke-width="1.01326" stroke-linecap="round" stroke-linejoin="round"/>
<g style="mix-blend-mode:multiply" opacity="0.5">
<path d="M31.1872 28.3553C31.1168 27.6914 31.0527 27.0131 31.0527 27.0131L27.877 26.4429C27.877 26.4429 27.9245 27.2024 28.0197 28.3428C28.0557 28.8701 28.1766 29.3881 28.3776 29.8765L31.1872 28.3553Z" fill="#407BFF"/>
</g>
<path d="M26.843 25.3067C26.843 25.3067 26.1354 24.595 25.9927 25.2109C25.8499 25.8269 26.4189 26.78 27.2216 26.5407V25.9726L26.843 25.3067Z" fill="white" stroke="#263238" stroke-width="1.01326" stroke-linecap="round" stroke-linejoin="round"/>
<path opacity="0.5" d="M26.843 25.3067C26.843 25.3067 26.1354 24.595 25.9927 25.2109C25.8499 25.8269 26.4189 26.78 27.2216 26.5407V25.9726L26.843 25.3067Z" fill="#407BFF" stroke="#263238" stroke-width="1.01326" stroke-linecap="round" stroke-linejoin="round"/>
<path d="M26.2217 24.0206C26.2217 24.0206 27.403 27.2024 28.4416 27.8205C29.4802 28.4385 31.5574 29.0066 32.1243 26.78C32.6912 24.5533 31.1809 21.3174 30.6616 20.3664C30.1423 19.4154 28.2058 19.1324 26.9789 20.0813C25.7521 21.0303 25.4728 21.9292 26.2217 24.0206Z" fill="white" stroke="#263238" stroke-width="1.01326" stroke-linecap="round" stroke-linejoin="round"/>
<g style="mix-blend-mode:multiply" opacity="0.5">
<path d="M27.5303 21.3259C28.0317 21.0926 28.5753 20.9652 29.1275 20.9513L30.3047 19.9545C29.531 19.3552 28.0103 19.2824 26.9841 20.0773C25.7552 21.0283 25.4718 21.9294 26.2269 24.0207C26.2269 24.0207 27.4083 27.2025 28.4469 27.8206C28.8152 28.0384 29.2142 28.1991 29.6303 28.2971C29.1296 27.6479 28.36 26.6157 28.1158 26.0892C27.7434 25.286 27.5841 23.6274 27.1041 22.664C26.6242 21.7005 26.7855 21.7005 27.5303 21.3259Z" fill="#407BFF"/>
</g>
<path d="M30.0066 23.0697C30.0066 23.0697 30.4783 23.925 30.2901 24.1102C30.2263 24.1656 30.1493 24.2035 30.0667 24.2203C29.9841 24.237 29.8985 24.2321 29.8184 24.2059" stroke="#263238" stroke-width="1.01326" stroke-linecap="round" stroke-linejoin="round"/>
<path d="M27.834 22.9282C27.834 22.9282 27.9292 22.358 28.6367 22.358" stroke="#263238" stroke-width="2.02651" stroke-linecap="round" stroke-linejoin="round"/>
<path d="M28.2598 23.4983C28.2598 23.4983 28.7791 23.7356 28.9673 23.2133" stroke="#263238" stroke-width="1.01326" stroke-linecap="round" stroke-linejoin="round"/>
<path d="M30.5273 23.1176C30.5273 23.1176 31.0466 23.3548 31.237 22.8325" stroke="#263238" stroke-width="1.01326" stroke-linecap="round" stroke-linejoin="round"/>
<path d="M30.0957 22.0272C30.2218 21.8979 30.3921 21.8219 30.572 21.8146C30.7519 21.8072 30.9278 21.8691 31.0639 21.9877" stroke="#263238" stroke-width="2.02651" stroke-linecap="round" stroke-linejoin="round"/>
<path d="M32.2227 24.9508C31.6724 24.7094 30.3607 24.1767 29.9221 24.3994C29.3552 24.6844 27.8904 25.6833 27.8904 26.4429C27.8904 26.4429 26.947 25.161 26.947 24.6844C26.947 24.2079 27.3235 24.0602 26.9946 23.4504C26.6656 22.8407 26.1898 22.7845 26.3325 22.0728C26.4629 21.4132 27.7684 20.714 28.4014 20.6162C28.7969 20.9528 29.3006 21.1332 29.8186 21.1239C30.8531 21.1239 31.7075 20.4559 31.7075 19.6277C31.7075 18.7995 30.8614 18.1336 29.8186 18.1336C29.5866 18.1325 29.3557 18.1669 29.1338 18.2355C28.1449 18.1627 27.9566 18.8994 27.2718 19.3031C26.587 19.7068 26.1567 20.8971 26.1567 20.8971H26.1857C25.685 21.6338 25.687 22.5223 26.2312 24.0185C26.2312 24.0185 27.4125 27.2003 28.4511 27.8184C29.4897 28.4364 31.5669 29.0045 32.1337 26.7779C32.2715 26.1791 32.3016 25.5603 32.2227 24.9508Z" fill="#263238" stroke="#263238" stroke-width="1.01326" stroke-linecap="round" stroke-linejoin="round"/>
<path d="M31.0923 24.9032C31.0923 24.9032 30.3848 25.9 29.582 25.2362" stroke="white" stroke-width="1.01326" stroke-linecap="round" stroke-linejoin="round"/>
<path d="M24.2938 45.0425C24.5743 45.2205 24.8209 45.4474 25.0221 45.7126C25.2686 46.052 25.5324 46.3785 25.8124 46.6906C25.8124 46.6906 26.4786 46.751 26.4186 47.0569C26.3586 47.3628 26.2365 47.5438 25.9324 47.5438C25.6283 47.5438 24.9621 46.9341 24.9621 46.9341L23.9918 48.4594C23.9918 48.4594 23.0815 47.7894 22.7773 46.9341L24.2938 45.0425Z" fill="white" stroke="#263238" stroke-width="1.01326" stroke-linecap="round" stroke-linejoin="round"/>
<path d="M29.573 34.2382C34.3994 34.2382 38.312 30.3028 38.312 25.4482C38.312 20.5936 34.3994 16.6582 29.573 16.6582C24.7466 16.6582 20.834 20.5936 20.834 25.4482C20.834 30.3028 24.7466 34.2382 29.573 34.2382Z" stroke="#263238" stroke-width="2.02651" stroke-linecap="round" stroke-linejoin="round"/>
<path d="M37.464 23.7399C37.464 23.7399 36.8558 23.6774 36.7358 24.0437C36.6158 24.4099 36.4316 24.7762 36.4316 25.0218C36.4316 25.2673 36.4916 25.4483 36.7958 25.5087C37.0999 25.569 37.282 25.1424 37.282 25.1424L37.464 23.7399Z" fill="white" stroke="#263238" stroke-width="1.01326" stroke-linecap="round" stroke-linejoin="round"/>
<path d="M37.5853 23.3111C37.5853 23.3111 37.2832 24.9593 37.2832 25.4483C37.2964 25.8243 37.4235 26.1873 37.6473 26.4888C37.758 26.6149 37.9072 26.7006 38.0715 26.7322L38.3756 26.366C38.3756 26.366 38.0115 26.855 38.4956 27.4647C38.9797 28.0745 39.3459 28.0141 39.77 27.831C40.1941 27.6479 40.3162 27.4044 40.1341 26.7322C39.9521 26.0601 39.8321 24.9613 39.71 24.2913C39.588 23.6212 39.1638 23.3756 38.9218 23.3756C38.6797 23.3756 38.0156 23.128 37.5853 23.3111Z" fill="white" stroke="#263238" stroke-width="1.01326" stroke-linecap="round" stroke-linejoin="round"/>
<path d="M37.3626 25.7915C37.3626 25.7915 37.255 25.4128 37.7122 25.3587C38.1694 25.3045 38.9246 25.2234 38.9246 25.2234" stroke="#263238" stroke-width="0.506629" stroke-linecap="round" stroke-linejoin="round"/>
<path d="M37.418 24.8178C37.418 24.8178 38.4669 24.5452 38.8455 24.5993" stroke="#263238" stroke-width="0.506629" stroke-linecap="round" stroke-linejoin="round"/>
<path d="M37.498 24.0576C37.8894 23.9879 38.286 23.9519 38.6835 23.9498" stroke="#263238" stroke-width="0.506629" stroke-linecap="round" stroke-linejoin="round"/>
<path d="M37.8477 26.0891C37.9306 26.164 38.0302 26.2179 38.1382 26.2464C38.2461 26.2749 38.3593 26.2771 38.4683 26.2529" stroke="#263238" stroke-width="0.506629" stroke-linecap="round" stroke-linejoin="round"/>
</svg>
