<svg width="163" height="147" viewBox="0 0 163 147" fill="none" xmlns="http://www.w3.org/2000/svg">
<path d="M87.2339 147C124.025 147 153.85 144.963 153.85 142.451C153.85 139.938 124.025 137.901 87.2339 137.901C50.4431 137.901 20.6182 139.938 20.6182 142.451C20.6182 144.963 50.4431 147 87.2339 147Z" fill="#263238"/>
<path d="M47.2148 108.177C46.9385 106.854 46.5714 104.955 46.236 102.66C46.1373 101.999 46.0426 101.298 45.9558 100.574C46.2557 100.519 48.6395 100.057 49.567 99.399C50.4116 98.8078 51.3193 97.8329 51.3548 96.7367C51.3752 96.4801 51.3404 96.2222 51.2527 95.98C51.1651 95.7378 51.0265 95.5169 50.8463 95.3318C50.6661 95.1467 50.4483 95.0017 50.2073 94.9064C49.9663 94.8112 49.7077 94.7677 49.4486 94.7791C47.9015 94.8848 46.4728 97.2652 46.1373 98.6003C46.1176 98.6864 45.9795 99.7201 45.9203 100.253C45.8689 99.814 45.8176 99.3794 45.7703 98.9253C45.6992 98.2675 45.644 97.5745 45.5887 96.9011C45.5887 96.5487 45.5532 96.1964 45.5374 95.8401C45.5216 95.4838 45.5374 95.1354 45.5374 94.7752C45.5374 94.2505 45.5769 93.7063 45.6045 93.166C46.2833 93.1347 48.2685 93.0055 49.1565 92.5592C50.0445 92.1128 51.1298 91.2632 51.3311 90.21C51.3864 89.9613 51.3885 89.7039 51.3374 89.4542C51.2863 89.2046 51.183 88.9684 51.0343 88.7608C50.8856 88.5531 50.6947 88.3787 50.474 88.2487C50.2532 88.1186 50.0074 88.0359 49.7525 88.0058C48.2093 87.8805 46.4294 90.0182 45.9005 91.2867C45.8808 91.3259 45.7979 91.6078 45.6992 91.9406C45.7466 91.412 45.79 90.8835 45.8571 90.351C46.0387 88.8436 46.2755 87.3089 46.5044 85.7702C46.5517 85.4492 46.5951 85.1321 46.6425 84.811C47.2108 84.7836 49.3657 84.6661 50.301 84.2002C51.2364 83.7343 52.2744 82.9004 52.4757 81.8511C52.5315 81.6023 52.5341 81.3447 52.4833 81.0948C52.4324 80.845 52.3293 80.6085 52.1804 80.4007C52.0316 80.1929 51.8405 80.0185 51.6194 79.8886C51.3983 79.7588 51.1522 79.6764 50.897 79.6469C49.3499 79.5216 47.5739 81.6593 47.0411 82.9278C47.0411 82.9709 46.9227 83.3193 46.8122 83.6795C46.9267 82.8456 47.0253 82.0077 47.1003 81.1777C47.2392 79.7465 47.2801 78.3077 47.2226 76.871C47.4239 76.871 49.9498 76.7731 50.9917 76.2563C51.9192 75.7982 52.965 74.9604 53.1663 73.9072C53.2222 73.6586 53.2248 73.4012 53.1739 73.1516C53.123 72.902 53.0198 72.6657 52.8709 72.4583C52.7221 72.2508 52.5309 72.0767 52.3098 71.9472C52.0888 71.8178 51.8427 71.7359 51.5877 71.7069C50.0406 71.5777 48.2646 73.7193 47.7318 74.9839C47.6923 75.0739 47.3371 76.2876 47.2305 76.7222C47.2286 76.7053 47.2286 76.6882 47.2305 76.6713C47.1392 75.2652 46.9226 73.8699 46.5833 72.5016C46.2854 71.2782 45.9164 70.073 45.4782 68.8918C45.0836 67.7956 44.6534 66.8129 44.2666 65.9476C44.0535 65.4778 43.8483 65.055 43.6549 64.6634H43.6864C43.7141 64.6634 43.6391 62.8037 43.6233 62.7058C43.4102 61.3512 42.1985 58.8533 40.6672 58.6105C40.4119 58.5769 40.1524 58.5971 39.9054 58.6697C39.6585 58.7423 39.4298 58.8658 39.2343 59.0321C39.0388 59.1983 38.8808 59.4037 38.7707 59.6346C38.6605 59.8656 38.6008 60.117 38.5952 60.3724C38.5321 61.4569 39.3491 62.5179 40.1344 63.1835C40.9198 63.8491 43.0431 64.499 43.5641 64.6478C43.7575 65.0628 43.9588 65.5052 44.1758 65.9985C44.5429 66.8716 44.9652 67.8582 45.3164 68.9623C45.4151 69.256 45.5098 69.577 45.6085 69.8824C45.3361 69.3969 44.9533 68.7352 44.906 68.6765C44.089 67.5685 41.8512 65.9046 40.3831 66.39C40.1409 66.4767 39.9198 66.6131 39.7344 66.7903C39.5489 66.9675 39.4032 67.1814 39.3067 67.4183C39.2103 67.6551 39.1652 67.9094 39.1746 68.1647C39.1839 68.42 39.2474 68.6704 39.3609 68.8997C39.8069 69.8902 41.0264 70.4657 42.0367 70.6889C43.0471 70.9121 45.2967 70.5166 45.7782 70.4227C45.9834 71.1078 46.1728 71.8165 46.3386 72.5682C46.637 73.919 46.814 75.2934 46.8674 76.6752C46.8674 76.7575 46.8674 76.8397 46.8674 76.9219C46.7727 76.6557 46.1571 75.2501 46.1057 75.1561C45.4151 73.9816 43.3747 72.0671 41.8591 72.3881C41.6084 72.4483 41.3734 72.5601 41.1692 72.7165C40.965 72.8728 40.7964 73.0701 40.6742 73.2955C40.5521 73.5208 40.4792 73.7692 40.4603 74.0243C40.4414 74.2795 40.477 74.5357 40.5646 74.7764C40.9001 75.8061 42.0525 76.5069 43.0273 76.8436C44.1521 77.2351 46.7688 76.9845 46.8635 76.9767C46.885 78.3631 46.8151 79.7494 46.6543 81.1268C46.5399 82.1487 46.382 83.1784 46.2123 84.2081C46.0821 83.8674 45.5137 82.5598 45.4585 82.4697C44.7718 81.2952 42.7313 79.3846 41.2158 79.7056C40.9656 79.7658 40.731 79.8776 40.5272 80.0337C40.3234 80.1898 40.1549 80.3867 40.0328 80.6115C39.9107 80.8364 39.8377 81.0843 39.8185 81.339C39.7993 81.5937 39.8343 81.8495 39.9213 82.0899C40.2568 83.1236 41.4053 83.8205 42.384 84.1611C43.4812 84.5526 45.9873 84.3138 46.2005 84.2942C46.1215 84.7601 46.0465 85.2299 45.9676 85.6998C45.7032 87.2267 45.4348 88.7614 45.2177 90.2805C45.1388 90.8091 45.0836 91.3298 45.0283 91.8466C44.8191 91.3415 44.4205 90.4332 44.3771 90.3588C43.6864 89.1843 41.646 87.2697 40.1305 87.5947C39.8803 87.6549 39.6456 87.7667 39.4418 87.9228C39.238 88.0789 39.0696 88.2758 38.9475 88.5006C38.8254 88.7255 38.7524 88.9734 38.7332 89.2281C38.714 89.4828 38.749 89.7386 38.836 89.979C39.1715 91.0127 40.3199 91.7096 41.2987 92.0502C42.2775 92.3908 44.3889 92.242 44.9849 92.195C44.8941 93.0642 44.827 93.9295 44.7994 94.783C44.7994 95.151 44.7639 95.5308 44.7994 95.8832C44.8349 96.2355 44.7994 96.5957 44.8231 96.9442C44.8704 97.6685 44.906 98.3419 44.9652 99.0153C44.9928 99.3559 45.0244 99.677 45.0559 100.006C44.9217 99.4656 44.6928 98.6081 44.6613 98.5337C44.16 97.2535 42.4353 95.0727 40.8843 95.1628C40.6279 95.1855 40.3791 95.2613 40.1542 95.3854C39.9292 95.5096 39.7329 95.6791 39.5782 95.8832C39.4234 96.0873 39.3136 96.3213 39.2558 96.5702C39.1979 96.819 39.1934 97.0772 39.2425 97.3279C39.4161 98.3967 40.4265 99.262 41.3579 99.7435C42.3682 100.272 44.7955 100.429 45.0915 100.448C45.1704 101.255 45.2572 102.042 45.348 102.774C45.64 105.1 45.9676 107.022 46.2163 108.369C46.4649 109.716 46.6425 110.479 46.6425 110.479C46.6544 110.553 46.6816 110.623 46.7224 110.686C46.7632 110.749 46.8168 110.803 46.8796 110.844C46.9424 110.885 47.0132 110.913 47.0875 110.926C47.1617 110.939 47.2378 110.936 47.311 110.918C47.3841 110.9 47.4527 110.867 47.5125 110.822C47.5722 110.776 47.6217 110.719 47.6579 110.653C47.6941 110.588 47.7162 110.515 47.7228 110.441C47.7294 110.366 47.7204 110.291 47.6963 110.221C47.6963 110.221 47.491 109.504 47.2148 108.177Z" fill="#407BFF"/>
<path d="M45.8887 70.137C45.8887 70.137 48.4935 69.3539 49.3973 68.5435C50.1866 67.8622 50.9759 66.7777 50.8615 65.6932C50.8491 65.4383 50.7828 65.1888 50.6667 64.961C50.5506 64.7332 50.3875 64.5323 50.1879 64.3712C49.9883 64.2102 49.7568 64.0926 49.5084 64.0263C49.2599 63.96 49.0002 63.9463 48.7461 63.9862C47.2227 64.2681 46.0742 66.7973 45.9005 68.1598C45.8847 68.2772 45.8611 70.1448 45.8887 70.137Z" fill="#407BFF"/>
<path d="M47.262 110.918C47.3263 110.962 47.3803 111.019 47.4203 111.086C47.4603 111.152 47.4854 111.227 47.4939 111.304C47.5023 111.381 47.494 111.459 47.4694 111.532C47.4448 111.606 47.4045 111.673 47.3513 111.73C47.298 111.787 47.2331 111.832 47.1609 111.861C47.0887 111.891 47.0109 111.905 46.9328 111.902C46.8547 111.899 46.7781 111.88 46.7083 111.845C46.6384 111.811 46.5769 111.761 46.5279 111.701C46.5279 111.701 45.9517 111.153 45.0006 110.17C44.0494 109.187 42.6997 107.758 41.1644 105.981C40.679 105.417 40.1738 104.806 39.6568 104.18C39.4003 104.325 37.2888 105.523 36.1522 105.632C35.1221 105.73 33.7842 105.574 33.0422 104.775C32.8618 104.593 32.7219 104.375 32.6318 104.136C32.5416 103.897 32.503 103.642 32.5187 103.388C32.5343 103.133 32.6037 102.884 32.7225 102.658C32.8412 102.431 33.0066 102.232 33.208 102.073C34.4512 101.149 37.1033 102.026 38.2321 102.821C38.2992 102.868 38.9661 103.455 39.3766 103.831C39.1674 103.573 38.9819 103.326 38.7491 103.048C38.3268 102.52 37.9203 101.979 37.4822 101.396L36.8705 100.527C36.6573 100.241 36.4758 99.9122 36.2706 99.6029C35.8167 98.8747 35.3944 98.1151 34.9879 97.3399C34.5183 97.704 32.837 98.9804 31.8306 99.2349C30.8242 99.4894 29.4626 99.5324 28.6259 98.8434C28.4194 98.6906 28.2476 98.4965 28.1217 98.2736C27.9959 98.0507 27.9187 97.804 27.8952 97.5496C27.8718 97.2951 27.9026 97.0386 27.9856 96.7968C28.0687 96.5549 28.2021 96.3331 28.3772 96.1458C29.4665 95.0495 32.2213 95.5154 33.4566 96.1458C33.5355 96.1849 34.3722 96.7252 34.8261 97.0306C34.5853 96.5608 34.3407 96.0949 34.1117 95.6133C33.4487 94.2274 32.8212 92.8022 32.1897 91.381C31.9963 90.9464 31.7951 90.5158 31.6017 90.0812C31.4359 90.2143 29.4705 91.7764 28.3457 92.0583C27.3432 92.3128 25.9777 92.3559 25.141 91.6668C24.9345 91.5141 24.7627 91.32 24.6368 91.0971C24.511 90.8742 24.4338 90.6275 24.4103 90.373C24.3869 90.1186 24.4177 89.8621 24.5007 89.6203C24.5838 89.3784 24.7172 89.1566 24.8923 88.9693C25.9777 87.873 28.7324 88.3389 29.9717 88.9693C30.0664 89.0162 31.2701 89.7954 31.5504 90.0068C31.1162 89.0554 30.6781 88.1118 30.2045 87.1957C29.5722 85.9588 28.8603 84.7635 28.0733 83.6172C27.9944 83.6798 25.954 85.3203 24.7976 85.61C23.7952 85.8606 22.4296 85.9076 21.5929 85.2185C21.3862 85.0659 21.2143 84.8717 21.0884 84.6486C20.9625 84.4255 20.8855 84.1786 20.8624 83.924C20.8393 83.6694 20.8707 83.4128 20.9544 83.171C21.0381 82.9293 21.1723 82.7077 21.3482 82.5209C22.4336 81.4247 25.1883 81.8906 26.4236 82.5209C26.5223 82.5679 27.8168 83.4058 28.0418 83.5741C27.9944 83.5076 27.9549 83.4371 27.9076 83.3705C27.0811 82.2481 26.1566 81.2 25.1449 80.2384C24.5924 79.6981 24.0359 79.2126 23.4834 78.7506C23.1321 79.0951 21.51 80.6495 20.5115 81.0253C19.513 81.4012 18.2106 81.5774 17.2832 80.994C17.0612 80.865 16.8691 80.6911 16.7194 80.4835C16.5697 80.2759 16.4658 80.0394 16.4144 79.7893C16.363 79.5393 16.3653 79.2812 16.4212 79.0321C16.477 78.783 16.5852 78.5483 16.7385 78.3434C17.6976 77.1336 20.4879 77.2942 21.7863 77.7718C21.8574 77.7992 22.5441 78.1398 23.0414 78.3943C22.7888 78.1907 22.5322 77.9754 22.2875 77.7875C21.364 77.0671 20.476 76.4641 19.6867 75.9395C19.2328 75.6459 18.8184 75.3875 18.4277 75.1565C17.9067 75.317 15.8032 75.9395 14.7534 75.8103C13.7035 75.6811 12.4525 75.2465 11.8999 74.3069C11.7637 74.0904 11.6749 73.8479 11.639 73.5952C11.6032 73.3425 11.6212 73.0852 11.6919 72.8398C11.7625 72.5944 11.8843 72.3665 12.0493 72.1707C12.2143 71.975 12.4189 71.8157 12.6498 71.7033C14.0627 71.069 16.4623 72.4863 17.3858 73.5043C17.4647 73.5943 18.5698 75.1095 18.5382 75.1173H18.5066C18.9013 75.3366 19.296 75.5793 19.7301 75.8534C20.5194 76.3623 21.439 76.9457 22.3823 77.6465C23.4031 78.3926 24.3808 79.1952 25.3107 80.0505C26.3526 81.0106 27.3087 82.0586 28.1681 83.1826C28.1749 83.1983 28.1842 83.2129 28.1957 83.2257C28.0457 82.8028 27.6668 81.5969 27.6471 81.503C27.3866 80.1562 27.6826 77.3959 29.0403 76.656C29.2694 76.5396 29.5207 76.4723 29.7777 76.4585C30.0347 76.4447 30.2918 76.4847 30.5323 76.5759C30.7727 76.6671 30.9912 76.8074 31.1734 76.9878C31.3555 77.1683 31.4974 77.3847 31.5898 77.623C32.0161 78.6253 31.5898 79.8978 31.0925 80.7865C30.5084 81.7888 28.4522 83.2492 28.2904 83.3627C29.1319 84.528 29.8953 85.747 30.5755 87.0117C30.9702 87.7477 31.3649 88.4994 31.728 89.259C31.6096 88.887 31.5069 88.5542 31.4991 88.5073C31.2386 87.1604 31.5306 84.4002 32.8922 83.6603C33.1216 83.5439 33.3731 83.4768 33.6303 83.4633C33.8876 83.4497 34.1448 83.4901 34.3853 83.5817C34.6258 83.6733 34.8441 83.814 35.0262 83.9949C35.2082 84.1757 35.3498 84.3925 35.4418 84.6312C35.868 85.6296 35.4418 86.902 34.9445 87.7908C34.4472 88.6795 32.6909 89.9715 32.2292 90.3043C32.3673 90.598 32.5094 90.8877 32.6475 91.1813C33.3145 92.5869 33.9697 93.9964 34.6564 95.3588C34.8971 95.8365 35.1537 96.2985 35.4062 96.7644C35.3036 96.4355 35.2208 96.1575 35.2089 96.1106C34.9484 94.7637 35.2444 92.0074 36.6021 91.2675C36.8312 91.1511 37.0825 91.0838 37.3395 91.07C37.5966 91.0562 37.8537 91.0962 38.0941 91.1874C38.3345 91.2786 38.553 91.4189 38.7352 91.5993C38.9174 91.7797 39.0593 91.9962 39.1516 92.2345C39.5779 93.2329 39.1714 94.5092 38.6544 95.398C38.1373 96.2867 36.5705 97.4496 36.0219 97.8489C36.2982 98.3148 36.5705 98.7846 36.8586 99.227C37.0638 99.5246 37.2533 99.8261 37.4585 100.112L38.09 100.969C38.5123 101.498 38.9425 102.05 39.3687 102.555C39.6608 102.911 39.9449 103.244 40.233 103.581C39.9844 103.107 39.5226 102.167 39.495 102.085C39.0293 100.789 38.899 98.0212 40.1304 97.0854C40.339 96.9359 40.5771 96.8315 40.829 96.7791C41.0809 96.7268 41.3412 96.7276 41.5928 96.7815C41.8444 96.8354 42.0818 96.9412 42.2895 97.092C42.4972 97.2429 42.6705 97.4354 42.7984 97.6571C43.3706 98.581 43.1614 99.9044 42.7984 100.86C42.4037 101.913 40.6553 103.6 40.4304 103.812C40.9079 104.368 41.3736 104.9 41.8275 105.401C43.3825 107.128 44.7441 108.51 45.711 109.465C46.6779 110.421 47.262 110.918 47.262 110.918ZM23.4518 78.4491C23.4518 78.4491 25.1844 76.3623 25.4922 75.1995C25.7527 74.209 25.808 72.8504 25.1331 72.0204C24.9806 71.8142 24.7861 71.6421 24.5622 71.5154C24.3382 71.3887 24.0899 71.3103 23.8334 71.2852C23.5768 71.2601 23.3178 71.2888 23.0732 71.3696C22.8286 71.4504 22.604 71.5815 22.4138 71.7542C21.3009 72.823 21.7508 75.5597 22.3625 76.793C22.398 76.8987 23.4321 78.4687 23.4518 78.4491Z" fill="#407BFF"/>
<path opacity="0.1" d="M47.262 110.918C47.3263 110.962 47.3803 111.019 47.4203 111.086C47.4603 111.152 47.4854 111.227 47.4939 111.304C47.5023 111.381 47.494 111.459 47.4694 111.532C47.4448 111.606 47.4045 111.673 47.3513 111.73C47.298 111.787 47.2331 111.832 47.1609 111.861C47.0887 111.891 47.0109 111.905 46.9328 111.902C46.8547 111.899 46.7781 111.88 46.7083 111.845C46.6384 111.811 46.5769 111.761 46.5279 111.701C46.5279 111.701 45.9517 111.153 45.0006 110.17C44.0494 109.187 42.6997 107.758 41.1644 105.981C40.679 105.417 40.1738 104.806 39.6568 104.18C39.4003 104.325 37.2888 105.523 36.1522 105.632C35.1221 105.73 33.7842 105.574 33.0422 104.775C32.8618 104.593 32.7219 104.375 32.6318 104.136C32.5416 103.897 32.503 103.642 32.5187 103.388C32.5343 103.133 32.6037 102.884 32.7225 102.658C32.8412 102.431 33.0066 102.232 33.208 102.073C34.4512 101.149 37.1033 102.026 38.2321 102.821C38.2992 102.868 38.9661 103.455 39.3766 103.831C39.1674 103.573 38.9819 103.326 38.7491 103.048C38.3268 102.52 37.9203 101.979 37.4822 101.396L36.8705 100.527C36.6573 100.241 36.4758 99.9122 36.2706 99.6029C35.8167 98.8747 35.3944 98.1151 34.9879 97.3399C34.5183 97.704 32.837 98.9804 31.8306 99.2349C30.8242 99.4894 29.4626 99.5324 28.6259 98.8434C28.4194 98.6906 28.2476 98.4965 28.1217 98.2736C27.9959 98.0507 27.9187 97.804 27.8952 97.5496C27.8718 97.2951 27.9026 97.0386 27.9856 96.7968C28.0687 96.5549 28.2021 96.3331 28.3772 96.1458C29.4665 95.0495 32.2213 95.5154 33.4566 96.1458C33.5355 96.1849 34.3722 96.7252 34.8261 97.0306C34.5853 96.5608 34.3407 96.0949 34.1117 95.6133C33.4487 94.2274 32.8212 92.8022 32.1897 91.381C31.9963 90.9464 31.7951 90.5158 31.6017 90.0812C31.4359 90.2143 29.4705 91.7764 28.3457 92.0583C27.3432 92.3128 25.9777 92.3559 25.141 91.6668C24.9345 91.5141 24.7627 91.32 24.6368 91.0971C24.511 90.8742 24.4338 90.6275 24.4103 90.373C24.3869 90.1186 24.4177 89.8621 24.5007 89.6203C24.5838 89.3784 24.7172 89.1566 24.8923 88.9693C25.9777 87.873 28.7324 88.3389 29.9717 88.9693C30.0664 89.0162 31.2701 89.7954 31.5504 90.0068C31.1162 89.0554 30.6781 88.1118 30.2045 87.1957C29.5722 85.9588 28.8603 84.7635 28.0733 83.6172C27.9944 83.6798 25.954 85.3203 24.7976 85.61C23.7952 85.8606 22.4296 85.9076 21.5929 85.2185C21.3862 85.0659 21.2143 84.8717 21.0884 84.6486C20.9625 84.4255 20.8855 84.1786 20.8624 83.924C20.8393 83.6694 20.8707 83.4128 20.9544 83.171C21.0381 82.9293 21.1723 82.7077 21.3482 82.5209C22.4336 81.4247 25.1883 81.8906 26.4236 82.5209C26.5223 82.5679 27.8168 83.4058 28.0418 83.5741C27.9944 83.5076 27.9549 83.4371 27.9076 83.3705C27.0811 82.2481 26.1566 81.2 25.1449 80.2384C24.5924 79.6981 24.0359 79.2126 23.4834 78.7506C23.1321 79.0951 21.51 80.6495 20.5115 81.0253C19.513 81.4012 18.2106 81.5774 17.2832 80.994C17.0612 80.865 16.8691 80.6911 16.7194 80.4835C16.5697 80.2759 16.4658 80.0394 16.4144 79.7893C16.363 79.5393 16.3653 79.2812 16.4212 79.0321C16.477 78.783 16.5852 78.5483 16.7385 78.3434C17.6976 77.1336 20.4879 77.2942 21.7863 77.7718C21.8574 77.7992 22.5441 78.1398 23.0414 78.3943C22.7888 78.1907 22.5322 77.9754 22.2875 77.7875C21.364 77.0671 20.476 76.4641 19.6867 75.9395C19.2328 75.6459 18.8184 75.3875 18.4277 75.1565C17.9067 75.317 15.8032 75.9395 14.7534 75.8103C13.7035 75.6811 12.4525 75.2465 11.8999 74.3069C11.7637 74.0904 11.6749 73.8479 11.639 73.5952C11.6032 73.3425 11.6212 73.0852 11.6919 72.8398C11.7625 72.5944 11.8843 72.3665 12.0493 72.1707C12.2143 71.975 12.4189 71.8157 12.6498 71.7033C14.0627 71.069 16.4623 72.4863 17.3858 73.5043C17.4647 73.5943 18.5698 75.1095 18.5382 75.1173H18.5066C18.9013 75.3366 19.296 75.5793 19.7301 75.8534C20.5194 76.3623 21.439 76.9457 22.3823 77.6465C23.4031 78.3926 24.3808 79.1952 25.3107 80.0505C26.3526 81.0106 27.3087 82.0586 28.1681 83.1826C28.1749 83.1983 28.1842 83.2129 28.1957 83.2257C28.0457 82.8028 27.6668 81.5969 27.6471 81.503C27.3866 80.1562 27.6826 77.3959 29.0403 76.656C29.2694 76.5396 29.5207 76.4723 29.7777 76.4585C30.0347 76.4447 30.2918 76.4847 30.5323 76.5759C30.7727 76.6671 30.9912 76.8074 31.1734 76.9878C31.3555 77.1683 31.4974 77.3847 31.5898 77.623C32.0161 78.6253 31.5898 79.8978 31.0925 80.7865C30.5084 81.7888 28.4522 83.2492 28.2904 83.3627C29.1319 84.528 29.8953 85.747 30.5755 87.0117C30.9702 87.7477 31.3649 88.4994 31.728 89.259C31.6096 88.887 31.5069 88.5542 31.4991 88.5073C31.2386 87.1604 31.5306 84.4002 32.8922 83.6603C33.1216 83.5439 33.3731 83.4768 33.6303 83.4633C33.8876 83.4497 34.1448 83.4901 34.3853 83.5817C34.6258 83.6733 34.8441 83.814 35.0262 83.9949C35.2082 84.1757 35.3498 84.3925 35.4418 84.6312C35.868 85.6296 35.4418 86.902 34.9445 87.7908C34.4472 88.6795 32.6909 89.9715 32.2292 90.3043C32.3673 90.598 32.5094 90.8877 32.6475 91.1813C33.3145 92.5869 33.9697 93.9964 34.6564 95.3588C34.8971 95.8365 35.1537 96.2985 35.4062 96.7644C35.3036 96.4355 35.2208 96.1575 35.2089 96.1106C34.9484 94.7637 35.2444 92.0074 36.6021 91.2675C36.8312 91.1511 37.0825 91.0838 37.3395 91.07C37.5966 91.0562 37.8537 91.0962 38.0941 91.1874C38.3345 91.2786 38.553 91.4189 38.7352 91.5993C38.9174 91.7797 39.0593 91.9962 39.1516 92.2345C39.5779 93.2329 39.1714 94.5092 38.6544 95.398C38.1373 96.2867 36.5705 97.4496 36.0219 97.8489C36.2982 98.3148 36.5705 98.7846 36.8586 99.227C37.0638 99.5246 37.2533 99.8261 37.4585 100.112L38.09 100.969C38.5123 101.498 38.9425 102.05 39.3687 102.555C39.6608 102.911 39.9449 103.244 40.233 103.581C39.9844 103.107 39.5226 102.167 39.495 102.085C39.0293 100.789 38.899 98.0212 40.1304 97.0854C40.339 96.9359 40.5771 96.8315 40.829 96.7791C41.0809 96.7268 41.3412 96.7276 41.5928 96.7815C41.8444 96.8354 42.0818 96.9412 42.2895 97.092C42.4972 97.2429 42.6705 97.4354 42.7984 97.6571C43.3706 98.581 43.1614 99.9044 42.7984 100.86C42.4037 101.913 40.6553 103.6 40.4304 103.812C40.9079 104.368 41.3736 104.9 41.8275 105.401C43.3825 107.128 44.7441 108.51 45.711 109.465C46.6779 110.421 47.262 110.918 47.262 110.918ZM23.4518 78.4491C23.4518 78.4491 25.1844 76.3623 25.4922 75.1995C25.7527 74.209 25.808 72.8504 25.1331 72.0204C24.9806 71.8142 24.7861 71.6421 24.5622 71.5154C24.3382 71.3887 24.0899 71.3103 23.8334 71.2852C23.5768 71.2601 23.3178 71.2888 23.0732 71.3696C22.8286 71.4504 22.604 71.5815 22.4138 71.7542C21.3009 72.823 21.7508 75.5597 22.3625 76.793C22.398 76.8987 23.4321 78.4687 23.4518 78.4491Z" fill="black"/>
<path d="M37.1468 136.738C36.8114 135.427 36.3575 133.547 35.9234 131.257C35.7971 130.603 35.6708 129.902 35.5524 129.186C35.8444 129.115 38.2085 128.552 39.1044 127.859C39.9213 127.228 40.7857 126.202 40.7738 125.118C40.7796 124.864 40.7316 124.612 40.633 124.377C40.5344 124.143 40.3874 123.932 40.2015 123.757C40.0156 123.583 39.7948 123.449 39.5535 123.364C39.3122 123.28 39.0557 123.246 38.8005 123.266C37.2573 123.438 35.9352 125.881 35.6432 127.228C35.6432 127.314 35.5327 128.356 35.5011 128.888C35.4261 128.454 35.3551 128.023 35.288 127.569C35.1893 126.919 35.1025 126.226 35.0156 125.556L34.9209 124.499C34.8775 124.139 34.8854 123.791 34.8657 123.434C34.8657 122.91 34.8657 122.366 34.8657 121.825C35.5406 121.763 37.5178 121.547 38.394 121.062C39.2701 120.576 40.3081 119.68 40.4581 118.607C40.503 118.355 40.494 118.097 40.4315 117.849C40.369 117.601 40.2545 117.369 40.0954 117.168C39.9364 116.967 39.7364 116.802 39.5085 116.683C39.2806 116.564 39.0299 116.494 38.7729 116.477C37.2258 116.414 35.5445 118.63 35.067 119.922C35.067 119.962 34.9801 120.243 34.9012 120.58C34.9012 120.052 34.9446 119.527 34.9841 118.991C35.1025 117.472 35.2682 115.933 35.43 114.386C35.4616 114.061 35.4892 113.74 35.5248 113.419C36.0931 113.368 38.2361 113.153 39.1517 112.636C40.0674 112.119 41.0659 111.254 41.2198 110.178C41.2641 109.926 41.2546 109.668 41.1918 109.42C41.1291 109.173 41.0145 108.941 40.8556 108.74C40.6967 108.539 40.4969 108.374 40.2693 108.254C40.0417 108.135 39.7914 108.065 39.5346 108.048C37.9875 107.989 36.3023 110.205 35.8287 111.493C35.8287 111.54 35.726 111.885 35.6353 112.256C35.7103 111.415 35.7734 110.577 35.8129 109.743C35.8868 108.307 35.8631 106.869 35.7418 105.436C35.9431 105.436 38.4611 105.217 39.4833 104.653C40.3831 104.156 41.3974 103.271 41.5474 102.194C41.5923 101.943 41.5833 101.685 41.5208 101.437C41.4583 101.189 41.3438 100.957 41.1847 100.756C41.0257 100.555 40.8257 100.389 40.5978 100.27C40.3699 100.151 40.1192 100.081 39.8621 100.065C38.3151 100.006 36.6338 102.222 36.1562 103.51C36.1247 103.6 35.8247 104.825 35.7339 105.268C35.7339 105.268 35.7339 105.233 35.7339 105.217C35.5827 103.816 35.3053 102.431 34.9051 101.079C34.5518 99.8705 34.1289 98.6836 33.6383 97.5236C33.1962 96.443 32.7226 95.4799 32.2964 94.6303C32.0635 94.1722 31.8425 93.7611 31.6294 93.3735H31.661C31.6886 93.3735 31.5347 91.5216 31.511 91.4159C31.2387 90.0691 29.9323 87.626 28.3537 87.4498C28.0985 87.4301 27.842 87.4636 27.6007 87.5483C27.3593 87.6329 27.1386 87.7668 26.9527 87.9413C26.7667 88.1158 26.6197 88.327 26.5211 88.5613C26.4226 88.7957 26.3746 89.0479 26.3803 89.3017C26.3803 90.3862 27.2289 91.412 28.0458 92.0424C28.8628 92.6727 31.0058 93.2169 31.5347 93.3579C31.7478 93.7494 31.9688 94.1957 32.2056 94.6773C32.6003 95.5347 33.0581 96.5018 33.4764 97.5902C33.5909 97.8799 33.6975 98.1931 33.808 98.4985C33.5159 98.0248 33.1015 97.3788 33.0542 97.324C32.1898 96.2551 29.8968 94.6929 28.4326 95.2411C28.195 95.3389 27.9807 95.4853 27.8038 95.6706C27.6269 95.856 27.4912 96.0761 27.4056 96.3169C27.32 96.5576 27.2864 96.8135 27.3069 97.0679C27.3275 97.3223 27.4017 97.5697 27.5249 97.7938C28.0143 98.7648 29.2575 99.2776 30.2875 99.4656C31.3176 99.6535 33.5356 99.1484 34.0132 99.031C34.25 99.7083 34.475 100.409 34.6683 101.153C35.0361 102.496 35.2805 103.869 35.3985 105.256C35.3985 105.334 35.3985 105.421 35.3985 105.499C35.2959 105.24 34.6091 103.858 34.5618 103.768C33.8198 102.594 31.6965 100.805 30.1968 101.192C29.9494 101.263 29.7198 101.385 29.5231 101.55C29.3264 101.715 29.167 101.919 29.0552 102.149C28.9435 102.379 28.882 102.63 28.8746 102.886C28.8673 103.141 28.9144 103.395 29.0128 103.631C29.4074 104.649 30.5914 105.299 31.5623 105.589C32.7029 105.93 35.3038 105.565 35.4024 105.554C35.4818 106.938 35.4726 108.325 35.3748 109.708C35.3038 110.733 35.1932 111.767 35.0709 112.805C34.9288 112.472 34.2816 111.188 34.2421 111.102C33.5001 109.927 31.3768 108.138 29.8771 108.525C29.6297 108.596 29.4001 108.718 29.2034 108.883C29.0067 109.048 28.8473 109.252 28.7356 109.482C28.6238 109.713 28.5623 109.964 28.555 110.219C28.5476 110.474 28.5947 110.728 28.6931 110.964C29.0878 111.982 30.2718 112.628 31.2426 112.922C32.3556 113.251 34.8499 112.922 35.063 112.887C35.0038 113.357 34.9525 113.83 34.8933 114.3C34.6999 115.839 34.4986 117.385 34.3447 118.912C34.2934 119.441 34.2618 119.965 34.2263 120.478C33.9935 119.985 33.5554 119.092 33.508 119.022C32.766 117.847 30.6467 116.058 29.1667 116.446C28.9196 116.517 28.6905 116.639 28.4941 116.804C28.2978 116.969 28.1386 117.174 28.0269 117.404C27.9153 117.634 27.8536 117.884 27.846 118.14C27.8384 118.395 27.885 118.649 27.9827 118.885C28.3774 119.903 29.5614 120.549 30.5322 120.843C31.5031 121.136 33.6304 120.901 34.2224 120.823C34.1711 121.696 34.1395 122.565 34.1513 123.419C34.1513 123.791 34.1513 124.166 34.1868 124.519L34.2579 125.58C34.3368 126.3 34.4039 126.97 34.4907 127.643C34.5342 127.98 34.5815 128.297 34.6289 128.626C34.4671 128.093 34.2026 127.248 34.1711 127.173C33.6106 125.917 31.8031 123.814 30.2481 123.971C29.9931 124.004 29.748 124.091 29.5288 124.224C29.3096 124.358 29.1211 124.535 28.9756 124.746C28.8301 124.956 28.7308 125.195 28.6842 125.446C28.6376 125.696 28.6446 125.954 28.7049 126.202C28.9259 127.267 29.9915 128.086 30.9269 128.524C31.957 129.01 34.3881 129.06 34.6881 129.064C34.8025 129.871 34.9209 130.65 35.0472 131.382C35.4419 133.688 35.8366 135.599 36.1602 136.93C36.4838 138.261 36.6811 139.021 36.6811 139.021C36.7296 139.149 36.825 139.253 36.9482 139.314C37.0714 139.375 37.2133 139.388 37.3453 139.349C37.4773 139.31 37.5896 139.223 37.6597 139.106C37.7298 138.988 37.7524 138.849 37.7231 138.715C37.7231 138.715 37.4823 138.054 37.1468 136.738Z" fill="#407BFF"/>
<path d="M34.1283 98.7923C34.1283 98.7923 36.6976 97.8918 37.5619 97.0501C38.2999 96.3297 39.0419 95.2139 38.9038 94.1372C38.8796 93.8827 38.8017 93.6362 38.6752 93.4136C38.5486 93.191 38.3762 92.9973 38.1693 92.8451C37.9623 92.693 37.7253 92.5858 37.4738 92.5304C37.2223 92.4751 36.9618 92.473 36.7094 92.5241C35.2018 92.8726 34.1678 95.4488 34.0533 96.8308C34.0415 96.9444 34.1007 98.8041 34.1283 98.7923Z" fill="#407BFF"/>
<path d="M35.6672 137.29C34.6608 136.382 33.24 135.058 31.6061 133.398C31.1365 132.921 30.6431 132.408 30.1459 131.875C30.3511 131.656 32.0047 129.89 32.3718 128.821C32.7033 127.85 32.8533 126.523 32.2376 125.623C32.1004 125.407 31.919 125.222 31.705 125.08C31.4911 124.939 31.2495 124.843 30.9959 124.801C30.7424 124.758 30.4826 124.768 30.2334 124.832C29.9843 124.895 29.7514 125.01 29.5499 125.169C28.3659 126.155 28.6146 128.919 29.1355 130.188C29.1671 130.27 29.6723 131.19 29.9248 131.652C29.621 131.331 29.321 131.01 29.0132 130.666C28.5672 130.18 28.1133 129.648 27.6674 129.139L26.9964 128.309C26.7636 128.031 26.5781 127.737 26.361 127.451C26.0532 127.024 25.7572 126.566 25.4612 126.108C25.99 125.689 27.5213 124.425 27.9831 123.544C28.4448 122.663 28.8119 121.343 28.3383 120.365C28.2358 120.13 28.0846 119.92 27.8947 119.748C27.7047 119.575 27.4803 119.445 27.236 119.364C26.9917 119.284 26.733 119.255 26.4768 119.28C26.2207 119.306 25.9727 119.384 25.7493 119.511C24.4232 120.294 24.2535 123.074 24.5653 124.409C24.5653 124.456 24.6758 124.73 24.7942 125.055C24.5179 124.601 24.2417 124.151 23.9772 123.681C23.2313 122.35 22.513 120.975 21.7868 119.597C21.6369 119.311 21.4829 119.026 21.329 118.74C21.775 118.387 23.4444 117.033 23.9299 116.109C24.4153 115.185 24.7547 113.908 24.2851 112.93C24.1825 112.695 24.0314 112.485 23.8415 112.313C23.6515 112.14 23.4271 112.01 23.1828 111.929C22.9385 111.849 22.6798 111.82 22.4236 111.845C22.1674 111.871 21.9195 111.949 21.6961 112.076C20.37 112.859 20.2003 115.639 20.5121 116.974C20.5121 117.025 20.6423 117.366 20.7765 117.718C20.3818 116.974 19.9556 116.242 19.5254 115.522C18.7877 114.288 17.969 113.105 17.0745 111.978C17.2363 111.853 19.2254 110.307 19.7622 109.281C20.2397 108.372 20.591 107.08 20.1174 106.102C20.0153 105.867 19.8644 105.656 19.6746 105.484C19.4848 105.311 19.2605 105.18 19.0161 105.099C18.7718 105.018 18.513 104.989 18.2566 105.014C18.0002 105.039 17.7521 105.117 17.5284 105.244C16.2023 106.027 16.0326 108.811 16.3444 110.146C16.3681 110.24 16.8022 111.426 16.9679 111.845L16.9403 111.802C16.0318 110.719 15.0294 109.717 13.9448 108.807C12.9919 107.993 11.9931 107.234 10.9532 106.532C9.98235 105.875 9.05094 105.33 8.22609 104.857C7.77617 104.602 7.35782 104.379 6.97105 104.175H6.99868C7.0263 104.175 5.86204 102.699 5.77521 102.609C4.80038 101.634 2.34161 100.323 0.96028 101.02C0.733931 101.141 0.535915 101.308 0.379139 101.511C0.222364 101.713 0.110349 101.946 0.0503973 102.194C-0.00955465 102.443 -0.0160976 102.701 0.0311943 102.952C0.0784861 103.203 0.178551 103.441 0.324867 103.651C0.916866 104.567 2.20743 104.951 3.24145 105.029C4.27548 105.107 6.37116 104.395 6.88028 104.214C7.27494 104.434 7.70907 104.673 8.17478 104.951C8.98779 105.44 9.90342 106.004 10.8546 106.681C11.1111 106.861 11.3755 107.073 11.6439 107.257C11.1387 107.022 10.4323 106.712 10.3612 106.689C9.04305 106.27 6.24881 106.227 5.34502 107.472C5.20167 107.684 5.10473 107.923 5.06049 108.175C5.01624 108.426 5.02567 108.684 5.08816 108.932C5.15065 109.179 5.26481 109.411 5.42326 109.612C5.58172 109.813 5.78095 109.979 6.00806 110.099C6.95921 110.635 8.28134 110.389 9.23249 109.985C10.1836 109.582 11.7662 107.942 12.1017 107.585C12.674 108.02 13.2502 108.482 13.8264 108.995C14.8785 109.915 15.8454 110.926 16.7154 112.017C16.7667 112.08 16.8101 112.151 16.8614 112.217C16.6285 112.057 15.2827 111.277 15.1959 111.234C13.933 110.675 11.1585 110.326 10.1244 111.473C9.9581 111.668 9.83488 111.895 9.76278 112.14C9.69068 112.385 9.67131 112.642 9.70592 112.895C9.74053 113.148 9.82835 113.391 9.96368 113.608C10.099 113.825 10.2788 114.012 10.4915 114.155C11.3755 114.793 12.7213 114.692 13.708 114.394C14.8486 114.053 16.818 112.327 16.893 112.264C17.7315 113.374 18.4961 114.536 19.182 115.745C19.6951 116.637 20.1766 117.561 20.6502 118.485C20.3463 118.286 19.107 117.561 19.0123 117.518C17.7494 116.958 14.9749 116.614 13.9369 117.757C13.7702 117.952 13.6467 118.179 13.5746 118.424C13.5024 118.67 13.4832 118.927 13.5182 119.18C13.5533 119.433 13.6417 119.676 13.7777 119.893C13.9138 120.11 14.0945 120.296 14.3079 120.439C15.192 121.081 16.5338 120.975 17.5244 120.682C18.6374 120.345 20.5318 118.701 20.6818 118.564C20.8988 118.986 21.1159 119.409 21.329 119.832C22.0236 121.226 22.7103 122.62 23.4365 123.978C23.6852 124.448 23.9496 124.906 24.2259 125.36C23.7562 125.075 22.8958 124.577 22.8169 124.538C21.554 123.978 18.7795 123.634 17.7454 124.777C17.5791 124.972 17.4559 125.199 17.3838 125.444C17.3117 125.689 17.2923 125.946 17.3269 126.199C17.3615 126.452 17.4494 126.695 17.5847 126.912C17.72 127.129 17.8998 127.315 18.1125 127.459C18.9965 128.101 20.3384 127.995 21.329 127.702C22.3196 127.408 23.9457 126.053 24.3995 125.666C24.8415 126.421 25.2954 127.165 25.7808 127.87C25.9979 128.172 26.1992 128.493 26.4202 128.771L27.0714 129.612C27.5371 130.172 27.9673 130.697 28.4133 131.206L29.0724 131.954C28.6422 131.593 27.9515 131.037 27.8884 130.994C26.7044 130.251 24.0364 129.491 22.8366 130.466C22.6419 130.633 22.4849 130.839 22.3759 131.071C22.2668 131.303 22.2082 131.554 22.2037 131.81C22.1992 132.066 22.2491 132.319 22.35 132.554C22.4508 132.79 22.6005 133.001 22.7893 133.175C23.5786 133.939 24.9126 134.04 25.9466 133.896C27.0754 133.735 29.1316 132.447 29.3842 132.286C29.9248 132.893 30.4616 133.461 30.9628 134.021C32.5731 135.732 33.982 137.098 34.9805 138.038C35.979 138.977 36.5592 139.502 36.5592 139.502C36.6707 139.583 36.8092 139.619 36.9464 139.603C37.0837 139.586 37.2096 139.519 37.2984 139.414C37.3873 139.308 37.4326 139.174 37.425 139.037C37.4174 138.9 37.3576 138.771 37.2577 138.676C37.2577 138.676 36.6776 138.202 35.6672 137.29Z" fill="#407BFF"/>
<path d="M12.0505 107.296C12.0505 107.296 13.6884 105.139 13.9449 103.96C14.162 102.958 14.1581 101.611 13.4437 100.797C13.2817 100.598 13.0796 100.436 12.8503 100.32C12.621 100.203 12.3697 100.136 12.1126 100.123C11.8555 100.109 11.5985 100.149 11.358 100.24C11.1175 100.331 10.899 100.472 10.7166 100.652C9.65096 101.768 10.2232 104.485 10.8863 105.687C10.9534 105.792 12.0308 107.315 12.0505 107.296Z" fill="#407BFF"/>
<g opacity="0.1">
<path d="M37.1468 136.738C36.8114 135.427 36.3575 133.547 35.9234 131.257C35.7971 130.603 35.6708 129.902 35.5524 129.186C35.8444 129.115 38.2085 128.552 39.1044 127.859C39.9213 127.228 40.7857 126.202 40.7738 125.118C40.7796 124.864 40.7316 124.612 40.633 124.377C40.5344 124.143 40.3874 123.932 40.2015 123.757C40.0156 123.583 39.7948 123.449 39.5535 123.364C39.3122 123.28 39.0557 123.246 38.8005 123.266C37.2573 123.438 35.9352 125.881 35.6432 127.228C35.6432 127.314 35.5327 128.356 35.5011 128.888C35.4261 128.454 35.3551 128.023 35.288 127.569C35.1893 126.919 35.1025 126.226 35.0156 125.556L34.9209 124.499C34.8775 124.139 34.8854 123.791 34.8657 123.434C34.8657 122.91 34.8657 122.366 34.8657 121.825C35.5406 121.763 37.5178 121.547 38.394 121.062C39.2701 120.576 40.3081 119.68 40.4581 118.607C40.503 118.355 40.494 118.097 40.4315 117.849C40.369 117.601 40.2545 117.369 40.0954 117.168C39.9364 116.967 39.7364 116.802 39.5085 116.683C39.2806 116.564 39.0299 116.494 38.7729 116.477C37.2258 116.414 35.5445 118.63 35.067 119.922C35.067 119.962 34.9801 120.243 34.9012 120.58C34.9012 120.052 34.9446 119.527 34.9841 118.991C35.1025 117.472 35.2682 115.933 35.43 114.386C35.4616 114.061 35.4892 113.74 35.5248 113.419C36.0931 113.368 38.2361 113.153 39.1517 112.636C40.0674 112.119 41.0659 111.254 41.2198 110.178C41.2641 109.926 41.2546 109.668 41.1918 109.42C41.1291 109.173 41.0145 108.941 40.8556 108.74C40.6967 108.539 40.4969 108.374 40.2693 108.254C40.0417 108.135 39.7914 108.065 39.5346 108.048C37.9875 107.989 36.3023 110.205 35.8287 111.493C35.8287 111.54 35.726 111.885 35.6353 112.256C35.7103 111.415 35.7734 110.577 35.8129 109.743C35.8868 108.307 35.8631 106.869 35.7418 105.436C35.9431 105.436 38.4611 105.217 39.4833 104.653C40.3831 104.156 41.3974 103.271 41.5474 102.194C41.5923 101.943 41.5833 101.685 41.5208 101.437C41.4583 101.189 41.3438 100.957 41.1847 100.756C41.0257 100.555 40.8257 100.389 40.5978 100.27C40.3699 100.151 40.1192 100.081 39.8621 100.065C38.3151 100.006 36.6338 102.222 36.1562 103.51C36.1247 103.6 35.8247 104.825 35.7339 105.268C35.7339 105.268 35.7339 105.233 35.7339 105.217C35.5827 103.816 35.3053 102.431 34.9051 101.079C34.5518 99.8705 34.1289 98.6836 33.6383 97.5236C33.1962 96.443 32.7226 95.4799 32.2964 94.6303C32.0635 94.1722 31.8425 93.7611 31.6294 93.3735H31.661C31.6886 93.3735 31.5347 91.5216 31.511 91.4159C31.2387 90.0691 29.9323 87.626 28.3537 87.4498C28.0985 87.4301 27.842 87.4636 27.6007 87.5483C27.3593 87.6329 27.1386 87.7668 26.9527 87.9413C26.7667 88.1158 26.6197 88.327 26.5211 88.5613C26.4226 88.7957 26.3746 89.0479 26.3803 89.3017C26.3803 90.3862 27.2289 91.412 28.0458 92.0424C28.8628 92.6727 31.0058 93.2169 31.5347 93.3579C31.7478 93.7494 31.9688 94.1957 32.2056 94.6773C32.6003 95.5347 33.0581 96.5018 33.4764 97.5902C33.5909 97.8799 33.6975 98.1931 33.808 98.4985C33.5159 98.0248 33.1015 97.3788 33.0542 97.324C32.1898 96.2551 29.8968 94.6929 28.4326 95.2411C28.195 95.3389 27.9807 95.4853 27.8038 95.6706C27.6269 95.856 27.4912 96.0761 27.4056 96.3169C27.32 96.5576 27.2864 96.8135 27.3069 97.0679C27.3275 97.3223 27.4017 97.5697 27.5249 97.7938C28.0143 98.7648 29.2575 99.2776 30.2875 99.4656C31.3176 99.6535 33.5356 99.1484 34.0132 99.031C34.25 99.7083 34.475 100.409 34.6683 101.153C35.0361 102.496 35.2805 103.869 35.3985 105.256C35.3985 105.334 35.3985 105.421 35.3985 105.499C35.2959 105.24 34.6091 103.858 34.5618 103.768C33.8198 102.594 31.6965 100.805 30.1968 101.192C29.9494 101.263 29.7198 101.385 29.5231 101.55C29.3264 101.715 29.167 101.919 29.0552 102.149C28.9435 102.379 28.882 102.63 28.8746 102.886C28.8673 103.141 28.9144 103.395 29.0128 103.631C29.4074 104.649 30.5914 105.299 31.5623 105.589C32.7029 105.93 35.3038 105.565 35.4024 105.554C35.4818 106.938 35.4726 108.325 35.3748 109.708C35.3038 110.733 35.1932 111.767 35.0709 112.805C34.9288 112.472 34.2816 111.188 34.2421 111.102C33.5001 109.927 31.3768 108.138 29.8771 108.525C29.6297 108.596 29.4001 108.718 29.2034 108.883C29.0067 109.048 28.8473 109.252 28.7356 109.482C28.6238 109.713 28.5623 109.964 28.555 110.219C28.5476 110.474 28.5947 110.728 28.6931 110.964C29.0878 111.982 30.2718 112.628 31.2426 112.922C32.3556 113.251 34.8499 112.922 35.063 112.887C35.0038 113.357 34.9525 113.83 34.8933 114.3C34.6999 115.839 34.4986 117.385 34.3447 118.912C34.2934 119.441 34.2618 119.965 34.2263 120.478C33.9935 119.985 33.5554 119.092 33.508 119.022C32.766 117.847 30.6467 116.058 29.1667 116.446C28.9196 116.517 28.6905 116.639 28.4941 116.804C28.2978 116.969 28.1386 117.174 28.0269 117.404C27.9153 117.634 27.8536 117.884 27.846 118.14C27.8384 118.395 27.885 118.649 27.9827 118.885C28.3774 119.903 29.5614 120.549 30.5322 120.843C31.5031 121.136 33.6304 120.901 34.2224 120.823C34.1711 121.696 34.1395 122.565 34.1513 123.419C34.1513 123.791 34.1513 124.166 34.1868 124.519L34.2579 125.58C34.3368 126.3 34.4039 126.97 34.4907 127.643C34.5342 127.98 34.5815 128.297 34.6289 128.626C34.4671 128.093 34.2026 127.248 34.1711 127.173C33.6106 125.917 31.8031 123.814 30.2481 123.971C29.9931 124.004 29.748 124.091 29.5288 124.224C29.3096 124.358 29.1211 124.535 28.9756 124.746C28.8301 124.956 28.7308 125.195 28.6842 125.446C28.6376 125.696 28.6446 125.954 28.7049 126.202C28.9259 127.267 29.9915 128.086 30.9269 128.524C31.957 129.01 34.3881 129.06 34.6881 129.064C34.8025 129.871 34.9209 130.65 35.0472 131.382C35.4419 133.688 35.8366 135.599 36.1602 136.93C36.4838 138.261 36.6811 139.021 36.6811 139.021C36.7296 139.149 36.825 139.253 36.9482 139.314C37.0714 139.375 37.2133 139.388 37.3453 139.349C37.4773 139.31 37.5896 139.223 37.6597 139.106C37.7298 138.988 37.7524 138.849 37.7231 138.715C37.7231 138.715 37.4823 138.054 37.1468 136.738Z" fill="black"/>
<path d="M34.1283 98.7923C34.1283 98.7923 36.6976 97.8918 37.5619 97.0501C38.2999 96.3297 39.0419 95.2139 38.9038 94.1372C38.8796 93.8827 38.8017 93.6362 38.6752 93.4136C38.5486 93.191 38.3762 92.9973 38.1693 92.8451C37.9623 92.693 37.7253 92.5858 37.4738 92.5304C37.2223 92.4751 36.9618 92.473 36.7094 92.5241C35.2018 92.8726 34.1678 95.4488 34.0533 96.8308C34.0415 96.9444 34.1007 98.8041 34.1283 98.7923Z" fill="black"/>
<path d="M35.6672 137.29C34.6608 136.382 33.24 135.058 31.6061 133.398C31.1365 132.921 30.6431 132.408 30.1459 131.875C30.3511 131.656 32.0047 129.89 32.3718 128.821C32.7033 127.85 32.8533 126.523 32.2376 125.623C32.1004 125.407 31.919 125.222 31.705 125.08C31.4911 124.939 31.2495 124.843 30.9959 124.801C30.7424 124.758 30.4826 124.768 30.2334 124.832C29.9843 124.895 29.7514 125.01 29.5499 125.169C28.3659 126.155 28.6146 128.919 29.1355 130.188C29.1671 130.27 29.6723 131.19 29.9248 131.652C29.621 131.331 29.321 131.01 29.0132 130.666C28.5672 130.18 28.1133 129.648 27.6674 129.139L26.9964 128.309C26.7636 128.031 26.5781 127.737 26.361 127.451C26.0532 127.024 25.7572 126.566 25.4612 126.108C25.99 125.689 27.5213 124.425 27.9831 123.544C28.4448 122.663 28.8119 121.343 28.3383 120.365C28.2358 120.13 28.0846 119.92 27.8947 119.748C27.7047 119.575 27.4803 119.445 27.236 119.364C26.9917 119.284 26.733 119.255 26.4768 119.28C26.2207 119.306 25.9727 119.384 25.7493 119.511C24.4232 120.294 24.2535 123.074 24.5653 124.409C24.5653 124.456 24.6758 124.73 24.7942 125.055C24.5179 124.601 24.2417 124.151 23.9772 123.681C23.2313 122.35 22.513 120.975 21.7868 119.597C21.6369 119.311 21.4829 119.026 21.329 118.74C21.775 118.387 23.4444 117.033 23.9299 116.109C24.4153 115.185 24.7547 113.908 24.2851 112.93C24.1825 112.695 24.0314 112.485 23.8415 112.313C23.6515 112.14 23.4271 112.01 23.1828 111.929C22.9385 111.849 22.6798 111.82 22.4236 111.845C22.1674 111.871 21.9195 111.949 21.6961 112.076C20.37 112.859 20.2003 115.639 20.5121 116.974C20.5121 117.025 20.6423 117.366 20.7765 117.718C20.3818 116.974 19.9556 116.242 19.5254 115.522C18.7877 114.288 17.969 113.105 17.0745 111.978C17.2363 111.853 19.2254 110.307 19.7622 109.281C20.2397 108.372 20.591 107.08 20.1174 106.102C20.0153 105.867 19.8644 105.656 19.6746 105.484C19.4848 105.311 19.2605 105.18 19.0161 105.099C18.7718 105.018 18.513 104.989 18.2566 105.014C18.0002 105.039 17.7521 105.117 17.5284 105.244C16.2023 106.027 16.0326 108.811 16.3444 110.146C16.3681 110.24 16.8022 111.426 16.9679 111.845L16.9403 111.802C16.0318 110.719 15.0294 109.717 13.9448 108.807C12.9919 107.993 11.9931 107.234 10.9532 106.532C9.98235 105.875 9.05094 105.33 8.22609 104.857C7.77617 104.602 7.35782 104.379 6.97105 104.175H6.99868C7.0263 104.175 5.86204 102.699 5.77521 102.609C4.80038 101.634 2.34161 100.323 0.96028 101.02C0.733931 101.141 0.535915 101.308 0.379139 101.511C0.222364 101.713 0.110349 101.946 0.0503973 102.194C-0.00955465 102.443 -0.0160976 102.701 0.0311943 102.952C0.0784861 103.203 0.178551 103.441 0.324867 103.651C0.916866 104.567 2.20743 104.951 3.24145 105.029C4.27548 105.107 6.37116 104.395 6.88028 104.214C7.27494 104.434 7.70907 104.673 8.17478 104.951C8.98779 105.44 9.90342 106.004 10.8546 106.681C11.1111 106.861 11.3755 107.073 11.6439 107.257C11.1387 107.022 10.4323 106.712 10.3612 106.689C9.04305 106.27 6.24881 106.227 5.34502 107.472C5.20167 107.684 5.10473 107.923 5.06049 108.175C5.01624 108.426 5.02567 108.684 5.08816 108.932C5.15065 109.179 5.26481 109.411 5.42326 109.612C5.58172 109.813 5.78095 109.979 6.00806 110.099C6.95921 110.635 8.28134 110.389 9.23249 109.985C10.1836 109.582 11.7662 107.942 12.1017 107.585C12.674 108.02 13.2502 108.482 13.8264 108.995C14.8785 109.915 15.8454 110.926 16.7154 112.017C16.7667 112.08 16.8101 112.151 16.8614 112.217C16.6285 112.057 15.2827 111.277 15.1959 111.234C13.933 110.675 11.1585 110.326 10.1244 111.473C9.9581 111.668 9.83488 111.895 9.76278 112.14C9.69068 112.385 9.67131 112.642 9.70592 112.895C9.74053 113.148 9.82835 113.391 9.96368 113.608C10.099 113.825 10.2788 114.012 10.4915 114.155C11.3755 114.793 12.7213 114.692 13.708 114.394C14.8486 114.053 16.818 112.327 16.893 112.264C17.7315 113.374 18.4961 114.536 19.182 115.745C19.6951 116.637 20.1766 117.561 20.6502 118.485C20.3463 118.286 19.107 117.561 19.0123 117.518C17.7494 116.958 14.9749 116.614 13.9369 117.757C13.7702 117.952 13.6467 118.179 13.5746 118.424C13.5024 118.67 13.4832 118.927 13.5182 119.18C13.5533 119.433 13.6417 119.676 13.7777 119.893C13.9138 120.11 14.0945 120.296 14.3079 120.439C15.192 121.081 16.5338 120.975 17.5244 120.682C18.6374 120.345 20.5318 118.701 20.6818 118.564C20.8988 118.986 21.1159 119.409 21.329 119.832C22.0236 121.226 22.7103 122.62 23.4365 123.978C23.6852 124.448 23.9496 124.906 24.2259 125.36C23.7562 125.075 22.8958 124.577 22.8169 124.538C21.554 123.978 18.7795 123.634 17.7454 124.777C17.5791 124.972 17.4559 125.199 17.3838 125.444C17.3117 125.689 17.2923 125.946 17.3269 126.199C17.3615 126.452 17.4494 126.695 17.5847 126.912C17.72 127.129 17.8998 127.315 18.1125 127.459C18.9965 128.101 20.3384 127.995 21.329 127.702C22.3196 127.408 23.9457 126.053 24.3995 125.666C24.8415 126.421 25.2954 127.165 25.7808 127.87C25.9979 128.172 26.1992 128.493 26.4202 128.771L27.0714 129.612C27.5371 130.172 27.9673 130.697 28.4133 131.206L29.0724 131.954C28.6422 131.593 27.9515 131.037 27.8884 130.994C26.7044 130.251 24.0364 129.491 22.8366 130.466C22.6419 130.633 22.4849 130.839 22.3759 131.071C22.2668 131.303 22.2082 131.554 22.2037 131.81C22.1992 132.066 22.2491 132.319 22.35 132.554C22.4508 132.79 22.6005 133.001 22.7893 133.175C23.5786 133.939 24.9126 134.04 25.9466 133.896C27.0754 133.735 29.1316 132.447 29.3842 132.286C29.9248 132.893 30.4616 133.461 30.9628 134.021C32.5731 135.732 33.982 137.098 34.9805 138.038C35.979 138.977 36.5592 139.502 36.5592 139.502C36.6707 139.583 36.8092 139.619 36.9464 139.603C37.0837 139.586 37.2096 139.519 37.2984 139.414C37.3873 139.308 37.4326 139.174 37.425 139.037C37.4174 138.9 37.3576 138.771 37.2577 138.676C37.2577 138.676 36.6776 138.202 35.6672 137.29Z" fill="black"/>
<path d="M12.0505 107.296C12.0505 107.296 13.6884 105.139 13.9449 103.96C14.162 102.958 14.1581 101.611 13.4437 100.797C13.2817 100.598 13.0796 100.436 12.8503 100.32C12.621 100.203 12.3697 100.136 12.1126 100.123C11.8555 100.109 11.5985 100.149 11.358 100.24C11.1175 100.331 10.899 100.472 10.7166 100.652C9.65096 101.768 10.2232 104.485 10.8863 105.687C10.9534 105.792 12.0308 107.315 12.0505 107.296Z" fill="black"/>
</g>
<g opacity="0.1">
<path d="M47.2148 108.177C46.9385 106.854 46.5714 104.955 46.236 102.66C46.1373 101.999 46.0426 101.298 45.9558 100.574C46.2557 100.519 48.6395 100.057 49.567 99.399C50.4116 98.8078 51.3193 97.8329 51.3548 96.7367C51.3752 96.4801 51.3404 96.2222 51.2527 95.98C51.1651 95.7378 51.0265 95.5169 50.8463 95.3318C50.6661 95.1467 50.4483 95.0017 50.2073 94.9064C49.9663 94.8112 49.7077 94.7677 49.4486 94.7791C47.9015 94.8848 46.4728 97.2652 46.1373 98.6003C46.1176 98.6864 45.9795 99.7201 45.9203 100.253C45.8689 99.814 45.8176 99.3794 45.7703 98.9253C45.6992 98.2675 45.644 97.5745 45.5887 96.9011C45.5887 96.5487 45.5532 96.1964 45.5374 95.8401C45.5216 95.4838 45.5374 95.1354 45.5374 94.7752C45.5374 94.2505 45.5769 93.7063 45.6045 93.166C46.2833 93.1347 48.2685 93.0055 49.1565 92.5592C50.0445 92.1128 51.1298 91.2632 51.3311 90.21C51.3864 89.9613 51.3885 89.7039 51.3374 89.4542C51.2863 89.2046 51.183 88.9684 51.0343 88.7608C50.8856 88.5531 50.6947 88.3787 50.474 88.2487C50.2532 88.1186 50.0074 88.0359 49.7525 88.0058C48.2093 87.8805 46.4294 90.0182 45.9005 91.2867C45.8808 91.3259 45.7979 91.6078 45.6992 91.9406C45.7466 91.412 45.79 90.8835 45.8571 90.351C46.0387 88.8436 46.2755 87.3089 46.5044 85.7702C46.5517 85.4492 46.5951 85.1321 46.6425 84.811C47.2108 84.7836 49.3657 84.6661 50.301 84.2002C51.2364 83.7343 52.2744 82.9004 52.4757 81.8511C52.5315 81.6023 52.5341 81.3447 52.4833 81.0948C52.4324 80.845 52.3293 80.6085 52.1804 80.4007C52.0316 80.1929 51.8405 80.0185 51.6194 79.8886C51.3983 79.7588 51.1522 79.6764 50.897 79.6469C49.3499 79.5216 47.5739 81.6593 47.0411 82.9278C47.0411 82.9709 46.9227 83.3193 46.8122 83.6795C46.9267 82.8456 47.0253 82.0077 47.1003 81.1777C47.2392 79.7465 47.2801 78.3077 47.2226 76.871C47.4239 76.871 49.9498 76.7731 50.9917 76.2563C51.9192 75.7982 52.965 74.9604 53.1663 73.9072C53.2222 73.6586 53.2248 73.4012 53.1739 73.1516C53.123 72.902 53.0198 72.6657 52.8709 72.4583C52.7221 72.2508 52.5309 72.0767 52.3098 71.9472C52.0888 71.8178 51.8427 71.7359 51.5877 71.7069C50.0406 71.5777 48.2646 73.7193 47.7318 74.9839C47.6923 75.0739 47.3371 76.2876 47.2305 76.7222C47.2286 76.7053 47.2286 76.6882 47.2305 76.6713C47.1392 75.2652 46.9226 73.8699 46.5833 72.5016C46.2854 71.2782 45.9164 70.073 45.4782 68.8918C45.0836 67.7956 44.6534 66.8129 44.2666 65.9476C44.0535 65.4778 43.8483 65.055 43.6549 64.6634H43.6864C43.7141 64.6634 43.6391 62.8037 43.6233 62.7058C43.4102 61.3512 42.1985 58.8533 40.6672 58.6105C40.4119 58.5769 40.1524 58.5971 39.9054 58.6697C39.6585 58.7423 39.4298 58.8658 39.2343 59.0321C39.0388 59.1983 38.8808 59.4037 38.7707 59.6346C38.6605 59.8656 38.6008 60.117 38.5952 60.3724C38.5321 61.4569 39.3491 62.5179 40.1344 63.1835C40.9198 63.8491 43.0431 64.499 43.5641 64.6478C43.7575 65.0628 43.9588 65.5052 44.1758 65.9985C44.5429 66.8716 44.9652 67.8582 45.3164 68.9623C45.4151 69.256 45.5098 69.577 45.6085 69.8824C45.3361 69.3969 44.9533 68.7352 44.906 68.6765C44.089 67.5685 41.8512 65.9046 40.3831 66.39C40.1409 66.4767 39.9198 66.6131 39.7344 66.7903C39.5489 66.9675 39.4032 67.1814 39.3067 67.4183C39.2103 67.6551 39.1652 67.9094 39.1746 68.1647C39.1839 68.42 39.2474 68.6704 39.3609 68.8997C39.8069 69.8902 41.0264 70.4657 42.0367 70.6889C43.0471 70.9121 45.2967 70.5166 45.7782 70.4227C45.9834 71.1078 46.1728 71.8165 46.3386 72.5682C46.637 73.919 46.814 75.2934 46.8674 76.6752C46.8674 76.7575 46.8674 76.8397 46.8674 76.9219C46.7727 76.6557 46.1571 75.2501 46.1057 75.1561C45.4151 73.9816 43.3747 72.0671 41.8591 72.3881C41.6084 72.4483 41.3734 72.5601 41.1692 72.7165C40.965 72.8728 40.7964 73.0701 40.6742 73.2955C40.5521 73.5208 40.4792 73.7692 40.4603 74.0243C40.4414 74.2795 40.477 74.5357 40.5646 74.7764C40.9001 75.8061 42.0525 76.5069 43.0273 76.8436C44.1521 77.2351 46.7688 76.9845 46.8635 76.9767C46.885 78.3631 46.8151 79.7494 46.6543 81.1268C46.5399 82.1487 46.382 83.1784 46.2123 84.2081C46.0821 83.8674 45.5137 82.5598 45.4585 82.4697C44.7718 81.2952 42.7313 79.3846 41.2158 79.7056C40.9656 79.7658 40.731 79.8776 40.5272 80.0337C40.3234 80.1898 40.1549 80.3867 40.0328 80.6115C39.9107 80.8364 39.8377 81.0843 39.8185 81.339C39.7993 81.5937 39.8343 81.8495 39.9213 82.0899C40.2568 83.1236 41.4053 83.8205 42.384 84.1611C43.4812 84.5526 45.9873 84.3138 46.2005 84.2942C46.1215 84.7601 46.0465 85.2299 45.9676 85.6998C45.7032 87.2267 45.4348 88.7614 45.2177 90.2805C45.1388 90.8091 45.0836 91.3298 45.0283 91.8466C44.8191 91.3415 44.4205 90.4332 44.3771 90.3588C43.6864 89.1843 41.646 87.2697 40.1305 87.5947C39.8803 87.6549 39.6456 87.7667 39.4418 87.9228C39.238 88.0789 39.0696 88.2758 38.9475 88.5006C38.8254 88.7255 38.7524 88.9734 38.7332 89.2281C38.714 89.4828 38.749 89.7386 38.836 89.979C39.1715 91.0127 40.3199 91.7096 41.2987 92.0502C42.2775 92.3908 44.3889 92.242 44.9849 92.195C44.8941 93.0642 44.827 93.9295 44.7994 94.783C44.7994 95.151 44.7639 95.5308 44.7994 95.8832C44.8349 96.2355 44.7994 96.5957 44.8231 96.9442C44.8704 97.6685 44.906 98.3419 44.9652 99.0153C44.9928 99.3559 45.0244 99.677 45.0559 100.006C44.9217 99.4656 44.6928 98.6081 44.6613 98.5337C44.16 97.2535 42.4353 95.0727 40.8843 95.1628C40.6279 95.1855 40.3791 95.2613 40.1542 95.3854C39.9292 95.5096 39.7329 95.6791 39.5782 95.8832C39.4234 96.0873 39.3136 96.3213 39.2558 96.5702C39.1979 96.819 39.1934 97.0772 39.2425 97.3279C39.4161 98.3967 40.4265 99.262 41.3579 99.7435C42.3682 100.272 44.7955 100.429 45.0915 100.448C45.1704 101.255 45.2572 102.042 45.348 102.774C45.64 105.1 45.9676 107.022 46.2163 108.369C46.4649 109.716 46.6425 110.479 46.6425 110.479C46.6544 110.553 46.6816 110.623 46.7224 110.686C46.7632 110.749 46.8168 110.803 46.8796 110.844C46.9424 110.885 47.0132 110.913 47.0875 110.926C47.1617 110.939 47.2378 110.936 47.311 110.918C47.3841 110.9 47.4527 110.867 47.5125 110.822C47.5722 110.776 47.6217 110.719 47.6579 110.653C47.6941 110.588 47.7162 110.515 47.7228 110.441C47.7294 110.366 47.7204 110.291 47.6963 110.221C47.6963 110.221 47.491 109.504 47.2148 108.177Z" fill="black"/>
<path d="M45.8887 70.137C45.8887 70.137 48.4935 69.3539 49.3973 68.5435C50.1866 67.8622 50.9759 66.7777 50.8615 65.6932C50.8491 65.4383 50.7828 65.1888 50.6667 64.961C50.5506 64.7332 50.3875 64.5323 50.1879 64.3712C49.9883 64.2102 49.7568 64.0926 49.5084 64.0263C49.2599 63.96 49.0002 63.9463 48.7461 63.9862C47.2227 64.2681 46.0742 66.7973 45.9005 68.1598C45.8847 68.2772 45.8611 70.1448 45.8887 70.137Z" fill="black"/>
</g>
<path d="M130.683 117.945C130.734 130.212 140.573 140.117 140.573 140.117C140.573 140.117 150.329 130.129 150.274 117.863C150.219 105.597 140.403 95.6914 140.403 95.6914C140.403 95.6914 130.628 105.679 130.683 117.945Z" fill="#407BFF"/>
<path d="M140.573 140.117L140.384 95.6914" stroke="#F2F2F2" stroke-width="0.910297" stroke-miterlimit="10"/>
<path d="M140.451 111.481L134.945 106.756" stroke="#F2F2F2" stroke-width="0.910297" stroke-miterlimit="10"/>
<path d="M140.569 118.822L147.318 109.034" stroke="#F2F2F2" stroke-width="0.910297" stroke-miterlimit="10"/>
<path d="M140.502 123.054L132.372 115.921" stroke="#F2F2F2" stroke-width="0.910297" stroke-miterlimit="10"/>
<path d="M140.613 128.755L148.593 121.637" stroke="#F2F2F2" stroke-width="0.910297" stroke-miterlimit="10"/>
<path d="M140.633 133.677L134.346 128.783" stroke="#F2F2F2" stroke-width="0.910297" stroke-miterlimit="10"/>
<path d="M123.978 136.879C128.757 142.196 136.852 142.752 136.852 142.752C136.852 142.752 137.211 134.698 132.431 129.397C127.652 124.096 119.542 123.556 119.542 123.556C119.542 123.556 119.198 131.594 123.978 136.879Z" fill="#407BFF"/>
<path d="M136.868 142.736L119.558 123.54" stroke="#F2F2F2" stroke-width="0.910297" stroke-miterlimit="10"/>
<path d="M125.71 130.36L121.487 130.411" stroke="#F2F2F2" stroke-width="0.910297" stroke-miterlimit="10"/>
<path d="M128.608 133.5L127.739 126.68" stroke="#F2F2F2" stroke-width="0.910297" stroke-miterlimit="10"/>
<path d="M130.218 135.364L123.927 135.372" stroke="#F2F2F2" stroke-width="0.910297" stroke-miterlimit="10"/>
<path d="M132.479 137.791L133.182 131.66" stroke="#F2F2F2" stroke-width="0.910297" stroke-miterlimit="10"/>
<path d="M134.397 139.921L129.771 140.196" stroke="#F2F2F2" stroke-width="0.910297" stroke-miterlimit="10"/>
<path d="M148.905 129.123C143.932 134.248 143.995 142.309 143.995 142.309C143.995 142.309 152.117 142.063 157.09 136.938C162.063 131.813 162 123.751 162 123.751C162 123.751 153.878 123.998 148.905 129.123Z" fill="#407BFF"/>
<path d="M143.995 142.309L162 123.751" stroke="#F2F2F2" stroke-width="0.910297" stroke-miterlimit="10"/>
<path d="M155.603 130.348L155.235 126.175" stroke="#F2F2F2" stroke-width="0.910297" stroke-miterlimit="10"/>
<path d="M152.662 133.449L159.454 132.083" stroke="#F2F2F2" stroke-width="0.910297" stroke-miterlimit="10"/>
<path d="M150.91 135.184L150.432 128.958" stroke="#F2F2F2" stroke-width="0.910297" stroke-miterlimit="10"/>
<path d="M148.637 137.6L154.853 137.835" stroke="#F2F2F2" stroke-width="0.910297" stroke-miterlimit="10"/>
<path d="M146.64 139.655L146.016 135.098" stroke="#F2F2F2" stroke-width="0.910297" stroke-miterlimit="10"/>
<g opacity="0.1">
<path d="M130.683 117.945C130.734 130.212 140.573 140.117 140.573 140.117C140.573 140.117 150.329 130.129 150.274 117.863C150.219 105.597 140.403 95.6914 140.403 95.6914C140.403 95.6914 130.628 105.679 130.683 117.945Z" fill="black"/>
<path d="M123.978 136.879C128.757 142.196 136.852 142.752 136.852 142.752C136.852 142.752 137.211 134.698 132.431 129.397C127.652 124.096 119.542 123.556 119.542 123.556C119.542 123.556 119.198 131.594 123.978 136.879Z" fill="black"/>
<path d="M148.905 129.123C143.932 134.248 143.995 142.309 143.995 142.309C143.995 142.309 152.117 142.063 157.09 136.938C162.063 131.813 162 123.751 162 123.751C162 123.751 153.878 123.998 148.905 129.123Z" fill="black"/>
</g>
<path d="M133.485 17.7715H36.1289V142.083H133.485V17.7715Z" fill="#F2F2F2" stroke="#263238" stroke-width="0.987488" stroke-linecap="round" stroke-linejoin="round"/>
<g style="mix-blend-mode:multiply">
<path d="M51.659 17.7715H36.1289V142.083H51.659V17.7715Z" fill="#407BFF"/>
</g>
<path d="M111.854 36.1377H81.9971V39.6222H111.854V36.1377Z" fill="#407BFF" stroke="#263238" stroke-width="0.987488" stroke-linecap="round" stroke-linejoin="round"/>
<path d="M130.221 65.8267H48.3789V69.3112H130.221V65.8267Z" fill="#407BFF"/>
<path d="M130.221 113.717H48.3789V117.201H130.221V113.717Z" fill="#407BFF"/>
<path d="M100.815 42.1396H81.9971V45.6242H100.815V42.1396Z" fill="#407BFF" stroke="#263238" stroke-width="0.987488" stroke-linecap="round" stroke-linejoin="round"/>
<path d="M100.815 48.0166H81.9971V51.5011H100.815V48.0166Z" fill="#407BFF" stroke="#263238" stroke-width="0.987488" stroke-linecap="round" stroke-linejoin="round"/>
<path d="M79.4085 73.1479H77.4707V75.0703H79.4085V73.1479Z" fill="#407BFF" stroke="#263238" stroke-width="0.987488" stroke-linecap="round" stroke-linejoin="round"/>
<path d="M79.4085 97.8726H77.4707V99.7949H79.4085V97.8726Z" fill="#407BFF" stroke="#263238" stroke-width="0.987488" stroke-linecap="round" stroke-linejoin="round"/>
<path d="M106.754 73.1479H104.816V75.0703H106.754V73.1479Z" fill="#407BFF" stroke="#263238" stroke-width="0.987488" stroke-linecap="round" stroke-linejoin="round"/>
<path d="M106.754 97.8726H104.816V99.7949H106.754V97.8726Z" fill="#407BFF" stroke="#263238" stroke-width="0.987488" stroke-linecap="round" stroke-linejoin="round"/>
<path d="M133.485 17.7715H36.1289V24.0945H133.485V17.7715Z" fill="#263238" stroke="#263238" stroke-width="0.987488" stroke-linecap="round" stroke-linejoin="round"/>
<path d="M99.686 74.483H82.5496C82.4031 74.483 82.2625 74.4252 82.1589 74.3224C82.0553 74.2196 81.9971 74.0802 81.9971 73.9348C81.9971 73.7895 82.0553 73.6501 82.1589 73.5473C82.2625 73.4445 82.4031 73.3867 82.5496 73.3867H99.686C99.8326 73.3867 99.9731 73.4445 100.077 73.5473C100.18 73.6501 100.239 73.7895 100.239 73.9348C100.239 74.0802 100.18 74.2196 100.077 74.3224C99.9731 74.4252 99.8326 74.483 99.686 74.483Z" fill="#263238"/>
<path d="M99.686 77.2276H82.5496C82.4027 77.2266 82.2622 77.168 82.1587 77.0645C82.0552 76.9611 81.9971 76.8213 81.9971 76.6756C81.9971 76.5302 82.0553 76.3908 82.1589 76.288C82.2625 76.1852 82.4031 76.1274 82.5496 76.1274H99.686C99.8326 76.1274 99.9731 76.1852 100.077 76.288C100.18 76.3908 100.239 76.5302 100.239 76.6756C100.239 76.8213 100.18 76.9611 100.077 77.0645C99.9734 77.168 99.8329 77.2266 99.686 77.2276Z" fill="#263238"/>
<path d="M99.686 79.9683H82.5496C82.4031 79.9683 82.2625 79.9106 82.1589 79.8078C82.0553 79.705 81.9971 79.5656 81.9971 79.4202C81.9971 79.2748 82.0553 79.1354 82.1589 79.0326C82.2625 78.9298 82.4031 78.8721 82.5496 78.8721H99.686C99.8326 78.8721 99.9731 78.9298 100.077 79.0326C100.18 79.1354 100.239 79.2748 100.239 79.4202C100.239 79.5656 100.18 79.705 100.077 79.8078C99.9731 79.9106 99.8326 79.9683 99.686 79.9683Z" fill="#263238"/>
<path d="M99.686 82.7086H82.5496C82.4031 82.7086 82.2625 82.6508 82.1589 82.548C82.0553 82.4452 81.9971 82.3058 81.9971 82.1604C81.9971 82.0151 82.0553 81.8756 82.1589 81.7729C82.2625 81.6701 82.4031 81.6123 82.5496 81.6123H99.686C99.8326 81.6123 99.9731 81.6701 100.077 81.7729C100.18 81.8756 100.239 82.0151 100.239 82.1604C100.239 82.3058 100.18 82.4452 100.077 82.548C99.9731 82.6508 99.8326 82.7086 99.686 82.7086Z" fill="#263238"/>
<path d="M99.686 85.4498H82.5496C82.4031 85.4498 82.2625 85.392 82.1589 85.2892C82.0553 85.1864 81.9971 85.047 81.9971 84.9016C81.9971 84.7563 82.0553 84.6169 82.1589 84.5141C82.2625 84.4113 82.4031 84.3535 82.5496 84.3535H99.686C99.8326 84.3535 99.9731 84.4113 100.077 84.5141C100.18 84.6169 100.239 84.7563 100.239 84.9016C100.239 85.047 100.18 85.1864 100.077 85.2892C99.9731 85.392 99.8326 85.4498 99.686 85.4498Z" fill="#263238"/>
<path d="M125.608 74.483H108.471C108.325 74.483 108.184 74.4252 108.081 74.3224C107.977 74.2196 107.919 74.0802 107.919 73.9348C107.919 73.7895 107.977 73.6501 108.081 73.5473C108.184 73.4445 108.325 73.3867 108.471 73.3867H125.608C125.754 73.3867 125.895 73.4445 125.999 73.5473C126.102 73.6501 126.16 73.7895 126.16 73.9348C126.16 74.0802 126.102 74.2196 125.999 74.3224C125.895 74.4252 125.754 74.483 125.608 74.483Z" fill="#263238"/>
<path d="M125.608 77.2276H108.471C108.325 77.2266 108.184 77.168 108.081 77.0645C107.977 76.9611 107.919 76.8213 107.919 76.6756C107.919 76.5302 107.977 76.3908 108.081 76.288C108.184 76.1852 108.325 76.1274 108.471 76.1274H125.608C125.754 76.1274 125.895 76.1852 125.999 76.288C126.102 76.3908 126.16 76.5302 126.16 76.6756C126.16 76.8213 126.102 76.9611 125.999 77.0645C125.895 77.168 125.755 77.2266 125.608 77.2276Z" fill="#263238"/>
<path d="M125.608 79.9683H108.471C108.325 79.9683 108.184 79.9106 108.081 79.8078C107.977 79.705 107.919 79.5656 107.919 79.4202C107.919 79.2748 107.977 79.1354 108.081 79.0326C108.184 78.9298 108.325 78.8721 108.471 78.8721H125.608C125.754 78.8721 125.895 78.9298 125.999 79.0326C126.102 79.1354 126.16 79.2748 126.16 79.4202C126.16 79.5656 126.102 79.705 125.999 79.8078C125.895 79.9106 125.754 79.9683 125.608 79.9683Z" fill="#263238"/>
<path d="M125.608 82.7086H108.471C108.325 82.7086 108.184 82.6508 108.081 82.548C107.977 82.4452 107.919 82.3058 107.919 82.1604C107.919 82.0151 107.977 81.8756 108.081 81.7729C108.184 81.6701 108.325 81.6123 108.471 81.6123H125.608C125.754 81.6123 125.895 81.6701 125.999 81.7729C126.102 81.8756 126.16 82.0151 126.16 82.1604C126.16 82.3058 126.102 82.4452 125.999 82.548C125.895 82.6508 125.754 82.7086 125.608 82.7086Z" fill="#263238"/>
<path d="M125.608 85.4498H108.471C108.325 85.4498 108.184 85.392 108.081 85.2892C107.977 85.1864 107.919 85.047 107.919 84.9016C107.919 84.7563 107.977 84.6169 108.081 84.5141C108.184 84.4113 108.325 84.3535 108.471 84.3535H125.608C125.754 84.3535 125.895 84.4113 125.999 84.5141C126.102 84.6169 126.16 84.7563 126.16 84.9016C126.16 85.047 126.102 85.1864 125.999 85.2892C125.895 85.392 125.754 85.4498 125.608 85.4498Z" fill="#263238"/>
<path d="M99.686 98.7965H82.5496C82.4027 98.7954 82.2622 98.7368 82.1587 98.6334C82.0552 98.53 81.9971 98.3901 81.9971 98.2444C81.9971 98.099 82.0553 97.9596 82.1589 97.8568C82.2625 97.754 82.4031 97.6963 82.5496 97.6963H99.686C99.8326 97.6963 99.9731 97.754 100.077 97.8568C100.18 97.9596 100.239 98.099 100.239 98.2444C100.239 98.3901 100.18 98.53 100.077 98.6334C99.9734 98.7368 99.8329 98.7954 99.686 98.7965Z" fill="#263238"/>
<path d="M99.686 101.537H82.5496C82.4031 101.537 82.2625 101.479 82.1589 101.376C82.0553 101.273 81.9971 101.134 81.9971 100.989C81.9971 100.843 82.0553 100.704 82.1589 100.601C82.2625 100.498 82.4031 100.44 82.5496 100.44H99.686C99.8326 100.44 99.9731 100.498 100.077 100.601C100.18 100.704 100.239 100.843 100.239 100.989C100.239 101.134 100.18 101.273 100.077 101.376C99.9731 101.479 99.8326 101.537 99.686 101.537Z" fill="#263238"/>
<path d="M99.686 104.278H82.5496C82.4031 104.278 82.2625 104.22 82.1589 104.117C82.0553 104.015 81.9971 103.875 81.9971 103.73C81.9971 103.584 82.0553 103.445 82.1589 103.342C82.2625 103.239 82.4031 103.182 82.5496 103.182H99.686C99.8326 103.182 99.9731 103.239 100.077 103.342C100.18 103.445 100.239 103.584 100.239 103.73C100.239 103.875 100.18 104.015 100.077 104.117C99.9731 104.22 99.8326 104.278 99.686 104.278Z" fill="#263238"/>
<path d="M99.686 107.018H82.5496C82.4031 107.018 82.2625 106.96 82.1589 106.858C82.0553 106.755 81.9971 106.615 81.9971 106.47C81.9971 106.325 82.0553 106.185 82.1589 106.082C82.2625 105.98 82.4031 105.922 82.5496 105.922H99.686C99.8326 105.922 99.9731 105.98 100.077 106.082C100.18 106.185 100.239 106.325 100.239 106.47C100.239 106.615 100.18 106.755 100.077 106.858C99.9731 106.96 99.8326 107.018 99.686 107.018Z" fill="#263238"/>
<path d="M99.686 109.763H82.5496C82.4031 109.763 82.2625 109.705 82.1589 109.602C82.0553 109.499 81.9971 109.36 81.9971 109.215C81.9971 109.069 82.0553 108.93 82.1589 108.827C82.2625 108.724 82.4031 108.667 82.5496 108.667H99.686C99.8326 108.667 99.9731 108.724 100.077 108.827C100.18 108.93 100.239 109.069 100.239 109.215C100.239 109.36 100.18 109.499 100.077 109.602C99.9731 109.705 99.8326 109.763 99.686 109.763Z" fill="#263238"/>
<path d="M125.608 98.7965H108.471C108.325 98.7954 108.184 98.7368 108.081 98.6334C107.977 98.53 107.919 98.3901 107.919 98.2444C107.919 98.099 107.977 97.9596 108.081 97.8568C108.184 97.754 108.325 97.6963 108.471 97.6963H125.608C125.754 97.6963 125.895 97.754 125.999 97.8568C126.102 97.9596 126.16 98.099 126.16 98.2444C126.16 98.3901 126.102 98.53 125.999 98.6334C125.895 98.7368 125.755 98.7954 125.608 98.7965Z" fill="#263238"/>
<path d="M125.608 101.537H108.471C108.325 101.537 108.184 101.479 108.081 101.376C107.977 101.273 107.919 101.134 107.919 100.989C107.919 100.843 107.977 100.704 108.081 100.601C108.184 100.498 108.325 100.44 108.471 100.44H125.608C125.754 100.44 125.895 100.498 125.999 100.601C126.102 100.704 126.16 100.843 126.16 100.989C126.16 101.134 126.102 101.273 125.999 101.376C125.895 101.479 125.754 101.537 125.608 101.537Z" fill="#263238"/>
<path d="M125.608 104.278H108.471C108.325 104.278 108.184 104.22 108.081 104.117C107.977 104.015 107.919 103.875 107.919 103.73C107.919 103.584 107.977 103.445 108.081 103.342C108.184 103.239 108.325 103.182 108.471 103.182H125.608C125.754 103.182 125.895 103.239 125.999 103.342C126.102 103.445 126.16 103.584 126.16 103.73C126.16 103.875 126.102 104.015 125.999 104.117C125.895 104.22 125.754 104.278 125.608 104.278Z" fill="#263238"/>
<path d="M125.608 107.018H108.471C108.325 107.018 108.184 106.96 108.081 106.858C107.977 106.755 107.919 106.615 107.919 106.47C107.919 106.325 107.977 106.185 108.081 106.082C108.184 105.98 108.325 105.922 108.471 105.922H125.608C125.754 105.922 125.895 105.98 125.999 106.082C126.102 106.185 126.16 106.325 126.16 106.47C126.16 106.615 126.102 106.755 125.999 106.858C125.895 106.96 125.754 107.018 125.608 107.018Z" fill="#263238"/>
<path d="M125.608 109.763H108.471C108.325 109.763 108.184 109.705 108.081 109.602C107.977 109.499 107.919 109.36 107.919 109.215C107.919 109.069 107.977 108.93 108.081 108.827C108.184 108.724 108.325 108.667 108.471 108.667H125.608C125.754 108.667 125.895 108.724 125.999 108.827C126.102 108.93 126.16 109.069 126.16 109.215C126.16 109.36 126.102 109.499 125.999 109.602C125.895 109.705 125.754 109.763 125.608 109.763Z" fill="#263238"/>
<path d="M125.608 122.276H108.471C108.325 122.276 108.184 122.218 108.081 122.115C107.977 122.013 107.919 121.873 107.919 121.728C107.919 121.582 107.977 121.443 108.081 121.34C108.184 121.237 108.325 121.18 108.471 121.18H125.608C125.754 121.18 125.895 121.237 125.999 121.34C126.102 121.443 126.16 121.582 126.16 121.728C126.16 121.873 126.102 122.013 125.999 122.115C125.895 122.218 125.754 122.276 125.608 122.276Z" fill="#263238"/>
<path d="M125.608 125.016H108.471C108.325 125.016 108.184 124.958 108.081 124.856C107.977 124.753 107.919 124.613 107.919 124.468C107.919 124.323 107.977 124.183 108.081 124.08C108.184 123.978 108.325 123.92 108.471 123.92H125.608C125.754 123.92 125.895 123.978 125.999 124.08C126.102 124.183 126.16 124.323 126.16 124.468C126.16 124.613 126.102 124.753 125.999 124.856C125.895 124.958 125.754 125.016 125.608 125.016Z" fill="#263238"/>
<path d="M125.608 127.761H108.471C108.325 127.761 108.184 127.703 108.081 127.6C107.977 127.497 107.919 127.358 107.919 127.213C107.919 127.067 107.977 126.928 108.081 126.825C108.184 126.722 108.325 126.665 108.471 126.665H125.608C125.754 126.665 125.895 126.722 125.999 126.825C126.102 126.928 126.16 127.067 126.16 127.213C126.16 127.358 126.102 127.497 125.999 127.6C125.895 127.703 125.754 127.761 125.608 127.761Z" fill="#263238"/>
<path d="M125.608 129.405H108.471C108.166 129.405 107.919 129.651 107.919 129.953C107.919 130.256 108.166 130.502 108.471 130.502H125.608C125.913 130.502 126.16 130.256 126.16 129.953C126.16 129.651 125.913 129.405 125.608 129.405Z" fill="#263238"/>
<path d="M125.608 133.242H108.471C108.325 133.242 108.184 133.185 108.081 133.082C107.977 132.979 107.919 132.839 107.919 132.694C107.919 132.549 107.977 132.409 108.081 132.307C108.184 132.204 108.325 132.146 108.471 132.146H125.608C125.754 132.146 125.895 132.204 125.999 132.307C126.102 132.409 126.16 132.549 126.16 132.694C126.16 132.839 126.102 132.979 125.999 133.082C125.895 133.185 125.754 133.242 125.608 133.242Z" fill="#263238"/>
<path d="M123.95 90.3867C123.428 90.3869 122.922 90.5707 122.524 90.9054C122.125 91.2401 121.858 91.7041 121.772 92.2151H119.127C119.031 91.7143 118.761 91.2626 118.365 90.9377C117.969 90.6128 117.471 90.4351 116.957 90.4351C116.443 90.4351 115.945 90.6128 115.548 90.9377C115.152 91.2626 114.883 91.7143 114.786 92.2151H112.142C112.045 91.7143 111.775 91.2626 111.379 90.9377C110.983 90.6128 110.485 90.4351 109.971 90.4351C109.457 90.4351 108.959 90.6128 108.563 90.9377C108.167 91.2626 107.897 91.7143 107.8 92.2151H105.121C105.028 91.7108 104.76 91.2546 104.364 90.9261C103.967 90.5976 103.467 90.4177 102.95 90.4177C102.433 90.4177 101.933 90.5976 101.536 90.9261C101.139 91.2546 100.872 91.7108 100.779 92.2151H98.131C98.0387 91.7108 97.7708 91.2546 97.3741 90.9261C96.9774 90.5976 96.4771 90.4177 95.9604 90.4177C95.4436 90.4177 94.9433 90.5976 94.5466 90.9261C94.1499 91.2546 93.882 91.7108 93.7897 92.2151H91.1415C91.0491 91.7108 90.7813 91.2546 90.3846 90.9261C89.9879 90.5976 89.4875 90.4177 88.9708 90.4177C88.4541 90.4177 87.9538 90.5976 87.5571 90.9261C87.1604 91.2546 86.8925 91.7108 86.8001 92.2151H84.1519C84.0594 91.6731 83.7651 91.1854 83.3272 90.8486C82.8893 90.5117 82.3398 90.3503 81.7877 90.3964C81.2355 90.4424 80.7209 90.6926 80.3459 91.0972C79.9708 91.5019 79.7627 92.0315 79.7627 92.5812C79.7627 93.1309 79.9708 93.6605 80.3459 94.0652C80.7209 94.4698 81.2355 94.7199 81.7877 94.766C82.3398 94.812 82.8893 94.6506 83.3272 94.3138C83.7651 93.977 84.0594 93.4892 84.1519 92.9473H86.8001C86.8925 93.4516 87.1604 93.9078 87.5571 94.2363C87.9538 94.5648 88.4541 94.7447 88.9708 94.7447C89.4875 94.7447 89.9879 94.5648 90.3846 94.2363C90.7813 93.9078 91.0491 93.4516 91.1415 92.9473H93.7897C93.882 93.4516 94.1499 93.9078 94.5466 94.2363C94.9433 94.5648 95.4436 94.7447 95.9604 94.7447C96.4771 94.7447 96.9774 94.5648 97.3741 94.2363C97.7708 93.9078 98.0387 93.4516 98.131 92.9473H100.779C100.872 93.4516 101.139 93.9078 101.536 94.2363C101.933 94.5648 102.433 94.7447 102.95 94.7447C103.467 94.7447 103.967 94.5648 104.364 94.2363C104.76 93.9078 105.028 93.4516 105.121 92.9473H107.769C107.865 93.4481 108.135 93.8998 108.531 94.2247C108.927 94.5495 109.425 94.7273 109.939 94.7273C110.453 94.7273 110.951 94.5495 111.348 94.2247C111.744 93.8998 112.013 93.4481 112.11 92.9473H114.754C114.851 93.4481 115.121 93.8998 115.517 94.2247C115.913 94.5495 116.411 94.7273 116.925 94.7273C117.439 94.7273 117.937 94.5495 118.333 94.2247C118.729 93.8998 118.999 93.4481 119.096 92.9473H121.74C121.811 93.3592 121.999 93.7426 122.282 94.0521C122.565 94.3617 122.931 94.5846 123.337 94.6945C123.744 94.8044 124.173 94.7969 124.576 94.6726C124.978 94.5484 125.336 94.3128 125.608 93.9934C125.879 93.674 126.053 93.2843 126.109 92.8701C126.165 92.4558 126.101 92.0344 125.923 91.6554C125.746 91.2764 125.463 90.9556 125.107 90.7309C124.752 90.5061 124.34 90.3867 123.919 90.3867H123.95Z" fill="#263238"/>
<path d="M72.3985 121.383C71.6615 121.382 70.9408 121.598 70.3276 122.004C69.7144 122.409 69.2363 122.986 68.9537 123.662C68.6711 124.337 68.5967 125.08 68.7401 125.797C68.8834 126.515 69.2379 127.174 69.7588 127.691C70.2797 128.208 70.9435 128.56 71.6663 128.703C72.3891 128.846 73.1384 128.773 73.8194 128.494C74.5004 128.214 75.0825 127.74 75.4921 127.133C75.9016 126.525 76.1202 125.81 76.1202 125.079C76.1208 124.594 76.0249 124.113 75.8381 123.665C75.6513 123.216 75.3772 122.809 75.0316 122.466C74.6859 122.122 74.2755 121.85 73.8237 121.664C73.3719 121.478 72.8876 121.383 72.3985 121.383ZM72.3985 126.919C72.0306 126.92 71.6706 126.812 71.3643 126.61C71.058 126.407 70.8192 126.119 70.678 125.782C70.5368 125.445 70.4997 125.074 70.5713 124.716C70.6428 124.358 70.82 124.029 71.0802 123.771C71.3404 123.513 71.672 123.337 72.0329 123.266C72.3939 123.195 72.768 123.232 73.1078 123.372C73.4476 123.512 73.7379 123.749 73.9418 124.053C74.1458 124.357 74.2543 124.714 74.2535 125.079C74.2524 125.566 74.0567 126.034 73.709 126.379C73.3614 126.724 72.8902 126.918 72.3985 126.919Z" fill="#407BFF" stroke="#263238" stroke-width="0.987488" stroke-linecap="round" stroke-linejoin="round"/>
<path d="M73.5073 126.547L75.2833 127.404C75.7265 126.864 76.0065 126.21 76.0908 125.518C76.1751 124.826 76.0604 124.125 75.7599 123.495C75.4594 122.865 74.9854 122.333 74.3926 121.959C73.7998 121.585 73.1125 121.385 72.4102 121.383V123.235C72.7978 123.239 73.1744 123.363 73.4871 123.591C73.7998 123.818 74.0328 124.137 74.1534 124.502C74.274 124.868 74.2762 125.261 74.1596 125.628C74.043 125.995 73.8135 126.316 73.5034 126.547H73.5073Z" fill="#263238" stroke="#263238" stroke-width="0.987488" stroke-linecap="round" stroke-linejoin="round"/>
<path d="M74.191 133.356H70.639C70.5225 133.356 70.4072 133.334 70.2995 133.29C70.1917 133.246 70.0938 133.182 70.0113 133.1C69.9288 133.019 69.8633 132.922 69.8186 132.815C69.774 132.708 69.751 132.594 69.751 132.479C69.751 132.245 69.8445 132.021 70.0111 131.856C70.1776 131.69 70.4035 131.598 70.639 131.598H74.191C74.4265 131.598 74.6524 131.69 74.8189 131.856C74.9854 132.021 75.079 132.245 75.079 132.479C75.079 132.594 75.056 132.708 75.0113 132.815C74.9666 132.922 74.9012 133.019 74.8186 133.1C74.7361 133.182 74.6382 133.246 74.5305 133.29C74.4228 133.334 74.3074 133.356 74.191 133.356Z" fill="#407BFF" stroke="#263238" stroke-width="0.987488" stroke-linecap="round" stroke-linejoin="round"/>
<path d="M83.501 121.383C82.7642 121.383 82.0439 121.6 81.4312 122.006C80.8185 122.412 80.341 122.989 80.059 123.664C79.777 124.34 79.7032 125.083 79.847 125.8C79.9907 126.517 80.3456 127.175 80.8666 127.692C81.3877 128.209 82.0515 128.561 82.7742 128.704C83.4969 128.846 84.246 128.773 84.9268 128.493C85.6076 128.214 86.1894 127.74 86.5988 127.132C87.0082 126.524 87.2267 125.81 87.2267 125.079C87.2272 124.593 87.1312 124.112 86.9442 123.664C86.7571 123.215 86.4827 122.807 86.1366 122.464C85.7906 122.121 85.3797 121.849 84.9274 121.663C84.4751 121.478 83.9905 121.382 83.501 121.383ZM83.501 126.919C83.1332 126.919 82.7737 126.811 82.4679 126.608C82.1621 126.405 81.9239 126.117 81.7833 125.78C81.6427 125.442 81.6061 125.071 81.6782 124.714C81.7502 124.356 81.9277 124.027 82.188 123.77C82.4484 123.512 82.78 123.336 83.1408 123.266C83.5017 123.195 83.8755 123.232 84.2151 123.372C84.5547 123.512 84.8448 123.749 85.0486 124.053C85.2523 124.357 85.3607 124.714 85.3599 125.079C85.3599 125.321 85.3118 125.56 85.2183 125.784C85.1249 126.007 84.9879 126.21 84.8152 126.381C84.6426 126.552 84.4376 126.688 84.2121 126.78C83.9866 126.872 83.745 126.919 83.501 126.919Z" fill="#407BFF" stroke="#263238" stroke-width="0.987488" stroke-linecap="round" stroke-linejoin="round"/>
<path d="M87.2067 124.691C87.1088 123.787 86.6791 122.95 85.9993 122.34C85.3195 121.73 84.4372 121.389 83.5205 121.383V123.235C84.0101 123.24 84.4778 123.436 84.8222 123.782C85.1665 124.127 85.3597 124.593 85.3597 125.079C85.3556 125.15 85.3477 125.22 85.336 125.29L87.2067 124.691Z" fill="#263238" stroke="#263238" stroke-width="0.987488" stroke-linecap="round" stroke-linejoin="round"/>
<path d="M85.2769 133.356H81.7249C81.6085 133.356 81.4931 133.334 81.3854 133.29C81.2777 133.246 81.1797 133.182 81.0972 133.1C81.0147 133.019 80.9493 132.922 80.9046 132.815C80.8599 132.708 80.8369 132.594 80.8369 132.479C80.8369 132.245 80.9305 132.021 81.097 131.856C81.2635 131.69 81.4894 131.598 81.7249 131.598H85.2769C85.5124 131.598 85.7383 131.69 85.9048 131.856C86.0714 132.021 86.1649 132.245 86.1649 132.479C86.1649 132.594 86.1419 132.708 86.0972 132.815C86.0526 132.922 85.9871 133.019 85.9046 133.1C85.8221 133.182 85.7241 133.246 85.6164 133.29C85.5087 133.334 85.3933 133.356 85.2769 133.356Z" fill="#407BFF" stroke="#263238" stroke-width="0.987488" stroke-linecap="round" stroke-linejoin="round"/>
<path d="M94.67 121.383C93.9331 121.383 93.2128 121.6 92.6001 122.006C91.9874 122.412 91.5099 122.989 91.2279 123.664C90.946 124.34 90.8722 125.083 91.0159 125.8C91.1597 126.517 91.5145 127.175 92.0356 127.692C92.5566 128.209 93.2204 128.561 93.9431 128.704C94.6659 128.846 95.415 128.773 96.0957 128.493C96.7765 128.214 97.3584 127.74 97.7678 127.132C98.1771 126.524 98.3956 125.81 98.3956 125.079C98.3962 124.593 98.3001 124.112 98.1131 123.664C97.9261 123.215 97.6516 122.807 97.3056 122.464C96.9595 122.121 96.5486 121.849 96.0964 121.663C95.6441 121.478 95.1594 121.382 94.67 121.383ZM94.67 126.919C94.3022 126.919 93.9426 126.811 93.6368 126.608C93.3311 126.405 93.0928 126.117 92.9522 125.78C92.8117 125.442 92.7751 125.071 92.8471 124.714C92.9192 124.356 93.0966 124.027 93.357 123.77C93.6173 123.512 93.9489 123.336 94.3098 123.266C94.6706 123.195 95.0445 123.232 95.3841 123.372C95.7237 123.512 96.0137 123.749 96.2175 124.053C96.4213 124.357 96.5296 124.714 96.5289 125.079C96.5289 125.321 96.4808 125.56 96.3873 125.784C96.2938 126.007 96.1568 126.21 95.9842 126.381C95.8115 126.552 95.6066 126.688 95.3811 126.78C95.1555 126.872 94.9139 126.919 94.67 126.919Z" fill="#407BFF" stroke="#263238" stroke-width="0.987488" stroke-linecap="round" stroke-linejoin="round"/>
<path d="M94.69 121.383V123.235C95.0028 123.235 95.3104 123.314 95.5844 123.464C95.8583 123.614 96.0897 123.83 96.2572 124.092C96.4246 124.354 96.5227 124.654 96.5423 124.963C96.5619 125.273 96.5024 125.583 96.3693 125.863C96.2362 126.144 96.0338 126.387 95.7808 126.57C95.5279 126.752 95.2326 126.869 94.9223 126.908C94.612 126.947 94.2967 126.908 94.0057 126.794C93.7146 126.681 93.4572 126.496 93.2573 126.257L91.7812 127.4C92.1766 127.884 92.6888 128.261 93.2703 128.495C93.8517 128.73 94.4835 128.814 95.1068 128.742C95.7302 128.669 96.3248 128.441 96.8355 128.079C97.3461 127.717 97.7562 127.233 98.0276 126.671C98.299 126.11 98.4228 125.489 98.3876 124.868C98.3524 124.246 98.1593 123.643 97.8262 123.116C97.4931 122.588 97.0309 122.152 96.4826 121.849C95.9342 121.546 95.3176 121.386 94.69 121.383Z" fill="#263238" stroke="#263238" stroke-width="0.987488" stroke-linecap="round" stroke-linejoin="round"/>
<path d="M96.4459 133.356H92.8939C92.7774 133.356 92.6621 133.334 92.5543 133.29C92.4466 133.246 92.3487 133.182 92.2662 133.1C92.1837 133.019 92.1182 132.922 92.0735 132.815C92.0289 132.708 92.0059 132.594 92.0059 132.479C92.0053 132.363 92.028 132.248 92.0724 132.141C92.1168 132.034 92.1822 131.936 92.2648 131.855C92.3474 131.773 92.4455 131.708 92.5534 131.664C92.6614 131.62 92.7771 131.597 92.8939 131.598H96.4459C96.6814 131.598 96.9072 131.69 97.0738 131.856C97.2403 132.021 97.3339 132.245 97.3339 132.479C97.3339 132.594 97.3109 132.708 97.2662 132.815C97.2215 132.922 97.1561 133.019 97.0735 133.1C96.991 133.182 96.8931 133.246 96.7854 133.29C96.6777 133.334 96.5623 133.356 96.4459 133.356Z" fill="#407BFF" stroke="#263238" stroke-width="0.987488" stroke-linecap="round" stroke-linejoin="round"/>
<path d="M56.4187 64.4168C65.6257 64.4168 73.0895 57.0126 73.0895 47.8791C73.0895 38.7455 65.6257 31.3413 56.4187 31.3413C47.2118 31.3413 39.748 38.7455 39.748 47.8791C39.748 57.0126 47.2118 64.4168 56.4187 64.4168Z" fill="#F2F2F2"/>
<path d="M61.4702 139.886C61.4702 139.886 63.8777 143.476 63.5462 144.897C63.2146 146.319 61.0992 145.88 60.0968 144.349C59.0943 142.818 56.5448 140.532 57.0065 139.549C57.4683 138.566 60.5704 139.013 61.4702 139.886Z" fill="#F2F2F2" stroke="#263238" stroke-width="1.02307" stroke-linecap="round" stroke-linejoin="round"/>
<path d="M51.1263 139.687C51.1263 139.687 48.2176 143.97 48.6833 145.141C49.149 146.311 50.6566 145.963 51.8091 144.906C52.9615 143.849 55.2624 140.881 55.2624 140.881C55.2624 140.881 53.3285 138.516 51.1263 139.687Z" fill="#F2F2F2" stroke="#263238" stroke-width="1.02307" stroke-linecap="round" stroke-linejoin="round"/>
<path d="M48.6836 145.14C49.4724 145.248 50.2749 145.092 50.9648 144.698C52.2908 144.032 54.6036 141.029 54.6036 141.029" stroke="#263238" stroke-width="0.767303" stroke-linecap="round" stroke-linejoin="round"/>
<path d="M57.8154 140.266C57.8154 140.266 59.0744 142.615 60.4913 143.946C61.9081 145.277 62.6027 145.657 63.5341 144.897" stroke="#263238" stroke-width="0.767303" stroke-linecap="round" stroke-linejoin="round"/>
<path d="M47.0413 86.2363C47.0413 86.2363 44.4957 91.3887 44.6102 93.4951C44.7246 95.6015 45.1904 106.259 45.885 109.771C46.5796 113.282 47.2623 122.029 47.7359 125.525C48.2095 129.022 51.2445 137.212 51.2445 137.212C51.2445 137.212 50.7788 139.087 51.1261 139.671C51.4734 140.254 55.1478 141.217 55.2622 140.865C55.3767 140.513 55.9569 139.459 56.0516 138.406C56.1463 137.353 54.4334 126.113 55.128 123.654C55.8227 121.195 55.9569 104.665 56.0516 102.962C56.1463 101.259 56.0239 98.2638 56.0239 98.2638C56.2303 98.3268 56.451 98.3273 56.6577 98.2653C56.8644 98.2032 57.0478 98.0814 57.1843 97.9153C57.646 97.3281 59.1773 113.243 59.643 116.99C60.1087 120.737 59.0629 121.79 58.7156 124.131C58.3683 126.473 57.5592 134.08 57.5592 135.02C57.5592 135.959 56.5173 138.997 56.979 139.585C57.4408 140.172 58.4235 140.074 58.8261 140.184C60.0338 140.517 60.977 139.996 61.4388 139.878C61.9005 139.761 62.2912 138.066 62.2912 138.066C62.2912 138.066 66.009 127.643 66.7036 123.309C67.3982 118.975 68.5546 110.933 68.3257 106.016C68.0968 101.098 66.7036 91.1382 66.7036 91.1382L66.3563 88.2096L47.0413 86.2363Z" fill="#263238" stroke="#263238" stroke-width="1.02307" stroke-linecap="round" stroke-linejoin="round"/>
<path d="M45.4154 92.1953C45.4154 92.1953 45.1905 95.0847 47.0967 96.9718" stroke="#F2F2F2" stroke-width="0.506629" stroke-linecap="round" stroke-linejoin="round"/>
<path d="M45.5264 96.3062C45.5264 96.3062 46.6472 98.1972 47.993 98.4164" stroke="#F2F2F2" stroke-width="0.506629" stroke-linecap="round" stroke-linejoin="round"/>
<path d="M54.4853 127.925C54.4853 127.925 52.9067 131.66 52.6935 133.7C52.4804 135.74 54.4853 134.945 54.9352 136.303C55.3852 137.662 52.2476 137.552 52.808 137.889C53.3684 138.226 55.0458 138.457 55.0458 138.457" stroke="#F2F2F2" stroke-width="0.511535" stroke-linecap="round" stroke-linejoin="round"/>
<path d="M57.5234 137.212C57.8589 137.098 61.6674 136.429 61.2175 134.381C60.7676 132.334 58.5298 132.228 58.8495 129.851C59.1692 127.475 62.6541 122.26 62.6541 120.788C62.6541 119.316 60.1914 113.831 59.9664 110.432" stroke="#F2F2F2" stroke-width="0.511535" stroke-linecap="round" stroke-linejoin="round"/>
<path d="M62.9977 91.9756C62.9977 91.9756 60.4205 95.6402 60.0851 96.1962C59.7496 96.7521 63.1082 93.7531 63.1082 93.7531" stroke="#F2F2F2" stroke-width="0.506629" stroke-linecap="round" stroke-linejoin="round"/>
<path d="M56.2568 90.6797C56.2568 90.6797 56.5374 93.3577 56.5374 93.9097V96.9597" stroke="#F2F2F2" stroke-width="0.506629" stroke-linecap="round" stroke-linejoin="round"/>
<path d="M56.5371 95.2999C56.5371 95.2999 57.7487 95.1159 58.025 94.1919C58.3013 93.2679 58.2144 91.4199 58.2144 91.4199" stroke="#F2F2F2" stroke-width="0.506629" stroke-linecap="round" stroke-linejoin="round"/>
<path d="M79.9212 58.9043C78.532 54.8834 78.2991 52.7026 78.1847 51.5555C78.0702 50.4083 76.7954 50.7489 76.7954 50.7489C76.7954 50.7489 74.0328 52.3581 74.0328 52.7065C74.0328 53.055 75.3076 61.551 75.5365 63.0426C75.6755 63.9172 75.7533 64.8002 75.7693 65.6854C75.7693 65.6854 70.907 60.5173 69.6322 59.2527C68.6614 58.2857 67.8918 57.4596 67.0669 56.9663C66.6209 56.5747 65.8474 56.4299 64.6555 56.0384C62.5717 55.3493 60.3734 53.7402 57.8238 53.8537C56.15 53.9677 54.5069 54.3567 52.9615 55.0048C52.9615 55.0048 49.2596 56.7274 46.71 57.8746C46.4131 58.0061 46.1313 58.1689 45.8694 58.3601C45.451 58.3092 44.5788 58.5323 43.5843 60.7444C42.199 63.8453 35.9475 72.0006 34.9016 74.8704C33.8557 77.7403 36.058 80.614 38.4891 82.9083C40.2432 84.6194 41.9044 86.4216 43.4659 88.3074L46.2285 84.9325C46.3067 85.6834 46.4386 86.4279 46.6232 87.1602C46.9705 88.3074 48.1269 89.572 52.7603 89.9009C57.3936 90.2297 67.801 90.864 67.4616 88.5227C66.984 85.1948 67.2287 74.5102 66.9998 71.6404C66.932 69.7996 66.9703 67.9565 67.1143 66.12C67.6471 66.7895 68.6929 68.0306 69.4231 68.52C70.465 69.2091 74.8695 72.4352 76.606 73.1321C78.3425 73.829 80.7737 72.674 81.8156 70.3915C82.8575 68.1089 81.3104 62.9252 79.9212 58.9043ZM42.1832 77.9673C41.7175 76.1311 41.4886 75.4421 41.4886 75.4421C41.4886 75.4421 44.4565 72.2707 45.8852 70.5794C46.0786 75.1171 46.2009 80.0816 46.0667 80.8098C45.9614 82.0307 45.9892 83.2594 46.1496 84.4744C45.376 83.4212 42.5779 79.5491 42.1832 77.9673Z" fill="#407BFF" stroke="#263238" stroke-width="1.01326" stroke-linecap="round" stroke-linejoin="round"/>
<path opacity="0.1" d="M79.9212 58.9043C78.532 54.8834 78.2991 52.7026 78.1847 51.5555C78.0702 50.4083 76.7954 50.7489 76.7954 50.7489C76.7954 50.7489 74.0328 52.3581 74.0328 52.7065C74.0328 53.055 75.3076 61.551 75.5365 63.0426C75.6755 63.9172 75.7533 64.8002 75.7693 65.6854C75.7693 65.6854 70.907 60.5173 69.6322 59.2527C68.6614 58.2857 67.8918 57.4596 67.0669 56.9663C66.6209 56.5747 65.8474 56.4299 64.6555 56.0384C62.5717 55.3493 60.3734 53.7402 57.8238 53.8537C56.15 53.9677 54.5069 54.3567 52.9615 55.0048C52.9615 55.0048 49.2596 56.7274 46.71 57.8746C46.4131 58.0061 46.1313 58.1689 45.8694 58.3601C45.451 58.3092 44.5788 58.5323 43.5843 60.7444C42.199 63.8453 35.9475 72.0006 34.9016 74.8704C33.8557 77.7403 36.058 80.614 38.4891 82.9083C40.2432 84.6194 41.9044 86.4216 43.4659 88.3074L46.2285 84.9325C46.3067 85.6834 46.4386 86.4279 46.6232 87.1602C46.9705 88.3074 48.1269 89.572 52.7603 89.9009C57.3936 90.2297 67.801 90.864 67.4616 88.5227C66.984 85.1948 67.2287 74.5102 66.9998 71.6404C66.932 69.7996 66.9703 67.9565 67.1143 66.12C67.6471 66.7895 68.6929 68.0306 69.4231 68.52C70.465 69.2091 74.8695 72.4352 76.606 73.1321C78.3425 73.829 80.7737 72.674 81.8156 70.3915C82.8575 68.1089 81.3104 62.9252 79.9212 58.9043ZM42.1832 77.9673C41.7175 76.1311 41.4886 75.4421 41.4886 75.4421C41.4886 75.4421 44.4565 72.2707 45.8852 70.5794C46.0786 75.1171 46.2009 80.0816 46.0667 80.8098C45.9614 82.0307 45.9892 83.2594 46.1496 84.4744C45.376 83.4212 42.5779 79.5491 42.1832 77.9673Z" fill="black"/>
<path d="M47.3174 70.086C48.0503 68.9947 48.688 67.8434 49.2236 66.6445" stroke="#263238" stroke-width="0.759943" stroke-linecap="round" stroke-linejoin="round"/>
<path d="M50.2302 66.9775C49.9623 67.5314 49.5805 68.0235 49.1094 68.4222" stroke="#263238" stroke-width="0.759943" stroke-linecap="round" stroke-linejoin="round"/>
<path d="M75.7529 65.6816C75.7685 66.3433 75.916 66.9953 76.187 67.6001C76.4579 68.2049 76.8469 68.7505 77.3316 69.2053" stroke="#263238" stroke-width="1.01326" stroke-linecap="round" stroke-linejoin="round"/>
<path d="M76.2117 67.5332C76.1174 68.5781 76.3535 69.6263 76.8874 70.5322" stroke="#263238" stroke-width="1.01326" stroke-linecap="round" stroke-linejoin="round"/>
<path d="M41.4883 75.4422C41.4883 75.4422 40.6358 74.6396 38.5322 74.9881" stroke="#263238" stroke-width="0.759943" stroke-linecap="round" stroke-linejoin="round"/>
<path d="M37.3682 74.5261C37.3682 74.5261 37.9523 73.5982 40.1664 74.2912" stroke="#263238" stroke-width="0.759943" stroke-linecap="round" stroke-linejoin="round"/>
<path d="M69.5769 62.6006C69.1111 62.7141 67.126 66.0734 67.126 66.0734L71.9133 64.8009" stroke="#263238" stroke-width="0.759943" stroke-linecap="round" stroke-linejoin="round"/>
<path d="M55.8303 60.3099C55.8303 60.3099 56.7262 61.5314 58.743 60.9794C60.7597 60.4273 61.4306 58.3131 61.111 56.978C60.7913 55.643 54.0385 56.7549 55.8303 60.3099Z" fill="#F2F2F2" stroke="#263238" stroke-width="1.01326" stroke-linecap="round" stroke-linejoin="round"/>
<path d="M53.9124 52.7028C53.9124 52.7028 52.5587 53.5955 52.3811 54.402C52.2035 55.2085 52.6495 57.7965 53.0086 58.6891C53.3678 59.5818 54.5439 61.6373 54.5439 61.6373C54.5439 61.6373 58.5971 59.3156 58.8852 59.1355C59.1733 58.9554 62.0425 60.5645 62.6701 60.31C63.2976 60.0555 61.1388 54.5899 60.1481 53.431C59.1575 52.2722 55.3529 51.6261 53.9124 52.7028Z" fill="#F2F2F2" stroke="#263238" stroke-width="1.01326" stroke-linecap="round" stroke-linejoin="round"/>
<path d="M53.1826 49.7505C53.1826 49.7505 53.2734 51.1795 53.4549 53.3251C53.6365 55.4706 54.3666 57.1659 55.5506 58.1486C56.7346 59.1313 58.4317 59.6677 58.8816 59.1313C59.3315 58.5949 59.8722 56.3632 59.6709 55.0203C59.4697 53.6774 59.221 50.8232 59.221 50.8232L53.1826 49.7505Z" fill="#F2F2F2" stroke="#263238" stroke-width="1.01326" stroke-linecap="round" stroke-linejoin="round"/>
<g style="mix-blend-mode:multiply" opacity="0.5">
<path d="M59.4973 53.3485C59.3631 52.0996 59.2407 50.8232 59.2407 50.8232L53.1826 49.7505C53.1826 49.7505 53.2734 51.1795 53.4549 53.3251C53.5236 54.3172 53.7542 55.2917 54.1377 56.2106L59.4973 53.3485Z" fill="#407BFF"/>
</g>
<path d="M51.2089 47.6127C51.2089 47.6127 49.8592 46.2737 49.5869 47.4326C49.3145 48.5915 50.3999 50.3847 51.9312 49.9344V48.8656L51.2089 47.6127Z" fill="#F2F2F2" stroke="#263238" stroke-width="1.01326" stroke-linecap="round" stroke-linejoin="round"/>
<path opacity="0.5" d="M51.2089 47.6127C51.2089 47.6127 49.8592 46.2737 49.5869 47.4326C49.3145 48.5915 50.3999 50.3847 51.9312 49.9344V48.8656L51.2089 47.6127Z" fill="#407BFF" stroke="#263238" stroke-width="1.01326" stroke-linecap="round" stroke-linejoin="round"/>
<path d="M50.0254 45.1934C50.0254 45.1934 52.2789 51.1798 54.2601 52.3426C56.2414 53.5054 60.2038 54.5742 61.2852 50.385C62.3666 46.1957 59.4855 40.1076 58.4949 38.3184C57.5043 36.5291 53.8102 35.9967 51.4698 37.782C49.1295 39.5673 48.5967 41.2587 50.0254 45.1934Z" fill="#F2F2F2" stroke="#263238" stroke-width="1.01326" stroke-linecap="round" stroke-linejoin="round"/>
<g style="mix-blend-mode:multiply" opacity="0.5">
<path d="M52.5239 40.1229C53.4803 39.6841 54.5172 39.4442 55.5707 39.4182L57.8163 37.5428C56.3403 36.4153 53.4395 36.2782 51.4819 37.7738C49.1376 39.5631 48.5969 41.2583 50.0375 45.1931C50.0375 45.1931 52.291 51.1794 54.2722 52.3422C54.975 52.7521 55.736 53.0543 56.5297 53.2388C55.5746 52.0173 54.1065 50.0753 53.6408 49.0848C52.9304 47.5735 52.6265 44.4531 51.7108 42.6404C50.7952 40.8277 51.1031 40.8277 52.5239 40.1229Z" fill="#407BFF"/>
</g>
<path d="M57.2439 43.4043C57.2439 43.4043 58.1438 45.0134 57.7846 45.3619C57.6629 45.4661 57.5161 45.5374 57.3585 45.569C57.2009 45.6005 57.0377 45.5912 56.8848 45.542" stroke="#263238" stroke-width="1.01326" stroke-linecap="round" stroke-linejoin="round"/>
<path d="M53.0996 43.1377C53.0996 43.1377 53.2812 42.0649 54.6309 42.0649" stroke="#263238" stroke-width="2.02651" stroke-linecap="round" stroke-linejoin="round"/>
<path d="M53.9121 44.2107C53.9121 44.2107 54.9027 44.657 55.2619 43.6743" stroke="#263238" stroke-width="1.01326" stroke-linecap="round" stroke-linejoin="round"/>
<path d="M58.2344 43.4944C58.2344 43.4944 59.225 43.9407 59.5881 42.958" stroke="#263238" stroke-width="1.01326" stroke-linecap="round" stroke-linejoin="round"/>
<path d="M57.4131 41.4427C57.6536 41.1995 57.9786 41.0564 58.3218 41.0426C58.6649 41.0288 59.0005 41.1453 59.2601 41.3683" stroke="#263238" stroke-width="2.02651" stroke-linecap="round" stroke-linejoin="round"/>
<path d="M61.4707 46.9434C60.4209 46.4892 57.9187 45.4869 57.0821 45.9059C56.0007 46.4423 53.2064 48.3215 53.2064 49.7506C53.2064 49.7506 51.4067 47.3388 51.4067 46.4422C51.4067 45.5457 52.125 45.2677 51.4975 44.1205C50.87 42.9734 49.9623 42.8677 50.2346 41.5287C50.4832 40.2876 52.9736 38.9721 54.1813 38.7881C54.9357 39.4213 55.8966 39.7609 56.8847 39.7434C58.8581 39.7434 60.488 38.4866 60.488 36.9283C60.488 35.3701 58.8738 34.1172 56.8847 34.1172C56.442 34.1152 56.0015 34.1799 55.5784 34.3091C53.6919 34.172 53.3327 35.558 52.0264 36.3176C50.72 37.0771 49.8991 39.3166 49.8991 39.3166H49.9544C48.9993 40.7026 49.0032 42.3744 50.0412 45.1894C50.0412 45.1894 52.2947 51.1757 54.276 52.3385C56.2572 53.5013 60.2197 54.5702 61.301 50.3809C61.5637 49.2543 61.6212 48.0901 61.4707 46.9434Z" fill="#263238" stroke="#263238" stroke-width="1.01326" stroke-linecap="round" stroke-linejoin="round"/>
<path d="M59.3195 46.8535C59.3195 46.8535 57.9698 48.7289 56.4385 47.4799" stroke="#F2F2F2" stroke-width="1.01326" stroke-linecap="round" stroke-linejoin="round"/>
<path d="M46.347 84.7441C46.882 85.079 47.3525 85.506 47.7362 86.0048C48.2065 86.6436 48.7097 87.2578 49.2439 87.845C49.2439 87.845 50.5147 87.9585 50.4002 88.534C50.2858 89.1096 50.0529 89.4502 49.4728 89.4502C48.8926 89.4502 47.6218 88.303 47.6218 88.303L45.7708 91.1729C45.7708 91.1729 44.0343 89.9122 43.4541 88.303L46.347 84.7441Z" fill="#F2F2F2" stroke="#263238" stroke-width="1.01326" stroke-linecap="round" stroke-linejoin="round"/>
<path d="M56.4187 64.4168C65.6257 64.4168 73.0895 57.0126 73.0895 47.8791C73.0895 38.7455 65.6257 31.3413 56.4187 31.3413C47.2118 31.3413 39.748 38.7455 39.748 47.8791C39.748 57.0126 47.2118 64.4168 56.4187 64.4168Z" stroke="#263238" stroke-width="2.02651" stroke-linecap="round" stroke-linejoin="round"/>
<path d="M71.4713 44.6648C71.4713 44.6648 70.311 44.5474 70.0821 45.2364C69.8532 45.9255 69.502 46.6146 69.502 47.0766C69.502 47.5386 69.6164 47.8792 70.1966 47.9927C70.7767 48.1063 71.124 47.3037 71.124 47.3037L71.4713 44.6648Z" fill="#F2F2F2" stroke="#263238" stroke-width="1.01326" stroke-linecap="round" stroke-linejoin="round"/>
<path d="M71.7002 43.8584C71.7002 43.8584 71.124 46.9592 71.124 47.8793C71.1493 48.5868 71.3916 49.2697 71.8186 49.8369C72.0297 50.0743 72.3143 50.2354 72.6277 50.295L73.2079 49.6059C73.2079 49.6059 72.5132 50.526 73.4368 51.6731C74.3603 52.8203 75.0588 52.7067 75.8679 52.3622C76.677 52.0177 76.9098 51.5596 76.5625 50.295C76.2152 49.0304 75.9863 46.9631 75.7535 45.7024C75.5206 44.4418 74.7115 43.9798 74.2498 43.9798C73.788 43.9798 72.5211 43.5139 71.7002 43.8584Z" fill="#F2F2F2" stroke="#263238" stroke-width="1.01326" stroke-linecap="round" stroke-linejoin="round"/>
<path d="M71.2779 48.5249C71.2779 48.5249 71.0726 47.8123 71.9448 47.7105C72.817 47.6087 74.2576 47.4561 74.2576 47.4561" stroke="#263238" stroke-width="0.506629" stroke-linecap="round" stroke-linejoin="round"/>
<path d="M71.3809 46.693C71.3809 46.693 73.3818 46.1801 74.1041 46.2819" stroke="#263238" stroke-width="0.506629" stroke-linecap="round" stroke-linejoin="round"/>
<path d="M71.5342 45.2643C72.2808 45.1323 73.0373 45.064 73.7956 45.0601" stroke="#263238" stroke-width="0.506629" stroke-linecap="round" stroke-linejoin="round"/>
<path d="M72.2012 49.085C72.3595 49.2263 72.5495 49.3281 72.7554 49.3819C72.9613 49.4356 73.1772 49.4399 73.3852 49.3943" stroke="#263238" stroke-width="0.506629" stroke-linecap="round" stroke-linejoin="round"/>
</svg>
