<svg width="10" height="11" viewBox="0 0 10 11" fill="none" xmlns="http://www.w3.org/2000/svg">
<path d="M0.742188 0.685445V2.44901C0.742188 2.57043 0.80809 2.68291 0.915046 2.74351L5.28232 5.22471C5.51265 5.35569 5.51265 5.68293 5.28232 5.81391L0.915046 8.29511C0.80809 8.35592 0.742188 8.46819 0.742188 8.58961V10.3532C0.742188 10.6149 1.03021 10.7787 1.26055 10.6477L9.76843 5.81391C9.99876 5.68293 9.99876 5.35569 9.76843 5.22471L1.26055 0.390737C1.03021 0.259968 0.742188 0.423482 0.742188 0.685445Z" fill="#14279B"/>
<path d="M9.76806 5.22185L1.24195 0.385149C1.20016 0.361321 1.15642 0.350258 1.11268 0.344727L9.33499 5.00888C9.56581 5.13994 9.56581 5.46736 9.33499 5.59842L0.80888 10.4351C0.787227 10.4475 0.764491 10.4547 0.742188 10.4619C0.808881 10.6564 1.04555 10.7593 1.24195 10.6479L9.76806 5.81138C9.9991 5.68033 9.9991 5.35269 9.76806 5.22185Z" fill="#14279B"/>
<path d="M0.742188 0.685445V2.44901C0.742188 2.57043 0.80809 2.68291 0.915046 2.74351L5.28232 5.22471C5.51265 5.35569 5.51265 5.68293 5.28232 5.81391L0.915046 8.29511C0.80809 8.35592 0.742188 8.46819 0.742188 8.58961V10.3532C0.742188 10.6149 1.03021 10.7787 1.26055 10.6477L9.76843 5.81391C9.99876 5.68293 9.99876 5.35569 9.76843 5.22471L1.26055 0.390737C1.03021 0.259968 0.742188 0.423482 0.742188 0.685445Z" fill="#14279B"/>
</svg>
