<svg width="22" height="25" viewBox="0 0 22 25" fill="none" xmlns="http://www.w3.org/2000/svg">
<g clip-path="url(#clip0_254_201)">
<path d="M0.825495 2.05941V5.92552C0.825495 6.19169 0.962626 6.43827 1.18526 6.57112L10.2741 12.0104C10.7534 12.2975 10.7534 13.0149 10.2741 13.3021L1.18526 18.7414C0.962626 18.8747 0.825495 19.1208 0.825495 19.387V23.2531C0.825495 23.8269 1.42494 24.1858 1.90429 23.8987L19.6102 13.3021C20.0896 13.0149 20.0896 12.2975 19.6102 12.0104L1.90429 1.41381C1.42494 1.12667 0.825495 1.4856 0.825495 2.05941Z" fill="#14279B"/>
<path d="M19.4347 11.4841L2.38491 1.0869C2.30132 1.03567 2.2138 1.01189 2.12638 1L18.5687 11.0267C19.0303 11.3085 19.0303 12.0123 18.5687 12.2941L1.51887 22.6913C1.47551 22.7178 1.43004 22.7333 1.38547 22.7489C1.51887 23.1669 1.99207 23.3883 2.38491 23.1486L19.4347 12.7514C19.8968 12.4697 19.8968 11.7658 19.4347 11.4841Z" fill="#14279B"/>
<path d="M1.8472 1.74666V5.61278C1.8472 5.87894 1.98433 6.12553 2.20696 6.25837L11.2958 11.6977C11.7751 11.9848 11.7751 12.7022 11.2958 12.9894L2.20696 18.4287C1.98433 18.562 1.8472 18.8081 1.8472 19.0743V22.9404C1.8472 23.5142 2.44664 23.8731 2.92599 23.586L20.6319 12.9894C21.1113 12.7022 21.1113 11.9848 20.6319 11.6977L2.92599 1.10107C2.44664 0.813925 1.8472 1.17285 1.8472 1.74666Z" stroke="#14279B" stroke-opacity="0.9" stroke-miterlimit="10"/>
</g>
<defs>
<clipPath id="clip0_254_201">
<rect width="25" height="21.1745" fill="white" transform="translate(22) rotate(90)"/>
</clipPath>
</defs>
</svg>
