<svg width="136" height="122" viewBox="0 0 136 122" fill="none" xmlns="http://www.w3.org/2000/svg">
<path d="M96.1736 111H96.1557C90.8387 111 86.5153 107.158 86.5153 102.426C86.5153 100.736 87.0703 99.1615 88.0281 97.8274H87.9654C92.1993 93.229 91.7517 89.4666 87.2672 88.1502H72.3816C70.7077 88.1502 69.3382 86.7894 69.3382 85.1261V71.491C70.0543 69.4275 70.9673 68.6981 72.0414 68.6714C72.5337 68.6625 73.0529 68.796 73.6079 69.0272C75.1654 69.6676 76.9914 71.0107 78.9785 71.7756C86.6407 74.7108 93.2197 67.3017 92.7811 59.6881C92.6826 57.9892 91.9934 56.3171 90.973 54.7695C87.0614 48.828 81.27 48.2676 75.6845 51.6564C72.8381 53.3908 70.5734 54.6983 69.2755 50.6158L69.3471 37.7277C69.3561 36.0645 70.7167 34.7036 72.3905 34.7036H85.4233C91.5727 33.9298 92.7364 29.8206 87.9744 24.6529H88.037C87.0793 23.3188 86.5243 21.7445 86.5243 20.0545C86.5243 15.3227 90.8387 11.4803 96.1646 11.4803H96.1825C101.499 11.4803 105.823 15.3227 105.823 20.0545C105.823 21.7445 105.268 23.3188 104.31 24.6529H104.373C99.6108 29.8206 100.765 33.9387 106.924 34.7036H119.957C121.63 34.7036 123 36.0645 123 37.7277V51.2117C122.024 56.7618 117.996 57.669 112.984 53.1062V53.1685C111.641 52.2168 110.057 51.6653 108.356 51.6653C103.594 51.6653 99.7272 55.9524 99.7272 61.2357C99.7272 66.519 103.594 70.815 108.356 70.815C110.057 70.815 111.641 70.2635 112.984 69.3118V69.5698C118.005 65.0069 122.024 65.9231 123 71.4732V85.1083C123 86.7716 121.63 88.1324 119.957 88.1324H105.071C100.586 89.4488 100.139 93.2112 104.373 97.8096H104.301C105.259 99.1437 105.814 100.718 105.814 102.408C105.805 107.158 101.491 111 96.1736 111Z" fill="#3CD853"/>
<path d="M39.8175 110.511C45.1344 110.511 49.4578 106.668 49.4578 101.937C49.4578 100.247 48.9028 98.6723 47.9451 97.3382H48.2047C43.9708 92.7398 44.4183 88.9774 48.9028 87.661H63.7348C65.4087 87.661 66.7782 86.3002 66.7782 84.6369V71.5532C67.7856 62.8886 71.4308 65.1265 75.7757 67.7939L75.7804 67.7968C75.9119 67.8775 76.0441 67.9587 76.1768 68.0399C87.0972 74.7196 94.3565 58.8965 85.5307 53.4798C81.3813 50.9334 78.6414 52.5348 76.0207 54.0665C74.2657 55.0922 72.5642 56.0866 70.5287 55.7834C68.5684 55.4899 67.2078 53.3819 66.7782 50.1799V37.2474C66.7782 35.5842 65.4087 34.2233 63.7348 34.2233H50.7468C44.5974 33.4495 43.4337 29.3403 48.1957 24.1726H47.9361C48.8939 22.8385 49.4489 21.2642 49.4489 19.5742C49.4578 14.8424 45.1434 11 39.8175 11C34.5005 11 30.1861 14.8424 30.1861 19.5742C30.1861 21.2642 30.7411 22.8385 31.6988 24.1726H31.6362C36.3982 29.3403 35.2435 33.4584 29.0851 34.2233H16.0434C14.3695 34.2233 13 35.5842 13 37.2474V50.7314C13.9757 56.2815 18.0037 57.1887 23.0163 52.6259V52.6882C24.3589 51.7365 25.9433 51.185 27.644 51.185C32.406 51.185 36.2728 55.4721 36.2728 60.7554C36.2728 66.0387 32.406 70.3258 27.644 70.3258C25.9433 70.3258 24.3589 69.7743 23.0163 68.8226V69.0806C18.0037 64.5177 13.9757 65.4339 13 70.984V84.6458C13 86.3091 14.3695 87.6699 16.0434 87.6699H30.929C35.4135 88.9863 35.87 92.7486 31.6272 97.3471H31.6899C30.7411 98.6812 30.1772 100.256 30.1772 101.945C30.1861 106.677 34.5005 110.52 39.8175 110.511Z" fill="#147CFE"/>
<path d="M35.9365 40.5C35.8765 40.685 35.784 40.82 35.659 40.905C35.534 40.99 35.404 41.025 35.269 41.01C35.134 40.99 35.019 40.9225 34.924 40.8075C35.009 40.7425 35.034 40.6725 34.999 40.5975C34.969 40.5175 34.8915 40.4525 34.7665 40.4025C34.6415 40.3475 34.4815 40.3275 34.2865 40.3425C34.0865 40.3525 33.884 40.4175 33.679 40.5375C33.479 40.6575 33.3115 40.83 33.1765 41.055C33.0415 41.28 32.9665 41.56 32.9515 41.895C32.9365 42.24 32.9715 42.52 33.0565 42.735C33.1415 42.95 33.2465 43.115 33.3715 43.23C33.5015 43.34 33.6315 43.42 33.7615 43.47C33.8915 43.515 33.9965 43.545 34.0765 43.56C34.1815 43.58 34.3015 43.595 34.4365 43.605C34.5765 43.61 34.7165 43.6 34.8565 43.575C34.9965 43.55 35.1165 43.5075 35.2165 43.4475C35.3065 43.3925 35.419 43.32 35.554 43.23C35.689 43.135 35.819 43.03 35.944 42.915C36.069 42.8 36.1615 42.6825 36.2215 42.5625C36.3915 42.6775 36.4965 42.84 36.5365 43.05C36.5815 43.26 36.564 43.485 36.484 43.725C36.404 43.965 36.264 44.1925 36.064 44.4075C35.869 44.6175 35.614 44.79 35.299 44.925C34.984 45.055 34.6115 45.115 34.1815 45.105C33.9815 45.1 33.7515 45.0625 33.4915 44.9925C33.2365 44.9225 32.979 44.8125 32.719 44.6625C32.459 44.5075 32.2215 44.305 32.0065 44.055C31.7965 43.8 31.6365 43.485 31.5265 43.11C31.4165 42.735 31.3865 42.2925 31.4365 41.7825C31.4815 41.2975 31.6015 40.88 31.7965 40.53C31.9965 40.18 32.239 39.895 32.524 39.675C32.814 39.45 33.119 39.2825 33.439 39.1725C33.764 39.0575 34.074 38.9975 34.369 38.9925C34.664 38.9825 34.919 39.0275 35.134 39.1275C35.354 39.2275 35.5315 39.3575 35.6665 39.5175C35.8015 39.6725 35.8915 39.84 35.9365 40.02C35.9865 40.195 35.9865 40.355 35.9365 40.5ZM41.2887 42.6225C41.2687 42.6275 41.2387 42.655 41.1987 42.705C41.1637 42.755 41.1387 42.8075 41.1237 42.8625C41.0987 42.9425 41.1062 43.0075 41.1462 43.0575C41.2512 43.1825 41.3862 43.33 41.5512 43.5C41.7162 43.665 41.8812 43.8225 42.0462 43.9725C42.2162 44.1225 42.3612 44.2375 42.4812 44.3175C42.3912 44.5575 42.2487 44.75 42.0537 44.895C41.8637 45.035 41.6512 45.1025 41.4162 45.0975C41.1812 45.0925 40.9512 44.9875 40.7262 44.7825C40.6962 44.7525 40.6387 44.6875 40.5537 44.5875C40.4687 44.4825 40.3712 44.36 40.2612 44.22C40.1512 44.08 40.0412 43.94 39.9312 43.8C39.8212 43.66 39.7262 43.5375 39.6462 43.4325C39.5662 43.3275 39.5162 43.2625 39.4962 43.2375C39.4012 43.1125 39.3112 43.085 39.2262 43.155C39.1412 43.225 39.0887 43.37 39.0687 43.59C39.0587 43.72 39.0587 43.87 39.0687 44.04C39.0837 44.205 39.1037 44.3525 39.1287 44.4825C39.1587 44.6125 39.1887 44.69 39.2187 44.715C39.1137 44.795 38.9837 44.87 38.8287 44.94C38.6737 45.01 38.4962 45.0525 38.2962 45.0675C38.2212 45.0725 38.1337 45.0525 38.0337 45.0075C37.9337 44.9625 37.8462 44.89 37.7712 44.79C37.7012 44.685 37.6637 44.555 37.6587 44.4C37.6587 44.36 37.6562 44.255 37.6512 44.085C37.6512 43.915 37.6487 43.7075 37.6437 43.4625C37.6437 43.2125 37.6437 42.955 37.6437 42.69C37.6437 42.425 37.6412 42.175 37.6362 41.94C37.6362 41.705 37.6362 41.515 37.6362 41.37C37.6362 41.225 37.6362 41.1525 37.6362 41.1525C37.6362 40.8575 37.6287 40.6125 37.6137 40.4175C37.5987 40.2175 37.5387 40.065 37.4337 39.96C37.3387 39.865 37.2662 39.7275 37.2162 39.5475C37.1712 39.3675 37.1512 39.1975 37.1562 39.0375C37.1762 39.0425 37.2362 39.05 37.3362 39.06C37.4362 39.065 37.5337 39.0725 37.6287 39.0825C37.6937 39.0825 37.7862 39.0825 37.9062 39.0825C38.0312 39.0775 38.1637 39.0725 38.3037 39.0675C38.4437 39.0625 38.5737 39.06 38.6937 39.06C38.8137 39.055 38.9037 39.05 38.9637 39.045C39.0087 39.045 39.0912 39.045 39.2112 39.045C39.3362 39.04 39.4812 39.0375 39.6462 39.0375C39.8112 39.0375 39.9787 39.04 40.1487 39.045C40.3187 39.045 40.4762 39.05 40.6212 39.06C40.7662 39.07 40.8787 39.0825 40.9587 39.0975C41.2887 39.1575 41.5437 39.2675 41.7237 39.4275C41.9037 39.5875 42.0312 39.78 42.1062 40.005C42.1862 40.23 42.2337 40.475 42.2487 40.74C42.2587 40.965 42.2337 41.2 42.1737 41.445C42.1137 41.69 42.0112 41.9175 41.8662 42.1275C41.7212 42.3375 41.5287 42.5025 41.2887 42.6225ZM39.0837 41.01C39.0837 41.17 39.1212 41.29 39.1962 41.37C39.2712 41.445 39.3412 41.49 39.4062 41.505C39.4962 41.525 39.6112 41.5275 39.7512 41.5125C39.8912 41.4925 40.0312 41.4575 40.1712 41.4075C40.3112 41.3525 40.4287 41.2825 40.5237 41.1975C40.6237 41.1125 40.6737 41.015 40.6737 40.905C40.6737 40.76 40.6137 40.65 40.4937 40.575C40.3737 40.495 40.2212 40.445 40.0362 40.425C39.8562 40.405 39.6762 40.41 39.4962 40.44C39.3562 40.46 39.2512 40.5225 39.1812 40.6275C39.1112 40.7325 39.0787 40.86 39.0837 41.01ZM49.4565 44.2125C49.4615 44.3125 49.474 44.41 49.494 44.505C49.519 44.6 49.549 44.67 49.584 44.715C49.539 44.76 49.469 44.8125 49.374 44.8725C49.284 44.9325 49.179 44.98 49.059 45.015C48.944 45.055 48.8215 45.0725 48.6915 45.0675C48.4965 45.0575 48.339 44.975 48.219 44.82C48.104 44.665 48.044 44.4725 48.039 44.2425C48.039 44.1975 48.039 44.115 48.039 43.995C48.039 43.87 48.039 43.7375 48.039 43.5975C48.039 43.4575 48.039 43.3425 48.039 43.2525C48.039 43.1675 48.0165 43.085 47.9715 43.005C47.9315 42.925 47.884 42.8775 47.829 42.8625C47.754 42.8375 47.6915 42.8825 47.6415 42.9975C47.6315 43.0225 47.599 43.085 47.544 43.185C47.489 43.28 47.4265 43.3925 47.3565 43.5225C47.2915 43.6525 47.229 43.7825 47.169 43.9125C47.114 44.0425 47.0765 44.155 47.0565 44.25C47.0365 44.34 47.049 44.395 47.094 44.415C47.074 44.465 47.0365 44.5375 46.9815 44.6325C46.9315 44.7275 46.8465 44.81 46.7265 44.88C46.6115 44.945 46.4465 44.97 46.2315 44.955C46.1165 44.945 45.969 44.875 45.789 44.745C45.609 44.615 45.4365 44.3775 45.2715 44.0325C45.1165 43.7025 44.989 43.48 44.889 43.365C44.794 43.245 44.724 43.19 44.679 43.2C44.639 43.205 44.6065 43.2325 44.5815 43.2825C44.5615 43.3325 44.5415 43.4025 44.5215 43.4925C44.5115 43.5375 44.5065 43.6125 44.5065 43.7175C44.5065 43.8225 44.5115 43.94 44.5215 44.07C44.5315 44.2 44.549 44.3225 44.574 44.4375C44.604 44.5525 44.6415 44.64 44.6865 44.7C44.6465 44.725 44.574 44.7675 44.469 44.8275C44.369 44.8875 44.254 44.9425 44.124 44.9925C43.999 45.0375 43.8765 45.06 43.7565 45.06C43.5765 45.055 43.4265 45.0075 43.3065 44.9175C43.1865 44.8225 43.114 44.6375 43.089 44.3625C43.084 44.3175 43.0815 44.19 43.0815 43.98C43.0815 43.77 43.0815 43.505 43.0815 43.185C43.0815 42.865 43.0815 42.5225 43.0815 42.1575C43.0815 41.7875 43.0815 41.4225 43.0815 41.0625C43.0815 40.7025 43.0815 40.3725 43.0815 40.0725C43.0865 39.7725 43.089 39.5325 43.089 39.3525C43.089 39.1725 43.089 39.0825 43.089 39.0825C43.144 39.0725 43.2365 39.07 43.3665 39.075C43.4965 39.08 43.639 39.1 43.794 39.135C43.949 39.17 44.0915 39.2275 44.2215 39.3075C44.3515 39.3825 44.4415 39.49 44.4915 39.63C44.4915 39.63 44.514 39.6775 44.559 39.7725C44.609 39.8625 44.674 39.9825 44.754 40.1325C44.834 40.2775 44.919 40.435 45.009 40.605C45.104 40.775 45.194 40.9425 45.279 41.1075C45.369 41.2725 45.4465 41.4175 45.5115 41.5425C45.5815 41.6675 45.629 41.755 45.654 41.805C45.739 41.95 45.819 42.05 45.894 42.105C45.974 42.16 46.059 42.19 46.149 42.195C46.334 42.195 46.5115 42.0525 46.6815 41.7675C46.7065 41.7225 46.7565 41.6275 46.8315 41.4825C46.9065 41.3325 46.994 41.155 47.094 40.95C47.194 40.745 47.2965 40.535 47.4015 40.32C47.5115 40.105 47.6115 39.905 47.7015 39.72C47.7915 39.53 47.864 39.3775 47.919 39.2625C47.979 39.1425 48.009 39.0825 48.009 39.0825C48.044 39.0775 48.094 39.075 48.159 39.075C48.229 39.07 48.304 39.0725 48.384 39.0825C48.524 39.0925 48.6715 39.12 48.8265 39.165C48.9865 39.21 49.124 39.28 49.239 39.375C49.359 39.47 49.4265 39.5975 49.4415 39.7575C49.4515 39.8425 49.459 39.9825 49.464 40.1775C49.469 40.3675 49.4715 40.595 49.4715 40.86C49.4715 41.12 49.4715 41.3975 49.4715 41.6925C49.4715 41.9875 49.469 42.2775 49.464 42.5625C49.464 42.8475 49.4615 43.11 49.4565 43.35C49.4565 43.59 49.4565 43.7875 49.4565 43.9425C49.4565 44.0925 49.4565 44.1825 49.4565 44.2125Z" fill="#A5CDFF"/>
<path d="M81.4253 39C81.7703 39.045 82.0428 39.155 82.2428 39.33C82.4478 39.505 82.5828 39.7075 82.6478 39.9375C82.7128 40.1675 82.7078 40.3925 82.6328 40.6125C82.6028 40.6975 82.5578 40.8375 82.4978 41.0325C82.4378 41.2225 82.3678 41.445 82.2878 41.7C82.2128 41.955 82.1328 42.2175 82.0478 42.4875C81.9678 42.7575 81.8903 43.0125 81.8153 43.2525C81.7403 43.4925 81.6753 43.695 81.6203 43.86C81.5703 44.025 81.5353 44.13 81.5153 44.175C81.4253 44.38 81.3353 44.54 81.2453 44.655C81.1603 44.77 81.0603 44.855 80.9453 44.91C80.8353 44.96 80.6953 44.9925 80.5253 45.0075C80.4053 45.0175 80.2928 44.9925 80.1878 44.9325C80.0878 44.8675 80.0003 44.79 79.9253 44.7C79.8553 44.61 79.8053 44.535 79.7753 44.475C79.8053 44.445 79.8128 44.385 79.7978 44.295C79.7878 44.205 79.7653 44.1025 79.7303 43.9875C79.6953 43.8675 79.6578 43.755 79.6178 43.65C79.5778 43.54 79.5453 43.455 79.5203 43.395C79.4703 43.27 79.4128 43.19 79.3478 43.155C79.2878 43.115 79.2303 43.0975 79.1753 43.1025C79.1153 43.1075 79.0528 43.1375 78.9878 43.1925C78.9278 43.2475 78.8853 43.325 78.8603 43.425C78.8453 43.49 78.8203 43.5825 78.7853 43.7025C78.7503 43.8175 78.7178 43.9275 78.6878 44.0325C78.6578 44.1325 78.6403 44.195 78.6353 44.22C78.5753 44.43 78.5203 44.585 78.4703 44.685C78.4203 44.78 78.3678 44.845 78.3128 44.88C78.2628 44.91 78.1978 44.9375 78.1178 44.9625C78.0028 44.9825 77.8803 44.98 77.7503 44.955C77.6253 44.93 77.5028 44.89 77.3828 44.835C77.2678 44.775 77.1678 44.7125 77.0828 44.6475C77.0028 44.5825 76.9503 44.525 76.9253 44.475C76.9903 44.42 77.0128 44.35 76.9928 44.265C76.9778 44.18 76.9603 44.1125 76.9403 44.0625C76.8903 43.9325 76.8228 43.7475 76.7378 43.5075C76.6528 43.2675 76.5553 42.9975 76.4453 42.6975C76.3403 42.3925 76.2303 42.0775 76.1153 41.7525C76.0053 41.4225 75.8953 41.105 75.7853 40.8C75.6803 40.49 75.5828 40.2125 75.4928 39.9675C75.4078 39.7225 75.3403 39.5275 75.2903 39.3825C75.2403 39.2325 75.2153 39.1575 75.2153 39.1575C75.2903 39.1475 75.4078 39.1375 75.5678 39.1275C75.7278 39.1125 75.9003 39.1125 76.0853 39.1275C76.2703 39.1375 76.4428 39.175 76.6028 39.24C76.7678 39.305 76.8903 39.41 76.9703 39.555C76.9903 39.585 77.0203 39.67 77.0603 39.81C77.1003 39.945 77.1453 40.105 77.1953 40.29C77.2453 40.47 77.2928 40.6525 77.3378 40.8375C77.3878 41.0175 77.4278 41.1725 77.4578 41.3025C77.4928 41.4325 77.5128 41.51 77.5178 41.535C77.5528 41.66 77.5953 41.755 77.6453 41.82C77.7003 41.88 77.7528 41.915 77.8028 41.925C77.9128 41.95 78.0103 41.86 78.0953 41.655C78.1053 41.635 78.1228 41.57 78.1478 41.46C78.1778 41.345 78.2128 41.2025 78.2528 41.0325C78.2928 40.8625 78.3328 40.685 78.3728 40.5C78.4178 40.31 78.4578 40.13 78.4928 39.96C78.5278 39.79 78.5553 39.6475 78.5753 39.5325C78.6003 39.4125 78.6128 39.3425 78.6128 39.3225C78.6878 39.2625 78.7928 39.23 78.9278 39.225C79.0628 39.22 79.1928 39.245 79.3178 39.3C79.4478 39.35 79.5353 39.4375 79.5803 39.5625C79.5953 39.6075 79.6253 39.7075 79.6703 39.8625C79.7203 40.0175 79.7778 40.2025 79.8428 40.4175C79.9128 40.6275 79.9828 40.845 80.0528 41.07C80.1278 41.29 80.2003 41.49 80.2703 41.67C80.3653 41.92 80.4753 42.05 80.6003 42.06C80.7353 42.07 80.8478 41.94 80.9378 41.67C80.9828 41.53 81.0278 41.3725 81.0728 41.1975C81.1178 41.0175 81.1578 40.835 81.1928 40.65C81.2328 40.465 81.2678 40.2975 81.2978 40.1475C81.3328 39.9925 81.3628 39.8725 81.3878 39.7875C81.4328 39.6125 81.4553 39.4625 81.4553 39.3375C81.4603 39.2125 81.4503 39.1 81.4253 39ZM87.3514 44.0475C87.3564 44.1375 87.3714 44.2325 87.3964 44.3325C87.4264 44.4275 87.4964 44.4975 87.6064 44.5425C87.5414 44.6275 87.4264 44.7225 87.2614 44.8275C87.0964 44.9275 86.9189 44.9925 86.7289 45.0225C86.5539 45.0475 86.4064 45.0275 86.2864 44.9625C86.1714 44.8925 86.0839 44.7925 86.0239 44.6625C85.9689 44.5325 85.9389 44.3925 85.9339 44.2425C85.9339 44.2025 85.9364 44.12 85.9414 43.995C85.9464 43.865 85.9489 43.7175 85.9489 43.5525C85.9489 43.3875 85.9464 43.23 85.9414 43.08C85.9414 42.93 85.9339 42.8125 85.9189 42.7275C85.8889 42.5625 85.8289 42.47 85.7389 42.45C85.6539 42.425 85.5564 42.445 85.4464 42.51C85.2714 42.61 85.1264 42.7875 85.0114 43.0425C84.9014 43.2925 84.8439 43.6125 84.8389 44.0025C84.8339 44.1575 84.8539 44.27 84.8989 44.34C84.9439 44.405 84.9664 44.4375 84.9664 44.4375C84.9664 44.4375 84.9414 44.48 84.8914 44.565C84.8414 44.65 84.7514 44.7425 84.6214 44.8425C84.4914 44.9375 84.3014 45.005 84.0514 45.045C83.9114 45.065 83.7964 45.04 83.7064 44.97C83.6164 44.895 83.5514 44.79 83.5114 44.655C83.4714 44.52 83.4489 44.3775 83.4439 44.2275L83.4214 39.87C83.4164 39.665 83.3939 39.485 83.3539 39.33C83.3139 39.17 83.2939 39.09 83.2939 39.09C83.4189 39.075 83.5639 39.07 83.7289 39.075C83.8989 39.08 84.0639 39.105 84.2239 39.15C84.3889 39.19 84.5289 39.26 84.6439 39.36C84.7589 39.46 84.8264 39.595 84.8464 39.765C84.8514 39.8 84.8564 39.8675 84.8614 39.9675C84.8714 40.0625 84.8764 40.16 84.8764 40.26C84.8714 40.4 84.8914 40.5175 84.9364 40.6125C84.9814 40.7075 85.0414 40.78 85.1164 40.83C85.2014 40.88 85.3089 40.8975 85.4389 40.8825C85.5689 40.8625 85.6839 40.835 85.7839 40.8C85.8839 40.76 85.9664 40.73 86.0314 40.71C86.1014 40.69 86.1739 40.675 86.2489 40.665C86.3339 40.655 86.4339 40.66 86.5489 40.68C86.6639 40.695 86.7764 40.7325 86.8864 40.7925C87.0014 40.8525 87.0989 40.9375 87.1789 41.0475C87.2639 41.1575 87.3164 41.2975 87.3364 41.4675C87.3714 41.7575 87.3789 42.1125 87.3589 42.5325C87.3439 42.9475 87.3414 43.4525 87.3514 44.0475ZM92.202 43.6425C92.207 43.7525 92.2145 43.8875 92.2245 44.0475C92.2395 44.2075 92.272 44.3625 92.322 44.5125C92.372 44.6625 92.452 44.7825 92.562 44.8725C92.437 44.9575 92.3095 45.0175 92.1795 45.0525C92.0495 45.0925 91.922 45.1025 91.797 45.0825C91.762 45.0725 91.7245 45.06 91.6845 45.045C91.6445 45.035 91.5895 45.02 91.5195 45C91.4045 44.965 91.2695 44.9575 91.1145 44.9775C90.9595 44.9975 90.797 45.0225 90.627 45.0525C90.462 45.0875 90.2995 45.105 90.1395 45.105C89.8795 45.105 89.6195 45.06 89.3595 44.97C89.0995 44.875 88.8645 44.73 88.6545 44.535C88.4445 44.34 88.2845 44.0925 88.1745 43.7925C88.0645 43.4925 88.032 43.1325 88.077 42.7125C88.107 42.4225 88.1895 42.1575 88.3245 41.9175C88.4595 41.6725 88.6245 41.4625 88.8195 41.2875C89.0195 41.1075 89.2295 40.97 89.4495 40.875C89.6745 40.775 89.892 40.7275 90.102 40.7325C90.262 40.7375 90.3845 40.7425 90.4695 40.7475C90.5595 40.7525 90.6745 40.765 90.8145 40.785C90.8995 40.795 91.007 40.7825 91.137 40.7475C91.267 40.7125 91.397 40.675 91.527 40.635C91.662 40.59 91.777 40.5675 91.872 40.5675C92.017 40.5625 92.1195 40.5675 92.1795 40.5825C92.2395 40.5925 92.2895 40.6025 92.3295 40.6125C92.2995 40.7025 92.2745 40.8375 92.2545 41.0175C92.2345 41.1975 92.2195 41.4025 92.2095 41.6325C92.2045 41.8575 92.1995 42.0925 92.1945 42.3375C92.1895 42.5825 92.187 42.8175 92.187 43.0425C92.192 43.2675 92.197 43.4675 92.202 43.6425ZM89.382 42.9525C89.392 43.2025 89.437 43.3975 89.517 43.5375C89.602 43.6725 89.702 43.7675 89.817 43.8225C89.937 43.8775 90.052 43.905 90.162 43.905C90.382 43.91 90.5445 43.825 90.6495 43.65C90.7545 43.475 90.8045 43.2325 90.7995 42.9225C90.7995 42.8375 90.7895 42.7375 90.7695 42.6225C90.7545 42.5075 90.7245 42.395 90.6795 42.285C90.6395 42.175 90.582 42.0825 90.507 42.0075C90.437 41.9325 90.3445 41.895 90.2295 41.895C89.9995 41.895 89.797 41.98 89.622 42.15C89.452 42.32 89.372 42.5875 89.382 42.9525ZM96.1201 40.8375C96.1701 40.8875 96.2076 40.98 96.2326 41.115C96.2626 41.245 96.2701 41.39 96.2551 41.55C96.2451 41.705 96.2076 41.8475 96.1426 41.9775C96.0826 42.1025 95.9901 42.1875 95.8651 42.2325C95.6701 42.3025 95.5276 42.4275 95.4376 42.6075C95.3476 42.7875 95.2951 43.015 95.2801 43.29V43.9275C95.2901 44.0075 95.3226 44.0725 95.3776 44.1225C95.4376 44.1725 95.4951 44.2075 95.5501 44.2275C95.6101 44.2475 95.6401 44.2575 95.6401 44.2575C95.6401 44.2575 95.6301 44.2925 95.6101 44.3625C95.5951 44.4325 95.5651 44.515 95.5201 44.61C95.4751 44.705 95.4101 44.7975 95.3251 44.8875C95.2401 44.9725 95.1301 45.0325 94.9951 45.0675C94.9251 45.0825 94.8301 45.085 94.7101 45.075C94.5951 45.07 94.4776 45.0475 94.3576 45.0075C94.2376 44.9675 94.1376 44.9125 94.0576 44.8425C94.0126 44.8025 93.9751 44.76 93.9451 44.715C93.9151 44.67 93.8926 44.6025 93.8776 44.5125C93.8676 44.4225 93.8626 44.295 93.8626 44.13V43.3275C93.8576 43.0375 93.7951 42.7975 93.6751 42.6075C93.5551 42.4125 93.3976 42.245 93.2026 42.105C93.1126 42.04 93.0476 41.935 93.0076 41.79C92.9726 41.64 92.9501 41.4825 92.9401 41.3175C92.9301 41.1525 92.9276 41.0125 92.9326 40.8975C92.9576 40.9025 93.0251 40.9125 93.1351 40.9275C93.2451 40.9425 93.3401 40.95 93.4201 40.95C93.5801 40.945 93.6901 40.8825 93.7501 40.7625C93.8101 40.6425 93.8401 40.4925 93.8401 40.3125L93.8326 39.645C93.8776 39.64 93.9526 39.635 94.0576 39.63C94.1676 39.62 94.2876 39.62 94.4176 39.63C94.5476 39.64 94.6726 39.665 94.7926 39.705C94.9176 39.74 95.0226 39.7975 95.1076 39.8775C95.1976 39.9575 95.2501 40.065 95.2651 40.2C95.2651 40.215 95.2651 40.235 95.2651 40.26C95.2701 40.28 95.2726 40.305 95.2726 40.335H95.2801C95.2801 40.4 95.2876 40.4775 95.3026 40.5675C95.3226 40.6575 95.3501 40.7325 95.3851 40.7925C95.4201 40.8425 95.4751 40.88 95.5501 40.905C95.6251 40.925 95.6976 40.9375 95.7676 40.9425C95.8426 40.9425 95.8976 40.9375 95.9326 40.9275C95.9876 40.9125 96.0276 40.9 96.0526 40.89C96.0776 40.875 96.1001 40.8575 96.1201 40.8375ZM98.5961 40.6425C98.9661 40.6425 99.2811 40.695 99.5411 40.8C99.8061 40.905 100.009 41.035 100.149 41.19C100.289 41.345 100.356 41.4975 100.351 41.6475C100.351 41.7275 100.316 41.8175 100.246 41.9175C100.176 42.0175 100.084 42.1025 99.9686 42.1725C99.8586 42.2375 99.7361 42.2625 99.6011 42.2475C99.6361 42.1575 99.6136 42.0725 99.5336 41.9925C99.4536 41.9125 99.3386 41.8475 99.1886 41.7975C99.0386 41.7425 98.8761 41.7125 98.7011 41.7075C98.5011 41.6975 98.3661 41.72 98.2961 41.775C98.2261 41.825 98.1861 41.88 98.1761 41.94C98.1611 42.005 98.1911 42.0625 98.2661 42.1125C98.3411 42.1575 98.4386 42.2 98.5586 42.24C98.6836 42.275 98.8136 42.3075 98.9486 42.3375C99.0886 42.3625 99.2161 42.385 99.3311 42.405C99.4511 42.425 99.5436 42.445 99.6086 42.465C99.9086 42.555 100.129 42.6725 100.269 42.8175C100.409 42.9575 100.499 43.1075 100.539 43.2675C100.584 43.4275 100.601 43.585 100.591 43.74C100.581 43.99 100.516 44.2 100.396 44.37C100.281 44.535 100.136 44.6675 99.9611 44.7675C99.7911 44.8675 99.6111 44.9425 99.4211 44.9925C99.2361 45.0375 99.0611 45.0675 98.8961 45.0825C98.7361 45.0975 98.6136 45.105 98.5286 45.105C98.2686 45.1 98.0236 45.0725 97.7936 45.0225C97.5686 44.9775 97.3736 44.9175 97.2086 44.8425C97.0486 44.7675 96.9336 44.6875 96.8636 44.6025C96.8136 44.5425 96.7661 44.4575 96.7211 44.3475C96.6761 44.2375 96.6486 44.12 96.6386 43.995C96.6336 43.865 96.6611 43.7425 96.7211 43.6275C96.7811 43.5075 96.8911 43.41 97.0511 43.335C97.0811 43.435 97.1611 43.525 97.2911 43.605C97.4261 43.685 97.5861 43.75 97.7711 43.8C97.9611 43.85 98.1486 43.885 98.3336 43.905C98.5136 43.92 98.6836 43.9175 98.8436 43.8975C99.0036 43.8775 99.0911 43.82 99.1061 43.725C99.1161 43.675 99.0911 43.625 99.0311 43.575C98.9711 43.525 98.8611 43.4825 98.7011 43.4475C98.5311 43.4075 98.3811 43.3775 98.2511 43.3575C98.1261 43.3325 98.0011 43.305 97.8761 43.275C97.6411 43.215 97.4361 43.12 97.2611 42.99C97.0861 42.86 96.9536 42.705 96.8636 42.525C96.7786 42.34 96.7486 42.145 96.7736 41.94C96.8136 41.645 96.9211 41.4025 97.0961 41.2125C97.2761 41.0225 97.4986 40.88 97.7636 40.785C98.0286 40.69 98.3061 40.6425 98.5961 40.6425ZM105.829 43.59C105.889 43.735 105.974 43.875 106.084 44.01C106.194 44.14 106.289 44.2375 106.369 44.3025C106.249 44.5525 106.102 44.735 105.927 44.85C105.782 44.945 105.627 45 105.462 45.015C105.372 45.025 105.269 45.0175 105.154 44.9925C105.039 44.9675 104.919 44.8975 104.794 44.7825C104.674 44.6625 104.554 44.4725 104.434 44.2125C104.399 44.1275 104.322 44.0675 104.202 44.0325C104.082 43.9975 103.954 43.9775 103.819 43.9725C103.684 43.9625 103.574 43.9575 103.489 43.9575C103.404 43.9575 103.299 43.96 103.174 43.965C103.054 43.97 102.944 43.99 102.844 44.025C102.744 44.06 102.684 44.1225 102.664 44.2125C102.644 44.2925 102.642 44.375 102.657 44.46C102.672 44.545 102.704 44.6 102.754 44.625C102.669 44.705 102.584 44.775 102.499 44.835C102.419 44.895 102.337 44.9425 102.252 44.9775C102.147 45.0225 102.037 45.045 101.922 45.045C101.812 45.045 101.687 45.02 101.547 44.97C101.482 44.945 101.414 44.9 101.344 44.835C101.274 44.77 101.227 44.68 101.202 44.565C101.177 44.45 101.197 44.305 101.262 44.13C101.267 44.115 101.292 44.035 101.337 43.89C101.382 43.745 101.439 43.555 101.509 43.32C101.584 43.08 101.664 42.815 101.749 42.525C101.839 42.235 101.929 41.9375 102.019 41.6325C102.114 41.3225 102.204 41.025 102.289 40.74C102.379 40.455 102.459 40.1975 102.529 39.9675C102.599 39.7375 102.654 39.555 102.694 39.42C102.734 39.285 102.754 39.2175 102.754 39.2175C102.799 39.1925 102.882 39.1625 103.002 39.1275C103.127 39.0875 103.259 39.065 103.399 39.06C103.554 39.05 103.704 39.07 103.849 39.12C103.999 39.17 104.114 39.27 104.194 39.42C104.229 39.48 104.282 39.595 104.352 39.765C104.422 39.935 104.504 40.14 104.599 40.38C104.694 40.62 104.794 40.8775 104.899 41.1525C105.004 41.4225 105.107 41.6925 105.207 41.9625C105.312 42.2275 105.407 42.475 105.492 42.705C105.577 42.935 105.649 43.13 105.709 43.29C105.769 43.445 105.809 43.545 105.829 43.59ZM103.467 42.6225C103.597 42.6125 103.672 42.575 103.692 42.51C103.717 42.445 103.732 42.37 103.737 42.285C103.737 42.23 103.727 42.1625 103.707 42.0825C103.692 42.0025 103.667 41.9325 103.632 41.8725C103.602 41.8075 103.562 41.775 103.512 41.775C103.442 41.775 103.364 41.825 103.279 41.925C103.199 42.02 103.154 42.1175 103.144 42.2175C103.129 42.3125 103.137 42.405 103.167 42.495C103.202 42.585 103.302 42.6275 103.467 42.6225ZM109.006 40.665C109.451 40.63 109.826 40.705 110.131 40.89C110.436 41.07 110.668 41.3225 110.828 41.6475C110.988 41.9675 111.071 42.3225 111.076 42.7125C111.086 43.0725 111.033 43.3925 110.918 43.6725C110.803 43.9475 110.646 44.1825 110.446 44.3775C110.246 44.5675 110.021 44.7125 109.771 44.8125C109.526 44.9125 109.273 44.9625 109.013 44.9625C108.958 44.9625 108.886 44.97 108.796 44.985C108.711 44.995 108.641 45.0225 108.586 45.0675C108.551 45.1025 108.526 45.14 108.511 45.18C108.501 45.22 108.498 45.2675 108.503 45.3225C108.513 45.4125 108.533 45.475 108.563 45.51C108.598 45.55 108.628 45.5925 108.653 45.6375C108.598 45.6975 108.521 45.7625 108.421 45.8325C108.321 45.9025 108.198 45.9575 108.053 45.9975C107.913 46.0375 107.746 46.0425 107.551 46.0125C107.431 45.9925 107.326 45.915 107.236 45.78C107.146 45.645 107.098 45.4625 107.093 45.2325L107.071 41.745C107.071 41.465 107.053 41.2375 107.018 41.0625C106.983 40.8825 106.966 40.7925 106.966 40.7925C107.031 40.7725 107.133 40.755 107.273 40.74C107.418 40.725 107.568 40.735 107.723 40.77C107.783 40.785 107.858 40.8025 107.948 40.8225C108.043 40.8375 108.146 40.8375 108.256 40.8225C108.401 40.8075 108.546 40.78 108.691 40.74C108.836 40.695 108.941 40.67 109.006 40.665ZM109.148 43.785C109.308 43.785 109.458 43.7025 109.598 43.5375C109.738 43.3675 109.808 43.13 109.808 42.825C109.808 42.62 109.773 42.4475 109.703 42.3075C109.638 42.1625 109.556 42.055 109.456 41.985C109.356 41.91 109.258 41.8725 109.163 41.8725C109.068 41.8725 108.971 41.88 108.871 41.895C108.776 41.91 108.691 41.9675 108.616 42.0675C108.546 42.1675 108.501 42.345 108.481 42.6C108.456 42.93 108.476 43.18 108.541 43.35C108.611 43.52 108.703 43.635 108.818 43.695C108.933 43.755 109.043 43.785 109.148 43.785ZM113.715 40.665C114.16 40.63 114.535 40.705 114.84 40.89C115.145 41.07 115.378 41.3225 115.538 41.6475C115.698 41.9675 115.78 42.3225 115.785 42.7125C115.795 43.0725 115.743 43.3925 115.628 43.6725C115.513 43.9475 115.355 44.1825 115.155 44.3775C114.955 44.5675 114.73 44.7125 114.48 44.8125C114.235 44.9125 113.983 44.9625 113.723 44.9625C113.668 44.9625 113.595 44.97 113.505 44.985C113.42 44.995 113.35 45.0225 113.295 45.0675C113.26 45.1025 113.235 45.14 113.22 45.18C113.21 45.22 113.208 45.2675 113.213 45.3225C113.223 45.4125 113.243 45.475 113.273 45.51C113.308 45.55 113.338 45.5925 113.363 45.6375C113.308 45.6975 113.23 45.7625 113.13 45.8325C113.03 45.9025 112.908 45.9575 112.763 45.9975C112.623 46.0375 112.455 46.0425 112.26 46.0125C112.14 45.9925 112.035 45.915 111.945 45.78C111.855 45.645 111.808 45.4625 111.803 45.2325L111.78 41.745C111.78 41.465 111.763 41.2375 111.728 41.0625C111.693 40.8825 111.675 40.7925 111.675 40.7925C111.74 40.7725 111.843 40.755 111.983 40.74C112.128 40.725 112.278 40.735 112.433 40.77C112.493 40.785 112.568 40.8025 112.658 40.8225C112.753 40.8375 112.855 40.8375 112.965 40.8225C113.11 40.8075 113.255 40.78 113.4 40.74C113.545 40.695 113.65 40.67 113.715 40.665ZM113.858 43.785C114.018 43.785 114.168 43.7025 114.308 43.5375C114.448 43.3675 114.518 43.13 114.518 42.825C114.518 42.62 114.483 42.4475 114.413 42.3075C114.348 42.1625 114.265 42.055 114.165 41.985C114.065 41.91 113.968 41.8725 113.873 41.8725C113.778 41.8725 113.68 41.88 113.58 41.895C113.485 41.91 113.4 41.9675 113.325 42.0675C113.255 42.1675 113.21 42.345 113.19 42.6C113.165 42.93 113.185 43.18 113.25 43.35C113.32 43.52 113.413 43.635 113.528 43.695C113.643 43.755 113.753 43.785 113.858 43.785Z" fill="#B5F7BE"/>
</svg>
