<svg width="136" height="122" viewBox="0 0 136 122" fill="none" xmlns="http://www.w3.org/2000/svg">
<g clip-path="url(#clip0_521_1600)">
<path d="M86.6083 70.6366H63.396C64.4852 73.4644 67.1014 74.8784 71.2428 74.8784C73.9016 74.8784 75.9927 74.1121 77.5198 72.5749L85.3666 76.7575C82.1828 80.9203 77.4309 83 71.1114 83C65.6626 83 61.2601 81.4842 57.9043 78.4541C54.6355 75.4242 53 71.6067 53 66.9999C53 62.4755 54.6122 58.6777 57.8387 55.6066C61.1076 52.5355 65.2917 51 70.3929 51C75.1428 51 79.0892 52.5355 82.2269 55.6066C85.4089 58.5972 87 62.3933 87 66.9999C87.0003 68.2938 86.8689 69.5055 86.6083 70.6366ZM63.2008 63.8482H77.2574C76.2995 60.6572 73.9885 59.0608 70.3274 59.0608C66.5353 59.0608 64.1585 60.6572 63.2008 63.8482Z" fill="#242528"/>
<path d="M106 60H117.032L123 52H111.965L106 60Z" fill="#FA0505"/>
<path d="M123 82H111.839L106.198 74.5645L100.556 82H89.3957L100.618 67.2434L100.615 67.2393L89 52H100.161L106.194 59.9199L106.198 59.9241L106.201 59.9199L111.781 67.2393L111.777 67.2434L123 82Z" fill="#242528"/>
<path d="M47 67.1011C47 67.1004 46.9998 67.0997 46.9998 67.0989V40H37.3398V53.4913C35.7714 52.0244 32.6409 51.202 29.9999 51.202C20.6111 51.202 13 58.3203 13 67.1011C13 75.8818 20.6111 83 29.9999 83C33.0247 83 35.3428 82.2834 37.3398 80.7068V82.157H46.9998V67.103C46.9998 67.1024 47 67.1016 47 67.1011ZM29.9999 73.7925C26.0483 73.7925 22.8451 70.7965 22.8451 67.1011C22.8451 63.4055 26.0483 60.4095 29.9999 60.4095C33.9514 60.4095 37.1548 63.4055 37.1548 67.1011C37.1548 70.7965 33.9514 73.7925 29.9999 73.7925Z" fill="#242528"/>
</g>
<defs>
<clipPath id="clip0_521_1600">
<rect width="110" height="43" fill="white" transform="translate(13 40)"/>
</clipPath>
</defs>
</svg>
