<svg width="136" height="122" viewBox="0 0 136 122" fill="none" xmlns="http://www.w3.org/2000/svg">
<path d="M88.0735 75.6685L82.769 51.2727C79.9043 38.0979 78.4719 31.5106 75.0135 28.4332C71.9991 25.751 68.0151 24.5539 64.0875 25.1501C59.5811 25.8343 54.9825 30.6095 45.7858 40.16L27.5984 59.0469C18.4017 68.5973 13.8034 73.3727 13.1446 78.0525C12.5704 82.1312 13.7232 86.2684 16.3061 89.3988C19.2694 92.9902 25.6128 94.4776 38.2995 97.4526L61.7918 102.961C73.064 105.605 78.7001 106.926 82.674 105.266C86.1453 103.816 88.8969 100.959 90.2935 97.3539C91.8917 93.2272 90.6191 87.3743 88.0735 75.6685Z" fill="#004499"/>
<path d="M120.074 67.6682L114.769 43.2724C111.904 30.0979 110.472 23.5106 107.013 20.4332C103.999 17.751 100.015 16.5539 96.0873 17.1501C91.5809 17.8343 86.9827 22.6095 77.786 32.1599L59.5983 51.047C50.4016 60.5974 45.8034 65.3728 45.1446 70.0526C44.5703 74.1313 45.7234 78.2685 48.306 81.3989C51.2693 84.9899 57.6129 86.4773 70.2994 89.4522L93.7916 94.9612C105.064 97.6042 110.7 98.9262 114.674 97.2661C118.146 95.8163 120.897 92.9588 122.293 89.354C123.892 85.2273 122.619 79.3744 120.074 67.6682Z" fill="url(#paint0_linear_521_1123)"/>
<defs>
<linearGradient id="paint0_linear_521_1123" x1="123" y1="17.0004" x2="44.6926" y2="17.2987" gradientUnits="userSpaceOnUse">
<stop stop-color="#008BFF"/>
<stop offset="1" stop-color="#0059FF"/>
</linearGradient>
</defs>
</svg>
