<svg width="166" height="160" viewBox="0 0 166 160" fill="none" xmlns="http://www.w3.org/2000/svg">
<path fill-rule="evenodd" clip-rule="evenodd" d="M85.7852 0.0360206C101.496 -0.682995 115.271 9.49381 128.538 18.7928C142.692 28.7146 159.881 37.6645 164.714 55.3621C169.527 72.985 159.777 90.8775 152.791 107.595C146.594 122.426 138.989 136.503 126.876 145.912C114.885 155.225 100.348 161.615 85.7852 159.641C71.9985 157.773 63.7442 142.784 51.4371 135.689C35.8671 126.713 13.2706 129.457 4.4181 112.735C-4.44637 95.9896 1.49371 73.5911 9.39468 56.2707C16.6576 40.3489 32.0889 32.492 45.5382 22.5914C58.3669 13.1476 70.3688 0.741563 85.7852 0.0360206Z" fill="#346DB5"/>
<g clip-path="url(#clip0_641_4932)">
<path fill-rule="evenodd" clip-rule="evenodd" d="M47 80.715C47 99.8559 60.9017 115.772 79.0833 119V91.1934H69.4583V80.5H79.0833V71.9434C79.0833 62.3184 85.285 56.9733 94.0566 56.9733C96.835 56.9733 99.8316 57.4 102.61 57.8267V67.6667H97.6917C92.985 67.6667 91.9167 70.0184 91.9167 73.015V80.5H102.183L100.473 91.1934H91.9167V119C110.098 115.772 124 99.8591 124 80.715C124 59.4213 106.675 42 85.5 42C64.325 42 47 59.4213 47 80.715Z" fill="white"/>
</g>
<defs>
<clipPath id="clip0_641_4932">
<rect width="77" height="77" fill="white" transform="translate(47 42)"/>
</clipPath>
</defs>
</svg>
