<svg width="115" height="115" viewBox="0 0 115 115" fill="none" xmlns="http://www.w3.org/2000/svg">
<circle cx="57.5" cy="57.5" r="57.5" fill="#202123"/>
<path d="M46.3877 19.174C44.6345 19.7297 43.3692 20.7962 42.607 22.3883L42.1191 23.3947V33.9839V44.5731L42.607 45.5794C43.2168 46.8561 44.2229 47.8474 45.5187 48.4482L46.5401 48.9289H57.2878H68.0354L69.0568 48.4482C70.3526 47.8474 71.3587 46.8561 71.9685 45.5794L72.4564 44.5731V33.9839V23.3947L71.938 22.3583C71.2825 21.0365 70.3526 20.1203 69.0568 19.5195L68.0354 19.0388L57.5164 19.0088C49.3147 18.9787 46.8603 19.0238 46.3877 19.174ZM66.9682 22.4784C67.761 22.8389 68.508 23.5599 68.9805 24.416C69.2397 24.8516 69.255 25.6176 69.3007 33.7886C69.3464 42.6054 69.3312 42.6955 69.011 43.4465C68.6452 44.2727 67.6238 45.294 66.77 45.6695C66.3127 45.8798 65.6877 45.9249 63.3095 45.9249C60.4587 45.9249 60.3977 45.9249 59.6355 45.5193C59.1934 45.294 58.5988 44.8284 58.3092 44.4829C57.2725 43.2963 57.2878 43.4465 57.2878 33.9238C57.2878 25.6327 57.303 25.3323 57.6079 24.6714C58.111 23.5599 58.6445 23.0192 59.6355 22.5535C60.5502 22.1179 60.5959 22.1179 63.3857 22.1179C66.023 22.1179 66.2517 22.148 66.9682 22.4784Z" fill="white"/>
<path d="M54.468 56.7995C52.6233 57.2651 51.5562 58.9173 51.9678 60.6897C52.4556 62.8977 54.9405 63.9191 57.1206 62.8226C59.4988 61.636 59.453 58.2565 57.0291 57.0548C56.4498 56.7695 55.1082 56.6343 54.468 56.7995Z" fill="white"/>
<path d="M30 72.4353V87.0048H33.3539H36.7077V81.147V75.2891H42.0434H47.3791L47.3486 72.6155L47.3029 69.957L42.0129 69.9119L36.7077 69.8819V66.5774V63.273H42.4245H48.1414V60.5694V57.8658H39.0707H30V72.4353Z" fill="white"/>
<path d="M70.9321 65.5111C68.4167 66.0518 66.4654 67.3135 64.9866 69.3562C63.5079 71.3839 62.8828 73.5619 62.8828 76.5659C62.8981 78.8339 63.203 80.2458 64.1024 82.0482C64.8342 83.5202 66.5416 85.2475 67.9593 85.9234C71.0998 87.4405 74.7433 87.0349 76.9538 84.9171C77.7923 84.136 77.7618 84.106 77.7313 85.7282C77.6551 88.7172 76.222 90.4295 73.3865 90.9251C71.6029 91.2256 68.5844 90.6998 66.7093 89.7686L65.9928 89.4081L65.8556 89.9038C64.7274 94.0644 64.6665 94.3798 64.9866 94.6051C65.4592 94.9505 67.5782 95.5514 69.2552 95.8067C71.3437 96.1371 75.0025 96.032 76.7251 95.5814C81.573 94.3047 83.7987 91.4358 84.2713 85.8483C84.3628 84.7819 84.439 79.8553 84.4695 74.8686L84.5 65.8265H81.6645H78.8289L78.7222 66.2921C78.6765 66.5475 78.6307 67.0882 78.6307 67.4787C78.6307 67.8542 78.585 68.2297 78.524 68.2748C78.4783 68.3349 78.2344 68.1096 77.9904 67.7791C77.3959 66.9981 76.3288 66.2471 75.2006 65.8265C74.1792 65.466 71.9687 65.3008 70.9321 65.5111ZM75.0787 70.5578C75.9934 70.8282 76.8623 71.6092 77.3197 72.5705C77.6093 73.2014 77.6398 73.5318 77.6398 76.1153C77.6398 79.3296 77.5483 79.7802 76.6794 80.7265C75.5055 82.0182 73.7981 82.3186 72.1822 81.5526C71.2522 81.102 70.7339 80.5162 70.1241 79.2245C69.743 78.4434 69.7125 78.2181 69.7125 76.4908C69.7125 75.0939 69.7887 74.388 69.9869 73.7121C70.5052 72.0749 71.5876 70.9033 72.9444 70.5428C73.9048 70.2875 74.164 70.2875 75.0787 70.5578Z" fill="white"/>
<path d="M52.0598 65.9316C51.9989 65.9767 51.9531 70.7531 51.9531 76.5208V87.0049H55.307H58.6609V76.4157V65.8265H55.4137C53.6148 65.8265 52.1056 65.8715 52.0598 65.9316Z" fill="white"/>
</svg>
