<svg width="1440" height="320" viewBox="0 0 1440 320" fill="none" xmlns="http://www.w3.org/2000/svg">
<path d="M-177 320L-123.033 280C-69.0667 240 38.8667 160 146.8 160C254.733 160 362.667 240 470.6 240C578.533 240 686.467 160 794.4 146.75C902.333 132.5 1010.27 187.5 1118.2 173.25C1226.13 160 1334.07 80 1388.03 40L1442 0V320H1388.03C1334.07 320 1226.13 320 1118.2 320C1010.27 320 902.333 320 794.4 320C686.467 320 578.533 320 470.6 320C362.667 320 254.733 320 146.8 320C38.8667 320 -69.0667 320 -123.033 320H-177Z" fill="#346DB5"/>
</svg>
