<svg width="194" height="141" viewBox="0 0 194 141" fill="none" xmlns="http://www.w3.org/2000/svg">
<g clip-path="url(#clip0_148_1040)">
<path d="M48.9611 79.6212H1.12758C0.828635 79.6209 0.54203 79.5121 0.330642 79.3188C0.119255 79.1254 0.000346772 78.8633 0 78.5899V26.1966C0.000346772 25.9232 0.119255 25.661 0.330642 25.4677C0.54203 25.2743 0.828635 25.1656 1.12758 25.1653H48.9611C49.2601 25.1656 49.5467 25.2743 49.7581 25.4677C49.9694 25.661 50.0884 25.9232 50.0887 26.1966V78.5899C50.0884 78.8633 49.9694 79.1254 49.7581 79.3188C49.5467 79.5121 49.2601 79.6209 48.9611 79.6212ZM1.12758 25.5778C0.948212 25.578 0.776243 25.6433 0.649409 25.7593C0.522575 25.8753 0.451233 26.0326 0.451033 26.1966V78.5899C0.451233 78.7539 0.522575 78.9112 0.649409 79.0272C0.776243 79.1432 0.948212 79.2085 1.12758 79.2087H48.9611C49.1405 79.2085 49.3125 79.1432 49.4393 79.0272C49.5661 78.9112 49.6375 78.7539 49.6377 78.5899V26.1966C49.6375 26.0326 49.5661 25.8753 49.4393 25.7593C49.3125 25.6432 49.1405 25.578 48.9611 25.5778H1.12758Z" fill="#CACACA"/>
<path d="M42.5219 36.304H7.56689V56.1062H42.5219V36.304Z" fill="#3B90FA"/>
<path d="M16.362 63.532H7.56689V68.4825H16.362V63.532Z" fill="#E4E4E4"/>
<path d="M42.5217 63.532H33.7266V68.4825H42.5217V63.532Z" fill="#E4E4E4"/>
<path d="M29.4421 63.532H20.647V68.4825H29.4421V63.532Z" fill="#E4E4E4"/>
<path d="M114.812 54.456H66.9782C66.6792 54.4557 66.3926 54.3469 66.1812 54.1535C65.9698 53.9602 65.8509 53.6981 65.8506 53.4246V1.03136C65.8509 0.757925 65.9698 0.495775 66.1812 0.302425C66.3926 0.109074 66.6792 0.000312823 66.9782 0H114.812C115.111 0.000312823 115.397 0.109074 115.609 0.302425C115.82 0.495775 115.939 0.757925 115.939 1.03136V53.4246C115.939 53.6981 115.82 53.9602 115.609 54.1535C115.397 54.3469 115.111 54.4557 114.812 54.456ZM66.9782 0.412545C66.7988 0.412724 66.6268 0.477979 66.5 0.593991C66.3732 0.710003 66.3018 0.867297 66.3016 1.03136V53.4246C66.3018 53.5887 66.3732 53.746 66.5 53.862C66.6268 53.978 66.7988 54.0433 66.9782 54.0434H114.812C114.991 54.0433 115.163 53.978 115.29 53.862C115.417 53.746 115.488 53.5887 115.488 53.4246V1.03136C115.488 0.867297 115.417 0.710003 115.29 0.593991C115.163 0.477979 114.991 0.412724 114.812 0.412545H66.9782Z" fill="#CACACA"/>
<path d="M115.383 87.6659H67.5499C67.251 87.6656 66.9644 87.5568 66.753 87.3634C66.5416 87.1701 66.4227 86.9079 66.4224 86.6345V71.1641C66.4227 70.8906 66.5416 70.6285 66.753 70.4351C66.9644 70.2418 67.251 70.133 67.5499 70.1327H115.383C115.682 70.133 115.969 70.2418 116.18 70.4351C116.392 70.6285 116.511 70.8906 116.511 71.1641V86.6345C116.511 86.9079 116.392 87.1701 116.18 87.3634C115.969 87.5568 115.682 87.6656 115.383 87.6659ZM67.5499 70.5453C67.3706 70.5454 67.1986 70.6107 67.0718 70.7267C66.9449 70.8427 66.8736 71 66.8734 71.1641V86.6345C66.8736 86.7986 66.9449 86.9559 67.0718 87.0719C67.1986 87.1879 67.3706 87.2531 67.5499 87.2533H115.383C115.563 87.2531 115.735 87.1879 115.862 87.0719C115.988 86.9559 116.06 86.7986 116.06 86.6345V71.1641C116.06 71 115.988 70.8427 115.862 70.7267C115.735 70.6107 115.563 70.5454 115.383 70.5453H67.5499Z" fill="#CACACA"/>
<path d="M105.554 35.1695H76.2365C74.7419 35.1695 73.5303 36.2777 73.5303 37.6448V37.6448C73.5303 39.0118 74.7419 40.12 76.2365 40.12H105.554C107.048 40.12 108.26 39.0118 108.26 37.6448C108.26 36.2777 107.048 35.1695 105.554 35.1695Z" fill="#E4E4E4"/>
<path d="M105.554 43.0079H76.2365C74.7419 43.0079 73.5303 44.1161 73.5303 45.4831V45.4831C73.5303 46.8502 74.7419 47.9584 76.2365 47.9584H105.554C107.048 47.9584 108.26 46.8502 108.26 45.4831C108.26 44.1161 107.048 43.0079 105.554 43.0079Z" fill="#E4E4E4"/>
<path d="M90.895 29.6001C97.8698 29.6001 103.524 24.4284 103.524 18.0489C103.524 11.6693 97.8698 6.49759 90.895 6.49759C83.9203 6.49759 78.2661 11.6693 78.2661 18.0489C78.2661 24.4284 83.9203 29.6001 90.895 29.6001Z" fill="#3B90FA"/>
<path d="M105.11 76.424H92.256C90.7614 76.424 89.5498 77.5322 89.5498 78.8993C89.5498 80.2663 90.7614 81.3746 92.256 81.3746H105.11C106.605 81.3746 107.817 80.2663 107.817 78.8993C107.817 77.5322 106.605 76.424 105.11 76.424Z" fill="#E4E4E4"/>
<path d="M80.0781 83.4373C82.8181 83.4373 85.0394 81.4056 85.0394 78.8993C85.0394 76.393 82.8181 74.3613 80.0781 74.3613C77.338 74.3613 75.1167 76.393 75.1167 78.8993C75.1167 81.4056 77.338 83.4373 80.0781 83.4373Z" fill="#3B90FA"/>
<path d="M168.321 97.37C168.164 97.1641 168.057 96.9292 168.01 96.6818C167.963 96.4343 167.975 96.1804 168.047 95.9379C168.118 95.6954 168.247 95.4701 168.424 95.2781C168.601 95.086 168.822 94.9318 169.071 94.8262L168.407 88.7505L171.479 90.2252L171.638 95.7687C171.805 96.1634 171.807 96.6001 171.644 96.9961C171.482 97.3921 171.166 97.7198 170.757 97.9172C170.348 98.1146 169.874 98.1679 169.425 98.0671C168.976 97.9662 168.583 97.7182 168.321 97.37V97.37Z" fill="#FFB6B6"/>
<path d="M141.42 96.5156C141.263 96.3098 141.157 96.0748 141.109 95.8274C141.062 95.58 141.074 95.3261 141.146 95.0835C141.217 94.841 141.346 94.6158 141.523 94.4237C141.7 94.2316 141.921 94.0774 142.17 93.9719L141.506 87.8961L144.578 89.3708L144.738 94.9144C144.904 95.309 144.906 95.7458 144.743 96.1417C144.581 96.5377 144.265 96.8655 143.856 97.0628C143.447 97.2602 142.974 97.3135 142.525 97.2127C142.075 97.1118 141.683 96.8638 141.42 96.5156V96.5156Z" fill="#FFB6B6"/>
<path d="M161.909 139.385H159.619L158.529 131.305H161.91L161.909 139.385Z" fill="#FFB6B6"/>
<path d="M162.493 141.416L155.108 141.416V141.33C155.108 140.633 155.411 139.964 155.95 139.471C156.489 138.978 157.22 138.701 157.983 138.701H157.983L162.493 138.702L162.493 141.416Z" fill="#2F2E41"/>
<path d="M144.91 139.385H142.619L141.53 131.305H144.91L144.91 139.385Z" fill="#FFB6B6"/>
<path d="M145.494 141.416L138.109 141.416V141.33C138.109 140.633 138.412 139.964 138.951 139.471C139.49 138.978 140.221 138.701 140.983 138.701H140.983L145.494 138.702L145.494 141.416Z" fill="#2F2E41"/>
<path d="M160.26 55.3715C163.191 53.906 164.269 50.5447 162.666 47.8639C161.064 45.183 157.389 44.1978 154.458 45.6633C151.527 47.1287 150.45 50.49 152.052 53.1709C153.655 55.8518 157.329 56.837 160.26 55.3715Z" fill="#FFB8B8"/>
<path d="M144.01 93.6445L142.889 95.2685L140.647 137.558L145.318 137.387L154.658 101.675L158.394 137.729L162.504 137.9L165.839 95.9727L144.01 93.6445Z" fill="#2F2E41"/>
<path d="M168.482 61.6918L160.823 57.9326L152.23 57.42L144.657 61.6918C144.657 61.6918 151.296 79.6332 144.01 90.0562L142.889 95.0115L166.054 96.5493C166.054 96.5493 164.559 74.3362 166.614 71.6023C168.669 68.8683 168.482 61.6918 168.482 61.6918Z" fill="#3F3D56"/>
<path d="M165.839 62.6228L168.482 61.6918C168.482 61.6918 173.153 65.4509 172.966 74.507C172.779 83.5632 171.77 93.6445 171.77 93.6445L168.295 94.1571L166.427 79.4623L163.812 66.647L165.839 62.6228Z" fill="#3F3D56"/>
<path d="M147.4 62.6228L144.757 61.6918C144.757 61.6918 140.087 65.4509 140.274 74.507C140.46 83.5632 141.469 93.6445 141.469 93.6445L144.944 94.1571L146.812 79.4623L149.427 66.647L147.4 62.6228Z" fill="#3F3D56"/>
<path d="M161.732 44.9364C161.202 44.4611 160.568 44.0946 159.871 43.8614C159.174 43.6281 158.431 43.5334 157.691 43.5837C156.39 43.6799 156.305 43.7087 155.135 44.2406C154.407 44.556 153.699 44.9101 153.016 45.3011C153.009 45.047 151.856 44.0748 151.669 44.2631C151.482 44.4513 152.15 45.6743 152.001 45.8886C151.852 46.103 150.502 45.3364 150.361 45.1174C151.404 46.4325 152.78 49.0323 152.45 50.6283C152.678 50.3928 152.977 50.2244 153.31 50.1445C153.643 50.0645 153.994 50.0765 154.319 50.1789C154.644 50.2814 154.929 50.4697 155.137 50.7201C155.346 50.9705 155.468 51.2718 155.489 51.5858C155.563 52.677 154.457 53.8734 155.18 54.744C155.594 55.2421 156.382 55.2835 157.065 55.2806L162.125 54.7647C163.212 53.1802 163.89 51.9235 164.185 50.0726C164.481 48.2217 163.182 46.255 161.732 44.9364Z" fill="#2F2E41"/>
</g>
<defs>
<clipPath id="clip0_148_1040">
<rect width="194" height="141" fill="white"/>
</clipPath>
</defs>
</svg>
