<svg width="234" height="165" viewBox="0 0 234 165" fill="none" xmlns="http://www.w3.org/2000/svg">
<g clip-path="url(#clip0_94_288)">
<path d="M59.501 92.652H2.27358C1.91593 92.6516 1.57304 92.5259 1.32014 92.3025C1.06724 92.079 0.924975 91.776 0.924561 91.46V30.9074C0.924975 30.5914 1.06724 30.2884 1.32014 30.0649C1.57304 29.8415 1.91593 29.7158 2.27358 29.7154H59.501C59.8586 29.7158 60.2015 29.8415 60.4544 30.0649C60.7073 30.2884 60.8496 30.5914 60.85 30.9074V91.46C60.8496 91.776 60.7073 92.079 60.4544 92.3025C60.2015 92.5259 59.8586 92.6516 59.501 92.652ZM2.27358 30.1922C2.05899 30.1924 1.85325 30.2678 1.70151 30.4019C1.54976 30.536 1.46441 30.7178 1.46417 30.9074V91.46C1.46441 91.6496 1.54976 91.8314 1.70151 91.9655C1.85325 92.0996 2.05899 92.175 2.27358 92.1752H59.501C59.7156 92.175 59.9213 92.0996 60.0731 91.9655C60.2248 91.8314 60.3102 91.6496 60.3104 91.46V30.9074C60.3102 30.7178 60.2248 30.536 60.0731 30.4019C59.9213 30.2678 59.7156 30.1924 59.501 30.1922H2.27358Z" fill="#CACACA"/>
<path d="M51.797 42.5888H9.97729V65.4748H51.797V42.5888Z" fill="#3B90FA"/>
<path d="M20.4997 74.0571H9.97729V79.7786H20.4997V74.0571Z" fill="#E4E4E4"/>
<path d="M51.797 74.0571H41.2747V79.7786H51.797V74.0571Z" fill="#E4E4E4"/>
<path d="M36.1484 74.0571H25.626V79.7786H36.1484V74.0571Z" fill="#E4E4E4"/>
<path d="M138.284 63.5677H81.0565C80.6989 63.5673 80.356 63.4416 80.1031 63.2181C79.8502 62.9947 79.7079 62.6917 79.7075 62.3757V1.82302C79.7079 1.50699 79.8502 1.20402 80.1031 0.980557C80.356 0.757096 80.6989 0.631396 81.0565 0.631035H138.284C138.642 0.631396 138.984 0.757096 139.237 0.980557C139.49 1.20402 139.633 1.50699 139.633 1.82302V62.3757C139.633 62.6917 139.49 62.9947 139.237 63.2181C138.984 63.4416 138.642 63.5673 138.284 63.5677ZM81.0565 1.10783C80.8419 1.10803 80.6362 1.18345 80.4845 1.31753C80.3327 1.45161 80.2474 1.6334 80.2471 1.82302V62.3757C80.2474 62.5653 80.3327 62.7471 80.4845 62.8812C80.6362 63.0152 80.8419 63.0907 81.0565 63.0909H138.284C138.499 63.0907 138.704 63.0152 138.856 62.8812C139.008 62.7471 139.093 62.5653 139.093 62.3757V1.82302C139.093 1.6334 139.008 1.45161 138.856 1.31753C138.704 1.18345 138.499 1.10803 138.284 1.10783H81.0565Z" fill="#CACACA"/>
<path d="M138.967 101.949H81.7401C81.3825 101.949 81.0396 101.823 80.7867 101.6C80.5338 101.376 80.3915 101.073 80.3911 100.757V82.8778C80.3915 82.5617 80.5338 82.2588 80.7867 82.0353C81.0396 81.8119 81.3825 81.6862 81.7401 81.6858H138.967C139.325 81.6862 139.668 81.8119 139.921 82.0353C140.174 82.2588 140.316 82.5617 140.316 82.8778V100.757C140.316 101.073 140.174 101.376 139.921 101.6C139.668 101.823 139.325 101.949 138.967 101.949ZM81.7401 82.1626C81.5255 82.1628 81.3198 82.2382 81.1681 82.3723C81.0163 82.5064 80.931 82.6882 80.9307 82.8778V100.757C80.931 100.947 81.0163 101.129 81.1681 101.263C81.3198 101.397 81.5255 101.472 81.7401 101.473H138.967C139.182 101.472 139.388 101.397 139.54 101.263C139.691 101.129 139.777 100.947 139.777 100.757V82.8778C139.777 82.6882 139.691 82.5064 139.54 82.3723C139.388 82.2382 139.182 82.1628 138.967 82.1626H81.7401Z" fill="#CACACA"/>
<path d="M127.208 41.2776H92.1329C90.3448 41.2776 88.8953 42.5584 88.8953 44.1384V44.1384C88.8953 45.7183 90.3448 46.9991 92.1329 46.9991H127.208C128.996 46.9991 130.445 45.7183 130.445 44.1384C130.445 42.5584 128.996 41.2776 127.208 41.2776Z" fill="#E4E4E4"/>
<path d="M127.208 50.3367H92.1329C90.3448 50.3367 88.8953 51.6175 88.8953 53.1974V53.1974C88.8953 54.7774 90.3448 56.0582 92.1329 56.0582H127.208C128.996 56.0582 130.445 54.7774 130.445 53.1974C130.445 51.6175 128.996 50.3367 127.208 50.3367Z" fill="#E4E4E4"/>
<path d="M109.67 34.8409C118.015 34.8409 124.779 28.8638 124.779 21.4907C124.779 14.1176 118.015 8.14052 109.67 8.14052C101.326 8.14052 94.5613 14.1176 94.5613 21.4907C94.5613 28.8638 101.326 34.8409 109.67 34.8409Z" fill="#3B90FA"/>
<path d="M126.677 88.9569H111.298C109.51 88.9569 108.061 90.2377 108.061 91.8176C108.061 93.3976 109.51 94.6784 111.298 94.6784H126.677C128.465 94.6784 129.915 93.3976 129.915 91.8176C129.915 90.2377 128.465 88.9569 126.677 88.9569Z" fill="#E4E4E4"/>
<path d="M96.7287 97.0623C100.007 97.0623 102.664 94.7142 102.664 91.8176C102.664 88.921 100.007 86.5729 96.7287 86.5729C93.4505 86.5729 90.793 88.921 90.793 91.8176C90.793 94.7142 93.4505 97.0623 96.7287 97.0623Z" fill="#3B90FA"/>
<path d="M232.754 164.648H129.958C129.887 164.648 129.818 164.623 129.767 164.578C129.717 164.533 129.688 164.473 129.688 164.409C129.688 164.346 129.717 164.285 129.767 164.241C129.818 164.196 129.887 164.171 129.958 164.171H232.754C232.825 164.171 232.894 164.196 232.945 164.241C232.995 164.285 233.024 164.346 233.024 164.409C233.024 164.473 232.995 164.533 232.945 164.578C232.894 164.623 232.825 164.648 232.754 164.648Z" fill="#CACACA"/>
<path d="M202.301 113.165C202.113 112.927 201.986 112.655 201.929 112.369C201.873 112.083 201.888 111.79 201.973 111.51C202.059 111.229 202.213 110.969 202.425 110.747C202.637 110.525 202.901 110.347 203.199 110.225L202.405 103.203L206.079 104.907L206.27 111.314C206.469 111.77 206.472 112.275 206.277 112.733C206.083 113.19 205.705 113.569 205.216 113.797C204.727 114.025 204.16 114.087 203.623 113.97C203.085 113.854 202.615 113.567 202.301 113.165V113.165Z" fill="#FFB6B6"/>
<path d="M170.117 112.177C169.929 111.939 169.802 111.668 169.746 111.382C169.689 111.096 169.704 110.803 169.789 110.522C169.875 110.242 170.029 109.982 170.241 109.76C170.453 109.538 170.717 109.36 171.015 109.238L170.221 102.216L173.896 103.92L174.086 110.327C174.285 110.783 174.288 111.288 174.093 111.745C173.899 112.203 173.522 112.582 173.032 112.81C172.543 113.038 171.976 113.1 171.439 112.983C170.902 112.866 170.431 112.58 170.117 112.177V112.177Z" fill="#FFB6B6"/>
<path d="M194.631 161.724H191.891L190.587 152.385H194.631L194.631 161.724Z" fill="#FFB6B6"/>
<path d="M195.329 164.07L186.494 164.07V163.971C186.494 163.166 186.857 162.393 187.502 161.823C188.147 161.253 189.021 160.933 189.933 160.933H189.933L195.33 160.933L195.329 164.07Z" fill="#2F2E41"/>
<path d="M174.292 161.724H171.552L170.249 152.385H174.293L174.292 161.724Z" fill="#FFB6B6"/>
<path d="M174.991 164.07L166.156 164.07V163.971C166.156 163.166 166.519 162.393 167.163 161.823C167.808 161.253 168.683 160.933 169.595 160.933H169.595L174.991 160.933L174.991 164.07Z" fill="#2F2E41"/>
<path d="M192.658 64.6258C196.165 62.9321 197.454 59.0473 195.537 55.9489C193.62 52.8506 189.223 51.7119 185.717 53.4056C182.21 55.0993 180.921 58.9841 182.838 62.0824C184.755 65.1808 189.152 66.3195 192.658 64.6258Z" fill="#FFB8B8"/>
<path d="M173.216 108.859L171.875 110.736L169.193 159.612L174.781 159.414L185.956 118.141L190.425 159.809L195.342 160.007L199.332 111.55L173.216 108.859Z" fill="#2F2E41"/>
<path d="M202.494 71.9303L193.331 67.5858L183.05 66.9933L173.99 71.9303C173.99 71.9303 181.933 92.6658 173.216 104.712L171.875 110.439L199.589 112.216C199.589 112.216 197.801 86.5439 200.259 83.3842C202.718 80.2245 202.494 71.9303 202.494 71.9303Z" fill="#3F3D56"/>
<path d="M199.332 73.0064L202.494 71.9303C202.494 71.9303 208.082 76.2749 207.858 86.7414C207.635 97.2078 206.427 108.859 206.427 108.859L202.271 109.452L200.036 92.4683L196.907 77.6573L199.332 73.0064Z" fill="#3F3D56"/>
<path d="M177.273 73.0064L174.11 71.9303C174.11 71.9303 168.523 76.2749 168.746 86.7414C168.97 97.2078 170.177 108.859 170.177 108.859L174.334 109.452L176.569 92.4683L179.698 77.6573L177.273 73.0064Z" fill="#3F3D56"/>
<path d="M194.419 52.5655C193.785 52.0162 193.026 51.5927 192.192 51.3231C191.359 51.0535 190.47 50.9441 189.585 51.0022C188.027 51.1134 187.926 51.1467 186.527 51.7614C185.655 52.1259 184.808 52.5351 183.991 52.987C183.983 52.6934 182.603 51.5698 182.38 51.7874C182.156 52.0049 182.956 53.4183 182.777 53.6661C182.598 53.9138 180.984 53.0278 180.815 52.7748C182.062 54.2946 183.709 57.2993 183.314 59.1439C183.587 58.8717 183.945 58.6771 184.343 58.5847C184.741 58.4923 185.161 58.5061 185.55 58.6245C185.939 58.743 186.28 58.9606 186.529 59.25C186.778 59.5394 186.925 59.8876 186.95 60.2505C187.038 61.5117 185.715 62.8943 186.58 63.9006C187.075 64.4763 188.018 64.5241 188.836 64.5207L194.889 63.9245C196.189 62.0932 197 60.6408 197.354 58.5017C197.708 56.3625 196.154 54.0895 194.419 52.5655Z" fill="#2F2E41"/>
</g>
<defs>
<clipPath id="clip0_94_288">
<rect width="232.099" height="164.017" fill="white" transform="translate(0.924561 0.631035)"/>
</clipPath>
</defs>
</svg>
