<svg width="234" height="165" viewBox="0 0 234 165" fill="none" xmlns="http://www.w3.org/2000/svg">
<g clip-path="url(#clip0_620_4496)">
<path d="M59.5012 92.6519H2.27383C1.91617 92.6516 1.57328 92.5259 1.32038 92.3024C1.06748 92.079 0.92522 91.776 0.924805 91.46V30.9073C0.92522 30.5913 1.06748 30.2883 1.32038 30.0649C1.57328 29.8414 1.91617 29.7157 2.27383 29.7153H59.5012C59.8589 29.7157 60.2018 29.8414 60.4547 30.0649C60.7076 30.2883 60.8498 30.5913 60.8503 30.9073V91.46C60.8498 91.776 60.7076 92.079 60.4547 92.3024C60.2018 92.5259 59.8589 92.6516 59.5012 92.6519ZM2.27383 30.1921C2.05923 30.1923 1.85349 30.2678 1.70175 30.4018C1.55001 30.5359 1.46465 30.7177 1.46441 30.9073V91.46C1.46465 91.6496 1.55001 91.8314 1.70175 91.9654C1.85349 92.0995 2.05923 92.1749 2.27383 92.1751H59.5012C59.7158 92.1749 59.9216 92.0995 60.0733 91.9654C60.2251 91.8314 60.3104 91.6496 60.3106 91.46V30.9073C60.3104 30.7177 60.2251 30.5359 60.0733 30.4018C59.9216 30.2677 59.7158 30.1923 59.5012 30.1921H2.27383Z" fill="#CACACA"/>
<path d="M51.7973 42.5884H9.97754V65.4744H51.7973V42.5884Z" fill="#3B90FA"/>
<path d="M20.4999 74.0571H9.97754V79.7786H20.4999V74.0571Z" fill="#E4E4E4"/>
<path d="M51.7973 74.0571H41.2749V79.7786H51.7973V74.0571Z" fill="#E4E4E4"/>
<path d="M36.1489 74.0571H25.6265V79.7786H36.1489V74.0571Z" fill="#E4E4E4"/>
<path d="M138.284 63.5675H81.057C80.6994 63.5671 80.3565 63.4414 80.1036 63.218C79.8507 62.9945 79.7084 62.6915 79.708 62.3755V1.82284C79.7084 1.50682 79.8507 1.20384 80.1036 0.980382C80.3565 0.75692 80.6994 0.631221 81.057 0.630859H138.284C138.642 0.631221 138.985 0.75692 139.238 0.980382C139.491 1.20384 139.633 1.50682 139.633 1.82284V62.3755C139.633 62.6915 139.491 62.9945 139.238 63.218C138.985 63.4414 138.642 63.5671 138.284 63.5675ZM81.057 1.10765C80.8424 1.10786 80.6367 1.18328 80.4849 1.31735C80.3332 1.45143 80.2479 1.63322 80.2476 1.82284V62.3755C80.2479 62.5651 80.3332 62.7469 80.4849 62.881C80.6367 63.0151 80.8424 63.0905 81.057 63.0907H138.284C138.499 63.0905 138.705 63.0151 138.856 62.881C139.008 62.7469 139.094 62.5651 139.094 62.3755V1.82284C139.094 1.63322 139.008 1.45143 138.856 1.31735C138.705 1.18328 138.499 1.10786 138.284 1.10765H81.057Z" fill="#CACACA"/>
<path d="M138.968 101.949H81.7406C81.383 101.949 81.0401 101.823 80.7872 101.6C80.5343 101.376 80.392 101.073 80.3916 100.757V82.8775C80.392 82.5615 80.5343 82.2585 80.7872 82.0351C81.0401 81.8116 81.383 81.6859 81.7406 81.6855H138.968C139.326 81.6859 139.669 81.8116 139.921 82.0351C140.174 82.2585 140.317 82.5615 140.317 82.8775V100.757C140.317 101.073 140.174 101.376 139.921 101.6C139.669 101.823 139.326 101.949 138.968 101.949ZM81.7406 82.1623C81.526 82.1625 81.3203 82.238 81.1685 82.372C81.0168 82.5061 80.9314 82.6879 80.9312 82.8775V100.757C80.9314 100.947 81.0168 101.129 81.1685 101.263C81.3203 101.397 81.526 101.472 81.7406 101.472H138.968C139.183 101.472 139.388 101.397 139.54 101.263C139.692 101.129 139.777 100.947 139.777 100.757V82.8775C139.777 82.6879 139.692 82.5061 139.54 82.372C139.388 82.238 139.183 82.1625 138.968 82.1623H81.7406Z" fill="#CACACA"/>
<path d="M127.208 41.2773H92.1332C90.3451 41.2773 88.8955 42.5581 88.8955 44.1381V44.1381C88.8955 45.7181 90.3451 46.9989 92.1332 46.9989H127.208C128.996 46.9989 130.445 45.7181 130.445 44.1381C130.445 42.5581 128.996 41.2773 127.208 41.2773Z" fill="#E4E4E4"/>
<path d="M127.208 50.3364H92.1332C90.3451 50.3364 88.8955 51.6172 88.8955 53.1972V53.1972C88.8955 54.7771 90.3451 56.0579 92.1332 56.0579H127.208C128.996 56.0579 130.445 54.7771 130.445 53.1972C130.445 51.6172 128.996 50.3364 127.208 50.3364Z" fill="#E4E4E4"/>
<path d="M109.671 34.8405C118.015 34.8405 124.78 28.8634 124.78 21.4903C124.78 14.1172 118.015 8.14014 109.671 8.14014C101.326 8.14014 94.5615 14.1172 94.5615 21.4903C94.5615 28.8634 101.326 34.8405 109.671 34.8405Z" fill="#3B90FA"/>
<path d="M126.677 88.9565H111.298C109.51 88.9565 108.061 90.2373 108.061 91.8173C108.061 93.3972 109.51 94.678 111.298 94.678H126.677C128.465 94.678 129.915 93.3972 129.915 91.8173C129.915 90.2373 128.465 88.9565 126.677 88.9565Z" fill="#E4E4E4"/>
<path d="M96.7292 97.0622C100.007 97.0622 102.665 94.7141 102.665 91.8175C102.665 88.9209 100.007 86.5728 96.7292 86.5728C93.451 86.5728 90.7935 88.9209 90.7935 91.8175C90.7935 94.7141 93.451 97.0622 96.7292 97.0622Z" fill="#3B90FA"/>
<path d="M232.754 164.648H129.958C129.887 164.648 129.818 164.623 129.767 164.578C129.717 164.533 129.688 164.473 129.688 164.409C129.688 164.346 129.717 164.285 129.767 164.241C129.818 164.196 129.887 164.171 129.958 164.171H232.754C232.825 164.171 232.894 164.196 232.945 164.241C232.995 164.285 233.024 164.346 233.024 164.409C233.024 164.473 232.995 164.533 232.945 164.578C232.894 164.623 232.825 164.648 232.754 164.648Z" fill="#CACACA"/>
<path d="M202.302 113.164C202.113 112.927 201.986 112.655 201.93 112.369C201.873 112.083 201.888 111.79 201.974 111.509C202.059 111.229 202.213 110.969 202.425 110.747C202.637 110.525 202.901 110.347 203.199 110.225L202.405 103.203L206.08 104.907L206.271 111.314C206.469 111.77 206.472 112.275 206.277 112.732C206.083 113.19 205.706 113.569 205.216 113.797C204.727 114.025 204.16 114.087 203.623 113.97C203.086 113.854 202.616 113.567 202.302 113.164V113.164Z" fill="#FFB6B6"/>
<path d="M170.118 112.177C169.93 111.939 169.803 111.668 169.746 111.382C169.689 111.096 169.704 110.802 169.79 110.522C169.876 110.242 170.03 109.981 170.241 109.759C170.453 109.537 170.717 109.359 171.016 109.237L170.221 102.215L173.896 103.92L174.087 110.327C174.286 110.783 174.288 111.287 174.094 111.745C173.9 112.203 173.522 112.581 173.033 112.81C172.544 113.038 171.977 113.099 171.439 112.983C170.902 112.866 170.432 112.58 170.118 112.177V112.177Z" fill="#FFB6B6"/>
<path d="M194.631 161.723H191.891L190.587 152.385H194.632L194.631 161.723Z" fill="#FFB6B6"/>
<path d="M195.33 164.07L186.495 164.07V163.971C186.495 163.165 186.857 162.392 187.502 161.823C188.147 161.253 189.021 160.933 189.933 160.933H189.934L195.33 160.933L195.33 164.07Z" fill="#2F2E41"/>
<path d="M174.293 161.723H171.552L170.249 152.385H174.293L174.293 161.723Z" fill="#FFB6B6"/>
<path d="M174.991 164.07L166.156 164.07V163.971C166.156 163.165 166.519 162.392 167.164 161.823C167.808 161.253 168.683 160.933 169.595 160.933H169.595L174.991 160.933L174.991 164.07Z" fill="#2F2E41"/>
<path d="M192.658 64.6256C196.165 62.9319 197.454 59.0471 195.537 55.9488C193.62 52.8504 189.223 51.7117 185.717 53.4054C182.21 55.0991 180.922 58.9839 182.838 62.0823C184.755 65.1806 189.152 66.3193 192.658 64.6256Z" fill="#FFB8B8"/>
<path d="M173.216 108.859L171.875 110.736L169.193 159.611L174.781 159.414L185.956 118.14L190.426 159.809L195.343 160.006L199.332 111.55L173.216 108.859Z" fill="#2F2E41"/>
<path d="M202.495 71.9302L193.331 67.5856L183.05 66.9932L173.991 71.9302C173.991 71.9302 181.933 92.6656 173.216 104.712L171.875 110.439L199.589 112.216C199.589 112.216 197.801 86.5437 200.26 83.384C202.718 80.2244 202.495 71.9302 202.495 71.9302Z" fill="#3F3D56"/>
<path d="M199.332 73.0062L202.495 71.9302C202.495 71.9302 208.082 76.2747 207.859 86.7412C207.635 97.2077 206.428 108.859 206.428 108.859L202.271 109.451L200.036 92.4681L196.907 77.6571L199.332 73.0062Z" fill="#3F3D56"/>
<path d="M177.273 73.0062L174.11 71.9302C174.11 71.9302 168.523 76.2747 168.746 86.7412C168.97 97.2077 170.177 108.859 170.177 108.859L174.334 109.451L176.569 92.4681L179.698 77.6571L177.273 73.0062Z" fill="#3F3D56"/>
<path d="M194.419 52.5653C193.785 52.016 193.026 51.5924 192.193 51.3229C191.359 51.0533 190.47 50.9439 189.585 51.002C188.028 51.1131 187.926 51.1465 186.527 51.7612C185.656 52.1256 184.809 52.5349 183.991 52.9868C183.984 52.6932 182.603 51.5696 182.38 51.7871C182.157 52.0047 182.956 53.4181 182.777 53.6658C182.599 53.9136 180.984 53.0276 180.815 52.7745C182.063 54.2944 183.71 57.299 183.314 59.1436C183.587 58.8715 183.945 58.6769 184.343 58.5845C184.741 58.492 185.161 58.5059 185.551 58.6243C185.94 58.7427 186.28 58.9604 186.529 59.2498C186.779 59.5392 186.925 59.8873 186.95 60.2502C187.038 61.5114 185.716 62.8941 186.581 63.9003C187.075 64.476 188.018 64.5239 188.836 64.5205L194.889 63.9243C196.19 62.093 197 60.6406 197.354 58.5014C197.708 56.3623 196.154 54.0893 194.419 52.5653Z" fill="#2F2E41"/>
</g>
<defs>
<clipPath id="clip0_620_4496">
<rect width="232.099" height="164.017" fill="white" transform="translate(0.924805 0.630859)"/>
</clipPath>
</defs>
</svg>
