<svg width="112" height="78" viewBox="0 0 112 78" fill="none" xmlns="http://www.w3.org/2000/svg">
<g clip-path="url(#clip0_169_2715)">
<path d="M28.4335 43.9614H0.984936C0.81339 43.9612 0.648926 43.9025 0.527625 43.7981C0.406323 43.6936 0.33809 43.5521 0.337891 43.4044V15.111C0.33809 14.9633 0.406323 14.8218 0.527625 14.7174C0.648926 14.6129 0.81339 14.5542 0.984936 14.554H28.4335C28.605 14.5542 28.7695 14.6129 28.8908 14.7174C29.0121 14.8218 29.0803 14.9633 29.0805 15.111V43.4044C29.0803 43.5521 29.0121 43.6936 28.8908 43.7981C28.7695 43.9025 28.605 43.9612 28.4335 43.9614ZM0.984936 14.7768C0.882007 14.7769 0.783326 14.8122 0.710544 14.8748C0.637762 14.9375 0.596824 15.0224 0.596709 15.111V43.4044C0.596824 43.493 0.637762 43.578 0.710544 43.6406C0.783326 43.7032 0.882007 43.7385 0.984936 43.7386H28.4335C28.5364 43.7385 28.6351 43.7033 28.7079 43.6406C28.7807 43.578 28.8216 43.493 28.8217 43.4044V15.111C28.8216 15.0224 28.7807 14.9375 28.7079 14.8748C28.6351 14.8122 28.5364 14.7769 28.4335 14.7768H0.984936Z" fill="#CACACA"/>
<path d="M24.7381 20.5692H4.67969V31.2628H24.7381V20.5692Z" fill="#3B90FA"/>
<path d="M9.72683 35.2728H4.67969V37.9462H9.72683V35.2728Z" fill="#E4E4E4"/>
<path d="M24.7385 35.2729H19.6914V37.9462H24.7385V35.2729Z" fill="#E4E4E4"/>
<path d="M17.2327 35.2728H12.1855V37.9462H17.2327V35.2728Z" fill="#E4E4E4"/>
<path d="M66.2206 30.3716H38.772C38.6005 30.3715 38.436 30.3127 38.3147 30.2083C38.1934 30.1039 38.1252 29.9623 38.125 29.8147V1.52124C38.1252 1.37358 38.1934 1.23202 38.3147 1.1276C38.436 1.02319 38.6005 0.964456 38.772 0.964287H66.2206C66.3921 0.964456 66.5566 1.02319 66.6779 1.1276C66.7992 1.23202 66.8674 1.37358 66.8676 1.52124V29.8147C66.8674 29.9623 66.7992 30.1039 66.6779 30.2083C66.5566 30.3127 66.3921 30.3715 66.2206 30.3716ZM38.772 1.18707C38.6691 1.18717 38.5704 1.2224 38.4977 1.28505C38.4249 1.3477 38.3839 1.43265 38.3838 1.52124V29.8147C38.3839 29.9033 38.4249 29.9882 38.4977 30.0509C38.5704 30.1135 38.6691 30.1487 38.772 30.1488H66.2206C66.3235 30.1487 66.4222 30.1135 66.495 30.0509C66.5678 29.9882 66.6087 29.9033 66.6088 29.8147V1.52124C66.6087 1.43265 66.5678 1.3477 66.495 1.28505C66.4222 1.2224 66.3235 1.18717 66.2206 1.18707H38.772Z" fill="#CACACA"/>
<path d="M66.5487 48.3056H39.1002C38.9286 48.3055 38.7642 48.2467 38.6429 48.1423C38.5216 48.0379 38.4533 47.8963 38.4531 47.7487V39.3943C38.4533 39.2467 38.5216 39.1051 38.6429 39.0007C38.7642 38.8963 38.9286 38.8375 39.1002 38.8374H66.5487C66.7202 38.8375 66.8847 38.8963 67.006 39.0007C67.1273 39.1051 67.1955 39.2467 67.1957 39.3943V47.7487C67.1955 47.8963 67.1273 48.0379 67.006 48.1423C66.8847 48.2467 66.7202 48.3055 66.5487 48.3056ZM39.1002 39.0602C38.9972 39.0603 38.8986 39.0955 38.8258 39.1581C38.753 39.2208 38.7121 39.3057 38.7119 39.3943V47.7487C38.7121 47.8373 38.753 47.9222 38.8258 47.9849C38.8986 48.0475 38.9972 48.0828 39.1002 48.0829H66.5487C66.6516 48.0828 66.7503 48.0475 66.8231 47.9849C66.8959 47.9222 66.9368 47.8373 66.9369 47.7487V39.3943C66.9368 39.3057 66.8959 39.2208 66.8231 39.1581C66.7503 39.0955 66.6516 39.0603 66.5487 39.0602H39.1002Z" fill="#CACACA"/>
<path d="M60.9073 19.9565H44.0842C43.2265 19.9565 42.5312 20.555 42.5312 21.2932V21.2932C42.5312 22.0315 43.2265 22.6299 44.0842 22.6299H60.9073C61.765 22.6299 62.4603 22.0315 62.4603 21.2932C62.4603 20.555 61.765 19.9565 60.9073 19.9565Z" fill="#E4E4E4"/>
<path d="M60.9073 24.1894H44.0842C43.2265 24.1894 42.5312 24.7879 42.5312 25.5261V25.5261C42.5312 26.2643 43.2265 26.8628 44.0842 26.8628H60.9073C61.765 26.8628 62.4603 26.2643 62.4603 25.5261C62.4603 24.7879 61.765 24.1894 60.9073 24.1894Z" fill="#E4E4E4"/>
<path d="M52.4972 16.949C56.4997 16.949 59.7443 14.1561 59.7443 10.711C59.7443 7.26593 56.4997 4.47311 52.4972 4.47311C48.4947 4.47311 45.25 7.26593 45.25 10.711C45.25 14.1561 48.4947 16.949 52.4972 16.949Z" fill="#3B90FA"/>
<path d="M60.6542 42.2348H53.2776C52.4199 42.2348 51.7246 42.8333 51.7246 43.5715C51.7246 44.3097 52.4199 44.9082 53.2776 44.9082H60.6542C61.5118 44.9082 62.2071 44.3097 62.2071 43.5715C62.2071 42.8333 61.5118 42.2348 60.6542 42.2348Z" fill="#E4E4E4"/>
<path d="M46.2905 46.0221C47.8629 46.0221 49.1376 44.9249 49.1376 43.5715C49.1376 42.2181 47.8629 41.1209 46.2905 41.1209C44.7181 41.1209 43.4434 42.2181 43.4434 43.5715C43.4434 44.9249 44.7181 46.0221 46.2905 46.0221Z" fill="#3B90FA"/>
<path d="M96.925 53.5461C96.8347 53.4349 96.7738 53.308 96.7466 53.1744C96.7194 53.0408 96.7266 52.9037 96.7677 52.7727C96.8087 52.6417 96.8826 52.5201 96.9842 52.4164C97.0858 52.3127 97.2125 52.2294 97.3555 52.1724L96.9745 48.8914L98.7372 49.6877L98.8288 52.6813C98.9241 52.8945 98.9253 53.1303 98.8321 53.3442C98.7389 53.558 98.5578 53.735 98.3231 53.8416C98.0885 53.9482 97.8165 53.977 97.5588 53.9225C97.3011 53.868 97.0756 53.7341 96.925 53.5461V53.5461Z" fill="#FFB6B6"/>
<path d="M81.4894 53.0847C81.3991 52.9735 81.3383 52.8467 81.3111 52.713C81.2839 52.5794 81.2911 52.4423 81.3321 52.3113C81.3732 52.1804 81.4471 52.0587 81.5487 51.955C81.6502 51.8513 81.777 51.768 81.92 51.711L81.539 48.43L83.3016 49.2263L83.3932 52.22C83.4885 52.4331 83.4897 52.6689 83.3965 52.8828C83.3033 53.0966 83.1222 53.2736 82.8876 53.3802C82.6529 53.4868 82.381 53.5156 82.1233 53.4611C81.8656 53.4066 81.6401 53.2727 81.4894 53.0847V53.0847Z" fill="#FFB6B6"/>
<path d="M93.2481 76.2352H91.9339L91.3086 71.8718H93.2484L93.2481 76.2352Z" fill="#FFB6B6"/>
<path d="M93.5815 77.3318L89.3438 77.3317V77.2856C89.3438 76.909 89.5176 76.5479 89.8269 76.2817C90.1362 76.0154 90.5558 75.8659 90.9932 75.8658H90.9933L93.5816 75.8659L93.5815 77.3318Z" fill="#2F2E41"/>
<path d="M83.4923 76.2352H82.1779L81.5527 71.8718H83.4924L83.4923 76.2352Z" fill="#FFB6B6"/>
<path d="M83.8276 77.3318L79.5898 77.3317V77.2856C79.5899 76.909 79.7637 76.5479 80.073 76.2817C80.3823 76.0154 80.8019 75.8658 81.2393 75.8658H81.2394L83.8277 75.8659L83.8276 77.3318Z" fill="#2F2E41"/>
<path d="M92.3007 30.8661C93.9826 30.0746 94.6008 28.2594 93.6814 26.8117C92.762 25.364 90.6531 24.8319 88.9712 25.6233C87.2893 26.4148 86.6711 28.2299 87.5905 29.6777C88.5099 31.1254 90.6187 31.6575 92.3007 30.8661Z" fill="#FFB8B8"/>
<path d="M82.9764 51.5342L82.3332 52.4112L81.0469 75.2484L83.7269 75.1562L89.0871 55.871L91.2311 75.3407L93.5895 75.433L95.5032 52.7915L82.9764 51.5342Z" fill="#2F2E41"/>
<path d="M97.0188 34.2791L92.6235 32.2491L87.6922 31.9723L83.3467 34.2791C83.3467 34.2791 87.1562 43.9678 82.9752 49.5965L82.332 52.2724L95.6252 53.1029C95.6252 53.1029 94.7675 41.1073 95.9468 39.631C97.126 38.1546 97.0188 34.2791 97.0188 34.2791Z" fill="#3F3D56"/>
<path d="M95.5011 34.7819L97.0179 34.2791C97.0179 34.2791 99.698 36.3091 99.5908 41.1996C99.4836 46.0901 98.9045 51.5342 98.9045 51.5342L96.9107 51.811L95.8387 43.8755L94.3379 36.955L95.5011 34.7819Z" fill="#3F3D56"/>
<path d="M84.921 34.7819L83.4041 34.2791C83.4041 34.2791 80.7241 36.3091 80.8313 41.1996C80.9385 46.0901 81.5175 51.5342 81.5175 51.5342L83.5113 51.811L84.5833 43.8755L86.0842 36.955L84.921 34.7819Z" fill="#3F3D56"/>
<path d="M93.1461 25.2308C92.8422 24.9742 92.4782 24.7763 92.0783 24.6503C91.6785 24.5244 91.2521 24.4732 90.8275 24.5004C90.0805 24.5523 90.0318 24.5679 89.3608 24.8551C88.9427 25.0254 88.5365 25.2166 88.1444 25.4278C88.1407 25.2906 87.4787 24.7656 87.3715 24.8672C87.2644 24.9689 87.6478 25.6293 87.5621 25.7451C87.4765 25.8608 86.702 25.4469 86.6211 25.3286C87.2193 26.0388 88.0093 27.4427 87.8197 28.3046C87.9506 28.1774 88.1224 28.0865 88.3133 28.0433C88.5042 28.0001 88.7057 28.0066 88.8923 28.0619C89.0789 28.1173 89.2423 28.219 89.3618 28.3542C89.4814 28.4894 89.5516 28.6521 89.5638 28.8217C89.606 29.411 88.9715 30.057 89.3864 30.5272C89.6238 30.7962 90.0759 30.8185 90.4683 30.8169L93.3717 30.5384C93.9955 29.6827 94.3843 29.0041 94.5541 28.0045C94.7238 27.005 93.9785 25.9429 93.1461 25.2308Z" fill="#2F2E41"/>
</g>
<defs>
<clipPath id="clip0_169_2715">
<rect width="111.324" height="76.1429" fill="white" transform="translate(0.337891 0.964287)"/>
</clipPath>
</defs>
</svg>
