<svg width="167" height="160" viewBox="0 0 167 160" fill="none" xmlns="http://www.w3.org/2000/svg">
<path fill-rule="evenodd" clip-rule="evenodd" d="M86.2734 0.0360206C101.919 -0.682995 115.637 9.49381 128.848 18.7928C142.943 28.7146 160.06 37.6645 164.874 55.3621C169.667 72.985 159.957 90.8775 153 107.595C146.828 122.426 139.255 136.503 127.193 145.912C115.252 155.225 100.775 161.615 86.2734 159.641C72.5442 157.773 64.3243 142.784 52.0684 135.689C36.5633 126.713 14.061 129.457 5.24539 112.735C-3.58214 95.9896 2.33319 73.5911 10.2012 56.2707C17.4339 40.3489 32.8009 32.492 46.1942 22.5914C58.9694 13.1476 70.9213 0.741563 86.2734 0.0360206Z" fill="#346DB5"/>
<path d="M83.4995 39.3613C73.6469 39.3617 64.1159 42.8826 56.6119 49.294C49.1079 55.7054 44.1205 64.5889 42.5423 74.355C40.964 84.1211 42.8978 94.1325 47.9976 102.598C53.0975 111.063 61.0306 117.43 70.3774 120.559C72.4521 120.924 73.2301 119.674 73.2301 118.58C73.2301 117.59 73.1782 114.309 73.1782 110.82C62.753 112.747 60.0559 108.268 59.2261 105.924C58.3052 103.644 56.8455 101.624 54.973 100.038C53.5208 99.2572 51.4461 97.3301 54.9211 97.2781C56.248 97.4227 57.5207 97.8863 58.6312 98.6297C59.7417 99.3732 60.6574 100.374 61.3007 101.549C61.8682 102.573 62.6313 103.474 63.5463 104.201C64.4613 104.928 65.5101 105.467 66.6327 105.786C67.7553 106.105 68.9297 106.199 70.0885 106.062C71.2472 105.925 72.3676 105.559 73.3855 104.986C73.5651 102.868 74.5052 100.888 76.0308 99.4135C66.7986 98.3719 57.1514 94.778 57.1514 78.8406C57.0931 74.6996 58.6148 70.693 61.4045 67.6427C60.1359 64.0436 60.2844 60.0939 61.8194 56.601C61.8194 56.601 65.2943 55.5072 73.23 60.8719C80.0194 58.9968 87.187 58.9968 93.9765 60.8719C101.912 55.4552 105.387 56.601 105.387 56.601C106.922 60.0938 107.071 64.0436 105.802 67.6427C108.6 70.6878 110.123 74.6978 110.055 78.8406C110.055 94.8301 100.356 98.3719 91.1239 99.4135C92.1141 100.421 92.8767 101.631 93.36 102.961C93.8433 104.292 94.0359 105.71 93.9246 107.122C93.9246 112.695 93.8727 117.174 93.8727 118.58C93.8727 119.674 94.6507 120.976 96.7254 120.559C106.056 117.405 113.966 111.023 119.044 102.553C124.122 94.0835 126.038 84.0773 124.449 74.3206C122.859 64.564 117.869 55.692 110.368 49.2885C102.867 42.8849 93.3446 39.3665 83.4995 39.3613Z" fill="white"/>
</svg>
