<svg width="166" height="160" viewBox="0 0 166 160" fill="none" xmlns="http://www.w3.org/2000/svg">
<path fill-rule="evenodd" clip-rule="evenodd" d="M85.7852 0.0360206C101.496 -0.682995 115.271 9.49381 128.538 18.7928C142.692 28.7146 159.881 37.6645 164.714 55.3621C169.527 72.985 159.777 90.8775 152.791 107.595C146.594 122.426 138.989 136.503 126.876 145.912C114.885 155.225 100.348 161.615 85.7852 159.641C71.9985 157.773 63.7442 142.784 51.4371 135.689C35.8671 126.713 13.2706 129.457 4.4181 112.735C-4.44637 95.9896 1.49371 73.5912 9.39468 56.2707C16.6576 40.3489 32.0889 32.492 45.5382 22.5914C58.3669 13.1476 70.3688 0.741563 85.7852 0.0360206Z" fill="#3B90FA"/>
<path fill-rule="evenodd" clip-rule="evenodd" d="M76.1084 64.7859H86.7861V70.1046C88.3242 67.0456 92.2687 64.2971 98.1941 64.2971C109.553 64.2971 112.25 70.3864 112.25 81.5586V102.25H100.75V84.103C100.75 77.7406 99.2119 74.1526 95.2961 74.1526C89.8653 74.1526 87.6084 78.0195 87.6084 84.1001V102.25H76.1084V64.7859ZM56.3887 101.761H67.8888V64.2971H56.3887V101.761ZM69.5361 52.0813C69.5366 53.0452 69.3454 53.9996 68.9737 54.8889C68.6021 55.7783 68.0574 56.585 67.3712 57.262C65.9809 58.6438 64.099 59.4173 62.1388 59.4125C60.182 59.4112 58.3044 58.6397 56.912 57.2649C56.2284 56.5855 55.6855 55.778 55.3145 54.8885C54.9435 53.999 54.7517 53.045 54.75 52.0813C54.75 50.1349 55.5263 48.2719 56.9149 46.8976C58.306 45.521 60.1844 44.7491 62.1416 44.75C64.1024 44.75 65.9826 45.5234 67.3712 46.8976C68.757 48.2719 69.5361 50.1349 69.5361 52.0813Z" fill="white"/>
</svg>
