<svg width="330" height="304" viewBox="0 0 330 304" fill="none" xmlns="http://www.w3.org/2000/svg">
<g clip-path="url(#clip0_169_2547)">
<path d="M299.803 148.319C299.843 183.584 287.054 217.493 264.123 242.917C262.741 244.46 261.321 245.965 259.864 247.434C257.644 249.684 255.35 251.848 252.981 253.924C230.82 273.384 203.153 284.319 174.446 284.965C173.489 284.988 172.529 285 171.565 285C148.671 285 119.874 271.966 93.7415 253.924C91.5794 252.431 89.4366 250.904 87.313 249.342C86.3204 248.619 85.3326 247.885 84.3496 247.141C74.2706 239.556 64.7036 231.226 55.7192 222.213C49.8368 216.329 44.3206 210.042 39.2058 203.393C19.1263 176.994 14.6975 153.208 43.3243 148.319C46.7136 147.742 50.003 147.125 53.1926 146.468C57.8127 145.522 62.2343 144.5 66.4574 143.402C72.146 141.929 77.4904 140.331 82.4907 138.609C84.1728 138.032 85.8163 137.443 87.4213 136.843C111.15 127.96 127.032 116.377 137.842 103.808C139.676 101.681 141.366 99.5279 142.913 97.3492C145.281 94.0329 147.431 90.547 149.349 86.916C151.997 81.871 154.22 76.5864 155.994 71.1239L156.092 70.8238C164.693 44.3793 162.076 19.8506 171.565 11.641C212.129 -23.4556 262.629 26.5252 286.333 85.4657C287.527 88.4356 288.651 91.4234 289.704 94.4292C290.177 95.7719 290.633 97.1171 291.072 98.4648C292.227 101.977 293.275 105.498 294.216 109.029C294.577 110.375 294.921 111.72 295.248 113.064C295.598 114.515 295.934 115.961 296.244 117.408C298.551 127.999 299.803 138.443 299.803 148.319Z" fill="#F2F2F2"/>
<path d="M174.445 284.965C173.489 284.988 172.529 285 171.565 285C148.67 285 119.874 271.966 93.741 253.924C91.5789 252.431 89.4361 250.904 87.3125 249.342L89.175 237.262L145.559 229.283L173.857 252.346L174.445 284.965Z" fill="#2F2E41"/>
<path d="M177.161 69.2658H169.126C168.877 69.2659 168.638 69.3713 168.462 69.5588C168.287 69.7464 168.188 70.0007 168.188 70.266V78.8333C168.188 78.9644 168.212 79.0943 168.259 79.2153C168.306 79.3364 168.376 79.4464 168.463 79.5389C168.55 79.6315 168.653 79.7048 168.767 79.7547C168.881 79.8046 169.003 79.8301 169.126 79.8297H177.161C177.409 79.8298 177.647 79.725 177.823 79.5382C177.999 79.3515 178.098 79.098 178.099 78.8333V70.266C178.098 70.0009 177.999 69.747 177.823 69.5596C177.648 69.3722 177.409 69.2665 177.161 69.2658Z" fill="white"/>
<path d="M177.161 83.8653H169.126C168.877 83.8654 168.638 83.9708 168.462 84.1584C168.287 84.3459 168.188 84.6003 168.188 84.8655V93.4329C168.188 93.564 168.212 93.6938 168.259 93.8149C168.306 93.936 168.376 94.0459 168.463 94.1385C168.55 94.231 168.653 94.3044 168.767 94.3542C168.881 94.4041 169.003 94.4296 169.126 94.4293H177.161C177.409 94.4294 177.647 94.3245 177.823 94.1378C177.999 93.951 178.098 93.6975 178.099 93.4329V84.8655C178.098 84.6005 177.999 84.3465 177.823 84.1591C177.648 83.9717 177.409 83.8661 177.161 83.8653Z" fill="#E6E6E6"/>
<path d="M177.161 98.4648H169.126C168.877 98.4649 168.638 98.5704 168.462 98.7579C168.286 98.9455 168.188 99.1998 168.188 99.4651V108.029C168.187 108.16 168.211 108.29 168.258 108.412C168.305 108.533 168.375 108.643 168.462 108.736C168.549 108.829 168.653 108.903 168.766 108.953C168.88 109.003 169.003 109.029 169.126 109.029H177.161C177.409 109.029 177.648 108.923 177.824 108.736C178 108.548 178.099 108.294 178.099 108.029V99.4651C178.098 99.2 177.999 98.946 177.823 98.7586C177.648 98.5712 177.409 98.4656 177.161 98.4648Z" fill="#E6E6E6"/>
<path d="M178.085 113.888C178.045 113.657 177.93 113.449 177.762 113.299C177.593 113.148 177.38 113.065 177.161 113.064H169.126C168.877 113.064 168.638 113.17 168.462 113.357C168.287 113.545 168.188 113.799 168.188 114.065V122.628C168.187 122.759 168.211 122.89 168.258 123.011C168.305 123.133 168.375 123.243 168.462 123.336C168.549 123.429 168.653 123.502 168.766 123.553C168.88 123.603 169.003 123.629 169.126 123.628H177.161C177.409 123.628 177.648 123.523 177.824 123.335C178 123.148 178.099 122.893 178.099 122.628V114.065C178.1 114.005 178.095 113.946 178.085 113.888Z" fill="#E6E6E6"/>
<path d="M177.525 127.741C177.41 127.69 177.286 127.664 177.161 127.664H169.126C169.003 127.664 168.88 127.689 168.766 127.739C168.653 127.79 168.549 127.863 168.462 127.956C168.375 128.049 168.305 128.16 168.258 128.281C168.211 128.402 168.187 128.533 168.188 128.664V137.228C168.187 137.359 168.211 137.489 168.258 137.611C168.305 137.733 168.374 137.843 168.461 137.936C168.548 138.029 168.652 138.103 168.766 138.153C168.88 138.203 169.003 138.228 169.126 138.228H177.161C177.409 138.228 177.648 138.122 177.824 137.935C178 137.747 178.099 137.493 178.099 137.228V128.664C178.099 128.467 178.044 128.275 177.942 128.111C177.84 127.947 177.695 127.818 177.525 127.741Z" fill="#E6E6E6"/>
<path d="M194.038 69.2658H186.003C185.754 69.2659 185.515 69.3713 185.339 69.5588C185.163 69.7464 185.065 70.0007 185.064 70.266V78.8333C185.065 78.9644 185.089 79.0943 185.136 79.2153C185.183 79.3364 185.253 79.4464 185.34 79.5389C185.427 79.6315 185.53 79.7048 185.644 79.7547C185.758 79.8046 185.88 79.8301 186.003 79.8297H194.038C194.286 79.8298 194.524 79.725 194.7 79.5382C194.876 79.3515 194.975 79.098 194.976 78.8333V70.266C194.975 70.0009 194.876 69.747 194.7 69.5596C194.525 69.3722 194.286 69.2665 194.038 69.2658Z" fill="#E6E6E6"/>
<path d="M194.038 83.8653H186.003C185.754 83.8654 185.515 83.9708 185.339 84.1584C185.163 84.3459 185.065 84.6003 185.064 84.8655V93.4329C185.065 93.564 185.089 93.6938 185.136 93.8149C185.183 93.936 185.253 94.0459 185.34 94.1385C185.427 94.231 185.53 94.3044 185.644 94.3542C185.758 94.4041 185.88 94.4296 186.003 94.4293H194.038C194.286 94.4294 194.524 94.3245 194.7 94.1378C194.876 93.951 194.975 93.6975 194.976 93.4329V84.8655C194.975 84.6005 194.876 84.3465 194.7 84.1591C194.525 83.9717 194.286 83.8661 194.038 83.8653Z" fill="#3B90FA"/>
<path d="M194.038 98.4648H186.003C185.754 98.4649 185.515 98.5704 185.339 98.7579C185.163 98.9455 185.065 99.1998 185.064 99.4651V108.029C185.064 108.16 185.088 108.29 185.135 108.412C185.182 108.533 185.252 108.643 185.339 108.736C185.426 108.829 185.529 108.903 185.643 108.953C185.757 109.003 185.88 109.029 186.003 109.029H194.038C194.286 109.029 194.525 108.923 194.701 108.736C194.877 108.548 194.976 108.294 194.976 108.029V99.4651C194.975 99.2 194.876 98.946 194.7 98.7586C194.525 98.5712 194.286 98.4656 194.038 98.4648Z" fill="#3B90FA"/>
<path d="M194.038 113.064H186.003C185.806 113.064 185.614 113.131 185.455 113.254C185.296 113.377 185.177 113.55 185.115 113.749C185.082 113.85 185.064 113.957 185.064 114.065V122.628C185.064 122.759 185.088 122.89 185.135 123.011C185.182 123.133 185.252 123.243 185.339 123.336C185.426 123.429 185.529 123.502 185.643 123.553C185.757 123.603 185.88 123.629 186.003 123.628H194.038C194.286 123.628 194.525 123.523 194.701 123.335C194.877 123.148 194.976 122.893 194.976 122.628V114.065C194.975 113.799 194.876 113.546 194.7 113.358C194.525 113.171 194.286 113.065 194.038 113.064Z" fill="#3B90FA"/>
<path d="M194.038 127.664H186.003C185.88 127.664 185.757 127.689 185.643 127.739C185.529 127.79 185.426 127.863 185.339 127.956C185.252 128.049 185.182 128.16 185.135 128.281C185.088 128.402 185.064 128.533 185.064 128.664V137.228C185.064 137.359 185.088 137.489 185.135 137.611C185.182 137.732 185.252 137.842 185.339 137.935C185.426 138.028 185.529 138.102 185.643 138.152C185.757 138.202 185.88 138.228 186.003 138.228H194.038C194.286 138.228 194.525 138.122 194.701 137.935C194.877 137.747 194.976 137.493 194.976 137.228V128.664C194.976 128.399 194.877 128.144 194.701 127.957C194.525 127.769 194.286 127.664 194.038 127.664Z" fill="#E6E6E6"/>
<path d="M210.916 69.2658H202.882C202.633 69.2659 202.394 69.3713 202.218 69.5589C202.042 69.7464 201.943 70.0008 201.943 70.266V78.8333C201.943 78.9645 201.968 79.0943 202.015 79.2154C202.062 79.3365 202.132 79.4464 202.219 79.539C202.306 79.6315 202.409 79.7048 202.523 79.7547C202.637 79.8046 202.759 79.8301 202.882 79.8298H210.916C211.165 79.8299 211.403 79.725 211.579 79.5383C211.755 79.3515 211.854 79.098 211.855 78.8333V70.266C211.854 70.0009 211.755 69.747 211.579 69.5596C211.403 69.3722 211.165 69.2666 210.916 69.2658Z" fill="#3B90FA"/>
<path d="M210.916 83.8653H202.882C202.633 83.8654 202.394 83.9708 202.218 84.1584C202.042 84.3459 201.943 84.6003 201.943 84.8655V93.4329C201.943 93.564 201.968 93.6938 202.015 93.8149C202.062 93.936 202.132 94.0459 202.219 94.1385C202.306 94.231 202.409 94.3044 202.523 94.3542C202.637 94.4041 202.759 94.4296 202.882 94.4293H210.916C211.165 94.4294 211.403 94.3245 211.579 94.1378C211.755 93.951 211.854 93.6975 211.855 93.4329V84.8655C211.854 84.6005 211.755 84.3465 211.579 84.1591C211.403 83.9717 211.165 83.8661 210.916 83.8653Z" fill="#3B90FA"/>
<path d="M210.916 98.4648H202.882C202.633 98.4649 202.394 98.5704 202.218 98.7579C202.042 98.9455 201.943 99.1998 201.943 99.4651V108.029C201.943 108.16 201.967 108.29 202.014 108.412C202.061 108.533 202.13 108.643 202.218 108.736C202.305 108.829 202.408 108.903 202.522 108.953C202.636 109.003 202.758 109.029 202.882 109.029H210.916C211.165 109.029 211.404 108.923 211.58 108.736C211.756 108.548 211.855 108.294 211.855 108.029V99.4651C211.854 99.2 211.755 98.946 211.579 98.7586C211.403 98.5712 211.165 98.4656 210.916 98.4648Z" fill="#E6E6E6"/>
<path d="M210.916 113.064H202.882C202.633 113.064 202.394 113.17 202.218 113.357C202.042 113.545 201.943 113.799 201.943 114.065V122.628C201.943 122.759 201.967 122.89 202.014 123.011C202.061 123.133 202.13 123.243 202.218 123.336C202.305 123.429 202.408 123.502 202.522 123.553C202.636 123.603 202.758 123.628 202.882 123.628H210.916C211.165 123.628 211.404 123.523 211.58 123.335C211.756 123.148 211.855 122.893 211.855 122.628V114.065C211.854 113.799 211.755 113.545 211.579 113.358C211.403 113.171 211.165 113.065 210.916 113.064Z" fill="#3B90FA"/>
<path d="M210.916 127.664H202.882C202.758 127.664 202.636 127.689 202.522 127.739C202.408 127.79 202.305 127.863 202.218 127.956C202.13 128.049 202.061 128.16 202.014 128.281C201.967 128.402 201.943 128.533 201.943 128.664V137.228C201.943 137.359 201.967 137.489 202.014 137.611C202.061 137.732 202.13 137.842 202.218 137.935C202.305 138.028 202.408 138.102 202.522 138.152C202.636 138.202 202.758 138.228 202.882 138.228H210.916C211.165 138.228 211.404 138.122 211.58 137.935C211.756 137.747 211.855 137.493 211.855 137.228V128.664C211.855 128.399 211.756 128.144 211.58 127.957C211.404 127.769 211.165 127.664 210.916 127.664Z" fill="#3B90FA"/>
<path d="M227.793 69.2658H219.759C219.51 69.2659 219.271 69.3713 219.095 69.5589C218.919 69.7464 218.82 70.0008 218.82 70.266V78.8333C218.82 78.9645 218.845 79.0943 218.892 79.2154C218.939 79.3365 219.009 79.4464 219.096 79.539C219.183 79.6315 219.286 79.7048 219.4 79.7547C219.514 79.8046 219.636 79.8301 219.759 79.8298H227.793C228.042 79.8299 228.28 79.725 228.456 79.5383C228.632 79.3515 228.731 79.098 228.732 78.8333V70.266C228.731 70.0009 228.632 69.747 228.456 69.5596C228.28 69.3722 228.042 69.2666 227.793 69.2658Z" fill="#3B90FA"/>
<path d="M227.793 83.8653H219.759C219.51 83.8654 219.271 83.9708 219.095 84.1584C218.919 84.3459 218.82 84.6003 218.82 84.8655V93.4329C218.82 93.564 218.845 93.6938 218.892 93.8149C218.939 93.936 219.009 94.0459 219.096 94.1385C219.183 94.231 219.286 94.3044 219.4 94.3542C219.514 94.4041 219.636 94.4296 219.759 94.4293H227.793C228.042 94.4294 228.28 94.3245 228.456 94.1378C228.632 93.951 228.731 93.6975 228.732 93.4329V84.8655C228.731 84.6005 228.632 84.3465 228.456 84.1591C228.28 83.9717 228.042 83.8661 227.793 83.8653Z" fill="white"/>
<path d="M227.793 98.4648H219.759C219.51 98.4649 219.271 98.5703 219.095 98.7579C218.919 98.9455 218.82 99.1998 218.82 99.4651V108.029C218.82 108.16 218.844 108.29 218.891 108.412C218.938 108.533 219.007 108.643 219.095 108.736C219.182 108.829 219.285 108.903 219.399 108.953C219.513 109.003 219.635 109.029 219.759 109.029H227.793C228.042 109.029 228.281 108.923 228.457 108.736C228.633 108.548 228.732 108.294 228.732 108.029V99.4651C228.731 99.2 228.632 98.946 228.456 98.7586C228.28 98.5712 228.042 98.4656 227.793 98.4648Z" fill="white"/>
<path d="M227.793 113.064H219.759C219.51 113.064 219.271 113.17 219.095 113.357C218.919 113.545 218.82 113.799 218.82 114.065V122.628C218.82 122.759 218.844 122.89 218.891 123.011C218.938 123.133 219.007 123.243 219.095 123.336C219.182 123.429 219.285 123.502 219.399 123.553C219.513 123.603 219.635 123.628 219.759 123.628H227.793C228.042 123.628 228.281 123.523 228.457 123.335C228.633 123.148 228.732 122.893 228.732 122.628V114.065C228.731 113.799 228.632 113.545 228.456 113.358C228.28 113.171 228.042 113.065 227.793 113.064Z" fill="#E6E6E6"/>
<path d="M227.793 127.664H219.759C219.635 127.664 219.513 127.689 219.399 127.739C219.285 127.79 219.182 127.863 219.095 127.956C219.007 128.049 218.938 128.159 218.891 128.281C218.844 128.402 218.82 128.533 218.82 128.664V137.228C218.82 137.359 218.844 137.489 218.891 137.611C218.938 137.732 219.007 137.842 219.095 137.935C219.182 138.028 219.285 138.102 219.399 138.152C219.513 138.202 219.635 138.228 219.759 138.228H227.793C228.042 138.228 228.281 138.122 228.457 137.935C228.633 137.747 228.732 137.493 228.732 137.228V128.664C228.732 128.399 228.633 128.144 228.457 127.957C228.281 127.769 228.042 127.664 227.793 127.664Z" fill="#3B90FA"/>
<path d="M244.672 69.2658H236.634C236.386 69.2667 236.148 69.3725 235.973 69.56C235.797 69.7475 235.699 70.0013 235.699 70.266V78.8334C235.699 79.0976 235.798 79.351 235.973 79.5379C236.148 79.7247 236.386 79.8297 236.634 79.8298H244.672C244.921 79.8299 245.159 79.725 245.335 79.5383C245.511 79.3515 245.61 79.098 245.611 78.8334V70.266C245.61 70.0009 245.511 69.747 245.335 69.5596C245.159 69.3722 244.921 69.2666 244.672 69.2658Z" fill="white"/>
<path d="M244.672 83.8653H236.634C236.386 83.8662 236.148 83.972 235.973 84.1595C235.797 84.347 235.699 84.6009 235.699 84.8655V93.4329C235.699 93.6971 235.798 93.9505 235.973 94.1374C236.148 94.3242 236.386 94.4292 236.634 94.4292H244.672C244.921 94.4294 245.159 94.3245 245.335 94.1378C245.511 93.951 245.61 93.6975 245.611 93.4329V84.8655C245.61 84.6005 245.511 84.3465 245.335 84.1591C245.159 83.9717 244.921 83.8661 244.672 83.8653Z" fill="white"/>
<path d="M244.672 98.4648H236.634C236.386 98.4657 236.148 98.5715 235.973 98.759C235.797 98.9465 235.699 99.2004 235.699 99.4651V108.029C235.699 108.16 235.723 108.29 235.77 108.411C235.816 108.532 235.885 108.642 235.972 108.735C236.059 108.828 236.162 108.902 236.276 108.952C236.389 109.003 236.511 109.029 236.634 109.029H244.672C244.921 109.029 245.16 108.923 245.336 108.736C245.512 108.548 245.611 108.294 245.611 108.029V99.4651C245.61 99.2 245.511 98.946 245.335 98.7586C245.159 98.5712 244.921 98.4656 244.672 98.4648Z" fill="white"/>
<path d="M244.672 113.064H236.634C236.386 113.065 236.148 113.171 235.973 113.358C235.797 113.546 235.699 113.8 235.699 114.065V122.628C235.699 122.759 235.723 122.889 235.77 123.01C235.816 123.132 235.885 123.242 235.972 123.335C236.059 123.428 236.162 123.501 236.276 123.552C236.389 123.602 236.511 123.628 236.634 123.628H244.672C244.921 123.628 245.16 123.523 245.336 123.335C245.512 123.148 245.611 122.893 245.611 122.628V114.065C245.61 113.799 245.511 113.545 245.335 113.358C245.159 113.171 244.921 113.065 244.672 113.064Z" fill="#3B90FA"/>
<path d="M244.672 127.664H236.634C236.511 127.664 236.389 127.69 236.276 127.74C236.162 127.791 236.059 127.864 235.972 127.957C235.885 128.05 235.816 128.16 235.77 128.282C235.723 128.403 235.699 128.533 235.699 128.664V137.228C235.699 137.359 235.723 137.489 235.77 137.61C235.816 137.731 235.885 137.841 235.972 137.934C236.059 138.027 236.162 138.101 236.276 138.151C236.389 138.202 236.511 138.228 236.634 138.228H244.672C244.921 138.228 245.16 138.122 245.336 137.935C245.512 137.747 245.611 137.493 245.611 137.228V128.664C245.611 128.399 245.512 128.144 245.336 127.957C245.16 127.769 244.921 127.664 244.672 127.664Z" fill="#E6E6E6"/>
<path d="M261.549 69.2658H253.511C253.263 69.2667 253.025 69.3725 252.85 69.56C252.674 69.7475 252.576 70.0013 252.576 70.266V78.8334C252.576 79.0976 252.675 79.351 252.85 79.5379C253.025 79.7247 253.263 79.8297 253.511 79.8298H261.549C261.798 79.8299 262.036 79.725 262.212 79.5383C262.388 79.3515 262.487 79.098 262.488 78.8334V70.266C262.487 70.0009 262.388 69.747 262.212 69.5596C262.036 69.3722 261.798 69.2666 261.549 69.2658Z" fill="white"/>
<path d="M261.549 83.8653H253.511C253.263 83.8662 253.025 83.972 252.85 84.1595C252.674 84.347 252.576 84.6009 252.576 84.8655V93.4329C252.576 93.6971 252.675 93.9505 252.85 94.1374C253.025 94.3242 253.263 94.4292 253.511 94.4292H261.549C261.798 94.4293 262.036 94.3245 262.212 94.1378C262.388 93.951 262.487 93.6975 262.488 93.4329V84.8655C262.487 84.6005 262.388 84.3465 262.212 84.1591C262.036 83.9717 261.798 83.8661 261.549 83.8653Z" fill="white"/>
<path d="M261.549 98.4648H253.511C253.263 98.4657 253.025 98.5715 252.85 98.759C252.674 98.9465 252.576 99.2004 252.576 99.4651V108.029C252.576 108.16 252.6 108.29 252.647 108.411C252.693 108.532 252.762 108.642 252.849 108.735C252.936 108.828 253.039 108.902 253.153 108.952C253.266 109.003 253.388 109.029 253.511 109.029H261.549C261.798 109.029 262.037 108.923 262.213 108.736C262.389 108.548 262.488 108.294 262.488 108.029V99.4651C262.487 99.2 262.388 98.946 262.212 98.7586C262.036 98.5712 261.798 98.4656 261.549 98.4648Z" fill="#3B90FA"/>
<path d="M261.549 113.064H253.511C253.263 113.065 253.025 113.171 252.85 113.358C252.674 113.546 252.576 113.8 252.576 114.065V122.628C252.576 122.759 252.6 122.889 252.647 123.01C252.693 123.132 252.762 123.242 252.849 123.335C252.936 123.428 253.039 123.501 253.153 123.552C253.266 123.602 253.388 123.628 253.511 123.628H261.549C261.798 123.628 262.037 123.523 262.213 123.335C262.389 123.148 262.488 122.893 262.488 122.628V114.065C262.487 113.799 262.388 113.546 262.212 113.358C262.036 113.171 261.798 113.065 261.549 113.064Z" fill="#E6E6E6"/>
<path d="M261.549 127.664H253.511C253.388 127.664 253.266 127.69 253.153 127.74C253.039 127.791 252.936 127.864 252.849 127.957C252.762 128.05 252.693 128.16 252.647 128.282C252.6 128.403 252.576 128.533 252.576 128.664V137.228C252.576 137.359 252.6 137.489 252.647 137.61C252.693 137.731 252.762 137.841 252.849 137.934C252.936 138.027 253.039 138.101 253.153 138.151C253.266 138.202 253.388 138.228 253.511 138.228H261.549C261.798 138.228 262.037 138.122 262.213 137.935C262.389 137.747 262.488 137.493 262.488 137.228V128.664C262.488 128.399 262.389 128.144 262.213 127.957C262.037 127.769 261.798 127.664 261.549 127.664Z" fill="white"/>
<path d="M278.426 69.2658H270.388C270.14 69.2667 269.902 69.3725 269.727 69.56C269.551 69.7475 269.453 70.0013 269.453 70.266V78.8334C269.453 79.0976 269.552 79.351 269.727 79.5379C269.902 79.7247 270.14 79.8297 270.388 79.8298H278.426C278.675 79.8299 278.913 79.725 279.089 79.5383C279.265 79.3515 279.364 79.098 279.365 78.8334V70.266C279.364 70.0009 279.265 69.747 279.089 69.5596C278.913 69.3722 278.675 69.2666 278.426 69.2658Z" fill="#3B90FA"/>
<path d="M278.426 83.8653H270.388C270.14 83.8662 269.902 83.972 269.727 84.1595C269.551 84.347 269.453 84.6009 269.453 84.8655V93.4329C269.453 93.6971 269.552 93.9505 269.727 94.1374C269.902 94.3242 270.14 94.4292 270.388 94.4292H278.426C278.675 94.4293 278.913 94.3245 279.089 94.1378C279.265 93.951 279.364 93.6975 279.365 93.4329V84.8655C279.364 84.6005 279.265 84.3465 279.089 84.1591C278.913 83.9717 278.675 83.8661 278.426 83.8653Z" fill="#3B90FA"/>
<path d="M278.426 98.4648H270.388C270.14 98.4657 269.902 98.5715 269.727 98.759C269.551 98.9465 269.453 99.2004 269.453 99.4651V108.029C269.453 108.16 269.477 108.29 269.524 108.411C269.57 108.532 269.639 108.642 269.726 108.735C269.813 108.828 269.916 108.902 270.03 108.952C270.143 109.003 270.265 109.029 270.388 109.029H278.426C278.675 109.029 278.914 108.923 279.09 108.736C279.266 108.548 279.365 108.294 279.365 108.029V99.4651C279.364 99.2 279.265 98.946 279.089 98.7586C278.913 98.5712 278.675 98.4656 278.426 98.4648Z" fill="#E6E6E6"/>
<path d="M278.426 113.064H270.388C270.14 113.065 269.902 113.171 269.727 113.358C269.551 113.546 269.453 113.8 269.453 114.065V122.628C269.453 122.759 269.477 122.889 269.524 123.01C269.57 123.132 269.639 123.242 269.726 123.335C269.813 123.428 269.916 123.501 270.03 123.552C270.143 123.602 270.265 123.628 270.388 123.628H278.426C278.675 123.628 278.914 123.523 279.09 123.335C279.266 123.148 279.365 122.893 279.365 122.628V114.065C279.364 113.799 279.265 113.546 279.089 113.358C278.913 113.171 278.675 113.065 278.426 113.064Z" fill="white"/>
<path d="M278.426 127.664H270.388C270.265 127.664 270.143 127.69 270.03 127.74C269.916 127.791 269.813 127.864 269.726 127.957C269.639 128.05 269.57 128.16 269.524 128.282C269.477 128.403 269.453 128.533 269.453 128.664V137.228C269.453 137.359 269.477 137.489 269.524 137.61C269.57 137.731 269.639 137.841 269.726 137.934C269.813 138.027 269.916 138.101 270.03 138.151C270.143 138.202 270.265 138.228 270.388 138.228H278.426C278.675 138.228 278.914 138.122 279.09 137.935C279.266 137.747 279.365 137.493 279.365 137.228V128.664C279.365 128.399 279.266 128.144 279.09 127.957C278.914 127.769 278.675 127.664 278.426 127.664Z" fill="#3B90FA"/>
<path d="M295.305 69.2658H287.267C287.019 69.2667 286.781 69.3725 286.606 69.56C286.43 69.7475 286.332 70.0013 286.332 70.266V78.8334C286.332 79.0976 286.431 79.351 286.606 79.5379C286.781 79.7247 287.019 79.8297 287.267 79.8298H295.305C295.554 79.8299 295.792 79.725 295.968 79.5383C296.144 79.3515 296.243 79.098 296.244 78.8334V70.266C296.243 70.001 296.144 69.747 295.968 69.5596C295.792 69.3722 295.554 69.2666 295.305 69.2658Z" fill="#3B90FA"/>
<path d="M295.305 83.8653H287.267C287.019 83.8662 286.781 83.972 286.606 84.1595C286.43 84.347 286.332 84.6009 286.332 84.8655V93.4329C286.332 93.6971 286.431 93.9505 286.606 94.1374C286.781 94.3242 287.019 94.4292 287.267 94.4292H295.305C295.554 94.4293 295.792 94.3245 295.968 94.1378C296.144 93.951 296.243 93.6975 296.244 93.4329V84.8655C296.243 84.6005 296.144 84.3465 295.968 84.1591C295.792 83.9717 295.554 83.8661 295.305 83.8653Z" fill="#3B90FA"/>
<path d="M295.305 98.4648H287.267C287.019 98.4657 286.781 98.5715 286.606 98.759C286.43 98.9465 286.332 99.2004 286.332 99.4651V108.029C286.332 108.16 286.356 108.29 286.402 108.411C286.449 108.532 286.518 108.642 286.605 108.735C286.692 108.828 286.795 108.902 286.908 108.952C287.022 109.003 287.144 109.029 287.267 109.029H295.305C295.554 109.029 295.793 108.923 295.969 108.736C296.145 108.548 296.244 108.294 296.244 108.029V99.4651C296.243 99.2 296.144 98.946 295.968 98.7586C295.792 98.5712 295.554 98.4656 295.305 98.4648Z" fill="#E6E6E6"/>
<path d="M295.305 113.064H287.267C287.019 113.065 286.781 113.171 286.606 113.358C286.43 113.546 286.332 113.8 286.332 114.065V122.628C286.332 122.759 286.356 122.889 286.402 123.01C286.449 123.132 286.518 123.242 286.605 123.335C286.692 123.428 286.795 123.501 286.908 123.552C287.022 123.602 287.144 123.628 287.267 123.628H295.305C295.554 123.628 295.793 123.523 295.969 123.335C296.145 123.148 296.244 122.893 296.244 122.628V114.065C296.243 113.799 296.144 113.546 295.968 113.358C295.792 113.171 295.554 113.065 295.305 113.064Z" fill="#3B90FA"/>
<path d="M295.305 127.664H287.267C287.144 127.664 287.022 127.69 286.908 127.74C286.795 127.791 286.692 127.864 286.605 127.957C286.518 128.05 286.449 128.16 286.402 128.282C286.356 128.403 286.332 128.533 286.332 128.664V137.228C286.332 137.359 286.356 137.489 286.402 137.61C286.449 137.731 286.518 137.841 286.605 137.934C286.692 138.027 286.795 138.101 286.908 138.151C287.022 138.202 287.144 138.228 287.267 138.228H295.305C295.554 138.228 295.793 138.122 295.969 137.935C296.145 137.747 296.244 137.493 296.244 137.228V128.664C296.244 128.399 296.145 128.144 295.969 127.957C295.793 127.769 295.554 127.664 295.305 127.664Z" fill="#3B90FA"/>
<path d="M312.184 69.2658H304.146C303.897 69.2667 303.66 69.3725 303.484 69.56C303.309 69.7475 303.211 70.0013 303.211 70.266V78.8334C303.211 79.0976 303.309 79.351 303.485 79.5379C303.66 79.7247 303.898 79.8297 304.146 79.8298H312.184C312.432 79.8299 312.671 79.725 312.846 79.5383C313.022 79.3515 313.122 79.098 313.123 78.8334V70.266C313.122 70.001 313.023 69.747 312.847 69.5596C312.671 69.3722 312.433 69.2666 312.184 69.2658Z" fill="#E6E6E6"/>
<path d="M312.184 83.8653H304.146C303.897 83.8662 303.66 83.972 303.484 84.1595C303.309 84.347 303.211 84.6009 303.211 84.8655V93.4329C303.211 93.6971 303.309 93.9505 303.485 94.1374C303.66 94.3242 303.898 94.4292 304.146 94.4292H312.184C312.432 94.4293 312.671 94.3245 312.846 94.1378C313.022 93.951 313.122 93.6975 313.123 93.4329V84.8655C313.122 84.6005 313.023 84.3465 312.847 84.1591C312.671 83.9717 312.433 83.8661 312.184 83.8653Z" fill="#3B90FA"/>
<path d="M312.184 98.4648H304.146C303.897 98.4657 303.66 98.5715 303.484 98.759C303.309 98.9465 303.211 99.2004 303.211 99.4651V108.029C303.211 108.16 303.235 108.29 303.281 108.411C303.328 108.532 303.397 108.642 303.484 108.735C303.571 108.828 303.674 108.902 303.787 108.952C303.901 109.003 304.023 109.029 304.146 109.029H312.184C312.433 109.029 312.672 108.923 312.848 108.736C313.024 108.548 313.122 108.294 313.123 108.029V99.4651C313.122 99.2 313.023 98.946 312.847 98.7586C312.671 98.5712 312.433 98.4656 312.184 98.4648Z" fill="#3B90FA"/>
<path d="M312.184 113.064H304.146C303.897 113.065 303.66 113.171 303.484 113.358C303.309 113.546 303.211 113.8 303.211 114.065V122.628C303.211 122.759 303.235 122.889 303.281 123.01C303.328 123.132 303.397 123.242 303.484 123.335C303.571 123.428 303.674 123.501 303.787 123.552C303.901 123.602 304.023 123.628 304.146 123.628H312.184C312.433 123.628 312.672 123.523 312.848 123.335C313.024 123.148 313.122 122.893 313.123 122.628V114.065C313.122 113.799 313.023 113.546 312.847 113.358C312.671 113.171 312.433 113.065 312.184 113.064Z" fill="#3B90FA"/>
<path d="M312.184 127.664H304.146C304.023 127.664 303.901 127.69 303.787 127.74C303.674 127.791 303.571 127.864 303.484 127.957C303.397 128.05 303.328 128.16 303.281 128.282C303.235 128.403 303.211 128.533 303.211 128.664V137.228C303.211 137.359 303.235 137.489 303.281 137.61C303.328 137.731 303.397 137.841 303.484 137.934C303.571 138.027 303.674 138.101 303.787 138.151C303.901 138.202 304.023 138.228 304.146 138.228H312.184C312.433 138.228 312.672 138.122 312.848 137.935C313.024 137.747 313.122 137.493 313.123 137.228V128.664C313.122 128.399 313.024 128.144 312.848 127.957C312.672 127.769 312.433 127.664 312.184 127.664Z" fill="#E6E6E6"/>
<path d="M329.061 69.2658H321.023C320.774 69.2667 320.537 69.3725 320.361 69.56C320.186 69.7475 320.088 70.0013 320.088 70.266V78.8334C320.088 79.0976 320.186 79.351 320.362 79.5379C320.537 79.7247 320.775 79.8297 321.023 79.8298H329.061C329.309 79.8299 329.548 79.725 329.724 79.5383C329.899 79.3515 329.999 79.098 330 78.8334V70.266C329.999 70.001 329.9 69.747 329.724 69.5596C329.548 69.3722 329.31 69.2666 329.061 69.2658Z" fill="#E6E6E6"/>
<path d="M329.061 83.8653H321.023C320.774 83.8662 320.537 83.972 320.361 84.1595C320.186 84.347 320.088 84.6009 320.088 84.8655V93.4329C320.088 93.6971 320.186 93.9505 320.362 94.1374C320.537 94.3242 320.775 94.4292 321.023 94.4292H329.061C329.309 94.4293 329.548 94.3245 329.724 94.1378C329.899 93.951 329.999 93.6975 330 93.4329V84.8655C329.999 84.6005 329.9 84.3465 329.724 84.1591C329.548 83.9717 329.31 83.8661 329.061 83.8653Z" fill="#E6E6E6"/>
<path d="M329.061 98.4648H321.023C320.774 98.4657 320.537 98.5715 320.361 98.759C320.186 98.9465 320.088 99.2004 320.088 99.4651V108.029C320.088 108.16 320.111 108.29 320.158 108.411C320.205 108.532 320.274 108.642 320.361 108.735C320.448 108.828 320.551 108.902 320.664 108.952C320.778 109.003 320.9 109.029 321.023 109.029H329.061C329.31 109.029 329.549 108.923 329.725 108.736C329.901 108.548 329.999 108.294 330 108.029V99.4651C329.999 99.2 329.9 98.946 329.724 98.7586C329.548 98.5712 329.31 98.4656 329.061 98.4648Z" fill="#3B90FA"/>
<path d="M329.061 113.064H321.023C320.774 113.065 320.537 113.171 320.361 113.358C320.186 113.546 320.088 113.8 320.088 114.065V122.628C320.088 122.759 320.111 122.889 320.158 123.01C320.205 123.132 320.274 123.242 320.361 123.335C320.448 123.428 320.551 123.501 320.664 123.552C320.778 123.602 320.9 123.628 321.023 123.628H329.061C329.31 123.628 329.549 123.523 329.725 123.335C329.901 123.148 329.999 122.893 330 122.628V114.065C329.999 113.799 329.9 113.546 329.724 113.358C329.548 113.171 329.31 113.065 329.061 113.064Z" fill="#E6E6E6"/>
<path d="M329.061 127.664H321.023C320.9 127.664 320.778 127.69 320.664 127.74C320.551 127.791 320.448 127.864 320.361 127.957C320.274 128.05 320.205 128.16 320.158 128.282C320.111 128.403 320.088 128.533 320.088 128.664V137.228C320.088 137.359 320.111 137.489 320.158 137.61C320.205 137.731 320.274 137.841 320.361 137.934C320.448 138.027 320.551 138.101 320.664 138.151C320.778 138.202 320.9 138.228 321.023 138.228H329.061C329.31 138.228 329.549 138.122 329.725 137.935C329.901 137.747 329.999 137.493 330 137.228V128.664C329.999 128.399 329.901 128.144 329.725 127.957C329.549 127.769 329.31 127.664 329.061 127.664Z" fill="#E6E6E6"/>
<path d="M144.311 253.923H144.088L144.278 253.897L144.311 253.923Z" fill="#2F2E41"/>
<path d="M125.081 94.2735C138.7 94.2735 149.741 82.5059 149.741 67.9898C149.741 53.4737 138.7 41.7061 125.081 41.7061C111.461 41.7061 100.42 53.4737 100.42 67.9898C100.42 82.5059 111.461 94.2735 125.081 94.2735Z" fill="#FFB6B6"/>
<path d="M146.677 48.7191C146.677 48.7191 153.127 35.5772 138.937 34.3825C138.937 34.3825 126.84 22.6866 114.509 32.2443C114.509 32.2443 107.784 32.2443 104.106 40.3561C104.106 40.3561 98.8163 38.2179 97.6539 43.9402C97.6539 43.9402 93.7832 55.8873 97.6539 66.6398C101.524 77.3922 102.81 78.5869 102.81 78.5869C102.81 78.5869 96.4499 56.0439 111.931 54.8491C127.413 53.6544 144.737 43.3429 146.027 56.4847C147.317 69.6265 149.258 72.8645 149.258 72.8645C149.258 72.8645 161.513 54.0953 146.677 48.7191Z" fill="#2F2E41"/>
<path d="M188.874 132.765L188.795 133.211L187.903 138.228L181.742 172.928L181.377 174.971L180.612 179.291L179.565 185.185L177.244 198.245L176.58 201.989L176.331 203.393L176.245 203.885L175.555 207.759L175.346 208.929L173.664 222.213L172.195 233.788L177.111 239.028L174.18 242.152L172.256 253.897L172.26 253.924H93.7427C90.5664 251.731 87.4357 249.47 84.3509 247.141L84.997 241.986C84.997 241.986 87.2204 232.78 86.2855 231.68C85.3543 230.58 83.3113 228.614 83.3113 228.614L85.8849 222.213L86.2422 221.324L85.643 208.078L85.6286 207.759L85.4301 203.393L85.4048 202.831L85.3651 201.989L84.6035 185.185L84.5891 184.908L84.3581 179.814L84.1415 174.971L84.0477 172.928L83.1201 152.489L82.492 138.609L81.9434 126.525L84.1487 125.729L107.737 117.184L117.508 103.647L137.843 103.808L147.798 103.889L164.409 120.308L168.188 122.232L168.217 122.247L170.928 123.628L177.8 127.125L185.066 130.826L188.795 132.723L188.874 132.765Z" fill="#CACACA"/>
<path d="M120.134 214.492C118.644 215.107 117.045 215.367 115.45 215.252C113.856 215.138 112.304 214.652 110.905 213.83C109.506 213.007 108.293 211.867 107.351 210.491C106.41 209.114 105.763 207.535 105.456 205.863L66.9941 200.047L80.3647 183.927L114.839 191.922C117.508 191.559 120.209 192.252 122.431 193.87C124.652 195.488 126.24 197.918 126.893 200.7C127.545 203.482 127.218 206.423 125.972 208.965C124.726 211.507 122.649 213.473 120.134 214.492V214.492Z" fill="#FFB6B6"/>
<path d="M102.984 185.185C102.272 184.222 101.263 183.559 100.136 183.311L84.3556 179.814L82.7349 179.456C81.7931 179.247 80.9033 178.828 80.124 178.227C79.3446 177.625 78.6931 176.855 78.2122 175.967C77.7134 175.035 77.4115 173.998 77.3279 172.928C77.2527 171.956 77.3619 170.977 77.6491 170.05L83.1175 152.489L86.6656 141.094C87.0956 139.72 87.3494 138.29 87.42 136.843C87.6177 132.839 86.4554 128.894 84.1462 125.729C82.116 122.947 79.3001 120.935 76.1145 119.99C72.929 119.045 69.5428 119.217 66.4561 120.481C66.3659 120.516 66.272 120.554 66.1818 120.593C63.9682 121.535 61.9905 123.013 60.405 124.91C58.8195 126.807 57.6696 129.07 57.0462 131.522L53.1913 146.468L45.2396 177.279C44.4436 180.366 44.2828 183.6 44.7682 186.759C45.2536 189.919 46.3737 192.929 48.0519 195.584C49.73 198.239 51.9267 200.477 54.4914 202.143C57.0561 203.81 59.9284 204.866 62.9116 205.239L85.6405 208.078L96.1585 209.394C97.3748 209.55 98.6014 209.212 99.5941 208.447C100.587 207.682 101.273 206.546 101.515 205.266C101.532 205.197 101.545 205.126 101.555 205.055L101.807 203.393L103.948 189.397L103.969 189.255C104.081 188.541 104.051 187.81 103.881 187.109C103.711 186.408 103.406 185.752 102.984 185.185Z" fill="#CACACA"/>
<path d="M144.634 214.941C146.19 215.326 147.807 215.343 149.371 214.99C150.934 214.637 152.406 213.923 153.683 212.898C154.959 211.873 156.009 210.562 156.759 209.058C157.509 207.554 157.94 205.893 158.023 204.192L195.331 192.653L179.961 178.704L146.889 191.8C144.199 191.842 141.616 192.934 139.631 194.87C137.646 196.805 136.395 199.45 136.117 202.303C135.839 205.155 136.553 208.017 138.122 210.346C139.692 212.676 142.009 214.31 144.634 214.941V214.941Z" fill="#FFB6B6"/>
<path d="M213.853 166.842L196.109 123.317C194.657 119.743 192.065 116.833 188.792 115.103C187.781 114.572 186.718 114.16 185.623 113.872C185.454 113.826 185.284 113.784 185.114 113.749C182.793 113.209 180.385 113.257 178.083 113.888C175.979 114.464 174.013 115.506 172.313 116.946C170.612 118.387 169.216 120.193 168.215 122.247C168.204 122.264 168.194 122.282 168.186 122.301C167.067 124.607 166.473 127.161 166.449 129.757C166.426 132.353 166.975 134.918 168.052 137.247L168.273 137.716L180.812 164.557C181.24 165.475 181.481 166.479 181.52 167.503C181.558 168.527 181.393 169.548 181.035 170.5C180.677 171.451 180.135 172.311 179.443 173.023C178.752 173.736 177.926 174.284 177.022 174.632L176.141 174.971L160.303 181.068C159.114 181.52 158.137 182.446 157.576 183.651C157.015 184.856 156.915 186.246 157.296 187.528L157.336 187.662L161.775 202.804C161.797 202.873 161.819 202.943 161.844 203.012C161.883 203.143 161.931 203.27 161.988 203.393C162.46 204.521 163.294 205.432 164.34 205.963C165.386 206.494 166.576 206.61 167.695 206.29L176.242 203.885L177.986 203.393L200.058 197.18C202.962 196.362 205.666 194.885 207.985 192.849C210.304 190.814 212.182 188.269 213.492 185.388C214.803 182.507 215.513 179.358 215.575 176.157C215.638 172.956 215.05 169.778 213.853 166.842L213.853 166.842Z" fill="#CACACA"/>
<path d="M39.207 203.393C44.3218 210.042 49.838 216.329 55.7204 222.213H218.858C220.43 222.215 221.936 222.882 223.047 224.067C224.159 225.252 224.783 226.858 224.785 228.533L225.019 272.593C235.055 267.679 244.454 261.404 252.982 253.924C255.35 251.85 257.644 249.687 259.865 247.434C261.32 245.964 262.74 244.459 264.125 242.917C274.507 231.39 282.914 218.013 288.965 203.393H39.207Z" fill="#3F3D56"/>
<path d="M264.123 242.917C262.74 244.46 261.321 245.965 259.864 247.434H225.137V242.917H264.123Z" fill="white"/>
<path d="M188.548 98.4648C188.376 98.1273 188.122 97.8455 187.813 97.6491C187.503 97.4527 187.15 97.3491 186.79 97.3492H68.4567C67.9262 97.3506 67.4178 97.5762 67.043 97.9764C66.6682 98.3766 66.4575 98.9188 66.457 99.4842V174.971H188.793V99.4842C188.795 99.1276 188.71 98.7764 188.548 98.4648Z" fill="#3F3D56"/>
<path d="M66.3496 172.927V182.242C66.3496 182.628 66.421 183.011 66.5596 183.368C66.6983 183.724 66.9015 184.049 67.1577 184.322C67.4139 184.595 67.7181 184.811 68.0528 184.959C68.3875 185.107 68.7463 185.183 69.1086 185.183H114.262V203.567H113.662C113.615 203.567 113.569 203.576 113.525 203.596C113.482 203.615 113.442 203.643 113.409 203.678C113.375 203.714 113.349 203.756 113.331 203.802C113.313 203.849 113.304 203.898 113.304 203.949V205.227C113.304 205.277 113.313 205.327 113.331 205.373C113.349 205.42 113.375 205.462 113.409 205.497C113.442 205.533 113.482 205.561 113.525 205.58C113.569 205.599 113.615 205.609 113.662 205.609H141.693C141.74 205.609 141.787 205.599 141.83 205.58C141.873 205.561 141.913 205.533 141.946 205.497C141.98 205.462 142.006 205.42 142.024 205.373C142.042 205.327 142.051 205.277 142.051 205.227V203.949C142.051 203.898 142.042 203.849 142.024 203.802C142.006 203.756 141.98 203.714 141.946 203.678C141.913 203.643 141.873 203.615 141.83 203.596C141.787 203.576 141.74 203.567 141.693 203.567H141.093V185.183H186.246C186.609 185.183 186.968 185.107 187.302 184.959C187.637 184.811 187.941 184.595 188.197 184.322C188.454 184.049 188.657 183.724 188.795 183.368C188.934 183.011 189.005 182.628 189.005 182.242V172.927H66.3496Z" fill="#3F3D56"/>
<path d="M126.196 146.191C132.437 146.191 137.496 140.799 137.496 134.148C137.496 127.496 132.437 122.104 126.196 122.104C119.956 122.104 114.896 127.496 114.896 134.148C114.896 140.799 119.956 146.191 126.196 146.191Z" fill="#3B90FA"/>
<path d="M154.987 66.5536H153.183C153.183 52.0118 139.68 42.4827 126.057 42.475C124.076 42.4688 122.099 42.6737 120.156 43.0867C117.968 43.5521 115.698 44.11 113.467 44.8371C104.671 47.7108 96.5137 53.2659 96.5137 66.5536C96.5118 69.1342 96.82 71.7044 97.4305 74.2015L95.6836 74.6862C95.0356 72.0306 94.7081 69.2976 94.709 66.5536C94.709 54.9432 99.1811 46.9683 106.905 42.2134C110.966 39.7128 115.922 38.1009 121.6 37.3161C123.962 36.9811 126.351 36.9037 128.728 37.0853C144.393 38.2855 154.987 51.0885 154.987 66.5536Z" fill="#3B90FA"/>
<path d="M157.993 67.6192L157.282 62.0179C157.107 60.6034 156.468 59.3006 155.478 58.3402C154.842 57.7141 154.081 57.2502 153.253 56.9836C152.424 56.717 151.55 56.6547 150.695 56.8014L149.565 56.9668C149.256 57.0101 148.958 57.1185 148.689 57.2856C148.419 57.4527 148.183 57.6751 147.995 57.9401C147.805 58.2041 147.667 58.5056 147.587 58.8272C147.507 59.1488 147.487 59.484 147.53 59.8136L149.172 72.7166C149.24 73.2425 149.461 73.7324 149.804 74.1169C150.147 74.5015 150.595 74.7612 151.085 74.8594C151.23 74.8903 151.377 74.9058 151.525 74.9055C151.632 74.9055 151.738 74.8978 151.843 74.8824L153.106 74.7016C153.876 74.5927 154.618 74.3171 155.284 73.8917C155.951 73.4663 156.529 72.9001 156.983 72.228C157.08 72.0818 157.174 71.9318 157.261 71.7779C157.937 70.5191 158.195 69.0538 157.993 67.6192Z" fill="#3B90FA"/>
<path d="M148.836 57.2014C148.505 57.373 148.217 57.6262 147.995 57.9401C147.805 58.2041 147.667 58.5056 147.587 58.8272C147.507 59.1488 147.487 59.484 147.53 59.8136L149.172 72.7165C149.24 73.2424 149.461 73.7323 149.804 74.1169C150.147 74.5015 150.595 74.7612 151.085 74.8593L148.836 57.2014Z" fill="white"/>
<path d="M157.994 67.6192L157.283 62.0179C157.108 60.6034 156.469 59.3006 155.479 58.3401L157.114 71.1777C157.138 71.3838 157.188 71.5856 157.262 71.7779C157.938 70.5191 158.196 69.0538 157.994 67.6192Z" fill="#3F3D56"/>
<path d="M152.374 71.655C152.868 71.5836 153.116 70.331 152.929 68.8573C152.741 67.3835 152.189 66.2467 151.695 66.3181C151.201 66.3895 150.953 67.6421 151.14 69.1158C151.328 70.5896 151.88 71.7264 152.374 71.655Z" fill="#3F3D56"/>
<path d="M151.292 64.7304C151.786 64.659 152.034 63.4064 151.847 61.9326C151.659 60.4589 151.107 59.322 150.613 59.3934C150.119 59.4648 149.871 60.7174 150.058 62.1912C150.246 63.665 150.798 64.8018 151.292 64.7304Z" fill="#3F3D56"/>
<path d="M158.15 67.4233C158.643 67.3519 158.892 66.0993 158.704 64.6255C158.517 63.1518 157.964 62.0149 157.47 62.0864C156.977 62.1578 156.728 63.4104 156.916 64.8841C157.103 66.3579 157.656 67.4947 158.15 67.4233Z" fill="#3F3D56"/>
<path d="M126.058 42.475C124.077 42.4688 122.1 42.6737 120.157 43.0867C117.969 43.5521 115.699 44.11 113.468 44.8371C109.985 44.6562 107.422 43.6945 106.906 42.2134C110.967 39.7128 115.923 38.1009 121.6 37.3161C123.963 36.9811 126.352 36.9037 128.729 37.0853C128.981 37.2425 129.198 37.4548 129.368 37.708C129.537 37.9613 129.654 38.2499 129.711 38.5548C129.881 39.8936 128.448 41.317 126.058 42.475Z" fill="#3F3D56"/>
<path d="M103.014 79.9028L100.234 67.5885C100.135 67.1442 99.9152 66.741 99.6018 66.4296C99.2884 66.1182 98.8957 65.9124 98.4729 65.8381C98.3535 65.8182 98.2328 65.808 98.112 65.8073C97.9417 65.8079 97.7721 65.8299 97.6066 65.8727L96.531 66.1497C95.1461 66.5067 93.9506 67.4346 93.2069 68.73C92.4633 70.0253 92.2321 71.5822 92.5642 73.0589L93.8095 78.5833C94.0938 79.8839 94.771 81.0489 95.7369 81.8995C95.8935 82.0341 96.0574 82.1587 96.2278 82.2726C96.8328 82.6768 97.5077 82.9476 98.2126 83.0692C98.9175 83.1908 99.638 83.1606 100.332 82.9805L101.404 82.7035C101.687 82.633 101.954 82.5007 102.187 82.3149C102.534 82.0456 102.797 81.6724 102.945 81.2429C103.092 80.8134 103.116 80.3469 103.014 79.9028Z" fill="#3B90FA"/>
<path d="M97.1885 77.6116C97.6731 77.4873 97.8012 76.2144 97.4747 74.7684C97.1482 73.3224 96.4908 72.251 96.0062 72.3752C95.5217 72.4995 95.3936 73.7725 95.72 75.2184C96.0465 76.6644 96.704 77.7359 97.1885 77.6116Z" fill="#3F3D56"/>
<path d="M93.5791 78.7657C94.0637 78.6414 94.1918 77.3685 93.8653 75.9225C93.5388 74.4765 92.8814 73.4051 92.3969 73.5293C91.9123 73.6536 91.7842 74.9266 92.1107 76.3726C92.4371 77.8185 93.0946 78.89 93.5791 78.7657Z" fill="#3F3D56"/>
<path d="M103.191 79.8567L100.411 67.5423C100.303 67.0616 100.064 66.6256 99.7245 66.2889C99.3849 65.9523 98.9596 65.7299 98.502 65.6495L102.296 82.4688C102.67 82.1764 102.955 81.7722 103.114 81.3073C103.274 80.8424 103.3 80.3376 103.191 79.8567Z" fill="white"/>
<path d="M93.1932 70.6199C93.1165 70.2775 92.9725 69.9562 92.7709 69.6774C92.3802 70.7558 92.3084 71.9358 92.5651 73.059L93.8104 78.5833C94.0947 79.8839 94.7719 81.0489 95.7379 81.8995L93.1932 70.6199Z" fill="#3F3D56"/>
</g>
<defs>
<clipPath id="clip0_169_2547">
<rect width="330" height="304" fill="white"/>
</clipPath>
</defs>
</svg>
