<svg width="506" height="472" viewBox="0 0 506 472" fill="none" xmlns="http://www.w3.org/2000/svg">
<g clip-path="url(#clip0_620_4597)">
<path d="M456.298 245.636C456.364 304.041 435.314 360.199 397.573 402.305C395.297 404.86 392.96 407.353 390.562 409.785C386.909 413.512 383.132 417.095 379.233 420.533C342.757 452.762 297.221 470.872 249.971 471.943C248.397 471.981 246.816 472 245.23 472C207.547 472 160.15 450.414 117.138 420.533C113.58 418.061 110.053 415.532 106.557 412.945C104.924 411.747 103.298 410.532 101.68 409.301C85.0907 396.738 69.3443 382.943 54.5567 368.015C44.8747 358.27 35.7956 347.859 27.3771 336.847C-5.67216 293.128 -12.9616 253.734 34.1557 245.636C39.7342 244.681 45.1483 243.659 50.3981 242.572C58.0025 241.004 65.2801 239.312 72.2309 237.494C81.5938 235.054 90.3903 232.408 98.6204 229.555C101.389 228.6 104.094 227.625 106.736 226.631C145.791 211.92 171.931 192.736 189.724 171.921C192.742 168.398 195.524 164.832 198.071 161.224C201.967 155.732 205.507 149.958 208.664 143.945C213.021 135.59 216.681 126.838 219.601 117.791L219.761 117.294C233.919 73.4983 229.611 32.8753 245.23 19.2791C311.994 -38.8457 395.113 43.9294 434.127 141.543C436.093 146.462 437.943 151.41 439.676 156.388C440.454 158.612 441.205 160.839 441.927 163.072C443.828 168.888 445.553 174.72 447.102 180.567C447.696 182.797 448.262 185.025 448.801 187.25C449.377 189.652 449.93 192.048 450.441 194.443C454.237 211.984 456.298 229.281 456.298 245.636Z" fill="#4C749A"/>
<path d="M249.971 471.943C248.397 471.981 246.816 472 245.23 472C207.547 472 160.15 450.415 117.138 420.533C113.58 418.061 110.053 415.532 106.558 412.945L109.623 392.94L202.426 379.726L249.003 417.921L249.971 471.943Z" fill="#2F2E41"/>
<path d="M254.438 114.714H241.213C240.804 114.714 240.411 114.889 240.122 115.199C239.832 115.51 239.669 115.931 239.669 116.37V130.559C239.669 130.776 239.709 130.991 239.787 131.192C239.865 131.392 239.979 131.574 240.122 131.728C240.266 131.881 240.436 132.002 240.623 132.085C240.81 132.168 241.011 132.21 241.213 132.209H254.438C254.847 132.209 255.239 132.036 255.528 131.727C255.818 131.417 255.981 130.997 255.983 130.559V116.37C255.981 115.931 255.818 115.511 255.529 115.2C255.239 114.89 254.847 114.715 254.438 114.714V114.714Z" fill="white"/>
<path d="M254.438 138.893H241.213C240.804 138.893 240.411 139.067 240.122 139.378C239.832 139.689 239.669 140.11 239.669 140.549V154.738C239.669 154.955 239.709 155.17 239.787 155.371C239.865 155.571 239.979 155.753 240.122 155.906C240.266 156.06 240.436 156.181 240.623 156.264C240.81 156.346 241.011 156.389 241.213 156.388H254.438C254.847 156.388 255.239 156.215 255.528 155.905C255.818 155.596 255.981 155.176 255.983 154.738V140.549C255.981 140.11 255.818 139.69 255.529 139.379C255.239 139.069 254.847 138.894 254.438 138.893Z" fill="#E6E6E6"/>
<path d="M254.438 163.071H241.213C240.804 163.072 240.411 163.246 240.121 163.557C239.832 163.867 239.669 164.289 239.669 164.728V178.91C239.669 179.128 239.708 179.343 239.786 179.545C239.863 179.746 239.977 179.929 240.12 180.082C240.264 180.236 240.434 180.358 240.622 180.441C240.809 180.525 241.011 180.567 241.213 180.567H254.438C254.848 180.566 255.24 180.392 255.53 180.081C255.82 179.771 255.982 179.35 255.983 178.91V164.728C255.981 164.289 255.818 163.868 255.529 163.558C255.239 163.248 254.847 163.073 254.438 163.071V163.071Z" fill="#E6E6E6"/>
<path d="M255.959 188.614C255.893 188.232 255.705 187.887 255.427 187.639C255.15 187.39 254.8 187.252 254.438 187.25H241.213C240.804 187.251 240.411 187.425 240.122 187.736C239.832 188.047 239.669 188.468 239.669 188.907V203.089C239.669 203.307 239.708 203.523 239.786 203.724C239.863 203.925 239.977 204.108 240.12 204.262C240.264 204.416 240.434 204.538 240.622 204.621C240.809 204.704 241.011 204.746 241.213 204.746H254.438C254.848 204.746 255.24 204.571 255.53 204.261C255.82 203.95 255.982 203.529 255.983 203.089V188.907C255.984 188.809 255.976 188.711 255.959 188.614V188.614Z" fill="#E6E6E6"/>
<path d="M255.038 211.557C254.848 211.472 254.644 211.429 254.438 211.429H241.213C241.011 211.429 240.809 211.471 240.622 211.554C240.434 211.638 240.264 211.76 240.12 211.913C239.977 212.067 239.863 212.25 239.786 212.451C239.708 212.652 239.669 212.868 239.669 213.086V227.268C239.668 227.486 239.707 227.702 239.785 227.903C239.862 228.105 239.976 228.288 240.119 228.442C240.263 228.596 240.433 228.718 240.621 228.801C240.809 228.883 241.01 228.926 241.213 228.925H254.438C254.848 228.924 255.24 228.75 255.53 228.439C255.82 228.129 255.982 227.707 255.983 227.268V213.086C255.982 212.76 255.892 212.441 255.724 212.169C255.556 211.897 255.318 211.685 255.038 211.557Z" fill="#E6E6E6"/>
<path d="M282.218 114.714H268.994C268.584 114.714 268.191 114.889 267.902 115.199C267.612 115.51 267.449 115.931 267.449 116.37V130.559C267.449 130.776 267.49 130.991 267.567 131.192C267.645 131.392 267.759 131.574 267.902 131.728C268.046 131.881 268.216 132.002 268.403 132.085C268.591 132.168 268.791 132.21 268.994 132.209H282.218C282.627 132.209 283.019 132.036 283.309 131.727C283.598 131.417 283.761 130.997 283.763 130.559V116.37C283.762 115.931 283.599 115.511 283.309 115.2C283.02 114.89 282.628 114.715 282.218 114.714V114.714Z" fill="#E6E6E6"/>
<path d="M282.218 138.893H268.994C268.584 138.893 268.191 139.067 267.902 139.378C267.612 139.689 267.449 140.11 267.449 140.549V154.738C267.449 154.955 267.49 155.17 267.567 155.371C267.645 155.571 267.759 155.753 267.902 155.906C268.046 156.06 268.216 156.181 268.403 156.264C268.591 156.346 268.791 156.389 268.994 156.388H282.218C282.627 156.388 283.019 156.215 283.309 155.905C283.598 155.596 283.761 155.176 283.763 154.738V140.549C283.762 140.11 283.599 139.69 283.309 139.379C283.02 139.069 282.628 138.894 282.218 138.893Z" fill="#346DB5"/>
<path d="M282.218 163.071H268.994C268.584 163.072 268.191 163.246 267.902 163.557C267.612 163.867 267.449 164.289 267.449 164.728V178.91C267.449 179.128 267.489 179.343 267.566 179.545C267.643 179.746 267.757 179.929 267.901 180.082C268.044 180.236 268.215 180.358 268.402 180.441C268.59 180.525 268.791 180.567 268.994 180.567H282.218C282.628 180.566 283.021 180.392 283.31 180.081C283.6 179.771 283.763 179.35 283.763 178.91V164.728C283.762 164.289 283.599 163.868 283.309 163.558C283.02 163.248 282.628 163.073 282.218 163.071V163.071Z" fill="#346DB5"/>
<path d="M282.218 187.25H268.994C268.67 187.251 268.354 187.36 268.092 187.564C267.83 187.768 267.634 188.055 267.532 188.385C267.477 188.552 267.449 188.729 267.449 188.907V203.089C267.449 203.307 267.488 203.523 267.566 203.724C267.643 203.925 267.757 204.108 267.901 204.262C268.044 204.416 268.215 204.538 268.402 204.621C268.59 204.704 268.791 204.746 268.994 204.746H282.218C282.628 204.746 283.021 204.571 283.31 204.261C283.6 203.95 283.763 203.529 283.763 203.089V188.907C283.762 188.468 283.599 188.048 283.309 187.737C283.02 187.427 282.628 187.252 282.218 187.25V187.25Z" fill="#346DB5"/>
<path d="M282.218 211.429H268.994C268.791 211.429 268.59 211.471 268.402 211.554C268.215 211.638 268.044 211.76 267.901 211.913C267.757 212.067 267.643 212.25 267.566 212.451C267.489 212.652 267.449 212.868 267.449 213.086V227.268C267.449 227.486 267.489 227.701 267.566 227.903C267.643 228.104 267.757 228.286 267.901 228.44C268.044 228.594 268.215 228.716 268.402 228.799C268.59 228.883 268.791 228.925 268.994 228.925H282.218C282.628 228.924 283.021 228.75 283.31 228.439C283.6 228.129 283.763 227.707 283.763 227.268V213.086C283.763 212.646 283.6 212.225 283.31 211.915C283.021 211.604 282.628 211.429 282.218 211.429V211.429Z" fill="#E6E6E6"/>
<path d="M309.997 114.714H296.773C296.363 114.714 295.971 114.889 295.681 115.199C295.391 115.51 295.229 115.931 295.229 116.37V130.559C295.229 130.776 295.269 130.991 295.347 131.192C295.424 131.392 295.538 131.574 295.682 131.728C295.825 131.881 295.995 132.002 296.183 132.085C296.37 132.168 296.571 132.21 296.773 132.209H309.997C310.406 132.209 310.798 132.036 311.088 131.727C311.377 131.417 311.541 130.997 311.542 130.559V116.37C311.541 115.931 311.378 115.511 311.088 115.2C310.799 114.89 310.407 114.715 309.997 114.714V114.714Z" fill="#346DB5"/>
<path d="M309.997 138.893H296.773C296.363 138.893 295.971 139.067 295.681 139.378C295.391 139.689 295.229 140.11 295.229 140.549V154.738C295.229 154.955 295.269 155.17 295.347 155.371C295.424 155.571 295.538 155.753 295.682 155.906C295.825 156.06 295.995 156.181 296.183 156.264C296.37 156.346 296.571 156.389 296.773 156.388H309.997C310.406 156.388 310.798 156.215 311.088 155.905C311.377 155.596 311.541 155.176 311.542 154.738V140.549C311.541 140.11 311.378 139.69 311.088 139.379C310.799 139.069 310.407 138.894 309.997 138.893Z" fill="#346DB5"/>
<path d="M309.997 163.071H296.773C296.363 163.072 295.971 163.246 295.681 163.557C295.391 163.867 295.229 164.289 295.229 164.728V178.91C295.228 179.128 295.268 179.343 295.345 179.545C295.423 179.746 295.536 179.929 295.68 180.082C295.823 180.236 295.994 180.358 296.182 180.441C296.369 180.525 296.57 180.567 296.773 180.567H309.997C310.407 180.566 310.8 180.392 311.089 180.081C311.379 179.771 311.542 179.35 311.542 178.91V164.728C311.541 164.289 311.378 163.868 311.088 163.558C310.799 163.248 310.407 163.073 309.997 163.071V163.071Z" fill="#E6E6E6"/>
<path d="M309.997 187.25H296.773C296.363 187.251 295.971 187.425 295.681 187.736C295.392 188.047 295.229 188.468 295.229 188.907V203.089C295.228 203.307 295.268 203.523 295.345 203.724C295.423 203.925 295.536 204.108 295.68 204.262C295.823 204.416 295.994 204.538 296.182 204.621C296.369 204.704 296.57 204.746 296.773 204.746H309.997C310.407 204.746 310.8 204.571 311.089 204.261C311.379 203.95 311.542 203.529 311.542 203.089V188.907C311.541 188.468 311.378 188.048 311.088 187.737C310.799 187.427 310.407 187.252 309.997 187.25V187.25Z" fill="#346DB5"/>
<path d="M309.997 211.429H296.773C296.57 211.429 296.369 211.471 296.182 211.554C295.994 211.638 295.823 211.76 295.68 211.913C295.536 212.067 295.423 212.25 295.345 212.451C295.268 212.652 295.228 212.868 295.229 213.086V227.268C295.228 227.486 295.268 227.701 295.345 227.903C295.423 228.104 295.536 228.286 295.68 228.44C295.823 228.594 295.994 228.716 296.182 228.799C296.369 228.883 296.57 228.925 296.773 228.925H309.997C310.407 228.924 310.8 228.75 311.089 228.439C311.379 228.129 311.542 227.707 311.542 227.268V213.086C311.542 212.646 311.379 212.225 311.089 211.915C310.8 211.604 310.407 211.429 309.997 211.429V211.429Z" fill="#346DB5"/>
<path d="M337.777 114.714H324.552C324.143 114.714 323.75 114.889 323.46 115.199C323.171 115.51 323.008 115.931 323.008 116.37V130.559C323.008 130.776 323.048 130.991 323.126 131.192C323.204 131.392 323.318 131.574 323.461 131.728C323.605 131.881 323.775 132.002 323.962 132.085C324.149 132.168 324.35 132.21 324.552 132.209H337.777C338.186 132.209 338.578 132.036 338.867 131.727C339.157 131.417 339.32 130.997 339.322 130.559V116.37C339.32 115.931 339.157 115.511 338.868 115.2C338.578 114.89 338.186 114.715 337.777 114.714V114.714Z" fill="#346DB5"/>
<path d="M337.777 138.893H324.552C324.143 138.893 323.75 139.067 323.46 139.378C323.171 139.689 323.008 140.11 323.008 140.549V154.738C323.008 154.955 323.048 155.17 323.126 155.371C323.204 155.571 323.318 155.753 323.461 155.906C323.605 156.06 323.775 156.181 323.962 156.264C324.149 156.346 324.35 156.389 324.552 156.388H337.777C338.186 156.388 338.578 156.215 338.867 155.905C339.157 155.596 339.32 155.176 339.322 154.738V140.549C339.32 140.11 339.157 139.69 338.868 139.379C338.578 139.069 338.186 138.894 337.777 138.893V138.893Z" fill="white"/>
<path d="M337.777 163.071H324.552C324.143 163.072 323.75 163.246 323.46 163.557C323.171 163.867 323.008 164.289 323.008 164.728V178.91C323.007 179.128 323.047 179.344 323.125 179.545C323.202 179.746 323.316 179.929 323.459 180.082C323.603 180.236 323.773 180.358 323.961 180.441C324.148 180.525 324.349 180.567 324.552 180.567H337.777C338.187 180.566 338.579 180.392 338.869 180.081C339.159 179.771 339.321 179.35 339.322 178.91V164.728C339.32 164.289 339.157 163.868 338.868 163.558C338.578 163.248 338.186 163.073 337.777 163.071V163.071Z" fill="white"/>
<path d="M337.777 187.25H324.552C324.143 187.251 323.75 187.425 323.46 187.736C323.171 188.047 323.008 188.468 323.008 188.907V203.089C323.007 203.307 323.047 203.523 323.125 203.724C323.202 203.925 323.316 204.108 323.459 204.262C323.603 204.416 323.773 204.538 323.961 204.621C324.148 204.704 324.349 204.746 324.552 204.746H337.777C338.187 204.746 338.579 204.571 338.869 204.261C339.159 203.95 339.321 203.529 339.322 203.089V188.907C339.32 188.468 339.157 188.048 338.868 187.737C338.578 187.427 338.186 187.252 337.777 187.25V187.25Z" fill="#E6E6E6"/>
<path d="M337.777 211.429H324.552C324.349 211.429 324.148 211.471 323.961 211.554C323.773 211.638 323.603 211.76 323.459 211.913C323.316 212.067 323.202 212.25 323.125 212.451C323.047 212.652 323.007 212.868 323.008 213.086V227.268C323.007 227.486 323.047 227.701 323.125 227.903C323.202 228.104 323.316 228.286 323.459 228.44C323.603 228.594 323.773 228.716 323.961 228.799C324.148 228.883 324.349 228.925 324.552 228.925H337.777C338.187 228.924 338.579 228.75 338.869 228.439C339.159 228.129 339.321 227.707 339.322 227.268V213.086C339.321 212.646 339.159 212.225 338.869 211.915C338.579 211.604 338.187 211.429 337.777 211.429V211.429Z" fill="#346DB5"/>
<path d="M365.557 114.714H352.327C351.918 114.715 351.527 114.891 351.238 115.201C350.95 115.512 350.788 115.932 350.788 116.37V130.559C350.788 130.997 350.95 131.416 351.239 131.726C351.527 132.035 351.919 132.209 352.327 132.209H365.557C365.966 132.209 366.358 132.036 366.647 131.727C366.937 131.417 367.1 130.997 367.102 130.559V116.37C367.101 115.931 366.938 115.511 366.648 115.2C366.359 114.89 365.966 114.715 365.557 114.714Z" fill="white"/>
<path d="M365.557 138.893H352.327C351.918 138.894 351.527 139.069 351.238 139.38C350.95 139.69 350.788 140.111 350.788 140.549V154.738C350.788 155.175 350.95 155.595 351.239 155.905C351.527 156.214 351.919 156.388 352.327 156.388H365.557C365.966 156.388 366.358 156.215 366.647 155.905C366.937 155.596 367.1 155.176 367.102 154.738V140.549C367.101 140.11 366.938 139.69 366.648 139.379C366.359 139.069 365.966 138.894 365.557 138.893V138.893Z" fill="white"/>
<path d="M365.557 163.071H352.327C351.918 163.073 351.527 163.248 351.238 163.559C350.95 163.869 350.788 164.29 350.788 164.728V178.91C350.788 179.127 350.827 179.343 350.904 179.543C350.981 179.744 351.094 179.927 351.237 180.081C351.38 180.235 351.55 180.357 351.737 180.44C351.924 180.523 352.124 180.566 352.327 180.567H365.557C365.967 180.567 366.36 180.392 366.649 180.081C366.939 179.771 367.102 179.35 367.102 178.91V164.728C367.101 164.289 366.938 163.868 366.648 163.558C366.359 163.248 365.966 163.073 365.557 163.071V163.071Z" fill="white"/>
<path d="M365.557 187.25H352.327C351.918 187.252 351.527 187.427 351.238 187.738C350.95 188.048 350.788 188.469 350.788 188.907V203.089C350.788 203.307 350.827 203.522 350.904 203.723C350.981 203.923 351.094 204.106 351.237 204.26C351.38 204.414 351.55 204.536 351.737 204.619C351.924 204.703 352.124 204.746 352.327 204.746H365.557C365.967 204.746 366.36 204.571 366.649 204.261C366.939 203.95 367.102 203.529 367.102 203.089V188.907C367.101 188.468 366.938 188.048 366.648 187.737C366.359 187.427 365.966 187.252 365.557 187.25V187.25Z" fill="#346DB5"/>
<path d="M365.557 211.429H352.327C352.124 211.429 351.924 211.472 351.737 211.556C351.55 211.639 351.38 211.761 351.237 211.915C351.094 212.069 350.981 212.252 350.904 212.453C350.827 212.653 350.788 212.869 350.788 213.086V227.268C350.788 227.485 350.827 227.7 350.904 227.901C350.981 228.102 351.094 228.285 351.237 228.439C351.38 228.592 351.55 228.715 351.737 228.798C351.924 228.881 352.124 228.924 352.327 228.925H365.557C365.967 228.924 366.36 228.75 366.649 228.439C366.939 228.129 367.102 227.707 367.102 227.268V213.086C367.102 212.646 366.939 212.225 366.649 211.915C366.36 211.604 365.967 211.429 365.557 211.429V211.429Z" fill="#E6E6E6"/>
<path d="M393.336 114.714H380.106C379.697 114.715 379.306 114.891 379.018 115.201C378.729 115.512 378.567 115.932 378.567 116.37V130.559C378.567 130.997 378.73 131.416 379.018 131.726C379.307 132.035 379.698 132.209 380.106 132.209H393.336C393.745 132.209 394.137 132.036 394.427 131.726C394.716 131.417 394.88 130.997 394.881 130.559V116.37C394.88 115.931 394.717 115.511 394.427 115.2C394.138 114.89 393.746 114.715 393.336 114.714V114.714Z" fill="white"/>
<path d="M393.336 138.893H380.106C379.697 138.894 379.306 139.069 379.018 139.38C378.729 139.69 378.567 140.111 378.567 140.549V154.738C378.567 155.175 378.73 155.595 379.018 155.905C379.307 156.214 379.698 156.388 380.106 156.388H393.336C393.745 156.388 394.137 156.215 394.427 155.905C394.716 155.596 394.88 155.176 394.881 154.738V140.549C394.88 140.11 394.717 139.69 394.427 139.379C394.138 139.069 393.746 138.894 393.336 138.893V138.893Z" fill="white"/>
<path d="M393.336 163.071H380.106C379.697 163.073 379.306 163.248 379.018 163.559C378.729 163.869 378.567 164.29 378.567 164.728V178.91C378.567 179.127 378.606 179.343 378.683 179.543C378.76 179.744 378.874 179.927 379.016 180.081C379.159 180.235 379.329 180.357 379.516 180.44C379.703 180.523 379.904 180.566 380.106 180.567H393.336C393.746 180.566 394.139 180.392 394.428 180.081C394.718 179.771 394.881 179.35 394.881 178.91V164.728C394.88 164.289 394.717 163.868 394.427 163.558C394.138 163.248 393.746 163.073 393.336 163.071V163.071Z" fill="#346DB5"/>
<path d="M393.336 187.25H380.106C379.697 187.252 379.306 187.427 379.018 187.738C378.729 188.048 378.567 188.469 378.567 188.907V203.089C378.567 203.307 378.606 203.522 378.683 203.723C378.76 203.923 378.874 204.106 379.016 204.26C379.159 204.414 379.329 204.536 379.516 204.619C379.703 204.703 379.904 204.746 380.106 204.746H393.336C393.746 204.746 394.139 204.571 394.428 204.261C394.718 203.95 394.881 203.529 394.881 203.089V188.907C394.88 188.468 394.717 188.048 394.427 187.737C394.138 187.427 393.746 187.252 393.336 187.25V187.25Z" fill="#E6E6E6"/>
<path d="M393.336 211.429H380.106C379.904 211.429 379.703 211.472 379.516 211.556C379.329 211.639 379.159 211.761 379.016 211.915C378.874 212.069 378.76 212.252 378.683 212.453C378.606 212.653 378.567 212.869 378.567 213.086V227.268C378.567 227.485 378.606 227.7 378.683 227.901C378.76 228.102 378.874 228.285 379.016 228.439C379.159 228.592 379.329 228.715 379.516 228.798C379.703 228.881 379.904 228.924 380.106 228.925H393.336C393.746 228.924 394.139 228.75 394.428 228.439C394.718 228.129 394.881 227.707 394.881 227.268V213.086C394.881 212.646 394.718 212.225 394.428 211.915C394.139 211.604 393.746 211.429 393.336 211.429Z" fill="white"/>
<path d="M421.117 114.714H407.886C407.478 114.715 407.086 114.891 406.798 115.201C406.509 115.512 406.348 115.932 406.348 116.37V130.559C406.348 130.997 406.51 131.416 406.798 131.726C407.087 132.035 407.478 132.209 407.886 132.209H421.117C421.525 132.209 421.917 132.036 422.207 131.726C422.497 131.417 422.66 130.997 422.661 130.559V116.37C422.66 115.931 422.497 115.511 422.208 115.2C421.918 114.89 421.526 114.715 421.117 114.714V114.714Z" fill="#346DB5"/>
<path d="M421.117 138.893H407.886C407.478 138.894 407.086 139.069 406.798 139.38C406.509 139.69 406.347 140.111 406.348 140.549V154.738C406.348 155.175 406.51 155.595 406.798 155.905C407.087 156.214 407.478 156.388 407.886 156.388H421.117C421.525 156.388 421.917 156.215 422.207 155.905C422.497 155.596 422.66 155.176 422.661 154.738V140.549C422.66 140.11 422.497 139.69 422.208 139.379C421.918 139.069 421.526 138.894 421.117 138.893Z" fill="#346DB5"/>
<path d="M421.117 163.071H407.886C407.478 163.073 407.086 163.248 406.798 163.559C406.509 163.869 406.348 164.29 406.348 164.728V178.91C406.347 179.127 406.386 179.343 406.464 179.543C406.541 179.744 406.654 179.927 406.797 180.081C406.94 180.235 407.109 180.357 407.296 180.44C407.483 180.523 407.684 180.566 407.886 180.567H421.117C421.526 180.566 421.919 180.392 422.209 180.081C422.498 179.771 422.661 179.35 422.661 178.91V164.728C422.66 164.289 422.497 163.868 422.208 163.558C421.918 163.248 421.526 163.073 421.117 163.071V163.071Z" fill="#E6E6E6"/>
<path d="M421.117 187.25H407.886C407.478 187.252 407.086 187.427 406.798 187.738C406.509 188.048 406.348 188.469 406.348 188.907V203.089C406.347 203.307 406.386 203.522 406.464 203.723C406.541 203.923 406.654 204.106 406.797 204.26C406.94 204.414 407.109 204.536 407.296 204.619C407.483 204.703 407.684 204.746 407.886 204.746H421.117C421.526 204.746 421.919 204.571 422.209 204.261C422.498 203.95 422.661 203.529 422.661 203.089V188.907C422.66 188.468 422.497 188.048 422.208 187.737C421.918 187.427 421.526 187.252 421.117 187.25V187.25Z" fill="white"/>
<path d="M421.117 211.429H407.886C407.684 211.429 407.483 211.472 407.296 211.556C407.109 211.639 406.94 211.761 406.797 211.915C406.654 212.069 406.541 212.252 406.464 212.453C406.386 212.653 406.347 212.869 406.348 213.086V227.268C406.347 227.485 406.386 227.7 406.464 227.901C406.541 228.102 406.654 228.285 406.797 228.439C406.94 228.592 407.109 228.715 407.296 228.798C407.483 228.881 407.684 228.924 407.886 228.925H421.117C421.526 228.924 421.919 228.75 422.209 228.439C422.498 228.129 422.661 227.707 422.661 227.268V213.086C422.661 212.646 422.498 212.225 422.209 211.915C421.919 211.604 421.526 211.429 421.117 211.429Z" fill="#346DB5"/>
<path d="M448.896 114.714H435.666C435.257 114.715 434.866 114.891 434.577 115.201C434.289 115.512 434.127 115.932 434.127 116.37V130.559C434.127 130.997 434.289 131.416 434.578 131.726C434.866 132.035 435.258 132.209 435.666 132.209H448.896C449.305 132.209 449.697 132.036 449.986 131.726C450.276 131.417 450.439 130.997 450.441 130.559V116.37C450.439 115.931 450.276 115.511 449.987 115.2C449.698 114.89 449.305 114.715 448.896 114.714Z" fill="#346DB5"/>
<path d="M448.896 138.893H435.666C435.257 138.894 434.866 139.069 434.577 139.38C434.289 139.69 434.127 140.111 434.127 140.549V154.738C434.127 155.175 434.289 155.595 434.578 155.905C434.866 156.214 435.258 156.388 435.666 156.388H448.896C449.305 156.388 449.697 156.215 449.986 155.905C450.276 155.596 450.439 155.176 450.441 154.738V140.549C450.44 140.11 450.276 139.69 449.987 139.379C449.698 139.069 449.305 138.894 448.896 138.893V138.893Z" fill="#346DB5"/>
<path d="M448.896 163.071H435.666C435.257 163.073 434.866 163.248 434.577 163.559C434.289 163.869 434.127 164.29 434.127 164.728V178.91C434.126 179.127 434.166 179.343 434.243 179.543C434.32 179.744 434.433 179.927 434.576 180.081C434.719 180.235 434.889 180.357 435.076 180.44C435.263 180.523 435.463 180.566 435.666 180.567H448.896C449.306 180.566 449.698 180.392 449.988 180.081C450.278 179.771 450.441 179.35 450.441 178.91V164.728C450.44 164.289 450.276 163.868 449.987 163.558C449.698 163.248 449.305 163.073 448.896 163.071Z" fill="#E6E6E6"/>
<path d="M448.896 187.25H435.666C435.257 187.252 434.866 187.427 434.577 187.738C434.289 188.048 434.127 188.469 434.127 188.907V203.089C434.126 203.307 434.166 203.522 434.243 203.723C434.32 203.923 434.433 204.106 434.576 204.26C434.719 204.414 434.889 204.536 435.076 204.619C435.263 204.703 435.463 204.746 435.666 204.746H448.896C449.306 204.746 449.698 204.571 449.988 204.261C450.278 203.95 450.441 203.529 450.441 203.089V188.907C450.44 188.468 450.276 188.048 449.987 187.737C449.698 187.427 449.305 187.252 448.896 187.25V187.25Z" fill="#346DB5"/>
<path d="M448.896 211.429H435.666C435.463 211.429 435.263 211.472 435.076 211.556C434.889 211.639 434.719 211.761 434.576 211.915C434.433 212.069 434.32 212.252 434.243 212.453C434.166 212.653 434.126 212.869 434.127 213.086V227.268C434.126 227.485 434.166 227.7 434.243 227.901C434.32 228.102 434.433 228.285 434.576 228.439C434.719 228.592 434.889 228.715 435.076 228.798C435.263 228.881 435.463 228.924 435.666 228.925H448.896C449.306 228.924 449.698 228.75 449.988 228.439C450.278 228.129 450.441 227.707 450.441 227.268V213.086C450.441 212.646 450.278 212.225 449.988 211.915C449.698 211.604 449.306 211.429 448.896 211.429V211.429Z" fill="#346DB5"/>
<path d="M476.675 114.714H463.445C463.036 114.715 462.645 114.891 462.356 115.201C462.068 115.512 461.906 115.932 461.906 116.37V130.559C461.906 130.997 462.068 131.416 462.357 131.726C462.646 132.035 463.037 132.209 463.445 132.209H476.675C477.084 132.209 477.476 132.036 477.766 131.726C478.055 131.417 478.218 130.997 478.22 130.559V116.37C478.219 115.931 478.056 115.511 477.766 115.2C477.477 114.89 477.085 114.715 476.675 114.714V114.714Z" fill="#E6E6E6"/>
<path d="M476.675 138.893H463.445C463.036 138.894 462.645 139.069 462.356 139.38C462.068 139.69 461.906 140.111 461.906 140.549V154.738C461.906 155.175 462.068 155.595 462.357 155.905C462.646 156.214 463.037 156.388 463.445 156.388H476.675C477.084 156.388 477.476 156.215 477.766 155.905C478.055 155.596 478.218 155.176 478.22 154.738V140.549C478.219 140.11 478.056 139.69 477.766 139.379C477.477 139.069 477.085 138.894 476.675 138.893V138.893Z" fill="#346DB5"/>
<path d="M476.675 163.071H463.445C463.036 163.073 462.645 163.248 462.356 163.559C462.068 163.869 461.906 164.29 461.906 164.728V178.91C461.906 179.127 461.945 179.343 462.022 179.543C462.099 179.744 462.212 179.927 462.355 180.081C462.498 180.235 462.668 180.357 462.855 180.44C463.042 180.523 463.242 180.566 463.445 180.567H476.675C477.085 180.566 477.478 180.392 477.767 180.081C478.057 179.771 478.22 179.35 478.22 178.91V164.728C478.219 164.289 478.056 163.868 477.766 163.558C477.477 163.248 477.085 163.073 476.675 163.071V163.071Z" fill="#346DB5"/>
<path d="M476.675 187.25H463.445C463.036 187.252 462.645 187.427 462.356 187.738C462.068 188.048 461.906 188.469 461.906 188.907V203.089C461.906 203.307 461.945 203.522 462.022 203.723C462.099 203.923 462.212 204.106 462.355 204.26C462.498 204.414 462.668 204.536 462.855 204.619C463.042 204.703 463.242 204.746 463.445 204.746H476.675C477.085 204.746 477.478 204.571 477.767 204.261C478.057 203.95 478.22 203.529 478.22 203.089V188.907C478.219 188.468 478.056 188.048 477.766 187.737C477.477 187.427 477.085 187.252 476.675 187.25V187.25Z" fill="#346DB5"/>
<path d="M476.675 211.429H463.445C463.242 211.429 463.042 211.472 462.855 211.556C462.668 211.639 462.498 211.761 462.355 211.915C462.212 212.069 462.099 212.252 462.022 212.453C461.945 212.653 461.906 212.869 461.906 213.086V227.268C461.906 227.485 461.945 227.7 462.022 227.901C462.099 228.102 462.212 228.285 462.355 228.439C462.498 228.592 462.668 228.715 462.855 228.798C463.042 228.881 463.242 228.924 463.445 228.925H476.675C477.085 228.924 477.478 228.75 477.767 228.439C478.057 228.129 478.22 227.707 478.22 227.268V213.086C478.22 212.646 478.057 212.225 477.767 211.915C477.478 211.604 477.085 211.429 476.675 211.429V211.429Z" fill="#E6E6E6"/>
<path d="M504.456 114.714H491.225C490.817 114.715 490.425 114.891 490.137 115.201C489.848 115.512 489.686 115.932 489.687 116.37V130.559C489.687 130.997 489.849 131.416 490.137 131.726C490.426 132.035 490.817 132.209 491.225 132.209H504.456C504.864 132.209 505.256 132.036 505.546 131.726C505.836 131.417 505.999 130.997 506 130.559V116.37C505.999 115.931 505.836 115.511 505.547 115.2C505.257 114.89 504.865 114.715 504.456 114.714V114.714Z" fill="#E6E6E6"/>
<path d="M504.456 138.893H491.225C490.817 138.894 490.425 139.069 490.137 139.38C489.848 139.69 489.686 140.111 489.687 140.549V154.738C489.687 155.175 489.849 155.595 490.137 155.905C490.426 156.214 490.817 156.388 491.225 156.388H504.456C504.864 156.388 505.256 156.215 505.546 155.905C505.836 155.596 505.999 155.176 506 154.738V140.549C505.999 140.11 505.836 139.69 505.547 139.379C505.257 139.069 504.865 138.894 504.456 138.893V138.893Z" fill="#E6E6E6"/>
<path d="M504.456 163.071H491.225C490.817 163.073 490.425 163.248 490.137 163.559C489.848 163.869 489.686 164.29 489.687 164.728V178.91C489.686 179.127 489.725 179.343 489.802 179.543C489.879 179.744 489.993 179.927 490.136 180.081C490.279 180.235 490.448 180.357 490.635 180.44C490.822 180.523 491.023 180.566 491.225 180.567H504.456C504.865 180.566 505.258 180.392 505.548 180.081C505.837 179.771 506 179.35 506 178.91V164.728C505.999 164.289 505.836 163.868 505.547 163.558C505.257 163.248 504.865 163.073 504.456 163.071V163.071Z" fill="#346DB5"/>
<path d="M504.456 187.25H491.225C490.817 187.252 490.425 187.427 490.137 187.738C489.848 188.048 489.686 188.469 489.687 188.907V203.089C489.686 203.307 489.725 203.522 489.802 203.723C489.879 203.923 489.993 204.106 490.136 204.26C490.279 204.414 490.448 204.536 490.635 204.619C490.822 204.703 491.023 204.746 491.225 204.746H504.456C504.865 204.746 505.258 204.571 505.548 204.261C505.837 203.95 506 203.529 506 203.089V188.907C505.999 188.468 505.836 188.048 505.547 187.737C505.257 187.427 504.865 187.252 504.456 187.25V187.25Z" fill="#E6E6E6"/>
<path d="M504.456 211.429H491.225C491.023 211.429 490.822 211.472 490.635 211.556C490.448 211.639 490.279 211.761 490.136 211.915C489.993 212.069 489.879 212.252 489.802 212.453C489.725 212.653 489.686 212.869 489.687 213.086V227.268C489.686 227.485 489.725 227.7 489.802 227.901C489.879 228.102 489.993 228.285 490.136 228.439C490.279 228.592 490.448 228.715 490.635 228.798C490.822 228.881 491.023 228.924 491.225 228.925H504.456C504.865 228.924 505.258 228.75 505.548 228.439C505.837 228.129 506 227.707 506 227.268V213.086C506 212.646 505.837 212.225 505.548 211.915C505.258 211.604 504.865 211.429 504.456 211.429V211.429Z" fill="#E6E6E6"/>
<path d="M200.375 420.533H200.006L200.322 420.489L200.375 420.533Z" fill="#2F2E41"/>
<path d="M168.721 156.13C191.138 156.13 209.31 136.641 209.31 112.601C209.31 88.5601 191.138 69.0713 168.721 69.0713C146.304 69.0713 128.131 88.5601 128.131 112.601C128.131 136.641 146.304 156.13 168.721 156.13Z" fill="#FFB6B6"/>
<path d="M204.266 80.6855C204.266 80.6855 214.882 58.9208 191.527 56.9421C191.527 56.9421 171.616 37.5721 151.321 53.401C151.321 53.401 140.252 53.401 134.198 66.8352C134.198 66.8352 125.492 63.2941 123.579 72.771C123.579 72.771 117.208 92.5572 123.579 110.365C129.949 128.172 132.065 130.151 132.065 130.151C132.065 130.151 121.597 92.8164 147.078 90.8378C172.559 88.8591 201.073 71.7818 203.196 93.5464C205.32 115.311 208.515 120.674 208.515 120.674C208.515 120.674 228.685 89.5893 204.266 80.6855Z" fill="#2F2E41"/>
<path d="M273.716 219.877L273.586 220.616L272.118 228.924L261.977 286.393L261.377 289.776L260.118 296.931L258.395 306.692L254.575 328.322L253.482 334.521L253.072 336.847L252.929 337.662L251.795 344.078L251.45 346.015L248.682 368.015L246.264 387.186L254.355 395.864L249.531 401.037L246.365 420.488L246.37 420.533H117.138C111.91 416.901 106.757 413.157 101.68 409.3L102.743 400.763C102.743 400.763 106.403 385.517 104.864 383.695C103.331 381.872 99.9688 378.617 99.9688 378.617L104.205 368.015L104.793 366.543L103.807 344.607L103.783 344.078L103.456 336.847L103.415 335.917L103.349 334.521L102.096 306.692L102.072 306.233L101.692 297.797L101.335 289.776L101.181 286.393L99.654 252.543L98.6203 229.555L97.7173 209.543L101.347 208.224L140.171 194.074L156.253 171.653L189.724 171.921L206.109 172.055L233.449 199.247L239.669 202.433L239.717 202.458L244.178 204.746L255.49 210.537L267.449 216.666L273.586 219.807L273.716 219.877Z" fill="#F2F2F2"/>
<path d="M160.578 355.229C158.126 356.248 155.494 356.678 152.87 356.488C150.245 356.299 147.692 355.494 145.388 354.132C143.085 352.769 141.088 350.882 139.539 348.602C137.99 346.323 136.925 343.707 136.42 340.938L73.1147 331.306L95.1215 304.609L151.864 317.849C156.257 317.248 160.703 318.396 164.359 321.076C168.016 323.755 170.628 327.78 171.703 332.388C172.777 336.995 172.238 341.865 170.187 346.075C168.137 350.285 164.718 353.542 160.578 355.229V355.229Z" fill="#FFB6B6"/>
<path d="M132.353 306.692C131.18 305.098 129.52 303.999 127.666 303.589L101.692 297.798L99.0246 297.205C97.4744 296.858 96.01 296.164 94.7272 295.168C93.4444 294.173 92.3722 292.897 91.5806 291.426C90.7595 289.882 90.2628 288.165 90.1251 286.393C90.0013 284.783 90.1811 283.162 90.6538 281.628L99.6543 252.543L105.494 233.671C106.202 231.395 106.62 229.027 106.736 226.631C107.061 220 105.148 213.466 101.347 208.225C98.0059 203.618 93.3712 200.286 88.128 198.721C82.8849 197.156 77.3114 197.441 72.2311 199.534C72.0826 199.592 71.9281 199.655 71.7796 199.719C68.1362 201.279 64.8811 203.727 62.2714 206.868C59.6618 210.009 57.7692 213.759 56.7431 217.82L50.3983 242.572L37.3105 293.599C36.0003 298.712 35.7356 304.067 36.5345 309.3C37.3334 314.532 39.177 319.517 41.9392 323.915C44.7013 328.312 48.3168 332.018 52.5381 334.777C56.7595 337.537 61.487 339.287 66.3971 339.905L103.807 344.607L121.119 346.786C123.121 347.044 125.14 346.484 126.773 345.217C128.407 343.95 129.536 342.069 129.935 339.95C129.963 339.834 129.985 339.717 130 339.599L130.416 336.847L133.939 313.668L133.975 313.433C134.158 312.25 134.109 311.039 133.83 309.878C133.55 308.717 133.047 307.632 132.353 306.692Z" fill="#F2F2F2"/>
<path d="M200.902 355.972C203.464 356.61 206.125 356.637 208.699 356.053C211.272 355.468 213.695 354.286 215.796 352.589C217.897 350.891 219.625 348.721 220.859 346.23C222.094 343.739 222.804 340.988 222.939 338.17L284.346 319.061L259.048 295.959L204.614 317.648C200.186 317.717 195.935 319.526 192.668 322.732C189.4 325.937 187.343 330.317 186.885 335.041C186.427 339.765 187.601 344.505 190.185 348.363C192.768 352.22 196.581 354.928 200.902 355.972V355.972Z" fill="#FFB6B6"/>
<path d="M314.834 276.314L285.628 204.23C283.24 198.312 278.973 193.492 273.586 190.627C271.921 189.748 270.172 189.064 268.37 188.588C268.091 188.512 267.812 188.442 267.532 188.384C263.711 187.49 259.748 187.569 255.96 188.614C252.497 189.568 249.261 191.294 246.462 193.679C243.664 196.065 241.365 199.056 239.717 202.458C239.699 202.487 239.683 202.516 239.67 202.548C237.829 206.367 236.85 210.596 236.812 214.896C236.773 219.195 237.677 223.444 239.45 227.3L239.812 228.077L260.451 272.529C261.156 274.049 261.553 275.712 261.616 277.408C261.679 279.104 261.408 280.796 260.819 282.372C260.23 283.947 259.337 285.371 258.198 286.551C257.06 287.73 255.702 288.638 254.213 289.215L252.763 289.776L226.695 299.875C224.739 300.623 223.13 302.156 222.207 304.152C221.283 306.147 221.118 308.449 221.746 310.572L221.811 310.795L229.119 335.872C229.154 335.987 229.19 336.101 229.231 336.216C229.296 336.432 229.375 336.643 229.469 336.847C230.246 338.715 231.618 340.224 233.34 341.104C235.062 341.983 237.02 342.175 238.862 341.644L252.93 337.662L255.799 336.847L292.128 326.557C296.908 325.203 301.359 322.756 305.175 319.386C308.992 316.015 312.084 311.799 314.24 307.028C316.397 302.256 317.566 297.042 317.669 291.74C317.771 286.439 316.804 281.177 314.834 276.314L314.834 276.314Z" fill="#F2F2F2"/>
<path d="M27.377 336.847C35.7955 347.859 44.8746 358.271 54.5566 368.015H323.068C325.654 368.02 328.134 369.124 329.963 371.086C331.792 373.049 332.82 375.709 332.823 378.483L333.209 451.453C349.727 443.314 365.196 432.922 379.233 420.533C383.13 417.099 386.906 413.517 390.562 409.785C392.956 407.351 395.293 404.858 397.572 402.305C414.661 383.214 428.498 361.06 438.458 336.847H27.377Z" fill="#3F3D56"/>
<path d="M397.572 402.305C395.297 404.86 392.96 407.353 390.562 409.785H333.404V402.305H397.572Z" fill="white"/>
<path d="M273.182 163.072C272.9 162.513 272.482 162.046 271.972 161.721C271.463 161.396 270.881 161.224 270.289 161.224H75.5222C74.649 161.227 73.8123 161.6 73.1954 162.263C72.5785 162.926 72.2317 163.824 72.231 164.76V289.777H273.586V164.76C273.589 164.169 273.45 163.588 273.182 163.072V163.072Z" fill="#3F3D56"/>
<path d="M72.0547 286.392V301.819C72.0547 302.458 72.1721 303.092 72.4004 303.682C72.6286 304.273 72.9631 304.81 73.3847 305.262C73.8064 305.715 74.307 306.073 74.858 306.318C75.409 306.563 75.9995 306.689 76.5958 306.689H150.915V337.135H149.927C149.85 337.135 149.773 337.151 149.702 337.183C149.63 337.215 149.565 337.261 149.51 337.32C149.455 337.379 149.412 337.449 149.382 337.525C149.353 337.602 149.337 337.684 149.337 337.767V339.885C149.337 339.968 149.353 340.05 149.382 340.127C149.412 340.204 149.455 340.274 149.51 340.332C149.565 340.391 149.63 340.438 149.702 340.47C149.773 340.501 149.85 340.518 149.927 340.518H196.063C196.141 340.518 196.218 340.501 196.289 340.47C196.361 340.438 196.426 340.391 196.481 340.332C196.535 340.274 196.579 340.204 196.608 340.127C196.638 340.05 196.653 339.968 196.653 339.885V337.767C196.653 337.684 196.638 337.602 196.608 337.525C196.579 337.449 196.535 337.379 196.481 337.32C196.426 337.261 196.361 337.215 196.289 337.183C196.218 337.151 196.141 337.135 196.063 337.135H195.076V306.689H269.395C269.991 306.689 270.582 306.563 271.133 306.318C271.684 306.073 272.184 305.715 272.606 305.262C273.028 304.81 273.362 304.273 273.59 303.682C273.818 303.092 273.936 302.458 273.936 301.819V286.392H72.0547Z" fill="#3F3D56"/>
<path d="M170.556 242.113C180.828 242.113 189.155 233.183 189.155 222.167C189.155 211.151 180.828 202.221 170.556 202.221C160.284 202.221 151.957 211.151 151.957 222.167C151.957 233.183 160.284 242.113 170.556 242.113Z" fill="#346DB5"/>
<path d="M217.944 110.222H214.973C214.973 86.1389 192.748 70.3573 170.327 70.3446C167.066 70.3343 163.812 70.6737 160.614 71.3576C157.014 72.1285 153.277 73.0523 149.605 74.2565C135.127 79.0158 121.701 88.2159 121.701 110.222C121.698 114.496 122.205 118.753 123.21 122.888L120.335 123.691C119.268 119.293 118.729 114.767 118.73 110.222C118.73 90.9937 126.091 77.7862 138.805 69.9113C145.488 65.77 153.645 63.1005 162.99 61.8007C166.879 61.2459 170.81 61.1178 174.723 61.4185C200.507 63.4063 217.944 84.6097 217.944 110.222Z" fill="#346DB5"/>
<path d="M222.892 111.987L221.722 102.71C221.433 100.368 220.381 98.2102 218.752 96.6196C217.705 95.5826 216.453 94.8144 215.089 94.3729C213.726 93.9314 212.286 93.8282 210.88 94.0711L209.02 94.345C208.512 94.4169 208.021 94.5963 207.577 94.8731C207.134 95.1498 206.746 95.5182 206.436 95.957C206.124 96.3943 205.895 96.8936 205.763 97.4262C205.632 97.9587 205.6 98.5139 205.67 99.0598L208.373 120.429C208.484 121.3 208.848 122.111 209.413 122.748C209.978 123.385 210.716 123.815 211.521 123.978C211.76 124.029 212.003 124.055 212.246 124.054C212.421 124.054 212.596 124.041 212.769 124.016L214.848 123.716C216.116 123.536 217.336 123.08 218.433 122.375C219.531 121.671 220.482 120.733 221.229 119.62C221.389 119.378 221.544 119.129 221.686 118.874C222.8 116.79 223.225 114.363 222.892 111.987Z" fill="#346DB5"/>
<path d="M207.82 94.7339C207.275 95.0181 206.8 95.4374 206.436 95.9572C206.124 96.3945 205.895 96.8938 205.763 97.4263C205.632 97.9589 205.6 98.5141 205.67 99.06L208.373 120.429C208.484 121.3 208.848 122.111 209.413 122.748C209.978 123.385 210.716 123.815 211.521 123.978L207.82 94.7339Z" fill="white"/>
<path d="M222.892 111.987L221.721 102.711C221.433 100.368 220.381 98.2102 218.751 96.6196L221.442 117.88C221.483 118.222 221.564 118.556 221.686 118.874C222.799 116.79 223.224 114.363 222.892 111.987V111.987Z" fill="#3F3D56"/>
<path d="M213.643 118.671C214.455 118.552 214.864 116.478 214.555 114.037C214.247 111.596 213.337 109.714 212.524 109.832C211.712 109.95 211.303 112.025 211.612 114.465C211.921 116.906 212.83 118.789 213.643 118.671Z" fill="#3F3D56"/>
<path d="M211.86 107.203C212.673 107.085 213.082 105.01 212.773 102.569C212.464 100.129 211.555 98.2458 210.742 98.364C209.929 98.4823 209.521 100.557 209.83 102.998C210.138 105.438 211.048 107.321 211.86 107.203Z" fill="#3F3D56"/>
<path d="M223.147 111.662C223.96 111.544 224.369 109.47 224.06 107.029C223.751 104.588 222.842 102.705 222.029 102.823C221.217 102.942 220.808 105.016 221.117 107.457C221.425 109.898 222.335 111.781 223.147 111.662Z" fill="#3F3D56"/>
<path d="M170.327 70.3446C167.066 70.3343 163.812 70.6737 160.614 71.3576C157.014 72.1285 153.277 73.0523 149.605 74.2565C143.872 73.9571 139.654 72.3642 138.805 69.9113C145.488 65.77 153.645 63.1005 162.99 61.8007C166.879 61.2459 170.81 61.1178 174.723 61.4185C175.138 61.6789 175.496 62.0304 175.774 62.4499C176.053 62.8693 176.245 63.3473 176.339 63.8523C176.619 66.0695 174.26 68.4268 170.327 70.3446Z" fill="#3F3D56"/>
<path d="M132.4 132.331L127.826 111.936C127.663 111.2 127.3 110.533 126.785 110.017C126.269 109.501 125.622 109.16 124.927 109.037C124.73 109.004 124.532 108.987 124.333 108.986C124.052 108.987 123.773 109.024 123.501 109.095L121.73 109.553C119.451 110.145 117.483 111.681 116.259 113.827C115.035 115.972 114.655 118.55 115.201 120.996L117.251 130.145C117.719 132.299 118.834 134.229 120.423 135.637C120.681 135.86 120.951 136.067 121.231 136.255C122.227 136.925 123.338 137.373 124.498 137.575C125.658 137.776 126.844 137.726 127.986 137.428L129.751 136.969C130.217 136.852 130.656 136.633 131.04 136.325C131.61 135.879 132.044 135.261 132.287 134.55C132.529 133.839 132.568 133.066 132.4 132.331Z" fill="#346DB5"/>
<path d="M122.81 128.536C123.608 128.33 123.819 126.222 123.281 123.827C122.744 121.432 121.662 119.658 120.864 119.864C120.067 120.069 119.856 122.178 120.393 124.572C120.931 126.967 122.013 128.742 122.81 128.536Z" fill="#3F3D56"/>
<path d="M116.869 130.447C117.667 130.241 117.878 128.133 117.34 125.738C116.803 123.343 115.721 121.569 114.923 121.775C114.126 121.981 113.915 124.089 114.452 126.484C114.99 128.878 116.072 130.653 116.869 130.447Z" fill="#3F3D56"/>
<path d="M132.691 132.254L128.117 111.859C127.939 111.063 127.545 110.341 126.986 109.784C126.427 109.226 125.727 108.858 124.974 108.725L131.218 136.58C131.835 136.095 132.304 135.426 132.566 134.656C132.828 133.886 132.872 133.05 132.691 132.254V132.254Z" fill="white"/>
<path d="M116.235 116.956C116.109 116.389 115.872 115.857 115.54 115.396C114.897 117.181 114.779 119.136 115.201 120.996L117.251 130.145C117.719 132.299 118.833 134.228 120.423 135.637L116.235 116.956Z" fill="#3F3D56"/>
</g>
<defs>
<clipPath id="clip0_620_4597">
<rect width="505.296" height="472" fill="white" transform="translate(0.703613)"/>
</clipPath>
</defs>
</svg>
