<svg width="506" height="472" viewBox="0 0 506 472" fill="none" xmlns="http://www.w3.org/2000/svg">
<g clip-path="url(#clip0_94_389)">
<path d="M456.298 245.636C456.364 304.041 435.314 360.199 397.573 402.305C395.297 404.86 392.96 407.353 390.562 409.785C386.909 413.512 383.132 417.095 379.233 420.533C342.757 452.762 297.221 470.872 249.971 471.943C248.396 471.981 246.816 472 245.23 472C207.547 472 160.15 450.414 117.138 420.533C113.58 418.061 110.053 415.532 106.557 412.945C104.924 411.747 103.298 410.532 101.68 409.301C85.0907 396.738 69.3443 382.943 54.5567 368.015C44.8747 358.27 35.7956 347.859 27.3771 336.847C-5.67216 293.128 -12.9616 253.734 34.1557 245.636C39.7342 244.681 45.1483 243.659 50.3981 242.572C58.0025 241.005 65.2801 239.312 72.2309 237.494C81.5938 235.054 90.3903 232.408 98.6204 229.555C101.389 228.6 104.094 227.625 106.736 226.631C145.791 211.92 171.931 192.736 189.724 171.921C192.742 168.398 195.524 164.832 198.071 161.224C201.967 155.732 205.507 149.958 208.664 143.945C213.021 135.59 216.681 126.838 219.601 117.791L219.761 117.294C233.919 73.4983 229.611 32.8753 245.23 19.2791C311.994 -38.8457 395.113 43.9294 434.127 141.543C436.093 146.462 437.943 151.41 439.676 156.388C440.454 158.612 441.205 160.839 441.927 163.072C443.828 168.888 445.553 174.72 447.102 180.567C447.696 182.797 448.262 185.025 448.801 187.25C449.377 189.652 449.93 192.048 450.441 194.443C454.237 211.984 456.298 229.281 456.298 245.636Z" fill="#F2F2F2"/>
<path d="M249.971 471.943C248.396 471.981 246.816 472 245.23 472C207.547 472 160.15 450.414 117.138 420.533C113.58 418.061 110.053 415.532 106.557 412.945L109.623 392.939L202.426 379.725L249.002 417.921L249.971 471.943Z" fill="#2F2E41"/>
<path d="M254.438 114.714H241.214C240.804 114.714 240.411 114.889 240.122 115.199C239.832 115.51 239.669 115.931 239.669 116.37V130.559C239.67 130.776 239.71 130.991 239.787 131.192C239.865 131.392 239.979 131.574 240.122 131.728C240.266 131.881 240.436 132.002 240.623 132.085C240.811 132.168 241.011 132.21 241.214 132.209H254.438C254.847 132.209 255.239 132.036 255.529 131.727C255.818 131.417 255.982 130.997 255.983 130.559V116.37C255.982 115.931 255.819 115.511 255.529 115.2C255.24 114.89 254.848 114.715 254.438 114.714Z" fill="white"/>
<path d="M254.438 138.893H241.214C240.804 138.893 240.411 139.067 240.122 139.378C239.832 139.689 239.669 140.11 239.669 140.549V154.738C239.67 154.955 239.71 155.17 239.787 155.371C239.865 155.571 239.979 155.753 240.122 155.907C240.266 156.06 240.436 156.181 240.623 156.264C240.811 156.347 241.011 156.389 241.214 156.388H254.438C254.847 156.388 255.239 156.215 255.529 155.905C255.818 155.596 255.982 155.176 255.983 154.738V140.549C255.982 140.11 255.819 139.69 255.529 139.379C255.24 139.069 254.848 138.894 254.438 138.893Z" fill="#E6E6E6"/>
<path d="M254.438 163.071H241.214C240.804 163.072 240.411 163.246 240.122 163.557C239.832 163.868 239.669 164.289 239.669 164.728V178.91C239.669 179.128 239.709 179.344 239.786 179.545C239.864 179.746 239.977 179.929 240.121 180.083C240.264 180.237 240.435 180.359 240.622 180.442C240.81 180.525 241.011 180.567 241.214 180.567H254.438C254.848 180.567 255.241 180.392 255.53 180.082C255.82 179.771 255.983 179.35 255.983 178.91V164.728C255.982 164.289 255.819 163.868 255.529 163.558C255.24 163.248 254.848 163.073 254.438 163.071Z" fill="#E6E6E6"/>
<path d="M255.959 188.614C255.893 188.232 255.705 187.887 255.428 187.638C255.15 187.39 254.8 187.252 254.438 187.25H241.214C240.804 187.251 240.411 187.425 240.122 187.736C239.832 188.046 239.669 188.468 239.669 188.907V203.089C239.669 203.307 239.709 203.522 239.786 203.724C239.864 203.925 239.977 204.108 240.121 204.262C240.264 204.415 240.435 204.537 240.622 204.621C240.81 204.704 241.011 204.746 241.214 204.746H254.438C254.848 204.746 255.241 204.571 255.53 204.26C255.82 203.95 255.983 203.528 255.983 203.089V188.907C255.984 188.809 255.976 188.71 255.959 188.614Z" fill="#E6E6E6"/>
<path d="M255.038 211.557C254.848 211.472 254.644 211.429 254.438 211.429H241.214C241.011 211.429 240.81 211.471 240.622 211.554C240.435 211.638 240.264 211.76 240.121 211.913C239.977 212.067 239.864 212.25 239.786 212.451C239.709 212.652 239.669 212.868 239.669 213.086V227.268C239.669 227.486 239.708 227.702 239.785 227.903C239.862 228.105 239.976 228.288 240.12 228.442C240.263 228.596 240.434 228.718 240.622 228.801C240.81 228.883 241.011 228.926 241.214 228.925H254.438C254.848 228.924 255.241 228.75 255.53 228.439C255.82 228.129 255.983 227.707 255.983 227.268V213.086C255.982 212.76 255.892 212.441 255.725 212.169C255.557 211.897 255.318 211.685 255.038 211.557Z" fill="#E6E6E6"/>
<path d="M282.218 114.714H268.994C268.584 114.714 268.191 114.889 267.902 115.199C267.612 115.51 267.449 115.931 267.449 116.37V130.559C267.449 130.776 267.489 130.991 267.567 131.192C267.645 131.392 267.759 131.574 267.902 131.728C268.046 131.881 268.216 132.002 268.403 132.085C268.59 132.168 268.791 132.21 268.994 132.209H282.218C282.627 132.209 283.019 132.036 283.308 131.727C283.598 131.417 283.761 130.997 283.763 130.559V116.37C283.761 115.931 283.598 115.511 283.309 115.2C283.019 114.89 282.627 114.715 282.218 114.714Z" fill="#E6E6E6"/>
<path d="M282.218 138.893H268.994C268.584 138.893 268.191 139.067 267.902 139.378C267.612 139.689 267.449 140.11 267.449 140.549V154.738C267.449 154.955 267.489 155.17 267.567 155.371C267.645 155.571 267.759 155.753 267.902 155.907C268.046 156.06 268.216 156.181 268.403 156.264C268.59 156.347 268.791 156.389 268.994 156.388H282.218C282.627 156.388 283.019 156.215 283.308 155.905C283.598 155.596 283.761 155.176 283.763 154.738V140.549C283.761 140.11 283.598 139.69 283.309 139.379C283.019 139.069 282.627 138.894 282.218 138.893Z" fill="#3B90FA"/>
<path d="M282.218 163.071H268.994C268.584 163.072 268.191 163.246 267.902 163.557C267.612 163.868 267.449 164.289 267.449 164.728V178.91C267.449 179.128 267.488 179.344 267.566 179.545C267.643 179.746 267.757 179.929 267.9 180.083C268.044 180.237 268.214 180.359 268.402 180.442C268.59 180.525 268.791 180.567 268.994 180.567H282.218C282.628 180.567 283.02 180.392 283.31 180.082C283.6 179.771 283.762 179.35 283.763 178.91V164.728C283.761 164.289 283.598 163.868 283.309 163.558C283.019 163.248 282.627 163.073 282.218 163.071Z" fill="#3B90FA"/>
<path d="M282.218 187.25H268.994C268.67 187.251 268.354 187.36 268.092 187.564C267.829 187.767 267.634 188.055 267.532 188.384C267.477 188.552 267.449 188.729 267.449 188.907V203.089C267.449 203.307 267.488 203.522 267.566 203.724C267.643 203.925 267.757 204.108 267.9 204.261C268.044 204.415 268.214 204.537 268.402 204.621C268.59 204.704 268.791 204.746 268.994 204.746H282.218C282.628 204.746 283.02 204.571 283.31 204.26C283.6 203.95 283.762 203.528 283.763 203.089V188.907C283.761 188.468 283.598 188.047 283.309 187.737C283.019 187.427 282.627 187.252 282.218 187.25Z" fill="#3B90FA"/>
<path d="M282.218 211.429H268.994C268.791 211.429 268.59 211.471 268.402 211.554C268.214 211.638 268.044 211.76 267.9 211.913C267.757 212.067 267.643 212.25 267.566 212.451C267.488 212.652 267.449 212.868 267.449 213.086V227.268C267.449 227.486 267.488 227.701 267.566 227.903C267.643 228.104 267.757 228.286 267.9 228.44C268.044 228.594 268.214 228.716 268.402 228.799C268.59 228.883 268.791 228.925 268.994 228.925H282.218C282.628 228.924 283.02 228.75 283.31 228.439C283.6 228.129 283.762 227.707 283.763 227.268V213.086C283.762 212.646 283.6 212.225 283.31 211.915C283.02 211.604 282.628 211.429 282.218 211.429Z" fill="#E6E6E6"/>
<path d="M309.998 114.714H296.773C296.364 114.714 295.971 114.889 295.681 115.199C295.392 115.51 295.229 115.931 295.229 116.37V130.559C295.229 130.776 295.269 130.991 295.347 131.192C295.425 131.392 295.538 131.574 295.682 131.728C295.825 131.881 295.996 132.002 296.183 132.085C296.37 132.168 296.571 132.21 296.773 132.209H309.998C310.406 132.209 310.798 132.036 311.088 131.727C311.378 131.417 311.541 130.997 311.542 130.559V116.37C311.541 115.931 311.378 115.511 311.089 115.2C310.799 114.89 310.407 114.715 309.998 114.714Z" fill="#3B90FA"/>
<path d="M309.998 138.893H296.773C296.364 138.893 295.971 139.067 295.681 139.378C295.392 139.689 295.229 140.11 295.229 140.549V154.738C295.229 154.955 295.269 155.17 295.347 155.371C295.425 155.571 295.538 155.753 295.682 155.907C295.825 156.06 295.996 156.181 296.183 156.264C296.37 156.347 296.571 156.389 296.773 156.388H309.998C310.406 156.388 310.798 156.215 311.088 155.905C311.378 155.596 311.541 155.176 311.542 154.738V140.549C311.541 140.11 311.378 139.69 311.089 139.379C310.799 139.069 310.407 138.894 309.998 138.893Z" fill="#3B90FA"/>
<path d="M309.998 163.071H296.773C296.364 163.072 295.971 163.246 295.681 163.557C295.392 163.868 295.229 164.289 295.229 164.728V178.91C295.228 179.128 295.268 179.344 295.346 179.545C295.423 179.746 295.537 179.929 295.68 180.083C295.824 180.237 295.994 180.359 296.182 180.442C296.369 180.525 296.57 180.567 296.773 180.567H309.998C310.407 180.567 310.8 180.392 311.09 180.082C311.379 179.771 311.542 179.35 311.542 178.91V164.728C311.541 164.289 311.378 163.868 311.089 163.558C310.799 163.248 310.407 163.073 309.998 163.071Z" fill="#E6E6E6"/>
<path d="M309.998 187.25H296.773C296.364 187.251 295.971 187.425 295.681 187.736C295.392 188.046 295.229 188.468 295.229 188.907V203.089C295.228 203.307 295.268 203.522 295.345 203.724C295.423 203.925 295.537 204.108 295.68 204.262C295.824 204.415 295.994 204.537 296.182 204.621C296.369 204.704 296.57 204.746 296.773 204.746H309.998C310.407 204.746 310.8 204.571 311.09 204.26C311.379 203.95 311.542 203.528 311.542 203.089V188.907C311.541 188.468 311.378 188.047 311.089 187.737C310.799 187.427 310.407 187.252 309.998 187.25Z" fill="#3B90FA"/>
<path d="M309.998 211.429H296.773C296.57 211.429 296.369 211.471 296.182 211.554C295.994 211.638 295.824 211.76 295.68 211.913C295.537 212.067 295.423 212.25 295.346 212.451C295.268 212.652 295.228 212.868 295.229 213.086V227.268C295.228 227.486 295.268 227.701 295.345 227.903C295.423 228.104 295.537 228.286 295.68 228.44C295.824 228.594 295.994 228.716 296.182 228.799C296.369 228.883 296.57 228.925 296.773 228.925H309.998C310.407 228.924 310.8 228.75 311.09 228.439C311.379 228.129 311.542 227.707 311.542 227.268V213.086C311.542 212.646 311.379 212.225 311.09 211.915C310.8 211.604 310.407 211.429 309.998 211.429Z" fill="#3B90FA"/>
<path d="M337.777 114.714H324.553C324.143 114.714 323.751 114.889 323.461 115.199C323.171 115.51 323.009 115.931 323.008 116.37V130.559C323.009 130.776 323.049 130.991 323.126 131.192C323.204 131.392 323.318 131.574 323.462 131.728C323.605 131.881 323.775 132.002 323.962 132.085C324.15 132.168 324.35 132.21 324.553 132.209H337.777C338.186 132.209 338.578 132.036 338.868 131.727C339.157 131.417 339.321 130.997 339.322 130.559V116.37C339.321 115.931 339.158 115.511 338.868 115.2C338.579 114.89 338.187 114.715 337.777 114.714Z" fill="#3B90FA"/>
<path d="M337.777 138.893H324.553C324.143 138.893 323.751 139.067 323.461 139.378C323.171 139.689 323.008 140.11 323.008 140.549V154.738C323.009 154.955 323.049 155.17 323.126 155.371C323.204 155.571 323.318 155.753 323.462 155.907C323.605 156.06 323.775 156.181 323.962 156.264C324.15 156.347 324.35 156.389 324.553 156.388H337.777C338.186 156.388 338.578 156.215 338.868 155.905C339.157 155.596 339.321 155.176 339.322 154.738V140.549C339.321 140.11 339.158 139.69 338.868 139.379C338.579 139.069 338.187 138.894 337.777 138.893Z" fill="white"/>
<path d="M337.777 163.071H324.553C324.143 163.072 323.751 163.246 323.461 163.557C323.171 163.868 323.008 164.289 323.008 164.728V178.91C323.008 179.128 323.048 179.344 323.125 179.545C323.203 179.746 323.316 179.929 323.46 180.083C323.603 180.237 323.774 180.359 323.961 180.442C324.149 180.525 324.35 180.567 324.553 180.567H337.777C338.187 180.567 338.58 180.392 338.869 180.082C339.159 179.771 339.322 179.35 339.322 178.91V164.728C339.321 164.289 339.158 163.868 338.868 163.558C338.579 163.248 338.187 163.073 337.777 163.071Z" fill="white"/>
<path d="M337.777 187.25H324.553C324.143 187.251 323.751 187.425 323.461 187.736C323.171 188.046 323.008 188.468 323.008 188.907V203.089C323.008 203.307 323.048 203.522 323.125 203.724C323.203 203.925 323.316 204.108 323.46 204.262C323.603 204.415 323.774 204.537 323.961 204.621C324.149 204.704 324.35 204.746 324.553 204.746H337.777C338.187 204.746 338.58 204.571 338.869 204.26C339.159 203.95 339.322 203.528 339.322 203.089V188.907C339.321 188.468 339.158 188.047 338.868 187.737C338.579 187.427 338.187 187.252 337.777 187.25Z" fill="#E6E6E6"/>
<path d="M337.777 211.429H324.553C324.35 211.429 324.149 211.471 323.961 211.554C323.774 211.638 323.603 211.76 323.46 211.913C323.316 212.067 323.203 212.25 323.125 212.451C323.048 212.652 323.008 212.868 323.008 213.086V227.268C323.008 227.486 323.048 227.701 323.125 227.903C323.203 228.104 323.316 228.286 323.46 228.44C323.603 228.594 323.774 228.716 323.961 228.799C324.149 228.883 324.35 228.925 324.553 228.925H337.777C338.187 228.924 338.58 228.75 338.869 228.439C339.159 228.129 339.322 227.707 339.322 227.268V213.086C339.322 212.646 339.159 212.225 338.869 211.915C338.58 211.604 338.187 211.429 337.777 211.429Z" fill="#3B90FA"/>
<path d="M365.557 114.714H352.327C351.918 114.715 351.526 114.891 351.238 115.201C350.95 115.512 350.788 115.932 350.788 116.37V130.559C350.788 130.997 350.95 131.416 351.239 131.726C351.527 132.035 351.918 132.209 352.327 132.209H365.557C365.966 132.209 366.358 132.036 366.647 131.727C366.937 131.417 367.1 130.997 367.102 130.559V116.37C367.1 115.931 366.937 115.511 366.648 115.2C366.358 114.89 365.966 114.715 365.557 114.714Z" fill="white"/>
<path d="M365.557 138.893H352.327C351.918 138.894 351.526 139.069 351.238 139.38C350.95 139.69 350.788 140.111 350.788 140.549V154.738C350.788 155.176 350.95 155.595 351.239 155.905C351.527 156.214 351.918 156.388 352.327 156.388H365.557C365.966 156.388 366.358 156.215 366.647 155.905C366.937 155.596 367.1 155.176 367.102 154.738V140.549C367.1 140.11 366.937 139.69 366.648 139.379C366.358 139.069 365.966 138.894 365.557 138.893Z" fill="white"/>
<path d="M365.557 163.071H352.327C351.918 163.073 351.526 163.248 351.238 163.559C350.95 163.869 350.788 164.29 350.788 164.728V178.91C350.787 179.128 350.827 179.343 350.904 179.544C350.981 179.744 351.094 179.927 351.237 180.081C351.38 180.235 351.55 180.357 351.737 180.44C351.924 180.524 352.124 180.567 352.327 180.567H365.557C365.967 180.567 366.359 180.392 366.649 180.082C366.939 179.771 367.101 179.35 367.102 178.91V164.728C367.1 164.289 366.937 163.868 366.648 163.558C366.358 163.248 365.966 163.073 365.557 163.071Z" fill="white"/>
<path d="M365.557 187.25H352.327C351.918 187.252 351.526 187.427 351.238 187.738C350.95 188.048 350.788 188.469 350.788 188.907V203.089C350.787 203.306 350.827 203.522 350.904 203.722C350.981 203.923 351.094 204.106 351.237 204.26C351.38 204.414 351.55 204.536 351.737 204.619C351.924 204.702 352.124 204.746 352.327 204.746H365.557C365.967 204.746 366.359 204.571 366.649 204.26C366.939 203.95 367.101 203.529 367.102 203.089V188.907C367.1 188.468 366.937 188.047 366.648 187.737C366.358 187.427 365.966 187.252 365.557 187.25Z" fill="#3B90FA"/>
<path d="M365.557 211.429H352.327C352.124 211.429 351.924 211.472 351.737 211.556C351.55 211.639 351.38 211.761 351.237 211.915C351.094 212.069 350.981 212.252 350.904 212.453C350.827 212.653 350.787 212.869 350.788 213.086V227.268C350.787 227.485 350.827 227.7 350.904 227.901C350.981 228.102 351.094 228.285 351.237 228.439C351.38 228.592 351.55 228.715 351.737 228.798C351.924 228.881 352.124 228.924 352.327 228.925H365.557C365.967 228.924 366.359 228.75 366.649 228.439C366.939 228.129 367.101 227.707 367.102 227.268V213.086C367.101 212.646 366.939 212.225 366.649 211.915C366.359 211.604 365.967 211.429 365.557 211.429Z" fill="#E6E6E6"/>
<path d="M393.337 114.714H380.106C379.698 114.715 379.306 114.891 379.018 115.201C378.729 115.512 378.567 115.932 378.568 116.37V130.559C378.568 130.997 378.73 131.416 379.018 131.726C379.307 132.035 379.698 132.209 380.106 132.209H393.337C393.745 132.209 394.137 132.036 394.427 131.726C394.717 131.417 394.88 130.997 394.881 130.559V116.37C394.88 115.931 394.717 115.511 394.428 115.2C394.138 114.89 393.746 114.715 393.337 114.714Z" fill="white"/>
<path d="M393.337 138.893H380.106C379.698 138.894 379.306 139.069 379.018 139.38C378.729 139.69 378.567 140.111 378.568 140.549V154.738C378.568 155.176 378.73 155.595 379.018 155.905C379.307 156.214 379.698 156.388 380.106 156.388H393.337C393.745 156.388 394.137 156.215 394.427 155.905C394.717 155.596 394.88 155.176 394.881 154.738V140.549C394.88 140.11 394.717 139.69 394.428 139.379C394.138 139.069 393.746 138.894 393.337 138.893Z" fill="white"/>
<path d="M393.337 163.071H380.106C379.698 163.073 379.306 163.248 379.018 163.559C378.729 163.869 378.567 164.29 378.568 164.728V178.91C378.567 179.128 378.606 179.343 378.684 179.544C378.761 179.744 378.874 179.927 379.017 180.081C379.16 180.235 379.329 180.357 379.516 180.44C379.703 180.524 379.904 180.567 380.106 180.567H393.337C393.746 180.567 394.139 180.392 394.429 180.081C394.718 179.771 394.881 179.35 394.881 178.91V164.728C394.88 164.289 394.717 163.868 394.428 163.558C394.138 163.248 393.746 163.073 393.337 163.071Z" fill="#3B90FA"/>
<path d="M393.337 187.25H380.106C379.698 187.252 379.306 187.427 379.018 187.738C378.729 188.048 378.567 188.469 378.568 188.907V203.089C378.567 203.306 378.606 203.522 378.683 203.722C378.761 203.923 378.874 204.106 379.017 204.26C379.16 204.414 379.329 204.536 379.516 204.619C379.703 204.702 379.904 204.746 380.106 204.746H393.337C393.746 204.746 394.139 204.571 394.429 204.26C394.718 203.95 394.881 203.529 394.881 203.089V188.907C394.88 188.468 394.717 188.047 394.428 187.737C394.138 187.427 393.746 187.252 393.337 187.25Z" fill="#E6E6E6"/>
<path d="M393.337 211.429H380.106C379.904 211.429 379.703 211.472 379.516 211.556C379.329 211.639 379.16 211.761 379.017 211.915C378.874 212.069 378.761 212.252 378.683 212.453C378.606 212.653 378.567 212.869 378.568 213.086V227.268C378.567 227.485 378.606 227.7 378.683 227.901C378.761 228.102 378.874 228.285 379.017 228.439C379.16 228.592 379.329 228.715 379.516 228.798C379.703 228.881 379.904 228.924 380.106 228.925H393.337C393.746 228.924 394.139 228.75 394.429 228.439C394.718 228.129 394.881 227.707 394.881 227.268V213.086C394.881 212.646 394.718 212.225 394.429 211.915C394.139 211.604 393.746 211.429 393.337 211.429Z" fill="white"/>
<path d="M421.116 114.714H407.886C407.477 114.715 407.086 114.891 406.797 115.201C406.509 115.512 406.347 115.932 406.347 116.37V130.559C406.347 130.997 406.509 131.416 406.798 131.726C407.086 132.035 407.478 132.209 407.886 132.209H421.116C421.525 132.209 421.917 132.036 422.207 131.726C422.496 131.417 422.659 130.997 422.661 130.559V116.37C422.66 115.931 422.497 115.511 422.207 115.2C421.918 114.89 421.525 114.715 421.116 114.714Z" fill="#3B90FA"/>
<path d="M421.116 138.893H407.886C407.477 138.894 407.086 139.069 406.797 139.38C406.509 139.69 406.347 140.111 406.347 140.549V154.738C406.347 155.176 406.509 155.595 406.798 155.905C407.086 156.214 407.478 156.388 407.886 156.388H421.116C421.525 156.388 421.917 156.215 422.207 155.905C422.496 155.596 422.659 155.176 422.661 154.738V140.549C422.66 140.11 422.497 139.69 422.207 139.379C421.918 139.069 421.526 138.894 421.116 138.893Z" fill="#3B90FA"/>
<path d="M421.116 163.071H407.886C407.477 163.073 407.086 163.248 406.797 163.559C406.509 163.869 406.347 164.29 406.347 164.728V178.91C406.347 179.128 406.386 179.343 406.463 179.544C406.54 179.744 406.653 179.927 406.796 180.081C406.939 180.235 407.109 180.357 407.296 180.44C407.483 180.524 407.683 180.567 407.886 180.567H421.116C421.526 180.567 421.919 180.392 422.208 180.081C422.498 179.771 422.661 179.35 422.661 178.91V164.728C422.66 164.289 422.497 163.868 422.207 163.558C421.918 163.248 421.525 163.073 421.116 163.071Z" fill="#E6E6E6"/>
<path d="M421.116 187.25H407.886C407.477 187.252 407.086 187.427 406.797 187.738C406.509 188.048 406.347 188.469 406.347 188.907V203.089C406.347 203.306 406.386 203.522 406.463 203.722C406.54 203.923 406.653 204.106 406.796 204.26C406.939 204.414 407.109 204.536 407.296 204.619C407.483 204.702 407.683 204.746 407.886 204.746H421.116C421.526 204.746 421.919 204.571 422.208 204.26C422.498 203.95 422.661 203.529 422.661 203.089V188.907C422.66 188.468 422.497 188.047 422.207 187.737C421.918 187.427 421.525 187.252 421.116 187.25Z" fill="white"/>
<path d="M421.116 211.429H407.886C407.683 211.429 407.483 211.472 407.296 211.556C407.109 211.639 406.939 211.761 406.796 211.915C406.653 212.069 406.54 212.252 406.463 212.453C406.386 212.653 406.347 212.869 406.347 213.086V227.268C406.347 227.485 406.386 227.7 406.463 227.901C406.54 228.102 406.653 228.285 406.796 228.439C406.939 228.592 407.109 228.715 407.296 228.798C407.483 228.881 407.683 228.924 407.886 228.925H421.116C421.526 228.924 421.919 228.75 422.208 228.439C422.498 228.129 422.661 227.707 422.661 227.268V213.086C422.661 212.646 422.498 212.225 422.208 211.915C421.919 211.604 421.526 211.429 421.116 211.429Z" fill="#3B90FA"/>
<path d="M448.896 114.714H435.666C435.257 114.715 434.866 114.891 434.577 115.201C434.289 115.512 434.127 115.932 434.127 116.37V130.559C434.127 130.997 434.289 131.416 434.578 131.726C434.866 132.035 435.258 132.209 435.666 132.209H448.896C449.305 132.209 449.697 132.036 449.986 131.726C450.276 131.417 450.439 130.997 450.441 130.559V116.37C450.439 115.931 450.276 115.511 449.987 115.2C449.698 114.89 449.305 114.715 448.896 114.714Z" fill="#3B90FA"/>
<path d="M448.896 138.893H435.666C435.257 138.894 434.866 139.069 434.577 139.38C434.289 139.69 434.127 140.111 434.127 140.549V154.738C434.127 155.176 434.289 155.595 434.578 155.905C434.866 156.214 435.258 156.388 435.666 156.388H448.896C449.305 156.388 449.697 156.215 449.986 155.905C450.276 155.596 450.439 155.176 450.441 154.738V140.549C450.44 140.11 450.276 139.69 449.987 139.379C449.698 139.069 449.305 138.894 448.896 138.893Z" fill="#3B90FA"/>
<path d="M448.896 163.071H435.666C435.257 163.073 434.866 163.248 434.577 163.559C434.289 163.869 434.127 164.29 434.127 164.728V178.91C434.126 179.128 434.166 179.343 434.243 179.544C434.32 179.744 434.433 179.927 434.576 180.081C434.719 180.235 434.889 180.357 435.076 180.44C435.263 180.524 435.463 180.567 435.666 180.567H448.896C449.306 180.567 449.698 180.392 449.988 180.081C450.278 179.771 450.441 179.35 450.441 178.91V164.728C450.44 164.289 450.276 163.868 449.987 163.558C449.698 163.248 449.305 163.073 448.896 163.071Z" fill="#E6E6E6"/>
<path d="M448.896 187.25H435.666C435.257 187.252 434.866 187.427 434.577 187.738C434.289 188.048 434.127 188.469 434.127 188.907V203.089C434.126 203.306 434.166 203.522 434.243 203.722C434.32 203.923 434.433 204.106 434.576 204.26C434.719 204.414 434.889 204.536 435.076 204.619C435.263 204.702 435.463 204.746 435.666 204.746H448.896C449.306 204.746 449.698 204.571 449.988 204.26C450.278 203.95 450.441 203.529 450.441 203.089V188.907C450.44 188.468 450.276 188.047 449.987 187.737C449.698 187.427 449.305 187.252 448.896 187.25Z" fill="#3B90FA"/>
<path d="M448.896 211.429H435.666C435.463 211.429 435.263 211.472 435.076 211.556C434.889 211.639 434.719 211.761 434.576 211.915C434.433 212.069 434.32 212.252 434.243 212.453C434.166 212.653 434.126 212.869 434.127 213.086V227.268C434.126 227.485 434.166 227.7 434.243 227.901C434.32 228.102 434.433 228.285 434.576 228.439C434.719 228.592 434.889 228.715 435.076 228.798C435.263 228.881 435.463 228.924 435.666 228.925H448.896C449.306 228.924 449.698 228.75 449.988 228.439C450.278 228.129 450.441 227.707 450.441 227.268V213.086C450.441 212.646 450.278 212.225 449.988 211.915C449.698 211.604 449.306 211.429 448.896 211.429Z" fill="#3B90FA"/>
<path d="M476.676 114.714H463.445C463.037 114.715 462.645 114.891 462.357 115.201C462.068 115.512 461.906 115.932 461.906 116.37V130.559C461.907 130.997 462.069 131.416 462.357 131.726C462.646 132.035 463.037 132.209 463.445 132.209H476.676C477.084 132.209 477.476 132.036 477.766 131.726C478.055 131.417 478.219 130.997 478.22 130.559V116.37C478.219 115.931 478.056 115.511 477.766 115.2C477.477 114.89 477.085 114.715 476.676 114.714Z" fill="#E6E6E6"/>
<path d="M476.676 138.893H463.445C463.036 138.894 462.645 139.069 462.357 139.38C462.068 139.69 461.906 140.111 461.906 140.549V154.738C461.907 155.176 462.069 155.595 462.357 155.905C462.646 156.214 463.037 156.388 463.445 156.388H476.676C477.084 156.388 477.476 156.215 477.766 155.905C478.055 155.596 478.219 155.176 478.22 154.738V140.549C478.219 140.11 478.056 139.69 477.766 139.379C477.477 139.069 477.085 138.894 476.676 138.893Z" fill="#3B90FA"/>
<path d="M476.676 163.071H463.445C463.036 163.073 462.645 163.248 462.357 163.559C462.068 163.869 461.906 164.29 461.907 164.728V178.91C461.906 179.128 461.945 179.343 462.022 179.544C462.099 179.744 462.213 179.927 462.356 180.081C462.498 180.235 462.668 180.357 462.855 180.44C463.042 180.524 463.243 180.567 463.445 180.567H476.676C477.085 180.567 477.478 180.392 477.768 180.081C478.057 179.771 478.22 179.35 478.22 178.91V164.728C478.219 164.289 478.056 163.868 477.766 163.558C477.477 163.248 477.085 163.073 476.676 163.071Z" fill="#3B90FA"/>
<path d="M476.676 187.25H463.445C463.036 187.252 462.645 187.427 462.357 187.738C462.068 188.048 461.906 188.469 461.907 188.907V203.089C461.906 203.306 461.945 203.522 462.022 203.722C462.099 203.923 462.213 204.106 462.356 204.26C462.498 204.414 462.668 204.536 462.855 204.619C463.042 204.702 463.243 204.746 463.445 204.746H476.676C477.085 204.746 477.478 204.571 477.768 204.26C478.057 203.95 478.22 203.529 478.22 203.089V188.907C478.219 188.468 478.056 188.047 477.766 187.737C477.477 187.427 477.085 187.252 476.676 187.25Z" fill="#3B90FA"/>
<path d="M476.676 211.429H463.445C463.243 211.429 463.042 211.472 462.855 211.556C462.668 211.639 462.498 211.761 462.356 211.915C462.213 212.069 462.099 212.252 462.022 212.453C461.945 212.653 461.906 212.869 461.907 213.086V227.268C461.906 227.485 461.945 227.7 462.022 227.901C462.099 228.102 462.213 228.285 462.356 228.439C462.498 228.592 462.668 228.715 462.855 228.798C463.042 228.881 463.243 228.924 463.445 228.925H476.676C477.085 228.924 477.478 228.75 477.768 228.439C478.057 228.129 478.22 227.707 478.22 227.268V213.086C478.22 212.646 478.057 212.225 477.768 211.915C477.478 211.604 477.085 211.429 476.676 211.429Z" fill="#E6E6E6"/>
<path d="M504.455 114.714H491.225C490.816 114.715 490.425 114.891 490.136 115.201C489.848 115.512 489.686 115.932 489.686 116.37V130.559C489.686 130.997 489.848 131.416 490.137 131.726C490.425 132.035 490.817 132.209 491.225 132.209H504.455C504.864 132.209 505.256 132.036 505.546 131.726C505.835 131.417 505.999 130.997 506 130.559V116.37C505.999 115.931 505.836 115.511 505.546 115.2C505.257 114.89 504.865 114.715 504.455 114.714Z" fill="#E6E6E6"/>
<path d="M504.455 138.893H491.225C490.816 138.894 490.425 139.069 490.136 139.38C489.848 139.69 489.686 140.111 489.686 140.549V154.738C489.686 155.176 489.848 155.595 490.137 155.905C490.425 156.214 490.817 156.388 491.225 156.388H504.455C504.864 156.388 505.256 156.215 505.546 155.905C505.835 155.596 505.999 155.176 506 154.738V140.549C505.999 140.11 505.836 139.69 505.546 139.379C505.257 139.069 504.865 138.894 504.455 138.893Z" fill="#E6E6E6"/>
<path d="M504.455 163.071H491.225C490.816 163.073 490.425 163.248 490.136 163.559C489.848 163.869 489.686 164.29 489.686 164.728V178.91C489.686 179.128 489.725 179.343 489.802 179.544C489.879 179.744 489.992 179.927 490.135 180.081C490.278 180.235 490.448 180.357 490.635 180.44C490.822 180.524 491.022 180.567 491.225 180.567H504.455C504.865 180.567 505.258 180.392 505.547 180.081C505.837 179.771 506 179.35 506 178.91V164.728C505.999 164.289 505.836 163.868 505.546 163.558C505.257 163.248 504.865 163.073 504.455 163.071Z" fill="#3B90FA"/>
<path d="M504.455 187.25H491.225C490.816 187.252 490.425 187.427 490.136 187.738C489.848 188.048 489.686 188.469 489.686 188.907V203.089C489.686 203.306 489.725 203.522 489.802 203.722C489.879 203.923 489.992 204.106 490.135 204.26C490.278 204.414 490.448 204.536 490.635 204.619C490.822 204.702 491.022 204.746 491.225 204.746H504.455C504.865 204.746 505.258 204.571 505.547 204.26C505.837 203.95 506 203.529 506 203.089V188.907C505.999 188.468 505.836 188.047 505.546 187.737C505.257 187.427 504.865 187.252 504.455 187.25Z" fill="#E6E6E6"/>
<path d="M504.455 211.429H491.225C491.022 211.429 490.822 211.472 490.635 211.556C490.448 211.639 490.278 211.761 490.135 211.915C489.992 212.069 489.879 212.252 489.802 212.453C489.725 212.653 489.686 212.869 489.686 213.086V227.268C489.686 227.485 489.725 227.7 489.802 227.901C489.879 228.102 489.992 228.285 490.135 228.439C490.278 228.592 490.448 228.715 490.635 228.798C490.822 228.881 491.022 228.924 491.225 228.925H504.455C504.865 228.924 505.258 228.75 505.547 228.439C505.837 228.129 506 227.707 506 227.268V213.086C506 212.646 505.837 212.225 505.547 211.915C505.258 211.604 504.865 211.429 504.455 211.429Z" fill="#E6E6E6"/>
<path d="M200.375 420.533H200.006L200.322 420.49L200.375 420.533Z" fill="#2F2E41"/>
<path d="M168.721 156.13C191.138 156.13 209.31 136.641 209.31 112.601C209.31 88.56 191.138 69.0712 168.721 69.0712C146.304 69.0712 128.132 88.56 128.132 112.601C128.132 136.641 146.304 156.13 168.721 156.13Z" fill="#FFB6B6"/>
<path d="M204.266 80.6856C204.266 80.6856 214.882 58.9208 191.527 56.9422C191.527 56.9422 171.616 37.5722 151.321 53.4011C151.321 53.4011 140.251 53.4011 134.198 66.8353C134.198 66.8353 125.492 63.2941 123.578 72.7711C123.578 72.7711 117.208 92.5573 123.578 110.365C129.949 128.172 132.065 130.151 132.065 130.151C132.065 130.151 121.597 92.8165 147.078 90.8378C172.559 88.8591 201.073 71.7818 203.196 93.5465C205.32 115.311 208.515 120.674 208.515 120.674C208.515 120.674 228.684 89.5894 204.266 80.6856Z" fill="#2F2E41"/>
<path d="M273.717 219.877L273.586 220.617L272.118 228.925L261.977 286.393L261.377 289.776L260.118 296.931L258.395 306.692L254.575 328.322L253.482 334.522L253.072 336.847L252.929 337.662L251.795 344.078L251.45 346.015L248.682 368.015L246.264 387.186L254.355 395.864L249.531 401.037L246.365 420.489L246.371 420.533H117.138C111.91 416.902 106.757 413.157 101.68 409.301L102.743 400.763C102.743 400.763 106.403 385.517 104.864 383.695C103.332 381.873 99.9689 378.617 99.9689 378.617L104.205 368.015L104.793 366.543L103.807 344.607L103.783 344.078L103.456 336.847L103.415 335.917L103.349 334.521L102.096 306.692L102.072 306.233L101.692 297.798L101.335 289.776L101.181 286.393L99.6541 252.543L98.6204 229.555L97.7174 209.543L101.347 208.224L140.171 194.074L156.253 171.654L189.724 171.921L206.109 172.055L233.449 199.247L239.669 202.433L239.717 202.458L244.178 204.746L255.49 210.537L267.449 216.666L273.586 219.807L273.717 219.877Z" fill="#CACACA"/>
<path d="M160.579 355.229C158.126 356.248 155.495 356.678 152.87 356.488C150.246 356.299 147.692 355.494 145.389 354.132C143.085 352.769 141.089 350.882 139.539 348.602C137.99 346.323 136.925 343.707 136.421 340.938L73.115 331.306L95.1218 304.609L151.864 317.849C156.257 317.248 160.703 318.396 164.359 321.076C168.016 323.755 170.629 327.78 171.703 332.388C172.777 336.995 172.238 341.865 170.188 346.075C168.137 350.285 164.718 353.542 160.579 355.229V355.229Z" fill="#FFB6B6"/>
<path d="M132.353 306.692C131.18 305.098 129.52 303.999 127.665 303.589L101.692 297.798L99.0244 297.205C97.4742 296.858 96.0098 296.164 94.727 295.168C93.4442 294.172 92.3719 292.897 91.5804 291.426C90.7593 289.882 90.2626 288.165 90.1248 286.393C90.001 284.783 90.1809 283.162 90.6536 281.627L99.6541 252.543L105.494 233.671C106.202 231.395 106.619 229.027 106.736 226.631C107.061 220 105.148 213.466 101.347 208.224C98.0056 203.618 93.3709 200.285 88.1278 198.721C82.8847 197.156 77.3112 197.441 72.2308 199.534C72.0823 199.591 71.9278 199.655 71.7793 199.719C68.1359 201.279 64.8808 203.727 62.2712 206.868C59.6616 210.009 57.7689 213.759 56.7429 217.82L50.398 242.572L37.3102 293.599C36.0001 298.712 35.7354 304.067 36.5343 309.3C37.3332 314.532 39.1768 319.517 41.9389 323.915C44.7011 328.312 48.3166 332.018 52.5379 334.777C56.7592 337.537 61.4867 339.286 66.3969 339.905L103.807 344.607L121.118 346.786C123.12 347.044 125.139 346.484 126.773 345.217C128.407 343.95 129.536 342.069 129.935 339.95C129.963 339.834 129.985 339.717 130 339.599L130.416 336.847L133.939 313.668L133.975 313.433C134.158 312.25 134.109 311.039 133.829 309.878C133.55 308.717 133.047 307.632 132.353 306.692Z" fill="#CACACA"/>
<path d="M200.902 355.972C203.464 356.61 206.125 356.637 208.699 356.053C211.272 355.468 213.695 354.286 215.796 352.589C217.897 350.891 219.625 348.721 220.859 346.23C222.094 343.739 222.804 340.988 222.939 338.171L284.346 319.061L259.048 295.959L204.614 317.648C200.186 317.717 195.935 319.526 192.668 322.732C189.4 325.937 187.343 330.317 186.885 335.041C186.427 339.765 187.601 344.505 190.185 348.363C192.768 352.221 196.581 354.928 200.902 355.972V355.972Z" fill="#FFB6B6"/>
<path d="M314.834 276.314L285.628 204.23C283.239 198.312 278.973 193.492 273.586 190.627C271.921 189.748 270.172 189.064 268.37 188.588C268.09 188.512 267.811 188.442 267.532 188.384C263.711 187.49 259.747 187.569 255.959 188.614C252.497 189.568 249.261 191.294 246.462 193.679C243.663 196.065 241.365 199.056 239.717 202.458C239.699 202.487 239.683 202.517 239.669 202.548C237.828 206.367 236.849 210.596 236.811 214.896C236.773 219.195 237.677 223.444 239.449 227.3L239.812 228.077L260.451 272.529C261.155 274.049 261.552 275.712 261.616 277.408C261.679 279.105 261.407 280.796 260.818 282.372C260.229 283.947 259.336 285.372 258.198 286.551C257.059 287.731 255.701 288.639 254.213 289.216L252.763 289.776L226.694 299.875C224.738 300.623 223.129 302.157 222.206 304.152C221.283 306.147 221.118 308.449 221.746 310.572L221.811 310.795L229.118 335.872C229.154 335.987 229.189 336.102 229.231 336.216C229.295 336.433 229.375 336.643 229.469 336.847C230.245 338.715 231.618 340.224 233.34 341.104C235.062 341.983 237.019 342.175 238.861 341.644L252.929 337.662L255.799 336.847L292.127 326.557C296.907 325.203 301.358 322.756 305.175 319.386C308.991 316.015 312.084 311.8 314.24 307.028C316.396 302.257 317.566 297.042 317.668 291.741C317.771 286.439 316.804 281.177 314.834 276.314L314.834 276.314Z" fill="#CACACA"/>
<path d="M27.3771 336.847C35.7956 347.859 44.8747 358.27 54.5567 368.015H323.068C325.655 368.019 328.134 369.124 329.963 371.086C331.792 373.049 332.82 375.709 332.823 378.483L333.209 451.453C349.727 443.314 365.197 432.921 379.233 420.533C383.13 417.099 386.907 413.516 390.562 409.785C392.956 407.351 395.293 404.858 397.573 402.305C414.661 383.214 428.498 361.059 438.458 336.847H27.3771Z" fill="#3F3D56"/>
<path d="M397.572 402.305C395.297 404.86 392.96 407.353 390.562 409.785H333.405V402.305H397.572Z" fill="white"/>
<path d="M273.182 163.072C272.9 162.513 272.482 162.046 271.972 161.721C271.463 161.395 270.881 161.224 270.289 161.224H75.5222C74.649 161.226 73.8123 161.6 73.1954 162.263C72.5785 162.925 72.2317 163.823 72.231 164.76V289.776H273.586V164.76C273.589 164.169 273.45 163.588 273.182 163.072Z" fill="#3F3D56"/>
<path d="M72.0546 286.392V301.819C72.0546 302.458 72.172 303.092 72.4002 303.682C72.6284 304.273 72.9629 304.81 73.3846 305.262C73.8063 305.715 74.3069 306.073 74.8579 306.318C75.4088 306.563 75.9993 306.689 76.5957 306.689H150.914V337.135H149.927C149.85 337.135 149.773 337.151 149.701 337.183C149.63 337.215 149.565 337.261 149.51 337.32C149.455 337.379 149.412 337.449 149.382 337.525C149.352 337.602 149.337 337.684 149.337 337.767V339.885C149.337 339.968 149.352 340.05 149.382 340.127C149.412 340.204 149.455 340.274 149.51 340.332C149.565 340.391 149.63 340.438 149.701 340.47C149.773 340.501 149.85 340.518 149.927 340.518H196.063C196.141 340.518 196.217 340.501 196.289 340.47C196.361 340.438 196.426 340.391 196.48 340.332C196.535 340.274 196.579 340.204 196.608 340.127C196.638 340.05 196.653 339.968 196.653 339.885V337.767C196.653 337.684 196.638 337.602 196.608 337.525C196.579 337.449 196.535 337.379 196.48 337.32C196.426 337.261 196.361 337.215 196.289 337.183C196.217 337.151 196.141 337.135 196.063 337.135H195.076V306.689H269.395C269.991 306.689 270.582 306.563 271.133 306.318C271.684 306.073 272.184 305.715 272.606 305.262C273.027 304.81 273.362 304.273 273.59 303.682C273.818 303.092 273.936 302.458 273.936 301.819V286.392H72.0546Z" fill="#3F3D56"/>
<path d="M170.556 242.113C180.828 242.113 189.155 233.183 189.155 222.167C189.155 211.151 180.828 202.221 170.556 202.221C160.284 202.221 151.957 211.151 151.957 222.167C151.957 233.183 160.284 242.113 170.556 242.113Z" fill="#3B90FA"/>
<path d="M217.943 110.222H214.973C214.973 86.1389 192.748 70.3573 170.327 70.3446C167.066 70.3343 163.812 70.6737 160.614 71.3576C157.014 72.1285 153.277 73.0523 149.605 74.2565C135.127 79.0158 121.701 88.2159 121.701 110.222C121.698 114.496 122.205 118.753 123.21 122.888L120.334 123.691C119.268 119.293 118.729 114.767 118.73 110.222C118.73 90.9937 126.091 77.7862 138.805 69.9113C145.488 65.77 153.645 63.1005 162.99 61.8007C166.879 61.2459 170.81 61.1178 174.723 61.4185C200.507 63.4063 217.943 84.6097 217.943 110.222Z" fill="#3B90FA"/>
<path d="M222.892 111.987L221.722 102.71C221.433 100.368 220.381 98.2101 218.751 96.6195C217.705 95.5826 216.453 94.8143 215.089 94.3728C213.726 93.9313 212.286 93.8281 210.88 94.071L209.02 94.345C208.511 94.4168 208.021 94.5963 207.577 94.873C207.134 95.1497 206.746 95.5181 206.436 95.9569C206.123 96.3942 205.895 96.8935 205.763 97.4261C205.632 97.9586 205.6 98.5138 205.67 99.0597L208.373 120.429C208.484 121.3 208.848 122.111 209.413 122.748C209.978 123.385 210.716 123.815 211.521 123.978C211.76 124.029 212.003 124.054 212.246 124.054C212.421 124.054 212.596 124.041 212.769 124.016L214.848 123.716C216.116 123.536 217.336 123.079 218.433 122.375C219.53 121.67 220.482 120.733 221.229 119.62C221.389 119.378 221.544 119.129 221.686 118.874C222.8 116.789 223.225 114.363 222.892 111.987Z" fill="#3B90FA"/>
<path d="M207.82 94.7336C207.275 95.0178 206.8 95.4371 206.436 95.9569C206.123 96.3942 205.895 96.8936 205.763 97.4261C205.632 97.9587 205.6 98.5139 205.67 99.0597L208.373 120.429C208.484 121.3 208.848 122.111 209.413 122.748C209.978 123.385 210.716 123.815 211.521 123.978L207.82 94.7336Z" fill="white"/>
<path d="M222.892 111.987L221.722 102.71C221.433 100.368 220.381 98.2101 218.751 96.6195L221.443 117.88C221.483 118.222 221.565 118.556 221.686 118.874C222.8 116.79 223.225 114.363 222.892 111.987Z" fill="#3F3D56"/>
<path d="M213.642 118.671C214.455 118.553 214.864 116.478 214.555 114.037C214.246 111.597 213.337 109.714 212.524 109.832C211.712 109.95 211.303 112.025 211.612 114.466C211.92 116.906 212.83 118.789 213.642 118.671Z" fill="#3F3D56"/>
<path d="M211.86 107.203C212.673 107.084 213.082 105.01 212.773 102.569C212.464 100.128 211.555 98.2455 210.742 98.3638C209.929 98.482 209.521 100.557 209.829 102.997C210.138 105.438 211.047 107.321 211.86 107.203Z" fill="#3F3D56"/>
<path d="M223.148 111.662C223.961 111.544 224.369 109.47 224.061 107.029C223.752 104.588 222.843 102.705 222.03 102.824C221.217 102.942 220.808 105.016 221.117 107.457C221.426 109.898 222.335 111.781 223.148 111.662Z" fill="#3F3D56"/>
<path d="M170.327 70.3445C167.066 70.3343 163.812 70.6736 160.614 71.3575C157.014 72.1284 153.277 73.0523 149.605 74.2564C143.872 73.957 139.654 72.3642 138.805 69.9113C145.488 65.7699 153.645 63.1004 162.99 61.8007C166.879 61.2458 170.81 61.1178 174.723 61.4184C175.138 61.6788 175.496 62.0303 175.774 62.4498C176.053 62.8693 176.245 63.3472 176.339 63.8522C176.619 66.0694 174.26 68.4268 170.327 70.3445Z" fill="#3F3D56"/>
<path d="M132.4 132.33L127.826 111.936C127.663 111.2 127.3 110.533 126.785 110.017C126.269 109.501 125.622 109.16 124.927 109.037C124.73 109.004 124.532 108.987 124.333 108.986C124.052 108.987 123.773 109.024 123.501 109.094L121.73 109.553C119.451 110.144 117.483 111.681 116.259 113.826C115.035 115.972 114.655 118.55 115.201 120.996L117.251 130.145C117.719 132.299 118.834 134.228 120.423 135.637C120.681 135.86 120.951 136.066 121.231 136.255C122.227 136.924 123.338 137.373 124.498 137.574C125.658 137.776 126.844 137.726 127.986 137.427L129.751 136.969C130.217 136.852 130.656 136.633 131.04 136.325C131.61 135.879 132.044 135.261 132.287 134.55C132.529 133.838 132.568 133.066 132.4 132.33Z" fill="#3B90FA"/>
<path d="M122.81 128.536C123.608 128.33 123.819 126.222 123.281 123.827C122.744 121.432 121.662 119.658 120.864 119.864C120.067 120.069 119.856 122.178 120.393 124.572C120.931 126.967 122.013 128.742 122.81 128.536Z" fill="#3F3D56"/>
<path d="M116.869 130.447C117.667 130.241 117.878 128.133 117.34 125.738C116.803 123.344 115.721 121.569 114.923 121.775C114.126 121.981 113.915 124.089 114.452 126.484C114.99 128.878 116.072 130.653 116.869 130.447Z" fill="#3F3D56"/>
<path d="M132.691 132.254L128.117 111.859C127.939 111.063 127.546 110.341 126.986 109.784C126.427 109.226 125.728 108.858 124.974 108.725L131.218 136.58C131.835 136.096 132.304 135.426 132.566 134.656C132.828 133.886 132.872 133.05 132.691 132.254Z" fill="white"/>
<path d="M116.235 116.957C116.109 116.389 115.872 115.857 115.54 115.396C114.897 117.182 114.779 119.136 115.201 120.996L117.251 130.145C117.719 132.299 118.834 134.228 120.423 135.637L116.235 116.957Z" fill="#3F3D56"/>
</g>
<defs>
<clipPath id="clip0_94_389">
<rect width="505.296" height="472" fill="white" transform="translate(0.703613)"/>
</clipPath>
</defs>
</svg>
