<svg width="234" height="165" viewBox="0 0 234 165" fill="none" xmlns="http://www.w3.org/2000/svg">
<g clip-path="url(#clip0_620_4526)">
<path d="M194.691 156.116H186.163V164.754H194.691V156.116Z" fill="#F0F0F0"/>
<path d="M233.066 73.1973C233.07 86.2215 230.019 99.0067 224.233 110.211C218.448 121.415 210.141 130.624 200.186 136.872C199.622 137.226 199.05 137.572 198.475 137.906C196.345 139.153 194.153 140.256 191.911 141.211C191.018 141.597 190.116 141.956 189.205 142.288C189.117 142.322 189.027 142.357 188.939 142.386C180.014 145.638 170.57 146.57 161.292 145.111C152.015 143.653 143.136 139.842 135.301 133.956C134.25 133.167 133.221 132.343 132.214 131.485C131.644 130.999 131.082 130.504 130.528 129.994C128.96 128.566 127.455 127.052 126.013 125.454C119.882 118.693 115.006 110.578 111.678 101.598C108.351 92.617 106.641 82.9563 106.652 73.1973C106.652 33.1255 134.95 0.643066 169.859 0.643066C204.769 0.643066 233.066 33.1255 233.066 73.1973Z" fill="#F2F2F2"/>
<path d="M184.954 107.056L183.529 113.24L188.939 142.386C174.396 147.644 158.691 146.717 144.694 139.774L148.918 119.445L149.059 108.418L149.518 72.0571L149.633 71.988C149.64 71.9829 149.648 71.9791 149.656 71.9765L160.416 65.6337L178.982 65.1011L192.834 72.8459L192.729 73.298L184.954 107.056Z" fill="#3F3D56"/>
<path d="M192.545 160.189C192.118 159.606 191.809 158.923 191.637 158.188C191.465 157.453 191.436 156.684 191.552 155.935C191.667 155.186 191.924 154.475 192.305 153.852C192.686 153.229 193.181 152.709 193.755 152.33L190.742 134.161L198.47 137.858L200.147 154.545C200.639 155.695 200.745 157.012 200.447 158.247C200.149 159.481 199.467 160.547 198.53 161.243C197.593 161.939 196.466 162.216 195.363 162.021C194.26 161.827 193.257 161.175 192.545 160.189Z" fill="#9E616A"/>
<path d="M190.042 73.4117L192.025 72.6709C192.025 72.6709 198.316 77.3052 197.717 88.5096C197.717 88.5096 197.953 94.3075 197.728 98.1661C197.47 102.592 200.931 146.573 200.931 146.573H189.721L184.917 106.744L190.042 73.4117Z" fill="#3F3D56"/>
<path d="M183.54 45.2204C183.54 48.1423 182.785 50.9985 181.371 53.428C179.957 55.8574 177.947 57.7509 175.595 58.869C173.244 59.9872 170.656 60.2797 168.159 59.7097C165.663 59.1397 163.37 57.7327 161.57 55.6666C159.77 53.6006 158.544 50.9683 158.048 48.1025C157.551 45.2368 157.806 42.2665 158.78 39.567C159.754 36.8676 161.404 34.5603 163.52 32.937C165.636 31.3137 168.125 30.4473 170.67 30.4473H170.67C172.356 30.4425 174.026 30.8189 175.585 31.555C177.145 32.2911 178.562 33.3725 179.757 34.7375C180.952 36.1024 181.901 37.7243 182.551 39.5103C183.2 41.2963 183.536 43.2116 183.54 45.1468C183.54 45.1714 183.54 45.1959 183.54 45.2204Z" fill="#9E616A"/>
<path d="M157.843 25.3779C159.35 21.6565 162.268 22.3923 164.82 23.6537C168.051 22.831 171.124 20.3678 174.605 21.8245C178.035 27.55 189.549 25.8655 187.099 35.1866C187.096 37.4202 190.761 36.1201 190.121 39.7781C192.062 46.818 183.114 60.1504 177.977 57.3428C179.247 54.6701 182.149 48.5993 177.748 47.9972C168.279 58.1108 176.771 28.7386 164.873 37.2805C160.934 41.4188 155.54 29.5173 157.843 25.3779Z" fill="#2F2E41"/>
<path d="M177.537 143.881L156.994 139.211L162.261 108.681C169.53 111.837 176.378 113.393 182.805 113.351C177.189 122.807 174.637 132.959 177.537 143.881Z" fill="#E4E4E4"/>
<path d="M174.55 145.675L154.006 141.004C152.32 127.173 153.853 116.76 159.274 110.474C166.543 113.63 173.391 115.187 179.818 115.145C176.423 124.857 174.636 135.211 174.55 145.675Z" fill="#3B90FA"/>
<path d="M160.938 137.17C160.857 136.415 160.632 135.69 160.28 135.045C159.928 134.401 159.457 133.852 158.901 133.439C158.344 133.026 157.715 132.758 157.058 132.654C156.402 132.55 155.733 132.613 155.1 132.837L145.559 117.933L142.656 126.948L152.161 139.719C152.56 140.915 153.328 141.902 154.319 142.492C155.309 143.082 156.454 143.234 157.536 142.92C158.618 142.606 159.562 141.847 160.189 140.787C160.816 139.728 161.083 138.441 160.938 137.17Z" fill="#9E616A"/>
<path d="M152.384 72.8432L150.656 71.5034C150.656 71.5034 140.372 72.6025 138.256 83.562C138.256 83.562 136.709 90.1465 135.998 93.9268C135.633 95.8712 130.76 114.657 130.76 114.657L147.285 135.386L151.8 127.613L147.285 114.657L152.384 72.8432Z" fill="#3F3D56"/>
<path d="M9.4615 37.0698H0.933594V45.7072H9.4615V37.0698Z" fill="#3B90FA"/>
<path d="M27.7716 71.6191H19.2437V80.2565H27.7716V71.6191Z" fill="#3B90FA"/>
<path d="M41.065 130.642H32.5371V139.279H41.065V130.642Z" fill="#3B90FA"/>
<path d="M32.5991 17.2407C32.3464 17.2407 32.1039 17.356 31.9252 17.5612C31.7464 17.7664 31.646 18.0447 31.646 18.3348C31.646 18.625 31.7464 18.9033 31.9252 19.1085C32.1039 19.3137 32.3464 19.4289 32.5991 19.4289H102.19C102.442 19.4283 102.684 19.3127 102.863 19.1076C103.041 18.9025 103.141 18.6246 103.141 18.3348C103.141 18.0451 103.041 17.7672 102.863 17.5621C102.684 17.357 102.442 17.2414 102.19 17.2407H32.5991Z" fill="#E4E4E4"/>
<path d="M32.5991 23.8057C32.4739 23.8052 32.3498 23.8331 32.2339 23.8878C32.1181 23.9424 32.0128 24.0227 31.924 24.1241C31.8352 24.2255 31.7647 24.346 31.7165 24.4787C31.6683 24.6114 31.6433 24.7537 31.6431 24.8975C31.6428 25.0412 31.6672 25.1836 31.7149 25.3166C31.7626 25.4495 31.8327 25.5703 31.9211 25.6721C32.0095 25.774 32.1146 25.8548 32.2302 25.91C32.3459 25.9652 32.4698 25.9937 32.5951 25.9939H76.5912C76.8439 25.9939 77.0864 25.8786 77.2651 25.6734C77.4439 25.4682 77.5443 25.1899 77.5443 24.8998C77.5443 24.6096 77.4439 24.3313 77.2651 24.1261C77.0864 23.9209 76.8439 23.8057 76.5912 23.8057H32.5991Z" fill="#E4E4E4"/>
<path d="M23.5694 95.8413C23.3166 95.8413 23.0741 95.9566 22.8954 96.1618C22.7166 96.3669 22.6162 96.6452 22.6162 96.9354C22.6162 97.2256 22.7166 97.5039 22.8954 97.7091C23.0741 97.9142 23.3166 98.0295 23.5694 98.0295H93.1602C93.4126 98.0288 93.6545 97.9133 93.8328 97.7082C94.0111 97.5031 94.1112 97.2251 94.1112 96.9354C94.1112 96.6457 94.0111 96.3678 93.8328 96.1627C93.6545 95.9575 93.4126 95.842 93.1602 95.8413H23.5694Z" fill="#E4E4E4"/>
<path d="M23.5693 102.406C23.4441 102.405 23.32 102.433 23.2041 102.488C23.0883 102.543 22.983 102.623 22.8942 102.724C22.8054 102.826 22.7349 102.946 22.6867 103.079C22.6385 103.211 22.6135 103.354 22.6133 103.498C22.613 103.641 22.6374 103.784 22.6852 103.917C22.7329 104.05 22.8029 104.17 22.8913 104.272C22.9798 104.374 23.0848 104.455 23.2004 104.51C23.3161 104.565 23.4401 104.594 23.5653 104.594H67.5613C67.8141 104.594 68.0566 104.479 68.2353 104.274C68.4141 104.068 68.5145 103.79 68.5145 103.5C68.5145 103.21 68.4141 102.931 68.2353 102.726C68.0566 102.521 67.8141 102.406 67.5613 102.406H23.5693Z" fill="#E4E4E4"/>
<path d="M63.1992 151.984C62.9465 151.984 62.704 152.1 62.5253 152.305C62.3465 152.51 62.2461 152.788 62.2461 153.078C62.2461 153.369 62.3465 153.647 62.5253 153.852C62.704 154.057 62.9465 154.173 63.1992 154.173H132.79C133.043 154.172 133.284 154.056 133.463 153.851C133.641 153.646 133.741 153.368 133.741 153.078C133.741 152.789 133.641 152.511 133.463 152.306C133.284 152.101 133.043 151.985 132.79 151.984H63.1992Z" fill="#E4E4E4"/>
<path d="M63.1992 158.549C63.0739 158.549 62.9499 158.577 62.834 158.631C62.7182 158.686 62.6128 158.766 62.5241 158.868C62.4353 158.969 62.3648 159.09 62.3166 159.222C62.2684 159.355 62.2434 159.497 62.2432 159.641C62.2429 159.785 62.2673 159.927 62.315 160.06C62.3627 160.193 62.4328 160.314 62.5212 160.416C62.6096 160.518 62.7147 160.598 62.8303 160.654C62.9459 160.709 63.0699 160.737 63.1952 160.738H107.191C107.444 160.738 107.686 160.622 107.865 160.417C108.044 160.212 108.144 159.934 108.144 159.643C108.144 159.353 108.044 159.075 107.865 158.87C107.686 158.665 107.444 158.549 107.191 158.549H63.1992Z" fill="#E4E4E4"/>
<path d="M4.9436 41.4273C6.9866 40.9123 8.91927 39.9336 10.628 38.5488C12.3367 37.1639 13.7869 35.4009 14.8934 33.3633C15.5215 32.2049 16.0278 30.965 16.4016 29.6696C16.4298 29.5624 16.4207 29.4468 16.3761 29.3471C16.3315 29.2474 16.255 29.1715 16.1626 29.1354C16.0702 29.0993 15.9692 29.1057 15.8808 29.1534C15.7925 29.2011 15.7238 29.2863 15.6891 29.3911C15.0478 31.5561 14.0354 33.5519 12.7118 35.2609C11.3882 36.9699 9.77998 38.3576 7.98196 39.3422C6.96883 39.8979 5.90162 40.313 4.80291 40.5788C4.32897 40.6935 4.46866 41.5423 4.9436 41.4273Z" fill="#3F3D56"/>
<path d="M12.2749 31.3236C13.631 30.4467 14.9872 29.5699 16.3434 28.693C16.4063 28.6526 16.5822 28.4997 16.6478 28.518C16.5952 28.5033 16.643 28.5481 16.6445 28.6028C16.6466 28.6764 16.6547 28.7512 16.6571 28.8253C16.6719 29.28 16.6791 29.7352 16.69 30.19L16.7531 32.8057C16.7664 33.3563 17.5172 33.4218 17.5038 32.8647L17.4298 29.7941C17.4128 29.0904 17.5661 27.5295 16.573 27.6645C16.2146 27.7132 15.8833 28.0014 15.5776 28.199L14.3393 28.9996L11.9513 30.5437C11.5307 30.8156 11.8525 31.5967 12.2749 31.3236V31.3236Z" fill="#3F3D56"/>
<path d="M23.5845 75.9076C21.5622 76.5168 19.6664 77.5839 18.0086 79.0462C16.3507 80.5084 14.9641 82.3363 13.9304 84.4224C13.3436 85.6081 12.8815 86.8696 12.5538 88.1803C12.5311 88.2893 12.5462 88.4041 12.5958 88.5006C12.6455 88.5971 12.7258 88.6676 12.8199 88.6974C12.914 88.7272 13.0145 88.7139 13.1002 88.6602C13.1859 88.6066 13.2502 88.5169 13.2793 88.4099C13.8472 86.2164 14.7918 84.1755 16.0576 82.4076C17.3233 80.6397 18.8845 79.1805 20.6492 78.116C21.643 77.5161 22.6955 77.0543 23.7845 76.7405C24.2537 76.6045 24.0549 75.7713 23.5844 75.9076L23.5845 75.9076Z" fill="#3F3D56"/>
<path d="M16.6066 86.3412L12.6751 89.1239C12.6077 89.1716 12.5415 89.2236 12.4714 89.266C12.4017 89.3081 12.3302 89.3068 12.3752 89.3575C12.3145 89.2891 12.3299 89.0354 12.3254 88.958L12.2488 87.6526L12.0957 85.0418C12.0633 84.4901 11.3107 84.486 11.3433 85.0418L11.5231 88.1066C11.564 88.8045 11.4508 90.2488 12.3814 90.1904C12.7958 90.1644 13.1905 89.7737 13.5301 89.5333L14.6534 88.7383L16.9864 87.087C17.3978 86.7958 17.0203 86.0484 16.6066 86.3412V86.3412Z" fill="#3F3D56"/>
<path d="M36.5237 134.611C38.4523 135.191 40.2602 136.207 41.841 137.602C43.4218 138.996 44.7435 140.739 45.7281 142.729C46.2831 143.849 46.7198 145.041 47.0289 146.281C47.0581 146.387 47.1223 146.477 47.208 146.531C47.2937 146.584 47.3942 146.598 47.4883 146.568C47.5824 146.538 47.6627 146.468 47.7124 146.371C47.762 146.275 47.7771 146.16 47.7545 146.051C47.1609 143.75 46.1725 141.608 44.8475 139.752C43.5225 137.895 41.8876 136.361 40.0388 135.241C38.9881 134.604 37.8753 134.113 36.7238 133.778C36.2541 133.642 36.0538 134.475 36.5237 134.611Z" fill="#3F3D56"/>
<path d="M43.3208 144.958L45.6538 146.609L46.7771 147.404C47.1175 147.645 47.5108 148.035 47.9258 148.061C48.8561 148.119 48.7431 146.675 48.7841 145.977L48.9639 142.912C48.9964 142.357 48.2439 142.36 48.2115 142.912L48.0584 145.523L47.9851 146.772C47.9795 146.867 48.0013 147.149 47.932 147.228C47.9815 147.171 47.9299 147.199 47.8747 147.16C47.7944 147.104 47.7122 147.051 47.6321 146.994L43.7006 144.212C43.2873 143.919 42.909 144.666 43.3208 144.958Z" fill="#3F3D56"/>
<path d="M17.9895 25.2652C19.9289 25.2652 21.501 23.4605 21.501 21.2344C21.501 19.0083 19.9289 17.2036 17.9895 17.2036C16.0502 17.2036 14.478 19.0083 14.478 21.2344C14.478 23.4605 16.0502 25.2652 17.9895 25.2652Z" fill="#3B90FA"/>
<path d="M11.9695 104.249C13.9088 104.249 15.481 102.444 15.481 100.218C15.481 97.9917 13.9088 96.187 11.9695 96.187C10.0302 96.187 8.45801 97.9917 8.45801 100.218C8.45801 102.444 10.0302 104.249 11.9695 104.249Z" fill="#3B90FA"/>
<path d="M49.8435 160.296C51.7829 160.296 53.355 158.492 53.355 156.266C53.355 154.04 51.7829 152.235 49.8435 152.235C47.9042 152.235 46.332 154.04 46.332 156.266C46.332 158.492 47.9042 160.296 49.8435 160.296Z" fill="#3B90FA"/>
</g>
<defs>
<clipPath id="clip0_620_4526">
<rect width="232.133" height="164.111" fill="white" transform="translate(0.933594 0.643066)"/>
</clipPath>
</defs>
</svg>
