<svg width="194" height="141" viewBox="0 0 194 141" fill="none" xmlns="http://www.w3.org/2000/svg">
<g clip-path="url(#clip0_150_322)">
<path d="M161.928 133.579H154.801V141H161.928V133.579Z" fill="#F0F0F0"/>
<path d="M194 62.3368C194.003 73.527 191.453 84.5117 186.618 94.1378C181.783 103.764 174.841 111.677 166.521 117.045C166.05 117.349 165.572 117.646 165.092 117.933C163.311 119.004 161.48 119.952 159.606 120.773C158.86 121.104 158.106 121.413 157.344 121.698C157.271 121.728 157.195 121.757 157.122 121.782C149.663 124.577 141.77 125.377 134.017 124.124C126.263 122.871 118.843 119.597 112.295 114.539C111.417 113.861 110.557 113.154 109.715 112.417C109.239 111.999 108.769 111.573 108.306 111.135C106.996 109.908 105.738 108.608 104.533 107.234C99.4088 101.426 95.3336 94.4538 92.5529 86.7378C89.7721 79.0218 88.3434 70.7216 88.3526 62.3368C88.3526 27.9081 112.002 0 141.176 0C170.351 0 194 27.9081 194 62.3368Z" fill="#F2F2F2"/>
<path d="M153.791 91.4274L152.6 96.7409L157.122 121.782C144.968 126.3 131.842 125.503 120.145 119.538L123.675 102.072L123.792 92.5974L124.176 61.3573L124.272 61.2979C124.278 61.2936 124.285 61.2903 124.291 61.288L133.284 55.8385L148.8 55.3808L160.377 62.0351L160.289 62.4234L153.791 91.4274Z" fill="#3F3D56"/>
<path d="M160.135 137.078C159.778 136.577 159.519 135.99 159.376 135.359C159.233 134.728 159.208 134.067 159.305 133.423C159.401 132.779 159.616 132.168 159.934 131.633C160.253 131.098 160.666 130.652 161.146 130.326L158.628 114.715L165.087 117.891L166.488 132.229C166.899 133.217 166.988 134.348 166.739 135.409C166.49 136.47 165.92 137.386 165.137 137.983C164.354 138.581 163.412 138.819 162.49 138.652C161.568 138.485 160.73 137.925 160.135 137.078Z" fill="#9E616A"/>
<path d="M158.044 62.5209L159.701 61.8844C159.701 61.8844 164.958 65.8661 164.458 75.4927C164.458 75.4927 164.655 80.4741 164.467 83.7893C164.251 87.5919 167.144 125.379 167.144 125.379H157.775L153.76 91.1596L158.044 62.5209Z" fill="#3F3D56"/>
<path d="M152.61 38.3C152.61 40.8104 151.979 43.2644 150.797 45.3517C149.615 47.439 147.935 49.0659 145.97 50.0266C144.005 50.9872 141.842 51.2386 139.756 50.7488C137.669 50.2591 135.753 49.0502 134.248 47.2751C132.744 45.5 131.72 43.2384 131.305 40.7762C130.89 38.3141 131.103 35.762 131.917 33.4427C132.731 31.1234 134.11 29.1411 135.878 27.7464C137.647 26.3517 139.727 25.6073 141.854 25.6073H141.854C143.263 25.6031 144.659 25.9265 145.962 26.559C147.265 27.1914 148.449 28.1205 149.448 29.2933C150.447 30.466 151.24 31.8595 151.783 33.394C152.325 34.9285 152.606 36.5741 152.61 38.2368C152.61 38.2578 152.61 38.2789 152.61 38.3Z" fill="#9E616A"/>
<path d="M131.134 21.2514C132.394 18.0541 134.832 18.6862 136.965 19.77C139.665 19.0631 142.233 16.9469 145.143 18.1984C148.009 23.1176 157.632 21.6703 155.584 29.6788C155.582 31.5978 158.644 30.4808 158.11 33.6237C159.732 39.6722 152.254 51.1271 147.96 48.7149C149.022 46.4185 151.448 41.2027 147.769 40.6854C139.855 49.3747 146.952 24.1388 137.009 31.4778C133.717 35.0334 129.21 24.8078 131.134 21.2514Z" fill="#2F2E41"/>
<path d="M147.593 123.067L130.424 119.054L134.826 92.8233C140.901 95.5348 146.624 96.8724 151.995 96.8361C147.301 104.96 145.169 113.683 147.593 123.067Z" fill="#E4E4E4"/>
<path d="M145.096 124.608L127.927 120.595C126.518 108.711 127.799 99.7644 132.33 94.3641C138.405 97.0756 144.128 98.4132 149.499 98.3769C146.661 106.721 145.168 115.617 145.096 124.608Z" fill="#3B90FA"/>
<path d="M133.721 117.301C133.653 116.652 133.465 116.029 133.171 115.475C132.876 114.921 132.483 114.45 132.018 114.095C131.552 113.74 131.027 113.51 130.478 113.421C129.929 113.331 129.371 113.385 128.841 113.578L120.868 100.772L118.441 108.518L126.385 119.491C126.719 120.519 127.361 121.366 128.188 121.873C129.016 122.38 129.973 122.511 130.877 122.241C131.781 121.971 132.57 121.319 133.094 120.408C133.619 119.498 133.841 118.392 133.721 117.301Z" fill="#9E616A"/>
<path d="M126.572 62.0328L125.128 60.8817C125.128 60.8817 116.533 61.826 114.765 71.2421C114.765 71.2421 113.472 76.8994 112.878 80.1474C112.573 81.8179 108.5 97.9579 108.5 97.9579L122.311 115.768L126.084 109.089L122.311 97.9579L126.572 62.0328Z" fill="#3F3D56"/>
<path d="M7.12702 31.2968H0V38.7179H7.12702V31.2968Z" fill="#3B90FA"/>
<path d="M22.4293 60.9811H15.3022V68.4021H22.4293V60.9811Z" fill="#3B90FA"/>
<path d="M33.5391 111.692H26.4121V119.113H33.5391V111.692Z" fill="#3B90FA"/>
<path d="M26.4636 14.2605C26.2523 14.2605 26.0497 14.3596 25.9003 14.5358C25.7509 14.7121 25.667 14.9512 25.667 15.2005C25.667 15.4498 25.7509 15.6889 25.9003 15.8652C26.0497 16.0415 26.2523 16.1406 26.4636 16.1406H84.6227C84.8336 16.14 85.0358 16.0407 85.1848 15.8645C85.3338 15.6882 85.4175 15.4495 85.4175 15.2005C85.4175 14.9516 85.3338 14.7128 85.1848 14.5366C85.0358 14.3604 84.8336 14.2611 84.6227 14.2605H26.4636Z" fill="#E4E4E4"/>
<path d="M26.4635 19.9007C26.3589 19.9003 26.2552 19.9243 26.1583 19.9712C26.0615 20.0182 25.9735 20.0872 25.8993 20.1743C25.8251 20.2614 25.7662 20.3649 25.7259 20.4789C25.6856 20.5929 25.6648 20.7152 25.6646 20.8387C25.6643 20.9622 25.6847 21.0846 25.7246 21.1988C25.7645 21.313 25.823 21.4168 25.8969 21.5043C25.9708 21.5918 26.0586 21.6612 26.1552 21.7087C26.2519 21.7561 26.3555 21.7806 26.4602 21.7807H63.229C63.4403 21.7807 63.6429 21.6817 63.7923 21.5054C63.9416 21.3291 64.0256 21.09 64.0256 20.8407C64.0256 20.5914 63.9416 20.3523 63.7923 20.176C63.6429 19.9997 63.4403 19.9007 63.229 19.9007H26.4635Z" fill="#E4E4E4"/>
<path d="M18.9172 81.7921C18.7059 81.7921 18.5033 81.8911 18.3539 82.0674C18.2045 82.2437 18.1206 82.4828 18.1206 82.7321C18.1206 82.9814 18.2045 83.2205 18.3539 83.3968C18.5033 83.5731 18.7059 83.6721 18.9172 83.6721H77.0763C77.2873 83.6716 77.4894 83.5723 77.6384 83.3961C77.7874 83.2198 77.8711 82.9811 77.8711 82.7321C77.8711 82.4832 77.7874 82.2444 77.6384 82.0682C77.4894 81.892 77.2873 81.7927 77.0763 81.7921H18.9172Z" fill="#E4E4E4"/>
<path d="M18.9176 87.4323C18.813 87.4319 18.7093 87.4559 18.6124 87.5028C18.5156 87.5498 18.4276 87.6188 18.3534 87.7059C18.2792 87.793 18.2203 87.8965 18.18 88.0105C18.1397 88.1245 18.1189 88.2468 18.1187 88.3703C18.1184 88.4938 18.1388 88.6162 18.1787 88.7304C18.2186 88.8446 18.2771 88.9484 18.351 89.0359C18.4249 89.1234 18.5127 89.1928 18.6093 89.2402C18.706 89.2877 18.8096 89.3122 18.9143 89.3123H55.6831C55.8943 89.3123 56.097 89.2133 56.2463 89.037C56.3957 88.8607 56.4796 88.6216 56.4796 88.3723C56.4796 88.123 56.3957 87.8839 56.2463 87.7076C56.097 87.5313 55.8943 87.4323 55.6831 87.4323H18.9176Z" fill="#E4E4E4"/>
<path d="M52.0373 130.029C51.826 130.029 51.6234 130.128 51.474 130.304C51.3246 130.481 51.2407 130.72 51.2407 130.969C51.2407 131.218 51.3246 131.457 51.474 131.634C51.6234 131.81 51.826 131.909 52.0373 131.909H110.196C110.407 131.908 110.61 131.809 110.759 131.633C110.908 131.457 110.991 131.218 110.991 130.969C110.991 130.72 110.908 130.481 110.759 130.305C110.61 130.129 110.407 130.029 110.196 130.029H52.0373Z" fill="#E4E4E4"/>
<path d="M52.0373 135.669C51.9326 135.669 51.8289 135.693 51.7321 135.74C51.6353 135.787 51.5472 135.856 51.473 135.943C51.3988 136.03 51.3399 136.133 51.2996 136.247C51.2594 136.361 51.2385 136.484 51.2383 136.607C51.2381 136.731 51.2585 136.853 51.2983 136.967C51.3382 137.081 51.3968 137.185 51.4707 137.273C51.5446 137.36 51.6323 137.43 51.729 137.477C51.8256 137.524 51.9292 137.549 52.0339 137.549H88.8027C89.014 137.549 89.2166 137.45 89.366 137.274C89.5154 137.098 89.5993 136.858 89.5993 136.609C89.5993 136.36 89.5154 136.121 89.366 135.944C89.2166 135.768 89.014 135.669 88.8027 135.669H52.0373Z" fill="#E4E4E4"/>
<path d="M3.35134 35.0409C5.05873 34.5984 6.67392 33.7576 8.10193 32.5677C9.52993 31.3779 10.7419 29.8631 11.6666 28.1125C12.1916 27.1172 12.6147 26.0519 12.9271 24.939C12.9507 24.8469 12.9431 24.7475 12.9058 24.6619C12.8686 24.5762 12.8046 24.511 12.7274 24.48C12.6501 24.4489 12.5657 24.4545 12.4919 24.4955C12.4181 24.5365 12.3607 24.6097 12.3317 24.6997C11.7957 26.5598 10.9497 28.2745 9.84346 29.7428C8.73725 31.2112 7.39324 32.4034 5.89059 33.2494C5.04388 33.7268 4.15198 34.0835 3.23376 34.3119C2.83767 34.4105 2.95442 35.1397 3.35134 35.0409Z" fill="#3F3D56"/>
<path d="M9.47849 26.3601C10.6121 25.6068 11.7456 24.8534 12.8792 24.1C12.9317 24.0653 13.0787 23.9339 13.1336 23.9496C13.0896 23.937 13.1296 23.9755 13.1309 24.0225C13.1326 24.0857 13.1394 24.15 13.1414 24.2137C13.1537 24.6043 13.1597 24.9954 13.1689 25.3862L13.2216 27.6336C13.2327 28.1066 13.8603 28.1629 13.8491 27.6843L13.7872 25.046C13.7731 24.4414 13.9012 23.1004 13.0711 23.2163C12.7716 23.2581 12.4946 23.5058 12.2391 23.6756L11.2041 24.3635L9.20802 25.69C8.85651 25.9236 9.12547 26.5947 9.47849 26.3601V26.3601Z" fill="#3F3D56"/>
<path d="M18.9299 64.6654C17.2399 65.1889 15.6555 66.1057 14.27 67.362C12.8844 68.6183 11.7257 70.1888 10.8618 71.9811C10.3714 72.9998 9.98515 74.0837 9.71124 75.2098C9.6923 75.3035 9.7049 75.4021 9.7464 75.485C9.7879 75.5679 9.85505 75.6285 9.9337 75.6541C10.0123 75.6797 10.0963 75.6682 10.168 75.6222C10.2396 75.5761 10.2932 75.499 10.3176 75.4071C10.7922 73.5225 11.5817 71.769 12.6395 70.2501C13.6973 68.7311 15.002 67.4774 16.4768 66.5628C17.3074 66.0474 18.187 65.6507 19.0971 65.381C19.4892 65.2642 19.3231 64.5483 18.9299 64.6654L18.9299 64.6654Z" fill="#3F3D56"/>
<path d="M13.0994 73.6298L9.81325 76.0207C9.75693 76.0616 9.70156 76.1064 9.64295 76.1428C9.58477 76.1789 9.52493 76.1778 9.56254 76.2214C9.51181 76.1626 9.52476 75.9446 9.52096 75.8781L9.45695 74.7565L9.32893 72.5134C9.30189 72.0394 8.67283 72.0359 8.70008 72.5134L8.85036 75.1467C8.88458 75.7462 8.78992 76.9872 9.56777 76.937C9.91411 76.9147 10.2441 76.5789 10.5279 76.3725L11.4668 75.6894L13.4168 74.2706C13.7607 74.0204 13.4452 73.3783 13.0994 73.6298V73.6298Z" fill="#3F3D56"/>
<path d="M29.7439 115.102C31.3556 115.6 32.8666 116.474 34.1877 117.671C35.5088 118.869 36.6134 120.367 37.4362 122.077C37.9001 123.039 38.2651 124.064 38.5234 125.128C38.5478 125.22 38.6014 125.297 38.6731 125.343C38.7447 125.389 38.8287 125.401 38.9073 125.375C38.9859 125.35 39.0531 125.289 39.0946 125.206C39.1361 125.123 39.1487 125.025 39.1298 124.931C38.6337 122.954 37.8077 121.114 36.7003 119.519C35.593 117.924 34.2266 116.606 32.6815 115.643C31.8035 115.096 30.8735 114.674 29.9111 114.386C29.5186 114.27 29.3511 114.985 29.7439 115.102Z" fill="#3F3D56"/>
<path d="M35.4245 123.992L37.3745 125.41L38.3134 126.094C38.5979 126.301 38.9266 126.636 39.2735 126.658C40.0511 126.708 39.9567 125.468 39.9909 124.868L40.1412 122.234C40.1684 121.758 39.5394 121.76 39.5123 122.234L39.3843 124.478L39.3231 125.55C39.3184 125.633 39.3366 125.874 39.2787 125.942C39.3201 125.894 39.277 125.917 39.2308 125.884C39.1637 125.836 39.095 125.79 39.028 125.742L35.7419 123.351C35.3964 123.1 35.0802 123.741 35.4245 123.992Z" fill="#3F3D56"/>
<path d="M14.254 21.1547C15.8748 21.1547 17.1886 19.6042 17.1886 17.6916C17.1886 15.7789 15.8748 14.2284 14.254 14.2284C12.6332 14.2284 11.3193 15.7789 11.3193 17.6916C11.3193 19.6042 12.6332 21.1547 14.254 21.1547Z" fill="#3B90FA"/>
<path d="M9.22323 89.0154C10.844 89.0154 12.1579 87.4648 12.1579 85.5522C12.1579 83.6395 10.844 82.089 9.22323 82.089C7.60246 82.089 6.28857 83.6395 6.28857 85.5522C6.28857 87.4648 7.60246 89.0154 9.22323 89.0154Z" fill="#3B90FA"/>
<path d="M40.8756 137.171C42.4963 137.171 43.8102 135.62 43.8102 133.707C43.8102 131.795 42.4963 130.244 40.8756 130.244C39.2548 130.244 37.9409 131.795 37.9409 133.707C37.9409 135.62 39.2548 137.171 40.8756 137.171Z" fill="#3B90FA"/>
</g>
<defs>
<clipPath id="clip0_150_322">
<rect width="194" height="141" fill="white"/>
</clipPath>
</defs>
</svg>
