<svg width="234" height="165" viewBox="0 0 234 165" fill="none" xmlns="http://www.w3.org/2000/svg">
<g clip-path="url(#clip0_94_318)">
<path d="M194.691 156.116H186.163V164.754H194.691V156.116Z" fill="#F0F0F0"/>
<path d="M233.066 73.1971C233.07 86.2213 230.019 99.0065 224.233 110.21C218.448 121.414 210.142 130.624 200.186 136.872C199.622 137.226 199.05 137.572 198.475 137.906C196.345 139.152 194.153 140.256 191.912 141.211C191.019 141.597 190.116 141.956 189.205 142.288C189.117 142.322 189.027 142.357 188.939 142.386C180.014 145.638 170.57 146.569 161.292 145.111C152.015 143.653 143.136 139.842 135.301 133.955C134.25 133.167 133.221 132.343 132.214 131.485C131.644 130.999 131.082 130.503 130.528 129.994C128.961 128.566 127.456 127.052 126.013 125.453C119.882 118.693 115.006 110.578 111.678 101.597C108.351 92.6168 106.641 82.9561 106.653 73.1971C106.653 33.1253 134.95 0.642868 169.859 0.642868C204.769 0.642868 233.066 33.1253 233.066 73.1971Z" fill="#F2F2F2"/>
<path d="M184.954 107.056L183.529 113.24L188.939 142.386C174.397 147.644 158.691 146.717 144.695 139.774L148.918 119.445L149.059 108.418L149.518 72.0569L149.633 71.9878C149.64 71.9828 149.648 71.979 149.656 71.9763L160.416 65.6336L178.982 65.101L192.835 72.8458L192.729 73.2979L184.954 107.056Z" fill="#3F3D56"/>
<path d="M192.545 160.188C192.118 159.606 191.808 158.923 191.637 158.188C191.465 157.453 191.436 156.684 191.552 155.935C191.667 155.185 191.924 154.474 192.305 153.851C192.686 153.228 193.181 152.709 193.755 152.33L190.742 134.16L198.47 137.857L200.147 154.544C200.639 155.695 200.745 157.012 200.447 158.246C200.149 159.481 199.467 160.547 198.53 161.243C197.593 161.938 196.466 162.215 195.363 162.021C194.26 161.827 193.257 161.175 192.545 160.188V160.188Z" fill="#9E616A"/>
<path d="M190.042 73.4113L192.025 72.6705C192.025 72.6705 198.316 77.3048 197.717 88.5092C197.717 88.5092 197.953 94.3071 197.728 98.1657C197.47 102.592 200.931 146.572 200.931 146.572H189.721L184.917 106.744L190.042 73.4113Z" fill="#3F3D56"/>
<path d="M183.54 45.2205C183.54 48.1423 182.785 50.9985 181.371 53.428C179.957 55.8574 177.947 57.7509 175.595 58.8691C173.244 59.9872 170.656 60.2798 168.159 59.7097C165.663 59.1397 163.37 57.7327 161.57 55.6666C159.77 53.6006 158.544 50.9683 158.048 48.1026C157.551 45.2369 157.806 42.2665 158.78 39.567C159.754 36.8676 161.404 34.5604 163.52 32.9371C165.636 31.3138 168.125 30.4473 170.67 30.4473H170.67C172.356 30.4425 174.026 30.8189 175.585 31.555C177.145 32.2911 178.562 33.3725 179.757 34.7375C180.952 36.1025 181.901 37.7243 182.551 39.5103C183.2 41.2964 183.536 43.2117 183.54 45.1469C183.54 45.1714 183.54 45.1959 183.54 45.2205Z" fill="#9E616A"/>
<path d="M157.843 25.3775C159.351 21.6561 162.268 22.3919 164.82 23.6533C168.051 22.8306 171.124 20.3674 174.606 21.8241C178.035 27.5496 189.549 25.8651 187.1 35.1862C187.096 37.4198 190.761 36.1197 190.121 39.7777C192.062 46.8176 183.114 60.15 177.977 57.3424C179.248 54.6697 182.15 48.5989 177.748 47.9968C168.279 58.1104 176.771 28.7382 164.873 37.2801C160.934 41.4184 155.541 29.5169 157.843 25.3775Z" fill="#2F2E41"/>
<path d="M177.537 143.881L156.994 139.211L162.261 108.68C169.53 111.836 176.378 113.393 182.805 113.351C177.189 122.806 174.637 132.959 177.537 143.881Z" fill="#E4E4E4"/>
<path d="M174.55 145.675L154.006 141.004C152.32 127.173 153.853 116.759 159.274 110.474C166.543 113.63 173.391 115.187 179.818 115.144C176.423 124.856 174.636 135.21 174.55 145.675V145.675Z" fill="#3B90FA"/>
<path d="M160.939 137.17C160.857 136.415 160.633 135.69 160.28 135.045C159.928 134.4 159.457 133.852 158.901 133.439C158.344 133.026 157.715 132.758 157.059 132.654C156.402 132.55 155.734 132.612 155.1 132.837L145.559 117.932L142.656 126.947L152.161 139.719C152.561 140.915 153.328 141.902 154.319 142.492C155.31 143.081 156.454 143.234 157.536 142.92C158.618 142.605 159.562 141.847 160.189 140.787C160.816 139.727 161.083 138.44 160.939 137.17Z" fill="#9E616A"/>
<path d="M152.384 72.8432L150.656 71.5034C150.656 71.5034 140.372 72.6025 138.256 83.562C138.256 83.562 136.709 90.1465 135.999 93.9268C135.633 95.8712 130.76 114.657 130.76 114.657L147.286 135.386L151.8 127.613L147.286 114.657L152.384 72.8432Z" fill="#3F3D56"/>
<path d="M9.46162 37.0694H0.933716V45.7068H9.46162V37.0694Z" fill="#3B90FA"/>
<path d="M27.7716 71.6191H19.2437V80.2565H27.7716V71.6191Z" fill="#3B90FA"/>
<path d="M41.065 130.641H32.5371V139.279H41.065V130.641Z" fill="#3B90FA"/>
<path d="M32.599 17.2408C32.3462 17.2408 32.1038 17.356 31.925 17.5612C31.7463 17.7664 31.6459 18.0447 31.6459 18.3349C31.6459 18.625 31.7463 18.9033 31.925 19.1085C32.1038 19.3137 32.3462 19.429 32.599 19.429H102.19C102.442 19.4283 102.684 19.3127 102.862 19.1076C103.041 18.9025 103.141 18.6246 103.141 18.3349C103.141 18.0451 103.041 17.7672 102.862 17.5621C102.684 17.357 102.442 17.2414 102.19 17.2408H32.599Z" fill="#E4E4E4"/>
<path d="M32.5991 23.8054C32.4739 23.8049 32.3498 23.8328 32.2339 23.8875C32.1181 23.9421 32.0128 24.0225 31.924 24.1239C31.8352 24.2252 31.7647 24.3457 31.7165 24.4784C31.6683 24.6111 31.6433 24.7534 31.6431 24.8972C31.6428 25.0409 31.6672 25.1834 31.7149 25.3163C31.7626 25.4492 31.8327 25.57 31.9211 25.6719C32.0095 25.7737 32.1146 25.8545 32.2302 25.9097C32.3459 25.9649 32.4698 25.9934 32.5951 25.9936H76.5912C76.8439 25.9936 77.0864 25.8783 77.2651 25.6731C77.4439 25.468 77.5443 25.1897 77.5443 24.8995C77.5443 24.6093 77.4439 24.331 77.2651 24.1258C77.0864 23.9206 76.8439 23.8054 76.5912 23.8054H32.5991Z" fill="#E4E4E4"/>
<path d="M23.5695 95.8412C23.3167 95.8412 23.0743 95.9564 22.8955 96.1616C22.7168 96.3668 22.6163 96.6451 22.6163 96.9353C22.6163 97.2254 22.7168 97.5037 22.8955 97.7089C23.0743 97.9141 23.3167 98.0294 23.5695 98.0294H93.1604C93.4128 98.0287 93.6546 97.9131 93.8329 97.708C94.0112 97.5029 94.1113 97.225 94.1113 96.9353C94.1113 96.6455 94.0112 96.3676 93.8329 96.1625C93.6546 95.9574 93.4128 95.8418 93.1604 95.8412H23.5695Z" fill="#E4E4E4"/>
<path d="M23.5695 102.406C23.4443 102.405 23.3202 102.433 23.2044 102.488C23.0885 102.543 22.9832 102.623 22.8944 102.724C22.8056 102.826 22.7351 102.946 22.6869 103.079C22.6387 103.211 22.6138 103.354 22.6135 103.498C22.6133 103.641 22.6377 103.784 22.6854 103.917C22.7331 104.05 22.8032 104.17 22.8916 104.272C22.98 104.374 23.085 104.455 23.2007 104.51C23.3163 104.565 23.4403 104.594 23.5655 104.594H67.5616C67.8144 104.594 68.0568 104.479 68.2356 104.274C68.4143 104.068 68.5147 103.79 68.5147 103.5C68.5147 103.21 68.4143 102.931 68.2356 102.726C68.0568 102.521 67.8144 102.406 67.5616 102.406H23.5695Z" fill="#E4E4E4"/>
<path d="M63.1992 151.984C62.9465 151.984 62.704 152.1 62.5253 152.305C62.3465 152.51 62.2461 152.788 62.2461 153.078C62.2461 153.369 62.3465 153.647 62.5253 153.852C62.704 154.057 62.9465 154.172 63.1992 154.172H132.79C133.043 154.172 133.284 154.056 133.463 153.851C133.641 153.646 133.741 153.368 133.741 153.078C133.741 152.789 133.641 152.511 133.463 152.306C133.284 152.1 133.043 151.985 132.79 151.984H63.1992Z" fill="#E4E4E4"/>
<path d="M63.1992 158.549C63.0739 158.548 62.9499 158.576 62.834 158.631C62.7182 158.686 62.6128 158.766 62.5241 158.867C62.4353 158.969 62.3648 159.089 62.3166 159.222C62.2684 159.355 62.2434 159.497 62.2432 159.641C62.2429 159.784 62.2673 159.927 62.315 160.06C62.3627 160.193 62.4328 160.314 62.5212 160.415C62.6096 160.517 62.7147 160.598 62.8303 160.653C62.9459 160.708 63.0699 160.737 63.1952 160.737H107.191C107.444 160.737 107.686 160.622 107.865 160.417C108.044 160.211 108.144 159.933 108.144 159.643C108.144 159.353 108.044 159.075 107.865 158.869C107.686 158.664 107.444 158.549 107.191 158.549H63.1992Z" fill="#E4E4E4"/>
<path d="M4.94385 41.4272C6.98684 40.9122 8.91951 39.9335 10.6282 38.5486C12.3369 37.1638 13.7871 35.4007 14.8936 33.3632C15.5218 32.2047 16.0281 30.9648 16.4018 29.6695C16.4301 29.5623 16.421 29.4466 16.3764 29.3469C16.3318 29.2473 16.2552 29.1714 16.1628 29.1353C16.0704 29.0991 15.9694 29.1056 15.8811 29.1533C15.7928 29.201 15.724 29.2862 15.6894 29.3909C15.048 31.5559 14.0357 33.5517 12.712 35.2607C11.3884 36.9697 9.78023 38.3574 7.98221 39.342C6.96907 39.8977 5.90186 40.3129 4.80315 40.5787C4.32921 40.6934 4.46891 41.5422 4.94385 41.4272V41.4272Z" fill="#3F3D56"/>
<path d="M12.2751 31.3236C13.6313 30.4467 14.9875 29.5699 16.3437 28.693C16.4065 28.6526 16.5824 28.4997 16.6481 28.518C16.5954 28.5033 16.6432 28.5481 16.6448 28.6028C16.6469 28.6764 16.655 28.7512 16.6574 28.8253C16.6721 29.28 16.6793 29.7352 16.6903 30.19L16.7533 32.8057C16.7666 33.3563 17.5175 33.4218 17.5041 32.8647L17.43 29.7941C17.4131 29.0904 17.5664 27.5295 16.5733 27.6645C16.2149 27.7132 15.8835 28.0014 15.5779 28.199L14.3396 28.9996L11.9515 30.5437C11.531 30.8156 11.8528 31.5967 12.2751 31.3236V31.3236Z" fill="#3F3D56"/>
<path d="M23.5848 75.9073C21.5626 76.5166 19.6668 77.5837 18.0089 79.0459C16.351 80.5081 14.9645 82.336 13.9308 84.4221C13.344 85.6078 12.8819 86.8693 12.5541 88.1801C12.5315 88.289 12.5465 88.4039 12.5962 88.5003C12.6458 88.5968 12.7262 88.6674 12.8203 88.6971C12.9144 88.7269 13.0149 88.7136 13.1006 88.66C13.1863 88.6063 13.2505 88.5166 13.2797 88.4097C13.8476 86.2161 14.7922 84.1753 16.0579 82.4074C17.3237 80.6394 18.8849 79.1802 20.6496 78.1157C21.6433 77.5158 22.6958 77.0541 23.7848 76.7402C24.2541 76.6042 24.0553 75.771 23.5848 75.9073L23.5848 75.9073Z" fill="#3F3D56"/>
<path d="M16.607 86.3411L12.6755 89.1238C12.6081 89.1715 12.5418 89.2235 12.4717 89.2659C12.4021 89.308 12.3305 89.3067 12.3755 89.3574C12.3148 89.289 12.3303 89.0353 12.3258 88.9579L12.2492 87.6525L12.096 85.0417C12.0637 84.49 11.3111 84.4859 11.3437 85.0417L11.5235 88.1065C11.5644 88.8044 11.4512 90.2487 12.3818 90.1903C12.7961 90.1643 13.1909 89.7736 13.5304 89.5332L14.6537 88.7382L16.9867 87.0869C17.3981 86.7957 17.0207 86.0483 16.607 86.3411V86.3411Z" fill="#3F3D56"/>
<path d="M36.5239 134.611C38.4524 135.19 40.2603 136.207 41.8411 137.601C43.4219 138.996 44.7436 140.739 45.7282 142.729C46.2833 143.849 46.72 145.041 47.029 146.28C47.0582 146.387 47.1224 146.477 47.2081 146.531C47.2938 146.584 47.3943 146.597 47.4884 146.568C47.5825 146.538 47.6629 146.467 47.7125 146.371C47.7622 146.274 47.7773 146.16 47.7546 146.051C47.161 143.75 46.1727 141.608 44.8476 139.751C43.5226 137.895 41.8877 136.361 40.0389 135.241C38.9882 134.604 37.8755 134.113 36.7239 133.778C36.2542 133.642 36.0539 134.475 36.5239 134.611V134.611Z" fill="#3F3D56"/>
<path d="M43.3212 144.958L45.6542 146.609L46.7775 147.404C47.1179 147.645 47.5112 148.035 47.9261 148.061C48.8565 148.119 48.7435 146.675 48.7844 145.977L48.9642 142.912C48.9968 142.357 48.2443 142.36 48.2119 142.912L48.0587 145.523L47.9855 146.772C47.9799 146.867 48.0017 147.149 47.9324 147.228C47.9819 147.171 47.9303 147.198 47.8751 147.16C47.7948 147.104 47.7126 147.051 47.6324 146.994L43.7009 144.212C43.2876 143.919 42.9093 144.666 43.3212 144.958V144.958Z" fill="#3F3D56"/>
<path d="M17.9895 25.265C19.9289 25.265 21.501 23.4603 21.501 21.2342C21.501 19.008 19.9289 17.2034 17.9895 17.2034C16.0502 17.2034 14.478 19.008 14.478 21.2342C14.478 23.4603 16.0502 25.265 17.9895 25.265Z" fill="#3B90FA"/>
<path d="M11.9699 104.248C13.9092 104.248 15.4814 102.444 15.4814 100.218C15.4814 97.9914 13.9092 96.1868 11.9699 96.1868C10.0305 96.1868 8.45837 97.9914 8.45837 100.218C8.45837 102.444 10.0305 104.248 11.9699 104.248Z" fill="#3B90FA"/>
<path d="M49.8438 160.296C51.7831 160.296 53.3553 158.492 53.3553 156.266C53.3553 154.04 51.7831 152.235 49.8438 152.235C47.9044 152.235 46.3323 154.04 46.3323 156.266C46.3323 158.492 47.9044 160.296 49.8438 160.296Z" fill="#3B90FA"/>
</g>
<defs>
<clipPath id="clip0_94_318">
<rect width="232.133" height="164.111" fill="white" transform="translate(0.933716 0.642868)"/>
</clipPath>
</defs>
</svg>
