<svg width="112" height="78" viewBox="0 0 112 78" fill="none" xmlns="http://www.w3.org/2000/svg">
<g clip-path="url(#clip0_169_2514)">
<path d="M93.2577 73.0996H89.168V77.1071H93.2577V73.0996Z" fill="#F0F0F0"/>
<path d="M111.661 34.6274C111.663 40.6703 110.2 46.6023 107.425 51.8006C104.651 56.999 100.667 61.2719 95.8931 64.1709C95.6225 64.3352 95.3482 64.4955 95.0727 64.6504C94.0511 65.2289 93 65.7409 91.9249 66.184C91.4966 66.363 91.064 66.5295 90.627 66.6836C90.5849 66.6996 90.5416 66.7157 90.4995 66.729C86.2192 68.2382 81.6901 68.6701 77.2408 67.9936C72.7916 67.3171 68.5337 65.549 64.7763 62.8177C64.2723 62.4516 63.7787 62.0696 63.2955 61.6715C63.0225 61.4458 62.753 61.216 62.4872 60.9796C61.7354 60.317 61.0137 59.6148 60.322 58.8729C57.3816 55.7363 55.0431 51.9712 53.4474 47.8045C51.8517 43.6377 51.0318 39.1554 51.0371 34.6274C51.0371 16.0352 64.6078 0.964287 81.3493 0.964287C98.0908 0.964287 111.661 16.0352 111.661 34.6274Z" fill="#F2F2F2"/>
<path d="M88.5884 50.3369L87.9052 53.2063L90.4997 66.729C83.5255 69.1687 75.9934 68.7386 69.2812 65.5174L71.3069 56.085L71.3742 50.9688L71.5944 34.0984L71.6497 34.0664C71.6531 34.0641 71.6567 34.0623 71.6605 34.061L76.8208 31.1182L85.7244 30.8711L92.3678 34.4645L92.3173 34.6742L88.5884 50.3369Z" fill="#3F3D56"/>
<path d="M92.2299 74.989C92.0255 74.7187 91.8768 74.4019 91.7946 74.0609C91.7123 73.7199 91.6983 73.363 91.7537 73.0154C91.809 72.6677 91.9323 72.3378 92.1149 72.0488C92.2975 71.7598 92.5349 71.5188 92.8104 71.3427L91.3652 62.9127L95.0717 64.6281L95.8759 72.3704C96.1115 72.9041 96.1627 73.5152 96.0198 74.088C95.8768 74.6607 95.5496 75.1554 95.1002 75.4782C94.6508 75.8009 94.1104 75.9294 93.5814 75.8393C93.0524 75.7491 92.5715 75.4466 92.2299 74.989Z" fill="#9E616A"/>
<path d="M91.0282 34.7268L91.9792 34.3831C91.9792 34.3831 94.9961 36.5333 94.7091 41.7319C94.7091 41.7319 94.8221 44.4219 94.7142 46.2122C94.5903 48.2657 96.2501 68.6715 96.2501 68.6715H90.8743L88.5703 50.1923L91.0282 34.7268Z" fill="#3F3D56"/>
<path d="M87.9104 21.6471C87.9104 23.0027 87.5484 24.3279 86.8702 25.4551C86.1921 26.5823 85.2281 27.4608 84.1003 27.9796C82.9726 28.4984 81.7316 28.6342 80.5343 28.3697C79.3371 28.1052 78.2373 27.4524 77.3741 26.4938C76.511 25.5352 75.9232 24.3139 75.685 22.9843C75.4469 21.6547 75.5691 20.2765 76.0362 19.024C76.5034 17.7716 77.2944 16.7011 78.3094 15.9479C79.3244 15.1947 80.5177 14.7927 81.7384 14.7927H81.7384C82.5469 14.7905 83.3479 14.9651 84.0956 15.3067C84.8434 15.6482 85.5232 16.1499 86.0963 16.7832C86.6694 17.4166 87.1246 18.169 87.4359 18.9977C87.7472 19.8264 87.9084 20.715 87.9104 21.6129C87.9104 21.6243 87.9104 21.6357 87.9104 21.6471Z" fill="#9E616A"/>
<path d="M75.5871 12.4405C76.3101 10.7139 77.7093 11.0552 78.933 11.6405C80.4826 11.2588 81.9564 10.1159 83.626 10.7918C85.2707 13.4483 90.7924 12.6667 89.6177 16.9915C89.6162 18.0278 91.3736 17.4246 91.0668 19.1218C91.9977 22.3881 87.7064 28.574 85.2428 27.2713C85.8521 26.0312 87.2439 23.2146 85.1329 22.9352C80.5918 27.6276 84.6644 13.9997 78.9586 17.9629C77.0693 19.883 74.4829 14.361 75.5871 12.4405Z" fill="#2F2E41"/>
<path d="M85.0319 67.4229L75.1797 65.2559L77.7059 51.0907C81.1919 52.555 84.476 53.2774 87.5581 53.2578C84.8646 57.6448 83.6409 62.3554 85.0319 67.4229Z" fill="#E4E4E4"/>
<path d="M83.6 68.255L73.7477 66.088C72.939 59.6707 73.6742 54.8391 76.274 51.9228C79.76 53.3871 83.0441 54.1094 86.1262 54.0898C84.4979 58.5959 83.6411 63.3998 83.6 68.255Z" fill="#3B90FA"/>
<path d="M77.0725 64.3092C77.0335 63.9588 76.9257 63.6222 76.7569 63.3231C76.588 63.024 76.3622 62.7697 76.0952 62.578C75.8283 62.3863 75.5267 62.262 75.2118 62.2137C74.8969 62.1654 74.5763 62.1944 74.2726 62.2987L69.6971 55.3834L68.3047 59.5661L72.8632 65.4917C73.0546 66.0467 73.4228 66.5045 73.8979 66.7782C74.373 67.0519 74.9219 67.1226 75.4408 66.9768C75.9597 66.831 76.4124 66.479 76.7131 65.9873C77.0138 65.4957 77.1417 64.8986 77.0725 64.3092Z" fill="#9E616A"/>
<path d="M72.9679 34.4633L72.1391 33.8416C72.1391 33.8416 67.2074 34.3516 66.1924 39.4365C66.1924 39.4365 65.4506 42.4915 65.1099 44.2455C64.9346 45.1476 62.5977 53.8636 62.5977 53.8636L70.5228 63.4816L72.6879 59.8748L70.5228 53.8635L72.9679 34.4633Z" fill="#3F3D56"/>
<path d="M4.42762 17.8652H0.337891V21.8727H4.42762V17.8652Z" fill="#3B90FA"/>
<path d="M13.2089 33.8953H9.11914V37.9028H13.2089V33.8953Z" fill="#3B90FA"/>
<path d="M19.5839 61.28H15.4941V65.2875H19.5839V61.28Z" fill="#3B90FA"/>
<path d="M15.5235 8.66525C15.4023 8.66525 15.286 8.71874 15.2003 8.81394C15.1146 8.90914 15.0664 9.03825 15.0664 9.17289C15.0664 9.30752 15.1146 9.43664 15.2003 9.53184C15.286 9.62704 15.4023 9.68052 15.5235 9.68052H48.8972C49.0183 9.68021 49.1343 9.62659 49.2198 9.53143C49.3053 9.43626 49.3533 9.30732 49.3533 9.17289C49.3533 9.03845 49.3053 8.90951 49.2198 8.81435C49.1343 8.71918 49.0183 8.66556 48.8972 8.66525H15.5235Z" fill="#E4E4E4"/>
<path d="M15.5229 11.7111C15.4629 11.7109 15.4034 11.7238 15.3478 11.7492C15.2923 11.7745 15.2417 11.8118 15.1992 11.8588C15.1566 11.9059 15.1228 11.9618 15.0997 12.0233C15.0765 12.0849 15.0646 12.1509 15.0645 12.2176C15.0643 12.2843 15.076 12.3504 15.0989 12.4121C15.1218 12.4737 15.1554 12.5298 15.1978 12.577C15.2402 12.6243 15.2906 12.6618 15.346 12.6874C15.4015 12.713 15.4609 12.7262 15.521 12.7263H36.6202C36.7415 12.7263 36.8577 12.6728 36.9435 12.5776C37.0292 12.4824 37.0773 12.3533 37.0773 12.2187C37.0773 12.0841 37.0292 11.9549 36.9435 11.8597C36.8577 11.7645 36.7415 11.7111 36.6202 11.7111H15.5229Z" fill="#E4E4E4"/>
<path d="M11.1934 45.1337C11.0722 45.1337 10.9559 45.1872 10.8702 45.2824C10.7845 45.3776 10.7363 45.5067 10.7363 45.6413C10.7363 45.7759 10.7845 45.9051 10.8702 46.0003C10.9559 46.0955 11.0722 46.1489 11.1934 46.1489H44.5672C44.6882 46.1486 44.8042 46.095 44.8897 45.9998C44.9752 45.9047 45.0232 45.7757 45.0232 45.6413C45.0232 45.5069 44.9752 45.3779 44.8897 45.2828C44.8042 45.1876 44.6882 45.134 44.5672 45.1337H11.1934Z" fill="#E4E4E4"/>
<path d="M11.1929 48.1795C11.1328 48.1793 11.0733 48.1922 11.0177 48.2176C10.9622 48.2429 10.9117 48.2802 10.8691 48.3272C10.8265 48.3743 10.7927 48.4302 10.7696 48.4918C10.7465 48.5533 10.7345 48.6193 10.7344 48.686C10.7342 48.7528 10.746 48.8188 10.7688 48.8805C10.7917 48.9422 10.8253 48.9982 10.8677 49.0455C10.9101 49.0927 10.9605 49.1302 11.016 49.1558C11.0714 49.1814 11.1309 49.1947 11.1909 49.1948H32.2901C32.4114 49.1948 32.5276 49.1413 32.6134 49.0461C32.6991 48.9509 32.7472 48.8217 32.7472 48.6871C32.7472 48.5525 32.6991 48.4234 32.6134 48.3282C32.5276 48.233 32.4114 48.1795 32.2901 48.1795H11.1929Z" fill="#E4E4E4"/>
<path d="M30.1993 71.1825C30.0781 71.1825 29.9618 71.236 29.8761 71.3312C29.7903 71.4264 29.7422 71.5555 29.7422 71.6902C29.7422 71.8248 29.7903 71.9539 29.8761 72.0491C29.9618 72.1443 30.0781 72.1978 30.1993 72.1978H63.573C63.6941 72.1975 63.8101 72.1439 63.8956 72.0487C63.9811 71.9535 64.0291 71.8246 64.0291 71.6902C64.0291 71.5557 63.9811 71.4268 63.8956 71.3316C63.8101 71.2365 63.6941 71.1828 63.573 71.1825H30.1993Z" fill="#E4E4E4"/>
<path d="M30.1987 74.2283C30.1387 74.2281 30.0791 74.2411 30.0236 74.2664C29.968 74.2918 29.9175 74.3291 29.8749 74.3761C29.8324 74.4232 29.7986 74.479 29.7754 74.5406C29.7523 74.6022 29.7404 74.6682 29.7402 74.7349C29.7401 74.8016 29.7518 74.8677 29.7747 74.9294C29.7976 74.991 29.8312 75.0471 29.8736 75.0943C29.916 75.1416 29.9664 75.1791 30.0218 75.2047C30.0773 75.2303 30.1367 75.2435 30.1968 75.2436H51.296C51.4172 75.2436 51.5335 75.1901 51.6192 75.0949C51.705 74.9997 51.7531 74.8706 51.7531 74.736C51.7531 74.6013 51.705 74.4722 51.6192 74.377C51.5335 74.2818 51.4172 74.2283 51.296 74.2283H30.1987Z" fill="#E4E4E4"/>
<path d="M2.26079 19.8871C3.24055 19.6481 4.1674 19.1941 4.98684 18.5515C5.80628 17.909 6.50177 17.091 7.0324 16.1456C7.33366 15.6081 7.57645 15.0328 7.7557 14.4318C7.76925 14.3821 7.76487 14.3284 7.74349 14.2822C7.7221 14.2359 7.68539 14.2007 7.64108 14.184C7.59677 14.1672 7.54833 14.1702 7.50597 14.1923C7.46362 14.2145 7.43065 14.254 7.41403 14.3026C7.10645 15.3071 6.62097 16.2331 5.98619 17.026C5.35141 17.819 4.58018 18.4628 3.7179 18.9196C3.23203 19.1775 2.72023 19.3701 2.19332 19.4934C1.96603 19.5466 2.03302 19.9404 2.26079 19.8871Z" fill="#3F3D56"/>
<path d="M5.77695 15.1993C6.42733 14.7925 7.07772 14.3856 7.72811 13.9788C7.75824 13.9601 7.8426 13.8891 7.8741 13.8976C7.84884 13.8908 7.87177 13.9116 7.87252 13.9369C7.87352 13.9711 7.8774 14.0058 7.87856 14.0402C7.88562 14.2511 7.88907 14.4623 7.89433 14.6734L7.92458 15.887C7.93094 16.1424 8.29103 16.1728 8.2846 15.9144L8.2491 14.4897C8.24096 14.1632 8.31449 13.439 7.83821 13.5016C7.66635 13.5242 7.50744 13.6579 7.36085 13.7496L6.76701 14.1211L5.62176 14.8374C5.42008 14.9636 5.5744 15.326 5.77695 15.1993V15.1993Z" fill="#3F3D56"/>
<path d="M11.2012 35.8849C10.2314 36.1676 9.32222 36.6627 8.52715 37.3411C7.73208 38.0196 7.06714 38.8676 6.57141 39.8355C6.28999 40.3857 6.06837 40.971 5.91119 41.5791C5.90032 41.6297 5.90755 41.683 5.93136 41.7277C5.95518 41.7725 5.99371 41.8052 6.03884 41.819C6.08397 41.8328 6.13216 41.8267 6.17326 41.8018C6.21437 41.7769 6.24516 41.7353 6.25916 41.6857C6.53149 40.6679 6.9845 39.721 7.59151 38.9007C8.19852 38.0805 8.94723 37.4034 9.79353 36.9095C10.2701 36.6312 10.7749 36.417 11.2971 36.2713C11.5221 36.2083 11.4268 35.8217 11.2012 35.8849L11.2012 35.8849Z" fill="#3F3D56"/>
<path d="M7.8547 40.7259L5.96926 42.017C5.93694 42.0391 5.90518 42.0633 5.87155 42.0829C5.83816 42.1025 5.80383 42.1019 5.82541 42.1254C5.79631 42.0937 5.80373 41.9759 5.80155 41.94L5.76483 41.3343L5.69138 40.123C5.67586 39.8671 5.31494 39.8651 5.33057 40.123L5.41679 41.545C5.43643 41.8688 5.38212 42.5389 5.82841 42.5118C6.02712 42.4998 6.21644 42.3185 6.37927 42.207L6.91797 41.8381L8.03681 41.0719C8.23411 40.9368 8.0531 40.59 7.8547 40.7259V40.7259Z" fill="#3F3D56"/>
<path d="M17.4058 63.1217C18.3307 63.3906 19.1977 63.8624 19.9558 64.5093C20.7139 65.1561 21.3477 65.965 21.8199 66.8882C22.0861 67.408 22.2956 67.9612 22.4438 68.536C22.4578 68.5857 22.4886 68.6273 22.5297 68.6522C22.5708 68.677 22.619 68.6832 22.6641 68.6694C22.7092 68.6556 22.7477 68.6229 22.7716 68.5781C22.7954 68.5334 22.8026 68.4801 22.7917 68.4295C22.5071 67.3618 22.0331 66.3681 21.3977 65.5068C20.7622 64.6455 19.9781 63.9339 19.0915 63.4139C18.5877 63.1186 18.054 62.8908 17.5017 62.7353C17.2765 62.6722 17.1804 63.0586 17.4058 63.1217Z" fill="#3F3D56"/>
<path d="M20.6653 67.9223L21.7842 68.6885L22.3229 69.0573C22.4861 69.1691 22.6747 69.3501 22.8737 69.3622C23.3199 69.3893 23.2657 68.7193 23.2853 68.3954L23.3716 66.9734C23.3872 66.7159 23.0263 66.717 23.0108 66.9734L22.9373 68.1847L22.9022 68.7641C22.8995 68.8084 22.9099 68.939 22.8767 68.9758C22.9004 68.9495 22.8757 68.962 22.8492 68.9442C22.8107 68.9182 22.7713 68.8937 22.7329 68.8674L20.8474 67.5763C20.6492 67.4406 20.4678 67.7871 20.6653 67.9223Z" fill="#3F3D56"/>
<path d="M8.51799 12.3883C9.44804 12.3883 10.202 11.551 10.202 10.5181C10.202 9.48523 9.44804 8.64793 8.51799 8.64793C7.58794 8.64793 6.83398 9.48523 6.83398 10.5181C6.83398 11.551 7.58794 12.3883 8.51799 12.3883Z" fill="#3B90FA"/>
<path d="M5.62932 49.0344C6.55937 49.0344 7.31333 48.1971 7.31333 47.1642C7.31333 46.1313 6.55937 45.294 5.62932 45.294C4.69927 45.294 3.94531 46.1313 3.94531 47.1642C3.94531 48.1971 4.69927 49.0344 5.62932 49.0344Z" fill="#3B90FA"/>
<path d="M23.7934 75.0392C24.7234 75.0392 25.4774 74.2018 25.4774 73.169C25.4774 72.1361 24.7234 71.2988 23.7934 71.2988C22.8633 71.2988 22.1094 72.1361 22.1094 73.169C22.1094 74.2018 22.8633 75.0392 23.7934 75.0392Z" fill="#3B90FA"/>
</g>
<defs>
<clipPath id="clip0_169_2514">
<rect width="111.324" height="76.1429" fill="white" transform="translate(0.337891 0.964287)"/>
</clipPath>
</defs>
</svg>
