<svg width="234" height="165" viewBox="0 0 234 165" fill="none" xmlns="http://www.w3.org/2000/svg">
<g clip-path="url(#clip0_94_350)">
<path d="M226.975 159.815L224.675 160.525L220.743 152.301L224.138 151.253L226.975 159.815Z" fill="#FFB6B6"/>
<path d="M228.275 161.785L220.859 164.074L220.829 163.984C220.584 163.245 220.653 162.443 221.021 161.753C221.389 161.064 222.026 160.543 222.792 160.307L222.792 160.307L223.818 158.897L226.674 159.109L227.322 158.909L228.275 161.785Z" fill="#2F2E41"/>
<path d="M205.168 162.029H202.753L201.604 153.04H205.168L205.168 162.029Z" fill="#FFB6B6"/>
<path d="M205.784 164.288L197.997 164.287V164.192C197.997 163.417 198.317 162.673 198.885 162.124C199.453 161.576 200.224 161.268 201.028 161.268H201.028L202.451 160.226L205.104 161.268L205.784 161.268L205.784 164.288Z" fill="#2F2E41"/>
<path d="M193.634 69.1353C193.453 69.3533 193.323 69.607 193.255 69.8785C193.186 70.15 193.18 70.4328 193.237 70.7068C193.294 70.9808 193.413 71.2394 193.584 71.4645C193.756 71.6895 193.977 71.8755 194.231 72.0093L193.073 78.7099L196.416 77.278L197.003 71.1345C197.208 70.7074 197.243 70.2227 197.102 69.7723C196.961 69.3219 196.654 68.937 196.239 68.6905C195.824 68.4441 195.329 68.3532 194.849 68.4352C194.369 68.5172 193.937 68.7663 193.634 69.1353Z" fill="#FFB6B6"/>
<path d="M224.116 124.719C224.116 124.719 224.68 117.641 222.683 116.326C220.687 115.012 204.229 114.35 204.229 114.35L203.207 115.647C203.207 115.647 203.114 116.252 201.564 121.187L200.933 148.731C200.87 151.417 200.385 154.791 201.547 155.481L202.112 158.206H205.219L206.935 153.624C207.675 152.471 207.99 151.111 207.83 149.763L208.767 145.718C208.702 145.654 208.655 145.574 208.634 145.487C208.528 144.884 208.668 144.265 209.025 143.76C209.108 143.642 209.199 143.53 209.298 143.424L212.732 128.601L217.364 145.94L220.223 152.1C219.942 152.745 220.128 153.33 220.64 153.873C220.45 154.378 221.273 154.732 221.626 155.385L222.73 157.389L225.837 155.753L226.12 154.118C226.308 153.633 225.802 153.311 225.429 152.304C226.125 151.591 226.087 150.897 225.416 150.219L224.242 145.331L224.228 143.091L224.214 140.696L224.116 124.719Z" fill="#2F2E41"/>
<path d="M211.126 82.6358C214.107 82.6358 216.523 80.3039 216.523 77.4273C216.523 74.5506 214.107 72.2187 211.126 72.2187C208.145 72.2187 205.729 74.5506 205.729 77.4273C205.729 80.3039 208.145 82.6358 211.126 82.6358Z" fill="#FFB6B6"/>
<path d="M216.556 78.2427L216.467 78.0707C216.329 77.8047 215.188 75.593 215.044 75.0244L213.608 75.1874L209.868 75.188L210.388 74.4356L209.014 74.6086C208.511 74.6675 208.031 74.8422 207.614 75.1179C207.357 75.2822 207.141 75.4977 206.978 75.7498C206.488 76.5609 205.738 77.8877 205.73 77.901L205.658 78.0279L205.035 77.0163C205.027 76.9771 204.255 73.09 206.839 71.7716C207.208 71.0771 207.778 70.5012 208.48 70.1145C209.182 69.7277 209.986 69.5469 210.793 69.594C211.088 69.2693 211.504 69.0699 211.95 69.0389C212.563 69.008 213.2 69.3188 213.839 69.9665C214.688 70.8267 215.85 72.0048 216.553 73.3128L216.747 73.5799C217.023 73.9622 217.16 74.4218 217.136 74.8869C217.285 75.6292 217.232 76.3962 216.982 77.1127L216.556 78.2427Z" fill="#2F2E41"/>
<path d="M224.091 87.3392L218.225 85.754L215.238 83.6159L209.372 84.5192L209.346 84.5511C208.319 85.8388 206.736 87.1109 205.053 87.1616C204.62 87.1751 204.19 87.2347 203.77 87.3392L203.207 97.2773V106.163C203.295 106.191 203.374 106.241 203.436 106.308C203.498 106.374 203.541 106.455 203.561 106.542C203.727 107.448 203.711 108.376 203.515 109.276C203.446 109.59 203.343 109.896 203.207 110.189C203.371 110.516 203.456 110.875 203.456 111.238C203.456 111.602 203.371 111.96 203.207 112.287C202.705 112.749 202.77 113.251 203.207 113.781V115.647C212.729 123.314 222.659 116.749 222.659 116.749L222.34 102.155L224.091 87.3392Z" fill="#3F3D56"/>
<path d="M205.086 88.7043L203.77 87.3392L196.519 86.5466L197.199 75.7988L193.246 73.0771L191.456 82.4037C190.84 82.9177 190.726 83.424 191.164 83.9217C190.672 84.8731 190.545 85.6466 190.712 86.2772L190.342 88.2079L203.759 97.2773L205.086 88.7043Z" fill="#3F3D56"/>
<path d="M223.021 123.847C222.865 123.612 222.764 123.346 222.726 123.069C222.688 122.792 222.713 122.511 222.8 122.244C222.886 121.977 223.033 121.732 223.228 121.526C223.424 121.32 223.664 121.158 223.931 121.051L223.518 114.269L226.685 116.036L226.592 122.205C226.748 122.651 226.73 123.137 226.54 123.57C226.35 124.003 226.002 124.355 225.562 124.557C225.122 124.759 224.62 124.799 224.152 124.668C223.683 124.537 223.281 124.245 223.021 123.847Z" fill="#FFB6B6"/>
<path d="M221.887 89.0352L224.091 87.3392C224.091 87.3392 226.345 88.5388 227.031 90.6898C227.716 92.8407 228.917 105.084 228.917 105.084L229.102 109.643C229.339 110.366 229.277 111.011 228.712 111.525C229.561 112.373 229.434 113.079 228.274 113.635L227.071 120.802L223.295 120.046L223.773 105.912L220.687 96.8116L221.887 89.0352Z" fill="#3F3D56"/>
<path d="M71.0592 32.8882H70.2864V12.4564C70.2864 10.9035 69.9694 9.36576 69.3536 7.93104C68.7378 6.49632 67.8353 5.19269 66.6974 4.09461C65.5596 2.99652 64.2088 2.12546 62.7221 1.53118C61.2354 0.936901 59.642 0.631028 58.0329 0.631027H13.1782C9.92836 0.631021 6.81164 1.8769 4.51366 4.09458C2.21568 6.31226 0.92469 9.32009 0.924683 12.4564V124.547C0.924681 127.683 2.21566 130.691 4.51364 132.909C6.81161 135.126 9.92833 136.372 13.1782 136.372H58.0328C59.642 136.372 61.2354 136.066 62.722 135.472C64.2087 134.878 65.5595 134.007 66.6974 132.909C67.8352 131.811 68.7378 130.507 69.3536 129.072C69.9694 127.638 70.2863 126.1 70.2863 124.547V47.4319H71.0592V32.8882Z" fill="#3F3D56"/>
<path d="M58.5273 3.70759H52.6722C52.9415 4.34466 53.0443 5.03585 52.9715 5.72028C52.8988 6.40471 52.6527 7.06138 52.2551 7.63242C51.8574 8.20347 51.3203 8.67138 50.6911 8.99492C50.0619 9.31847 49.36 9.48772 48.647 9.48777H22.9504C22.2374 9.48772 21.5354 9.31847 20.9063 8.99493C20.2771 8.67138 19.74 8.20347 19.3423 7.63242C18.9447 7.06137 18.6986 6.40471 18.6259 5.72027C18.5531 5.03584 18.6559 4.34464 18.9252 3.70757H13.4566C11.0296 3.70757 8.70209 4.63798 6.98599 6.29412C5.26989 7.95026 4.30579 10.1965 4.30579 12.5386V124.465C4.30579 125.624 4.54248 126.773 5.00234 127.844C5.46221 128.916 6.13625 129.889 6.98598 130.709C7.83571 131.529 8.84448 132.18 9.9547 132.623C11.0649 133.067 12.2548 133.296 13.4565 133.296H58.5273C59.7289 133.296 60.9189 133.067 62.0291 132.623C63.1393 132.18 64.1481 131.529 64.9978 130.709C65.8475 129.889 66.5216 128.916 66.9815 127.844C67.4413 126.773 67.678 125.624 67.678 124.465V12.5386C67.678 11.3789 67.4413 10.2306 66.9815 9.15914C66.5216 8.0877 65.8475 7.11418 64.9978 6.29414C64.1481 5.4741 63.1393 4.82361 62.0291 4.37981C60.9189 3.93601 59.7289 3.70759 58.5273 3.70759Z" fill="white"/>
<path d="M58.0939 45.6281C58.0971 48.1706 57.6273 50.693 56.7068 53.0752C56.2888 54.1664 55.776 55.2215 55.1739 56.2294C53.2383 59.4889 50.4451 62.1975 47.0769 64.0811C43.7086 65.9648 39.8848 66.9568 35.9919 66.9568C32.099 66.9568 28.2751 65.9648 24.9068 64.0811C21.5386 62.1975 18.7455 59.4889 16.8098 56.2294C16.6139 55.9016 16.4281 55.5688 16.2524 55.2312C14.75 52.3551 13.942 49.1879 13.889 45.9674C13.836 42.7469 14.5395 39.5566 15.9465 36.6358C17.3536 33.7151 19.4277 31.1398 22.0133 29.1031C24.5989 27.0665 27.6289 25.6213 30.8759 24.8761C34.1229 24.1308 37.5026 24.1049 40.7615 24.8002C44.0203 25.4955 47.0737 26.8939 49.6926 28.8906C52.3115 30.8874 54.4278 33.4305 55.8828 36.3293C57.3378 39.228 58.0937 42.4071 58.0939 45.6281Z" fill="#F1F1F1"/>
<path d="M37.141 49.229C39.4746 49.229 41.3664 47.4033 41.3664 45.1512C41.3664 42.899 39.4746 41.0733 37.141 41.0733C34.8073 41.0733 32.9155 42.899 32.9155 45.1512C32.9155 47.4033 34.8073 49.229 37.141 49.229Z" fill="#FF6582"/>
<path d="M16.2524 55.2313C18.1141 53.2896 20.6029 50.2069 22.9371 52.4344C24.1086 53.485 25.942 56.0886 27.697 54.3865L41.4017 41.1606C41.6597 40.9148 41.966 40.7212 42.3026 40.5913C42.6393 40.4613 42.9994 40.3976 43.3619 40.4038C43.7244 40.4101 44.0819 40.4862 44.4135 40.6277C44.7451 40.7692 45.044 40.9733 45.2928 41.2278L56.7068 53.0753C56.2888 54.1664 55.776 55.2215 55.1739 56.2294H16.8099L16.2524 55.2313Z" fill="#3B90FA"/>
<path d="M46.3623 88.9422C46.2111 88.9425 46.0662 89.0007 45.9594 89.104C45.8526 89.2073 45.7926 89.3473 45.7926 89.4932C45.7926 89.6392 45.8526 89.7792 45.9594 89.8825C46.0662 89.9858 46.2111 90.044 46.3623 90.0443H52.3541C52.5055 90.0443 52.6508 89.9862 52.7578 89.8829C52.8649 89.7796 52.9251 89.6394 52.9251 89.4932C52.9251 89.3471 52.8649 89.2069 52.7578 89.1036C52.6508 89.0003 52.5055 88.9422 52.3541 88.9422H46.3623Z" fill="#97A3E8"/>
<path d="M19.3677 80.8486C19.2163 80.8486 19.0711 80.9066 18.964 81.01C18.8569 81.1133 18.7968 81.2535 18.7968 81.3996C18.7968 81.5457 18.8569 81.6859 18.964 81.7892C19.0711 81.8926 19.2163 81.9506 19.3677 81.9506H52.6162C52.7676 81.9506 52.9129 81.8926 53.02 81.7892C53.127 81.6859 53.1872 81.5457 53.1872 81.3996C53.1872 81.2535 53.127 81.1133 53.02 81.01C52.9129 80.9066 52.7676 80.8486 52.6162 80.8486H19.3677Z" fill="#E5E5E5"/>
<path d="M19.3677 84.8954C19.2165 84.8957 19.0716 84.9539 18.9648 85.0572C18.858 85.1605 18.798 85.3005 18.798 85.4464C18.798 85.5924 18.858 85.7323 18.9648 85.8356C19.0716 85.9389 19.2165 85.9971 19.3677 85.9975H52.6162C52.6912 85.9976 52.7656 85.9835 52.8351 85.9559C52.9045 85.9282 52.9676 85.8877 53.0207 85.8365C53.0739 85.7853 53.1161 85.7245 53.1448 85.6576C53.1736 85.5906 53.1884 85.5189 53.1884 85.4464C53.1884 85.374 53.1736 85.3022 53.1448 85.2353C53.1161 85.1683 53.0739 85.1075 53.0207 85.0564C52.9676 85.0052 52.9045 84.9646 52.8351 84.937C52.7656 84.9094 52.6912 84.8952 52.6162 84.8954H19.3677Z" fill="#E5E5E5"/>
<path d="M46.3623 114.909C46.2108 114.909 46.0656 114.967 45.9585 115.071C45.8514 115.174 45.7913 115.314 45.7913 115.46C45.7913 115.607 45.8514 115.747 45.9585 115.85C46.0656 115.953 46.2108 116.011 46.3623 116.011H52.354C52.5055 116.011 52.6507 115.953 52.7578 115.85C52.8648 115.747 52.925 115.607 52.925 115.46C52.925 115.314 52.8648 115.174 52.7578 115.071C52.6507 114.967 52.5055 114.909 52.354 114.909H46.3623Z" fill="#97A3E8"/>
<path d="M19.3677 106.816C19.2163 106.816 19.0711 106.874 18.964 106.977C18.8569 107.08 18.7968 107.221 18.7968 107.367C18.7968 107.513 18.8569 107.653 18.964 107.756C19.0711 107.86 19.2163 107.918 19.3677 107.918H52.6162C52.6913 107.918 52.7657 107.904 52.8351 107.876C52.9045 107.849 52.9676 107.808 53.0208 107.757C53.0739 107.706 53.1161 107.645 53.1449 107.578C53.1737 107.511 53.1885 107.439 53.1885 107.367C53.1885 107.294 53.1737 107.223 53.1449 107.156C53.1161 107.089 53.0739 107.028 53.0208 106.977C52.9676 106.925 52.9045 106.885 52.8351 106.857C52.7657 106.83 52.6913 106.816 52.6162 106.816H19.3677Z" fill="#E5E5E5"/>
<path d="M19.3677 110.863C19.2163 110.863 19.0711 110.921 18.964 111.024C18.8569 111.127 18.7968 111.267 18.7968 111.414C18.7968 111.56 18.8569 111.7 18.964 111.803C19.0711 111.907 19.2163 111.965 19.3677 111.965H52.6162C52.7676 111.965 52.9129 111.907 53.02 111.803C53.127 111.7 53.1872 111.56 53.1872 111.414C53.1872 111.267 53.127 111.127 53.02 111.024C52.9129 110.921 52.7676 110.863 52.6162 110.863H19.3677Z" fill="#E5E5E5"/>
<path d="M190.466 62.7471L185.903 60.7563C185.881 61.3442 185.708 61.9177 185.402 62.4263C185.095 62.9349 184.664 63.3629 184.146 63.6726C183.627 63.9824 183.038 64.1643 182.43 64.2025C181.821 64.2407 181.212 64.1339 180.657 63.8915L160.634 55.1541C160.079 54.9117 159.593 54.5411 159.221 54.0751C158.849 53.6091 158.602 53.0618 158.5 52.4817C158.399 51.9015 158.447 51.3062 158.64 50.7481C158.833 50.1901 159.166 49.6865 159.608 49.2816L155.347 47.4222C153.456 46.597 151.303 46.5306 149.361 47.2375C147.419 47.9445 145.848 49.3669 144.993 51.1919L104.13 138.404C103.707 139.307 103.472 140.283 103.439 141.274C103.406 142.265 103.576 143.253 103.939 144.181C104.302 145.109 104.85 145.959 105.553 146.682C106.256 147.405 107.1 147.988 108.036 148.396H108.036L143.155 163.721C145.046 164.546 147.2 164.613 149.141 163.906C151.083 163.199 152.654 161.777 153.509 159.952L194.372 72.7396C194.795 71.8359 195.03 70.8607 195.063 69.8695C195.096 68.8782 194.926 67.8905 194.563 66.9626C194.2 66.0347 193.652 65.1849 192.949 64.4615C192.246 63.7382 191.402 63.1557 190.466 62.7471Z" fill="#E4E4E4"/>
<path d="M149.822 104.273C146.746 102.925 144.093 100.82 142.128 98.1686C140.163 95.5176 138.956 92.4141 138.627 89.1701C138.594 88.8484 138.571 88.5176 138.556 88.1878C138.423 85.2951 139.002 82.413 140.246 79.7782C141.404 77.3108 143.108 75.1186 145.239 73.3562C147.37 71.5937 149.876 70.304 152.58 69.5781C155.284 68.8521 158.12 68.7076 160.888 69.1546C163.656 69.6017 166.289 70.6294 168.6 72.1654C170.912 73.7014 172.846 75.7082 174.267 78.0442C175.687 80.3802 176.559 82.9885 176.821 85.6852C177.083 88.3819 176.729 91.1012 175.783 93.6513C174.837 96.2014 173.323 98.5202 171.348 100.444C170.613 101.163 169.816 101.82 168.966 102.41C166.225 104.314 163.013 105.489 159.653 105.816C156.292 106.143 152.901 105.611 149.822 104.273ZM165.396 71.0328C160.896 69.0753 155.775 68.9203 151.157 70.6019C146.538 72.2836 142.8 75.6645 140.761 80.0029C139.553 82.56 138.991 85.3572 139.121 88.1647C139.135 88.4847 139.158 88.8051 139.19 89.1171C139.503 92.2674 140.673 95.282 142.581 97.856C144.488 100.43 147.067 102.472 150.055 103.776C153.043 105.08 156.335 105.6 159.597 105.282C162.86 104.964 165.978 103.821 168.636 101.967C169.46 101.395 170.233 100.758 170.946 100.06C173.061 98.0005 174.628 95.4773 175.514 92.7062C176.399 89.9351 176.577 86.9984 176.032 84.1467C175.487 81.295 174.234 78.6129 172.382 76.3294C170.53 74.0458 168.133 72.2286 165.396 71.0328H165.396Z" fill="white"/>
<path d="M151.713 70.1026L151.185 70.2976L164.607 104.112L165.135 103.917L151.713 70.1026Z" fill="white"/>
<path d="M174.831 80.6497L139.792 93.6004L139.994 94.1095L175.033 81.1589L174.831 80.6497Z" fill="white"/>
<path d="M157.454 130.693L124.308 116.229C124.062 116.121 123.871 115.924 123.776 115.68C123.68 115.437 123.689 115.167 123.8 114.929L126.918 108.274C127.03 108.037 127.234 107.853 127.486 107.761C127.739 107.669 128.019 107.677 128.264 107.784L161.411 122.248C161.656 122.356 161.848 122.553 161.943 122.797C162.038 123.04 162.029 123.31 161.918 123.548L158.8 130.203C158.689 130.44 158.485 130.624 158.232 130.716C157.98 130.808 157.7 130.8 157.454 130.693ZM128.032 108.281C127.922 108.233 127.798 108.23 127.686 108.27C127.573 108.311 127.482 108.394 127.433 108.499L124.315 115.154C124.265 115.259 124.262 115.38 124.304 115.488C124.346 115.596 124.431 115.684 124.541 115.732L157.687 130.196C157.796 130.244 157.921 130.247 158.033 130.206C158.145 130.166 158.236 130.083 158.286 129.978L161.404 123.323C161.453 123.217 161.457 123.097 161.415 122.989C161.372 122.881 161.287 122.793 161.178 122.745L128.032 108.281Z" fill="white"/>
<path d="M149.425 147.83L116.279 133.366C116.033 133.258 115.841 133.061 115.746 132.817C115.651 132.574 115.66 132.304 115.771 132.066L118.889 125.412C119 125.174 119.204 124.99 119.457 124.898C119.709 124.806 119.989 124.814 120.235 124.921L153.381 139.385C153.627 139.493 153.818 139.69 153.914 139.934C154.009 140.177 154 140.447 153.889 140.685L150.771 147.34C150.66 147.577 150.455 147.761 150.203 147.853C149.95 147.945 149.671 147.937 149.425 147.83ZM120.002 125.418C119.893 125.371 119.768 125.367 119.656 125.408C119.544 125.448 119.453 125.531 119.403 125.636L116.285 132.291C116.236 132.397 116.232 132.517 116.274 132.625C116.317 132.733 116.402 132.821 116.511 132.869L149.657 147.333C149.767 147.381 149.891 147.384 150.004 147.344C150.116 147.303 150.207 147.221 150.256 147.115L153.374 140.46C153.424 140.355 153.428 140.234 153.385 140.126C153.343 140.018 153.258 139.93 153.148 139.882L120.002 125.418Z" fill="white"/>
<path d="M136.614 104.468C135.932 101.191 134.46 98.1158 132.316 95.491C130.137 92.8258 127.476 90.5636 124.461 88.8139C121.345 86.9878 117.951 85.645 114.404 84.8346C109.995 83.8124 105.442 83.4794 100.917 83.5214C96.3591 83.5637 91.8161 83.9758 87.2866 84.4348C86.7109 84.4932 86.1353 84.5521 85.5597 84.6117C85.0231 84.6669 85.0172 85.4853 85.5597 85.4294C90.0223 84.9696 94.4916 84.5176 98.9798 84.3786C103.431 84.2406 107.916 84.4097 112.297 85.2295C115.946 85.8829 119.466 87.0839 122.729 88.7889C125.769 90.3782 128.496 92.4709 130.784 94.9715C133.026 97.4157 134.648 100.33 135.52 103.484C135.626 103.882 135.717 104.282 135.797 104.685C135.899 105.202 136.716 104.983 136.614 104.468Z" fill="#2F2E41"/>
<path d="M88.586 78.7599L81.8181 85.7072C81.773 85.7518 81.7389 85.8056 81.7185 85.8647C81.698 85.9237 81.6917 85.9865 81.6999 86.0483C81.7082 86.1101 81.7308 86.1692 81.7661 86.2214C81.8014 86.2735 81.8485 86.3173 81.9038 86.3493L88.0096 89.166C88.4992 89.3918 88.9296 88.687 88.4373 88.4599L82.3315 85.6433L82.4172 86.2854L89.1851 79.3381C89.5584 78.9549 88.9604 78.3755 88.586 78.7599Z" fill="#2F2E41"/>
<path d="M232.687 164.648H103.528C103.439 164.648 103.354 164.613 103.291 164.553C103.228 164.492 103.192 164.409 103.192 164.323C103.192 164.237 103.228 164.155 103.291 164.094C103.354 164.033 103.439 163.999 103.528 163.999H232.687C232.777 163.999 232.862 164.033 232.925 164.094C232.988 164.155 233.024 164.237 233.024 164.323C233.024 164.409 232.988 164.492 232.925 164.553C232.862 164.613 232.777 164.648 232.687 164.648Z" fill="#CACACA"/>
</g>
<defs>
<clipPath id="clip0_94_350">
<rect width="232.099" height="164.017" fill="white" transform="translate(0.924683 0.631035)"/>
</clipPath>
</defs>
</svg>
