<svg width="194" height="141" viewBox="0 0 194 141" fill="none" xmlns="http://www.w3.org/2000/svg">
<g clip-path="url(#clip0_150_355)">
<path d="M188.944 136.845L187.022 137.456L183.735 130.386L186.573 129.485L188.944 136.845Z" fill="#FFB6B6"/>
<path d="M190.031 138.539L183.832 140.507L183.807 140.429C183.602 139.794 183.66 139.104 183.968 138.512C184.276 137.919 184.808 137.472 185.448 137.268L185.448 137.268L186.306 136.056L188.693 136.238L189.234 136.067L190.031 138.539Z" fill="#2F2E41"/>
<path d="M170.717 138.748H168.698L167.738 131.021H170.717L170.717 138.748Z" fill="#FFB6B6"/>
<path d="M171.231 140.69L164.723 140.69V140.609C164.723 139.942 164.99 139.302 165.465 138.831C165.94 138.359 166.585 138.094 167.256 138.094H167.257L168.445 137.199L170.663 138.094L171.232 138.094L171.231 140.69Z" fill="#2F2E41"/>
<path d="M161.076 58.8909C160.925 59.0784 160.817 59.2965 160.759 59.5299C160.702 59.7633 160.697 60.0064 160.745 60.2419C160.792 60.4775 160.891 60.6998 161.035 60.8933C161.178 61.0868 161.363 61.2466 161.575 61.3617L160.607 67.122L163.402 65.891L163.893 60.6096C164.064 60.2425 164.093 59.8258 163.975 59.4386C163.857 59.0513 163.601 58.7205 163.253 58.5086C162.906 58.2968 162.493 58.2187 162.092 58.2891C161.69 58.3596 161.329 58.5737 161.076 58.8909Z" fill="#FFB6B6"/>
<path d="M186.555 106.675C186.555 106.675 187.026 100.59 185.357 99.4595C183.689 98.3294 169.932 97.7604 169.932 97.7604L169.078 98.8754C169.078 98.8754 169 99.3961 167.705 103.638L167.177 127.317C167.125 129.626 166.719 132.526 167.691 133.119L168.163 135.463H170.76L172.194 131.523C172.813 130.532 173.076 129.363 172.942 128.204L173.725 124.726C173.671 124.672 173.632 124.603 173.614 124.528C173.525 124.01 173.643 123.478 173.941 123.044C174.01 122.942 174.087 122.846 174.169 122.755L177.04 110.012L180.911 124.918L183.3 130.213C183.065 130.768 183.222 131.271 183.65 131.737C183.491 132.171 184.178 132.476 184.474 133.037L185.397 134.76L187.993 133.354L188.229 131.948C188.387 131.531 187.964 131.254 187.652 130.388C188.234 129.776 188.202 129.179 187.642 128.596L186.66 124.394L186.649 122.468L186.636 120.409L186.555 106.675Z" fill="#2F2E41"/>
<path d="M175.697 70.497C178.188 70.497 180.208 68.4923 180.208 66.0193C180.208 63.5464 178.188 61.5417 175.697 61.5417C173.205 61.5417 171.186 63.5464 171.186 66.0193C171.186 68.4923 173.205 70.497 175.697 70.497Z" fill="#FFB6B6"/>
<path d="M180.235 66.7204L180.161 66.5725C180.045 66.3438 179.091 64.4425 178.972 63.9536L177.771 64.0938L174.645 64.0943L175.079 63.4475L173.931 63.5962C173.511 63.6469 173.11 63.797 172.761 64.034C172.547 64.1753 172.365 64.3605 172.23 64.5773C171.82 65.2746 171.193 66.4151 171.187 66.4266L171.127 66.5357L170.606 65.6661C170.599 65.6323 169.953 62.2907 172.114 61.1574C172.422 60.5603 172.898 60.0652 173.485 59.7328C174.072 59.4003 174.744 59.2448 175.418 59.2853C175.665 59.0062 176.012 58.8348 176.385 58.8081C176.898 58.7816 177.43 59.0488 177.964 59.6055C178.674 60.3451 179.645 61.3578 180.233 62.4823L180.395 62.7119C180.626 63.0405 180.74 63.4357 180.72 63.8355C180.845 64.4736 180.8 65.133 180.591 65.7489L180.235 66.7204Z" fill="#2F2E41"/>
<path d="M186.534 74.5403L181.63 73.1776L179.134 71.3395L174.231 72.116L174.209 72.1435C173.351 73.2504 172.027 74.344 170.621 74.3876C170.259 74.3992 169.899 74.4505 169.548 74.5403L169.078 83.0838V90.7223C169.151 90.7469 169.217 90.7898 169.269 90.847C169.321 90.9042 169.357 90.9737 169.374 91.0488C169.512 91.8275 169.499 92.6252 169.335 93.399C169.277 93.6689 169.191 93.932 169.078 94.1839C169.214 94.4651 169.286 94.7734 169.286 95.0857C169.286 95.398 169.214 95.7062 169.078 95.9874C168.658 96.384 168.713 96.8161 169.078 97.2716V98.8754C177.037 105.467 185.337 99.8228 185.337 99.8228L185.07 87.2769L186.534 74.5403Z" fill="#3F3D56"/>
<path d="M170.648 75.7138L169.548 74.5403L163.488 73.8589L164.056 64.6194L160.752 62.2796L159.255 70.2974C158.741 70.7393 158.645 71.1745 159.012 71.6024C158.6 72.4202 158.494 73.0852 158.634 73.6273L158.324 75.2871L169.539 83.0838L170.648 75.7138Z" fill="#3F3D56"/>
<path d="M185.639 105.925C185.509 105.723 185.424 105.495 185.392 105.256C185.36 105.018 185.381 104.776 185.454 104.547C185.527 104.318 185.649 104.107 185.812 103.93C185.976 103.753 186.176 103.613 186.4 103.521L186.054 97.6914L188.701 99.2104L188.624 104.514C188.754 104.897 188.739 105.314 188.58 105.687C188.422 106.059 188.131 106.361 187.763 106.535C187.395 106.709 186.976 106.743 186.584 106.631C186.193 106.518 185.856 106.267 185.639 105.925Z" fill="#FFB6B6"/>
<path d="M184.692 75.9983L186.534 74.5403C186.534 74.5403 188.417 75.5716 188.991 77.4207C189.564 79.2697 190.567 89.7952 190.567 89.7952L190.722 93.7142C190.92 94.3358 190.868 94.8903 190.396 95.3322C191.105 96.061 190.999 96.6679 190.03 97.146L189.025 103.308L185.868 102.657L186.268 90.5064L183.688 82.6834L184.692 75.9983Z" fill="#3F3D56"/>
<path d="M58.6219 27.7305H57.976V10.1659C57.976 8.8309 57.7111 7.50897 57.1963 6.27558C56.6816 5.0422 55.9272 3.92152 54.9761 2.97752C54.0251 2.03353 52.896 1.28472 51.6534 0.77383C50.4107 0.262945 49.0789 -4.79887e-06 47.7339 -5.72202e-06H10.2421C7.52573 -1.13152e-05 4.92061 1.07103 2.99985 2.9775C1.07908 4.88398 6.2612e-06 7.46971 0 10.1659V106.527C-1.25224e-06 109.223 1.07907 111.808 2.99983 113.715C4.92059 115.621 7.5257 116.692 10.2421 116.692H47.7338C49.0789 116.692 50.4107 116.43 51.6533 115.919C52.896 115.408 54.025 114.659 54.9761 113.715C55.9272 112.771 56.6816 111.65 57.1963 110.417C57.711 109.184 57.9759 107.862 57.976 106.527V40.2333H58.6219V27.7305Z" fill="#3F3D56"/>
<path d="M48.1472 2.64482H43.2533C43.4783 3.19248 43.5642 3.78668 43.5034 4.37506C43.4426 4.96345 43.237 5.52796 42.9046 6.01887C42.5722 6.50978 42.1233 6.91203 41.5974 7.19017C41.0715 7.46831 40.4847 7.61381 39.8888 7.61386H18.4102C17.8143 7.61382 17.2276 7.46831 16.7017 7.19017C16.1758 6.91203 15.7268 6.50979 15.3945 6.01887C15.0621 5.52796 14.8564 4.96344 14.7956 4.37506C14.7348 3.78667 14.8207 3.19247 15.0458 2.6448H10.4748C8.4463 2.6448 6.50083 3.44464 5.06642 4.86838C3.63202 6.29211 2.82618 8.22311 2.82617 10.2366V106.456C2.82617 107.453 3.02401 108.44 3.40839 109.361C3.79277 110.282 4.35617 111.119 5.06641 111.824C5.77666 112.529 6.61984 113.088 7.54782 113.47C8.47579 113.851 9.4704 114.048 10.4748 114.048H48.1472C49.1516 114.048 50.1462 113.851 51.0742 113.47C52.0022 113.088 52.8454 112.529 53.5556 111.824C54.2659 111.119 54.8293 110.282 55.2136 109.361C55.598 108.44 55.7959 107.453 55.7959 106.456V10.2366C55.7959 9.23962 55.598 8.25242 55.2136 7.33134C54.8293 6.41026 54.2659 5.57335 53.5556 4.86839C52.8454 4.16343 52.0022 3.60422 51.0742 3.2227C50.1462 2.84118 49.1516 2.64481 48.1472 2.64482Z" fill="white"/>
<path d="M47.7849 38.6825C47.7877 40.8683 47.395 43.0367 46.6256 45.0847C46.2762 46.0227 45.8476 46.9298 45.3443 47.7962C43.7264 50.5983 41.3917 52.9268 38.5764 54.5461C35.7611 56.1654 32.5649 57.0182 29.311 57.0182C26.0571 57.0182 22.8609 56.1654 20.0456 54.5461C17.2302 52.9268 14.8956 50.5983 13.2777 47.7962C13.1139 47.5143 12.9586 47.2283 12.8117 46.9381C11.556 44.4656 10.8806 41.7429 10.8363 38.9743C10.792 36.2057 11.38 33.4631 12.5561 30.9522C13.7322 28.4413 15.4658 26.2274 17.627 24.4766C19.7882 22.7257 22.3208 21.4833 25.0348 20.8427C27.7488 20.2021 30.5737 20.1797 33.2977 20.7775C36.0216 21.3752 38.5738 22.5774 40.7627 24.2939C42.9517 26.0104 44.7207 28.1967 45.9368 30.6887C47.153 33.1806 47.7848 35.9136 47.7849 38.6825Z" fill="#F1F1F1"/>
<path d="M30.2716 41.7781C32.2222 41.7781 33.8034 40.2086 33.8034 38.2726C33.8034 36.3365 32.2222 34.767 30.2716 34.767C28.321 34.767 26.7397 36.3365 26.7397 38.2726C26.7397 40.2086 28.321 41.7781 30.2716 41.7781Z" fill="#FF6582"/>
<path d="M12.8115 46.9381C14.3676 45.2689 16.4479 42.6188 18.3989 44.5337C19.3781 45.4369 20.9105 47.6751 22.3775 46.2119L33.8325 34.842C34.0482 34.6307 34.3042 34.4643 34.5856 34.3526C34.867 34.2408 35.168 34.186 35.471 34.1914C35.774 34.1968 36.0728 34.2623 36.35 34.3839C36.6271 34.5056 36.877 34.681 37.0849 34.8998L46.6253 45.0847C46.2759 46.0227 45.8473 46.9298 45.344 47.7962H13.2774L12.8115 46.9381Z" fill="#3B90FA"/>
<path d="M37.9791 75.9184C37.8527 75.9186 37.7316 75.9687 37.6423 76.0575C37.5531 76.1463 37.5029 76.2666 37.5029 76.3921C37.5029 76.5175 37.5531 76.6379 37.6423 76.7267C37.7316 76.8155 37.8527 76.8655 37.9791 76.8658H42.9873C43.1139 76.8658 43.2353 76.8159 43.3248 76.727C43.4143 76.6382 43.4646 76.5177 43.4646 76.3921C43.4646 76.2664 43.4143 76.1459 43.3248 76.0571C43.2353 75.9683 43.1139 75.9184 42.9873 75.9184H37.9791Z" fill="#97A3E8"/>
<path d="M15.4157 68.9605C15.2892 68.9605 15.1678 69.0104 15.0783 69.0993C14.9888 69.1881 14.9385 69.3086 14.9385 69.4342C14.9385 69.5599 14.9888 69.6803 15.0783 69.7692C15.1678 69.858 15.2892 69.9079 15.4157 69.9079H43.2065C43.333 69.9079 43.4544 69.858 43.5439 69.7692C43.6334 69.6803 43.6837 69.5599 43.6837 69.4342C43.6837 69.3086 43.6334 69.1881 43.5439 69.0993C43.4544 69.0104 43.333 68.9605 43.2065 68.9605H15.4157Z" fill="#E5E5E5"/>
<path d="M15.4157 72.4394C15.2893 72.4397 15.1681 72.4897 15.0789 72.5785C14.9896 72.6674 14.9395 72.7877 14.9395 72.9131C14.9395 73.0386 14.9896 73.1589 15.0789 73.2477C15.1681 73.3365 15.2893 73.3866 15.4157 73.3868H43.2064C43.2692 73.387 43.3313 73.3748 43.3894 73.3511C43.4474 73.3273 43.5001 73.2925 43.5445 73.2485C43.589 73.2045 43.6242 73.1522 43.6483 73.0947C43.6723 73.0371 43.6847 72.9754 43.6847 72.9131C43.6847 72.8508 43.6723 72.7891 43.6483 72.7316C43.6242 72.6741 43.589 72.6218 43.5445 72.5778C43.5001 72.5338 43.4474 72.4989 43.3894 72.4752C43.3313 72.4514 43.2692 72.4393 43.2064 72.4394H15.4157Z" fill="#E5E5E5"/>
<path d="M37.9792 98.2415C37.8526 98.2415 37.7312 98.2914 37.6417 98.3803C37.5522 98.4691 37.502 98.5896 37.502 98.7152C37.502 98.8409 37.5522 98.9614 37.6417 99.0502C37.7312 99.139 37.8526 99.189 37.9792 99.189H42.9874C43.114 99.189 43.2354 99.139 43.3249 99.0502C43.4144 98.9614 43.4647 98.8409 43.4647 98.7152C43.4647 98.5896 43.4144 98.4691 43.3249 98.3803C43.2354 98.2914 43.114 98.2415 42.9874 98.2415H37.9792Z" fill="#97A3E8"/>
<path d="M15.4157 91.2837C15.2892 91.2837 15.1678 91.3336 15.0783 91.4224C14.9888 91.5112 14.9385 91.6317 14.9385 91.7574C14.9385 91.883 14.9888 92.0035 15.0783 92.0923C15.1678 92.1812 15.2892 92.2311 15.4157 92.2311H43.2065C43.2692 92.2312 43.3314 92.2191 43.3894 92.1953C43.4475 92.1716 43.5002 92.1367 43.5446 92.0927C43.5891 92.0487 43.6243 91.9964 43.6484 91.9389C43.6724 91.8814 43.6848 91.8197 43.6848 91.7574C43.6848 91.6951 43.6724 91.6334 43.6484 91.5758C43.6243 91.5183 43.5891 91.466 43.5446 91.422C43.5002 91.378 43.4475 91.3432 43.3894 91.3194C43.3314 91.2957 43.2692 91.2835 43.2065 91.2837H15.4157Z" fill="#E5E5E5"/>
<path d="M15.4157 94.7626C15.2892 94.7626 15.1678 94.8125 15.0783 94.9013C14.9888 94.9902 14.9385 95.1107 14.9385 95.2363C14.9385 95.3619 14.9888 95.4824 15.0783 95.5713C15.1678 95.6601 15.2892 95.71 15.4157 95.71H43.2065C43.333 95.71 43.4544 95.6601 43.5439 95.5713C43.6334 95.4824 43.6837 95.3619 43.6837 95.2363C43.6837 95.1107 43.6334 94.9902 43.5439 94.9013C43.4544 94.8125 43.333 94.7626 43.2065 94.7626H15.4157Z" fill="#E5E5E5"/>
<path d="M158.428 53.3992L154.615 51.6878C154.596 52.1932 154.452 52.6863 154.195 53.1235C153.939 53.5607 153.578 53.9286 153.145 54.1949C152.712 54.4612 152.219 54.6176 151.711 54.6504C151.202 54.6832 150.694 54.5914 150.229 54.383L133.493 46.8718C133.029 46.6634 132.623 46.3448 132.312 45.9442C132.001 45.5435 131.794 45.0731 131.71 44.5744C131.625 44.0756 131.665 43.5638 131.826 43.0841C131.988 42.6044 132.266 42.1714 132.636 41.8234L129.074 40.2249C127.493 39.5155 125.693 39.4584 124.07 40.0661C122.447 40.6739 121.134 41.8967 120.419 43.4656L86.2645 118.439C85.9106 119.216 85.7144 120.054 85.6869 120.906C85.6595 121.758 85.8014 122.608 86.1046 123.405C86.4078 124.203 86.8663 124.934 87.4539 125.555C88.0416 126.177 88.7468 126.678 89.5295 127.029H89.5295L118.883 140.204C120.464 140.913 122.264 140.97 123.887 140.362C125.51 139.755 126.823 138.532 127.538 136.963L161.693 61.9895C162.047 61.2126 162.243 60.3742 162.27 59.5221C162.298 58.67 162.156 57.8209 161.853 57.0232C161.55 56.2255 161.091 55.4949 160.503 54.8731C159.916 54.2513 159.211 53.7505 158.428 53.3992Z" fill="#E4E4E4"/>
<path d="M124.456 89.0976C121.885 87.9388 119.667 86.129 118.025 83.85C116.383 81.571 115.373 78.903 115.099 76.1142C115.071 75.8377 115.052 75.5533 115.04 75.2698C114.928 72.783 115.412 70.3054 116.452 68.0404C117.42 65.9192 118.844 64.0346 120.626 62.5195C122.407 61.0044 124.501 59.8957 126.761 59.2716C129.021 58.6475 131.392 58.5233 133.706 58.9076C136.019 59.2919 138.22 60.1754 140.152 61.4959C142.084 62.8163 143.701 64.5415 144.888 66.5497C146.075 68.5579 146.804 70.8002 147.023 73.1184C147.242 75.4366 146.946 77.7743 146.155 79.9666C145.365 82.1588 144.099 84.1522 142.448 85.8061C141.834 86.4239 141.168 86.9891 140.458 87.496C138.167 89.1333 135.482 90.1433 132.673 90.4244C129.864 90.7056 127.03 90.248 124.456 89.0976ZM137.473 60.5222C133.712 58.8394 129.432 58.7062 125.571 60.1518C121.711 61.5974 118.586 64.5039 116.882 68.2335C115.873 70.4318 115.403 72.8364 115.511 75.25C115.523 75.5251 115.542 75.8004 115.569 76.0687C115.831 78.7769 116.809 81.3684 118.403 83.5813C119.998 85.7941 122.153 87.5497 124.651 88.6707C127.148 89.7917 129.9 90.2382 132.627 89.9652C135.354 89.6921 137.96 88.7092 140.182 87.1157C140.871 86.624 141.517 86.0756 142.113 85.4764C143.881 83.7055 145.19 81.5364 145.931 79.1541C146.671 76.7719 146.819 74.2473 146.364 71.7958C145.908 69.3443 144.861 67.0386 143.313 65.0755C141.765 63.1124 139.761 61.5502 137.473 60.5222H137.473Z" fill="white"/>
<path d="M126.036 59.7225L125.595 59.8902L136.814 88.9597L137.255 88.792L126.036 59.7225Z" fill="white"/>
<path d="M145.36 68.7896L116.072 79.9228L116.241 80.3605L145.529 69.2273L145.36 68.7896Z" fill="white"/>
<path d="M130.835 111.81L103.13 99.3756C102.925 99.2832 102.765 99.1137 102.685 98.9043C102.606 98.6949 102.613 98.4627 102.706 98.2587L105.312 92.5377C105.405 92.3339 105.576 92.175 105.787 92.096C105.998 92.017 106.232 92.0243 106.437 92.1163L134.142 104.551C134.348 104.643 134.508 104.813 134.587 105.022C134.667 105.231 134.66 105.464 134.567 105.668L131.961 111.389C131.867 111.592 131.697 111.751 131.486 111.83C131.275 111.909 131.041 111.902 130.835 111.81ZM106.243 92.5433C106.151 92.5024 106.047 92.4991 105.953 92.5343C105.859 92.5694 105.783 92.6401 105.742 92.7308L103.136 98.4517C103.095 98.5425 103.091 98.6458 103.127 98.7389C103.162 98.8321 103.233 98.9075 103.325 98.9486L131.03 111.383C131.121 111.424 131.225 111.427 131.319 111.392C131.413 111.357 131.489 111.286 131.53 111.195L134.137 105.474C134.178 105.384 134.181 105.28 134.146 105.187C134.11 105.094 134.039 105.019 133.948 104.978L106.243 92.5433Z" fill="white"/>
<path d="M124.124 126.542L96.4187 114.108C96.2133 114.015 96.0533 113.846 95.9737 113.637C95.8942 113.427 95.9015 113.195 95.9942 112.991L98.6004 107.27C98.6936 107.066 98.8643 106.907 99.0753 106.828C99.2863 106.749 99.5202 106.757 99.7257 106.849L127.431 119.283C127.636 119.375 127.796 119.545 127.876 119.754C127.955 119.964 127.948 120.196 127.855 120.4L125.249 126.121C125.156 126.325 124.985 126.483 124.774 126.562C124.563 126.641 124.329 126.634 124.124 126.542ZM99.5312 107.276C99.4398 107.235 99.3357 107.231 99.2419 107.267C99.148 107.302 99.0721 107.372 99.0306 107.463L96.4244 113.184C96.3832 113.275 96.3799 113.378 96.4153 113.471C96.4507 113.564 96.5219 113.64 96.6132 113.681L124.318 126.115C124.41 126.156 124.514 126.159 124.608 126.124C124.702 126.089 124.778 126.018 124.819 125.928L127.425 120.207C127.466 120.116 127.47 120.013 127.434 119.92C127.399 119.826 127.328 119.751 127.236 119.71L99.5312 107.276Z" fill="white"/>
<path d="M113.416 89.2655C112.846 86.4486 111.615 83.8046 109.824 81.5482C108.002 79.257 105.777 77.3122 103.257 75.8081C100.653 74.2382 97.8165 73.0839 94.8515 72.3871C91.1663 71.5084 87.3605 71.2221 83.5782 71.2582C79.7687 71.2946 75.9715 71.6489 72.1855 72.0435C71.7043 72.0937 71.2231 72.1443 70.742 72.1955C70.2935 72.2431 70.2886 72.9465 70.742 72.8985C74.4721 72.5032 78.2078 72.1147 81.9593 71.9951C85.6802 71.8766 89.4287 72.0219 93.0905 72.7267C96.1403 73.2883 99.0826 74.3208 101.81 75.7866C104.351 77.1528 106.63 78.9519 108.543 81.1015C110.417 83.2027 111.772 85.7082 112.502 88.4195C112.59 88.7613 112.666 89.1058 112.733 89.4523C112.818 89.8962 113.501 89.7082 113.416 89.2655Z" fill="#2F2E41"/>
<path d="M73.2718 67.165L67.6149 73.1373C67.5772 73.1756 67.5487 73.2219 67.5316 73.2727C67.5145 73.3235 67.5092 73.3774 67.5161 73.4306C67.523 73.4837 67.5419 73.5345 67.5714 73.5794C67.601 73.6242 67.6403 73.6618 67.6866 73.6894L72.7901 76.1107C73.1993 76.3049 73.559 75.699 73.1476 75.5037L68.044 73.0824L68.1157 73.6344L73.7726 67.662C74.0847 67.3326 73.5848 66.8345 73.2718 67.165Z" fill="#2F2E41"/>
<path d="M193.719 141H85.7616C85.687 141 85.6155 140.971 85.5628 140.918C85.5101 140.866 85.4805 140.795 85.4805 140.721C85.4805 140.647 85.5101 140.576 85.5628 140.524C85.6155 140.471 85.687 140.442 85.7616 140.442H193.719C193.794 140.442 193.865 140.471 193.918 140.524C193.971 140.576 194 140.647 194 140.721C194 140.795 193.971 140.866 193.918 140.918C193.865 140.971 193.794 141 193.719 141Z" fill="#CACACA"/>
</g>
<defs>
<clipPath id="clip0_150_355">
<rect width="194" height="141" fill="white"/>
</clipPath>
</defs>
</svg>
