<svg width="110" height="78" viewBox="0 0 110 78" fill="none" xmlns="http://www.w3.org/2000/svg">
<g clip-path="url(#clip0_169_2638)">
<path d="M107.067 74.8635L105.978 75.1931L104.117 71.3753L105.724 70.8887L107.067 74.8635Z" fill="#FFB6B6"/>
<path d="M107.683 75.7788L104.172 76.8419L104.158 76.7998C104.042 76.4567 104.075 76.0841 104.249 75.7639C104.423 75.4436 104.725 75.2021 105.087 75.0923L105.087 75.0923L105.573 74.4375L106.925 74.5358L107.231 74.443L107.683 75.7788Z" fill="#2F2E41"/>
<path d="M96.7453 75.8912H95.6023L95.0586 71.7182H96.7455L96.7453 75.8912Z" fill="#FFB6B6"/>
<path d="M97.0352 76.9406L93.3496 76.9405V76.8963C93.3496 76.5361 93.5008 76.1907 93.7698 75.9359C94.0388 75.6812 94.4037 75.5381 94.7841 75.5381H94.7842L95.4574 75.0545L96.7135 75.5382L97.0352 75.5382L97.0352 76.9406Z" fill="#2F2E41"/>
<path d="M91.2853 32.7666C91.1995 32.8678 91.1383 32.9856 91.1058 33.1116C91.0734 33.2377 91.0705 33.3689 91.0974 33.4961C91.1244 33.6233 91.1805 33.7434 91.2617 33.8479C91.343 33.9524 91.4475 34.0387 91.5678 34.1008L91.0195 37.2115L92.6021 36.5467L92.8801 33.6947C92.977 33.4964 92.9936 33.2714 92.9269 33.0623C92.8602 32.8532 92.7148 32.6745 92.5182 32.5601C92.3216 32.4457 92.0875 32.4035 91.8603 32.4416C91.633 32.4796 91.4284 32.5953 91.2853 32.7666Z" fill="#FFB6B6"/>
<path d="M105.714 58.5709C105.714 58.5709 105.981 55.2847 105.036 54.6744C104.091 54.0641 96.3006 53.7569 96.3006 53.7569L95.8169 54.359C95.8169 54.359 95.7731 54.6402 95.0394 56.9311L94.7406 69.7182C94.711 70.9649 94.4813 72.5312 95.0314 72.8514L95.2988 74.1168H96.7693L97.5818 71.9894C97.9319 71.4541 98.0811 70.8227 98.0051 70.1973L98.4487 68.3191C98.4177 68.2895 98.3959 68.2525 98.3856 68.212C98.3355 67.9321 98.4019 67.6447 98.571 67.4103C98.6102 67.3555 98.6534 67.3034 98.7002 67.2543L100.326 60.3729L102.518 68.4225L103.871 71.2818C103.738 71.5815 103.826 71.8531 104.069 72.105C103.979 72.3394 104.368 72.504 104.535 72.8071L105.058 73.7372L106.529 72.978L106.662 72.2187C106.751 71.9936 106.512 71.8443 106.335 71.3767C106.665 71.0458 106.647 70.7235 106.329 70.4086L105.773 68.1397L105.767 67.0995L105.76 65.9877L105.714 58.5709Z" fill="#2F2E41"/>
<path d="M99.5644 39.0341C100.975 39.0341 102.119 37.9515 102.119 36.616C102.119 35.2806 100.975 34.198 99.5644 34.198C98.1535 34.198 97.0098 35.2806 97.0098 36.616C97.0098 37.9515 98.1535 39.0341 99.5644 39.0341Z" fill="#FFB6B6"/>
<path d="M102.134 36.9946L102.092 36.9148C102.027 36.7913 101.486 35.7645 101.419 35.5005L100.739 35.5762L98.9684 35.5765L99.2144 35.2272L98.5641 35.3075C98.3263 35.3349 98.099 35.416 97.9013 35.544C97.7801 35.6202 97.6775 35.7203 97.6007 35.8373C97.3684 36.2139 97.0135 36.8298 97.0099 36.836L96.976 36.8949L96.681 36.4253C96.6772 36.4071 96.3116 34.6025 97.5349 33.9905C97.7093 33.6681 97.9791 33.4007 98.3115 33.2212C98.6439 33.0416 99.0243 32.9577 99.4063 32.9796C99.546 32.8289 99.7427 32.7363 99.954 32.7219C100.244 32.7075 100.545 32.8518 100.848 33.1525C101.25 33.5519 101.8 34.0988 102.133 34.706L102.225 34.83C102.355 35.0074 102.42 35.2208 102.408 35.4367C102.479 35.7813 102.454 36.1374 102.335 36.4701L102.134 36.9946Z" fill="#2F2E41"/>
<path d="M105.7 41.2176L102.924 40.4817L101.51 39.4891L98.7333 39.9084L98.7212 39.9232C98.235 40.521 97.4855 41.1116 96.6889 41.1351C96.4839 41.1414 96.2803 41.169 96.0817 41.2176L95.8151 45.8312V49.9562C95.8568 49.9695 95.8941 49.9926 95.9235 50.0235C95.9528 50.0544 95.9733 50.0919 95.983 50.1325C96.0612 50.553 96.0538 50.9838 95.9612 51.4017C95.9283 51.5474 95.8794 51.6895 95.8151 51.8255C95.8927 51.9774 95.9329 52.1438 95.9329 52.3125C95.9329 52.4811 95.8927 52.6476 95.8151 52.7994C95.5778 53.0136 95.6085 53.247 95.8151 53.4929V54.359C100.322 57.9183 105.022 54.8706 105.022 54.8706L104.872 48.0956L105.7 41.2176Z" fill="#3F3D56"/>
<path d="M96.7054 41.8513L96.0826 41.2176L92.6505 40.8496L92.9725 35.8601L91.1013 34.5966L90.2539 38.9263C89.9625 39.1649 89.9085 39.4 90.116 39.631C89.8827 40.0727 89.8227 40.4318 89.902 40.7245L89.7266 41.6209L96.0772 45.8312L96.7054 41.8513Z" fill="#3F3D56"/>
<path d="M105.195 58.1661C105.121 58.0568 105.073 57.9335 105.055 57.8049C105.037 57.6763 105.049 57.5455 105.09 57.4217C105.131 57.298 105.2 57.1842 105.293 57.0885C105.385 56.9928 105.499 56.9175 105.626 56.8678L105.43 53.7196L106.929 54.5399L106.885 57.4038C106.959 57.6107 106.95 57.8361 106.86 58.0373C106.771 58.2385 106.606 58.4015 106.397 58.4955C106.189 58.5895 105.952 58.6078 105.73 58.5471C105.508 58.4864 105.318 58.3508 105.195 58.1661Z" fill="#FFB6B6"/>
<path d="M104.658 42.0049L105.701 41.2176C105.701 41.2176 106.768 41.7745 107.092 42.773C107.417 43.7715 107.985 49.4555 107.985 49.4555L108.073 51.5719C108.185 51.9075 108.155 52.207 107.888 52.4456C108.29 52.8392 108.23 53.1669 107.681 53.4251L107.112 56.7525L105.324 56.4013L105.551 49.8396L104.09 45.615L104.658 42.0049Z" fill="#3F3D56"/>
<path d="M33.267 15.9393H32.9012V6.45408C32.9012 5.73315 32.7512 5.01928 32.4597 4.35322C32.1682 3.68717 31.741 3.08198 31.2024 2.57221C30.6639 2.06243 30.0245 1.65805 29.3208 1.38217C28.6171 1.10628 27.8629 0.96428 27.1013 0.964279H5.87025C4.33201 0.964276 2.85678 1.54266 1.76908 2.57219C0.681381 3.60173 0.070316 4.99808 0.0703125 6.45406V58.4908C0.0703118 59.9468 0.681371 61.3431 1.76907 62.3727C2.85676 63.4022 4.332 63.9806 5.87023 63.9806H27.1012C27.8629 63.9806 28.6171 63.8386 29.3208 63.5627C30.0245 63.2868 30.6638 62.8825 31.2024 62.3727C31.741 61.8629 32.1682 61.2577 32.4597 60.5917C32.7512 59.9256 32.9012 59.2117 32.9012 58.4908V22.6911H33.267V15.9393Z" fill="#3F3D56"/>
<path d="M27.3365 2.39255H24.5651C24.6926 2.6883 24.7412 3.00918 24.7068 3.32692C24.6723 3.64466 24.5559 3.9495 24.3676 4.21461C24.1794 4.47971 23.9252 4.69693 23.6274 4.84713C23.3296 4.99733 22.9973 5.07591 22.6599 5.07593H10.4969C10.1594 5.07591 9.82717 4.99733 9.52936 4.84713C9.23154 4.69693 8.97733 4.47971 8.7891 4.21461C8.60087 3.9495 8.48441 3.64465 8.44998 3.32691C8.41555 3.00917 8.4642 2.68829 8.59165 2.39254H6.0032C4.85446 2.39254 3.75277 2.82447 2.94049 3.59332C2.12821 4.36216 1.67188 5.40494 1.67188 6.49225V58.4526C1.67187 58.991 1.78391 59.5241 2.00158 60.0215C2.21925 60.5189 2.53829 60.9709 2.94049 61.3516C3.34269 61.7323 3.82017 62.0343 4.34567 62.2403C4.87117 62.4463 5.4344 62.5524 6.00319 62.5524H27.3365C27.9053 62.5524 28.4685 62.4463 28.994 62.2403C29.5195 62.0343 29.997 61.7323 30.3992 61.3516C30.8014 60.9709 31.1204 60.5189 31.3381 60.0215C31.5557 59.5241 31.6678 58.991 31.6678 58.4526V6.49226C31.6678 5.95388 31.5557 5.42077 31.3381 4.92337C31.1204 4.42597 30.8014 3.97402 30.3992 3.59332C29.997 3.21263 29.5195 2.91065 28.994 2.70462C28.4685 2.49859 27.9053 2.39255 27.3365 2.39255Z" fill="white"/>
<path d="M27.1298 21.8536C27.1314 23.034 26.909 24.205 26.4733 25.3109C26.2754 25.8175 26.0327 26.3073 25.7477 26.7752C24.8315 28.2884 23.5094 29.5458 21.9152 30.4203C20.3209 31.2947 18.5109 31.7553 16.6683 31.7553C14.8257 31.7553 13.0157 31.2947 11.4214 30.4203C9.82717 29.5458 8.50509 28.2884 7.5889 26.7752C7.49615 26.623 7.4082 26.4685 7.32505 26.3118C6.61392 24.9766 6.23147 23.5063 6.2064 22.0112C6.18132 20.5161 6.51427 19.035 7.18027 17.6791C7.84626 16.3232 8.82801 15.1276 10.0519 14.1821C11.2757 13.2366 12.7099 12.5657 14.2468 12.2198C15.7837 11.8738 17.3834 11.8618 18.9259 12.1845C20.4684 12.5073 21.9137 13.1565 23.1533 14.0835C24.3928 15.0104 25.3946 16.1911 26.0833 17.5368C26.772 18.8825 27.1298 20.3584 27.1298 21.8536Z" fill="#F1F1F1"/>
<path d="M17.2129 23.5253C18.3175 23.5253 19.2129 22.6778 19.2129 21.6322C19.2129 20.5867 18.3175 19.7392 17.2129 19.7392C16.1083 19.7392 15.2129 20.5867 15.2129 21.6322C15.2129 22.6778 16.1083 23.5253 17.2129 23.5253Z" fill="#FF6582"/>
<path d="M7.32617 26.3118C8.20737 25.4104 9.38539 23.9793 10.4902 25.0134C11.0447 25.5011 11.9125 26.7098 12.7432 25.9197L19.23 19.7797C19.3522 19.6656 19.4972 19.5757 19.6565 19.5154C19.8158 19.455 19.9863 19.4254 20.1579 19.4283C20.3294 19.4313 20.4987 19.4666 20.6556 19.5323C20.8126 19.598 20.9541 19.6927 21.0718 19.8109L26.4744 25.3109C26.2765 25.8175 26.0338 26.3073 25.7488 26.7752H7.59002L7.32617 26.3118Z" fill="#3B90FA"/>
<path d="M21.5763 41.9617C21.5047 41.9619 21.4361 41.9889 21.3856 42.0369C21.335 42.0849 21.3066 42.1499 21.3066 42.2176C21.3066 42.2854 21.335 42.3504 21.3856 42.3984C21.4361 42.4464 21.5047 42.4734 21.5763 42.4735H24.4124C24.4841 42.4735 24.5528 42.4466 24.6035 42.3986C24.6542 42.3506 24.6826 42.2855 24.6826 42.2176C24.6826 42.1498 24.6542 42.0847 24.6035 42.0367C24.5528 41.9887 24.4841 41.9617 24.4124 41.9617H21.5763Z" fill="#97A3E8"/>
<path d="M8.79957 38.2043C8.72789 38.2043 8.65914 38.2313 8.60846 38.2793C8.55777 38.3273 8.5293 38.3924 8.5293 38.4603C8.5293 38.5281 8.55777 38.5932 8.60846 38.6412C8.65914 38.6892 8.72789 38.7162 8.79957 38.7162H24.537C24.6087 38.7162 24.6774 38.6892 24.7281 38.6412C24.7788 38.5932 24.8073 38.5281 24.8073 38.4603C24.8073 38.3924 24.7788 38.3273 24.7281 38.2793C24.6774 38.2313 24.6087 38.2043 24.537 38.2043H8.79957Z" fill="#E5E5E5"/>
<path d="M8.79897 40.083C8.72739 40.0832 8.6588 40.1102 8.60824 40.1582C8.55769 40.2062 8.5293 40.2712 8.5293 40.3389C8.5293 40.4067 8.55769 40.4717 8.60824 40.5197C8.6588 40.5677 8.72739 40.5947 8.79897 40.5948H24.5364C24.572 40.5949 24.6072 40.5883 24.64 40.5755C24.6729 40.5627 24.7028 40.5439 24.7279 40.5201C24.7531 40.4963 24.773 40.4681 24.7867 40.437C24.8003 40.4059 24.8073 40.3726 24.8073 40.3389C24.8073 40.3053 24.8003 40.272 24.7867 40.2409C24.773 40.2098 24.7531 40.1816 24.7279 40.1578C24.7028 40.134 24.6729 40.1152 24.64 40.1023C24.6072 40.0895 24.572 40.083 24.5364 40.083H8.79897Z" fill="#E5E5E5"/>
<path d="M21.5769 54.0167C21.5052 54.0167 21.4365 54.0437 21.3858 54.0917C21.3351 54.1397 21.3066 54.2047 21.3066 54.2726C21.3066 54.3405 21.3351 54.4056 21.3858 54.4536C21.4365 54.5016 21.5052 54.5285 21.5769 54.5285H24.413C24.4847 54.5285 24.5534 54.5016 24.6041 54.4536C24.6548 54.4056 24.6832 54.3405 24.6832 54.2726C24.6832 54.2047 24.6548 54.1397 24.6041 54.0917C24.5534 54.0437 24.4847 54.0167 24.413 54.0167H21.5769Z" fill="#97A3E8"/>
<path d="M8.79957 50.2593C8.72789 50.2593 8.65914 50.2863 8.60846 50.3343C8.55777 50.3822 8.5293 50.4473 8.5293 50.5152C8.5293 50.5831 8.55777 50.6482 8.60846 50.6961C8.65914 50.7441 8.72789 50.7711 8.79957 50.7711H24.537C24.5726 50.7712 24.6078 50.7646 24.6406 50.7518C24.6735 50.739 24.7034 50.7201 24.7285 50.6963C24.7537 50.6726 24.7736 50.6443 24.7873 50.6133C24.8009 50.5822 24.8079 50.5489 24.8079 50.5152C24.8079 50.4815 24.8009 50.4482 24.7873 50.4171C24.7736 50.3861 24.7537 50.3578 24.7285 50.334C24.7034 50.3103 24.6735 50.2914 24.6406 50.2786C24.6078 50.2658 24.5726 50.2592 24.537 50.2593H8.79957Z" fill="#E5E5E5"/>
<path d="M8.79957 52.138C8.72789 52.138 8.65914 52.165 8.60846 52.213C8.55777 52.2609 8.5293 52.326 8.5293 52.3939C8.5293 52.4618 8.55777 52.5269 8.60846 52.5749C8.65914 52.6228 8.72789 52.6498 8.79957 52.6498H24.537C24.6087 52.6498 24.6774 52.6228 24.7281 52.5749C24.7788 52.5269 24.8073 52.4618 24.8073 52.3939C24.8073 52.326 24.7788 52.2609 24.7281 52.213C24.6774 52.165 24.6087 52.138 24.537 52.138H8.79957Z" fill="#E5E5E5"/>
<path d="M89.7858 29.8009L87.6264 28.8767C87.6156 29.1497 87.534 29.4159 87.3889 29.652C87.2438 29.8881 87.0396 30.0868 86.7943 30.2306C86.5489 30.3744 86.27 30.4589 85.982 30.4766C85.6941 30.4943 85.4059 30.4448 85.143 30.3322L75.6657 26.276C75.4027 26.1635 75.1731 25.9914 74.9969 25.7751C74.8208 25.5587 74.7036 25.3047 74.6556 25.0354C74.6076 24.766 74.6303 24.4896 74.7218 24.2306C74.8132 23.9715 74.9706 23.7377 75.18 23.5498L73.1631 22.6866C72.268 22.3035 71.2488 22.2726 70.3297 22.6008C69.4105 22.929 68.6668 23.5893 68.2621 24.4366L48.9208 64.9237C48.7204 65.3432 48.6092 65.796 48.5937 66.2562C48.5781 66.7163 48.6585 67.1749 48.8302 67.6056C49.0019 68.0364 49.2615 68.4309 49.5943 68.7667C49.9271 69.1025 50.3265 69.373 50.7697 69.5627H50.7697L67.3924 76.677C68.2875 77.0601 69.3067 77.091 70.2258 76.7628C71.1449 76.4346 71.8886 75.7742 72.2934 74.927L91.6347 34.4399C91.8351 34.0204 91.9462 33.5676 91.9618 33.1074C91.9773 32.6473 91.8969 32.1887 91.7252 31.758C91.5536 31.3272 91.2939 30.9327 90.9611 30.5969C90.6284 30.2611 90.229 29.9906 89.7858 29.8009Z" fill="#E4E4E4"/>
<path d="M70.548 49.0788C69.0925 48.453 67.8366 47.4757 66.9065 46.245C65.9764 45.0143 65.405 43.5735 65.2495 42.0675C65.2339 41.9182 65.2227 41.7646 65.216 41.6115C65.1526 40.2686 65.4268 38.9306 66.0159 37.7075C66.5637 36.562 67.3705 35.5443 68.3792 34.7261C69.3879 33.9079 70.574 33.3092 71.8538 32.9722C73.1336 32.6351 74.4759 32.568 75.7861 32.7756C77.0963 32.9831 78.3425 33.4602 79.4366 34.1733C80.5308 34.8864 81.4463 35.818 82.1186 36.9025C82.7909 37.9869 83.2036 39.1978 83.3276 40.4497C83.4516 41.7016 83.2839 42.964 82.8363 44.1479C82.3887 45.3317 81.6721 46.4082 80.737 47.3013C80.389 47.6349 80.012 47.9402 79.6098 48.2139C78.3124 49.0981 76.792 49.6435 75.2013 49.7953C73.6107 49.9471 72.0058 49.7 70.548 49.0788ZM77.9198 33.6475C75.7898 32.7387 73.3659 32.6668 71.1799 33.4475C68.994 34.2282 67.2244 35.7977 66.2595 37.8117C65.6877 38.9989 65.4217 40.2974 65.4831 41.6008C65.4896 41.7494 65.5005 41.8981 65.5156 42.0429C65.664 43.5054 66.2176 44.9049 67.1207 46.0999C68.0237 47.2948 69.2441 48.2429 70.6584 48.8483C72.0728 49.4536 73.6309 49.6948 75.1752 49.5473C76.7196 49.3999 78.1954 48.869 79.4535 48.0085C79.8437 47.743 80.2094 47.4469 80.547 47.1233C81.5481 46.1669 82.2898 44.9956 82.709 43.7091C83.1281 42.4227 83.2122 41.0594 82.9541 39.7355C82.696 38.4116 82.1034 37.1665 81.2267 36.1064C80.3501 35.0463 79.2155 34.2026 77.9198 33.6475H77.9198Z" fill="white"/>
<path d="M71.4431 33.2157L71.1934 33.3062L77.5463 49.0043L77.796 48.9138L71.4431 33.2157Z" fill="white"/>
<path d="M82.3868 38.1118L65.8008 44.1242L65.8964 44.3607L82.4825 38.3482L82.3868 38.1118Z" fill="white"/>
<path d="M74.1595 61.3439L58.4705 54.6291C58.3542 54.5792 58.2636 54.4877 58.2185 54.3746C58.1735 54.2615 58.1776 54.1361 58.2301 54.026L59.706 50.9365C59.7587 50.8264 59.8554 50.7407 59.9749 50.698C60.0944 50.6553 60.2268 50.6593 60.3432 50.7089L76.0323 57.4237C76.1485 57.4737 76.2392 57.5652 76.2842 57.6783C76.3293 57.7914 76.3251 57.9167 76.2726 58.0269L74.7968 61.1164C74.744 61.2264 74.6473 61.3122 74.5279 61.3549C74.4084 61.3975 74.2759 61.3936 74.1595 61.3439ZM60.2331 50.9395C60.1813 50.9174 60.1224 50.9157 60.0692 50.9347C60.0161 50.9537 59.9731 50.9918 59.9496 51.0408L58.4737 54.1302C58.4504 54.1792 58.4485 54.235 58.4686 54.2853C58.4886 54.3356 58.5289 54.3763 58.5806 54.3985L74.2697 61.1133C74.3215 61.1354 74.3804 61.1372 74.4335 61.1182C74.4867 61.0992 74.5297 61.0611 74.5531 61.0121L76.029 57.9226C76.0524 57.8736 76.0542 57.8179 76.0342 57.7676C76.0141 57.7173 75.9738 57.6765 75.9221 57.6543L60.2331 50.9395Z" fill="white"/>
<path d="M70.3587 69.2996L54.6697 62.5849C54.5534 62.5349 54.4628 62.4434 54.4177 62.3303C54.3727 62.2172 54.3768 62.0918 54.4293 61.9817L55.9052 58.8922C55.9579 58.7821 56.0546 58.6964 56.1741 58.6537C56.2936 58.6111 56.426 58.615 56.5424 58.6646L72.2315 65.3794C72.3478 65.4294 72.4384 65.5209 72.4834 65.634C72.5285 65.7471 72.5243 65.8724 72.4719 65.9826L70.996 69.0721C70.9432 69.1821 70.8465 69.2679 70.7271 69.3106C70.6076 69.3532 70.4751 69.3493 70.3587 69.2996ZM56.4323 58.8953C56.3805 58.8732 56.3216 58.8714 56.2684 58.8904C56.2153 58.9094 56.1723 58.9475 56.1488 58.9965L54.6729 62.0859C54.6496 62.1349 54.6477 62.1907 54.6678 62.241C54.6878 62.2913 54.7281 62.332 54.7799 62.3542L70.4689 69.069C70.5207 69.0911 70.5796 69.0929 70.6327 69.0739C70.6859 69.0549 70.7289 69.0168 70.7524 68.9678L72.2282 65.8783C72.2516 65.8293 72.2534 65.7736 72.2334 65.7233C72.2134 65.673 72.173 65.6322 72.1213 65.61L56.4323 58.8953Z" fill="white"/>
<path d="M64.2965 49.1694C63.9738 47.6483 63.2769 46.2205 62.2622 45.002C61.2307 43.7646 59.971 42.7144 58.544 41.9022C57.0691 41.0544 55.4629 40.431 53.7838 40.0548C51.6969 39.5803 49.5418 39.4257 47.3999 39.4452C45.2427 39.4648 43.0924 39.6561 40.9484 39.8692C40.6759 39.8963 40.4034 39.9237 40.131 39.9513C39.877 39.977 39.8742 40.3569 40.131 40.331C42.2433 40.1175 44.3587 39.9077 46.4831 39.8431C48.5902 39.7791 50.713 39.8576 52.7866 40.2382C54.5136 40.5415 56.1798 41.099 57.7245 41.8906C59.1633 42.6284 60.4538 43.5999 61.5372 44.7608C62.5984 45.8954 63.3659 47.2485 63.7787 48.7126C63.8287 48.8972 63.8719 49.0832 63.9097 49.2704C63.9582 49.51 64.3448 49.4086 64.2965 49.1694Z" fill="#2F2E41"/>
<path d="M41.5638 37.2347L38.3603 40.4599C38.339 40.4806 38.3229 40.5056 38.3132 40.533C38.3035 40.5604 38.3005 40.5896 38.3044 40.6183C38.3083 40.6469 38.319 40.6744 38.3357 40.6986C38.3524 40.7228 38.3747 40.7431 38.4009 40.758L41.291 42.0656C41.5227 42.1705 41.7264 41.8433 41.4934 41.7378L38.6033 40.4302L38.6439 40.7283L41.8474 37.5032C42.0241 37.3253 41.741 37.0563 41.5638 37.2347Z" fill="#2F2E41"/>
<path d="M109.77 77.1073H48.6357C48.5935 77.1073 48.553 77.0914 48.5232 77.0631C48.4933 77.0349 48.4766 76.9965 48.4766 76.9566C48.4766 76.9166 48.4933 76.8782 48.5232 76.85C48.553 76.8217 48.5935 76.8058 48.6357 76.8058H109.77C109.813 76.8058 109.853 76.8217 109.883 76.85C109.913 76.8782 109.93 76.9166 109.93 76.9566C109.93 76.9965 109.913 77.0349 109.883 77.0631C109.853 77.0914 109.813 77.1073 109.77 77.1073Z" fill="#CACACA"/>
</g>
<defs>
<clipPath id="clip0_169_2638">
<rect width="109.859" height="76.1429" fill="white" transform="translate(0.0703125 0.964287)"/>
</clipPath>
</defs>
</svg>
