<svg width="234" height="165" viewBox="0 0 234 165" fill="none" xmlns="http://www.w3.org/2000/svg">
<g clip-path="url(#clip0_620_4558)">
<path d="M226.975 159.815L224.675 160.525L220.743 152.301L224.138 151.253L226.975 159.815Z" fill="#FFB6B6"/>
<path d="M228.275 161.785L220.859 164.074L220.829 163.984C220.584 163.245 220.653 162.443 221.021 161.753C221.389 161.064 222.026 160.543 222.792 160.307L222.792 160.307L223.818 158.897L226.674 159.109L227.322 158.909L228.275 161.785Z" fill="#2F2E41"/>
<path d="M205.168 162.028H202.753L201.604 153.04H205.168L205.168 162.028Z" fill="#FFB6B6"/>
<path d="M205.784 164.287L197.997 164.287V164.192C197.997 163.416 198.316 162.673 198.885 162.124C199.453 161.576 200.224 161.267 201.028 161.267H201.028L202.45 160.226L205.104 161.268L205.784 161.268L205.784 164.287Z" fill="#2F2E41"/>
<path d="M193.635 69.1352C193.453 69.3532 193.324 69.6069 193.256 69.8785C193.187 70.15 193.181 70.4327 193.238 70.7067C193.295 70.9807 193.413 71.2394 193.585 71.4644C193.757 71.6895 193.977 71.8754 194.232 72.0093L193.073 78.7099L196.417 77.2779L197.004 71.1344C197.209 70.7073 197.244 70.2227 197.103 69.7722C196.962 69.3218 196.655 68.9369 196.24 68.6905C195.824 68.444 195.33 68.3532 194.85 68.4352C194.369 68.5171 193.937 68.7662 193.635 69.1352Z" fill="#FFB6B6"/>
<path d="M224.116 124.719C224.116 124.719 224.68 117.641 222.683 116.326C220.687 115.011 204.229 114.35 204.229 114.35L203.207 115.647C203.207 115.647 203.114 116.252 201.564 121.187L200.933 148.731C200.87 151.417 200.385 154.791 201.547 155.48L202.112 158.206H205.219L206.935 153.624C207.675 152.471 207.99 151.11 207.83 149.763L208.767 145.718C208.701 145.654 208.655 145.574 208.634 145.487C208.528 144.884 208.668 144.265 209.025 143.76C209.108 143.642 209.199 143.53 209.298 143.424L212.732 128.601L217.364 145.94L220.222 152.099C219.941 152.745 220.128 153.33 220.64 153.873C220.45 154.378 221.273 154.732 221.626 155.385L222.73 157.388L225.837 155.753L226.12 154.118C226.308 153.633 225.802 153.311 225.429 152.304C226.125 151.591 226.087 150.897 225.416 150.219L224.242 145.331L224.228 143.09L224.214 140.696L224.116 124.719Z" fill="#2F2E41"/>
<path d="M211.127 82.6354C214.107 82.6354 216.524 80.3035 216.524 77.4268C216.524 74.5502 214.107 72.2183 211.127 72.2183C208.146 72.2183 205.729 74.5502 205.729 77.4268C205.729 80.3035 208.146 82.6354 211.127 82.6354Z" fill="#FFB6B6"/>
<path d="M216.556 78.2425L216.466 78.0705C216.329 77.8045 215.187 75.5928 215.044 75.0242L213.608 75.1872L209.868 75.1878L210.387 74.4355L209.013 74.6084C208.511 74.6673 208.031 74.842 207.613 75.1177C207.357 75.282 207.14 75.4975 206.978 75.7496C206.487 76.5608 205.737 77.8875 205.73 77.9008L205.658 78.0277L205.035 77.0162C205.027 76.9769 204.255 73.0898 206.839 71.7715C207.208 71.0769 207.778 70.501 208.48 70.1143C209.182 69.7275 209.986 69.5467 210.793 69.5938C211.088 69.2692 211.504 69.0697 211.95 69.0387C212.563 69.0079 213.199 69.3186 213.838 69.9663C214.687 70.8266 215.85 72.0046 216.553 73.3127L216.747 73.5797C217.023 73.962 217.159 74.4216 217.135 74.8867C217.285 75.629 217.232 76.396 216.981 77.1125L216.556 78.2425Z" fill="#2F2E41"/>
<path d="M224.091 87.339L218.225 85.7538L215.238 83.6157L209.372 84.519L209.346 84.551C208.319 85.8386 206.736 87.1107 205.053 87.1614C204.62 87.1749 204.189 87.2345 203.77 87.339L203.207 97.2771V106.163C203.295 106.191 203.373 106.241 203.436 106.308C203.498 106.374 203.541 106.455 203.561 106.542C203.727 107.448 203.711 108.376 203.515 109.276C203.446 109.59 203.342 109.896 203.207 110.189C203.37 110.516 203.456 110.875 203.456 111.238C203.456 111.601 203.37 111.96 203.207 112.287C202.705 112.748 202.77 113.251 203.207 113.781V115.647C212.729 123.314 222.659 116.749 222.659 116.749L222.34 102.155L224.091 87.339Z" fill="#3F3D56"/>
<path d="M205.086 88.7043L203.77 87.3393L196.519 86.5466L197.2 75.7989L193.246 73.0771L191.456 82.4037C190.84 82.9177 190.726 83.424 191.165 83.9217C190.672 84.8731 190.545 85.6466 190.712 86.2772L190.342 88.208L203.759 97.2773L205.086 88.7043Z" fill="#3F3D56"/>
<path d="M223.021 123.847C222.865 123.612 222.765 123.346 222.726 123.069C222.688 122.792 222.713 122.51 222.8 122.244C222.887 121.977 223.033 121.732 223.229 121.526C223.424 121.32 223.664 121.158 223.932 121.051L223.518 114.269L226.685 116.036L226.592 122.205C226.748 122.651 226.73 123.136 226.54 123.57C226.35 124.003 226.003 124.354 225.562 124.557C225.122 124.759 224.621 124.799 224.152 124.668C223.684 124.537 223.282 124.245 223.021 123.847Z" fill="#FFB6B6"/>
<path d="M221.888 89.0348L224.092 87.3389C224.092 87.3389 226.345 88.5385 227.031 90.6894C227.717 92.8403 228.917 105.084 228.917 105.084L229.102 109.643C229.339 110.366 229.277 111.011 228.712 111.525C229.561 112.373 229.434 113.079 228.274 113.635L227.072 120.802L223.295 120.046L223.773 105.911L220.688 96.8112L221.888 89.0348Z" fill="#3F3D56"/>
<path d="M71.0593 32.888H70.2865V12.4562C70.2865 10.9033 69.9695 9.36559 69.3538 7.93087C68.738 6.49615 67.8354 5.19253 66.6975 4.09444C65.5597 2.99635 64.2089 2.1253 62.7222 1.53102C61.2356 0.936733 59.6422 0.63086 58.033 0.630859H13.1783C9.92849 0.630853 6.81176 1.87673 4.51378 4.09441C2.21581 6.31209 0.924812 9.31992 0.924805 12.4562V124.547C0.924803 127.683 2.21579 130.691 4.51376 132.908C6.81173 135.126 9.92845 136.372 13.1783 136.372H58.033C59.6421 136.372 61.2355 136.066 62.7222 135.472C64.2088 134.878 65.5596 134.007 66.6975 132.909C67.8353 131.81 68.7379 130.507 69.3537 129.072C69.9695 127.637 70.2865 126.1 70.2865 124.547V47.4318H71.0593V32.888Z" fill="#3F3D56"/>
<path d="M58.5271 3.70754H52.6721C52.9414 4.3446 53.0441 5.03579 52.9714 5.72023C52.8986 6.40466 52.6526 7.06132 52.2549 7.63237C51.8573 8.20342 51.3202 8.67132 50.691 8.99487C50.0618 9.31841 49.3598 9.48767 48.6469 9.48772H22.9502C22.2373 9.48767 21.5353 9.31842 20.9061 8.99487C20.2769 8.67133 19.7399 8.20342 19.3422 7.63237C18.9445 7.06132 18.6985 6.40465 18.6257 5.72022C18.553 5.03578 18.6558 4.34459 18.925 3.70752H13.4564C11.0295 3.70752 8.70197 4.63793 6.98587 6.29407C5.26977 7.95021 4.30567 10.1964 4.30566 12.5386V124.465C4.30566 125.624 4.54235 126.773 5.00222 127.844C5.46209 128.916 6.13613 129.889 6.98586 130.709C7.83558 131.529 8.84436 132.18 9.95458 132.623C11.0648 133.067 12.2547 133.296 13.4564 133.296H58.5271C59.7288 133.296 60.9188 133.067 62.029 132.623C63.1392 132.18 64.148 131.529 64.9977 130.709C65.8474 129.889 66.5215 128.916 66.9813 127.844C67.4412 126.773 67.6779 125.624 67.6779 124.465V12.5386C67.6779 11.3789 67.4412 10.2305 66.9813 9.15908C66.5215 8.08765 65.8474 7.11412 64.9977 6.29408C64.148 5.47405 63.1392 4.82355 62.029 4.37975C60.9188 3.93595 59.7288 3.70753 58.5271 3.70754Z" fill="#5EC2FC" fill-opacity="0.41"/>
<path d="M58.0943 45.6277C58.0976 48.1702 57.6278 50.6926 56.7073 53.0749C56.2893 54.166 55.7765 55.2212 55.1744 56.229C53.2387 59.4886 50.4456 62.1971 47.0774 64.0808C43.7091 65.9644 39.8852 66.9564 35.9923 66.9564C32.0994 66.9564 28.2756 65.9644 24.9073 64.0808C21.5391 62.1971 18.746 59.4886 16.8103 56.229C16.6144 55.9012 16.4286 55.5685 16.2529 55.2309C14.7505 52.3547 13.9425 49.1876 13.8895 45.967C13.8365 42.7465 14.5399 39.5562 15.947 36.6354C17.354 33.7147 19.4282 31.1394 22.0138 29.1027C24.5994 27.0661 27.6294 25.6209 30.8764 24.8757C34.1234 24.1305 37.5031 24.1045 40.7619 24.7998C44.0208 25.4951 47.0742 26.8935 49.6931 28.8903C52.3119 30.887 54.4283 33.4301 55.8833 36.3289C57.3383 39.2276 58.0942 42.4067 58.0943 45.6277Z" fill="#F1F1F1"/>
<path d="M37.1415 49.2289C39.4751 49.2289 41.3669 47.4032 41.3669 45.1511C41.3669 42.8989 39.4751 41.0732 37.1415 41.0732C34.8078 41.0732 32.916 42.8989 32.916 45.1511C32.916 47.4032 34.8078 49.2289 37.1415 49.2289Z" fill="#FF6582"/>
<path d="M16.2529 55.2312C18.1146 53.2895 20.6034 50.2068 22.9376 52.4343C24.1091 53.4849 25.9425 56.0885 27.6975 54.3864L41.4022 41.1605C41.6602 40.9147 41.9665 40.7211 42.3031 40.5912C42.6398 40.4612 42.9999 40.3975 43.3624 40.4037C43.7249 40.41 44.0824 40.4861 44.414 40.6276C44.7456 40.7691 45.0445 40.9732 45.2933 41.2278L56.7073 53.0752C56.2893 54.1663 55.7765 55.2215 55.1744 56.2293H16.8104L16.2529 55.2312Z" fill="#3B90FA"/>
<path d="M46.3627 88.9419C46.2115 88.9422 46.0666 89.0004 45.9598 89.1037C45.853 89.207 45.793 89.347 45.793 89.4929C45.793 89.6389 45.853 89.7789 45.9598 89.8822C46.0666 89.9855 46.2115 90.0437 46.3627 90.044H52.3545C52.5059 90.044 52.6511 89.9859 52.7582 89.8826C52.8653 89.7793 52.9254 89.6391 52.9254 89.4929C52.9254 89.3468 52.8653 89.2066 52.7582 89.1033C52.6511 89 52.5059 88.9419 52.3545 88.9419H46.3627Z" fill="#97A3E8"/>
<path d="M19.3679 80.8481C19.2164 80.8481 19.0712 80.9062 18.9641 81.0095C18.857 81.1129 18.7969 81.253 18.7969 81.3992C18.7969 81.5453 18.857 81.6855 18.9641 81.7888C19.0712 81.8922 19.2164 81.9502 19.3679 81.9502H52.6163C52.7678 81.9502 52.913 81.8922 53.0201 81.7888C53.1272 81.6855 53.1873 81.5453 53.1873 81.3992C53.1873 81.253 53.1272 81.1129 53.0201 81.0095C52.913 80.9062 52.7678 80.8481 52.6163 80.8481H19.3679Z" fill="#E5E5E5"/>
<path d="M19.3676 84.895C19.2164 84.8953 19.0714 84.9535 18.9646 85.0569C18.8578 85.1602 18.7979 85.3001 18.7979 85.4461C18.7979 85.592 18.8578 85.732 18.9646 85.8353C19.0714 85.9386 19.2164 85.9968 19.3676 85.9971H52.616C52.6911 85.9973 52.7655 85.9831 52.8349 85.9555C52.9044 85.9279 52.9675 85.8873 53.0206 85.8361C53.0738 85.785 53.1159 85.7241 53.1447 85.6572C53.1735 85.5903 53.1883 85.5185 53.1883 85.4461C53.1883 85.3736 53.1735 85.3018 53.1447 85.2349C53.1159 85.168 53.0738 85.1072 53.0206 85.056C52.9675 85.0048 52.9044 84.9642 52.8349 84.9366C52.7655 84.909 52.6911 84.8949 52.616 84.895H19.3676Z" fill="#E5E5E5"/>
<path d="M46.362 114.909C46.2106 114.909 46.0653 114.967 45.9583 115.071C45.8512 115.174 45.791 115.314 45.791 115.46C45.791 115.606 45.8512 115.747 45.9583 115.85C46.0653 115.953 46.2106 116.011 46.362 116.011H52.3538C52.5052 116.011 52.6504 115.953 52.7575 115.85C52.8646 115.747 52.9248 115.606 52.9248 115.46C52.9248 115.314 52.8646 115.174 52.7575 115.071C52.6504 114.967 52.5052 114.909 52.3538 114.909H46.362Z" fill="#97A3E8"/>
<path d="M19.3679 106.815C19.2164 106.815 19.0712 106.873 18.9641 106.977C18.857 107.08 18.7969 107.22 18.7969 107.366C18.7969 107.513 18.857 107.653 18.9641 107.756C19.0712 107.859 19.2164 107.918 19.3679 107.918H52.6163C52.6914 107.918 52.7658 107.904 52.8352 107.876C52.9046 107.848 52.9677 107.808 53.0209 107.757C53.0741 107.705 53.1162 107.645 53.145 107.578C53.1738 107.511 53.1886 107.439 53.1886 107.366C53.1886 107.294 53.1738 107.222 53.145 107.155C53.1162 107.088 53.0741 107.028 53.0209 106.976C52.9677 106.925 52.9046 106.885 52.8352 106.857C52.7658 106.829 52.6914 106.815 52.6163 106.815H19.3679Z" fill="#E5E5E5"/>
<path d="M19.3679 110.862C19.2164 110.862 19.0712 110.92 18.9641 111.024C18.857 111.127 18.7969 111.267 18.7969 111.413C18.7969 111.559 18.857 111.7 18.9641 111.803C19.0712 111.906 19.2164 111.964 19.3679 111.964H52.6163C52.7678 111.964 52.913 111.906 53.0201 111.803C53.1272 111.7 53.1873 111.559 53.1873 111.413C53.1873 111.267 53.1272 111.127 53.0201 111.024C52.913 110.92 52.7678 110.862 52.6163 110.862H19.3679Z" fill="#E5E5E5"/>
<path d="M190.466 62.7471L185.904 60.7563C185.881 61.3442 185.709 61.9178 185.402 62.4263C185.096 62.9349 184.664 63.3629 184.146 63.6726C183.627 63.9824 183.038 64.1644 182.43 64.2025C181.821 64.2407 181.213 64.1339 180.657 63.8915L160.634 55.1542C160.079 54.9117 159.594 54.5412 159.222 54.0751C158.849 53.6091 158.602 53.0619 158.5 52.4817C158.399 51.9015 158.447 51.3062 158.64 50.7482C158.833 50.1901 159.166 49.6865 159.608 49.2816L155.347 47.4222C153.456 46.597 151.303 46.5306 149.361 47.2375C147.419 47.9445 145.848 49.3669 144.993 51.1919L104.131 138.404C103.707 139.307 103.472 140.283 103.44 141.274C103.407 142.265 103.576 143.253 103.939 144.181C104.302 145.109 104.85 145.959 105.554 146.682C106.257 147.405 107.1 147.988 108.037 148.396H108.037L143.155 163.721C145.047 164.546 147.2 164.613 149.142 163.906C151.083 163.199 152.655 161.777 153.51 159.952L194.372 72.7396C194.795 71.836 195.03 70.8607 195.063 69.8695C195.096 68.8783 194.926 67.8905 194.563 66.9626C194.201 66.0347 193.652 65.1849 192.949 64.4616C192.246 63.7383 191.402 63.1557 190.466 62.7471Z" fill="#E4E4E4"/>
<path d="M149.822 104.272C146.747 102.925 144.093 100.819 142.129 98.1683C140.164 95.5173 138.956 92.4138 138.628 89.1698C138.595 88.8481 138.571 88.5173 138.557 88.1875C138.423 85.2948 139.002 82.4127 140.247 79.7779C141.404 77.3105 143.109 75.1183 145.24 73.3559C147.371 71.5934 149.877 70.3037 152.581 69.5778C155.285 68.8518 158.12 68.7073 160.889 69.1543C163.657 69.6014 166.289 70.6291 168.601 72.1651C170.912 73.7011 172.847 75.7079 174.267 78.0439C175.687 80.3799 176.559 82.9882 176.821 85.6849C177.083 88.3816 176.729 91.1009 175.783 93.651C174.838 96.2011 173.324 98.5199 171.348 100.444C170.613 101.162 169.816 101.82 168.967 102.409C166.226 104.314 163.014 105.489 159.653 105.816C156.292 106.143 152.902 105.611 149.822 104.272ZM165.396 71.0325C160.896 69.075 155.775 68.92 151.157 70.6016C146.539 72.2833 142.8 75.6642 140.762 80.0026C139.554 82.5597 138.992 85.3569 139.121 88.1644C139.135 88.4844 139.158 88.8048 139.19 89.1168C139.503 92.2671 140.673 95.2817 142.581 97.8557C144.489 100.43 147.067 102.472 150.055 103.776C153.043 105.08 156.335 105.599 159.598 105.282C162.861 104.964 165.979 103.821 168.637 101.967C169.461 101.395 170.234 100.757 170.947 100.06C173.062 98.0002 174.629 95.477 175.514 92.7059C176.4 89.9348 176.578 86.9981 176.032 84.1464C175.487 81.2947 174.235 78.6126 172.383 76.3291C170.531 74.0455 168.134 72.2283 165.396 71.0325H165.396Z" fill="#5EC2FC" fill-opacity="0.41"/>
<path d="M151.713 70.1023L151.186 70.2974L164.607 104.112L165.135 103.917L151.713 70.1023Z" fill="#5EC2FC" fill-opacity="0.41"/>
<path d="M174.832 80.6495L139.792 93.6001L139.994 94.1092L175.034 81.1586L174.832 80.6495Z" fill="#5EC2FC" fill-opacity="0.41"/>
<path d="M157.454 130.693L124.308 116.228C124.062 116.121 123.871 115.924 123.776 115.68C123.68 115.437 123.689 115.167 123.8 114.929L126.918 108.274C127.029 108.037 127.234 107.852 127.486 107.761C127.739 107.669 128.018 107.677 128.264 107.784L161.411 122.248C161.656 122.356 161.848 122.553 161.943 122.796C162.038 123.04 162.029 123.31 161.918 123.547L158.8 130.202C158.689 130.439 158.485 130.624 158.232 130.716C157.98 130.808 157.7 130.8 157.454 130.693ZM128.032 108.281C127.922 108.233 127.798 108.229 127.685 108.27C127.573 108.311 127.482 108.393 127.433 108.499L124.315 115.154C124.265 115.259 124.261 115.379 124.304 115.488C124.346 115.596 124.431 115.684 124.541 115.732L157.687 130.196C157.796 130.243 157.921 130.247 158.033 130.206C158.145 130.165 158.236 130.083 158.286 129.978L161.404 123.323C161.453 123.217 161.457 123.097 161.415 122.989C161.372 122.88 161.287 122.793 161.178 122.745L128.032 108.281Z" fill="#5EC2FC" fill-opacity="0.41"/>
<path d="M149.425 147.83L116.279 133.366C116.033 133.258 115.841 133.061 115.746 132.817C115.651 132.574 115.66 132.304 115.771 132.066L118.889 125.412C119 125.174 119.204 124.99 119.457 124.898C119.709 124.806 119.989 124.814 120.235 124.921L153.381 139.385C153.627 139.493 153.818 139.69 153.914 139.934C154.009 140.177 154 140.447 153.889 140.685L150.771 147.34C150.66 147.577 150.455 147.761 150.203 147.853C149.95 147.945 149.671 147.937 149.425 147.83ZM120.002 125.418C119.893 125.37 119.768 125.367 119.656 125.408C119.544 125.448 119.453 125.531 119.403 125.636L116.285 132.291C116.236 132.397 116.232 132.517 116.274 132.625C116.317 132.733 116.402 132.821 116.511 132.869L149.657 147.333C149.767 147.381 149.891 147.384 150.004 147.344C150.116 147.303 150.207 147.22 150.256 147.115L153.374 140.46C153.424 140.355 153.428 140.234 153.385 140.126C153.343 140.018 153.258 139.93 153.148 139.882L120.002 125.418Z" fill="#5EC2FC" fill-opacity="0.41"/>
<path d="M136.614 104.468C135.933 101.191 134.46 98.1155 132.316 95.4907C130.137 92.8255 127.476 90.5632 124.461 88.8136C121.345 86.9875 117.952 85.6447 114.404 84.8342C109.995 83.812 105.442 83.479 100.917 83.5211C96.3594 83.5634 91.8164 83.9754 87.2869 84.4345C86.7111 84.4929 86.1355 84.5518 85.5599 84.6113C85.0233 84.6666 85.0175 85.4849 85.5599 85.4291C90.0226 84.9693 94.4919 84.5173 98.9801 84.3782C103.432 84.2403 107.916 84.4094 112.297 85.2292C115.946 85.8825 119.466 87.0836 122.73 88.7886C125.769 90.3779 128.496 92.4706 130.785 94.9712C133.027 97.4154 134.648 100.33 135.52 103.484C135.626 103.881 135.717 104.282 135.797 104.685C135.9 105.201 136.716 104.983 136.614 104.468Z" fill="#2F2E41"/>
<path d="M88.5858 78.7597L81.818 85.707C81.7729 85.7515 81.7388 85.8054 81.7184 85.8644C81.6979 85.9235 81.6915 85.9863 81.6998 86.0481C81.708 86.1098 81.7307 86.169 81.766 86.2212C81.8013 86.2733 81.8484 86.317 81.9037 86.3491L88.0095 89.1658C88.4991 89.3916 88.9295 88.6868 88.4372 88.4597L82.3314 85.643L82.4171 86.2852L89.185 79.3379C89.5583 78.9547 88.9603 78.3753 88.5858 78.7597Z" fill="#2F2E41"/>
<path d="M232.688 164.648H103.529C103.439 164.648 103.354 164.613 103.291 164.553C103.228 164.492 103.192 164.409 103.192 164.323C103.192 164.237 103.228 164.154 103.291 164.094C103.354 164.033 103.439 163.999 103.529 163.999H232.688C232.777 163.999 232.862 164.033 232.925 164.094C232.988 164.154 233.024 164.237 233.024 164.323C233.024 164.409 232.988 164.492 232.925 164.553C232.862 164.613 232.777 164.648 232.688 164.648Z" fill="#CACACA"/>
</g>
<defs>
<clipPath id="clip0_620_4558">
<rect width="232.099" height="164.017" fill="white" transform="translate(0.924805 0.630859)"/>
</clipPath>
</defs>
</svg>
