<svg width="136" height="122" viewBox="0 0 136 122" fill="none" xmlns="http://www.w3.org/2000/svg">
<g clip-path="url(#clip0_521_1224)">
<path d="M18.3026 70H13V53H22.1737L32.6966 65.6925V53H38V70H29.013L18.3026 57.0925V70Z" fill="#0C479C"/>
<path d="M55.7599 66.5679C56.9594 66.5679 57.3822 66.4989 57.6682 66.2438C57.9379 66.0042 58.0554 65.6955 58.0554 64.6687V59.3301C58.0554 58.3045 57.9379 57.9969 57.6682 57.7562C57.3822 57.5 56.9595 57.432 55.7599 57.432H47.2392C46.0409 57.432 45.6181 57.5 45.3322 57.7562C45.0624 57.9969 44.9438 58.3045 44.9438 59.3301V64.6685C44.9438 65.6954 45.0624 66.004 45.3322 66.2437C45.6181 66.4988 46.0408 66.5677 47.2392 66.5677H55.7599M63 65.3713C63 67.8002 62.5612 68.6389 61.8362 69.4424C60.722 70.6408 59.1027 71 55.9821 71H47.0201C43.8975 71 42.2773 70.6408 41.1639 69.4424C40.4381 68.6389 40 67.8002 40 65.3713V58.6285C40 56.1995 40.4381 55.3622 41.1639 54.5565C42.2773 53.3591 43.8975 53 47.0201 53H55.9821C59.1027 53 60.722 53.3591 61.8362 54.5565C62.5613 55.3621 63 56.1994 63 58.6285V65.3713Z" fill="#0C479C"/>
<path d="M80.5966 53H87.7607L78.091 60.9509L89 70H81.3299L71.4273 61.1339L80.5966 53ZM66 53H71.4273V70H66V53Z" fill="#0C479C"/>
<path d="M96 53H90V70H96V53Z" fill="#0C479C"/>
<path d="M106.474 63.3463H113.225L109.848 57.1926L106.474 63.3463ZM116.701 70L115.096 67.0387H104.587L102.999 70H97L106.625 53H113.375L123 70H116.701Z" fill="#0C479C"/>
<path d="M19 89.7747C18.6005 89.9128 17.643 90 16.9211 90C13.5428 89.9999 13 86.342 13 83.6031C13 81.6698 13.3083 79.5092 14.4449 78.1673C15.0951 77.4001 15.855 77 17.301 77C17.9329 77 18.5104 77.0869 19 77.1916V78.3421C18.5104 78.2196 18.0219 78.1168 17.3737 78.1168C16.3978 78.1168 15.9452 78.4636 15.5674 79.0054C14.7902 80.1371 14.6457 82.1215 14.6457 83.4994C14.6457 84.5797 14.6794 86.0109 15.0605 87.108C15.4392 88.2228 16.0364 88.8851 17.2826 88.8851C17.8612 88.8851 18.3834 88.7972 19 88.64V89.7747Z" fill="#0C479C"/>
<path d="M22.0148 80.058C20.5403 80.058 20.3485 82.2948 20.3485 83.7971C20.3485 85.5701 20.4906 87.9423 22.0148 87.9423C23.5083 87.9423 23.6503 85.5035 23.6503 83.8289C23.6503 82.346 23.4443 80.058 22.0148 80.058ZM21.9995 89C19.4282 89 19 86.1834 19 83.8123C19 81.56 19.6505 79 22.032 79C24.3962 79 25 81.5437 25 83.7762C24.9999 86.1322 24.5726 89 21.9995 89Z" fill="#0C479C"/>
<path d="M28.1626 80.6093C28.6481 79.5888 29.4287 79 30.5209 79C32.4279 79 33 80.3512 33 82.1125V89H31.561V82.6847C31.561 81.8888 31.5256 81.3011 31.3526 80.8517C31.1775 80.4012 30.8492 80.0725 30.2262 80.0725C28.8037 80.0725 28.439 81.7691 28.439 82.772V89H27V79.1384H27.8149L28.1626 80.6093Z" fill="#0C479C"/>
<path d="M36.1607 80.6093C36.6474 79.5888 37.429 79 38.52 79C40.4279 79 41 80.3512 41 82.1125V89H39.561V82.6847C39.561 81.8888 39.5255 81.3011 39.3526 80.8517C39.1796 80.4012 38.8493 80.0725 38.2261 80.0725C36.8038 80.0725 36.438 81.7691 36.438 82.772V89H35V79.1384H35.8139L36.1607 80.6093Z" fill="#0C479C"/>
<path d="M46.6423 83.3237C46.6423 81.9062 46.44 80.0414 45.1498 80.0414C43.7924 80.0414 43.4904 81.9401 43.4068 83.3237H46.6423ZM47.6808 88.6247C46.9435 88.8632 46.1722 89 45.3846 89C42.5015 89 42 86.4692 42 83.9907C42 81.8362 42.5861 79 45.15 79C47.9829 79 48 82.2473 48 84.3495H43.4069C43.4069 85.9058 43.6415 87.9401 45.5186 87.9401C46.1722 87.9401 46.8429 87.8033 47.6808 87.565V88.6247Z" fill="#0C479C"/>
<path d="M54 88.7445C53.5925 88.8461 52.9825 89 52.2208 89C49.7106 89 49 86.5263 49 84C49 81.0469 50.0173 79 52.39 79C52.9328 79 53.4235 79.0503 53.7801 79.1201V80.2127C53.3565 80.1081 53.0164 80.0578 52.5092 80.0578C50.831 80.0578 50.44 81.7651 50.44 84.0503C50.44 85.9617 50.6943 87.9421 52.4908 87.9421C53.0346 87.9421 53.6089 87.8055 54 87.704V88.7445Z" fill="#0C479C"/>
<path d="M60 88.7963C59.4598 88.9148 58.8673 89 58.3282 89C57.3357 89 56.8646 88.7095 56.5693 88.1986C56.3422 87.7729 56.2553 87.3134 56.2553 86.1396V80.2179H55V79.1615H56.2196L56.8466 77H57.701V79.1615H59.5833V80.2179H57.701V86.0893C57.701 86.9737 57.77 87.3319 57.8925 87.5529C58.0138 87.8086 58.2757 87.9449 58.7992 87.9449C59.0945 87.9449 59.4964 87.8937 60 87.7729V88.7963Z" fill="#0C479C"/>
<path d="M61.9284 77.9334C61.3231 77.9334 60.8559 77.5104 60.8559 76.9672C60.8559 76.422 61.3231 76 61.9284 76C62.514 76 63 76.4413 63 76.9672C63 77.5104 62.5328 77.9334 61.9284 77.9334ZM62.7471 89H61.1288V80.3907H60V79.3388H62.7471V89Z" fill="#0C479C"/>
<path d="M66.1635 80.6093C66.6459 79.5888 67.4281 79 68.5198 79C70.426 79 71 80.3512 71 82.1125V89H69.5614V82.6847C69.5614 81.8888 69.5261 81.3011 69.3531 80.8517C69.1782 80.4012 68.849 80.0725 68.224 80.0725C66.8042 80.0725 66.4397 81.7691 66.4397 82.772V89H65V79.1384H65.8137L66.1635 80.6093Z" fill="#0C479C"/>
<path d="M75.0655 80.0833C73.6044 80.0833 73.3626 82.3735 73.3626 84.1712C73.3626 85.5885 73.4774 88.0333 75.0327 88.0333C76.5738 88.0333 76.6683 85.7974 76.6683 83.9809C76.6681 82.4942 76.5082 80.0833 75.0655 80.0833ZM77.2473 79.1398H78V88.5762C78 89.5532 77.8392 90.2886 77.4074 90.9159C76.9255 91.5988 76.1546 92 75.1446 92C74.3427 92 73.4445 91.8267 72.5945 91.5818V90.4778C73.4609 90.7246 74.3282 90.8989 74.9846 90.8989C76.588 90.8989 76.7164 89.9893 76.7164 88.5236V87.8922C76.3308 88.5573 75.5945 89.1172 74.7755 89.1172C72.4174 89.1172 72 86.1483 72 83.9988C72 81.8125 72.5945 79 74.8718 79C75.8202 79 76.4918 79.6996 76.8909 80.4846L77.2473 79.1398Z" fill="#0C479C"/>
<path d="M85.1452 83.5579C85.9751 83.5579 86.5233 83.4769 86.9567 83.0667C87.4551 82.5884 87.5879 81.6997 87.5879 80.6343C87.5879 79.5323 87.3532 78.6437 86.705 78.282C86.4585 78.1515 86.1588 78.0191 85.1763 78.0191H84.3792V83.5579H85.1452ZM84.8445 77C86.2576 77 86.738 77.1 87.2043 77.2798C88.4337 77.7393 89 78.8581 89 80.6669C89 81.9647 88.6505 83.0331 88.0043 83.6894C87.4551 84.2509 86.6731 84.578 85.5597 84.578H84.3792V89H83V77.0001H84.8445V77Z" fill="#0C479C"/>
<path d="M94.6408 83.3237C94.6408 81.9062 94.4425 80.0414 93.149 80.0414C91.79 80.0414 91.49 81.9401 91.4073 83.3237H94.6408ZM95.6798 88.6247C94.9427 88.8632 94.1707 89 93.3835 89C90.5033 89 90 86.4692 90 83.9907C90 81.8362 90.5859 79 93.149 79C95.9807 79 96 82.2473 96 84.3495H91.4073C91.4073 85.9058 91.6408 87.9401 93.5183 87.9401C94.1707 87.9401 94.84 87.8033 95.6797 87.565V88.6247H95.6798Z" fill="#0C479C"/>
<path d="M101.017 80.058C99.5393 80.058 99.3505 82.2948 99.3505 83.7971C99.3505 85.5701 99.4906 87.9423 101.017 87.9423C102.509 87.9423 102.65 85.5035 102.65 83.8289C102.65 82.346 102.445 80.058 101.017 80.058ZM100.999 89C98.4282 89 98 86.1834 98 83.8123C98 81.56 98.6504 79 101.033 79C103.395 79 104 81.5437 104 83.7762C104 86.1322 103.572 89 100.999 89Z" fill="#0C479C"/>
<path d="M107.344 88.0001C107.638 88.0876 108.14 88.1404 108.446 88.1404C110.25 88.1404 110.62 86.2806 110.62 84.0529C110.62 81.402 110.119 80.0877 108.983 80.0877C108.205 80.0877 107.343 80.7901 107.343 83.1573V88.0001M107.086 80.597C107.606 79.5095 108.413 79 109.341 79C111.609 79 112 81.6318 112 84.0528C112 86.9305 111.026 89.2257 108.368 89.2257C108.075 89.2257 107.588 89.193 107.344 89.1224V92H106V79.1402H106.761L107.086 80.597Z" fill="#0C479C"/>
<path d="M114 76H113V89H114V76Z" fill="#0C479C"/>
<path d="M120.643 83.3237C120.643 81.9062 120.442 80.0414 119.152 80.0414C117.794 80.0414 117.489 81.9401 117.405 83.3237H120.643ZM121.685 88.6247C120.945 88.8632 120.176 89 119.386 89C116.501 89 116 86.4692 116 83.9907C116 81.8362 116.582 79 119.152 79C121.986 79 122 82.2473 122 84.3495H117.405C117.405 85.9058 117.643 87.9401 119.52 87.9401C120.176 87.9401 120.844 87.8033 121.685 87.565V88.6247Z" fill="#0C479C"/>
</g>
<defs>
<clipPath id="clip0_521_1224">
<rect width="110" height="39" fill="white" transform="translate(13 53)"/>
</clipPath>
</defs>
</svg>
