<svg width="115" height="115" viewBox="0 0 115 115" fill="none" xmlns="http://www.w3.org/2000/svg">
<circle cx="57.5" cy="57.5" r="57.5" fill="#202123"/>
<g clip-path="url(#clip0_341_596)">
<path d="M74.2956 35.6683H77.6543C78.5948 35.6683 79.3337 36.4072 79.3337 37.3476C79.3337 38.2881 78.5948 39.027 77.6543 39.027H74.2956C73.3551 39.027 72.6162 38.2881 72.6162 37.3476C72.6162 36.4072 73.3551 35.6683 74.2956 35.6683Z" fill="#56B3B4"/>
<path d="M23.9147 89.408H40.7084C41.6488 89.408 42.3877 90.1469 42.3877 91.0873C42.3877 92.0278 41.6488 92.7667 40.7084 92.7667H23.9147C22.9743 92.7667 22.2354 92.0278 22.2354 91.0873C22.2354 90.1469 22.9743 89.408 23.9147 89.408Z" fill="#EA5E5E"/>
<path d="M64.2194 62.5381H74.2956C75.236 62.5381 75.975 63.277 75.975 64.2175C75.975 65.1579 75.236 65.8968 74.2956 65.8968H64.2194C63.279 65.8968 62.54 65.1579 62.54 64.2175C62.54 63.277 63.279 62.5381 64.2194 62.5381Z" fill="#BF85BF"/>
<path d="M44.0671 62.5381H57.502C58.4424 62.5381 59.1813 63.277 59.1813 64.2175C59.1813 65.1579 58.4424 65.8968 57.502 65.8968H44.0671C43.1266 65.8968 42.3877 65.1579 42.3877 64.2175C42.3877 63.277 43.1266 62.5381 44.0671 62.5381Z" fill="#EA5E5E"/>
<path d="M23.9147 62.5381H37.3496C38.2901 62.5381 39.029 63.277 39.029 64.2175C39.029 65.1579 38.2901 65.8968 37.3496 65.8968H23.9147C22.9743 65.8968 22.2354 65.1579 22.2354 64.2175C22.2354 63.277 22.9743 62.5381 23.9147 62.5381Z" fill="#56B3B4"/>
<path d="M23.9147 75.973H40.7084C41.6488 75.973 42.3877 76.712 42.3877 77.6524C42.3877 78.5928 41.6488 79.3318 40.7084 79.3318H23.9147C22.9743 79.3318 22.2354 78.5928 22.2354 77.6524C22.2354 76.712 22.9743 75.973 23.9147 75.973Z" fill="#BF85BF"/>
<path d="M23.9147 49.1032H40.7084C41.6488 49.1032 42.3877 49.8421 42.3877 50.7826C42.3877 51.723 41.6488 52.4619 40.7084 52.4619H23.9147C22.9743 52.4619 22.2354 51.723 22.2354 50.7826C22.2354 49.8421 22.9743 49.1032 23.9147 49.1032Z" fill="#BF85BF"/>
<path d="M40.7077 28.9508H74.295C75.2354 28.9508 75.9743 29.6897 75.9743 30.6302C75.9743 31.5706 75.2354 32.3095 74.295 32.3095H40.7077C39.7672 32.3095 39.0283 31.5706 39.0283 30.6302C39.0283 29.6897 39.7672 28.9508 40.7077 28.9508Z" fill="#F7BA3E"/>
<path d="M23.9147 28.9508H33.9909C34.9314 28.9508 35.6703 29.6897 35.6703 30.6302C35.6703 31.5706 34.9314 32.3095 33.9909 32.3095H23.9147C22.9743 32.3095 22.2354 31.5706 22.2354 30.6302C22.2354 29.6897 22.9743 28.9508 23.9147 28.9508Z" fill="#EA5E5E"/>
<path d="M37.3493 82.6905H40.708C41.6485 82.6905 42.3874 83.4294 42.3874 84.3699C42.3874 85.3103 41.6485 86.0492 40.708 86.0492H37.3493C36.4088 86.0492 35.6699 85.3103 35.6699 84.3699C35.6699 83.4294 36.4088 82.6905 37.3493 82.6905Z" fill="#F7BA3E"/>
<path d="M37.3493 42.3857H40.708C41.6485 42.3857 42.3874 43.1247 42.3874 44.0651C42.3874 45.0055 41.6485 45.7445 40.708 45.7445H37.3493C36.4088 45.7445 35.6699 45.0055 35.6699 44.0651C35.6699 43.1247 36.4088 42.3857 37.3493 42.3857Z" fill="#56B3B4"/>
<path d="M23.9147 82.6905H30.6322C31.5726 82.6905 32.3115 83.4294 32.3115 84.3699C32.3115 85.3103 31.5726 86.0492 30.6322 86.0492H23.9147C22.9743 86.0492 22.2354 85.3103 22.2354 84.3699C22.2354 83.4294 22.9743 82.6905 23.9147 82.6905Z" fill="#56B3B4"/>
<path d="M23.9147 42.3857H30.6322C31.5726 42.3857 32.3115 43.1247 32.3115 44.0651C32.3115 45.0055 31.5726 45.7445 30.6322 45.7445H23.9147C22.9743 45.7445 22.2354 45.0055 22.2354 44.0651C22.2354 43.1247 22.9743 42.3857 23.9147 42.3857Z" fill="#F7BA3E"/>
<path opacity="0.5" d="M67.5778 82.6905H70.9365C71.877 82.6905 72.6159 83.4294 72.6159 84.3699C72.6159 85.3103 71.877 86.0492 70.9365 86.0492H67.5778C66.6374 86.0492 65.8984 85.3103 65.8984 84.3699C65.8984 83.4294 66.6374 82.6905 67.5778 82.6905Z" fill="#4D616E"/>
<path opacity="0.5" d="M47.4255 82.6905H60.8604C61.8008 82.6905 62.5397 83.4294 62.5397 84.3699C62.5397 85.3103 61.8008 86.0492 60.8604 86.0492H47.4255C46.485 86.0492 45.7461 85.3103 45.7461 84.3699C45.7461 83.4294 46.485 82.6905 47.4255 82.6905Z" fill="#4D616E"/>
<path opacity="0.5" d="M77.654 82.6905H91.0889C92.0293 82.6905 92.7683 83.4294 92.7683 84.3699C92.7683 85.3103 92.0293 86.0492 91.0889 86.0492H77.654C76.7135 86.0492 75.9746 85.3103 75.9746 84.3699C75.9746 83.4294 76.7135 82.6905 77.654 82.6905Z" fill="#4D616E"/>
<path d="M50.7848 55.8207H77.6547C78.5951 55.8207 79.334 56.5596 79.334 57.5C79.334 58.4405 78.5951 59.1794 77.6547 59.1794H50.7848C49.8444 59.1794 49.1055 58.4405 49.1055 57.5C49.1055 56.5596 49.8444 55.8207 50.7848 55.8207Z" fill="#56B3B4"/>
<path d="M33.9909 55.8207H44.0671C45.0075 55.8207 45.7464 56.5596 45.7464 57.5C45.7464 58.4405 45.0075 59.1794 44.0671 59.1794H33.9909C33.0504 59.1794 32.3115 58.4405 32.3115 57.5C32.3115 56.5596 33.0504 55.8207 33.9909 55.8207Z" fill="#F7BA3E"/>
<path d="M23.9147 55.8207H27.2734C28.2139 55.8207 28.9528 56.5596 28.9528 57.5C28.9528 58.4405 28.2139 59.1794 27.2734 59.1794H23.9147C22.9743 59.1794 22.2354 58.4405 22.2354 57.5C22.2354 56.5596 22.9743 55.8207 23.9147 55.8207Z" fill="#EA5E5E"/>
<path d="M54.1432 35.6683H67.5782C68.5186 35.6683 69.2575 36.4072 69.2575 37.3476C69.2575 38.2881 68.5186 39.027 67.5782 39.027H54.1432C53.2028 39.027 52.4639 38.2881 52.4639 37.3476C52.4639 36.4072 53.2028 35.6683 54.1432 35.6683Z" fill="#BF85BF"/>
<path d="M23.9147 35.6683H47.4258C48.3663 35.6683 49.1052 36.4072 49.1052 37.3476C49.1052 38.2881 48.3663 39.027 47.4258 39.027H23.9147C22.9743 39.027 22.2354 38.2881 22.2354 37.3476C22.2354 36.4072 22.9743 35.6683 23.9147 35.6683Z" fill="#56B3B4"/>
<path d="M33.9909 69.2556H64.2195C65.1599 69.2556 65.8988 69.9945 65.8988 70.9349C65.8988 71.8754 65.1599 72.6143 64.2195 72.6143H33.9909C33.0504 72.6143 32.3115 71.8754 32.3115 70.9349C32.3115 69.9945 33.0504 69.2556 33.9909 69.2556Z" fill="#F7BA3E"/>
<path d="M23.9147 69.2556H27.2734C28.2139 69.2556 28.9528 69.9945 28.9528 70.9349C28.9528 71.8754 28.2139 72.6143 27.2734 72.6143H23.9147C22.9743 72.6143 22.2354 71.8754 22.2354 70.9349C22.2354 69.9945 22.9743 69.2556 23.9147 69.2556Z" fill="#BF85BF"/>
<path d="M64.2194 42.3857H81.0131C81.9535 42.3857 82.6924 43.1247 82.6924 44.0651C82.6924 45.0055 81.9535 45.7445 81.0131 45.7445H64.2194C63.279 45.7445 62.54 45.0055 62.54 44.0651C62.54 43.1247 63.279 42.3857 64.2194 42.3857Z" fill="#EA5E5E"/>
<path d="M64.2194 49.1032H81.0131C81.9535 49.1032 82.6924 49.8421 82.6924 50.7826C82.6924 51.723 81.9535 52.4619 81.0131 52.4619H64.2194C63.279 52.4619 62.54 51.723 62.54 50.7826C62.54 49.8421 63.279 49.1032 64.2194 49.1032Z" fill="#F7BA3E"/>
<path d="M23.9147 22.2334H64.2195C65.1599 22.2334 65.8988 22.9723 65.8988 23.9127C65.8988 24.8532 65.1599 25.5921 64.2195 25.5921H23.9147C22.9743 25.5921 22.2354 24.8532 22.2354 23.9127C22.2354 22.9723 22.9743 22.2334 23.9147 22.2334Z" fill="#56B3B4"/>
<path opacity="0.5" d="M70.9372 22.2334H91.0896C92.03 22.2334 92.7689 22.9723 92.7689 23.9127C92.7689 24.8532 92.03 25.5921 91.0896 25.5921H70.9372C69.9967 25.5921 69.2578 24.8532 69.2578 23.9127C69.2578 22.9723 69.9967 22.2334 70.9372 22.2334Z" fill="#4D616E"/>
<path opacity="0.5" d="M70.9372 69.2556H77.6546C78.5951 69.2556 79.334 69.9945 79.334 70.9349C79.334 71.8754 78.5951 72.6143 77.6546 72.6143H70.9372C69.9967 72.6143 69.2578 71.8754 69.2578 70.9349C69.2578 69.9945 69.9967 69.2556 70.9372 69.2556Z" fill="#4D616E"/>
<path opacity="0.5" d="M84.3717 69.2556H91.0892C92.0297 69.2556 92.7686 69.9945 92.7686 70.9349C92.7686 71.8754 92.0297 72.6143 91.0892 72.6143H84.3717C83.4313 72.6143 82.6924 71.8754 82.6924 70.9349C82.6924 69.9945 83.4313 69.2556 84.3717 69.2556Z" fill="#4D616E"/>
<path opacity="0.5" d="M81.0133 62.5381H91.0895C92.03 62.5381 92.7689 63.277 92.7689 64.2175C92.7689 65.1579 92.03 65.8968 91.0895 65.8968H81.0133C80.0729 65.8968 79.334 65.1579 79.334 64.2175C79.334 63.277 80.0729 62.5381 81.0133 62.5381Z" fill="#4D616E"/>
<path opacity="0.5" d="M81.0133 28.9508H91.0895C92.03 28.9508 92.7689 29.6897 92.7689 30.6302C92.7689 31.5706 92.03 32.3095 91.0895 32.3095H81.0133C80.0729 32.3095 79.334 31.5706 79.334 30.6302C79.334 29.6897 80.0729 28.9508 81.0133 28.9508Z" fill="#4D616E"/>
<path opacity="0.5" d="M84.3717 55.8207H91.0892C92.0297 55.8207 92.7686 56.5596 92.7686 57.5C92.7686 58.4405 92.0297 59.1794 91.0892 59.1794H84.3717C83.4313 59.1794 82.6924 58.4405 82.6924 57.5C82.6924 56.5596 83.4313 55.8207 84.3717 55.8207Z" fill="#4D616E"/>
<path opacity="0.5" d="M84.3717 35.6683H91.0892C92.0297 35.6683 92.7686 36.4072 92.7686 37.3476C92.7686 38.2881 92.0297 39.027 91.0892 39.027H84.3717C83.4313 39.027 82.6924 38.2881 82.6924 37.3476C82.6924 36.4072 83.4313 35.6683 84.3717 35.6683Z" fill="#4D616E"/>
<path opacity="0.5" d="M87.7301 42.3857H91.0889C92.0293 42.3857 92.7682 43.1247 92.7682 44.0651C92.7682 45.0055 92.0293 45.7445 91.0889 45.7445H87.7301C86.7897 45.7445 86.0508 45.0055 86.0508 44.0651C86.0508 43.1247 86.7897 42.3857 87.7301 42.3857Z" fill="#4D616E"/>
<path opacity="0.5" d="M87.7301 49.1032H91.0889C92.0293 49.1032 92.7682 49.8421 92.7682 50.7826C92.7682 51.723 92.0293 52.4619 91.0889 52.4619H87.7301C86.7897 52.4619 86.0508 51.723 86.0508 50.7826C86.0508 49.8421 86.7897 49.1032 87.7301 49.1032Z" fill="#4D616E"/>
<path opacity="0.5" d="M60.86 75.973H91.0886C92.029 75.973 92.768 76.712 92.768 77.6524C92.768 78.5928 92.029 79.3318 91.0886 79.3318H60.86C59.9196 79.3318 59.1807 78.5928 59.1807 77.6524C59.1807 76.712 59.9196 75.973 60.86 75.973Z" fill="#4D616E"/>
<path opacity="0.5" d="M47.4255 75.973H54.1429C55.0834 75.973 55.8223 76.712 55.8223 77.6524C55.8223 78.5928 55.0834 79.3318 54.1429 79.3318H47.4255C46.485 79.3318 45.7461 78.5928 45.7461 77.6524C45.7461 76.712 46.485 75.973 47.4255 75.973Z" fill="#4D616E"/>
<path opacity="0.5" d="M74.2956 89.408H91.0892C92.0297 89.408 92.7686 90.1469 92.7686 91.0873C92.7686 92.0278 92.0297 92.7667 91.0892 92.7667H74.2956C73.3551 92.7667 72.6162 92.0278 72.6162 91.0873C72.6162 90.1469 73.3551 89.408 74.2956 89.408Z" fill="#4D616E"/>
<path opacity="0.5" d="M47.4255 89.408H67.5778C68.5183 89.408 69.2572 90.1469 69.2572 91.0873C69.2572 92.0278 68.5183 92.7667 67.5778 92.7667H47.4255C46.485 92.7667 45.7461 92.0278 45.7461 91.0873C45.7461 90.1469 46.485 89.408 47.4255 89.408Z" fill="#4D616E"/>
<path opacity="0.5" d="M47.4255 42.3857H57.5016C58.4421 42.3857 59.181 43.1247 59.181 44.0651C59.181 45.0056 58.4421 45.7445 57.5016 45.7445H47.4255C46.485 45.7445 45.7461 45.0056 45.7461 44.0651C45.7461 43.1247 46.485 42.3857 47.4255 42.3857Z" fill="#4D616E"/>
<path opacity="0.5" d="M47.4255 49.1032H57.5016C58.4421 49.1032 59.181 49.8421 59.181 50.7826C59.181 51.723 58.4421 52.4619 57.5016 52.4619H47.4255C46.485 52.4619 45.7461 51.723 45.7461 50.7826C45.7461 49.8421 46.485 49.1032 47.4255 49.1032Z" fill="#4D616E"/>
</g>
<defs>
<clipPath id="clip0_341_596">
<rect width="70.5333" height="70.5333" fill="white" transform="translate(22.2354 22.2334)"/>
</clipPath>
</defs>
</svg>
