<svg width="136" height="122" viewBox="0 0 136 122" fill="none" xmlns="http://www.w3.org/2000/svg">
<g clip-path="url(#clip0_521_1737)">
<path d="M104.112 44.0879C102.933 43.6816 101.743 43.3052 100.545 42.9591C100.746 42.1333 100.932 41.3174 101.096 40.5159C103.796 27.3541 102.031 16.7507 96.0016 13.2596C90.2206 9.91271 80.7663 13.4026 71.218 21.7466C70.277 22.5704 69.3569 23.418 68.4585 24.2885C67.8571 23.7096 67.245 23.142 66.6227 22.5859C56.6156 13.6642 46.5851 9.90402 40.5622 13.4052C34.7864 16.7624 33.0761 26.7304 35.5071 39.2041C35.749 40.4395 36.022 41.6685 36.3261 42.89C34.9063 43.2951 33.5362 43.7263 32.2251 44.1853C20.4926 48.2927 13 54.7296 13 61.4063C13 68.3021 21.0436 75.2188 33.2635 79.4128C34.2542 79.7514 35.2532 80.0651 36.2594 80.3538C35.9326 81.6693 35.6425 82.9938 35.3894 84.3257C33.0718 96.5829 34.8816 106.315 40.6418 109.651C46.5912 113.096 56.5766 109.556 66.2993 101.021C67.0877 100.327 67.8588 99.6139 68.6117 98.8814C69.5846 99.824 70.5835 100.739 71.6072 101.626C81.0256 109.763 90.3271 113.049 96.0817 109.704C102.025 106.249 103.957 95.794 101.449 83.0739C101.252 82.0773 101.03 81.0857 100.785 80.0999C101.486 79.8913 102.174 79.6766 102.845 79.4532C115.549 75.227 123.815 68.3942 123.815 61.4063C123.815 54.7052 116.08 48.2249 104.112 44.0879ZM101.357 74.9415C100.751 75.1427 100.129 75.337 99.4953 75.5261C98.0928 71.0678 96.2003 66.3275 93.884 61.4293C96.0942 56.6481 97.914 51.9682 99.2771 47.5391C100.411 47.8685 101.511 48.2158 102.571 48.5822C112.826 52.1273 119.081 57.3679 119.081 61.4063C119.081 65.7076 112.326 71.2917 101.357 74.9415ZM96.8054 83.9971C97.9145 89.6215 98.0724 94.707 97.3379 98.6827C96.6782 102.255 95.351 104.637 93.7095 105.591C90.2176 107.621 82.7493 104.982 74.6948 98.0225C73.7427 97.1981 72.8135 96.3473 71.9085 95.4711C75.0312 92.0421 78.1517 88.0559 81.1974 83.6285C86.5546 83.1512 91.6158 82.3706 96.2055 81.3052C96.4266 82.1976 96.6266 83.0952 96.8054 83.9971ZM50.7792 105.24C47.3673 106.45 44.6497 106.484 43.007 105.533C39.5116 103.509 38.0584 95.6945 40.0405 85.2124C40.2762 83.9737 40.5459 82.7419 40.8496 81.5182C45.3887 82.5266 50.413 83.2516 55.7827 83.6889C58.8492 88.0211 62.0598 92.003 65.2955 95.4898C64.6079 96.1579 63.9039 96.8089 63.1844 97.4422C58.8847 101.216 54.5763 103.893 50.7792 105.24ZM34.795 74.9149C29.3915 73.0603 24.929 70.6501 21.8704 68.02C19.1217 65.6568 17.7343 63.3101 17.7343 61.4063C17.7343 57.3544 23.7499 52.1864 33.7834 48.6739C35.0011 48.248 36.2754 47.8459 37.5979 47.4686C38.9848 51.9977 40.8037 56.7333 42.9988 61.5219C40.7751 66.3814 38.9302 71.1926 37.5299 75.7751C36.6114 75.5109 35.6995 75.2241 34.795 74.9149ZM40.1531 38.2909C38.0706 27.604 39.4536 19.5425 42.9343 17.5192C46.6414 15.3642 54.8391 18.4367 63.4796 26.1406C64.043 26.6441 64.5974 27.1578 65.1423 27.6814C61.9226 31.153 58.7414 35.1053 55.7022 39.4119C50.4905 39.897 45.5016 40.6759 40.9149 41.7195C40.6324 40.5834 40.3783 39.4403 40.1531 38.2913V38.2909ZM87.9537 50.1431C86.8703 48.264 85.7467 46.4086 84.5838 44.5782C88.1195 45.0272 91.5071 45.6231 94.6883 46.3516C93.7334 49.4255 92.543 52.6389 91.1418 55.9336C90.1176 53.9823 89.0546 52.0517 87.9537 50.1431ZM68.4606 31.0787C70.644 33.4541 72.8309 36.1059 74.9818 38.9833C70.6185 38.7764 66.2479 38.7755 61.8845 38.9807C64.0376 36.1298 66.2431 33.4814 68.4606 31.0787ZM48.8425 50.1757C47.7553 52.069 46.7122 53.9875 45.7142 55.9296C44.3359 52.6467 43.1563 49.4185 42.1932 46.3012C45.3549 45.5909 48.7265 45.0102 52.2397 44.5695C51.0638 46.4111 49.9311 48.2802 48.8425 50.1752V50.1757ZM52.3406 78.5813C48.7109 78.1744 45.2887 77.6237 42.1278 76.9326C43.1061 73.7596 44.3117 70.4628 45.7198 67.1094C46.7218 69.053 47.7692 70.9727 48.8611 72.8668C49.984 74.8141 51.1467 76.7214 52.3406 78.5813ZM68.5914 92.0686C66.3474 89.638 64.1094 86.9488 61.9239 84.0566C64.0458 84.1401 66.2089 84.1827 68.4074 84.1827C70.6661 84.1827 72.8989 84.1318 75.0966 84.0336C72.9387 86.9779 70.7601 89.671 68.5914 92.0686ZM91.1863 66.9381C92.6676 70.3285 93.916 73.6079 94.9073 76.7266C91.6945 77.4629 88.2255 78.0558 84.5704 78.4961C85.7416 76.6316 86.8758 74.744 87.9723 72.8342C89.0871 70.8931 90.1587 68.9272 91.1863 66.9381ZM83.8717 70.4593C82.1931 73.3873 80.4201 76.2597 78.5556 79.072C75.1782 79.3122 71.7933 79.4315 68.4074 79.4297C64.9587 79.4297 61.6044 79.3219 58.3743 79.1115C56.4612 76.3058 54.6544 73.4283 52.9578 70.4854H52.9583C51.2697 67.558 49.6925 64.5673 48.23 61.5197C49.6888 58.4715 51.2612 55.4793 52.944 52.5498L52.9435 52.5502C54.6257 49.6198 56.418 46.7547 58.3168 43.961C61.6122 43.7106 64.9916 43.5802 68.407 43.5802H68.4074C71.8383 43.5802 75.2221 43.7119 78.5167 43.964C80.3962 46.7536 82.1771 49.6089 83.8561 52.5246C85.5445 55.4477 87.1377 58.4252 88.6333 61.4524C87.1531 64.5105 85.5649 67.5147 83.8717 70.4593ZM93.6373 17.3775C97.3478 19.5264 98.791 28.1921 96.4596 39.5562C96.3107 40.2812 96.1436 41.0197 95.9618 41.7686C91.3638 40.7028 86.3715 39.9104 81.1446 39.418C78.0998 35.064 74.9446 31.1056 71.7773 27.6788C72.6074 26.8753 73.4572 26.0927 74.326 25.3317C82.5073 18.1829 90.1535 15.3602 93.6373 17.3775ZM68.4074 51.4701C73.8724 51.4701 78.3028 55.9188 78.3028 61.4063C78.3028 66.8938 73.8724 71.3425 68.4074 71.3425C62.9424 71.3425 58.512 66.8938 58.512 61.4063C58.512 55.9188 62.9424 51.4701 68.4074 51.4701Z" fill="#00D8FF"/>
</g>
<defs>
<clipPath id="clip0_521_1737">
<rect width="110.815" height="99" fill="white" transform="translate(13 12)"/>
</clipPath>
</defs>
</svg>
