<svg width="138" height="124" viewBox="0 0 138 124" fill="none" xmlns="http://www.w3.org/2000/svg">
<path d="M71.7123 121.105C101.957 121.105 126.475 119.427 126.475 117.357C126.475 115.287 101.957 113.609 71.7123 113.609C41.4678 113.609 16.9497 115.287 16.9497 117.357C16.9497 119.427 41.4678 121.105 71.7123 121.105Z" fill="#263238"/>
<path d="M38.8142 89.121C38.5871 88.0308 38.2854 86.4664 38.0096 84.5763C37.9285 84.0312 37.8506 83.4538 37.7793 82.8571C38.0258 82.8119 39.9855 82.4313 40.7479 81.8894C41.4422 81.4024 42.1884 80.5992 42.2176 79.6961C42.2344 79.4848 42.2058 79.2723 42.1337 79.0727C42.0616 78.8732 41.9478 78.6912 41.7996 78.5387C41.6515 78.3862 41.4724 78.2668 41.2743 78.1883C41.0762 78.1098 40.8636 78.074 40.6506 78.0833C39.3788 78.1704 38.2043 80.1315 37.9285 81.2314C37.9123 81.3024 37.7987 82.1539 37.7501 82.5926C37.7079 82.2314 37.6657 81.8733 37.6268 81.4992C37.5684 80.9573 37.523 80.3864 37.4775 79.8316C37.4775 79.5413 37.4483 79.251 37.4354 78.9575C37.4224 78.6639 37.4354 78.3769 37.4354 78.0801C37.4354 77.6479 37.4678 77.1996 37.4905 76.7544C38.0486 76.7286 39.6805 76.6222 40.4105 76.2545C41.1405 75.8868 42.0327 75.1868 42.1982 74.3192C42.2436 74.1143 42.2453 73.9022 42.2033 73.6965C42.1613 73.4909 42.0764 73.2963 41.9542 73.1252C41.8319 72.9541 41.675 72.8104 41.4935 72.7033C41.312 72.5962 41.11 72.528 40.9004 72.5032C39.6318 72.4 38.1686 74.1611 37.7338 75.2062C37.7176 75.2384 37.6495 75.4707 37.5684 75.7449C37.6073 75.3094 37.643 74.874 37.6982 74.4353C37.8474 73.1935 38.0421 71.9291 38.2302 70.6614C38.2692 70.397 38.3049 70.1357 38.3438 69.8712C38.811 69.8486 40.5824 69.7519 41.3514 69.368C42.1203 68.9842 42.9736 68.2972 43.1391 67.4327C43.185 67.2278 43.1871 67.0155 43.1453 66.8097C43.1035 66.6038 43.0187 66.409 42.8964 66.2378C42.774 66.0666 42.6169 65.9229 42.4351 65.8159C42.2534 65.7089 42.0511 65.6411 41.8413 65.6168C40.5695 65.5135 39.1095 67.2747 38.6715 68.3197C38.6715 68.3552 38.5741 68.6423 38.4833 68.939C38.5774 68.252 38.6585 67.5617 38.7201 66.8779C38.8343 65.6989 38.8679 64.5135 38.8207 63.3299C38.9862 63.3299 41.0626 63.2492 41.9191 62.8235C42.6816 62.4461 43.5414 61.7558 43.7068 60.8882C43.7528 60.6834 43.7549 60.4713 43.7131 60.2657C43.6712 60.06 43.5864 59.8654 43.464 59.6945C43.3416 59.5235 43.1845 59.3801 43.0027 59.2734C42.821 59.1668 42.6187 59.0993 42.4091 59.0754C41.1372 58.969 39.6773 60.7333 39.2393 61.7752C39.2068 61.8494 38.9148 62.8493 38.8272 63.2073C38.8256 63.1934 38.8256 63.1793 38.8272 63.1654C38.7521 62.007 38.5741 60.8574 38.2951 59.7302C38.0502 58.7223 37.7469 57.7294 37.3867 56.7563C37.0622 55.8532 36.7086 55.0435 36.3907 54.3307C36.2155 53.9436 36.0467 53.5953 35.8878 53.2727H35.9137C35.9364 53.2727 35.8748 51.7406 35.8618 51.66C35.6866 50.544 34.6906 48.4861 33.4317 48.2861C33.2219 48.2584 33.0085 48.275 32.8055 48.3348C32.6025 48.3947 32.4145 48.4964 32.2538 48.6334C32.093 48.7704 31.9632 48.9395 31.8726 49.1298C31.7821 49.32 31.733 49.5272 31.7284 49.7376C31.6765 50.6311 32.3481 51.5052 32.9937 52.0535C33.6394 52.6018 35.3849 53.1373 35.8131 53.2598C35.9721 53.6017 36.1376 53.9662 36.316 54.3726C36.6178 55.0919 36.9649 55.9048 37.2537 56.8143C37.3348 57.0563 37.4126 57.3208 37.4938 57.5723C37.2699 57.1724 36.9552 56.6273 36.9162 56.5789C36.2447 55.6661 34.4051 54.2952 33.1981 54.6952C32.999 54.7666 32.8173 54.879 32.6649 55.0249C32.5124 55.1709 32.3926 55.3472 32.3133 55.5423C32.234 55.7374 32.197 55.9469 32.2047 56.1572C32.2123 56.3675 32.2645 56.5739 32.3578 56.7627C32.7245 57.5788 33.727 58.0529 34.5576 58.2368C35.3881 58.4207 37.2374 58.0949 37.6333 58.0175C37.802 58.5819 37.9577 59.1657 38.094 59.785C38.3393 60.8979 38.4848 62.0302 38.5287 63.1686C38.5287 63.2363 38.5287 63.3041 38.5287 63.3718C38.4509 63.1525 37.9447 61.9945 37.9026 61.9171C37.3348 60.9495 35.6574 59.3722 34.4116 59.6367C34.2055 59.6862 34.0122 59.7784 33.8444 59.9072C33.6765 60.036 33.5379 60.1985 33.4375 60.3842C33.3371 60.5698 33.2772 60.7744 33.2616 60.9847C33.2461 61.1949 33.2753 61.406 33.3474 61.6042C33.6232 62.4525 34.5705 63.0299 35.3719 63.3073C36.2966 63.6298 38.4476 63.4234 38.5255 63.417C38.5432 64.5592 38.4857 65.7013 38.3535 66.836C38.2594 67.6779 38.1297 68.5262 37.9902 69.3745C37.8831 69.0939 37.4159 68.0165 37.3705 67.9424C36.8059 66.9747 35.1286 65.4007 33.8827 65.6651C33.677 65.7148 33.4841 65.8069 33.3166 65.9354C33.149 66.064 33.0106 66.2262 32.9102 66.4115C32.8098 66.5968 32.7498 66.8009 32.734 67.0108C32.7182 67.2206 32.747 67.4314 32.8185 67.6295C33.0943 68.481 34.0384 69.0552 34.8431 69.3358C35.745 69.6583 37.8052 69.4616 37.9804 69.4454C37.9155 69.8293 37.8539 70.2163 37.789 70.6034C37.5716 71.8613 37.351 73.1257 37.1726 74.3772C37.1077 74.8127 37.0622 75.2417 37.0168 75.6674C36.8449 75.2514 36.5172 74.503 36.4815 74.4417C35.9137 73.4741 34.2364 71.8968 32.9905 72.1645C32.7848 72.2142 32.5919 72.3063 32.4244 72.4348C32.2568 72.5634 32.1184 72.7256 32.018 72.9109C31.9176 73.0962 31.8576 73.3003 31.8418 73.5102C31.826 73.72 31.8548 73.9308 31.9263 74.1289C32.2021 74.9804 33.1462 75.5545 33.9508 75.8352C34.7555 76.1158 36.4912 75.9932 36.9811 75.9545C36.9065 76.6706 36.8514 77.3834 36.8286 78.0866C36.8286 78.3898 36.7994 78.7026 36.8286 78.9929C36.8578 79.2832 36.8287 79.58 36.8481 79.8671C36.8871 80.4638 36.9162 81.0186 36.9649 81.5733C36.9876 81.854 37.0136 82.1185 37.0395 82.3894C36.9292 81.9443 36.741 81.2379 36.7151 81.1766C36.3031 80.1219 34.8852 78.3253 33.6102 78.3994C33.3994 78.4182 33.1949 78.4807 33.0099 78.5829C32.825 78.6851 32.6637 78.8248 32.5365 78.993C32.4092 79.1611 32.3189 79.3539 32.2714 79.5589C32.2239 79.764 32.2202 79.9766 32.2605 80.1832C32.4033 81.0637 33.2338 81.7766 33.9995 82.1733C34.8301 82.6087 36.8254 82.7378 37.0687 82.7539C37.1336 83.4183 37.205 84.0667 37.2796 84.6698C37.5197 86.5858 37.789 88.1695 37.9934 89.2791C38.1978 90.3887 38.3438 91.0176 38.3438 91.0176C38.3536 91.0784 38.376 91.1366 38.4095 91.1884C38.4431 91.2401 38.4871 91.2844 38.5387 91.3184C38.5904 91.3524 38.6485 91.3754 38.7096 91.3859C38.7706 91.3964 38.8332 91.3942 38.8933 91.3794C38.9535 91.3646 39.0099 91.3376 39.059 91.3C39.1081 91.2625 39.1488 91.2152 39.1785 91.1612C39.2083 91.1072 39.2265 91.0476 39.2319 90.9862C39.2373 90.9249 39.2299 90.8631 39.2101 90.8047C39.2101 90.8047 39.0413 90.2145 38.8142 89.121Z" fill="#407BFF"/>
<path d="M37.7243 57.7818C37.7243 57.7818 39.8656 57.1367 40.6086 56.4691C41.2575 55.9078 41.9064 55.0144 41.8123 54.1209C41.8021 53.9109 41.7476 53.7053 41.6522 53.5177C41.5568 53.33 41.4226 53.1645 41.2586 53.0318C41.0945 52.8991 40.9042 52.8023 40.6999 52.7476C40.4957 52.693 40.2822 52.6817 40.0733 52.7146C38.8209 52.9468 37.8768 55.0305 37.7341 56.153C37.7211 56.2497 37.7016 57.7883 37.7243 57.7818Z" fill="#407BFF"/>
<path d="M38.8525 91.3788C38.9053 91.4151 38.9497 91.4623 38.9826 91.5172C39.0155 91.5721 39.0361 91.6334 39.043 91.6968C39.05 91.7603 39.0431 91.8246 39.0229 91.8852C39.0027 91.9458 38.9696 92.0014 38.9258 92.0482C38.882 92.095 38.8287 92.1318 38.7693 92.1563C38.71 92.1807 38.646 92.1922 38.5818 92.1899C38.5176 92.1876 38.4547 92.1716 38.3972 92.1429C38.3398 92.1143 38.2892 92.0737 38.249 92.0239C38.249 92.0239 37.7753 91.5724 36.9934 90.7628C36.2115 89.9532 35.1019 88.7759 33.8398 87.3115C33.4408 86.847 33.0255 86.3438 32.6005 85.8277C32.3896 85.9471 30.6538 86.9341 29.7194 87.0244C28.8726 87.105 27.7728 86.976 27.1628 86.318C27.0145 86.1681 26.8995 85.9889 26.8254 85.792C26.7512 85.5951 26.7196 85.3849 26.7324 85.1751C26.7453 84.9652 26.8024 84.7604 26.9 84.5738C26.9976 84.3873 27.1336 84.2233 27.2991 84.0924C28.3211 83.3312 30.5013 84.0537 31.4292 84.7085C31.4844 84.7472 32.0327 85.231 32.3701 85.5407C32.1981 85.3278 32.0457 85.1246 31.8542 84.8956C31.5071 84.4601 31.1729 84.015 30.8128 83.5344L30.3099 82.8183C30.1347 82.5829 29.9855 82.3119 29.8167 82.0571C29.4436 81.4572 29.0965 80.8314 28.7623 80.1928C28.3762 80.4928 26.9941 81.5443 26.1668 81.7539C25.3394 81.9636 24.2201 81.9991 23.5323 81.4314C23.3626 81.3056 23.2213 81.1456 23.1179 80.962C23.0144 80.7784 22.9509 80.5751 22.9317 80.3655C22.9124 80.1559 22.9377 79.9446 23.006 79.7453C23.0742 79.5461 23.1839 79.3633 23.3279 79.209C24.2234 78.3059 26.488 78.6897 27.5035 79.209C27.5684 79.2413 28.2562 79.6864 28.6293 79.938C28.4314 79.5509 28.2302 79.1671 28.042 78.7703C27.497 77.6285 26.9811 76.4544 26.462 75.2836C26.303 74.9255 26.1376 74.5707 25.9786 74.2127C25.8423 74.3224 24.2266 75.6093 23.3019 75.8416C22.4779 76.0512 21.3553 76.0867 20.6675 75.519C20.4977 75.3932 20.3565 75.2333 20.253 75.0496C20.1496 74.866 20.0861 74.6628 20.0668 74.4531C20.0476 74.2435 20.0729 74.0322 20.1411 73.833C20.2094 73.6337 20.3191 73.451 20.4631 73.2966C21.3553 72.3935 23.6199 72.7773 24.6386 73.2966C24.7165 73.3354 25.7061 73.9772 25.9364 74.1514C25.5795 73.3676 25.2194 72.5903 24.8301 71.8355C24.3102 70.8165 23.725 69.8317 23.0781 68.8874C23.0132 68.939 21.3358 70.2905 20.3852 70.5292C19.5611 70.7356 18.4386 70.7743 17.7507 70.2066C17.5808 70.0809 17.4395 69.9209 17.336 69.7371C17.2325 69.5533 17.1692 69.3499 17.1502 69.1401C17.1312 68.9304 17.157 68.719 17.2258 68.5198C17.2946 68.3206 17.405 68.1381 17.5496 67.9842C18.4418 67.0811 20.7064 67.4649 21.7219 67.9842C21.803 68.0229 22.8672 68.7132 23.0521 68.8519C23.0132 68.7971 22.9807 68.739 22.9418 68.6842C22.2623 67.7595 21.5024 66.896 20.6707 66.1038C20.2165 65.6586 19.759 65.2587 19.3048 64.8781C19.0161 65.1619 17.6826 66.4424 16.8618 66.7521C16.0409 67.0617 14.9703 67.2069 14.2078 66.7263C14.0253 66.62 13.8674 66.4767 13.7444 66.3057C13.6213 66.1347 13.5359 65.9398 13.4936 65.7338C13.4514 65.5278 13.4533 65.3152 13.4992 65.11C13.5451 64.9047 13.634 64.7114 13.7601 64.5426C14.5485 63.5459 16.8423 63.6782 17.9097 64.0717C17.9681 64.0943 18.5326 64.3749 18.9414 64.5845C18.7338 64.4168 18.5229 64.2394 18.3218 64.0846C17.5626 63.4911 16.8326 62.9944 16.1837 62.5622C15.8106 62.3202 15.4699 62.1074 15.1487 61.9171C14.7204 62.0493 12.9912 62.5622 12.1282 62.4557C11.2651 62.3493 10.2367 61.9912 9.78244 61.2171C9.67049 61.0388 9.59743 60.839 9.56797 60.6308C9.53851 60.4227 9.5533 60.2106 9.61139 60.0085C9.66949 59.8064 9.76959 59.6186 9.90523 59.4573C10.0409 59.296 10.2091 59.1648 10.3989 59.0722C11.5604 58.5496 13.533 59.7173 14.2922 60.5559C14.3571 60.6301 15.2655 61.8783 15.2396 61.8848H15.2136C15.538 62.0654 15.8625 62.2654 16.2194 62.4912C16.8683 62.9105 17.6242 63.3911 18.3996 63.9685C19.2388 64.5832 20.0426 65.2444 20.807 65.9489C21.6635 66.7399 22.4495 67.6033 23.1559 68.5293C23.1616 68.5423 23.1692 68.5543 23.1787 68.5648C23.0554 68.2165 22.7439 67.223 22.7277 67.1456C22.5135 66.036 22.7569 63.762 23.873 63.1524C24.0613 63.0565 24.2679 63.0011 24.4792 62.9897C24.6905 62.9783 24.9018 63.0113 25.0995 63.0864C25.2972 63.1616 25.4767 63.2772 25.6265 63.4258C25.7763 63.5745 25.8929 63.7527 25.9689 63.9491C26.3193 64.7749 25.9689 65.8231 25.5601 66.5553C25.0799 67.3811 23.3895 68.5842 23.2565 68.6777C23.9483 69.6378 24.5758 70.642 25.135 71.6839C25.4595 72.2903 25.7839 72.9096 26.0824 73.5353C25.9851 73.2289 25.9007 72.9547 25.8942 72.916C25.6801 71.8065 25.9202 69.5325 27.0395 68.9229C27.2281 68.827 27.4348 68.7717 27.6463 68.7606C27.8577 68.7494 28.0692 68.7827 28.2669 68.8581C28.4646 68.9336 28.6441 69.0496 28.7937 69.1985C28.9434 69.3475 29.0598 69.5261 29.1354 69.7228C29.4858 70.5453 29.1354 71.5936 28.7266 72.3258C28.3178 73.058 26.8741 74.1224 26.4945 74.3965C26.608 74.6385 26.7248 74.8771 26.8384 75.1191C27.3867 76.277 27.9252 77.4382 28.4898 78.5607C28.6877 78.9542 28.8986 79.3348 29.1062 79.7186C29.0219 79.4477 28.9537 79.2187 28.944 79.18C28.7299 78.0704 28.9732 75.7996 30.0893 75.19C30.2776 75.0941 30.4842 75.0387 30.6955 75.0273C30.9068 75.0159 31.1181 75.0489 31.3158 75.124C31.5135 75.1992 31.693 75.3148 31.8428 75.4634C31.9926 75.6121 32.1092 75.7903 32.1852 75.9867C32.5356 76.8092 32.2014 77.8607 31.7764 78.5929C31.3514 79.3251 30.0633 80.2831 29.6123 80.6121C29.8394 80.9959 30.0633 81.383 30.3002 81.7475C30.4689 81.9926 30.6246 82.241 30.7933 82.4764L31.3124 83.1828C31.6596 83.6183 32.0132 84.0731 32.3636 84.4892C32.6037 84.7827 32.8373 85.0569 33.0741 85.3342C32.8697 84.944 32.4901 84.1698 32.4674 84.1021C32.0846 83.0345 31.9775 80.754 32.9898 79.9831C33.1613 79.8599 33.357 79.7739 33.5641 79.7308C33.7712 79.6876 33.9851 79.6883 34.192 79.7327C34.3988 79.7771 34.5939 79.8643 34.7647 79.9886C34.9354 80.1128 35.0779 80.2714 35.183 80.4541C35.6535 81.2153 35.4815 82.3055 35.183 83.0925C34.8586 83.9602 33.4213 85.3504 33.2364 85.5245C33.6289 85.9826 34.0118 86.4212 34.3849 86.8341C35.6632 88.2566 36.7825 89.3952 37.5774 90.1822C38.3723 90.9692 38.8525 91.3788 38.8525 91.3788ZM19.2789 64.6297C19.2789 64.6297 20.7032 62.9105 20.9562 61.9525C21.1704 61.1365 21.2158 60.0172 20.661 59.3334C20.5357 59.1635 20.3758 59.0218 20.1917 58.9174C20.0076 58.813 19.8034 58.7484 19.5925 58.7277C19.3816 58.707 19.1687 58.7307 18.9676 58.7973C18.7666 58.8639 18.5819 58.9718 18.4256 59.1141C17.5106 59.9947 17.8805 62.2493 18.3834 63.2653C18.4126 63.3524 19.2626 64.6458 19.2789 64.6297Z" fill="#407BFF"/>
<path opacity="0.1" d="M38.8525 91.3788C38.9053 91.4151 38.9497 91.4623 38.9826 91.5172C39.0155 91.5721 39.0361 91.6334 39.043 91.6968C39.05 91.7603 39.0431 91.8246 39.0229 91.8852C39.0027 91.9458 38.9696 92.0014 38.9258 92.0482C38.882 92.095 38.8287 92.1318 38.7693 92.1563C38.71 92.1807 38.646 92.1922 38.5818 92.1899C38.5176 92.1876 38.4547 92.1716 38.3972 92.1429C38.3398 92.1143 38.2892 92.0737 38.249 92.0239C38.249 92.0239 37.7753 91.5724 36.9934 90.7628C36.2115 89.9532 35.1019 88.7759 33.8398 87.3115C33.4408 86.847 33.0255 86.3438 32.6005 85.8277C32.3896 85.9471 30.6538 86.9341 29.7194 87.0244C28.8726 87.105 27.7728 86.976 27.1628 86.318C27.0145 86.1681 26.8995 85.9889 26.8254 85.792C26.7512 85.5951 26.7196 85.3849 26.7324 85.1751C26.7453 84.9652 26.8024 84.7604 26.9 84.5738C26.9976 84.3873 27.1336 84.2233 27.2991 84.0924C28.3211 83.3312 30.5013 84.0537 31.4292 84.7085C31.4844 84.7472 32.0327 85.231 32.3701 85.5407C32.1981 85.3278 32.0457 85.1246 31.8542 84.8956C31.5071 84.4601 31.1729 84.015 30.8128 83.5344L30.3099 82.8183C30.1347 82.5829 29.9855 82.3119 29.8167 82.0571C29.4436 81.4572 29.0965 80.8314 28.7623 80.1928C28.3762 80.4928 26.9941 81.5443 26.1668 81.7539C25.3394 81.9636 24.2201 81.9991 23.5323 81.4314C23.3626 81.3056 23.2213 81.1456 23.1179 80.962C23.0144 80.7784 22.9509 80.5751 22.9317 80.3655C22.9124 80.1559 22.9377 79.9446 23.006 79.7453C23.0742 79.5461 23.1839 79.3633 23.3279 79.209C24.2234 78.3059 26.488 78.6897 27.5035 79.209C27.5684 79.2413 28.2562 79.6864 28.6293 79.938C28.4314 79.5509 28.2302 79.1671 28.042 78.7703C27.497 77.6285 26.9811 76.4544 26.462 75.2836C26.303 74.9255 26.1376 74.5707 25.9786 74.2127C25.8423 74.3224 24.2266 75.6093 23.3019 75.8416C22.4779 76.0512 21.3553 76.0867 20.6675 75.519C20.4977 75.3932 20.3565 75.2333 20.253 75.0496C20.1496 74.866 20.0861 74.6628 20.0668 74.4531C20.0476 74.2435 20.0729 74.0322 20.1411 73.833C20.2094 73.6337 20.3191 73.451 20.4631 73.2966C21.3553 72.3935 23.6199 72.7773 24.6386 73.2966C24.7165 73.3354 25.7061 73.9772 25.9364 74.1514C25.5795 73.3676 25.2194 72.5903 24.8301 71.8355C24.3102 70.8165 23.725 69.8317 23.0781 68.8874C23.0132 68.939 21.3358 70.2905 20.3852 70.5292C19.5611 70.7356 18.4386 70.7743 17.7507 70.2066C17.5808 70.0809 17.4395 69.9209 17.336 69.7371C17.2325 69.5533 17.1692 69.3499 17.1502 69.1401C17.1312 68.9304 17.157 68.719 17.2258 68.5198C17.2946 68.3206 17.405 68.1381 17.5496 67.9842C18.4418 67.0811 20.7064 67.4649 21.7219 67.9842C21.803 68.0229 22.8672 68.7132 23.0521 68.8519C23.0132 68.7971 22.9807 68.739 22.9418 68.6842C22.2623 67.7595 21.5024 66.896 20.6707 66.1038C20.2165 65.6586 19.759 65.2587 19.3048 64.8781C19.0161 65.1619 17.6826 66.4424 16.8618 66.7521C16.0409 67.0617 14.9703 67.2069 14.2078 66.7263C14.0253 66.62 13.8674 66.4767 13.7444 66.3057C13.6213 66.1347 13.5359 65.9398 13.4936 65.7338C13.4514 65.5278 13.4533 65.3152 13.4992 65.11C13.5451 64.9047 13.634 64.7114 13.7601 64.5426C14.5485 63.5459 16.8423 63.6782 17.9097 64.0717C17.9681 64.0943 18.5326 64.3749 18.9414 64.5845C18.7338 64.4168 18.5229 64.2394 18.3218 64.0846C17.5626 63.4911 16.8326 62.9944 16.1837 62.5622C15.8106 62.3202 15.4699 62.1074 15.1487 61.9171C14.7204 62.0493 12.9912 62.5622 12.1282 62.4557C11.2651 62.3493 10.2367 61.9912 9.78244 61.2171C9.67049 61.0388 9.59743 60.839 9.56797 60.6308C9.53851 60.4227 9.5533 60.2106 9.61139 60.0085C9.66949 59.8064 9.76959 59.6186 9.90523 59.4573C10.0409 59.296 10.2091 59.1648 10.3989 59.0722C11.5604 58.5496 13.533 59.7173 14.2922 60.5559C14.3571 60.6301 15.2655 61.8783 15.2396 61.8848H15.2136C15.538 62.0654 15.8625 62.2654 16.2194 62.4912C16.8683 62.9105 17.6242 63.3911 18.3996 63.9685C19.2388 64.5832 20.0426 65.2444 20.807 65.9489C21.6635 66.7399 22.4495 67.6033 23.1559 68.5293C23.1616 68.5423 23.1692 68.5543 23.1787 68.5648C23.0554 68.2165 22.7439 67.223 22.7277 67.1456C22.5135 66.036 22.7569 63.762 23.873 63.1524C24.0613 63.0565 24.2679 63.0011 24.4792 62.9897C24.6905 62.9783 24.9018 63.0113 25.0995 63.0864C25.2972 63.1616 25.4767 63.2772 25.6265 63.4258C25.7763 63.5745 25.8929 63.7527 25.9689 63.9491C26.3193 64.7749 25.9689 65.8231 25.5601 66.5553C25.0799 67.3811 23.3895 68.5842 23.2565 68.6777C23.9483 69.6378 24.5758 70.642 25.135 71.6839C25.4595 72.2903 25.7839 72.9096 26.0824 73.5353C25.9851 73.2289 25.9007 72.9547 25.8942 72.916C25.6801 71.8065 25.9202 69.5325 27.0395 68.9229C27.2281 68.827 27.4348 68.7717 27.6463 68.7606C27.8577 68.7494 28.0692 68.7827 28.2669 68.8581C28.4646 68.9336 28.6441 69.0496 28.7937 69.1985C28.9434 69.3475 29.0598 69.5261 29.1354 69.7228C29.4858 70.5453 29.1354 71.5936 28.7266 72.3258C28.3178 73.058 26.8741 74.1224 26.4945 74.3965C26.608 74.6385 26.7248 74.8771 26.8384 75.1191C27.3867 76.277 27.9252 77.4382 28.4898 78.5607C28.6877 78.9542 28.8986 79.3348 29.1062 79.7186C29.0219 79.4477 28.9537 79.2187 28.944 79.18C28.7299 78.0704 28.9732 75.7996 30.0893 75.19C30.2776 75.0941 30.4842 75.0387 30.6955 75.0273C30.9068 75.0159 31.1181 75.0489 31.3158 75.124C31.5135 75.1992 31.693 75.3148 31.8428 75.4634C31.9926 75.6121 32.1092 75.7903 32.1852 75.9867C32.5356 76.8092 32.2014 77.8607 31.7764 78.5929C31.3514 79.3251 30.0633 80.2831 29.6123 80.6121C29.8394 80.9959 30.0633 81.383 30.3002 81.7475C30.4689 81.9926 30.6246 82.241 30.7933 82.4764L31.3124 83.1828C31.6596 83.6183 32.0132 84.0731 32.3636 84.4892C32.6037 84.7827 32.8373 85.0569 33.0741 85.3342C32.8697 84.944 32.4901 84.1698 32.4674 84.1021C32.0846 83.0345 31.9775 80.754 32.9898 79.9831C33.1613 79.8599 33.357 79.7739 33.5641 79.7308C33.7712 79.6876 33.9851 79.6883 34.192 79.7327C34.3988 79.7771 34.5939 79.8643 34.7647 79.9886C34.9354 80.1128 35.0779 80.2714 35.183 80.4541C35.6535 81.2153 35.4815 82.3055 35.183 83.0925C34.8586 83.9602 33.4213 85.3504 33.2364 85.5245C33.6289 85.9826 34.0118 86.4212 34.3849 86.8341C35.6632 88.2566 36.7825 89.3952 37.5774 90.1822C38.3723 90.9692 38.8525 91.3788 38.8525 91.3788ZM19.2789 64.6297C19.2789 64.6297 20.7032 62.9105 20.9562 61.9525C21.1704 61.1365 21.2158 60.0172 20.661 59.3334C20.5357 59.1635 20.3758 59.0218 20.1917 58.9174C20.0076 58.813 19.8034 58.7484 19.5925 58.7277C19.3816 58.707 19.1687 58.7307 18.9676 58.7973C18.7666 58.8639 18.5819 58.9718 18.4256 59.1141C17.5106 59.9947 17.8805 62.2493 18.3834 63.2653C18.4126 63.3524 19.2626 64.6458 19.2789 64.6297Z" fill="black"/>
<path d="M30.5372 112.651C30.2614 111.571 29.8883 110.022 29.5314 108.135C29.4276 107.597 29.3238 107.019 29.2265 106.429C29.4665 106.371 31.4099 105.907 32.1464 105.336C32.818 104.816 33.5286 103.971 33.5188 103.078C33.5235 102.869 33.4841 102.661 33.4031 102.468C33.322 102.275 33.2012 102.101 33.0483 101.957C32.8955 101.813 32.714 101.703 32.5156 101.633C32.3173 101.563 32.1064 101.536 31.8966 101.552C30.628 101.694 29.5412 103.707 29.3011 104.816C29.3011 104.887 29.2102 105.745 29.1843 106.184C29.1226 105.826 29.0642 105.471 29.0091 105.097C28.928 104.562 28.8566 103.991 28.7852 103.439L28.7073 102.568C28.6717 102.271 28.6781 101.984 28.6619 101.691C28.6619 101.259 28.6619 100.81 28.6619 100.365C29.2167 100.314 30.8422 100.136 31.5624 99.7362C32.2827 99.3362 33.136 98.5976 33.2593 97.7138C33.2962 97.5065 33.2888 97.2938 33.2374 97.0895C33.186 96.8853 33.0919 96.6942 32.9611 96.5286C32.8304 96.363 32.666 96.2266 32.4786 96.1285C32.2913 96.0304 32.0852 95.9727 31.8739 95.9591C30.6021 95.9075 29.22 97.7331 28.8274 98.7976C28.8274 98.8298 28.756 99.062 28.6911 99.3394C28.6911 98.904 28.7268 98.4718 28.7593 98.0299C28.8566 96.7784 28.9929 95.5108 29.1259 94.2367C29.1518 93.969 29.1745 93.7045 29.2037 93.44C29.6709 93.398 31.4327 93.2206 32.1854 92.7949C32.9381 92.3691 33.7589 91.6563 33.8854 90.7693C33.9219 90.562 33.914 90.3495 33.8624 90.1455C33.8109 89.9415 33.7167 89.7505 33.586 89.585C33.4554 89.4196 33.2912 89.2832 33.1041 89.185C32.917 89.0867 32.7112 89.0286 32.5001 89.0146C31.2283 88.9662 29.8429 90.7918 29.4536 91.853C29.4536 91.8917 29.3692 92.1756 29.2946 92.482C29.3562 91.7885 29.4081 91.0983 29.4406 90.4112C29.5014 89.2286 29.4818 88.0432 29.3822 86.8632C29.5476 86.8632 31.6176 86.6825 32.4579 86.2181C33.1976 85.8084 34.0314 85.0795 34.1547 84.1925C34.1917 83.9852 34.1842 83.7725 34.1328 83.5682C34.0815 83.364 33.9873 83.1728 33.8566 83.0072C33.7258 82.8416 33.5614 82.7053 33.3741 82.6072C33.1867 82.5091 32.9807 82.4513 32.7694 82.4378C31.4975 82.3894 30.1154 84.215 29.7228 85.2762C29.6969 85.3504 29.4503 86.36 29.3757 86.7245C29.3757 86.7245 29.3757 86.6954 29.3757 86.6825C29.2514 85.5282 29.0234 84.3871 28.6944 83.2732C28.4039 82.2779 28.0562 81.3 27.6529 80.3444C27.2895 79.4542 26.9002 78.6607 26.5498 77.9608C26.3584 77.5834 26.1767 77.2447 26.0015 76.9254H26.0275C26.0502 76.9254 25.9236 75.3997 25.9042 75.3126C25.6803 74.2031 24.6064 72.1903 23.3086 72.0452C23.0989 72.0289 22.888 72.0565 22.6896 72.1263C22.4912 72.196 22.3098 72.3063 22.1569 72.4501C22.004 72.5938 21.8832 72.7678 21.8022 72.9609C21.7211 73.1539 21.6817 73.3617 21.6864 73.5709C21.6864 74.4643 22.384 75.3094 23.0556 75.8287C23.7272 76.348 25.4889 76.7964 25.9236 76.9125C26.0988 77.235 26.2805 77.6027 26.4752 77.9995C26.7996 78.7059 27.176 79.5026 27.5199 80.3993C27.614 80.6379 27.7016 80.896 27.7924 81.1476C27.5523 80.7573 27.2117 80.2251 27.1727 80.1799C26.4622 79.2994 24.5772 78.0124 23.3735 78.4639C23.1782 78.5446 23.002 78.6652 22.8566 78.8178C22.7111 78.9705 22.5996 79.1519 22.5292 79.3502C22.4589 79.5485 22.4312 79.7593 22.4481 79.969C22.465 80.1786 22.5261 80.3823 22.6273 80.567C23.0296 81.3669 24.0516 81.7895 24.8984 81.9443C25.7452 82.0991 27.5686 81.683 27.9611 81.5862C28.1558 82.1443 28.3407 82.7216 28.4997 83.3345C28.802 84.4409 29.0029 85.5723 29.0999 86.7148C29.0999 86.7793 29.0999 86.8503 29.0999 86.9148C29.0156 86.7019 28.451 85.5633 28.4121 85.4891C27.8021 84.5215 26.0567 83.0474 24.8238 83.3667C24.6204 83.4252 24.4317 83.5256 24.27 83.6614C24.1083 83.7973 23.9772 83.9656 23.8854 84.1552C23.7935 84.3448 23.7429 84.5516 23.7369 84.762C23.7309 84.9724 23.7696 85.1817 23.8504 85.3762C24.1749 86.2148 25.1482 86.7503 25.9463 86.989C26.884 87.2696 29.0221 86.9696 29.1032 86.9599C29.1684 88.1 29.1608 89.2431 29.0805 90.3822C29.0221 91.2273 28.9312 92.0788 28.8306 92.9336C28.7138 92.6594 28.1817 91.6014 28.1493 91.5305C27.5394 90.5628 25.7939 89.0888 24.561 89.4081C24.3576 89.4665 24.1689 89.567 24.0072 89.7028C23.8455 89.8387 23.7144 90.0069 23.6226 90.1966C23.5307 90.3862 23.4801 90.593 23.4741 90.8034C23.4681 91.0138 23.5068 91.2231 23.5876 91.4176C23.9121 92.2562 24.8854 92.7884 25.6835 93.0303C26.5985 93.3013 28.6489 93.0303 28.8241 93.0013C28.7755 93.3884 28.7333 93.7787 28.6846 94.1657C28.5257 95.4333 28.3602 96.7074 28.2337 97.9654C28.1915 98.4008 28.1655 98.833 28.1363 99.2556C27.9449 98.8492 27.5848 98.1138 27.5458 98.0557C26.9359 97.088 25.1936 95.614 23.977 95.9333C23.7739 95.9922 23.5855 96.0929 23.4241 96.2288C23.2627 96.3648 23.1318 96.533 23.04 96.7225C22.9482 96.912 22.8976 97.1186 22.8913 97.3288C22.885 97.539 22.9233 97.7482 23.0037 97.9428C23.3281 98.7814 24.3014 99.3136 25.0995 99.5555C25.8977 99.7975 27.6464 99.6039 28.1331 99.5394C28.0909 100.259 28.0649 100.975 28.0747 101.678C28.0747 101.984 28.0747 102.294 28.1039 102.584L28.1623 103.458C28.2272 104.052 28.2823 104.603 28.3537 105.158C28.3894 105.436 28.4283 105.697 28.4673 105.968C28.3342 105.529 28.1169 104.832 28.0909 104.771C27.6302 103.736 26.1442 102.004 24.8659 102.133C24.6563 102.16 24.4549 102.231 24.2747 102.341C24.0945 102.451 23.9395 102.598 23.8199 102.771C23.7003 102.945 23.6187 103.141 23.5803 103.348C23.542 103.554 23.5478 103.767 23.5974 103.971C23.7791 104.849 24.6551 105.523 25.424 105.884C26.2708 106.284 28.2693 106.326 28.5159 106.329C28.61 106.994 28.7073 107.635 28.8112 108.239C29.1356 110.138 29.46 111.712 29.7261 112.809C29.9921 113.906 30.1544 114.532 30.1544 114.532C30.1942 114.637 30.2726 114.723 30.3739 114.773C30.4752 114.824 30.5918 114.834 30.7003 114.802C30.8089 114.77 30.9012 114.698 30.9588 114.602C31.0164 114.505 31.035 114.39 31.0109 114.28C31.0109 114.28 30.813 113.735 30.5372 112.651Z" fill="#407BFF"/>
<path d="M28.0551 81.3893C28.0551 81.3893 30.1672 80.6475 30.8777 79.954C31.4845 79.3605 32.0944 78.4412 31.9809 77.5542C31.961 77.3446 31.897 77.1415 31.7929 76.9581C31.6889 76.7747 31.5472 76.6151 31.377 76.4897C31.2069 76.3644 31.0121 76.2761 30.8053 76.2305C30.5986 76.1849 30.3845 76.1831 30.177 76.2253C28.9376 76.5124 28.0875 78.6347 27.9935 79.7733C27.9837 79.8669 28.0324 81.399 28.0551 81.3893Z" fill="#407BFF"/>
<path d="M29.3209 113.106C28.4935 112.357 27.3255 111.267 25.9823 109.899C25.5963 109.506 25.1907 109.083 24.7819 108.645C24.9506 108.464 26.31 107.009 26.6118 106.129C26.8843 105.329 27.0076 104.236 26.5015 103.494C26.3887 103.316 26.2395 103.164 26.0637 103.047C25.8878 102.93 25.6892 102.852 25.4807 102.816C25.2723 102.781 25.0587 102.79 24.8539 102.842C24.6491 102.894 24.4576 102.989 24.292 103.119C23.3187 103.932 23.5231 106.21 23.9513 107.255C23.9773 107.322 24.3926 108.08 24.6002 108.461C24.3504 108.196 24.1038 107.932 23.8508 107.648C23.4841 107.248 23.111 106.809 22.7444 106.39L22.1929 105.706C22.0014 105.477 21.849 105.235 21.6705 105C21.4174 104.648 21.1741 104.271 20.9308 103.894C21.3655 103.548 22.6244 102.507 23.004 101.781C23.3836 101.055 23.6853 99.9682 23.296 99.1618C23.2117 98.9688 23.0874 98.7956 22.9313 98.6536C22.7752 98.5116 22.5906 98.4038 22.3898 98.3375C22.189 98.2711 21.9763 98.2476 21.7657 98.2685C21.5551 98.2894 21.3513 98.3542 21.1676 98.4586C20.0775 99.1037 19.938 101.394 20.1943 102.494C20.1943 102.532 20.2851 102.758 20.3825 103.026C20.1554 102.652 19.9283 102.281 19.7109 101.894C19.0977 100.797 18.5072 99.665 17.9102 98.5296C17.7869 98.2941 17.6604 98.0587 17.5339 97.8232C17.9005 97.5329 19.2729 96.4169 19.6719 95.6557C20.071 94.8944 20.35 93.8429 19.9639 93.0365C19.8797 92.8435 19.7554 92.6704 19.5993 92.5283C19.4431 92.3863 19.2586 92.2786 19.0578 92.2123C18.857 92.1459 18.6443 92.1224 18.4337 92.1433C18.2231 92.1641 18.0193 92.2289 17.8356 92.3334C16.7455 92.9785 16.606 95.2686 16.8623 96.3685C16.8623 96.4104 16.9693 96.691 17.0797 96.9813C16.7552 96.3685 16.4048 95.7653 16.0512 95.1718C15.4448 94.1559 14.7717 93.1807 14.0364 92.2527C14.1694 92.1495 15.8046 90.8755 16.2458 90.0304C16.6384 89.2821 16.9272 88.2176 16.5378 87.4113C16.4539 87.218 16.3298 87.0445 16.1738 86.9021C16.0178 86.7598 15.8334 86.6517 15.6325 86.585C15.4316 86.5184 15.2189 86.4946 15.0081 86.5152C14.7974 86.5359 14.5934 86.6005 14.4095 86.7049C13.3194 87.35 13.1799 89.6433 13.4362 90.7432C13.4556 90.8206 13.8125 91.798 13.9488 92.1431L13.9261 92.1076C13.1792 91.2153 12.3552 90.3896 11.4636 89.6401C10.6802 88.9695 9.85916 88.3438 9.00429 87.7661C8.20616 87.2242 7.44048 86.7758 6.76239 86.3855C6.39253 86.1759 6.04862 85.992 5.73067 85.8243H5.75338C5.77609 85.8243 4.81899 84.6083 4.74761 84.5341C3.94624 83.731 1.92496 82.6504 0.789414 83.2246C0.60334 83.3246 0.440558 83.4625 0.311678 83.6292C0.182798 83.796 0.0907145 83.9879 0.04143 84.1924C-0.00785456 84.3969 -0.0132333 84.6094 0.0256438 84.8161C0.0645208 85.0228 0.146781 85.2191 0.267062 85.3921C0.753725 86.1469 1.81465 86.463 2.66469 86.5275C3.51473 86.592 5.23752 86.0049 5.65605 85.8566C5.98049 86.0372 6.33738 86.234 6.72022 86.463C7.38857 86.8662 8.14127 87.3306 8.92318 87.8886C9.13407 88.037 9.35144 88.2112 9.57206 88.3628C9.15678 88.1693 8.57603 87.9144 8.51763 87.8951C7.43399 87.55 5.13694 87.5145 4.39397 88.5402C4.27612 88.7148 4.19643 88.9121 4.16006 89.1192C4.12369 89.3263 4.13143 89.5388 4.1828 89.7427C4.23417 89.9467 4.32802 90.1377 4.45828 90.3034C4.58855 90.4691 4.75232 90.6057 4.93903 90.7045C5.72094 91.1464 6.80782 90.9432 7.58972 90.611C8.37163 90.2787 9.67264 88.9272 9.94842 88.6337C10.4189 88.9918 10.8925 89.3724 11.3662 89.7949C12.2311 90.5527 13.026 91.3861 13.7411 92.285C13.7833 92.3366 13.819 92.3947 13.8612 92.4495C13.6698 92.3173 12.5634 91.6754 12.492 91.6399C11.4538 91.1787 9.173 90.8916 8.32296 91.8367C8.18622 91.997 8.08493 92.1842 8.02566 92.3861C7.96639 92.5879 7.95046 92.7999 7.97891 93.0082C8.00736 93.2165 8.07956 93.4166 8.19081 93.5954C8.30206 93.7742 8.44989 93.9278 8.62469 94.0461C9.35144 94.5719 10.4578 94.488 11.2689 94.2429C12.2065 93.9623 13.8255 92.5398 13.8871 92.4882C14.5764 93.4023 15.205 94.3602 15.7689 95.3557C16.1907 96.0911 16.5865 96.8523 16.9758 97.6135C16.726 97.449 15.7073 96.8523 15.6294 96.8168C14.5912 96.3556 12.3104 96.0718 11.4571 97.0136C11.32 97.174 11.2185 97.3613 11.1592 97.5633C11.0999 97.7654 11.0841 97.9776 11.1129 98.1861C11.1417 98.3946 11.2144 98.5947 11.3262 98.7734C11.4381 98.9521 11.5866 99.1053 11.762 99.2231C12.4888 99.7521 13.5919 99.665 14.4063 99.4231C15.3212 99.1457 16.8785 97.7909 17.0018 97.6781C17.1802 98.0264 17.3587 98.3748 17.5339 98.7231C18.1049 99.8714 18.6694 101.02 19.2664 102.139C19.4708 102.526 19.6882 102.903 19.9153 103.278C19.5292 103.042 18.8219 102.632 18.757 102.6C17.7188 102.139 15.438 101.855 14.5879 102.797C14.4512 102.957 14.3499 103.145 14.2906 103.346C14.2314 103.548 14.2154 103.76 14.2439 103.968C14.2723 104.177 14.3445 104.377 14.4558 104.556C14.567 104.735 14.7149 104.888 14.8897 105.006C15.6164 105.535 16.7195 105.448 17.5339 105.206C18.3482 104.964 19.6849 103.848 20.058 103.529C20.4214 104.152 20.7945 104.764 21.1936 105.345C21.372 105.593 21.5375 105.858 21.7192 106.087L22.2545 106.78C22.6374 107.242 22.991 107.674 23.3576 108.093L23.8994 108.709C23.5458 108.413 22.978 107.955 22.9261 107.919C21.9528 107.306 19.7595 106.68 18.7732 107.484C18.6132 107.622 18.4841 107.791 18.3945 107.982C18.3048 108.173 18.2566 108.38 18.2529 108.591C18.2492 108.802 18.2902 109.011 18.3732 109.204C18.4561 109.398 18.5791 109.572 18.7343 109.716C19.3832 110.345 20.4798 110.428 21.3298 110.309C22.2578 110.177 23.9481 109.116 24.1557 108.983C24.6002 109.483 25.0415 109.951 25.4535 110.412C26.7772 111.822 27.9355 112.948 28.7563 113.722C29.5772 114.496 30.0541 114.928 30.0541 114.928C30.1458 114.995 30.2596 115.025 30.3724 115.011C30.4853 114.997 30.5888 114.942 30.6618 114.855C30.7349 114.769 30.7721 114.658 30.7659 114.545C30.7596 114.432 30.7105 114.326 30.6284 114.247C30.6284 114.247 30.1514 113.857 29.3209 113.106Z" fill="#407BFF"/>
<path d="M9.90616 88.3953C9.90616 88.3953 11.2526 86.6181 11.4635 85.6472C11.6419 84.8215 11.6387 83.7119 11.0514 83.041C10.9183 82.8774 10.7521 82.7435 10.5636 82.6479C10.3751 82.5523 10.1685 82.497 9.95718 82.4858C9.74586 82.4745 9.53452 82.5075 9.33683 82.5826C9.13914 82.6577 8.95951 82.7732 8.80955 82.9216C7.93355 83.8409 8.40399 86.0794 8.94906 87.0696C9.00421 87.1567 9.88994 88.4114 9.90616 88.3953Z" fill="#407BFF"/>
<g opacity="0.1">
<path d="M30.5372 112.651C30.2614 111.571 29.8883 110.022 29.5314 108.135C29.4276 107.597 29.3238 107.019 29.2265 106.429C29.4665 106.371 31.4099 105.907 32.1464 105.336C32.818 104.816 33.5286 103.971 33.5188 103.078C33.5235 102.869 33.4841 102.661 33.4031 102.468C33.322 102.275 33.2012 102.101 33.0483 101.957C32.8955 101.813 32.714 101.703 32.5156 101.633C32.3173 101.563 32.1064 101.536 31.8966 101.552C30.628 101.694 29.5412 103.707 29.3011 104.816C29.3011 104.887 29.2102 105.745 29.1843 106.184C29.1226 105.826 29.0642 105.471 29.0091 105.097C28.928 104.562 28.8566 103.991 28.7852 103.439L28.7073 102.568C28.6717 102.271 28.6781 101.984 28.6619 101.691C28.6619 101.259 28.6619 100.81 28.6619 100.365C29.2167 100.314 30.8422 100.136 31.5624 99.7362C32.2827 99.3362 33.136 98.5976 33.2593 97.7138C33.2962 97.5065 33.2888 97.2938 33.2374 97.0895C33.186 96.8853 33.0919 96.6942 32.9611 96.5286C32.8304 96.363 32.666 96.2266 32.4786 96.1285C32.2913 96.0304 32.0852 95.9727 31.8739 95.9591C30.6021 95.9075 29.22 97.7331 28.8274 98.7976C28.8274 98.8298 28.756 99.062 28.6911 99.3394C28.6911 98.904 28.7268 98.4718 28.7593 98.0299C28.8566 96.7784 28.9929 95.5108 29.1259 94.2367C29.1518 93.969 29.1745 93.7045 29.2037 93.44C29.6709 93.398 31.4327 93.2206 32.1854 92.7949C32.9381 92.3691 33.7589 91.6563 33.8854 90.7693C33.9219 90.562 33.914 90.3495 33.8624 90.1455C33.8109 89.9415 33.7167 89.7505 33.586 89.585C33.4554 89.4196 33.2912 89.2832 33.1041 89.185C32.917 89.0867 32.7112 89.0286 32.5001 89.0146C31.2283 88.9662 29.8429 90.7918 29.4536 91.853C29.4536 91.8917 29.3692 92.1756 29.2946 92.482C29.3562 91.7885 29.4081 91.0983 29.4406 90.4112C29.5014 89.2286 29.4818 88.0432 29.3822 86.8632C29.5476 86.8632 31.6176 86.6825 32.4579 86.2181C33.1976 85.8084 34.0314 85.0795 34.1547 84.1925C34.1917 83.9852 34.1842 83.7725 34.1328 83.5682C34.0815 83.364 33.9873 83.1728 33.8566 83.0072C33.7258 82.8416 33.5614 82.7053 33.3741 82.6072C33.1867 82.5091 32.9807 82.4513 32.7694 82.4378C31.4975 82.3894 30.1154 84.215 29.7228 85.2762C29.6969 85.3504 29.4503 86.36 29.3757 86.7245C29.3757 86.7245 29.3757 86.6954 29.3757 86.6825C29.2514 85.5282 29.0234 84.3871 28.6944 83.2732C28.4039 82.2779 28.0562 81.3 27.6529 80.3444C27.2895 79.4542 26.9002 78.6607 26.5498 77.9608C26.3584 77.5834 26.1767 77.2447 26.0015 76.9254H26.0275C26.0502 76.9254 25.9236 75.3997 25.9042 75.3126C25.6803 74.2031 24.6064 72.1903 23.3086 72.0452C23.0989 72.0289 22.888 72.0565 22.6896 72.1263C22.4912 72.196 22.3098 72.3063 22.1569 72.4501C22.004 72.5938 21.8832 72.7678 21.8022 72.9609C21.7211 73.1539 21.6817 73.3617 21.6864 73.5709C21.6864 74.4643 22.384 75.3094 23.0556 75.8287C23.7272 76.348 25.4889 76.7964 25.9236 76.9125C26.0988 77.235 26.2805 77.6027 26.4752 77.9995C26.7996 78.7059 27.176 79.5026 27.5199 80.3993C27.614 80.6379 27.7016 80.896 27.7924 81.1476C27.5523 80.7573 27.2117 80.2251 27.1727 80.1799C26.4622 79.2994 24.5772 78.0124 23.3735 78.4639C23.1782 78.5446 23.002 78.6652 22.8566 78.8178C22.7111 78.9705 22.5996 79.1519 22.5292 79.3502C22.4589 79.5485 22.4312 79.7593 22.4481 79.969C22.465 80.1786 22.5261 80.3823 22.6273 80.567C23.0296 81.3669 24.0516 81.7895 24.8984 81.9443C25.7452 82.0991 27.5686 81.683 27.9611 81.5862C28.1558 82.1443 28.3407 82.7216 28.4997 83.3345C28.802 84.4409 29.0029 85.5723 29.0999 86.7148C29.0999 86.7793 29.0999 86.8503 29.0999 86.9148C29.0156 86.7019 28.451 85.5633 28.4121 85.4891C27.8021 84.5215 26.0567 83.0474 24.8238 83.3667C24.6204 83.4252 24.4317 83.5256 24.27 83.6614C24.1083 83.7973 23.9772 83.9656 23.8854 84.1552C23.7935 84.3448 23.7429 84.5516 23.7369 84.762C23.7309 84.9724 23.7696 85.1817 23.8504 85.3762C24.1749 86.2148 25.1482 86.7503 25.9463 86.989C26.884 87.2696 29.0221 86.9696 29.1032 86.9599C29.1684 88.1 29.1608 89.2431 29.0805 90.3822C29.0221 91.2273 28.9312 92.0788 28.8306 92.9336C28.7138 92.6594 28.1817 91.6014 28.1493 91.5305C27.5394 90.5628 25.7939 89.0888 24.561 89.4081C24.3576 89.4665 24.1689 89.567 24.0072 89.7028C23.8455 89.8387 23.7144 90.0069 23.6226 90.1966C23.5307 90.3862 23.4801 90.593 23.4741 90.8034C23.4681 91.0138 23.5068 91.2231 23.5876 91.4176C23.9121 92.2562 24.8854 92.7884 25.6835 93.0303C26.5985 93.3013 28.6489 93.0303 28.8241 93.0013C28.7755 93.3884 28.7333 93.7787 28.6846 94.1657C28.5257 95.4333 28.3602 96.7074 28.2337 97.9654C28.1915 98.4008 28.1655 98.833 28.1363 99.2556C27.9449 98.8492 27.5848 98.1138 27.5458 98.0557C26.9359 97.088 25.1936 95.614 23.977 95.9333C23.7739 95.9922 23.5855 96.0929 23.4241 96.2288C23.2627 96.3648 23.1318 96.533 23.04 96.7225C22.9482 96.912 22.8976 97.1186 22.8913 97.3288C22.885 97.539 22.9233 97.7482 23.0037 97.9428C23.3281 98.7814 24.3014 99.3136 25.0995 99.5555C25.8977 99.7975 27.6464 99.6039 28.1331 99.5394C28.0909 100.259 28.0649 100.975 28.0747 101.678C28.0747 101.984 28.0747 102.294 28.1039 102.584L28.1623 103.458C28.2272 104.052 28.2823 104.603 28.3537 105.158C28.3894 105.436 28.4283 105.697 28.4673 105.968C28.3342 105.529 28.1169 104.832 28.0909 104.771C27.6302 103.736 26.1442 102.004 24.8659 102.133C24.6563 102.16 24.4549 102.231 24.2747 102.341C24.0945 102.451 23.9395 102.598 23.8199 102.771C23.7003 102.945 23.6187 103.141 23.5803 103.348C23.542 103.554 23.5478 103.767 23.5974 103.971C23.7791 104.849 24.6551 105.523 25.424 105.884C26.2708 106.284 28.2693 106.326 28.5159 106.329C28.61 106.994 28.7073 107.635 28.8112 108.239C29.1356 110.138 29.46 111.712 29.7261 112.809C29.9921 113.906 30.1544 114.532 30.1544 114.532C30.1942 114.637 30.2726 114.723 30.3739 114.773C30.4752 114.824 30.5918 114.834 30.7003 114.802C30.8089 114.77 30.9012 114.698 30.9588 114.602C31.0164 114.505 31.035 114.39 31.0109 114.28C31.0109 114.28 30.813 113.735 30.5372 112.651Z" fill="black"/>
<path d="M28.0551 81.3893C28.0551 81.3893 30.1672 80.6475 30.8777 79.954C31.4845 79.3605 32.0944 78.4412 31.9809 77.5542C31.961 77.3446 31.897 77.1415 31.7929 76.9581C31.6889 76.7747 31.5472 76.6151 31.377 76.4897C31.2069 76.3644 31.0121 76.2761 30.8053 76.2305C30.5986 76.1849 30.3845 76.1831 30.177 76.2253C28.9376 76.5124 28.0875 78.6347 27.9935 79.7733C27.9837 79.8669 28.0324 81.399 28.0551 81.3893Z" fill="black"/>
<path d="M29.3209 113.106C28.4935 112.357 27.3255 111.267 25.9823 109.899C25.5963 109.506 25.1907 109.083 24.7819 108.645C24.9506 108.464 26.31 107.009 26.6118 106.129C26.8843 105.329 27.0076 104.236 26.5015 103.494C26.3887 103.316 26.2395 103.164 26.0637 103.047C25.8878 102.93 25.6892 102.852 25.4807 102.816C25.2723 102.781 25.0587 102.79 24.8539 102.842C24.6491 102.894 24.4576 102.989 24.292 103.119C23.3187 103.932 23.5231 106.21 23.9513 107.255C23.9773 107.322 24.3926 108.08 24.6002 108.461C24.3504 108.196 24.1038 107.932 23.8508 107.648C23.4841 107.248 23.111 106.809 22.7444 106.39L22.1929 105.706C22.0014 105.477 21.849 105.235 21.6705 105C21.4174 104.648 21.1741 104.271 20.9308 103.894C21.3655 103.548 22.6244 102.507 23.004 101.781C23.3836 101.055 23.6853 99.9682 23.296 99.1618C23.2117 98.9688 23.0874 98.7956 22.9313 98.6536C22.7752 98.5116 22.5906 98.4038 22.3898 98.3375C22.189 98.2711 21.9763 98.2476 21.7657 98.2685C21.5551 98.2894 21.3513 98.3542 21.1676 98.4586C20.0775 99.1037 19.938 101.394 20.1943 102.494C20.1943 102.532 20.2851 102.758 20.3825 103.026C20.1554 102.652 19.9283 102.281 19.7109 101.894C19.0977 100.797 18.5072 99.665 17.9102 98.5296C17.7869 98.2941 17.6604 98.0587 17.5339 97.8232C17.9005 97.5329 19.2729 96.4169 19.6719 95.6557C20.071 94.8944 20.35 93.8429 19.9639 93.0365C19.8797 92.8435 19.7554 92.6704 19.5993 92.5283C19.4431 92.3863 19.2586 92.2786 19.0578 92.2123C18.857 92.1459 18.6443 92.1224 18.4337 92.1433C18.2231 92.1641 18.0193 92.2289 17.8356 92.3334C16.7455 92.9785 16.606 95.2686 16.8623 96.3685C16.8623 96.4104 16.9693 96.691 17.0797 96.9813C16.7552 96.3685 16.4048 95.7653 16.0512 95.1718C15.4448 94.1559 14.7717 93.1807 14.0364 92.2527C14.1694 92.1495 15.8046 90.8755 16.2458 90.0304C16.6384 89.2821 16.9272 88.2176 16.5378 87.4113C16.4539 87.218 16.3298 87.0445 16.1738 86.9021C16.0178 86.7598 15.8334 86.6517 15.6325 86.585C15.4316 86.5184 15.2189 86.4946 15.0081 86.5152C14.7974 86.5359 14.5934 86.6005 14.4095 86.7049C13.3194 87.35 13.1799 89.6433 13.4362 90.7432C13.4556 90.8206 13.8125 91.798 13.9488 92.1431L13.9261 92.1076C13.1792 91.2153 12.3552 90.3896 11.4636 89.6401C10.6802 88.9695 9.85916 88.3438 9.00429 87.7661C8.20616 87.2242 7.44048 86.7758 6.76239 86.3855C6.39253 86.1759 6.04862 85.992 5.73067 85.8243H5.75338C5.77609 85.8243 4.81899 84.6083 4.74761 84.5341C3.94624 83.731 1.92496 82.6504 0.789414 83.2246C0.60334 83.3246 0.440558 83.4625 0.311678 83.6292C0.182798 83.796 0.0907145 83.9879 0.04143 84.1924C-0.00785456 84.3969 -0.0132333 84.6094 0.0256438 84.8161C0.0645208 85.0228 0.146781 85.2191 0.267062 85.3921C0.753725 86.1469 1.81465 86.463 2.66469 86.5275C3.51473 86.592 5.23752 86.0049 5.65605 85.8566C5.98049 86.0372 6.33738 86.234 6.72022 86.463C7.38857 86.8662 8.14127 87.3306 8.92318 87.8886C9.13407 88.037 9.35144 88.2112 9.57206 88.3628C9.15678 88.1693 8.57603 87.9144 8.51763 87.8951C7.43399 87.55 5.13694 87.5145 4.39397 88.5402C4.27612 88.7148 4.19643 88.9121 4.16006 89.1192C4.12369 89.3263 4.13143 89.5388 4.1828 89.7427C4.23417 89.9467 4.32802 90.1377 4.45828 90.3034C4.58855 90.4691 4.75232 90.6057 4.93903 90.7045C5.72094 91.1464 6.80782 90.9432 7.58972 90.611C8.37163 90.2787 9.67264 88.9272 9.94842 88.6337C10.4189 88.9918 10.8925 89.3724 11.3662 89.7949C12.2311 90.5527 13.026 91.3861 13.7411 92.285C13.7833 92.3366 13.819 92.3947 13.8612 92.4495C13.6698 92.3173 12.5634 91.6754 12.492 91.6399C11.4538 91.1787 9.173 90.8916 8.32296 91.8367C8.18622 91.997 8.08493 92.1842 8.02566 92.3861C7.96639 92.5879 7.95046 92.7999 7.97891 93.0082C8.00736 93.2165 8.07956 93.4166 8.19081 93.5954C8.30206 93.7742 8.44989 93.9278 8.62469 94.0461C9.35144 94.5719 10.4578 94.488 11.2689 94.2429C12.2065 93.9623 13.8255 92.5398 13.8871 92.4882C14.5764 93.4023 15.205 94.3602 15.7689 95.3557C16.1907 96.0911 16.5865 96.8523 16.9758 97.6135C16.726 97.449 15.7073 96.8523 15.6294 96.8168C14.5912 96.3556 12.3104 96.0718 11.4571 97.0136C11.32 97.174 11.2185 97.3613 11.1592 97.5633C11.0999 97.7654 11.0841 97.9776 11.1129 98.1861C11.1417 98.3946 11.2144 98.5947 11.3262 98.7734C11.4381 98.9521 11.5866 99.1053 11.762 99.2231C12.4888 99.7521 13.5919 99.665 14.4063 99.4231C15.3212 99.1457 16.8785 97.7909 17.0018 97.6781C17.1802 98.0264 17.3587 98.3748 17.5339 98.7231C18.1049 99.8714 18.6694 101.02 19.2664 102.139C19.4708 102.526 19.6882 102.903 19.9153 103.278C19.5292 103.042 18.8219 102.632 18.757 102.6C17.7188 102.139 15.438 101.855 14.5879 102.797C14.4512 102.957 14.3499 103.145 14.2906 103.346C14.2314 103.548 14.2154 103.76 14.2439 103.968C14.2723 104.177 14.3445 104.377 14.4558 104.556C14.567 104.735 14.7149 104.888 14.8897 105.006C15.6164 105.535 16.7195 105.448 17.5339 105.206C18.3482 104.964 19.6849 103.848 20.058 103.529C20.4214 104.152 20.7945 104.764 21.1936 105.345C21.372 105.593 21.5375 105.858 21.7192 106.087L22.2545 106.78C22.6374 107.242 22.991 107.674 23.3576 108.093L23.8994 108.709C23.5458 108.413 22.978 107.955 22.9261 107.919C21.9528 107.306 19.7595 106.68 18.7732 107.484C18.6132 107.622 18.4841 107.791 18.3945 107.982C18.3048 108.173 18.2566 108.38 18.2529 108.591C18.2492 108.802 18.2902 109.011 18.3732 109.204C18.4561 109.398 18.5791 109.572 18.7343 109.716C19.3832 110.345 20.4798 110.428 21.3298 110.309C22.2578 110.177 23.9481 109.116 24.1557 108.983C24.6002 109.483 25.0415 109.951 25.4535 110.412C26.7772 111.822 27.9355 112.948 28.7563 113.722C29.5772 114.496 30.0541 114.928 30.0541 114.928C30.1458 114.995 30.2596 115.025 30.3724 115.011C30.4853 114.997 30.5888 114.942 30.6618 114.855C30.7349 114.769 30.7721 114.658 30.7659 114.545C30.7596 114.432 30.7105 114.326 30.6284 114.247C30.6284 114.247 30.1514 113.857 29.3209 113.106Z" fill="black"/>
<path d="M9.90616 88.3953C9.90616 88.3953 11.2526 86.6181 11.4635 85.6472C11.6419 84.8215 11.6387 83.7119 11.0514 83.041C10.9183 82.8774 10.7521 82.7435 10.5636 82.6479C10.3751 82.5523 10.1685 82.497 9.95718 82.4858C9.74586 82.4745 9.53452 82.5075 9.33683 82.5826C9.13914 82.6577 8.95951 82.7732 8.80955 82.9216C7.93355 83.8409 8.40399 86.0794 8.94906 87.0696C9.00421 87.1567 9.88994 88.4114 9.90616 88.3953Z" fill="black"/>
</g>
<g opacity="0.1">
<path d="M38.8142 89.121C38.5871 88.0308 38.2854 86.4664 38.0096 84.5763C37.9285 84.0312 37.8506 83.4538 37.7793 82.8571C38.0258 82.8119 39.9855 82.4313 40.7479 81.8894C41.4422 81.4024 42.1884 80.5992 42.2176 79.6961C42.2344 79.4848 42.2058 79.2723 42.1337 79.0727C42.0616 78.8732 41.9478 78.6912 41.7996 78.5387C41.6515 78.3862 41.4724 78.2668 41.2743 78.1883C41.0762 78.1098 40.8636 78.074 40.6506 78.0833C39.3788 78.1704 38.2043 80.1315 37.9285 81.2314C37.9123 81.3024 37.7987 82.1539 37.7501 82.5926C37.7079 82.2314 37.6657 81.8733 37.6268 81.4992C37.5684 80.9573 37.523 80.3864 37.4775 79.8316C37.4775 79.5413 37.4483 79.251 37.4354 78.9575C37.4224 78.6639 37.4354 78.3769 37.4354 78.0801C37.4354 77.6479 37.4678 77.1996 37.4905 76.7544C38.0486 76.7286 39.6805 76.6222 40.4105 76.2545C41.1405 75.8868 42.0327 75.1868 42.1982 74.3192C42.2436 74.1143 42.2453 73.9022 42.2033 73.6965C42.1613 73.4909 42.0764 73.2963 41.9542 73.1252C41.8319 72.9541 41.675 72.8104 41.4935 72.7033C41.312 72.5962 41.11 72.528 40.9004 72.5032C39.6318 72.4 38.1686 74.1611 37.7338 75.2062C37.7176 75.2384 37.6495 75.4707 37.5684 75.7449C37.6073 75.3094 37.643 74.874 37.6982 74.4353C37.8474 73.1935 38.0421 71.9291 38.2302 70.6614C38.2692 70.397 38.3049 70.1357 38.3438 69.8712C38.811 69.8486 40.5824 69.7519 41.3514 69.368C42.1203 68.9842 42.9736 68.2972 43.1391 67.4327C43.185 67.2278 43.1871 67.0155 43.1453 66.8097C43.1035 66.6038 43.0187 66.409 42.8964 66.2378C42.774 66.0666 42.6169 65.9229 42.4351 65.8159C42.2534 65.7089 42.0511 65.6411 41.8413 65.6168C40.5695 65.5135 39.1095 67.2747 38.6715 68.3197C38.6715 68.3552 38.5741 68.6423 38.4833 68.939C38.5774 68.252 38.6585 67.5617 38.7201 66.8779C38.8343 65.6989 38.8679 64.5135 38.8207 63.3299C38.9862 63.3299 41.0626 63.2492 41.9191 62.8235C42.6816 62.4461 43.5414 61.7558 43.7068 60.8882C43.7528 60.6834 43.7549 60.4713 43.7131 60.2657C43.6712 60.06 43.5864 59.8654 43.464 59.6945C43.3416 59.5235 43.1845 59.3801 43.0027 59.2734C42.821 59.1668 42.6187 59.0993 42.4091 59.0754C41.1372 58.969 39.6773 60.7333 39.2393 61.7752C39.2068 61.8494 38.9148 62.8493 38.8272 63.2073C38.8256 63.1934 38.8256 63.1793 38.8272 63.1654C38.7521 62.007 38.5741 60.8574 38.2951 59.7302C38.0502 58.7223 37.7469 57.7294 37.3867 56.7563C37.0622 55.8532 36.7086 55.0435 36.3907 54.3307C36.2155 53.9436 36.0467 53.5953 35.8878 53.2727H35.9137C35.9364 53.2727 35.8748 51.7406 35.8618 51.66C35.6866 50.544 34.6906 48.4861 33.4317 48.2861C33.2219 48.2584 33.0085 48.275 32.8055 48.3348C32.6025 48.3947 32.4145 48.4964 32.2538 48.6334C32.093 48.7704 31.9632 48.9395 31.8726 49.1298C31.7821 49.32 31.733 49.5272 31.7284 49.7376C31.6765 50.6311 32.3481 51.5052 32.9937 52.0535C33.6394 52.6018 35.3849 53.1373 35.8131 53.2598C35.9721 53.6017 36.1376 53.9662 36.316 54.3726C36.6178 55.0919 36.9649 55.9048 37.2537 56.8143C37.3348 57.0563 37.4126 57.3208 37.4938 57.5723C37.2699 57.1724 36.9552 56.6273 36.9162 56.5789C36.2447 55.6661 34.4051 54.2952 33.1981 54.6952C32.999 54.7666 32.8173 54.879 32.6649 55.0249C32.5124 55.1709 32.3926 55.3472 32.3133 55.5423C32.234 55.7374 32.197 55.9469 32.2047 56.1572C32.2123 56.3675 32.2645 56.5739 32.3578 56.7627C32.7245 57.5788 33.727 58.0529 34.5576 58.2368C35.3881 58.4207 37.2374 58.0949 37.6333 58.0175C37.802 58.5819 37.9577 59.1657 38.094 59.785C38.3393 60.8979 38.4848 62.0302 38.5287 63.1686C38.5287 63.2363 38.5287 63.3041 38.5287 63.3718C38.4509 63.1525 37.9447 61.9945 37.9026 61.9171C37.3348 60.9495 35.6574 59.3722 34.4116 59.6367C34.2055 59.6862 34.0122 59.7784 33.8444 59.9072C33.6765 60.036 33.5379 60.1985 33.4375 60.3842C33.3371 60.5698 33.2772 60.7744 33.2616 60.9847C33.2461 61.1949 33.2753 61.406 33.3474 61.6042C33.6232 62.4525 34.5705 63.0299 35.3719 63.3073C36.2966 63.6298 38.4476 63.4234 38.5255 63.417C38.5432 64.5592 38.4857 65.7013 38.3535 66.836C38.2594 67.6779 38.1297 68.5262 37.9902 69.3745C37.8831 69.0939 37.4159 68.0165 37.3705 67.9424C36.8059 66.9747 35.1286 65.4007 33.8827 65.6651C33.677 65.7148 33.4841 65.8069 33.3166 65.9354C33.149 66.064 33.0106 66.2262 32.9102 66.4115C32.8098 66.5968 32.7498 66.8009 32.734 67.0108C32.7182 67.2206 32.747 67.4314 32.8185 67.6295C33.0943 68.481 34.0384 69.0552 34.8431 69.3358C35.745 69.6583 37.8052 69.4616 37.9804 69.4454C37.9155 69.8293 37.8539 70.2163 37.789 70.6034C37.5716 71.8613 37.351 73.1257 37.1726 74.3772C37.1077 74.8127 37.0622 75.2417 37.0168 75.6674C36.8449 75.2514 36.5172 74.503 36.4815 74.4417C35.9137 73.4741 34.2364 71.8968 32.9905 72.1645C32.7848 72.2142 32.5919 72.3063 32.4244 72.4348C32.2568 72.5634 32.1184 72.7256 32.018 72.9109C31.9176 73.0962 31.8576 73.3003 31.8418 73.5102C31.826 73.72 31.8548 73.9308 31.9263 74.1289C32.2021 74.9804 33.1462 75.5545 33.9508 75.8352C34.7555 76.1158 36.4912 75.9932 36.9811 75.9545C36.9065 76.6706 36.8514 77.3834 36.8286 78.0866C36.8286 78.3898 36.7994 78.7026 36.8286 78.9929C36.8578 79.2832 36.8287 79.58 36.8481 79.8671C36.8871 80.4638 36.9162 81.0186 36.9649 81.5733C36.9876 81.854 37.0136 82.1185 37.0395 82.3894C36.9292 81.9443 36.741 81.2379 36.7151 81.1766C36.3031 80.1219 34.8852 78.3253 33.6102 78.3994C33.3994 78.4182 33.1949 78.4807 33.0099 78.5829C32.825 78.6851 32.6637 78.8248 32.5365 78.993C32.4092 79.1611 32.3189 79.3539 32.2714 79.5589C32.2239 79.764 32.2202 79.9766 32.2605 80.1832C32.4033 81.0637 33.2338 81.7766 33.9995 82.1733C34.8301 82.6087 36.8254 82.7378 37.0687 82.7539C37.1336 83.4183 37.205 84.0667 37.2796 84.6698C37.5197 86.5858 37.789 88.1695 37.9934 89.2791C38.1978 90.3887 38.3438 91.0176 38.3438 91.0176C38.3536 91.0784 38.376 91.1366 38.4095 91.1884C38.4431 91.2401 38.4871 91.2844 38.5387 91.3184C38.5904 91.3524 38.6485 91.3754 38.7096 91.3859C38.7706 91.3964 38.8332 91.3942 38.8933 91.3794C38.9535 91.3646 39.0099 91.3376 39.059 91.3C39.1081 91.2625 39.1488 91.2152 39.1785 91.1612C39.2083 91.1072 39.2265 91.0476 39.2319 90.9862C39.2373 90.9249 39.2299 90.8631 39.2101 90.8047C39.2101 90.8047 39.0413 90.2145 38.8142 89.121Z" fill="black"/>
<path d="M37.7243 57.7818C37.7243 57.7818 39.8656 57.1367 40.6086 56.4691C41.2575 55.9078 41.9064 55.0144 41.8123 54.1209C41.8021 53.9109 41.7476 53.7053 41.6522 53.5177C41.5568 53.33 41.4226 53.1645 41.2586 53.0318C41.0945 52.8991 40.9042 52.8023 40.6999 52.7476C40.4957 52.693 40.2822 52.6817 40.0733 52.7146C38.8209 52.9468 37.8768 55.0305 37.7341 56.153C37.7211 56.2497 37.7016 57.7883 37.7243 57.7818Z" fill="black"/>
</g>
<path d="M107.43 97.1688C107.472 107.274 115.56 115.435 115.56 115.435C115.56 115.435 123.581 107.207 123.535 97.101C123.49 86.9955 115.421 78.835 115.421 78.835C115.421 78.835 107.384 87.0632 107.43 97.1688Z" fill="#407BFF"/>
<path d="M115.56 115.435L115.405 78.835" stroke="white" stroke-width="0.910297" stroke-miterlimit="10"/>
<path d="M115.46 91.8434L110.934 87.9502" stroke="white" stroke-width="0.910297" stroke-miterlimit="10"/>
<path d="M115.557 97.891L121.105 89.8273" stroke="white" stroke-width="0.910297" stroke-miterlimit="10"/>
<path d="M115.502 101.378L108.819 95.501" stroke="white" stroke-width="0.910297" stroke-miterlimit="10"/>
<path d="M115.593 106.074L122.153 100.21" stroke="white" stroke-width="0.910297" stroke-miterlimit="10"/>
<path d="M115.61 110.129L110.441 106.097" stroke="white" stroke-width="0.910297" stroke-miterlimit="10"/>
<path d="M101.918 112.767C105.847 117.147 112.501 117.605 112.501 117.605C112.501 117.605 112.796 110.97 108.867 106.603C104.938 102.236 98.2711 101.791 98.2711 101.791C98.2711 101.791 97.9888 108.413 101.918 112.767Z" fill="#407BFF"/>
<path d="M112.514 117.592L98.2842 101.778" stroke="white" stroke-width="0.910297" stroke-miterlimit="10"/>
<path d="M103.342 107.397L99.8701 107.439" stroke="white" stroke-width="0.910297" stroke-miterlimit="10"/>
<path d="M105.724 109.983L105.01 104.365" stroke="white" stroke-width="0.910297" stroke-miterlimit="10"/>
<path d="M107.048 111.519L101.876 111.525" stroke="white" stroke-width="0.910297" stroke-miterlimit="10"/>
<path d="M108.906 113.519L109.484 108.468" stroke="white" stroke-width="0.910297" stroke-miterlimit="10"/>
<path d="M110.483 115.273L106.681 115.499" stroke="white" stroke-width="0.910297" stroke-miterlimit="10"/>
<path d="M122.41 106.377C118.322 110.6 118.374 117.241 118.374 117.241C118.374 117.241 125.051 117.038 129.139 112.816C133.227 108.593 133.175 101.952 133.175 101.952C133.175 101.952 126.498 102.155 122.41 106.377Z" fill="#407BFF"/>
<path d="M118.374 117.241L133.175 101.952" stroke="white" stroke-width="0.910297" stroke-miterlimit="10"/>
<path d="M127.916 107.387L127.614 103.949" stroke="white" stroke-width="0.910297" stroke-miterlimit="10"/>
<path d="M125.498 109.942L131.082 108.816" stroke="white" stroke-width="0.910297" stroke-miterlimit="10"/>
<path d="M124.058 111.37L123.666 106.242" stroke="white" stroke-width="0.910297" stroke-miterlimit="10"/>
<path d="M122.189 113.361L127.299 113.554" stroke="white" stroke-width="0.910297" stroke-miterlimit="10"/>
<path d="M120.548 115.054L120.035 111.3" stroke="white" stroke-width="0.910297" stroke-miterlimit="10"/>
<g opacity="0.1">
<path d="M107.43 97.1688C107.472 107.274 115.56 115.435 115.56 115.435C115.56 115.435 123.581 107.207 123.535 97.101C123.49 86.9955 115.421 78.835 115.421 78.835C115.421 78.835 107.384 87.0632 107.43 97.1688Z" fill="black"/>
<path d="M101.918 112.767C105.847 117.148 112.501 117.606 112.501 117.606C112.501 117.606 112.796 110.971 108.867 106.603C104.938 102.236 98.2711 101.791 98.2711 101.791C98.2711 101.791 97.9888 108.413 101.918 112.767Z" fill="black"/>
<path d="M122.41 106.377C118.322 110.6 118.374 117.241 118.374 117.241C118.374 117.241 125.051 117.038 129.139 112.816C133.227 108.593 133.175 101.952 133.175 101.952C133.175 101.952 126.498 102.155 122.41 106.377Z" fill="black"/>
</g>
<path d="M109.734 14.6409H29.7007V117.054H109.734V14.6409Z" fill="white" stroke="#263238" stroke-width="0.987488" stroke-linecap="round" stroke-linejoin="round"/>
<g style="mix-blend-mode:multiply">
<path d="M42.4675 14.6409H29.7007V117.054H42.4675V14.6409Z" fill="#407BFF"/>
</g>
<path d="M91.9513 29.7715H67.4072V32.6422H91.9513V29.7715Z" fill="#407BFF" stroke="#263238" stroke-width="0.987488" stroke-linecap="round" stroke-linejoin="round"/>
<path d="M107.051 54.2306H39.7715V57.1013H107.051V54.2306Z" fill="#407BFF"/>
<path d="M107.051 93.6849H39.7715V96.5556H107.051V93.6849Z" fill="#407BFF"/>
<path d="M82.8766 34.7164H67.4072V37.5871H82.8766V34.7164Z" fill="#407BFF" stroke="#263238" stroke-width="0.987488" stroke-linecap="round" stroke-linejoin="round"/>
<path d="M82.8766 39.5579H67.4072V42.4286H82.8766V39.5579Z" fill="#407BFF" stroke="#263238" stroke-width="0.987488" stroke-linecap="round" stroke-linejoin="round"/>
<path d="M65.279 60.2622H63.686V61.8459H65.279V60.2622Z" fill="#407BFF" stroke="#263238" stroke-width="0.987488" stroke-linecap="round" stroke-linejoin="round"/>
<path d="M65.279 80.6313H63.686V82.2151H65.279V80.6313Z" fill="#407BFF" stroke="#263238" stroke-width="0.987488" stroke-linecap="round" stroke-linejoin="round"/>
<path d="M87.759 60.2622H86.166V61.8459H87.759V60.2622Z" fill="#407BFF" stroke="#263238" stroke-width="0.987488" stroke-linecap="round" stroke-linejoin="round"/>
<path d="M87.759 80.6313H86.166V82.2151H87.759V80.6313Z" fill="#407BFF" stroke="#263238" stroke-width="0.987488" stroke-linecap="round" stroke-linejoin="round"/>
<path d="M109.734 14.6409H29.7007V19.8501H109.734V14.6409Z" fill="#263238" stroke="#263238" stroke-width="0.987488" stroke-linecap="round" stroke-linejoin="round"/>
<path d="M81.9487 61.3621H67.8614C67.741 61.3621 67.6254 61.3146 67.5403 61.2299C67.4551 61.1452 67.4072 61.0303 67.4072 60.9106C67.4072 60.7908 67.4551 60.6759 67.5403 60.5912C67.6254 60.5066 67.741 60.459 67.8614 60.459H81.9487C82.0692 60.459 82.1847 60.5066 82.2699 60.5912C82.3551 60.6759 82.4029 60.7908 82.4029 60.9106C82.4029 61.0303 82.3551 61.1452 82.2699 61.2299C82.1847 61.3146 82.0692 61.3621 81.9487 61.3621Z" fill="#263238"/>
<path d="M81.9487 63.6233H67.8614C67.7407 63.6224 67.6252 63.5741 67.5401 63.4889C67.455 63.4037 67.4072 63.2886 67.4072 63.1685C67.4072 63.0487 67.4551 62.9339 67.5403 62.8492C67.6254 62.7645 67.741 62.7169 67.8614 62.7169H81.9487C82.0692 62.7169 82.1847 62.7645 82.2699 62.8492C82.3551 62.9339 82.4029 63.0487 82.4029 63.1685C82.4029 63.2886 82.3552 63.4037 82.2701 63.4889C82.185 63.5741 82.0695 63.6224 81.9487 63.6233Z" fill="#263238"/>
<path d="M81.9487 65.8811H67.8614C67.741 65.8811 67.6254 65.8335 67.5403 65.7488C67.4551 65.6641 67.4072 65.5492 67.4072 65.4295C67.4072 65.3097 67.4551 65.1949 67.5403 65.1102C67.6254 65.0255 67.741 64.9779 67.8614 64.9779H81.9487C82.0692 64.9779 82.1847 65.0255 82.2699 65.1102C82.3551 65.1949 82.4029 65.3097 82.4029 65.4295C82.4029 65.5492 82.3551 65.6641 82.2699 65.7488C82.1847 65.8335 82.0692 65.8811 81.9487 65.8811Z" fill="#263238"/>
<path d="M81.9487 68.139H67.8614C67.741 68.139 67.6254 68.0914 67.5403 68.0067C67.4551 67.922 67.4072 67.8072 67.4072 67.6874C67.4072 67.5676 67.4551 67.4528 67.5403 67.3681C67.6254 67.2834 67.741 67.2358 67.8614 67.2358H81.9487C82.0692 67.2358 82.1847 67.2834 82.2699 67.3681C82.3551 67.4528 82.4029 67.5676 82.4029 67.6874C82.4029 67.8072 82.3551 67.922 82.2699 68.0067C82.1847 68.0914 82.0692 68.139 81.9487 68.139Z" fill="#263238"/>
<path d="M81.9487 70.3969H67.8614C67.741 70.3969 67.6254 70.3493 67.5403 70.2647C67.4551 70.18 67.4072 70.0651 67.4072 69.9453C67.4072 69.8256 67.4551 69.7107 67.5403 69.626C67.6254 69.5414 67.741 69.4938 67.8614 69.4938H81.9487C82.0692 69.4938 82.1847 69.5414 82.2699 69.626C82.3551 69.7107 82.4029 69.8256 82.4029 69.9453C82.4029 70.0651 82.3551 70.18 82.2699 70.2647C82.1847 70.3493 82.0692 70.3969 81.9487 70.3969Z" fill="#263238"/>
<path d="M103.258 61.3621H89.171C89.0505 61.3621 88.935 61.3146 88.8498 61.2299C88.7646 61.1452 88.7168 61.0303 88.7168 60.9106C88.7168 60.7908 88.7646 60.6759 88.8498 60.5912C88.935 60.5066 89.0505 60.459 89.171 60.459H103.258C103.379 60.459 103.494 60.5066 103.579 60.5912C103.665 60.6759 103.713 60.7908 103.713 60.9106C103.713 61.0303 103.665 61.1452 103.579 61.2299C103.494 61.3146 103.379 61.3621 103.258 61.3621Z" fill="#263238"/>
<path d="M103.258 63.6233H89.171C89.0503 63.6224 88.9347 63.5741 88.8496 63.4889C88.7645 63.4037 88.7168 63.2886 88.7168 63.1685C88.7168 63.0487 88.7646 62.9339 88.8498 62.8492C88.935 62.7645 89.0505 62.7169 89.171 62.7169H103.258C103.379 62.7169 103.494 62.7645 103.579 62.8492C103.665 62.9339 103.713 63.0487 103.713 63.1685C103.713 63.2886 103.665 63.4037 103.58 63.4889C103.495 63.5741 103.379 63.6224 103.258 63.6233Z" fill="#263238"/>
<path d="M103.258 65.8811H89.171C89.0505 65.8811 88.935 65.8335 88.8498 65.7488C88.7646 65.6641 88.7168 65.5492 88.7168 65.4295C88.7168 65.3097 88.7646 65.1949 88.8498 65.1102C88.935 65.0255 89.0505 64.9779 89.171 64.9779H103.258C103.379 64.9779 103.494 65.0255 103.579 65.1102C103.665 65.1949 103.713 65.3097 103.713 65.4295C103.713 65.5492 103.665 65.6641 103.579 65.7488C103.494 65.8335 103.379 65.8811 103.258 65.8811Z" fill="#263238"/>
<path d="M103.258 68.139H89.171C89.0505 68.139 88.935 68.0914 88.8498 68.0067C88.7646 67.922 88.7168 67.8072 88.7168 67.6874C88.7168 67.5676 88.7646 67.4528 88.8498 67.3681C88.935 67.2834 89.0505 67.2358 89.171 67.2358H103.258C103.379 67.2358 103.494 67.2834 103.579 67.3681C103.665 67.4528 103.713 67.5676 103.713 67.6874C103.713 67.8072 103.665 67.922 103.579 68.0067C103.494 68.0914 103.379 68.139 103.258 68.139Z" fill="#263238"/>
<path d="M103.258 70.3969H89.171C89.0505 70.3969 88.935 70.3493 88.8498 70.2647C88.7646 70.18 88.7168 70.0651 88.7168 69.9453C88.7168 69.8256 88.7646 69.7107 88.8498 69.626C88.935 69.5414 89.0505 69.4938 89.171 69.4938H103.258C103.379 69.4938 103.494 69.5414 103.579 69.626C103.665 69.7107 103.713 69.8256 103.713 69.9453C103.713 70.0651 103.665 70.18 103.579 70.2647C103.494 70.3493 103.379 70.3969 103.258 70.3969Z" fill="#263238"/>
<path d="M81.9487 81.3927H67.8614C67.7407 81.3918 67.6252 81.3436 67.5401 81.2584C67.455 81.1732 67.4072 81.058 67.4072 80.9379C67.4072 80.8181 67.4551 80.7033 67.5403 80.6186C67.6254 80.5339 67.741 80.4863 67.8614 80.4863H81.9487C82.0692 80.4863 82.1847 80.5339 82.2699 80.6186C82.3551 80.7033 82.4029 80.8181 82.4029 80.9379C82.4029 81.058 82.3552 81.1732 82.2701 81.2584C82.185 81.3436 82.0695 81.3918 81.9487 81.3927Z" fill="#263238"/>
<path d="M81.9487 83.6505H67.8614C67.741 83.6505 67.6254 83.6029 67.5403 83.5182C67.4551 83.4335 67.4072 83.3186 67.4072 83.1989C67.4072 83.0791 67.4551 82.9643 67.5403 82.8796C67.6254 82.7949 67.741 82.7473 67.8614 82.7473H81.9487C82.0692 82.7473 82.1847 82.7949 82.2699 82.8796C82.3551 82.9643 82.4029 83.0791 82.4029 83.1989C82.4029 83.3186 82.3551 83.4335 82.2699 83.5182C82.1847 83.6029 82.0692 83.6505 81.9487 83.6505Z" fill="#263238"/>
<path d="M81.9487 85.9083H67.8614C67.741 85.9083 67.6254 85.8607 67.5403 85.776C67.4551 85.6913 67.4072 85.5765 67.4072 85.4567C67.4072 85.3369 67.4551 85.2221 67.5403 85.1374C67.6254 85.0527 67.741 85.0051 67.8614 85.0051H81.9487C82.0692 85.0051 82.1847 85.0527 82.2699 85.1374C82.3551 85.2221 82.4029 85.3369 82.4029 85.4567C82.4029 85.5765 82.3551 85.6913 82.2699 85.776C82.1847 85.8607 82.0692 85.9083 81.9487 85.9083Z" fill="#263238"/>
<path d="M81.9487 88.1663H67.8614C67.741 88.1663 67.6254 88.1188 67.5403 88.0341C67.4551 87.9494 67.4072 87.8345 67.4072 87.7148C67.4072 87.595 67.4551 87.4801 67.5403 87.3955C67.6254 87.3108 67.741 87.2632 67.8614 87.2632H81.9487C82.0692 87.2632 82.1847 87.3108 82.2699 87.3955C82.3551 87.4801 82.4029 87.595 82.4029 87.7148C82.4029 87.8345 82.3551 87.9494 82.2699 88.0341C82.1847 88.1188 82.0692 88.1663 81.9487 88.1663Z" fill="#263238"/>
<path d="M81.9487 90.4271H67.8614C67.741 90.4271 67.6254 90.3795 67.5403 90.2948C67.4551 90.2101 67.4072 90.0953 67.4072 89.9755C67.4072 89.8557 67.4551 89.7409 67.5403 89.6562C67.6254 89.5715 67.741 89.5239 67.8614 89.5239H81.9487C82.0692 89.5239 82.1847 89.5715 82.2699 89.6562C82.3551 89.7409 82.4029 89.8557 82.4029 89.9755C82.4029 90.0953 82.3551 90.2101 82.2699 90.2948C82.1847 90.3795 82.0692 90.4271 81.9487 90.4271Z" fill="#263238"/>
<path d="M103.258 81.3927H89.171C89.0503 81.3918 88.9347 81.3436 88.8496 81.2584C88.7645 81.1732 88.7168 81.058 88.7168 80.9379C88.7168 80.8181 88.7646 80.7033 88.8498 80.6186C88.935 80.5339 89.0505 80.4863 89.171 80.4863H103.258C103.379 80.4863 103.494 80.5339 103.579 80.6186C103.665 80.7033 103.713 80.8181 103.713 80.9379C103.713 81.058 103.665 81.1732 103.58 81.2584C103.495 81.3436 103.379 81.3918 103.258 81.3927Z" fill="#263238"/>
<path d="M103.258 83.6505H89.171C89.0505 83.6505 88.935 83.6029 88.8498 83.5182C88.7646 83.4335 88.7168 83.3186 88.7168 83.1989C88.7168 83.0791 88.7646 82.9643 88.8498 82.8796C88.935 82.7949 89.0505 82.7473 89.171 82.7473H103.258C103.379 82.7473 103.494 82.7949 103.579 82.8796C103.665 82.9643 103.713 83.0791 103.713 83.1989C103.713 83.3186 103.665 83.4335 103.579 83.5182C103.494 83.6029 103.379 83.6505 103.258 83.6505Z" fill="#263238"/>
<path d="M103.258 85.9083H89.171C89.0505 85.9083 88.935 85.8607 88.8498 85.776C88.7646 85.6913 88.7168 85.5765 88.7168 85.4567C88.7168 85.3369 88.7646 85.2221 88.8498 85.1374C88.935 85.0527 89.0505 85.0051 89.171 85.0051H103.258C103.379 85.0051 103.494 85.0527 103.579 85.1374C103.665 85.2221 103.713 85.3369 103.713 85.4567C103.713 85.5765 103.665 85.6913 103.579 85.776C103.494 85.8607 103.379 85.9083 103.258 85.9083Z" fill="#263238"/>
<path d="M103.258 88.1663H89.171C89.0505 88.1663 88.935 88.1188 88.8498 88.0341C88.7646 87.9494 88.7168 87.8345 88.7168 87.7148C88.7168 87.595 88.7646 87.4801 88.8498 87.3955C88.935 87.3108 89.0505 87.2632 89.171 87.2632H103.258C103.379 87.2632 103.494 87.3108 103.579 87.3955C103.665 87.4801 103.713 87.595 103.713 87.7148C103.713 87.8345 103.665 87.9494 103.579 88.0341C103.494 88.1188 103.379 88.1663 103.258 88.1663Z" fill="#263238"/>
<path d="M103.258 90.4271H89.171C89.0505 90.4271 88.935 90.3795 88.8498 90.2948C88.7646 90.2101 88.7168 90.0953 88.7168 89.9755C88.7168 89.8557 88.7646 89.7409 88.8498 89.6562C88.935 89.5715 89.0505 89.5239 89.171 89.5239H103.258C103.379 89.5239 103.494 89.5715 103.579 89.6562C103.665 89.7409 103.713 89.8557 103.713 89.9755C103.713 90.0953 103.665 90.2101 103.579 90.2948C103.494 90.3795 103.379 90.4271 103.258 90.4271Z" fill="#263238"/>
<path d="M103.258 100.736H89.171C89.0505 100.736 88.935 100.689 88.8498 100.604C88.7646 100.519 88.7168 100.404 88.7168 100.285C88.7168 100.165 88.7646 100.05 88.8498 99.9653C88.935 99.8806 89.0505 99.833 89.171 99.833H103.258C103.379 99.833 103.494 99.8806 103.579 99.9653C103.665 100.05 103.713 100.165 103.713 100.285C103.713 100.404 103.665 100.519 103.579 100.604C103.494 100.689 103.379 100.736 103.258 100.736Z" fill="#263238"/>
<path d="M103.258 102.994H89.171C89.0505 102.994 88.935 102.946 88.8498 102.862C88.7646 102.777 88.7168 102.662 88.7168 102.542C88.7168 102.423 88.7646 102.308 88.8498 102.223C88.935 102.138 89.0505 102.091 89.171 102.091H103.258C103.379 102.091 103.494 102.138 103.579 102.223C103.665 102.308 103.713 102.423 103.713 102.542C103.713 102.662 103.665 102.777 103.579 102.862C103.494 102.946 103.379 102.994 103.258 102.994Z" fill="#263238"/>
<path d="M103.258 105.255H89.171C89.0505 105.255 88.935 105.207 88.8498 105.123C88.7646 105.038 88.7168 104.923 88.7168 104.803C88.7168 104.683 88.7646 104.569 88.8498 104.484C88.935 104.399 89.0505 104.352 89.171 104.352H103.258C103.379 104.352 103.494 104.399 103.579 104.484C103.665 104.569 103.713 104.683 103.713 104.803C103.713 104.923 103.665 105.038 103.579 105.123C103.494 105.207 103.379 105.255 103.258 105.255Z" fill="#263238"/>
<path d="M103.258 106.61H89.171C88.9202 106.61 88.7168 106.812 88.7168 107.061C88.7168 107.311 88.9202 107.513 89.171 107.513H103.258C103.509 107.513 103.713 107.311 103.713 107.061C103.713 106.812 103.509 106.61 103.258 106.61Z" fill="#263238"/>
<path d="M103.258 109.771H89.171C89.0505 109.771 88.935 109.723 88.8498 109.638C88.7646 109.554 88.7168 109.439 88.7168 109.319C88.7168 109.199 88.7646 109.084 88.8498 109C88.935 108.915 89.0505 108.868 89.171 108.868H103.258C103.379 108.868 103.494 108.915 103.579 109C103.665 109.084 103.713 109.199 103.713 109.319C103.713 109.439 103.665 109.554 103.579 109.638C103.494 109.723 103.379 109.771 103.258 109.771Z" fill="#263238"/>
<path d="M101.895 74.4641C101.466 74.4643 101.05 74.6157 100.723 74.8914C100.395 75.1671 100.176 75.5494 100.104 75.9704H97.9306C97.8511 75.5578 97.6295 75.1857 97.3038 74.918C96.9781 74.6504 96.5687 74.504 96.1462 74.504C95.7236 74.504 95.3143 74.6504 94.9886 74.918C94.6629 75.1857 94.4413 75.5578 94.3618 75.9704H92.188C92.1085 75.5578 91.8868 75.1857 91.5611 74.918C91.2355 74.6504 90.8261 74.504 90.4036 74.504C89.981 74.504 89.5717 74.6504 89.246 74.918C88.9203 75.1857 88.6986 75.5578 88.6191 75.9704H86.4162C86.3403 75.5549 86.12 75.1791 85.7939 74.9085C85.4678 74.6378 85.0565 74.4896 84.6317 74.4896C84.207 74.4896 83.7956 74.6378 83.4695 74.9085C83.1434 75.1791 82.9232 75.5549 82.8473 75.9704H80.6703C80.5944 75.5549 80.3742 75.1791 80.0481 74.9085C79.722 74.6378 79.3107 74.4896 78.8859 74.4896C78.4611 74.4896 78.0498 74.6378 77.7237 74.9085C77.3976 75.1791 77.1774 75.5549 77.1014 75.9704H74.9244C74.8485 75.5549 74.6283 75.1791 74.3022 74.9085C73.9761 74.6378 73.5648 74.4896 73.14 74.4896C72.7152 74.4896 72.3039 74.6378 71.9778 74.9085C71.6517 75.1791 71.4315 75.5549 71.3556 75.9704H69.1786C69.1025 75.5239 68.8605 75.1221 68.5006 74.8446C68.1406 74.5671 67.6889 74.4341 67.235 74.4721C66.7811 74.51 66.358 74.7161 66.0497 75.0494C65.7414 75.3828 65.5703 75.8192 65.5703 76.272C65.5703 76.7249 65.7414 77.1612 66.0497 77.4946C66.358 77.8279 66.7811 78.034 67.235 78.0719C67.6889 78.1099 68.1406 77.9769 68.5006 77.6994C68.8605 77.4219 69.1025 77.0201 69.1786 76.5736H71.3556C71.4315 76.9891 71.6517 77.3649 71.9778 77.6356C72.3039 77.9062 72.7152 78.0544 73.14 78.0544C73.5648 78.0544 73.9761 77.9062 74.3022 77.6356C74.6283 77.3649 74.8485 76.9891 74.9244 76.5736H77.1014C77.1774 76.9891 77.3976 77.3649 77.7237 77.6356C78.0498 77.9062 78.4611 78.0544 78.8859 78.0544C79.3107 78.0544 79.722 77.9062 80.0481 77.6356C80.3742 77.3649 80.5944 76.9891 80.6703 76.5736H82.8473C82.9232 76.9891 83.1434 77.3649 83.4695 77.6356C83.7956 77.9062 84.207 78.0544 84.6317 78.0544C85.0565 78.0544 85.4678 77.9062 85.7939 77.6356C86.12 77.3649 86.3403 76.9891 86.4162 76.5736H88.5932C88.6727 76.9862 88.8943 77.3583 89.22 77.626C89.5457 77.8936 89.9551 78.04 90.3776 78.04C90.8002 78.04 91.2095 77.8936 91.5352 77.626C91.8609 77.3583 92.0825 76.9862 92.162 76.5736H94.3358C94.4153 76.9862 94.637 77.3583 94.9627 77.626C95.2883 77.8936 95.6977 78.04 96.1202 78.04C96.5428 78.04 96.9521 77.8936 97.2778 77.626C97.6035 77.3583 97.8252 76.9862 97.9047 76.5736H100.078C100.137 76.913 100.291 77.2288 100.524 77.4839C100.756 77.7389 101.057 77.9225 101.392 78.0131C101.726 78.1036 102.079 78.0974 102.41 77.995C102.74 77.8927 103.035 77.6986 103.258 77.4355C103.481 77.1723 103.624 76.8512 103.67 76.51C103.716 76.1687 103.663 75.8216 103.517 75.5093C103.371 75.1971 103.139 74.9328 102.847 74.7476C102.555 74.5624 102.216 74.4641 101.869 74.4641H101.895Z" fill="#263238"/>
<path d="M59.5167 100.001C58.9108 100 58.3183 100.178 57.8142 100.512C57.3101 100.847 56.9171 101.322 56.6848 101.878C56.4524 102.434 56.3913 103.047 56.5091 103.638C56.6269 104.229 56.9184 104.771 57.3466 105.198C57.7748 105.624 58.3205 105.914 58.9147 106.032C59.5089 106.149 60.1249 106.089 60.6847 105.859C61.2446 105.629 61.7231 105.238 62.0598 104.738C62.3964 104.237 62.5762 103.648 62.5762 103.046C62.5766 102.646 62.4978 102.25 62.3442 101.881C62.1906 101.511 61.9653 101.176 61.6812 100.893C61.3971 100.61 61.0596 100.386 60.6882 100.233C60.3168 100.08 59.9187 100.001 59.5167 100.001ZM59.5167 104.562C59.2142 104.562 58.9183 104.474 58.6665 104.307C58.4147 104.14 58.2183 103.903 58.1022 103.625C57.9862 103.348 57.9556 103.042 58.0145 102.747C58.0734 102.452 58.219 102.181 58.4329 101.968C58.6468 101.755 58.9194 101.611 59.2161 101.552C59.5128 101.494 59.8203 101.524 60.0997 101.639C60.3791 101.755 60.6177 101.95 60.7854 102.2C60.953 102.451 61.0422 102.745 61.0415 103.046C61.0407 103.447 60.8798 103.833 60.594 104.117C60.3082 104.401 59.9208 104.561 59.5167 104.562Z" fill="#407BFF" stroke="#263238" stroke-width="0.987488" stroke-linecap="round" stroke-linejoin="round"/>
<path d="M60.4283 104.255L61.8883 104.962C62.2526 104.516 62.4828 103.977 62.5521 103.408C62.6214 102.838 62.5271 102.26 62.2801 101.741C62.033 101.222 61.6434 100.783 61.1561 100.475C60.6688 100.167 60.1038 100.003 59.5264 100.001V101.526C59.845 101.53 60.1546 101.632 60.4117 101.82C60.6687 102.007 60.8603 102.269 60.9594 102.571C61.0586 102.872 61.0604 103.196 60.9645 103.498C60.8687 103.8 60.68 104.065 60.4251 104.255H60.4283Z" fill="#263238" stroke="#263238" stroke-width="0.987488" stroke-linecap="round" stroke-linejoin="round"/>
<path d="M60.9898 109.864H58.0698C57.9741 109.865 57.8793 109.846 57.7907 109.81C57.7022 109.774 57.6217 109.721 57.5539 109.654C57.486 109.587 57.4322 109.507 57.3955 109.419C57.3587 109.331 57.3398 109.237 57.3398 109.142C57.3398 108.949 57.4168 108.765 57.5537 108.628C57.6906 108.492 57.8762 108.416 58.0698 108.416H60.9898C61.1834 108.416 61.3691 108.492 61.506 108.628C61.6429 108.765 61.7198 108.949 61.7198 109.142C61.7198 109.237 61.7009 109.331 61.6642 109.419C61.6275 109.507 61.5736 109.587 61.5058 109.654C61.438 109.721 61.3575 109.774 61.2689 109.81C61.1804 109.846 61.0855 109.865 60.9898 109.864Z" fill="#407BFF" stroke="#263238" stroke-width="0.987488" stroke-linecap="round" stroke-linejoin="round"/>
<path d="M68.6433 100.001C68.0376 100.001 67.4454 100.179 66.9417 100.514C66.4381 100.848 66.0455 101.324 65.8137 101.88C65.5819 102.437 65.5212 103.049 65.6394 103.64C65.7576 104.23 66.0493 104.773 66.4776 105.199C66.906 105.625 67.4517 105.914 68.0458 106.032C68.6399 106.149 69.2557 106.089 69.8154 105.859C70.375 105.628 70.8533 105.238 71.1899 104.737C71.5264 104.237 71.706 103.648 71.706 103.046C71.7065 102.646 71.6275 102.249 71.4738 101.88C71.32 101.51 71.0944 101.174 70.8099 100.892C70.5254 100.609 70.1876 100.385 69.8159 100.232C69.4441 100.079 69.0456 100 68.6433 100.001ZM68.6433 104.562C68.3409 104.562 68.0454 104.472 67.794 104.305C67.5426 104.138 67.3468 103.901 67.2312 103.623C67.1156 103.345 67.0856 103.04 67.1448 102.745C67.204 102.45 67.3499 102.179 67.5639 101.967C67.7779 101.755 68.0505 101.61 68.3472 101.552C68.6438 101.494 68.9512 101.524 69.2303 101.64C69.5095 101.755 69.7479 101.95 69.9155 102.201C70.083 102.451 70.1721 102.745 70.1714 103.046C70.1714 103.245 70.1319 103.442 70.055 103.626C69.9782 103.811 69.8656 103.978 69.7237 104.119C69.5817 104.26 69.4132 104.371 69.2278 104.447C69.0425 104.523 68.8438 104.562 68.6433 104.562Z" fill="#407BFF" stroke="#263238" stroke-width="0.987488" stroke-linecap="round" stroke-linejoin="round"/>
<path d="M71.6895 102.726C71.609 101.981 71.2557 101.292 70.6969 100.789C70.1381 100.287 69.4128 100.006 68.6592 100.001V101.526C69.0616 101.531 69.4462 101.693 69.7293 101.977C70.0123 102.261 70.1711 102.645 70.1711 103.046C70.1678 103.104 70.1613 103.162 70.1516 103.22L71.6895 102.726Z" fill="#263238" stroke="#263238" stroke-width="0.987488" stroke-linecap="round" stroke-linejoin="round"/>
<path d="M70.1036 109.864H67.1836C67.0879 109.865 66.993 109.846 66.9045 109.81C66.8159 109.774 66.7354 109.721 66.6676 109.654C66.5998 109.587 66.546 109.507 66.5092 109.419C66.4725 109.331 66.4536 109.237 66.4536 109.142C66.4536 108.949 66.5305 108.765 66.6674 108.628C66.8043 108.492 66.99 108.416 67.1836 108.416H70.1036C70.2972 108.416 70.4829 108.492 70.6198 108.628C70.7567 108.765 70.8336 108.949 70.8336 109.142C70.8336 109.237 70.8147 109.331 70.778 109.419C70.7412 109.507 70.6874 109.587 70.6196 109.654C70.5517 109.721 70.4712 109.774 70.3827 109.81C70.2941 109.846 70.1993 109.865 70.1036 109.864Z" fill="#407BFF" stroke="#263238" stroke-width="0.987488" stroke-linecap="round" stroke-linejoin="round"/>
<path d="M77.8249 100.001C77.2192 100.001 76.627 100.179 76.1234 100.514C75.6197 100.848 75.2272 101.324 74.9953 101.88C74.7635 102.437 74.7029 103.049 74.8211 103.64C74.9392 104.23 75.2309 104.773 75.6593 105.199C76.0876 105.625 76.6333 105.914 77.2274 106.032C77.8215 106.149 78.4374 106.089 78.997 105.859C79.5566 105.628 80.035 105.238 80.3715 104.737C80.7081 104.237 80.8877 103.648 80.8877 103.046C80.8881 102.646 80.8092 102.249 80.6554 101.88C80.5016 101.51 80.2761 101.174 79.9916 100.892C79.7071 100.609 79.3693 100.385 78.9975 100.232C78.6257 100.079 78.2273 100 77.8249 100.001ZM77.8249 104.562C77.5226 104.562 77.227 104.472 76.9756 104.305C76.7243 104.138 76.5284 103.901 76.4128 103.623C76.2973 103.345 76.2672 103.04 76.3264 102.745C76.3857 102.45 76.5315 102.179 76.7456 101.967C76.9596 101.755 77.2322 101.61 77.5288 101.552C77.8255 101.494 78.1328 101.524 78.412 101.64C78.6912 101.755 78.9296 101.95 79.0971 102.201C79.2646 102.451 79.3537 102.745 79.3531 103.046C79.3531 103.245 79.3135 103.442 79.2367 103.626C79.1598 103.811 79.0472 103.978 78.9053 104.119C78.7633 104.26 78.5949 104.371 78.4095 104.447C78.2241 104.523 78.0255 104.562 77.8249 104.562Z" fill="#407BFF" stroke="#263238" stroke-width="0.987488" stroke-linecap="round" stroke-linejoin="round"/>
<path d="M77.8413 100.001V101.526C78.0985 101.527 78.3514 101.592 78.5766 101.715C78.8018 101.839 78.9921 102.016 79.1297 102.232C79.2674 102.448 79.348 102.695 79.3641 102.95C79.3802 103.206 79.3313 103.461 79.2218 103.692C79.1124 103.923 78.946 104.124 78.7381 104.274C78.5302 104.424 78.2874 104.52 78.0323 104.553C77.7772 104.585 77.5181 104.553 77.2788 104.459C77.0395 104.365 76.828 104.213 76.6636 104.016L75.4502 104.958C75.7752 105.357 76.1963 105.667 76.6743 105.86C77.1523 106.053 77.6716 106.123 78.184 106.063C78.6965 106.003 79.1853 105.815 79.6051 105.517C80.0249 105.219 80.362 104.82 80.5851 104.357C80.8082 103.895 80.91 103.384 80.8811 102.872C80.8521 102.36 80.6934 101.863 80.4195 101.428C80.1457 100.993 79.7658 100.635 79.315 100.385C78.8642 100.135 78.3573 100.003 77.8413 100.001Z" fill="#263238" stroke="#263238" stroke-width="0.987488" stroke-linecap="round" stroke-linejoin="round"/>
<path d="M79.2852 109.864H76.3653C76.2695 109.865 76.1747 109.846 76.0861 109.81C75.9976 109.774 75.9171 109.721 75.8493 109.654C75.7814 109.587 75.7276 109.507 75.6909 109.419C75.6542 109.331 75.6353 109.237 75.6353 109.142C75.6348 109.046 75.6534 108.952 75.69 108.863C75.7265 108.775 75.7802 108.695 75.8481 108.628C75.916 108.56 75.9966 108.507 76.0854 108.47C76.1741 108.434 76.2693 108.415 76.3653 108.416H79.2852C79.4788 108.416 79.6645 108.492 79.8014 108.628C79.9383 108.765 80.0152 108.949 80.0152 109.142C80.0152 109.237 79.9963 109.331 79.9596 109.419C79.9229 109.507 79.8691 109.587 79.8012 109.654C79.7334 109.721 79.6529 109.774 79.5644 109.81C79.4758 109.846 79.3809 109.865 79.2852 109.864Z" fill="#407BFF" stroke="#263238" stroke-width="0.987488" stroke-linecap="round" stroke-linejoin="round"/>
<path d="M46.3797 53.0694C53.9485 53.0694 60.0842 46.9695 60.0842 39.4449C60.0842 31.9202 53.9485 25.8203 46.3797 25.8203C38.811 25.8203 32.6753 31.9202 32.6753 39.4449C32.6753 46.9695 38.811 53.0694 46.3797 53.0694Z" fill="white"/>
<path d="M50.5328 115.244C50.5328 115.244 52.5119 118.202 52.2394 119.373C51.9669 120.544 50.2278 120.182 49.4038 118.921C48.5797 117.66 46.4838 115.776 46.8634 114.967C47.243 114.157 49.7931 114.525 50.5328 115.244Z" fill="white" stroke="#263238" stroke-width="1.02307" stroke-linecap="round" stroke-linejoin="round"/>
<path d="M42.0288 115.08C42.0288 115.08 39.6377 118.609 40.0205 119.573C40.4034 120.537 41.6427 120.25 42.5901 119.379C43.5375 118.509 45.429 116.064 45.429 116.064C45.429 116.064 43.8392 114.115 42.0288 115.08Z" fill="white" stroke="#263238" stroke-width="1.02307" stroke-linecap="round" stroke-linejoin="round"/>
<path d="M40.02 119.573C40.6685 119.662 41.3282 119.533 41.8953 119.208C42.9854 118.66 44.8867 116.186 44.8867 116.186" stroke="#263238" stroke-width="0.767303" stroke-linecap="round" stroke-linejoin="round"/>
<path d="M47.5283 115.557C47.5283 115.557 48.5633 117.493 49.728 118.589C50.8928 119.686 51.4638 119.999 52.2295 119.373" stroke="#263238" stroke-width="0.767303" stroke-linecap="round" stroke-linejoin="round"/>
<path d="M38.6711 71.0453C38.6711 71.0453 36.5784 75.2901 36.6725 77.0254C36.7666 78.7607 37.1494 87.5405 37.7205 90.4338C38.2915 93.3271 38.8528 100.533 39.2421 103.413C39.6314 106.294 42.1264 113.041 42.1264 113.041C42.1264 113.041 41.7435 114.586 42.0291 115.067C42.3146 115.548 45.3351 116.341 45.4292 116.051C45.5233 115.76 46.0002 114.893 46.0781 114.025C46.156 113.158 44.7479 103.897 45.3189 101.871C45.8899 99.8458 46.0002 86.2278 46.0781 84.8247C46.156 83.4216 46.0554 80.954 46.0554 80.954C46.2251 81.006 46.4065 81.0064 46.5764 80.9553C46.7463 80.9041 46.897 80.8038 47.0092 80.667C47.3888 80.1832 48.6477 93.2948 49.0305 96.3817C49.4134 99.4685 48.5536 100.336 48.2681 102.265C47.9826 104.194 47.3175 110.461 47.3175 111.235C47.3175 112.009 46.4609 114.512 46.8405 114.996C47.2201 115.48 48.028 115.399 48.3589 115.49C49.3517 115.764 50.1271 115.335 50.5067 115.238C50.8863 115.141 51.2075 113.745 51.2075 113.745C51.2075 113.745 54.2638 105.158 54.8348 101.588C55.4058 98.017 56.3564 91.3918 56.1682 87.3406C55.9801 83.2893 54.8348 75.0836 54.8348 75.0836L54.5493 72.6709L38.6711 71.0453Z" fill="#263238" stroke="#263238" stroke-width="1.02307" stroke-linecap="round" stroke-linejoin="round"/>
<path d="M37.3339 75.9545C37.3339 75.9545 37.149 78.3349 38.716 79.8896" stroke="white" stroke-width="0.506629" stroke-linecap="round" stroke-linejoin="round"/>
<path d="M37.4253 79.3414C37.4253 79.3414 38.3467 80.8994 39.4531 81.08" stroke="white" stroke-width="0.506629" stroke-linecap="round" stroke-linejoin="round"/>
<path d="M44.7902 105.39C44.7902 105.39 43.4924 108.468 43.3172 110.148C43.142 111.828 44.7902 111.174 45.16 112.293C45.5299 113.412 42.9506 113.322 43.4113 113.599C43.872 113.877 45.2509 114.067 45.2509 114.067" stroke="white" stroke-width="0.511535" stroke-linecap="round" stroke-linejoin="round"/>
<path d="M47.2881 113.041C47.5639 112.948 50.6947 112.396 50.3249 110.709C49.955 109.022 48.1154 108.935 48.3782 106.977C48.641 105.02 51.5058 100.723 51.5058 99.5103C51.5058 98.2976 49.4813 93.7786 49.2964 90.9789" stroke="white" stroke-width="0.511535" stroke-linecap="round" stroke-linejoin="round"/>
<path d="M51.7883 75.7737C51.7883 75.7737 49.6697 78.7928 49.3939 79.2508C49.1181 79.7088 51.8791 77.2381 51.8791 77.2381" stroke="white" stroke-width="0.506629" stroke-linecap="round" stroke-linejoin="round"/>
<path d="M46.2471 74.7062C46.2471 74.7062 46.4773 76.9124 46.4773 77.3672V79.8799" stroke="white" stroke-width="0.506629" stroke-linecap="round" stroke-linejoin="round"/>
<path d="M46.4771 78.5123C46.4771 78.5123 47.4731 78.3607 47.7002 77.5995C47.9273 76.8382 47.8559 75.3158 47.8559 75.3158" stroke="white" stroke-width="0.506629" stroke-linecap="round" stroke-linejoin="round"/>
<path d="M65.7006 48.528C64.5586 45.2154 64.3672 43.4188 64.2731 42.4737C64.179 41.5286 63.1311 41.8092 63.1311 41.8092C63.1311 41.8092 60.86 43.1349 60.86 43.422C60.86 43.709 61.9079 50.7084 62.0961 51.9373C62.2104 52.6578 62.2743 53.3853 62.2875 54.1145C62.2875 54.1145 58.2904 49.8569 57.2424 48.815C56.4443 48.0183 55.8116 47.3377 55.1336 46.9313C54.7669 46.6088 54.131 46.4894 53.1512 46.1669C51.4382 45.5992 49.631 44.2735 47.5351 44.367C46.1591 44.461 44.8084 44.7815 43.538 45.3154C43.538 45.3154 40.4947 46.7346 38.3988 47.6796C38.1548 47.788 37.9231 47.9221 37.7078 48.0796C37.3639 48.0377 36.6468 48.2215 35.8293 50.0439C34.6905 52.5985 29.5513 59.3173 28.6915 61.6816C27.8318 64.0459 29.6421 66.4134 31.6407 68.3035C33.0827 69.7132 34.4483 71.1979 35.7319 72.7515L38.003 69.9711C38.0673 70.5898 38.1757 71.2031 38.3275 71.8065C38.613 72.7515 39.5636 73.7934 43.3725 74.0643C47.1815 74.3353 55.737 74.8578 55.458 72.9289C55.0654 70.1872 55.2666 61.3848 55.0784 59.0205C55.0227 57.504 55.0541 55.9855 55.1725 54.4726C55.6105 55.0241 56.4703 56.0466 57.0705 56.4498C57.927 57.0175 61.5478 59.6753 62.9753 60.2495C64.4029 60.8236 66.4014 59.8721 67.258 57.9916C68.1145 56.1111 66.8427 51.8406 65.7006 48.528ZM34.6775 64.233C34.2946 62.7202 34.1065 62.1525 34.1065 62.1525C34.1065 62.1525 36.5463 59.5398 37.7208 58.1464C37.8797 61.8848 37.9803 65.9747 37.87 66.5747C37.7834 67.5805 37.8063 68.5928 37.9381 69.5937C37.3022 68.7261 35.0019 65.5361 34.6775 64.233Z" fill="#407BFF" stroke="#263238" stroke-width="1.01326" stroke-linecap="round" stroke-linejoin="round"/>
<path opacity="0.1" d="M65.7006 48.528C64.5586 45.2154 64.3672 43.4188 64.2731 42.4737C64.179 41.5286 63.1311 41.8092 63.1311 41.8092C63.1311 41.8092 60.86 43.1349 60.86 43.422C60.86 43.709 61.9079 50.7084 62.0961 51.9373C62.2104 52.6578 62.2743 53.3853 62.2875 54.1145C62.2875 54.1145 58.2904 49.8569 57.2424 48.815C56.4443 48.0183 55.8116 47.3377 55.1336 46.9313C54.7669 46.6088 54.131 46.4894 53.1512 46.1669C51.4382 45.5992 49.631 44.2735 47.5351 44.367C46.1591 44.461 44.8084 44.7815 43.538 45.3154C43.538 45.3154 40.4947 46.7346 38.3988 47.6796C38.1548 47.788 37.9231 47.9221 37.7078 48.0796C37.3639 48.0377 36.6468 48.2215 35.8293 50.0439C34.6905 52.5985 29.5513 59.3173 28.6915 61.6816C27.8318 64.0459 29.6421 66.4134 31.6407 68.3035C33.0827 69.7132 34.4483 71.1979 35.7319 72.7515L38.003 69.9711C38.0673 70.5898 38.1757 71.2031 38.3275 71.8065C38.613 72.7515 39.5636 73.7934 43.3725 74.0643C47.1815 74.3353 55.737 74.8578 55.458 72.9289C55.0654 70.1872 55.2666 61.3848 55.0784 59.0205C55.0227 57.504 55.0541 55.9855 55.1725 54.4726C55.6105 55.0241 56.4703 56.0466 57.0705 56.4498C57.927 57.0175 61.5478 59.6753 62.9753 60.2495C64.4029 60.8236 66.4014 59.8721 67.258 57.9916C68.1145 56.1111 66.8427 51.8406 65.7006 48.528ZM34.6775 64.233C34.2946 62.7202 34.1065 62.1525 34.1065 62.1525C34.1065 62.1525 36.5463 59.5398 37.7208 58.1464C37.8797 61.8848 37.9803 65.9747 37.87 66.5747C37.7834 67.5805 37.8063 68.5928 37.9381 69.5937C37.3022 68.7261 35.0019 65.5361 34.6775 64.233Z" fill="black"/>
<path d="M38.8984 57.74C39.5009 56.8409 40.0252 55.8924 40.4655 54.9048" stroke="#263238" stroke-width="0.759943" stroke-linecap="round" stroke-linejoin="round"/>
<path d="M41.292 55.179C41.0717 55.6352 40.7579 56.0407 40.3706 56.3692" stroke="#263238" stroke-width="0.759943" stroke-linecap="round" stroke-linejoin="round"/>
<path d="M62.2744 54.1113C62.2872 54.6564 62.4085 55.1936 62.6312 55.6919C62.854 56.1901 63.1738 56.6396 63.5722 57.0143" stroke="#263238" stroke-width="1.01326" stroke-linecap="round" stroke-linejoin="round"/>
<path d="M62.65 55.6372C62.5724 56.4981 62.7666 57.3616 63.2055 58.1079" stroke="#263238" stroke-width="1.01326" stroke-linecap="round" stroke-linejoin="round"/>
<path d="M34.1063 62.1526C34.1063 62.1526 33.4055 61.4913 31.6763 61.7784" stroke="#263238" stroke-width="0.759943" stroke-linecap="round" stroke-linejoin="round"/>
<path d="M30.7192 61.3977C30.7192 61.3977 31.1994 60.6333 33.0195 61.2042" stroke="#263238" stroke-width="0.759943" stroke-linecap="round" stroke-linejoin="round"/>
<path d="M57.1964 51.5729C56.8136 51.6664 55.1816 54.4339 55.1816 54.4339L59.1171 53.3856" stroke="#263238" stroke-width="0.759943" stroke-linecap="round" stroke-linejoin="round"/>
<path d="M45.8962 49.686C45.8962 49.686 46.6327 50.6924 48.2906 50.2376C49.9485 49.7828 50.5001 48.041 50.2373 46.9411C49.9745 45.8412 44.4233 46.7573 45.8962 49.686Z" fill="white" stroke="#263238" stroke-width="1.01326" stroke-linecap="round" stroke-linejoin="round"/>
<path d="M44.3198 43.4188C44.3198 43.4188 43.207 44.1542 43.061 44.8186C42.915 45.4831 43.2816 47.6152 43.5768 48.3506C43.8721 49.086 44.8389 50.7794 44.8389 50.7794C44.8389 50.7794 48.1709 48.8666 48.4078 48.7183C48.6446 48.5699 51.0033 49.8956 51.5192 49.6859C52.035 49.4763 50.2603 44.9735 49.446 44.0187C48.6316 43.064 45.504 42.5318 44.3198 43.4188Z" fill="white" stroke="#263238" stroke-width="1.01326" stroke-linecap="round" stroke-linejoin="round"/>
<path d="M43.7192 40.9866C43.7192 40.9866 43.7939 42.1639 43.9431 43.9315C44.0923 45.699 44.6926 47.0957 45.6659 47.9053C46.6392 48.7149 48.0343 49.1568 48.4042 48.7149C48.774 48.273 49.2185 46.4345 49.0531 45.3281C48.8876 44.2218 48.6832 41.8704 48.6832 41.8704L43.7192 40.9866Z" fill="white" stroke="#263238" stroke-width="1.01326" stroke-linecap="round" stroke-linejoin="round"/>
<g style="mix-blend-mode:multiply" opacity="0.5">
<path d="M48.9103 43.9508C48.8 42.9219 48.6994 41.8704 48.6994 41.8704L43.7192 40.9866C43.7192 40.9866 43.7939 42.1639 43.9431 43.9315C43.9996 44.7488 44.1891 45.5517 44.5044 46.3087L48.9103 43.9508Z" fill="#407BFF"/>
</g>
<path d="M42.0969 39.2256C42.0969 39.2256 40.9873 38.1225 40.7635 39.0772C40.5396 40.032 41.4318 41.5093 42.6907 41.1383V40.2578L42.0969 39.2256Z" fill="white" stroke="#263238" stroke-width="1.01326" stroke-linecap="round" stroke-linejoin="round"/>
<path opacity="0.5" d="M42.0969 39.2256C42.0969 39.2256 40.9873 38.1225 40.7635 39.0772C40.5396 40.032 41.4318 41.5093 42.6907 41.1383V40.2578L42.0969 39.2256Z" fill="#407BFF" stroke="#263238" stroke-width="1.01326" stroke-linecap="round" stroke-linejoin="round"/>
<path d="M41.1239 37.2322C41.1239 37.2322 42.9765 42.164 44.6052 43.122C46.2339 44.08 49.4913 44.9606 50.3802 41.5093C51.2692 38.058 48.9008 33.0423 48.0864 31.5682C47.2721 30.0942 44.2353 29.6555 42.3114 31.1263C40.3874 32.5972 39.9494 33.9906 41.1239 37.2322Z" fill="white" stroke="#263238" stroke-width="1.01326" stroke-linecap="round" stroke-linejoin="round"/>
<g style="mix-blend-mode:multiply" opacity="0.5">
<path d="M43.1774 33.0552C43.9637 32.6937 44.8161 32.4961 45.6821 32.4746L47.5282 30.9296C46.3148 30.0007 43.9301 29.8878 42.3209 31.1199C40.3937 32.594 39.9492 33.9906 41.1334 37.2323C41.1334 37.2323 42.986 42.1641 44.6147 43.122C45.1924 43.4597 45.8181 43.7087 46.4705 43.8607C45.6854 42.8543 44.4784 41.2545 44.0956 40.4384C43.5116 39.1934 43.2618 36.6227 42.5091 35.1292C41.7564 33.6358 42.0094 33.6358 43.1774 33.0552Z" fill="#407BFF"/>
</g>
<path d="M47.0579 35.7582C47.0579 35.7582 47.7977 37.0839 47.5024 37.3709C47.4023 37.4568 47.2817 37.5155 47.1521 37.5415C47.0225 37.5675 46.8884 37.5599 46.7627 37.5193" stroke="#263238" stroke-width="1.01326" stroke-linecap="round" stroke-linejoin="round"/>
<path d="M43.6514 35.5388C43.6514 35.5388 43.8006 34.655 44.9102 34.655" stroke="#263238" stroke-width="2.02651" stroke-linecap="round" stroke-linejoin="round"/>
<path d="M44.3193 36.4225C44.3193 36.4225 45.1337 36.7902 45.4289 35.9806" stroke="#263238" stroke-width="1.01326" stroke-linecap="round" stroke-linejoin="round"/>
<path d="M47.8726 35.8324C47.8726 35.8324 48.6869 36.2001 48.9854 35.3905" stroke="#263238" stroke-width="1.01326" stroke-linecap="round" stroke-linejoin="round"/>
<path d="M47.1978 34.1422C47.3955 33.9418 47.6626 33.8239 47.9447 33.8126C48.2268 33.8012 48.5027 33.8971 48.7161 34.0809" stroke="#263238" stroke-width="2.02651" stroke-linecap="round" stroke-linejoin="round"/>
<path d="M50.5331 38.674C49.6701 38.2998 47.6131 37.4741 46.9253 37.8192C46.0363 38.2611 43.7393 39.8094 43.7393 40.9867C43.7393 40.9867 42.2598 38.9998 42.2598 38.2611C42.2598 37.5225 42.8503 37.2935 42.3344 36.3484C41.8186 35.4033 41.0723 35.3162 41.2962 34.2131C41.5006 33.1906 43.5478 32.1068 44.5406 31.9552C45.1609 32.477 45.9507 32.7567 46.7631 32.7423C48.3853 32.7423 49.7252 31.7069 49.7252 30.4231C49.7252 29.1394 48.3983 28.1072 46.7631 28.1072C46.3991 28.1055 46.037 28.1588 45.6892 28.2653C44.1383 28.1524 43.8431 29.2942 42.7692 29.9199C41.6953 30.5457 41.0204 32.3907 41.0204 32.3907H41.0659C40.2807 33.5325 40.284 34.9098 41.1372 37.229C41.1372 37.229 42.9898 42.1608 44.6185 43.1187C46.2472 44.0767 49.5046 44.9573 50.3936 41.506C50.6095 40.5778 50.6568 39.6187 50.5331 38.674Z" fill="#263238" stroke="#263238" stroke-width="1.01326" stroke-linecap="round" stroke-linejoin="round"/>
<path d="M48.7644 38.6C48.7644 38.6 47.6548 40.145 46.396 39.1161" stroke="white" stroke-width="1.01326" stroke-linecap="round" stroke-linejoin="round"/>
<path d="M38.0998 69.8162C38.5396 70.0921 38.9264 70.4438 39.2419 70.8548C39.6285 71.381 40.0421 71.887 40.4812 72.3708C40.4812 72.3708 41.5259 72.4643 41.4319 72.9385C41.3378 73.4126 41.1464 73.6932 40.6694 73.6932C40.1925 73.6932 39.1478 72.7481 39.1478 72.7481L37.6262 75.1124C37.6262 75.1124 36.1986 74.0738 35.7217 72.7481L38.0998 69.8162Z" fill="white" stroke="#263238" stroke-width="1.01326" stroke-linecap="round" stroke-linejoin="round"/>
<path d="M46.3797 53.0694C53.9485 53.0694 60.0842 46.9695 60.0842 39.4449C60.0842 31.9202 53.9485 25.8203 46.3797 25.8203C38.811 25.8203 32.6753 31.9202 32.6753 39.4449C32.6753 46.9695 38.811 53.0694 46.3797 53.0694Z" stroke="#263238" stroke-width="2.02651" stroke-linecap="round" stroke-linejoin="round"/>
<path d="M58.7537 36.7968C58.7537 36.7968 57.7999 36.7 57.6117 37.2677C57.4235 37.8354 57.1348 38.4031 57.1348 38.7837C57.1348 39.1643 57.2289 39.4449 57.7058 39.5385C58.1827 39.632 58.4682 38.9708 58.4682 38.9708L58.7537 36.7968Z" fill="white" stroke="#263238" stroke-width="1.01326" stroke-linecap="round" stroke-linejoin="round"/>
<path d="M58.9419 36.1324C58.9419 36.1324 58.4683 38.687 58.4683 39.445C58.489 40.0279 58.6882 40.5905 59.0393 41.0578C59.2128 41.2533 59.4468 41.3861 59.7044 41.4352L60.1813 40.8675C60.1813 40.8675 59.6103 41.6255 60.3695 42.5705C61.1287 43.5156 61.7029 43.4221 62.3681 43.1382C63.0332 42.8544 63.2246 42.477 62.9391 41.4352C62.6536 40.3933 62.4654 38.6902 62.274 37.6516C62.0825 36.613 61.4174 36.2324 61.0378 36.2324C60.6582 36.2324 59.6168 35.8486 58.9419 36.1324Z" fill="white" stroke="#263238" stroke-width="1.01326" stroke-linecap="round" stroke-linejoin="round"/>
<path d="M58.5949 39.9771C58.5949 39.9771 58.4262 39.3901 59.1432 39.3062C59.8602 39.2224 61.0444 39.0966 61.0444 39.0966" stroke="#263238" stroke-width="0.506629" stroke-linecap="round" stroke-linejoin="round"/>
<path d="M58.6792 38.4677C58.6792 38.4677 60.3241 38.0452 60.9178 38.1291" stroke="#263238" stroke-width="0.506629" stroke-linecap="round" stroke-linejoin="round"/>
<path d="M58.8062 37.2902C59.4199 37.1818 60.0418 37.1258 60.6652 37.1226" stroke="#263238" stroke-width="0.506629" stroke-linecap="round" stroke-linejoin="round"/>
<path d="M59.3545 40.4382C59.4846 40.5546 59.6408 40.6385 59.8101 40.6828C59.9794 40.7271 60.1569 40.7307 60.3278 40.6931" stroke="#263238" stroke-width="0.506629" stroke-linecap="round" stroke-linejoin="round"/>
</svg>
