<svg width="163" height="147" viewBox="0 0 163 147" fill="none" xmlns="http://www.w3.org/2000/svg">
<path d="M87.2344 147C124.025 147 153.85 144.963 153.85 142.451C153.85 139.938 124.025 137.901 87.2344 137.901C50.4435 137.901 20.6187 139.938 20.6187 142.451C20.6187 144.963 50.4435 147 87.2344 147Z" fill="#263238"/>
<path d="M47.2151 108.177C46.9389 106.854 46.5718 104.955 46.2363 102.66C46.1377 101.999 46.043 101.298 45.9561 100.574C46.2561 100.519 48.6399 100.057 49.5673 99.399C50.4119 98.8078 51.3197 97.8329 51.3552 96.7367C51.3755 96.4801 51.3408 96.2222 51.2531 95.98C51.1654 95.7378 51.0269 95.5169 50.8467 95.3318C50.6664 95.1467 50.4486 95.0017 50.2077 94.9064C49.9667 94.8112 49.7081 94.7677 49.4489 94.7791C47.9018 94.8848 46.4731 97.2652 46.1377 98.6003C46.1179 98.6864 45.9798 99.7201 45.9206 100.253C45.8693 99.814 45.818 99.3794 45.7706 98.9253C45.6996 98.2675 45.6443 97.5745 45.5891 96.9011C45.5891 96.5487 45.5536 96.1964 45.5378 95.8401C45.522 95.4838 45.5378 95.1354 45.5378 94.7752C45.5378 94.2505 45.5773 93.7063 45.6049 93.166C46.2837 93.1347 48.2689 93.0055 49.1569 92.5592C50.0449 92.1128 51.1302 91.2632 51.3315 90.21C51.3867 89.9613 51.3889 89.7039 51.3377 89.4542C51.2866 89.2046 51.1834 88.9684 51.0347 88.7608C50.886 88.5531 50.6951 88.3787 50.4743 88.2487C50.2536 88.1186 50.0078 88.0359 49.7528 88.0058C48.2097 87.8805 46.4297 90.0182 45.9009 91.2867C45.8812 91.3259 45.7983 91.6078 45.6996 91.9406C45.747 91.412 45.7904 90.8835 45.8575 90.351C46.039 88.8436 46.2758 87.3089 46.5047 85.7702C46.5521 85.4492 46.5955 85.1321 46.6429 84.811C47.2112 84.7836 49.3661 84.6661 50.3014 84.2002C51.2368 83.7343 52.2747 82.9004 52.476 81.8511C52.5319 81.6023 52.5345 81.3447 52.4836 81.0948C52.4328 80.845 52.3296 80.6085 52.1808 80.4007C52.032 80.1929 51.8409 80.0185 51.6198 79.8886C51.3987 79.7588 51.1526 79.6764 50.8974 79.6469C49.3503 79.5216 47.5743 81.6593 47.0415 82.9278C47.0415 82.9709 46.9231 83.3193 46.8126 83.6795C46.927 82.8456 47.0257 82.0077 47.1007 81.1777C47.2396 79.7465 47.2805 78.3077 47.223 76.871C47.4243 76.871 49.9502 76.7731 50.9921 76.2563C51.9195 75.7982 52.9654 74.9604 53.1667 73.9072C53.2226 73.6586 53.2252 73.4012 53.1743 73.1516C53.1234 72.902 53.0202 72.6657 52.8713 72.4583C52.7224 72.2508 52.5313 72.0767 52.3102 71.9472C52.0891 71.8178 51.8431 71.7359 51.588 71.7069C50.0409 71.5777 48.2649 73.7193 47.7321 74.9839C47.6927 75.0739 47.3375 76.2876 47.2309 76.7222C47.229 76.7053 47.229 76.6882 47.2309 76.6713C47.1396 75.2652 46.923 73.8699 46.5837 72.5016C46.2858 71.2782 45.9168 70.073 45.4786 68.8918C45.0839 67.7956 44.6537 66.8129 44.267 65.9476C44.0538 65.4778 43.8486 65.055 43.6552 64.6634H43.6868C43.7144 64.6634 43.6394 62.8037 43.6237 62.7058C43.4105 61.3512 42.1989 58.8533 40.6676 58.6105C40.4123 58.5769 40.1527 58.5971 39.9058 58.6697C39.6589 58.7423 39.4302 58.8658 39.2347 59.0321C39.0391 59.1983 38.8811 59.4037 38.771 59.6346C38.6609 59.8656 38.6011 60.117 38.5956 60.3724C38.5325 61.4569 39.3494 62.5179 40.1348 63.1835C40.9202 63.8491 43.0435 64.499 43.5645 64.6478C43.7578 65.0628 43.9591 65.5052 44.1762 65.9985C44.5432 66.8716 44.9655 67.8582 45.3168 68.9623C45.4154 69.256 45.5102 69.577 45.6088 69.8824C45.3365 69.3969 44.9537 68.7352 44.9063 68.6765C44.0894 67.5685 41.8516 65.9046 40.3834 66.39C40.1413 66.4767 39.9202 66.6131 39.7347 66.7903C39.5493 66.9675 39.4035 67.1814 39.3071 67.4183C39.2106 67.6551 39.1656 67.9094 39.1749 68.1647C39.1843 68.42 39.2478 68.6704 39.3613 68.8997C39.8072 69.8902 41.0268 70.4657 42.0371 70.6889C43.0474 70.9121 45.297 70.5166 45.7785 70.4227C45.9838 71.1078 46.1732 71.8165 46.339 72.5682C46.6373 73.919 46.8143 75.2934 46.8678 76.6752C46.8678 76.7575 46.8678 76.8397 46.8678 76.9219C46.7731 76.6557 46.1574 75.2501 46.1061 75.1561C45.4154 73.9816 43.375 72.0671 41.8595 72.3881C41.6088 72.4483 41.3737 72.5601 41.1696 72.7165C40.9654 72.8728 40.7968 73.0701 40.6746 73.2955C40.5525 73.5208 40.4796 73.7692 40.4607 74.0243C40.4418 74.2795 40.4773 74.5357 40.565 74.7764C40.9005 75.8061 42.0529 76.5069 43.0277 76.8436C44.1525 77.2351 46.7692 76.9845 46.8639 76.9767C46.8854 78.3631 46.8155 79.7494 46.6547 81.1268C46.5402 82.1487 46.3824 83.1784 46.2127 84.2081C46.0824 83.8674 45.5141 82.5598 45.4589 82.4697C44.7721 81.2952 42.7317 79.3846 41.2162 79.7056C40.966 79.7658 40.7313 79.8776 40.5275 80.0337C40.3237 80.1898 40.1553 80.3867 40.0332 80.6115C39.9111 80.8364 39.8381 81.0843 39.8189 81.339C39.7997 81.5937 39.8347 81.8495 39.9217 82.0899C40.2572 83.1236 41.4056 83.8205 42.3844 84.1611C43.4816 84.5526 45.9877 84.3138 46.2008 84.2942C46.1219 84.7601 46.0469 85.2299 45.968 85.6998C45.7036 87.2267 45.4352 88.7614 45.2181 90.2805C45.1392 90.8091 45.0839 91.3298 45.0287 91.8466C44.8195 91.3415 44.4209 90.4332 44.3775 90.3588C43.6868 89.1843 41.6464 87.2697 40.1309 87.5947C39.8806 87.6549 39.646 87.7667 39.4422 87.9228C39.2384 88.0789 39.07 88.2758 38.9479 88.5006C38.8258 88.7255 38.7528 88.9734 38.7335 89.2281C38.7143 89.4828 38.7494 89.7386 38.8364 89.979C39.1718 91.0127 40.3203 91.7096 41.2991 92.0502C42.2778 92.3908 44.3893 92.242 44.9853 92.195C44.8945 93.0642 44.8274 93.9295 44.7998 94.783C44.7998 95.151 44.7642 95.5308 44.7998 95.8832C44.8353 96.2355 44.7998 96.5957 44.8234 96.9442C44.8708 97.6685 44.9063 98.3419 44.9655 99.0153C44.9931 99.3559 45.0247 99.677 45.0563 100.006C44.9221 99.4656 44.6932 98.6081 44.6616 98.5337C44.1604 97.2535 42.4357 95.0727 40.8847 95.1628C40.6283 95.1855 40.3795 95.2613 40.1545 95.3854C39.9295 95.5096 39.7333 95.6791 39.5785 95.8832C39.4238 96.0873 39.3139 96.3213 39.2561 96.5702C39.1983 96.819 39.1938 97.0772 39.2429 97.3279C39.4165 98.3967 40.4269 99.262 41.3583 99.7435C42.3686 100.272 44.7958 100.429 45.0918 100.448C45.1708 101.255 45.2576 102.042 45.3483 102.774C45.6404 105.1 45.968 107.022 46.2166 108.369C46.4653 109.716 46.6429 110.479 46.6429 110.479C46.6548 110.553 46.682 110.623 46.7228 110.686C46.7636 110.749 46.8171 110.803 46.88 110.844C46.9428 110.885 47.0136 110.913 47.0878 110.926C47.1621 110.939 47.2382 110.936 47.3113 110.918C47.3845 110.9 47.4531 110.867 47.5128 110.822C47.5725 110.776 47.6221 110.719 47.6583 110.653C47.6945 110.588 47.7166 110.515 47.7232 110.441C47.7298 110.366 47.7207 110.291 47.6966 110.221C47.6966 110.221 47.4914 109.504 47.2151 108.177Z" fill="#407BFF"/>
<path d="M45.8891 70.1368C45.8891 70.1368 48.4939 69.3538 49.3976 68.5434C50.187 67.8621 50.9763 66.7776 50.8619 65.6931C50.8495 65.4382 50.7831 65.1887 50.6671 64.9609C50.551 64.7331 50.3879 64.5322 50.1883 64.3711C49.9887 64.2101 49.7572 64.0925 49.5087 64.0262C49.2603 63.9598 49.0006 63.9462 48.7464 63.9861C47.223 64.268 46.0746 66.7972 45.9009 68.1597C45.8851 68.2771 45.8614 70.1447 45.8891 70.1368Z" fill="#407BFF"/>
<path d="M47.2625 110.918C47.3268 110.962 47.3808 111.019 47.4208 111.086C47.4608 111.152 47.4859 111.226 47.4944 111.304C47.5028 111.381 47.4945 111.459 47.4699 111.532C47.4452 111.606 47.405 111.673 47.3517 111.73C47.2985 111.787 47.2336 111.832 47.1614 111.861C47.0892 111.891 47.0114 111.905 46.9333 111.902C46.8552 111.899 46.7786 111.88 46.7088 111.845C46.6389 111.81 46.5774 111.761 46.5284 111.701C46.5284 111.701 45.9522 111.152 45.0011 110.17C44.0499 109.187 42.7002 107.758 41.1649 105.981C40.6795 105.417 40.1743 104.806 39.6573 104.18C39.4008 104.324 37.2893 105.522 36.1527 105.632C35.1226 105.73 33.7847 105.573 33.0427 104.775C32.8623 104.593 32.7224 104.375 32.6322 104.136C32.542 103.897 32.5035 103.642 32.5191 103.387C32.5348 103.133 32.6042 102.884 32.723 102.658C32.8417 102.431 33.0071 102.232 33.2084 102.073C34.4516 101.149 37.1038 102.026 38.2325 102.821C38.2996 102.868 38.9666 103.455 39.3771 103.831C39.1679 103.573 38.9824 103.326 38.7496 103.048C38.3273 102.519 37.9208 101.979 37.4827 101.396L36.871 100.527C36.6578 100.241 36.4763 99.912 36.2711 99.6027C35.8172 98.8744 35.3949 98.1149 34.9884 97.3397C34.5187 97.7038 32.8375 98.9802 31.8311 99.2346C30.8247 99.4891 29.4631 99.5322 28.6264 98.8431C28.4199 98.6904 28.2481 98.4963 28.1222 98.2734C27.9964 98.0505 27.9192 97.8038 27.8957 97.5493C27.8723 97.2949 27.9031 97.0384 27.9861 96.7965C28.0692 96.5547 28.2026 96.3329 28.3777 96.1455C29.467 95.0493 32.2218 95.5152 33.4571 96.1455C33.536 96.1847 34.3727 96.725 34.8266 97.0304C34.5858 96.5606 34.3411 96.0947 34.1122 95.6131C33.4492 94.2271 32.8217 92.802 32.1902 91.3808C31.9968 90.9462 31.7955 90.5155 31.6022 90.0809C31.4364 90.214 29.471 91.7762 28.3462 92.0581C27.3437 92.3126 25.9782 92.3556 25.1415 91.6666C24.935 91.5139 24.7632 91.3197 24.6373 91.0968C24.5114 90.8739 24.4343 90.6272 24.4108 90.3728C24.3874 90.1184 24.4182 89.8619 24.5012 89.62C24.5843 89.3782 24.7177 89.1563 24.8928 88.969C25.9782 87.8728 28.7329 88.3387 29.9722 88.969C30.0669 89.016 31.2706 89.7951 31.5508 90.0065C31.1167 89.0551 30.6786 88.1116 30.205 87.1954C29.5727 85.9585 28.8608 84.7632 28.0738 83.6169C27.9949 83.6796 25.9545 85.32 24.7981 85.6098C23.7957 85.8603 22.4301 85.9073 21.5934 85.2182C21.3867 85.0656 21.2148 84.8714 21.0889 84.6484C20.963 84.4253 20.886 84.1784 20.8629 83.9238C20.8398 83.6691 20.8711 83.4126 20.9549 83.1708C21.0386 82.929 21.1728 82.7075 21.3487 82.5207C22.4341 81.4244 25.1888 81.8903 26.4241 82.5207C26.5228 82.5677 27.8173 83.4055 28.0423 83.5739C27.9949 83.5073 27.9554 83.4368 27.9081 83.3703C27.0815 82.2479 26.1571 81.1998 25.1454 80.2381C24.5929 79.6978 24.0364 79.2124 23.4839 78.7504C23.1326 79.0949 21.5105 80.6492 20.512 81.0251C19.5135 81.4009 18.2111 81.5771 17.2837 80.9938C17.0617 80.8648 16.8696 80.6908 16.7199 80.4833C16.5702 80.2757 16.4663 80.0392 16.4149 79.7891C16.3635 79.539 16.3658 79.281 16.4217 79.0319C16.4775 78.7827 16.5856 78.5481 16.739 78.3432C17.6981 77.1334 20.4883 77.2939 21.7868 77.7716C21.8578 77.799 22.5446 78.1396 23.0418 78.3941C22.7893 78.1905 22.5327 77.9752 22.288 77.7872C21.3645 77.0668 20.4765 76.4639 19.6872 75.9393C19.2333 75.6456 18.8189 75.3872 18.4282 75.1562C17.9072 75.3167 15.8037 75.9393 14.7538 75.8101C13.704 75.6809 12.4529 75.2463 11.9004 74.3066C11.7642 74.0901 11.6754 73.8477 11.6395 73.595C11.6037 73.3423 11.6217 73.0849 11.6923 72.8396C11.763 72.5942 11.8848 72.3663 12.0498 72.1705C12.2148 71.9747 12.4194 71.8155 12.6503 71.703C14.0632 71.0688 16.4628 72.4861 17.3863 73.504C17.4652 73.5941 18.5703 75.1092 18.5387 75.1171H18.5071C18.9018 75.3363 19.2965 75.5791 19.7306 75.8531C20.5199 76.3621 21.4395 76.9455 22.3827 77.6463C23.4036 78.3924 24.3813 79.195 25.3112 80.0502C26.3531 81.0103 27.3092 82.0583 28.1686 83.1824C28.1754 83.1981 28.1847 83.2126 28.1962 83.2254C28.0462 82.8026 27.6673 81.5967 27.6476 81.5027C27.3871 80.1559 27.6831 77.3957 29.0408 76.6557C29.2699 76.5393 29.5211 76.472 29.7782 76.4582C30.0352 76.4444 30.2923 76.4844 30.5328 76.5756C30.7732 76.6668 30.9916 76.8072 31.1738 76.9876C31.356 77.168 31.4979 77.3844 31.5903 77.6228C32.0166 78.6251 31.5903 79.8975 31.093 80.7863C30.5089 81.7886 28.4527 83.2489 28.2909 83.3625C29.1324 84.5278 29.8957 85.7467 30.576 87.0114C30.9707 87.7475 31.3654 88.4992 31.7284 89.2587C31.61 88.8868 31.5074 88.554 31.4995 88.507C31.2391 87.1602 31.5311 84.4 32.8927 83.66C33.1221 83.5437 33.3736 83.4766 33.6308 83.463C33.8881 83.4495 34.1453 83.4898 34.3858 83.5814C34.6263 83.673 34.8446 83.8138 35.0266 83.9946C35.2087 84.1755 35.3503 84.3923 35.4423 84.631C35.8685 85.6293 35.4423 86.9018 34.945 87.7905C34.4477 88.6793 32.6914 89.9713 32.2297 90.3041C32.3678 90.5977 32.5099 90.8874 32.648 91.1811C33.315 92.5866 33.9702 93.9961 34.6569 95.3586C34.8976 95.8363 35.1542 96.2982 35.4067 96.7642C35.3041 96.4353 35.2212 96.1573 35.2094 96.1103C34.9489 94.7635 35.2449 92.0072 36.6026 91.2672C36.8317 91.1508 37.0829 91.0835 37.34 91.0697C37.597 91.0559 37.8541 91.0959 38.0946 91.1871C38.335 91.2783 38.5535 91.4187 38.7356 91.5991C38.9178 91.7795 39.0597 91.9959 39.1521 92.2343C39.5784 93.2326 39.1719 94.509 38.6548 95.3977C38.1378 96.2865 36.571 97.4493 36.0224 97.8487C36.2987 98.3146 36.571 98.7844 36.8591 99.2268C37.0643 99.5244 37.2538 99.8258 37.459 100.112L38.0905 100.969C38.5128 101.498 38.9429 102.05 39.3692 102.555C39.6612 102.911 39.9454 103.244 40.2335 103.581C39.9849 103.107 39.5231 102.167 39.4955 102.085C39.0298 100.789 38.8995 98.0209 40.1309 97.0852C40.3395 96.9356 40.5775 96.8313 40.8295 96.7789C41.0814 96.7265 41.3417 96.7273 41.5933 96.7812C41.8449 96.8351 42.0822 96.9409 42.2899 97.0918C42.4976 97.2426 42.671 97.4352 42.7988 97.6568C43.3711 98.5808 43.1619 99.9041 42.7988 100.859C42.4042 101.913 40.6558 103.6 40.4308 103.811C40.9084 104.367 41.3741 104.9 41.828 105.401C43.3829 107.128 44.7445 108.51 45.7115 109.465C46.6784 110.42 47.2625 110.918 47.2625 110.918ZM23.4523 78.4489C23.4523 78.4489 25.1849 76.3621 25.4927 75.1993C25.7532 74.2087 25.8085 72.8502 25.1336 72.0201C24.9811 71.8139 24.7866 71.6419 24.5627 71.5152C24.3387 71.3885 24.0904 71.31 23.8338 71.2849C23.5773 71.2598 23.3183 71.2886 23.0737 71.3694C22.8291 71.4502 22.6045 71.5812 22.4143 71.7539C21.3014 72.8228 21.7513 75.5595 22.363 76.7928C22.3985 76.8985 23.4326 78.4685 23.4523 78.4489Z" fill="#407BFF"/>
<path opacity="0.1" d="M47.2625 110.918C47.3268 110.962 47.3808 111.019 47.4208 111.086C47.4608 111.152 47.4859 111.226 47.4944 111.304C47.5028 111.381 47.4945 111.459 47.4699 111.532C47.4452 111.606 47.405 111.673 47.3517 111.73C47.2985 111.787 47.2336 111.832 47.1614 111.861C47.0892 111.891 47.0114 111.905 46.9333 111.902C46.8552 111.899 46.7786 111.88 46.7088 111.845C46.6389 111.81 46.5774 111.761 46.5284 111.701C46.5284 111.701 45.9522 111.152 45.0011 110.17C44.0499 109.187 42.7002 107.758 41.1649 105.981C40.6795 105.417 40.1743 104.806 39.6573 104.18C39.4008 104.324 37.2893 105.522 36.1527 105.632C35.1226 105.73 33.7847 105.573 33.0427 104.775C32.8623 104.593 32.7224 104.375 32.6322 104.136C32.542 103.897 32.5035 103.642 32.5191 103.387C32.5348 103.133 32.6042 102.884 32.723 102.658C32.8417 102.431 33.0071 102.232 33.2084 102.073C34.4516 101.149 37.1038 102.026 38.2325 102.821C38.2996 102.868 38.9666 103.455 39.3771 103.831C39.1679 103.573 38.9824 103.326 38.7496 103.048C38.3273 102.519 37.9208 101.979 37.4827 101.396L36.871 100.527C36.6578 100.241 36.4763 99.912 36.2711 99.6027C35.8172 98.8744 35.3949 98.1149 34.9884 97.3397C34.5187 97.7038 32.8375 98.9802 31.8311 99.2346C30.8247 99.4891 29.4631 99.5322 28.6264 98.8431C28.4199 98.6904 28.2481 98.4963 28.1222 98.2734C27.9964 98.0505 27.9192 97.8038 27.8957 97.5493C27.8723 97.2949 27.9031 97.0384 27.9861 96.7965C28.0692 96.5547 28.2026 96.3329 28.3777 96.1455C29.467 95.0493 32.2218 95.5152 33.4571 96.1455C33.536 96.1847 34.3727 96.725 34.8266 97.0304C34.5858 96.5606 34.3411 96.0947 34.1122 95.6131C33.4492 94.2271 32.8217 92.802 32.1902 91.3808C31.9968 90.9462 31.7955 90.5155 31.6022 90.0809C31.4364 90.214 29.471 91.7762 28.3462 92.0581C27.3437 92.3126 25.9782 92.3556 25.1415 91.6666C24.935 91.5139 24.7632 91.3197 24.6373 91.0968C24.5114 90.8739 24.4343 90.6272 24.4108 90.3728C24.3874 90.1184 24.4182 89.8619 24.5012 89.62C24.5843 89.3782 24.7177 89.1563 24.8928 88.969C25.9782 87.8728 28.7329 88.3387 29.9722 88.969C30.0669 89.016 31.2706 89.7951 31.5508 90.0065C31.1167 89.0551 30.6786 88.1116 30.205 87.1954C29.5727 85.9585 28.8608 84.7632 28.0738 83.6169C27.9949 83.6796 25.9545 85.32 24.7981 85.6098C23.7957 85.8603 22.4301 85.9073 21.5934 85.2182C21.3867 85.0656 21.2148 84.8714 21.0889 84.6484C20.963 84.4253 20.886 84.1784 20.8629 83.9238C20.8398 83.6691 20.8711 83.4126 20.9549 83.1708C21.0386 82.929 21.1728 82.7075 21.3487 82.5207C22.4341 81.4244 25.1888 81.8903 26.4241 82.5207C26.5228 82.5677 27.8173 83.4055 28.0423 83.5739C27.9949 83.5073 27.9554 83.4368 27.9081 83.3703C27.0815 82.2479 26.1571 81.1998 25.1454 80.2381C24.5929 79.6978 24.0364 79.2124 23.4839 78.7504C23.1326 79.0949 21.5105 80.6492 20.512 81.0251C19.5135 81.4009 18.2111 81.5771 17.2837 80.9938C17.0617 80.8648 16.8696 80.6908 16.7199 80.4833C16.5702 80.2757 16.4663 80.0392 16.4149 79.7891C16.3635 79.539 16.3658 79.281 16.4217 79.0319C16.4775 78.7827 16.5856 78.5481 16.739 78.3432C17.6981 77.1334 20.4883 77.2939 21.7868 77.7716C21.8578 77.799 22.5446 78.1396 23.0418 78.3941C22.7893 78.1905 22.5327 77.9752 22.288 77.7872C21.3645 77.0668 20.4765 76.4639 19.6872 75.9393C19.2333 75.6456 18.8189 75.3872 18.4282 75.1562C17.9072 75.3167 15.8037 75.9393 14.7538 75.8101C13.704 75.6809 12.4529 75.2463 11.9004 74.3066C11.7642 74.0901 11.6754 73.8477 11.6395 73.595C11.6037 73.3423 11.6217 73.0849 11.6923 72.8396C11.763 72.5942 11.8848 72.3663 12.0498 72.1705C12.2148 71.9747 12.4194 71.8155 12.6503 71.703C14.0632 71.0688 16.4628 72.4861 17.3863 73.504C17.4652 73.5941 18.5703 75.1092 18.5387 75.1171H18.5071C18.9018 75.3363 19.2965 75.5791 19.7306 75.8531C20.5199 76.3621 21.4395 76.9455 22.3827 77.6463C23.4036 78.3924 24.3813 79.195 25.3112 80.0502C26.3531 81.0103 27.3092 82.0583 28.1686 83.1824C28.1754 83.1981 28.1847 83.2126 28.1962 83.2254C28.0462 82.8026 27.6673 81.5967 27.6476 81.5027C27.3871 80.1559 27.6831 77.3957 29.0408 76.6557C29.2699 76.5393 29.5211 76.472 29.7782 76.4582C30.0352 76.4444 30.2923 76.4844 30.5328 76.5756C30.7732 76.6668 30.9916 76.8072 31.1738 76.9876C31.356 77.168 31.4979 77.3844 31.5903 77.6228C32.0166 78.6251 31.5903 79.8975 31.093 80.7863C30.5089 81.7886 28.4527 83.2489 28.2909 83.3625C29.1324 84.5278 29.8957 85.7467 30.576 87.0114C30.9707 87.7475 31.3654 88.4992 31.7284 89.2587C31.61 88.8868 31.5074 88.554 31.4995 88.507C31.2391 87.1602 31.5311 84.4 32.8927 83.66C33.1221 83.5437 33.3736 83.4766 33.6308 83.463C33.8881 83.4495 34.1453 83.4898 34.3858 83.5814C34.6263 83.673 34.8446 83.8138 35.0266 83.9946C35.2087 84.1755 35.3503 84.3923 35.4423 84.631C35.8685 85.6293 35.4423 86.9018 34.945 87.7905C34.4477 88.6793 32.6914 89.9713 32.2297 90.3041C32.3678 90.5977 32.5099 90.8874 32.648 91.1811C33.315 92.5866 33.9702 93.9961 34.6569 95.3586C34.8976 95.8363 35.1542 96.2982 35.4067 96.7642C35.3041 96.4353 35.2212 96.1573 35.2094 96.1103C34.9489 94.7635 35.2449 92.0072 36.6026 91.2672C36.8317 91.1508 37.0829 91.0835 37.34 91.0697C37.597 91.0559 37.8541 91.0959 38.0946 91.1871C38.335 91.2783 38.5535 91.4187 38.7356 91.5991C38.9178 91.7795 39.0597 91.9959 39.1521 92.2343C39.5784 93.2326 39.1719 94.509 38.6548 95.3977C38.1378 96.2865 36.571 97.4493 36.0224 97.8487C36.2987 98.3146 36.571 98.7844 36.8591 99.2268C37.0643 99.5244 37.2538 99.8258 37.459 100.112L38.0905 100.969C38.5128 101.498 38.9429 102.05 39.3692 102.555C39.6612 102.911 39.9454 103.244 40.2335 103.581C39.9849 103.107 39.5231 102.167 39.4955 102.085C39.0298 100.789 38.8995 98.0209 40.1309 97.0852C40.3395 96.9356 40.5775 96.8313 40.8295 96.7789C41.0814 96.7265 41.3417 96.7273 41.5933 96.7812C41.8449 96.8351 42.0822 96.9409 42.2899 97.0918C42.4976 97.2426 42.671 97.4352 42.7988 97.6568C43.3711 98.5808 43.1619 99.9041 42.7988 100.859C42.4042 101.913 40.6558 103.6 40.4308 103.811C40.9084 104.367 41.3741 104.9 41.828 105.401C43.3829 107.128 44.7445 108.51 45.7115 109.465C46.6784 110.42 47.2625 110.918 47.2625 110.918ZM23.4523 78.4489C23.4523 78.4489 25.1849 76.3621 25.4927 75.1993C25.7532 74.2087 25.8085 72.8502 25.1336 72.0201C24.9811 71.8139 24.7866 71.6419 24.5627 71.5152C24.3387 71.3885 24.0904 71.31 23.8338 71.2849C23.5773 71.2598 23.3183 71.2886 23.0737 71.3694C22.8291 71.4502 22.6045 71.5812 22.4143 71.7539C21.3014 72.8228 21.7513 75.5595 22.363 76.7928C22.3985 76.8985 23.4326 78.4685 23.4523 78.4489Z" fill="black"/>
<path d="M37.1472 136.738C36.8117 135.427 36.3579 133.547 35.9237 131.257C35.7975 130.603 35.6712 129.902 35.5528 129.186C35.8448 129.115 38.2089 128.552 39.1048 127.859C39.9217 127.228 40.786 126.202 40.7742 125.118C40.7799 124.864 40.732 124.612 40.6334 124.377C40.5348 124.143 40.3878 123.932 40.2019 123.757C40.0159 123.583 39.7952 123.449 39.5539 123.364C39.3126 123.28 39.056 123.246 38.8009 123.266C37.2577 123.438 35.9356 125.881 35.6435 127.228C35.6435 127.314 35.533 128.356 35.5015 128.888C35.4265 128.454 35.3554 128.023 35.2883 127.569C35.1897 126.919 35.1028 126.226 35.016 125.556L34.9213 124.499C34.8779 124.139 34.8858 123.791 34.866 123.434C34.866 122.91 34.866 122.366 34.866 121.825C35.5409 121.763 37.5182 121.547 38.3944 121.062C39.2705 120.576 40.3085 119.68 40.4585 118.607C40.5034 118.355 40.4943 118.097 40.4318 117.849C40.3694 117.601 40.2548 117.369 40.0958 117.168C39.9368 116.967 39.7368 116.802 39.5089 116.683C39.281 116.564 39.0303 116.494 38.7732 116.477C37.2261 116.414 35.5449 118.63 35.0673 119.922C35.0673 119.962 34.9805 120.243 34.9016 120.58C34.9016 120.052 34.945 119.527 34.9844 118.991C35.1028 117.472 35.2686 115.933 35.4304 114.386C35.462 114.061 35.4896 113.74 35.5251 113.419C36.0935 113.368 38.2365 113.153 39.1521 112.636C40.0677 112.119 41.0662 111.254 41.2202 110.178C41.2645 109.926 41.2549 109.668 41.1922 109.42C41.1294 109.173 41.0149 108.941 40.856 108.74C40.697 108.539 40.4973 108.374 40.2697 108.254C40.0421 108.135 39.7918 108.065 39.5349 108.048C37.9878 107.989 36.3026 110.205 35.829 111.493C35.829 111.54 35.7264 111.885 35.6356 112.256C35.7106 111.415 35.7738 110.577 35.8132 109.743C35.8872 108.307 35.8634 106.869 35.7422 105.436C35.9435 105.436 38.4614 105.217 39.4836 104.653C40.3835 104.156 41.3978 103.271 41.5477 102.194C41.5927 101.943 41.5836 101.685 41.5211 101.437C41.4586 101.189 41.3441 100.957 41.1851 100.756C41.026 100.555 40.826 100.389 40.5981 100.27C40.3702 100.151 40.1196 100.081 39.8625 100.065C38.3154 100.006 36.6341 102.222 36.1566 103.51C36.125 103.6 35.8251 104.825 35.7343 105.268C35.7343 105.268 35.7343 105.233 35.7343 105.217C35.5831 103.816 35.3057 102.431 34.9055 101.079C34.5522 99.8705 34.1292 98.6836 33.6386 97.5236C33.1966 96.443 32.723 95.4799 32.2968 94.6303C32.0639 94.1722 31.8429 93.7611 31.6298 93.3735H31.6613C31.689 93.3735 31.5351 91.5216 31.5114 91.4159C31.2391 90.0691 29.9327 87.626 28.354 87.4498C28.0989 87.4301 27.8423 87.4636 27.601 87.5483C27.3597 87.6329 27.139 87.7668 26.953 87.9413C26.7671 88.1158 26.6201 88.327 26.5215 88.5613C26.4229 88.7957 26.375 89.0479 26.3807 89.3017C26.3807 90.3862 27.2292 91.412 28.0462 92.0424C28.8632 92.6727 31.0062 93.2169 31.5351 93.3579C31.7482 93.7494 31.9692 94.1957 32.206 94.6773C32.6007 95.5347 33.0585 96.5018 33.4768 97.5902C33.5913 97.8799 33.6978 98.1931 33.8083 98.4985C33.5163 98.0248 33.1019 97.3788 33.0545 97.324C32.1902 96.2551 29.8972 94.6929 28.433 95.2411C28.1953 95.3389 27.9811 95.4853 27.8042 95.6706C27.6272 95.856 27.4916 96.0761 27.406 96.3169C27.3204 96.5576 27.2867 96.8135 27.3073 97.0679C27.3278 97.3223 27.4021 97.5697 27.5252 97.7938C28.0146 98.7648 29.2578 99.2776 30.2879 99.4656C31.318 99.6535 33.536 99.1484 34.0136 99.031C34.2504 99.7083 34.4753 100.409 34.6687 101.153C35.0365 102.496 35.2809 103.869 35.3988 105.256C35.3988 105.334 35.3988 105.421 35.3988 105.499C35.2962 105.24 34.6095 103.858 34.5621 103.768C33.8202 102.594 31.6969 100.805 30.1971 101.192C29.9497 101.263 29.7202 101.385 29.5235 101.55C29.3268 101.715 29.1673 101.919 29.0556 102.149C28.9439 102.379 28.8823 102.63 28.875 102.886C28.8677 103.141 28.9148 103.395 29.0131 103.631C29.4078 104.649 30.5918 105.299 31.5627 105.589C32.7033 105.93 35.3041 105.565 35.4028 105.554C35.4822 106.938 35.4729 108.325 35.3752 109.708C35.3041 110.733 35.1936 111.767 35.0713 112.805C34.9292 112.472 34.2819 111.188 34.2425 111.102C33.5005 109.927 31.3772 108.138 29.8775 108.525C29.63 108.596 29.4005 108.718 29.2038 108.883C29.0071 109.048 28.8477 109.252 28.7359 109.482C28.6242 109.713 28.5626 109.964 28.5553 110.219C28.548 110.474 28.5951 110.728 28.6935 110.964C29.0881 111.982 30.2721 112.628 31.243 112.922C32.356 113.251 34.8503 112.922 35.0634 112.887C35.0042 113.357 34.9529 113.83 34.8937 114.3C34.7003 115.839 34.499 117.385 34.3451 118.912C34.2938 119.441 34.2622 119.965 34.2267 120.478C33.9938 119.985 33.5557 119.092 33.5084 119.022C32.7664 117.847 30.6471 116.058 29.1671 116.446C28.92 116.517 28.6908 116.639 28.4945 116.804C28.2981 116.969 28.1389 117.174 28.0273 117.404C27.9156 117.634 27.854 117.884 27.8464 118.14C27.8388 118.395 27.8853 118.649 27.9831 118.885C28.3777 119.903 29.5617 120.549 30.5326 120.843C31.5035 121.136 33.6307 120.901 34.2227 120.823C34.1714 121.696 34.1399 122.565 34.1517 123.419C34.1517 123.791 34.1517 124.166 34.1872 124.519L34.2583 125.58C34.3372 126.3 34.4043 126.97 34.4911 127.643C34.5345 127.98 34.5819 128.297 34.6292 128.626C34.4674 128.093 34.203 127.248 34.1714 127.173C33.611 125.917 31.8034 123.814 30.2484 123.971C29.9934 124.004 29.7484 124.091 29.5292 124.224C29.31 124.358 29.1215 124.535 28.976 124.746C28.8305 124.956 28.7312 125.195 28.6845 125.446C28.6379 125.696 28.645 125.954 28.7053 126.202C28.9263 127.267 29.9919 128.086 30.9273 128.524C31.9573 129.01 34.3885 129.06 34.6884 129.064C34.8029 129.871 34.9213 130.65 35.0476 131.382C35.4423 133.688 35.8369 135.599 36.1605 136.93C36.4842 138.261 36.6815 139.021 36.6815 139.021C36.7299 139.149 36.8253 139.253 36.9486 139.314C37.0718 139.375 37.2136 139.388 37.3457 139.349C37.4777 139.31 37.59 139.223 37.6601 139.106C37.7302 138.988 37.7528 138.849 37.7234 138.715C37.7234 138.715 37.4827 138.054 37.1472 136.738Z" fill="#407BFF"/>
<path d="M34.128 98.7922C34.128 98.7922 36.6973 97.8917 37.5616 97.05C38.2997 96.3296 39.0416 95.2137 38.9035 94.1371C38.8794 93.8826 38.8015 93.6361 38.6749 93.4135C38.5484 93.1909 38.376 92.9972 38.169 92.845C37.962 92.6928 37.7251 92.5856 37.4735 92.5303C37.222 92.475 36.9616 92.4729 36.7092 92.524C35.2015 92.8725 34.1675 95.4486 34.0531 96.8307C34.0412 96.9443 34.1004 98.804 34.128 98.7922Z" fill="#407BFF"/>
<path d="M35.6672 137.29C34.6608 136.382 33.24 135.059 31.6061 133.399C31.1365 132.921 30.6431 132.408 30.1459 131.876C30.3511 131.656 32.0047 129.891 32.3718 128.822C32.7033 127.851 32.8533 126.523 32.2376 125.623C32.1004 125.407 31.919 125.222 31.705 125.081C31.4911 124.939 31.2495 124.844 30.9959 124.801C30.7424 124.758 30.4826 124.769 30.2334 124.832C29.9843 124.895 29.7514 125.01 29.5499 125.169C28.3659 126.155 28.6146 128.92 29.1355 130.188C29.1671 130.27 29.6723 131.19 29.9248 131.652C29.621 131.331 29.321 131.01 29.0132 130.666C28.5672 130.18 28.1133 129.648 27.6674 129.139L26.9964 128.309C26.7636 128.031 26.5781 127.737 26.361 127.451C26.0532 127.025 25.7572 126.567 25.4612 126.108C25.99 125.69 27.5213 124.425 27.9831 123.544C28.4448 122.663 28.8119 121.344 28.3383 120.365C28.2358 120.131 28.0846 119.92 27.8947 119.748C27.7047 119.576 27.4803 119.445 27.236 119.364C26.9917 119.284 26.733 119.255 26.4768 119.281C26.2207 119.306 25.9727 119.385 25.7493 119.511C24.4232 120.294 24.2535 123.074 24.5653 124.409C24.5653 124.456 24.6758 124.73 24.7942 125.055C24.5179 124.601 24.2417 124.151 23.9772 123.681C23.2313 122.35 22.513 120.976 21.7868 119.598C21.6369 119.312 21.4829 119.026 21.329 118.74C21.775 118.388 23.4444 117.033 23.9299 116.109C24.4153 115.185 24.7547 113.909 24.2851 112.93C24.1825 112.696 24.0314 112.485 23.8415 112.313C23.6515 112.141 23.4271 112.01 23.1828 111.929C22.9385 111.849 22.6798 111.82 22.4236 111.846C22.1674 111.871 21.9195 111.95 21.6961 112.076C20.37 112.859 20.2003 115.639 20.5121 116.974C20.5121 117.025 20.6423 117.366 20.7765 117.718C20.3818 116.974 19.9556 116.242 19.5254 115.522C18.7877 114.289 17.969 113.105 17.0745 111.979C17.2363 111.853 19.2254 110.307 19.7622 109.281C20.2397 108.373 20.591 107.081 20.1174 106.102C20.0153 105.867 19.8644 105.657 19.6746 105.484C19.4848 105.311 19.2605 105.18 19.0161 105.099C18.7718 105.018 18.513 104.989 18.2566 105.014C18.0002 105.039 17.7521 105.118 17.5284 105.244C16.2023 106.027 16.0326 108.811 16.3444 110.146C16.3681 110.24 16.8022 111.427 16.9679 111.845L16.9403 111.802C16.0318 110.719 15.0294 109.717 13.9448 108.807C12.9919 107.993 11.9931 107.234 10.9532 106.533C9.98235 105.875 9.05094 105.331 8.22609 104.857C7.77617 104.602 7.35782 104.379 6.97105 104.176H6.99868C7.0263 104.176 5.86204 102.7 5.77521 102.61C4.80038 101.635 2.34161 100.323 0.96028 101.02C0.733931 101.141 0.535915 101.309 0.379139 101.511C0.222364 101.714 0.110349 101.946 0.0503973 102.195C-0.00955465 102.443 -0.0160976 102.701 0.0311943 102.952C0.0784861 103.203 0.178551 103.441 0.324867 103.651C0.916866 104.567 2.20743 104.951 3.24145 105.029C4.27548 105.107 6.37116 104.395 6.88028 104.215C7.27494 104.434 7.70907 104.673 8.17478 104.951C8.98779 105.44 9.90342 106.004 10.8546 106.681C11.1111 106.861 11.3755 107.073 11.6439 107.257C11.1387 107.022 10.4323 106.713 10.3612 106.689C9.04305 106.27 6.24881 106.227 5.34502 107.472C5.20167 107.684 5.10473 107.924 5.06049 108.175C5.01624 108.426 5.02567 108.684 5.08816 108.932C5.15065 109.179 5.26481 109.411 5.42326 109.612C5.58172 109.813 5.78095 109.979 6.00806 110.099C6.95921 110.636 8.28134 110.389 9.23249 109.986C10.1836 109.582 11.7662 107.942 12.1017 107.586C12.674 108.02 13.2502 108.482 13.8264 108.995C14.8785 109.915 15.8454 110.927 16.7154 112.018C16.7667 112.08 16.8101 112.151 16.8614 112.217C16.6285 112.057 15.2827 111.278 15.1959 111.235C13.933 110.675 11.1585 110.326 10.1244 111.473C9.9581 111.668 9.83488 111.895 9.76278 112.14C9.69068 112.385 9.67131 112.643 9.70592 112.896C9.74053 113.148 9.82835 113.391 9.96368 113.608C10.099 113.825 10.2788 114.012 10.4915 114.155C11.3755 114.794 12.7213 114.692 13.708 114.394C14.8486 114.054 16.818 112.327 16.893 112.264C17.7315 113.374 18.4961 114.537 19.182 115.745C19.6951 116.638 20.1766 117.562 20.6502 118.486C20.3463 118.286 19.107 117.562 19.0123 117.519C17.7494 116.959 14.9749 116.614 13.9369 117.757C13.7702 117.952 13.6467 118.179 13.5746 118.425C13.5024 118.67 13.4832 118.927 13.5182 119.181C13.5533 119.434 13.6417 119.677 13.7777 119.893C13.9138 120.11 14.0945 120.296 14.3079 120.439C15.192 121.081 16.5338 120.976 17.5244 120.682C18.6374 120.345 20.5318 118.701 20.6818 118.564C20.8988 118.987 21.1159 119.41 21.329 119.832C22.0236 121.226 22.7103 122.62 23.4365 123.979C23.6852 124.448 23.9496 124.907 24.2259 125.361C23.7562 125.075 22.8958 124.578 22.8169 124.538C21.554 123.979 18.7795 123.634 17.7454 124.777C17.5791 124.972 17.4559 125.199 17.3838 125.444C17.3117 125.689 17.2923 125.946 17.3269 126.199C17.3615 126.452 17.4494 126.695 17.5847 126.912C17.72 127.129 17.8998 127.316 18.1125 127.459C18.9965 128.101 20.3384 127.996 21.329 127.702C22.3196 127.408 23.9457 126.054 24.3995 125.666C24.8415 126.422 25.2954 127.166 25.7808 127.87C25.9979 128.172 26.1992 128.493 26.4202 128.771L27.0714 129.613C27.5371 130.172 27.9673 130.697 28.4133 131.206L29.0724 131.954C28.6422 131.594 27.9515 131.038 27.8884 130.995C26.7044 130.251 24.0364 129.491 22.8366 130.466C22.6419 130.633 22.4849 130.84 22.3759 131.071C22.2668 131.303 22.2082 131.555 22.2037 131.81C22.1992 132.066 22.2491 132.319 22.35 132.555C22.4508 132.79 22.6005 133.001 22.7893 133.175C23.5786 133.939 24.9126 134.041 25.9466 133.896C27.0754 133.735 29.1316 132.447 29.3842 132.287C29.9248 132.893 30.4616 133.461 30.9628 134.021C32.5731 135.732 33.982 137.098 34.9805 138.038C35.979 138.978 36.5592 139.502 36.5592 139.502C36.6707 139.583 36.8092 139.619 36.9464 139.603C37.0837 139.587 37.2096 139.519 37.2984 139.414C37.3873 139.309 37.4326 139.174 37.425 139.037C37.4174 138.9 37.3576 138.771 37.2577 138.676C37.2577 138.676 36.6776 138.202 35.6672 137.29Z" fill="#407BFF"/>
<path d="M12.0504 107.296C12.0504 107.296 13.6883 105.139 13.9448 103.96C14.1619 102.958 14.1579 101.611 13.4436 100.797C13.2816 100.598 13.0794 100.436 12.8501 100.32C12.6208 100.204 12.3695 100.137 12.1125 100.123C11.8554 100.109 11.5983 100.149 11.3579 100.24C11.1174 100.332 10.8989 100.472 10.7164 100.652C9.65084 101.768 10.2231 104.485 10.8861 105.687C10.9532 105.793 12.0307 107.316 12.0504 107.296Z" fill="#407BFF"/>
<g opacity="0.1">
<path d="M37.1472 136.738C36.8117 135.427 36.3579 133.547 35.9237 131.257C35.7975 130.603 35.6712 129.902 35.5528 129.186C35.8448 129.115 38.2089 128.552 39.1048 127.859C39.9217 127.228 40.786 126.202 40.7742 125.118C40.7799 124.864 40.732 124.612 40.6334 124.377C40.5348 124.143 40.3878 123.932 40.2019 123.757C40.0159 123.583 39.7952 123.449 39.5539 123.364C39.3126 123.28 39.056 123.246 38.8009 123.266C37.2577 123.438 35.9356 125.881 35.6435 127.228C35.6435 127.314 35.533 128.356 35.5015 128.888C35.4265 128.454 35.3554 128.023 35.2883 127.569C35.1897 126.919 35.1028 126.226 35.016 125.556L34.9213 124.499C34.8779 124.139 34.8858 123.791 34.866 123.434C34.866 122.91 34.866 122.366 34.866 121.825C35.5409 121.763 37.5182 121.547 38.3944 121.062C39.2705 120.576 40.3085 119.68 40.4585 118.607C40.5034 118.355 40.4943 118.097 40.4318 117.849C40.3694 117.601 40.2548 117.369 40.0958 117.168C39.9368 116.967 39.7368 116.802 39.5089 116.683C39.281 116.564 39.0303 116.494 38.7732 116.477C37.2261 116.414 35.5449 118.63 35.0673 119.922C35.0673 119.962 34.9805 120.243 34.9016 120.58C34.9016 120.052 34.945 119.527 34.9844 118.991C35.1028 117.472 35.2686 115.933 35.4304 114.386C35.462 114.061 35.4896 113.74 35.5251 113.419C36.0935 113.368 38.2365 113.153 39.1521 112.636C40.0677 112.119 41.0662 111.254 41.2202 110.178C41.2645 109.926 41.2549 109.668 41.1922 109.42C41.1294 109.173 41.0149 108.941 40.856 108.74C40.697 108.539 40.4973 108.374 40.2697 108.254C40.0421 108.135 39.7918 108.065 39.5349 108.048C37.9878 107.989 36.3026 110.205 35.829 111.493C35.829 111.54 35.7264 111.885 35.6356 112.256C35.7106 111.415 35.7738 110.577 35.8132 109.743C35.8872 108.307 35.8634 106.869 35.7422 105.436C35.9435 105.436 38.4614 105.217 39.4836 104.653C40.3835 104.156 41.3978 103.271 41.5477 102.194C41.5927 101.943 41.5836 101.685 41.5211 101.437C41.4586 101.189 41.3441 100.957 41.1851 100.756C41.026 100.555 40.826 100.389 40.5981 100.27C40.3702 100.151 40.1196 100.081 39.8625 100.065C38.3154 100.006 36.6341 102.222 36.1566 103.51C36.125 103.6 35.8251 104.825 35.7343 105.268C35.7343 105.268 35.7343 105.233 35.7343 105.217C35.5831 103.816 35.3057 102.431 34.9055 101.079C34.5522 99.8705 34.1292 98.6836 33.6386 97.5236C33.1966 96.443 32.723 95.4799 32.2968 94.6303C32.0639 94.1722 31.8429 93.7611 31.6298 93.3735H31.6613C31.689 93.3735 31.5351 91.5216 31.5114 91.4159C31.2391 90.0691 29.9327 87.626 28.354 87.4498C28.0989 87.4301 27.8423 87.4636 27.601 87.5483C27.3597 87.6329 27.139 87.7668 26.953 87.9413C26.7671 88.1158 26.6201 88.327 26.5215 88.5613C26.4229 88.7957 26.375 89.0479 26.3807 89.3017C26.3807 90.3862 27.2292 91.412 28.0462 92.0424C28.8632 92.6727 31.0062 93.2169 31.5351 93.3579C31.7482 93.7494 31.9692 94.1957 32.206 94.6773C32.6007 95.5347 33.0585 96.5018 33.4768 97.5902C33.5913 97.8799 33.6978 98.1931 33.8083 98.4985C33.5163 98.0248 33.1019 97.3788 33.0545 97.324C32.1902 96.2551 29.8972 94.6929 28.433 95.2411C28.1953 95.3389 27.9811 95.4853 27.8042 95.6706C27.6272 95.856 27.4916 96.0761 27.406 96.3169C27.3204 96.5576 27.2867 96.8135 27.3073 97.0679C27.3278 97.3223 27.4021 97.5697 27.5252 97.7938C28.0146 98.7648 29.2578 99.2776 30.2879 99.4656C31.318 99.6535 33.536 99.1484 34.0136 99.031C34.2504 99.7083 34.4753 100.409 34.6687 101.153C35.0365 102.496 35.2809 103.869 35.3988 105.256C35.3988 105.334 35.3988 105.421 35.3988 105.499C35.2962 105.24 34.6095 103.858 34.5621 103.768C33.8202 102.594 31.6969 100.805 30.1971 101.192C29.9497 101.263 29.7202 101.385 29.5235 101.55C29.3268 101.715 29.1673 101.919 29.0556 102.149C28.9439 102.379 28.8823 102.63 28.875 102.886C28.8677 103.141 28.9148 103.395 29.0131 103.631C29.4078 104.649 30.5918 105.299 31.5627 105.589C32.7033 105.93 35.3041 105.565 35.4028 105.554C35.4822 106.938 35.4729 108.325 35.3752 109.708C35.3041 110.733 35.1936 111.767 35.0713 112.805C34.9292 112.472 34.2819 111.188 34.2425 111.102C33.5005 109.927 31.3772 108.138 29.8775 108.525C29.63 108.596 29.4005 108.718 29.2038 108.883C29.0071 109.048 28.8477 109.252 28.7359 109.482C28.6242 109.713 28.5626 109.964 28.5553 110.219C28.548 110.474 28.5951 110.728 28.6935 110.964C29.0881 111.982 30.2721 112.628 31.243 112.922C32.356 113.251 34.8503 112.922 35.0634 112.887C35.0042 113.357 34.9529 113.83 34.8937 114.3C34.7003 115.839 34.499 117.385 34.3451 118.912C34.2938 119.441 34.2622 119.965 34.2267 120.478C33.9938 119.985 33.5557 119.092 33.5084 119.022C32.7664 117.847 30.6471 116.058 29.1671 116.446C28.92 116.517 28.6908 116.639 28.4945 116.804C28.2981 116.969 28.1389 117.174 28.0273 117.404C27.9156 117.634 27.854 117.884 27.8464 118.14C27.8388 118.395 27.8853 118.649 27.9831 118.885C28.3777 119.903 29.5617 120.549 30.5326 120.843C31.5035 121.136 33.6307 120.901 34.2227 120.823C34.1714 121.696 34.1399 122.565 34.1517 123.419C34.1517 123.791 34.1517 124.166 34.1872 124.519L34.2583 125.58C34.3372 126.3 34.4043 126.97 34.4911 127.643C34.5345 127.98 34.5819 128.297 34.6292 128.626C34.4674 128.093 34.203 127.248 34.1714 127.173C33.611 125.917 31.8034 123.814 30.2484 123.971C29.9934 124.004 29.7484 124.091 29.5292 124.224C29.31 124.358 29.1215 124.535 28.976 124.746C28.8305 124.956 28.7312 125.195 28.6845 125.446C28.6379 125.696 28.645 125.954 28.7053 126.202C28.9263 127.267 29.9919 128.086 30.9273 128.524C31.9573 129.01 34.3885 129.06 34.6884 129.064C34.8029 129.871 34.9213 130.65 35.0476 131.382C35.4423 133.688 35.8369 135.599 36.1605 136.93C36.4842 138.261 36.6815 139.021 36.6815 139.021C36.7299 139.149 36.8253 139.253 36.9486 139.314C37.0718 139.375 37.2136 139.388 37.3457 139.349C37.4777 139.31 37.59 139.223 37.6601 139.106C37.7302 138.988 37.7528 138.849 37.7234 138.715C37.7234 138.715 37.4827 138.054 37.1472 136.738Z" fill="black"/>
<path d="M34.128 98.7922C34.128 98.7922 36.6973 97.8917 37.5616 97.05C38.2997 96.3296 39.0416 95.2137 38.9035 94.1371C38.8794 93.8826 38.8015 93.6361 38.6749 93.4135C38.5484 93.1909 38.376 92.9972 38.169 92.845C37.962 92.6928 37.7251 92.5856 37.4735 92.5303C37.222 92.475 36.9616 92.4729 36.7092 92.524C35.2015 92.8725 34.1675 95.4486 34.0531 96.8307C34.0412 96.9443 34.1004 98.804 34.128 98.7922Z" fill="black"/>
<path d="M35.6672 137.29C34.6608 136.382 33.24 135.059 31.6061 133.399C31.1365 132.921 30.6431 132.408 30.1459 131.876C30.3511 131.656 32.0047 129.891 32.3718 128.822C32.7033 127.851 32.8533 126.523 32.2376 125.623C32.1004 125.407 31.919 125.222 31.705 125.081C31.4911 124.939 31.2495 124.844 30.9959 124.801C30.7424 124.758 30.4826 124.769 30.2334 124.832C29.9843 124.895 29.7514 125.01 29.5499 125.169C28.3659 126.155 28.6146 128.92 29.1355 130.188C29.1671 130.27 29.6723 131.19 29.9248 131.652C29.621 131.331 29.321 131.01 29.0132 130.666C28.5672 130.18 28.1133 129.648 27.6674 129.139L26.9964 128.309C26.7636 128.031 26.5781 127.737 26.361 127.451C26.0532 127.025 25.7572 126.567 25.4612 126.108C25.99 125.69 27.5213 124.425 27.9831 123.544C28.4448 122.663 28.8119 121.344 28.3383 120.365C28.2358 120.131 28.0846 119.92 27.8947 119.748C27.7047 119.576 27.4803 119.445 27.236 119.364C26.9917 119.284 26.733 119.255 26.4768 119.281C26.2207 119.306 25.9727 119.385 25.7493 119.511C24.4232 120.294 24.2535 123.074 24.5653 124.409C24.5653 124.456 24.6758 124.73 24.7942 125.055C24.5179 124.601 24.2417 124.151 23.9772 123.681C23.2313 122.35 22.513 120.976 21.7868 119.598C21.6369 119.312 21.4829 119.026 21.329 118.74C21.775 118.388 23.4444 117.033 23.9299 116.109C24.4153 115.185 24.7547 113.909 24.2851 112.93C24.1825 112.696 24.0314 112.485 23.8415 112.313C23.6515 112.141 23.4271 112.01 23.1828 111.929C22.9385 111.849 22.6798 111.82 22.4236 111.846C22.1674 111.871 21.9195 111.95 21.6961 112.076C20.37 112.859 20.2003 115.639 20.5121 116.974C20.5121 117.025 20.6423 117.366 20.7765 117.718C20.3818 116.974 19.9556 116.242 19.5254 115.522C18.7877 114.289 17.969 113.105 17.0745 111.979C17.2363 111.853 19.2254 110.307 19.7622 109.281C20.2397 108.373 20.591 107.081 20.1174 106.102C20.0153 105.867 19.8644 105.657 19.6746 105.484C19.4848 105.311 19.2605 105.18 19.0161 105.099C18.7718 105.018 18.513 104.989 18.2566 105.014C18.0002 105.039 17.7521 105.118 17.5284 105.244C16.2023 106.027 16.0326 108.811 16.3444 110.146C16.3681 110.24 16.8022 111.427 16.9679 111.845L16.9403 111.802C16.0318 110.719 15.0294 109.717 13.9448 108.807C12.9919 107.993 11.9931 107.234 10.9532 106.533C9.98235 105.875 9.05094 105.331 8.22609 104.857C7.77617 104.602 7.35782 104.379 6.97105 104.176H6.99868C7.0263 104.176 5.86204 102.7 5.77521 102.61C4.80038 101.635 2.34161 100.323 0.96028 101.02C0.733931 101.141 0.535915 101.309 0.379139 101.511C0.222364 101.714 0.110349 101.946 0.0503973 102.195C-0.00955465 102.443 -0.0160976 102.701 0.0311943 102.952C0.0784861 103.203 0.178551 103.441 0.324867 103.651C0.916866 104.567 2.20743 104.951 3.24145 105.029C4.27548 105.107 6.37116 104.395 6.88028 104.215C7.27494 104.434 7.70907 104.673 8.17478 104.951C8.98779 105.44 9.90342 106.004 10.8546 106.681C11.1111 106.861 11.3755 107.073 11.6439 107.257C11.1387 107.022 10.4323 106.713 10.3612 106.689C9.04305 106.27 6.24881 106.227 5.34502 107.472C5.20167 107.684 5.10473 107.924 5.06049 108.175C5.01624 108.426 5.02567 108.684 5.08816 108.932C5.15065 109.179 5.26481 109.411 5.42326 109.612C5.58172 109.813 5.78095 109.979 6.00806 110.099C6.95921 110.636 8.28134 110.389 9.23249 109.986C10.1836 109.582 11.7662 107.942 12.1017 107.586C12.674 108.02 13.2502 108.482 13.8264 108.995C14.8785 109.915 15.8454 110.927 16.7154 112.018C16.7667 112.08 16.8101 112.151 16.8614 112.217C16.6285 112.057 15.2827 111.278 15.1959 111.235C13.933 110.675 11.1585 110.326 10.1244 111.473C9.9581 111.668 9.83488 111.895 9.76278 112.14C9.69068 112.385 9.67131 112.643 9.70592 112.896C9.74053 113.148 9.82835 113.391 9.96368 113.608C10.099 113.825 10.2788 114.012 10.4915 114.155C11.3755 114.794 12.7213 114.692 13.708 114.394C14.8486 114.054 16.818 112.327 16.893 112.264C17.7315 113.374 18.4961 114.537 19.182 115.745C19.6951 116.638 20.1766 117.562 20.6502 118.486C20.3463 118.286 19.107 117.562 19.0123 117.519C17.7494 116.959 14.9749 116.614 13.9369 117.757C13.7702 117.952 13.6467 118.179 13.5746 118.425C13.5024 118.67 13.4832 118.927 13.5182 119.181C13.5533 119.434 13.6417 119.677 13.7777 119.893C13.9138 120.11 14.0945 120.296 14.3079 120.439C15.192 121.081 16.5338 120.976 17.5244 120.682C18.6374 120.345 20.5318 118.701 20.6818 118.564C20.8988 118.987 21.1159 119.41 21.329 119.832C22.0236 121.226 22.7103 122.62 23.4365 123.979C23.6852 124.448 23.9496 124.907 24.2259 125.361C23.7562 125.075 22.8958 124.578 22.8169 124.538C21.554 123.979 18.7795 123.634 17.7454 124.777C17.5791 124.972 17.4559 125.199 17.3838 125.444C17.3117 125.689 17.2923 125.946 17.3269 126.199C17.3615 126.452 17.4494 126.695 17.5847 126.912C17.72 127.129 17.8998 127.316 18.1125 127.459C18.9965 128.101 20.3384 127.996 21.329 127.702C22.3196 127.408 23.9457 126.054 24.3995 125.666C24.8415 126.422 25.2954 127.166 25.7808 127.87C25.9979 128.172 26.1992 128.493 26.4202 128.771L27.0714 129.613C27.5371 130.172 27.9673 130.697 28.4133 131.206L29.0724 131.954C28.6422 131.594 27.9515 131.038 27.8884 130.995C26.7044 130.251 24.0364 129.491 22.8366 130.466C22.6419 130.633 22.4849 130.84 22.3759 131.071C22.2668 131.303 22.2082 131.555 22.2037 131.81C22.1992 132.066 22.2491 132.319 22.35 132.555C22.4508 132.79 22.6005 133.001 22.7893 133.175C23.5786 133.939 24.9126 134.041 25.9466 133.896C27.0754 133.735 29.1316 132.447 29.3842 132.287C29.9248 132.893 30.4616 133.461 30.9628 134.021C32.5731 135.732 33.982 137.098 34.9805 138.038C35.979 138.978 36.5592 139.502 36.5592 139.502C36.6707 139.583 36.8092 139.619 36.9464 139.603C37.0837 139.587 37.2096 139.519 37.2984 139.414C37.3873 139.309 37.4326 139.174 37.425 139.037C37.4174 138.9 37.3576 138.771 37.2577 138.676C37.2577 138.676 36.6776 138.202 35.6672 137.29Z" fill="black"/>
<path d="M12.0504 107.296C12.0504 107.296 13.6883 105.139 13.9448 103.96C14.1619 102.958 14.1579 101.611 13.4436 100.797C13.2816 100.598 13.0794 100.436 12.8501 100.32C12.6208 100.204 12.3695 100.137 12.1125 100.123C11.8554 100.109 11.5983 100.149 11.3579 100.24C11.1174 100.332 10.8989 100.472 10.7164 100.652C9.65084 101.768 10.2231 104.485 10.8861 105.687C10.9532 105.793 12.0307 107.316 12.0504 107.296Z" fill="black"/>
</g>
<g opacity="0.1">
<path d="M47.2151 108.177C46.9389 106.854 46.5718 104.955 46.2363 102.66C46.1377 101.999 46.043 101.298 45.9561 100.574C46.2561 100.519 48.6399 100.057 49.5673 99.399C50.4119 98.8078 51.3197 97.8329 51.3552 96.7367C51.3755 96.4801 51.3408 96.2222 51.2531 95.98C51.1654 95.7378 51.0269 95.5169 50.8467 95.3318C50.6664 95.1467 50.4486 95.0017 50.2077 94.9064C49.9667 94.8112 49.7081 94.7677 49.4489 94.7791C47.9018 94.8848 46.4731 97.2652 46.1377 98.6003C46.1179 98.6864 45.9798 99.7201 45.9206 100.253C45.8693 99.814 45.818 99.3794 45.7706 98.9253C45.6996 98.2675 45.6443 97.5745 45.5891 96.9011C45.5891 96.5487 45.5536 96.1964 45.5378 95.8401C45.522 95.4838 45.5378 95.1354 45.5378 94.7752C45.5378 94.2505 45.5773 93.7063 45.6049 93.166C46.2837 93.1347 48.2689 93.0055 49.1569 92.5592C50.0449 92.1128 51.1302 91.2632 51.3315 90.21C51.3867 89.9613 51.3889 89.7039 51.3377 89.4542C51.2866 89.2046 51.1834 88.9684 51.0347 88.7608C50.886 88.5531 50.6951 88.3787 50.4743 88.2487C50.2536 88.1186 50.0078 88.0359 49.7528 88.0058C48.2097 87.8805 46.4297 90.0182 45.9009 91.2867C45.8812 91.3259 45.7983 91.6078 45.6996 91.9406C45.747 91.412 45.7904 90.8835 45.8575 90.351C46.039 88.8436 46.2758 87.3089 46.5047 85.7702C46.5521 85.4492 46.5955 85.1321 46.6429 84.811C47.2112 84.7836 49.3661 84.6661 50.3014 84.2002C51.2368 83.7343 52.2747 82.9004 52.476 81.8511C52.5319 81.6023 52.5345 81.3447 52.4836 81.0948C52.4328 80.845 52.3296 80.6085 52.1808 80.4007C52.032 80.1929 51.8409 80.0185 51.6198 79.8886C51.3987 79.7588 51.1526 79.6764 50.8974 79.6469C49.3503 79.5216 47.5743 81.6593 47.0415 82.9278C47.0415 82.9709 46.9231 83.3193 46.8126 83.6795C46.927 82.8456 47.0257 82.0077 47.1007 81.1777C47.2396 79.7465 47.2805 78.3077 47.223 76.871C47.4243 76.871 49.9502 76.7731 50.9921 76.2563C51.9195 75.7982 52.9654 74.9604 53.1667 73.9072C53.2226 73.6586 53.2252 73.4012 53.1743 73.1516C53.1234 72.902 53.0202 72.6657 52.8713 72.4583C52.7224 72.2508 52.5313 72.0767 52.3102 71.9472C52.0891 71.8178 51.8431 71.7359 51.588 71.7069C50.0409 71.5777 48.2649 73.7193 47.7321 74.9839C47.6927 75.0739 47.3375 76.2876 47.2309 76.7222C47.229 76.7053 47.229 76.6882 47.2309 76.6713C47.1396 75.2652 46.923 73.8699 46.5837 72.5016C46.2858 71.2782 45.9168 70.073 45.4786 68.8918C45.0839 67.7956 44.6537 66.8129 44.267 65.9476C44.0538 65.4778 43.8486 65.055 43.6552 64.6634H43.6868C43.7144 64.6634 43.6394 62.8037 43.6237 62.7058C43.4105 61.3512 42.1989 58.8533 40.6676 58.6105C40.4123 58.5769 40.1527 58.5971 39.9058 58.6697C39.6589 58.7423 39.4302 58.8658 39.2347 59.0321C39.0391 59.1983 38.8811 59.4037 38.771 59.6346C38.6609 59.8656 38.6011 60.117 38.5956 60.3724C38.5325 61.4569 39.3494 62.5179 40.1348 63.1835C40.9202 63.8491 43.0435 64.499 43.5645 64.6478C43.7578 65.0628 43.9591 65.5052 44.1762 65.9985C44.5432 66.8716 44.9655 67.8582 45.3168 68.9623C45.4154 69.256 45.5102 69.577 45.6088 69.8824C45.3365 69.3969 44.9537 68.7352 44.9063 68.6765C44.0894 67.5685 41.8516 65.9046 40.3834 66.39C40.1413 66.4767 39.9202 66.6131 39.7347 66.7903C39.5493 66.9675 39.4035 67.1814 39.3071 67.4183C39.2106 67.6551 39.1656 67.9094 39.1749 68.1647C39.1843 68.42 39.2478 68.6704 39.3613 68.8997C39.8072 69.8902 41.0268 70.4657 42.0371 70.6889C43.0474 70.9121 45.297 70.5166 45.7785 70.4227C45.9838 71.1078 46.1732 71.8165 46.339 72.5682C46.6373 73.919 46.8143 75.2934 46.8678 76.6752C46.8678 76.7575 46.8678 76.8397 46.8678 76.9219C46.7731 76.6557 46.1574 75.2501 46.1061 75.1561C45.4154 73.9816 43.375 72.0671 41.8595 72.3881C41.6088 72.4483 41.3737 72.5601 41.1696 72.7165C40.9654 72.8728 40.7968 73.0701 40.6746 73.2955C40.5525 73.5208 40.4796 73.7692 40.4607 74.0243C40.4418 74.2795 40.4773 74.5357 40.565 74.7764C40.9005 75.8061 42.0529 76.5069 43.0277 76.8436C44.1525 77.2351 46.7692 76.9845 46.8639 76.9767C46.8854 78.3631 46.8155 79.7494 46.6547 81.1268C46.5402 82.1487 46.3824 83.1784 46.2127 84.2081C46.0824 83.8674 45.5141 82.5598 45.4589 82.4697C44.7721 81.2952 42.7317 79.3846 41.2162 79.7056C40.966 79.7658 40.7313 79.8776 40.5275 80.0337C40.3237 80.1898 40.1553 80.3867 40.0332 80.6115C39.9111 80.8364 39.8381 81.0843 39.8189 81.339C39.7997 81.5937 39.8347 81.8495 39.9217 82.0899C40.2572 83.1236 41.4056 83.8205 42.3844 84.1611C43.4816 84.5526 45.9877 84.3138 46.2008 84.2942C46.1219 84.7601 46.0469 85.2299 45.968 85.6998C45.7036 87.2267 45.4352 88.7614 45.2181 90.2805C45.1392 90.8091 45.0839 91.3298 45.0287 91.8466C44.8195 91.3415 44.4209 90.4332 44.3775 90.3588C43.6868 89.1843 41.6464 87.2697 40.1309 87.5947C39.8806 87.6549 39.646 87.7667 39.4422 87.9228C39.2384 88.0789 39.07 88.2758 38.9479 88.5006C38.8258 88.7255 38.7528 88.9734 38.7335 89.2281C38.7143 89.4828 38.7494 89.7386 38.8364 89.979C39.1718 91.0127 40.3203 91.7096 41.2991 92.0502C42.2778 92.3908 44.3893 92.242 44.9853 92.195C44.8945 93.0642 44.8274 93.9295 44.7998 94.783C44.7998 95.151 44.7642 95.5308 44.7998 95.8832C44.8353 96.2355 44.7998 96.5957 44.8234 96.9442C44.8708 97.6685 44.9063 98.3419 44.9655 99.0153C44.9931 99.3559 45.0247 99.677 45.0563 100.006C44.9221 99.4656 44.6932 98.6081 44.6616 98.5337C44.1604 97.2535 42.4357 95.0727 40.8847 95.1628C40.6283 95.1855 40.3795 95.2613 40.1545 95.3854C39.9295 95.5096 39.7333 95.6791 39.5785 95.8832C39.4238 96.0873 39.3139 96.3213 39.2561 96.5702C39.1983 96.819 39.1938 97.0772 39.2429 97.3279C39.4165 98.3967 40.4269 99.262 41.3583 99.7435C42.3686 100.272 44.7958 100.429 45.0918 100.448C45.1708 101.255 45.2576 102.042 45.3483 102.774C45.6404 105.1 45.968 107.022 46.2166 108.369C46.4653 109.716 46.6429 110.479 46.6429 110.479C46.6548 110.553 46.682 110.623 46.7228 110.686C46.7636 110.749 46.8171 110.803 46.88 110.844C46.9428 110.885 47.0136 110.913 47.0878 110.926C47.1621 110.939 47.2382 110.936 47.3113 110.918C47.3845 110.9 47.4531 110.867 47.5128 110.822C47.5725 110.776 47.6221 110.719 47.6583 110.653C47.6945 110.588 47.7166 110.515 47.7232 110.441C47.7298 110.366 47.7207 110.291 47.6966 110.221C47.6966 110.221 47.4914 109.504 47.2151 108.177Z" fill="black"/>
<path d="M45.8891 70.1368C45.8891 70.1368 48.4939 69.3538 49.3976 68.5434C50.187 67.8621 50.9763 66.7776 50.8619 65.6931C50.8495 65.4382 50.7831 65.1887 50.6671 64.9609C50.551 64.7331 50.3879 64.5322 50.1883 64.3711C49.9887 64.2101 49.7572 64.0925 49.5087 64.0262C49.2603 63.9598 49.0006 63.9462 48.7464 63.9861C47.223 64.268 46.0746 66.7972 45.9009 68.1597C45.8851 68.2771 45.8614 70.1447 45.8891 70.1368Z" fill="black"/>
</g>
<path d="M130.683 117.945C130.734 130.212 140.573 140.117 140.573 140.117C140.573 140.117 150.33 130.129 150.274 117.863C150.219 105.597 140.404 95.6914 140.404 95.6914C140.404 95.6914 130.628 105.679 130.683 117.945Z" fill="#407BFF"/>
<path d="M140.574 140.117L140.384 95.6914" stroke="white" stroke-width="0.910297" stroke-miterlimit="10"/>
<path d="M140.451 111.481L134.946 106.756" stroke="white" stroke-width="0.910297" stroke-miterlimit="10"/>
<path d="M140.569 118.822L147.318 109.034" stroke="white" stroke-width="0.910297" stroke-miterlimit="10"/>
<path d="M140.502 123.055L132.372 115.921" stroke="white" stroke-width="0.910297" stroke-miterlimit="10"/>
<path d="M140.613 128.755L148.593 121.637" stroke="white" stroke-width="0.910297" stroke-miterlimit="10"/>
<path d="M140.633 133.677L134.346 128.783" stroke="white" stroke-width="0.910297" stroke-miterlimit="10"/>
<path d="M123.978 136.879C128.757 142.196 136.852 142.752 136.852 142.752C136.852 142.752 137.211 134.698 132.432 129.397C127.652 124.096 119.542 123.556 119.542 123.556C119.542 123.556 119.198 131.594 123.978 136.879Z" fill="#407BFF"/>
<path d="M136.868 142.736L119.557 123.54" stroke="white" stroke-width="0.910297" stroke-miterlimit="10"/>
<path d="M125.71 130.36L121.487 130.412" stroke="white" stroke-width="0.910297" stroke-miterlimit="10"/>
<path d="M128.607 133.5L127.739 126.68" stroke="white" stroke-width="0.910297" stroke-miterlimit="10"/>
<path d="M130.217 135.364L123.927 135.372" stroke="white" stroke-width="0.910297" stroke-miterlimit="10"/>
<path d="M132.479 137.791L133.182 131.66" stroke="white" stroke-width="0.910297" stroke-miterlimit="10"/>
<path d="M134.397 139.921L129.771 140.196" stroke="white" stroke-width="0.910297" stroke-miterlimit="10"/>
<path d="M148.905 129.123C143.932 134.248 143.995 142.31 143.995 142.31C143.995 142.31 152.117 142.063 157.09 136.938C162.063 131.813 162 123.752 162 123.752C162 123.752 153.878 123.998 148.905 129.123Z" fill="#407BFF"/>
<path d="M143.995 142.31L162 123.752" stroke="white" stroke-width="0.910297" stroke-miterlimit="10"/>
<path d="M155.603 130.349L155.235 126.175" stroke="white" stroke-width="0.910297" stroke-miterlimit="10"/>
<path d="M152.662 133.449L159.454 132.083" stroke="white" stroke-width="0.910297" stroke-miterlimit="10"/>
<path d="M150.91 135.184L150.432 128.959" stroke="white" stroke-width="0.910297" stroke-miterlimit="10"/>
<path d="M148.636 137.599L154.852 137.835" stroke="white" stroke-width="0.910297" stroke-miterlimit="10"/>
<path d="M146.64 139.655L146.016 135.098" stroke="white" stroke-width="0.910297" stroke-miterlimit="10"/>
<g opacity="0.1">
<path d="M130.683 117.945C130.734 130.212 140.573 140.117 140.573 140.117C140.573 140.117 150.33 130.129 150.274 117.863C150.219 105.597 140.404 95.6914 140.404 95.6914C140.404 95.6914 130.628 105.679 130.683 117.945Z" fill="black"/>
<path d="M123.978 136.879C128.757 142.196 136.852 142.752 136.852 142.752C136.852 142.752 137.211 134.699 132.432 129.397C127.652 124.096 119.542 123.556 119.542 123.556C119.542 123.556 119.198 131.594 123.978 136.879Z" fill="black"/>
<path d="M148.905 129.123C143.932 134.248 143.995 142.31 143.995 142.31C143.995 142.31 152.118 142.063 157.09 136.938C162.063 131.813 162 123.752 162 123.752C162 123.752 153.878 123.998 148.905 129.123Z" fill="black"/>
</g>
<path d="M133.485 17.7712H36.1289V142.082H133.485V17.7712Z" fill="white" stroke="#263238" stroke-width="0.987488" stroke-linecap="round" stroke-linejoin="round"/>
<g style="mix-blend-mode:multiply">
<path d="M51.659 17.7712H36.1289V142.082H51.659V17.7712Z" fill="#407BFF"/>
</g>
<path d="M111.854 36.1375H81.9971V39.622H111.854V36.1375Z" fill="#407BFF" stroke="#263238" stroke-width="0.987488" stroke-linecap="round" stroke-linejoin="round"/>
<path d="M130.221 65.8263H48.3793V69.3108H130.221V65.8263Z" fill="#407BFF"/>
<path d="M130.221 113.717H48.3793V117.201H130.221V113.717Z" fill="#407BFF"/>
<path d="M100.815 42.1395H81.9971V45.624H100.815V42.1395Z" fill="#407BFF" stroke="#263238" stroke-width="0.987488" stroke-linecap="round" stroke-linejoin="round"/>
<path d="M100.815 48.0161H81.9971V51.5006H100.815V48.0161Z" fill="#407BFF" stroke="#263238" stroke-width="0.987488" stroke-linecap="round" stroke-linejoin="round"/>
<path d="M79.408 73.1477H77.4702V75.0701H79.408V73.1477Z" fill="#407BFF" stroke="#263238" stroke-width="0.987488" stroke-linecap="round" stroke-linejoin="round"/>
<path d="M79.408 97.8722H77.4702V99.7946H79.408V97.8722Z" fill="#407BFF" stroke="#263238" stroke-width="0.987488" stroke-linecap="round" stroke-linejoin="round"/>
<path d="M106.754 73.1477H104.817V75.0701H106.754V73.1477Z" fill="#407BFF" stroke="#263238" stroke-width="0.987488" stroke-linecap="round" stroke-linejoin="round"/>
<path d="M106.754 97.8722H104.817V99.7946H106.754V97.8722Z" fill="#407BFF" stroke="#263238" stroke-width="0.987488" stroke-linecap="round" stroke-linejoin="round"/>
<path d="M133.485 17.7712H36.1289V24.0943H133.485V17.7712Z" fill="#263238" stroke="#263238" stroke-width="0.987488" stroke-linecap="round" stroke-linejoin="round"/>
<path d="M99.686 74.4829H82.5496C82.4031 74.4829 82.2625 74.4251 82.1589 74.3223C82.0553 74.2195 81.9971 74.0801 81.9971 73.9347C81.9971 73.7893 82.0553 73.6499 82.1589 73.5471C82.2625 73.4443 82.4031 73.3866 82.5496 73.3866H99.686C99.8326 73.3866 99.9731 73.4443 100.077 73.5471C100.18 73.6499 100.239 73.7893 100.239 73.9347C100.239 74.0801 100.18 74.2195 100.077 74.3223C99.9731 74.4251 99.8326 74.4829 99.686 74.4829Z" fill="#263238"/>
<path d="M99.686 77.2274H82.5496C82.4027 77.2263 82.2622 77.1677 82.1587 77.0643C82.0552 76.9609 81.9971 76.8211 81.9971 76.6753C81.9971 76.53 82.0553 76.3905 82.1589 76.2877C82.2625 76.1849 82.4031 76.1272 82.5496 76.1272H99.686C99.8326 76.1272 99.9731 76.1849 100.077 76.2877C100.18 76.3905 100.239 76.53 100.239 76.6753C100.239 76.8211 100.18 76.9609 100.077 77.0643C99.9734 77.1677 99.8329 77.2263 99.686 77.2274Z" fill="#263238"/>
<path d="M99.686 79.9678H82.5496C82.4031 79.9678 82.2625 79.9101 82.1589 79.8073C82.0553 79.7045 81.9971 79.5651 81.9971 79.4197C81.9971 79.2743 82.0553 79.1349 82.1589 79.0321C82.2625 78.9293 82.4031 78.8716 82.5496 78.8716H99.686C99.8326 78.8716 99.9731 78.9293 100.077 79.0321C100.18 79.1349 100.239 79.2743 100.239 79.4197C100.239 79.5651 100.18 79.7045 100.077 79.8073C99.9731 79.9101 99.8326 79.9678 99.686 79.9678Z" fill="#263238"/>
<path d="M99.686 82.7086H82.5496C82.4031 82.7086 82.2625 82.6508 82.1589 82.548C82.0553 82.4452 81.9971 82.3058 81.9971 82.1604C81.9971 82.0151 82.0553 81.8756 82.1589 81.7729C82.2625 81.6701 82.4031 81.6123 82.5496 81.6123H99.686C99.8326 81.6123 99.9731 81.6701 100.077 81.7729C100.18 81.8756 100.239 82.0151 100.239 82.1604C100.239 82.3058 100.18 82.4452 100.077 82.548C99.9731 82.6508 99.8326 82.7086 99.686 82.7086Z" fill="#263238"/>
<path d="M99.686 85.4493H82.5496C82.4031 85.4493 82.2625 85.3915 82.1589 85.2887C82.0553 85.1859 81.9971 85.0465 81.9971 84.9012C81.9971 84.7558 82.0553 84.6164 82.1589 84.5136C82.2625 84.4108 82.4031 84.353 82.5496 84.353H99.686C99.8326 84.353 99.9731 84.4108 100.077 84.5136C100.18 84.6164 100.239 84.7558 100.239 84.9012C100.239 85.0465 100.18 85.1859 100.077 85.2887C99.9731 85.3915 99.8326 85.4493 99.686 85.4493Z" fill="#263238"/>
<path d="M125.608 74.4829H108.471C108.325 74.4829 108.184 74.4251 108.081 74.3223C107.977 74.2195 107.919 74.0801 107.919 73.9347C107.919 73.7893 107.977 73.6499 108.081 73.5471C108.184 73.4443 108.325 73.3866 108.471 73.3866H125.608C125.754 73.3866 125.895 73.4443 125.998 73.5471C126.102 73.6499 126.16 73.7893 126.16 73.9347C126.16 74.0801 126.102 74.2195 125.998 74.3223C125.895 74.4251 125.754 74.4829 125.608 74.4829Z" fill="#263238"/>
<path d="M125.608 77.2274H108.471C108.324 77.2263 108.184 77.1677 108.08 77.0643C107.977 76.9609 107.919 76.8211 107.919 76.6753C107.919 76.53 107.977 76.3905 108.081 76.2877C108.184 76.1849 108.325 76.1272 108.471 76.1272H125.608C125.754 76.1272 125.895 76.1849 125.998 76.2877C126.102 76.3905 126.16 76.53 126.16 76.6753C126.16 76.8211 126.102 76.9609 125.999 77.0643C125.895 77.1677 125.755 77.2263 125.608 77.2274Z" fill="#263238"/>
<path d="M125.608 79.9678H108.471C108.325 79.9678 108.184 79.9101 108.081 79.8073C107.977 79.7045 107.919 79.5651 107.919 79.4197C107.919 79.2743 107.977 79.1349 108.081 79.0321C108.184 78.9293 108.325 78.8716 108.471 78.8716H125.608C125.754 78.8716 125.895 78.9293 125.998 79.0321C126.102 79.1349 126.16 79.2743 126.16 79.4197C126.16 79.5651 126.102 79.7045 125.998 79.8073C125.895 79.9101 125.754 79.9678 125.608 79.9678Z" fill="#263238"/>
<path d="M125.608 82.7086H108.471C108.325 82.7086 108.184 82.6508 108.081 82.548C107.977 82.4452 107.919 82.3058 107.919 82.1604C107.919 82.0151 107.977 81.8756 108.081 81.7729C108.184 81.6701 108.325 81.6123 108.471 81.6123H125.608C125.754 81.6123 125.895 81.6701 125.998 81.7729C126.102 81.8756 126.16 82.0151 126.16 82.1604C126.16 82.3058 126.102 82.4452 125.998 82.548C125.895 82.6508 125.754 82.7086 125.608 82.7086Z" fill="#263238"/>
<path d="M125.608 85.4493H108.471C108.325 85.4493 108.184 85.3915 108.081 85.2887C107.977 85.1859 107.919 85.0465 107.919 84.9012C107.919 84.7558 107.977 84.6164 108.081 84.5136C108.184 84.4108 108.325 84.353 108.471 84.353H125.608C125.754 84.353 125.895 84.4108 125.998 84.5136C126.102 84.6164 126.16 84.7558 126.16 84.9012C126.16 85.0465 126.102 85.1859 125.998 85.2887C125.895 85.3915 125.754 85.4493 125.608 85.4493Z" fill="#263238"/>
<path d="M99.686 98.7961H82.5496C82.4027 98.7951 82.2622 98.7364 82.1587 98.633C82.0552 98.5296 81.9971 98.3898 81.9971 98.244C81.9971 98.0987 82.0553 97.9593 82.1589 97.8565C82.2625 97.7537 82.4031 97.6959 82.5496 97.6959H99.686C99.8326 97.6959 99.9731 97.7537 100.077 97.8565C100.18 97.9593 100.239 98.0987 100.239 98.244C100.239 98.3898 100.18 98.5296 100.077 98.633C99.9734 98.7364 99.8329 98.7951 99.686 98.7961Z" fill="#263238"/>
<path d="M99.686 101.537H82.5496C82.4031 101.537 82.2625 101.479 82.1589 101.376C82.0553 101.273 81.9971 101.134 81.9971 100.989C81.9971 100.843 82.0553 100.704 82.1589 100.601C82.2625 100.498 82.4031 100.44 82.5496 100.44H99.686C99.8326 100.44 99.9731 100.498 100.077 100.601C100.18 100.704 100.239 100.843 100.239 100.989C100.239 101.134 100.18 101.273 100.077 101.376C99.9731 101.479 99.8326 101.537 99.686 101.537Z" fill="#263238"/>
<path d="M99.686 104.277H82.5496C82.4031 104.277 82.2625 104.22 82.1589 104.117C82.0553 104.014 81.9971 103.875 81.9971 103.729C81.9971 103.584 82.0553 103.444 82.1589 103.342C82.2625 103.239 82.4031 103.181 82.5496 103.181H99.686C99.8326 103.181 99.9731 103.239 100.077 103.342C100.18 103.444 100.239 103.584 100.239 103.729C100.239 103.875 100.18 104.014 100.077 104.117C99.9731 104.22 99.8326 104.277 99.686 104.277Z" fill="#263238"/>
<path d="M99.686 107.018H82.5496C82.4031 107.018 82.2625 106.96 82.1589 106.858C82.0553 106.755 81.9971 106.615 81.9971 106.47C81.9971 106.325 82.0553 106.185 82.1589 106.082C82.2625 105.98 82.4031 105.922 82.5496 105.922H99.686C99.8326 105.922 99.9731 105.98 100.077 106.082C100.18 106.185 100.239 106.325 100.239 106.47C100.239 106.615 100.18 106.755 100.077 106.858C99.9731 106.96 99.8326 107.018 99.686 107.018Z" fill="#263238"/>
<path d="M99.686 109.763H82.5496C82.4031 109.763 82.2625 109.705 82.1589 109.602C82.0553 109.499 81.9971 109.36 81.9971 109.214C81.9971 109.069 82.0553 108.93 82.1589 108.827C82.2625 108.724 82.4031 108.666 82.5496 108.666H99.686C99.8326 108.666 99.9731 108.724 100.077 108.827C100.18 108.93 100.239 109.069 100.239 109.214C100.239 109.36 100.18 109.499 100.077 109.602C99.9731 109.705 99.8326 109.763 99.686 109.763Z" fill="#263238"/>
<path d="M125.608 98.7961H108.471C108.324 98.7951 108.184 98.7364 108.08 98.633C107.977 98.5296 107.919 98.3898 107.919 98.244C107.919 98.0987 107.977 97.9593 108.081 97.8565C108.184 97.7537 108.325 97.6959 108.471 97.6959H125.608C125.754 97.6959 125.895 97.7537 125.998 97.8565C126.102 97.9593 126.16 98.0987 126.16 98.244C126.16 98.3898 126.102 98.5296 125.999 98.633C125.895 98.7364 125.755 98.7951 125.608 98.7961Z" fill="#263238"/>
<path d="M125.608 101.537H108.471C108.325 101.537 108.184 101.479 108.081 101.376C107.977 101.273 107.919 101.134 107.919 100.989C107.919 100.843 107.977 100.704 108.081 100.601C108.184 100.498 108.325 100.44 108.471 100.44H125.608C125.754 100.44 125.895 100.498 125.998 100.601C126.102 100.704 126.16 100.843 126.16 100.989C126.16 101.134 126.102 101.273 125.998 101.376C125.895 101.479 125.754 101.537 125.608 101.537Z" fill="#263238"/>
<path d="M125.608 104.277H108.471C108.325 104.277 108.184 104.22 108.081 104.117C107.977 104.014 107.919 103.875 107.919 103.729C107.919 103.584 107.977 103.444 108.081 103.342C108.184 103.239 108.325 103.181 108.471 103.181H125.608C125.754 103.181 125.895 103.239 125.998 103.342C126.102 103.444 126.16 103.584 126.16 103.729C126.16 103.875 126.102 104.014 125.998 104.117C125.895 104.22 125.754 104.277 125.608 104.277Z" fill="#263238"/>
<path d="M125.608 107.018H108.471C108.325 107.018 108.184 106.96 108.081 106.858C107.977 106.755 107.919 106.615 107.919 106.47C107.919 106.325 107.977 106.185 108.081 106.082C108.184 105.98 108.325 105.922 108.471 105.922H125.608C125.754 105.922 125.895 105.98 125.998 106.082C126.102 106.185 126.16 106.325 126.16 106.47C126.16 106.615 126.102 106.755 125.998 106.858C125.895 106.96 125.754 107.018 125.608 107.018Z" fill="#263238"/>
<path d="M125.608 109.763H108.471C108.325 109.763 108.184 109.705 108.081 109.602C107.977 109.499 107.919 109.36 107.919 109.214C107.919 109.069 107.977 108.93 108.081 108.827C108.184 108.724 108.325 108.666 108.471 108.666H125.608C125.754 108.666 125.895 108.724 125.998 108.827C126.102 108.93 126.16 109.069 126.16 109.214C126.16 109.36 126.102 109.499 125.998 109.602C125.895 109.705 125.754 109.763 125.608 109.763Z" fill="#263238"/>
<path d="M125.608 122.276H108.471C108.325 122.276 108.184 122.218 108.081 122.115C107.977 122.012 107.919 121.873 107.919 121.727C107.919 121.582 107.977 121.443 108.081 121.34C108.184 121.237 108.325 121.179 108.471 121.179H125.608C125.754 121.179 125.895 121.237 125.998 121.34C126.102 121.443 126.16 121.582 126.16 121.727C126.16 121.873 126.102 122.012 125.998 122.115C125.895 122.218 125.754 122.276 125.608 122.276Z" fill="#263238"/>
<path d="M125.608 125.016H108.471C108.325 125.016 108.184 124.958 108.081 124.856C107.977 124.753 107.919 124.613 107.919 124.468C107.919 124.323 107.977 124.183 108.081 124.08C108.184 123.978 108.325 123.92 108.471 123.92H125.608C125.754 123.92 125.895 123.978 125.998 124.08C126.102 124.183 126.16 124.323 126.16 124.468C126.16 124.613 126.102 124.753 125.998 124.856C125.895 124.958 125.754 125.016 125.608 125.016Z" fill="#263238"/>
<path d="M125.608 127.761H108.471C108.325 127.761 108.184 127.703 108.081 127.6C107.977 127.497 107.919 127.358 107.919 127.213C107.919 127.067 107.977 126.928 108.081 126.825C108.184 126.722 108.325 126.664 108.471 126.664H125.608C125.754 126.664 125.895 126.722 125.998 126.825C126.102 126.928 126.16 127.067 126.16 127.213C126.16 127.358 126.102 127.497 125.998 127.6C125.895 127.703 125.754 127.761 125.608 127.761Z" fill="#263238"/>
<path d="M125.608 129.405H108.471C108.166 129.405 107.919 129.651 107.919 129.953C107.919 130.256 108.166 130.501 108.471 130.501H125.608C125.913 130.501 126.16 130.256 126.16 129.953C126.16 129.651 125.913 129.405 125.608 129.405Z" fill="#263238"/>
<path d="M125.608 133.242H108.471C108.325 133.242 108.184 133.184 108.081 133.081C107.977 132.979 107.919 132.839 107.919 132.694C107.919 132.548 107.977 132.409 108.081 132.306C108.184 132.203 108.325 132.146 108.471 132.146H125.608C125.754 132.146 125.895 132.203 125.998 132.306C126.102 132.409 126.16 132.548 126.16 132.694C126.16 132.839 126.102 132.979 125.998 133.081C125.895 133.184 125.754 133.242 125.608 133.242Z" fill="#263238"/>
<path d="M123.95 90.3862C123.428 90.3864 122.922 90.5702 122.524 90.9049C122.125 91.2396 121.858 91.7036 121.772 92.2146H119.127C119.031 91.7138 118.761 91.2621 118.365 90.9372C117.969 90.6123 117.471 90.4346 116.957 90.4346C116.443 90.4346 115.945 90.6123 115.548 90.9372C115.152 91.2621 114.883 91.7138 114.786 92.2146H112.142C112.045 91.7138 111.775 91.2621 111.379 90.9372C110.983 90.6123 110.485 90.4346 109.971 90.4346C109.457 90.4346 108.959 90.6123 108.563 90.9372C108.167 91.2621 107.897 91.7138 107.8 92.2146H105.121C105.028 91.7103 104.76 91.2541 104.364 90.9256C103.967 90.5971 103.467 90.4172 102.95 90.4172C102.433 90.4172 101.933 90.5971 101.536 90.9256C101.139 91.2541 100.872 91.7103 100.779 92.2146H98.131C98.0387 91.7103 97.7708 91.2541 97.3741 90.9256C96.9774 90.5971 96.4771 90.4172 95.9604 90.4172C95.4436 90.4172 94.9433 90.5971 94.5466 90.9256C94.1499 91.2541 93.882 91.7103 93.7897 92.2146H91.1415C91.0491 91.7103 90.7813 91.2541 90.3846 90.9256C89.9879 90.5971 89.4875 90.4172 88.9708 90.4172C88.4541 90.4172 87.9538 90.5971 87.5571 90.9256C87.1604 91.2541 86.8925 91.7103 86.8001 92.2146H84.1519C84.0594 91.6727 83.7651 91.1849 83.3272 90.8481C82.8893 90.5112 82.3398 90.3498 81.7877 90.3959C81.2355 90.4419 80.7209 90.6921 80.3459 91.0967C79.9708 91.5014 79.7627 92.031 79.7627 92.5807C79.7627 93.1304 79.9708 93.66 80.3459 94.0647C80.7209 94.4693 81.2355 94.7194 81.7877 94.7655C82.3398 94.8115 82.8893 94.6502 83.3272 94.3133C83.7651 93.9765 84.0594 93.4887 84.1519 92.9468H86.8001C86.8925 93.4511 87.1604 93.9073 87.5571 94.2358C87.9538 94.5643 88.4541 94.7442 88.9708 94.7442C89.4875 94.7442 89.9879 94.5643 90.3846 94.2358C90.7813 93.9073 91.0491 93.4511 91.1415 92.9468H93.7897C93.882 93.4511 94.1499 93.9073 94.5466 94.2358C94.9433 94.5643 95.4436 94.7442 95.9604 94.7442C96.4771 94.7442 96.9774 94.5643 97.3741 94.2358C97.7708 93.9073 98.0387 93.4511 98.131 92.9468H100.779C100.872 93.4511 101.139 93.9073 101.536 94.2358C101.933 94.5643 102.433 94.7442 102.95 94.7442C103.467 94.7442 103.967 94.5643 104.364 94.2358C104.76 93.9073 105.028 93.4511 105.121 92.9468H107.769C107.865 93.4476 108.135 93.8993 108.531 94.2242C108.927 94.549 109.425 94.7268 109.939 94.7268C110.453 94.7268 110.951 94.549 111.348 94.2242C111.744 93.8993 112.013 93.4476 112.11 92.9468H114.754C114.851 93.4476 115.121 93.8993 115.517 94.2242C115.913 94.549 116.411 94.7268 116.925 94.7268C117.439 94.7268 117.937 94.549 118.333 94.2242C118.729 93.8993 118.999 93.4476 119.096 92.9468H121.74C121.811 93.3588 121.999 93.7421 122.282 94.0517C122.565 94.3612 122.931 94.5841 123.337 94.694C123.744 94.804 124.173 94.7964 124.576 94.6721C124.978 94.5479 125.336 94.3123 125.608 93.9929C125.879 93.6735 126.053 93.2838 126.109 92.8696C126.165 92.4554 126.101 92.0339 125.923 91.6549C125.746 91.2759 125.463 90.9551 125.107 90.7304C124.752 90.5056 124.34 90.3862 123.919 90.3862H123.95Z" fill="#263238"/>
<path d="M72.3987 121.383C71.6616 121.382 70.9409 121.598 70.3277 122.004C69.7145 122.409 69.2364 122.986 68.9538 123.662C68.6712 124.337 68.5969 125.08 68.7402 125.797C68.8835 126.515 69.238 127.174 69.7589 127.691C70.2798 128.208 70.9436 128.56 71.6664 128.703C72.3892 128.846 73.1385 128.773 73.8196 128.494C74.5006 128.214 75.0827 127.74 75.4922 127.133C75.9018 126.525 76.1204 125.81 76.1204 125.079C76.1209 124.594 76.025 124.113 75.8382 123.665C75.6514 123.216 75.3773 122.809 75.0317 122.466C74.6861 122.122 74.2756 121.85 73.8238 121.664C73.372 121.478 72.8877 121.383 72.3987 121.383ZM72.3987 126.919C72.0307 126.92 71.6707 126.812 71.3644 126.61C71.0582 126.407 70.8193 126.119 70.6781 125.782C70.5369 125.445 70.4998 125.074 70.5714 124.716C70.643 124.358 70.8201 124.029 71.0803 123.771C71.3405 123.513 71.6721 123.337 72.033 123.266C72.394 123.195 72.7681 123.232 73.1079 123.372C73.4477 123.512 73.738 123.749 73.942 124.053C74.1459 124.357 74.2544 124.714 74.2536 125.079C74.2526 125.566 74.0568 126.034 73.7091 126.379C73.3615 126.724 72.8903 126.918 72.3987 126.919Z" fill="#407BFF" stroke="#263238" stroke-width="0.987488" stroke-linecap="round" stroke-linejoin="round"/>
<path d="M73.5078 126.547L75.2838 127.404C75.727 126.864 76.0069 126.21 76.0913 125.518C76.1756 124.826 76.0609 124.125 75.7604 123.495C75.4599 122.865 74.9859 122.333 74.3931 121.959C73.8003 121.585 73.113 121.385 72.4106 121.383V123.235C72.7983 123.239 73.1749 123.363 73.4876 123.591C73.8002 123.818 74.0333 124.137 74.1539 124.502C74.2745 124.868 74.2767 125.261 74.1601 125.628C74.0435 125.995 73.814 126.316 73.5039 126.547H73.5078Z" fill="#263238" stroke="#263238" stroke-width="0.987488" stroke-linecap="round" stroke-linejoin="round"/>
<path d="M74.1905 133.355H70.6385C70.5221 133.356 70.4067 133.334 70.299 133.29C70.1913 133.246 70.0933 133.181 70.0108 133.1C69.9283 133.018 69.8628 132.922 69.8182 132.815C69.7735 132.708 69.7505 132.594 69.7505 132.478C69.7505 132.245 69.844 132.021 70.0106 131.856C70.1771 131.69 70.403 131.598 70.6385 131.598H74.1905C74.426 131.598 74.6519 131.69 74.8184 131.856C74.9849 132.021 75.0785 132.245 75.0785 132.478C75.0785 132.594 75.0555 132.708 75.0108 132.815C74.9661 132.922 74.9007 133.018 74.8182 133.1C74.7357 133.181 74.6377 133.246 74.53 133.29C74.4223 133.334 74.3069 133.356 74.1905 133.355Z" fill="#407BFF" stroke="#263238" stroke-width="0.987488" stroke-linecap="round" stroke-linejoin="round"/>
<path d="M83.5007 121.383C82.7638 121.383 82.0435 121.6 81.4308 122.006C80.8181 122.412 80.3406 122.989 80.0586 123.664C79.7766 124.34 79.7029 125.083 79.8466 125.8C79.9904 126.517 80.3452 127.175 80.8662 127.692C81.3873 128.209 82.0511 128.561 82.7738 128.704C83.4965 128.846 84.2456 128.773 84.9264 128.493C85.6072 128.214 86.1891 127.74 86.5984 127.132C87.0078 126.524 87.2263 125.81 87.2263 125.079C87.2269 124.593 87.1308 124.112 86.9438 123.664C86.7567 123.215 86.4823 122.807 86.1363 122.464C85.7902 122.121 85.3793 121.849 84.927 121.663C84.4748 121.478 83.9901 121.382 83.5007 121.383ZM83.5007 126.919C83.1329 126.919 82.7733 126.811 82.4675 126.608C82.1618 126.405 81.9235 126.117 81.7829 125.78C81.6423 125.442 81.6058 125.071 81.6778 124.714C81.7499 124.356 81.9273 124.027 82.1877 123.77C82.448 123.512 82.7796 123.336 83.1405 123.266C83.5013 123.195 83.8752 123.232 84.2148 123.372C84.5544 123.512 84.8444 123.749 85.0482 124.053C85.252 124.357 85.3603 124.714 85.3596 125.079C85.3596 125.321 85.3114 125.56 85.218 125.784C85.1245 126.007 84.9875 126.21 84.8149 126.381C84.6422 126.552 84.4373 126.688 84.2117 126.78C83.9862 126.872 83.7446 126.919 83.5007 126.919Z" fill="#407BFF" stroke="#263238" stroke-width="0.987488" stroke-linecap="round" stroke-linejoin="round"/>
<path d="M87.2066 124.691C87.1087 123.787 86.679 122.95 85.9992 122.34C85.3194 121.73 84.4371 121.389 83.5204 121.383V123.235C84.01 123.24 84.4777 123.436 84.8221 123.782C85.1664 124.127 85.3596 124.593 85.3595 125.079C85.3555 125.15 85.3476 125.22 85.3359 125.29L87.2066 124.691Z" fill="#263238" stroke="#263238" stroke-width="0.987488" stroke-linecap="round" stroke-linejoin="round"/>
<path d="M85.2768 133.355H81.7248C81.6084 133.356 81.493 133.334 81.3853 133.29C81.2775 133.246 81.1796 133.181 81.0971 133.1C81.0146 133.018 80.9491 132.922 80.9045 132.815C80.8598 132.708 80.8368 132.594 80.8368 132.478C80.8368 132.245 80.9303 132.021 81.0969 131.856C81.2634 131.69 81.4893 131.598 81.7248 131.598H85.2768C85.5123 131.598 85.7382 131.69 85.9047 131.856C86.0712 132.021 86.1648 132.245 86.1648 132.478C86.1648 132.594 86.1418 132.708 86.0971 132.815C86.0524 132.922 85.987 133.018 85.9045 133.1C85.8219 133.181 85.724 133.246 85.6163 133.29C85.5086 133.334 85.3932 133.356 85.2768 133.355Z" fill="#407BFF" stroke="#263238" stroke-width="0.987488" stroke-linecap="round" stroke-linejoin="round"/>
<path d="M94.6697 121.383C93.9329 121.383 93.2126 121.6 92.5999 122.006C91.9872 122.412 91.5097 122.989 91.2277 123.664C90.9457 124.34 90.8719 125.083 91.0157 125.8C91.1594 126.517 91.5143 127.175 92.0353 127.692C92.5564 128.209 93.2202 128.561 93.9429 128.704C94.6656 128.846 95.4147 128.773 96.0955 128.493C96.7763 128.214 97.3581 127.74 97.7675 127.132C98.1769 126.524 98.3954 125.81 98.3954 125.079C98.3959 124.593 98.2999 124.112 98.1129 123.664C97.9258 123.215 97.6514 122.807 97.3053 122.464C96.9593 122.121 96.5484 121.849 96.0961 121.663C95.6439 121.478 95.1591 121.382 94.6697 121.383ZM94.6697 126.919C94.3019 126.919 93.9424 126.811 93.6366 126.608C93.3308 126.405 93.0926 126.117 92.952 125.78C92.8114 125.442 92.7748 125.071 92.8469 124.714C92.9189 124.356 93.0964 124.027 93.3567 123.77C93.6171 123.512 93.9487 123.336 94.3095 123.266C94.6704 123.195 95.0442 123.232 95.3838 123.372C95.7234 123.512 96.0135 123.749 96.2173 124.053C96.421 124.357 96.5294 124.714 96.5286 125.079C96.5286 125.321 96.4805 125.56 96.387 125.784C96.2936 126.007 96.1566 126.21 95.9839 126.381C95.8113 126.552 95.6063 126.688 95.3808 126.78C95.1553 126.872 94.9137 126.919 94.6697 126.919Z" fill="#407BFF" stroke="#263238" stroke-width="0.987488" stroke-linecap="round" stroke-linejoin="round"/>
<path d="M94.6896 121.383V123.235C95.0024 123.235 95.31 123.314 95.584 123.464C95.858 123.614 96.0894 123.83 96.2568 124.092C96.4243 124.354 96.5223 124.654 96.5419 124.963C96.5615 125.273 96.502 125.583 96.3689 125.863C96.2358 126.144 96.0334 126.387 95.7805 126.57C95.5275 126.752 95.2322 126.869 94.9219 126.908C94.6116 126.947 94.2963 126.908 94.0053 126.794C93.7142 126.681 93.4569 126.496 93.2569 126.257L91.7809 127.4C92.1762 127.884 92.6885 128.261 93.2699 128.495C93.8513 128.73 94.4831 128.814 95.1064 128.742C95.7298 128.669 96.3244 128.441 96.8351 128.079C97.3458 127.717 97.7559 127.233 98.0272 126.671C98.2986 126.11 98.4225 125.489 98.3872 124.868C98.352 124.246 98.1589 123.643 97.8258 123.116C97.4928 122.588 97.0306 122.152 96.4822 121.849C95.9339 121.546 95.3172 121.386 94.6896 121.383Z" fill="#263238" stroke="#263238" stroke-width="0.987488" stroke-linecap="round" stroke-linejoin="round"/>
<path d="M96.4459 133.355H92.8939C92.7774 133.356 92.6621 133.334 92.5543 133.29C92.4466 133.246 92.3487 133.181 92.2662 133.1C92.1837 133.018 92.1182 132.922 92.0735 132.815C92.0289 132.708 92.0059 132.594 92.0059 132.478C92.0053 132.363 92.028 132.248 92.0724 132.141C92.1168 132.034 92.1822 131.936 92.2648 131.854C92.3474 131.772 92.4455 131.708 92.5534 131.664C92.6614 131.619 92.7771 131.597 92.8939 131.598H96.4459C96.6814 131.598 96.9072 131.69 97.0738 131.856C97.2403 132.021 97.3339 132.245 97.3339 132.478C97.3339 132.594 97.3109 132.708 97.2662 132.815C97.2215 132.922 97.1561 133.018 97.0735 133.1C96.991 133.181 96.8931 133.246 96.7854 133.29C96.6777 133.334 96.5623 133.356 96.4459 133.355Z" fill="#407BFF" stroke="#263238" stroke-width="0.987488" stroke-linecap="round" stroke-linejoin="round"/>
<path d="M56.4187 64.4168C65.6257 64.4168 73.0895 57.0126 73.0895 47.8791C73.0895 38.7455 65.6257 31.3413 56.4187 31.3413C47.2118 31.3413 39.748 38.7455 39.748 47.8791C39.748 57.0126 47.2118 64.4168 56.4187 64.4168Z" fill="white"/>
<path d="M61.4705 139.886C61.4705 139.886 63.8779 143.476 63.5464 144.897C63.2149 146.319 61.0995 145.88 60.097 144.349C59.0946 142.818 56.545 140.532 57.0068 139.549C57.4685 138.566 60.5706 139.013 61.4705 139.886Z" fill="white" stroke="#263238" stroke-width="1.02307" stroke-linecap="round" stroke-linejoin="round"/>
<path d="M51.1263 139.686C51.1263 139.686 48.2176 143.97 48.6833 145.14C49.149 146.311 50.6566 145.962 51.8091 144.905C52.9615 143.848 55.2624 140.881 55.2624 140.881C55.2624 140.881 53.3285 138.516 51.1263 139.686Z" fill="white" stroke="#263238" stroke-width="1.02307" stroke-linecap="round" stroke-linejoin="round"/>
<path d="M48.6832 145.14C49.472 145.248 50.2746 145.092 50.9644 144.698C52.2905 144.032 54.6032 141.029 54.6032 141.029" stroke="#263238" stroke-width="0.767303" stroke-linecap="round" stroke-linejoin="round"/>
<path d="M57.8159 140.266C57.8159 140.266 59.0749 142.615 60.4918 143.946C61.9086 145.277 62.6032 145.657 63.5346 144.898" stroke="#263238" stroke-width="0.767303" stroke-linecap="round" stroke-linejoin="round"/>
<path d="M47.0415 86.2362C47.0415 86.2362 44.4959 91.3886 44.6103 93.495C44.7248 95.6013 45.1905 106.258 45.8851 109.77C46.5797 113.282 47.2625 122.029 47.7361 125.525C48.2097 129.021 51.2447 137.212 51.2447 137.212C51.2447 137.212 50.7789 139.087 51.1263 139.671C51.4736 140.254 55.1479 141.217 55.2624 140.865C55.3768 140.512 55.957 139.459 56.0517 138.406C56.1464 137.353 54.4336 126.112 55.1282 123.654C55.8228 121.195 55.957 104.665 56.0517 102.962C56.1464 101.259 56.0241 98.2637 56.0241 98.2637C56.2305 98.3267 56.4511 98.3272 56.6578 98.2651C56.8645 98.2031 57.0479 98.0812 57.1844 97.9152C57.6461 97.3279 59.1775 113.243 59.6432 116.99C60.1089 120.737 59.063 121.79 58.7157 124.131C58.3684 126.473 57.5593 134.08 57.5593 135.019C57.5593 135.959 56.5174 138.997 56.9792 139.585C57.4409 140.172 58.4236 140.074 58.8262 140.184C60.0339 140.516 60.9771 139.996 61.4389 139.878C61.9007 139.761 62.2914 138.065 62.2914 138.065C62.2914 138.065 66.0091 127.643 66.7037 123.309C67.3984 118.975 68.5547 110.933 68.3258 106.016C68.0969 101.098 66.7037 91.138 66.7037 91.138L66.3564 88.2095L47.0415 86.2362Z" fill="#263238" stroke="#263238" stroke-width="1.02307" stroke-linecap="round" stroke-linejoin="round"/>
<path d="M45.4154 92.1952C45.4154 92.1952 45.1905 95.0846 47.0967 96.9717" stroke="white" stroke-width="0.506629" stroke-linecap="round" stroke-linejoin="round"/>
<path d="M45.526 96.3062C45.526 96.3062 46.6469 98.1972 47.9927 98.4164" stroke="white" stroke-width="0.506629" stroke-linecap="round" stroke-linejoin="round"/>
<path d="M54.485 127.925C54.485 127.925 52.9063 131.66 52.6932 133.7C52.4801 135.74 54.485 134.945 54.9349 136.304C55.3848 137.662 52.2472 137.552 52.8076 137.889C53.3681 138.226 55.0454 138.457 55.0454 138.457" stroke="white" stroke-width="0.511535" stroke-linecap="round" stroke-linejoin="round"/>
<path d="M57.5238 137.212C57.8593 137.098 61.6678 136.429 61.2179 134.381C60.768 132.334 58.5302 132.228 58.8499 129.851C59.1696 127.475 62.6545 122.26 62.6545 120.788C62.6545 119.316 60.1917 113.831 59.9668 110.432" stroke="white" stroke-width="0.511535" stroke-linecap="round" stroke-linejoin="round"/>
<path d="M62.9978 91.9758C62.9978 91.9758 60.4207 95.6404 60.0852 96.1964C59.7497 96.7524 63.1083 93.7533 63.1083 93.7533" stroke="white" stroke-width="0.506629" stroke-linecap="round" stroke-linejoin="round"/>
<path d="M56.257 90.6799C56.257 90.6799 56.5375 93.3579 56.5375 93.91V96.9599" stroke="white" stroke-width="0.506629" stroke-linecap="round" stroke-linejoin="round"/>
<path d="M56.5371 95.2999C56.5371 95.2999 57.7487 95.1159 58.025 94.1919C58.3013 93.2679 58.2144 91.4199 58.2144 91.4199" stroke="white" stroke-width="0.506629" stroke-linecap="round" stroke-linejoin="round"/>
<path d="M79.9212 58.9043C78.532 54.8834 78.2991 52.7026 78.1847 51.5555C78.0702 50.4083 76.7954 50.7489 76.7954 50.7489C76.7954 50.7489 74.0328 52.3581 74.0328 52.7065C74.0328 53.055 75.3076 61.551 75.5365 63.0426C75.6755 63.9172 75.7533 64.8002 75.7693 65.6854C75.7693 65.6854 70.907 60.5173 69.6322 59.2527C68.6614 58.2857 67.8918 57.4596 67.0669 56.9663C66.6209 56.5747 65.8474 56.4299 64.6555 56.0384C62.5717 55.3493 60.3734 53.7402 57.8238 53.8537C56.15 53.9677 54.5069 54.3567 52.9615 55.0048C52.9615 55.0048 49.2596 56.7274 46.71 57.8746C46.4131 58.0061 46.1313 58.1689 45.8694 58.3601C45.451 58.3092 44.5788 58.5323 43.5843 60.7444C42.199 63.8453 35.9475 72.0006 34.9016 74.8704C33.8557 77.7403 36.058 80.614 38.4891 82.9083C40.2432 84.6194 41.9044 86.4216 43.4659 88.3074L46.2285 84.9325C46.3067 85.6834 46.4386 86.4279 46.6232 87.1602C46.9705 88.3074 48.1269 89.572 52.7603 89.9009C57.3936 90.2297 67.801 90.864 67.4616 88.5227C66.984 85.1948 67.2287 74.5102 66.9998 71.6404C66.932 69.7996 66.9703 67.9565 67.1143 66.12C67.6471 66.7895 68.6929 68.0306 69.4231 68.52C70.465 69.2091 74.8695 72.4352 76.606 73.1321C78.3425 73.829 80.7737 72.674 81.8156 70.3915C82.8575 68.1089 81.3104 62.9252 79.9212 58.9043ZM42.1832 77.9673C41.7175 76.1311 41.4886 75.4421 41.4886 75.4421C41.4886 75.4421 44.4565 72.2707 45.8852 70.5794C46.0786 75.1171 46.2009 80.0816 46.0667 80.8098C45.9614 82.0307 45.9892 83.2594 46.1496 84.4744C45.376 83.4212 42.5779 79.5491 42.1832 77.9673Z" fill="#407BFF" stroke="#263238" stroke-width="1.01326" stroke-linecap="round" stroke-linejoin="round"/>
<path opacity="0.1" d="M79.9212 58.9043C78.532 54.8834 78.2991 52.7026 78.1847 51.5555C78.0702 50.4083 76.7954 50.7489 76.7954 50.7489C76.7954 50.7489 74.0328 52.3581 74.0328 52.7065C74.0328 53.055 75.3076 61.551 75.5365 63.0426C75.6755 63.9172 75.7533 64.8002 75.7693 65.6854C75.7693 65.6854 70.907 60.5173 69.6322 59.2527C68.6614 58.2857 67.8918 57.4596 67.0669 56.9663C66.6209 56.5747 65.8474 56.4299 64.6555 56.0384C62.5717 55.3493 60.3734 53.7402 57.8238 53.8537C56.15 53.9677 54.5069 54.3567 52.9615 55.0048C52.9615 55.0048 49.2596 56.7274 46.71 57.8746C46.4131 58.0061 46.1313 58.1689 45.8694 58.3601C45.451 58.3092 44.5788 58.5323 43.5843 60.7444C42.199 63.8453 35.9475 72.0006 34.9016 74.8704C33.8557 77.7403 36.058 80.614 38.4891 82.9083C40.2432 84.6194 41.9044 86.4216 43.4659 88.3074L46.2285 84.9325C46.3067 85.6834 46.4386 86.4279 46.6232 87.1602C46.9705 88.3074 48.1269 89.572 52.7603 89.9009C57.3936 90.2297 67.801 90.864 67.4616 88.5227C66.984 85.1948 67.2287 74.5102 66.9998 71.6404C66.932 69.7996 66.9703 67.9565 67.1143 66.12C67.6471 66.7895 68.6929 68.0306 69.4231 68.52C70.465 69.2091 74.8695 72.4352 76.606 73.1321C78.3425 73.829 80.7737 72.674 81.8156 70.3915C82.8575 68.1089 81.3104 62.9252 79.9212 58.9043ZM42.1832 77.9673C41.7175 76.1311 41.4886 75.4421 41.4886 75.4421C41.4886 75.4421 44.4565 72.2707 45.8852 70.5794C46.0786 75.1171 46.2009 80.0816 46.0667 80.8098C45.9614 82.0307 45.9892 83.2594 46.1496 84.4744C45.376 83.4212 42.5779 79.5491 42.1832 77.9673Z" fill="black"/>
<path d="M47.3177 70.086C48.0506 68.9947 48.6883 67.8434 49.224 66.6445" stroke="#263238" stroke-width="0.759943" stroke-linecap="round" stroke-linejoin="round"/>
<path d="M50.2302 66.9774C49.9623 67.5313 49.5805 68.0234 49.1094 68.4221" stroke="#263238" stroke-width="0.759943" stroke-linecap="round" stroke-linejoin="round"/>
<path d="M75.7534 65.6814C75.769 66.3431 75.9165 66.9951 76.1874 67.5999C76.4584 68.2047 76.8474 68.7502 77.3321 69.2051" stroke="#263238" stroke-width="1.01326" stroke-linecap="round" stroke-linejoin="round"/>
<path d="M76.2113 67.5334C76.117 68.5784 76.3531 69.6265 76.8871 70.5325" stroke="#263238" stroke-width="1.01326" stroke-linecap="round" stroke-linejoin="round"/>
<path d="M41.4885 75.442C41.4885 75.442 40.636 74.6394 38.5325 74.9878" stroke="#263238" stroke-width="0.759943" stroke-linecap="round" stroke-linejoin="round"/>
<path d="M37.3682 74.5259C37.3682 74.5259 37.9523 73.598 40.1664 74.2909" stroke="#263238" stroke-width="0.759943" stroke-linecap="round" stroke-linejoin="round"/>
<path d="M69.5769 62.6003C69.1111 62.7139 67.126 66.0731 67.126 66.0731L71.9133 64.8007" stroke="#263238" stroke-width="0.759943" stroke-linecap="round" stroke-linejoin="round"/>
<path d="M55.8307 60.3099C55.8307 60.3099 56.7266 61.5314 58.7433 60.9794C60.7601 60.4273 61.431 58.3131 61.1113 56.978C60.7916 55.643 54.0389 56.7549 55.8307 60.3099Z" fill="white" stroke="#263238" stroke-width="1.01326" stroke-linecap="round" stroke-linejoin="round"/>
<path d="M53.9127 52.7027C53.9127 52.7027 52.559 53.5954 52.3814 54.4019C52.2038 55.2084 52.6497 57.7964 53.0089 58.689C53.368 59.5817 54.5441 61.6372 54.5441 61.6372C54.5441 61.6372 58.5973 59.3155 58.8855 59.1354C59.1736 58.9553 62.0428 60.5644 62.6703 60.3099C63.2978 60.0554 61.139 54.5898 60.1484 53.4309C59.1578 52.272 55.3532 51.626 53.9127 52.7027Z" fill="white" stroke="#263238" stroke-width="1.01326" stroke-linecap="round" stroke-linejoin="round"/>
<path d="M53.1824 49.7505C53.1824 49.7505 53.2731 51.1795 53.4547 53.3251C53.6362 55.4706 54.3664 57.1659 55.5504 58.1486C56.7344 59.1313 58.4314 59.6677 58.8814 59.1313C59.3313 58.5949 59.872 56.3632 59.6707 55.0203C59.4694 53.6774 59.2208 50.8232 59.2208 50.8232L53.1824 49.7505Z" fill="white" stroke="#263238" stroke-width="1.01326" stroke-linecap="round" stroke-linejoin="round"/>
<g style="mix-blend-mode:multiply" opacity="0.5">
<path d="M59.497 53.3485C59.3628 52.0996 59.2405 50.8232 59.2405 50.8232L53.1824 49.7505C53.1824 49.7505 53.2731 51.1795 53.4547 53.3251C53.5234 54.3172 53.754 55.2917 54.1375 56.2106L59.497 53.3485Z" fill="#407BFF"/>
</g>
<path d="M51.2092 47.6129C51.2092 47.6129 49.8594 46.2739 49.5871 47.4328C49.3148 48.5917 50.4001 50.3848 51.9314 49.9346V48.8657L51.2092 47.6129Z" fill="white" stroke="#263238" stroke-width="1.01326" stroke-linecap="round" stroke-linejoin="round"/>
<path opacity="0.5" d="M51.2092 47.6129C51.2092 47.6129 49.8594 46.2739 49.5871 47.4328C49.3148 48.5917 50.4001 50.3848 51.9314 49.9346V48.8657L51.2092 47.6129Z" fill="#407BFF" stroke="#263238" stroke-width="1.01326" stroke-linecap="round" stroke-linejoin="round"/>
<path d="M50.0252 45.1933C50.0252 45.1933 52.2788 51.1796 54.26 52.3425C56.2412 53.5053 60.2037 54.5741 61.2851 50.3849C62.3665 46.1956 59.4854 40.1075 58.4948 38.3182C57.5042 36.529 53.8101 35.9965 51.4697 37.7819C49.1294 39.5672 48.5966 41.2586 50.0252 45.1933Z" fill="white" stroke="#263238" stroke-width="1.01326" stroke-linecap="round" stroke-linejoin="round"/>
<g style="mix-blend-mode:multiply" opacity="0.5">
<path d="M52.5234 40.1231C53.4798 39.6842 54.5167 39.4444 55.5702 39.4183L57.8159 37.5429C56.3398 36.4154 53.439 36.2783 51.4815 37.7739C49.1371 39.5632 48.5964 41.2585 50.037 45.1932C50.037 45.1932 52.2905 51.1796 54.2717 52.3424C54.9745 52.7522 55.7356 53.0544 56.5292 53.2389C55.5741 52.0174 54.106 50.0755 53.6403 49.0849C52.9299 47.5737 52.626 44.4533 51.7104 42.6405C50.7947 40.8278 51.1026 40.8278 52.5234 40.1231Z" fill="#407BFF"/>
</g>
<path d="M57.2437 43.4041C57.2437 43.4041 58.1435 45.0132 57.7844 45.3616C57.6626 45.4659 57.5159 45.5372 57.3582 45.5687C57.2006 45.6003 57.0375 45.591 56.8845 45.5417" stroke="#263238" stroke-width="1.01326" stroke-linecap="round" stroke-linejoin="round"/>
<path d="M53.0996 43.1377C53.0996 43.1377 53.2812 42.0649 54.6309 42.0649" stroke="#263238" stroke-width="2.02651" stroke-linecap="round" stroke-linejoin="round"/>
<path d="M53.9125 44.2106C53.9125 44.2106 54.9031 44.6569 55.2622 43.6742" stroke="#263238" stroke-width="1.01326" stroke-linecap="round" stroke-linejoin="round"/>
<path d="M58.2343 43.4941C58.2343 43.4941 59.2249 43.9405 59.588 42.9578" stroke="#263238" stroke-width="1.01326" stroke-linecap="round" stroke-linejoin="round"/>
<path d="M57.4132 41.4426C57.6538 41.1994 57.9787 41.0563 58.3219 41.0425C58.665 41.0287 59.0006 41.1451 59.2602 41.3682" stroke="#263238" stroke-width="2.02651" stroke-linecap="round" stroke-linejoin="round"/>
<path d="M61.4706 46.9434C60.4208 46.4892 57.9186 45.4869 57.0819 45.9059C56.0005 46.4423 53.2063 48.3215 53.2063 49.7506C53.2063 49.7506 51.4066 47.3388 51.4066 46.4422C51.4066 45.5457 52.1249 45.2677 51.4974 44.1205C50.8699 42.9734 49.9621 42.8677 50.2345 41.5287C50.4831 40.2876 52.9734 38.9721 54.1811 38.7881C54.9356 39.4213 55.8965 39.7609 56.8846 39.7434C58.8579 39.7434 60.4879 38.4866 60.4879 36.9283C60.4879 35.3701 58.8737 34.1172 56.8846 34.1172C56.4419 34.1152 56.0014 34.1799 55.5783 34.3091C53.6917 34.172 53.3326 35.558 52.0263 36.3176C50.7199 37.0771 49.899 39.3166 49.899 39.3166H49.9543C48.9992 40.7026 49.0031 42.3744 50.0411 45.1894C50.0411 45.1894 52.2946 51.1757 54.2759 52.3385C56.2571 53.5013 60.2195 54.5702 61.3009 50.3809C61.5636 49.2543 61.6211 48.0901 61.4706 46.9434Z" fill="#263238" stroke="#263238" stroke-width="1.01326" stroke-linecap="round" stroke-linejoin="round"/>
<path d="M59.3195 46.8534C59.3195 46.8534 57.9698 48.7288 56.4385 47.4798" stroke="white" stroke-width="1.01326" stroke-linecap="round" stroke-linejoin="round"/>
<path d="M46.3469 84.7444C46.8819 85.0793 47.3523 85.5062 47.7361 86.0051C48.2064 86.6438 48.7096 87.258 49.2437 87.8452C49.2437 87.8452 50.5146 87.9588 50.4001 88.5343C50.2857 89.1098 50.0528 89.4504 49.4726 89.4504C48.8925 89.4504 47.6217 88.3033 47.6217 88.3033L45.7707 91.1731C45.7707 91.1731 44.0341 89.9124 43.454 88.3033L46.3469 84.7444Z" fill="white" stroke="#263238" stroke-width="1.01326" stroke-linecap="round" stroke-linejoin="round"/>
<path d="M56.4187 64.4168C65.6257 64.4168 73.0895 57.0126 73.0895 47.8791C73.0895 38.7455 65.6257 31.3413 56.4187 31.3413C47.2118 31.3413 39.748 38.7455 39.748 47.8791C39.748 57.0126 47.2118 64.4168 56.4187 64.4168Z" stroke="#263238" stroke-width="2.02651" stroke-linecap="round" stroke-linejoin="round"/>
<path d="M71.4713 44.6647C71.4713 44.6647 70.311 44.5472 70.0821 45.2363C69.8532 45.9254 69.502 46.6145 69.502 47.0765C69.502 47.5384 69.6164 47.8791 70.1966 47.9926C70.7767 48.1061 71.124 47.3035 71.124 47.3035L71.4713 44.6647Z" fill="white" stroke="#263238" stroke-width="1.01326" stroke-linecap="round" stroke-linejoin="round"/>
<path d="M71.7002 43.8583C71.7002 43.8583 71.124 46.9591 71.124 47.8792C71.1493 48.5866 71.3916 49.2696 71.8186 49.8368C72.0297 50.0741 72.3143 50.2353 72.6277 50.2949L73.2079 49.6058C73.2079 49.6058 72.5132 50.5258 73.4368 51.673C74.3603 52.8201 75.0588 52.7066 75.8679 52.3621C76.677 52.0175 76.9098 51.5595 76.5625 50.2949C76.2152 49.0302 75.9863 46.963 75.7535 45.7023C75.5206 44.4416 74.7115 43.9796 74.2498 43.9796C73.788 43.9796 72.5211 43.5137 71.7002 43.8583Z" fill="white" stroke="#263238" stroke-width="1.01326" stroke-linecap="round" stroke-linejoin="round"/>
<path d="M71.2779 48.5251C71.2779 48.5251 71.0726 47.8126 71.9448 47.7108C72.817 47.609 74.2576 47.4563 74.2576 47.4563" stroke="#263238" stroke-width="0.506629" stroke-linecap="round" stroke-linejoin="round"/>
<path d="M71.3807 46.6929C71.3807 46.6929 73.3817 46.18 74.1039 46.2818" stroke="#263238" stroke-width="0.506629" stroke-linecap="round" stroke-linejoin="round"/>
<path d="M71.5344 45.2644C72.281 45.1324 73.0376 45.0641 73.7959 45.0602" stroke="#263238" stroke-width="0.506629" stroke-linecap="round" stroke-linejoin="round"/>
<path d="M72.2014 49.085C72.3597 49.2263 72.5497 49.3281 72.7557 49.3819C72.9616 49.4356 73.1775 49.4399 73.3854 49.3943" stroke="#263238" stroke-width="0.506629" stroke-linecap="round" stroke-linejoin="round"/>
</svg>
