<svg width="136" height="122" viewBox="0 0 136 122" fill="none" xmlns="http://www.w3.org/2000/svg">
<rect x="13" y="8" width="110" height="106" rx="11.713" fill="#FFD135"/>
<g clip-path="url(#clip0_521_1113)">
<path d="M92.5624 24.411C88.127 26.9764 87.54 29.2211 87.54 43.3949C87.54 54.6186 87.4095 55.773 86.4311 56.0937C79.6475 58.146 73.7119 63.0203 68.9503 70.2675L66.3413 74.2439L56.5572 74.4363L46.7732 74.6287L46.5775 77.643C46.3819 80.5932 46.3819 80.6574 48.5343 80.8498L50.6868 81.1063L48.143 82.2608C45.7296 83.3511 45.4035 83.3511 43.3814 82.389C37.3153 79.5671 40.381 71.1013 47.0994 72.1274C49.1214 72.384 49.578 72.1916 50.8825 70.3316C52.2523 68.3435 52.2523 68.1511 51.2086 67.4456C50.6216 66.9966 49.1866 66.4194 47.9473 66.227C38.6851 64.4954 31.0536 74.308 35.2933 82.5173C39.533 90.6624 50.7521 91.2397 55.5136 83.5435C57.079 80.9781 57.4052 80.7857 60.0143 80.7215H62.819L60.8622 83.4793C56.3616 89.8928 51.2086 93.1637 45.4687 93.1637C38.2937 93.2278 32.0972 88.4177 30.1404 81.3629C27.0747 70.0751 38.4894 59.108 49.9041 62.3789C51.8609 62.9561 54.1438 63.9823 55.1222 64.6878C57.34 66.4194 57.8618 66.2911 59.5577 63.9181L61.0579 61.93L58.7749 60.07C55.4484 57.3122 48.5343 55.4523 43.5771 55.9654C35.9456 56.735 28.9663 61.6093 25.6397 68.5359C24.2047 71.5502 23.9438 72.897 24.0091 77.8354C24.0091 82.838 24.27 84.0565 25.7702 87.0068C28.1836 91.4962 32.032 95.216 36.5978 97.3325C39.5983 98.6793 41.1637 99 45.4687 99C49.9041 99 51.2086 98.6793 54.47 97.0759C58.8402 94.9595 65.4933 88.3536 67.9719 83.7359L69.6026 80.7215H74.3641C78.6691 80.7215 79.1257 80.8498 79.6475 82.1325C80.4955 84.3772 83.3654 87.0709 85.9093 88.1612C88.9097 89.3797 91.8449 89.2515 95.1063 87.8405C103.26 84.1848 104.173 73.0253 96.7369 68.0869C90.9318 64.2388 83.3002 66.227 79.9737 72.4481C79.1909 74.0515 78.6039 74.308 76.4514 74.308C75.0164 74.308 73.8423 74.1156 73.8423 73.9232C73.8423 73.7308 75.0816 71.9992 76.5819 70.0751C81.8652 63.4692 87.6052 60.7755 93.4104 62.1224C107.825 65.5215 111.087 83.8641 98.5633 90.919C96.7369 91.9451 93.9322 92.9713 92.3667 93.2278C88.9749 93.6768 83.3654 92.33 80.8216 90.3418C78.6691 88.6743 78.2778 88.6743 76.5166 91.0473C75.0816 92.9072 75.0816 93.0354 76.1905 94.254C76.7775 94.8954 78.93 96.2422 80.9521 97.2684C84.1482 98.7435 85.3875 99 90.4752 99C95.5629 98.9359 96.8022 98.6793 99.7374 97.2042C104.629 94.703 107.238 92.2017 109.782 87.6481C111.87 83.8641 112 83.2228 112 77.5148C112 71.8068 111.87 71.1654 109.717 67.3173C106.586 61.5451 101.89 58.146 94.2583 55.9654C93.1495 55.7089 93.0842 35.0574 94.1279 32.043C94.9106 29.7983 96.4108 28.7721 98.8894 28.7721C100.716 28.7721 101.042 28.1308 100.716 25.1806C100.455 23.0641 100.324 23 97.7153 23C96.1499 23 93.9974 23.6413 92.5624 24.411ZM92.432 72.6405C96.2151 74.1797 97.1935 78.092 94.5844 80.9781C92.3015 83.5435 89.4968 83.7359 87.0181 81.6835C83.1045 78.4768 84.7352 73.2819 90.0186 71.8068C90.0838 71.7426 91.1927 72.1274 92.432 72.6405Z" fill="black"/>
</g>
<defs>
<clipPath id="clip0_521_1113">
<rect width="88" height="76" fill="white" transform="translate(24 23)"/>
</clipPath>
</defs>
</svg>
