<svg width="136" height="122" viewBox="0 0 136 122" fill="none" xmlns="http://www.w3.org/2000/svg">
<path d="M123 61C123 76.6585 116.452 90.7852 105.95 100.823L105.933 100.839C96.05 110.225 82.696 116 68 116C37.629 116 13 91.371 13 61C13 46.3205 18.7392 32.983 28.125 23.1188C28.1415 23.083 28.1608 23.0665 28.1772 23.05C38.2148 12.5477 52.3415 6 68 6C98.371 6 123 30.629 123 61Z" fill="#6A1B9A"/>
<path d="M108 99.0368C107.483 99.6255 106.947 100.195 106.411 100.747L106.394 100.764C96.4618 110.196 83.0416 116 68.2727 116C37.7511 116 13 91.2489 13 60.7273C13 45.975 18.7677 32.5713 28.2 22.6582C28.2166 22.6223 28.2359 22.6057 28.2525 22.5891C28.8052 22.0529 29.3745 21.5196 29.9632 21L108 99.0368Z" fill="#7B1FA2"/>
<path d="M25.4916 69.9997C24.8242 70.0109 24.1823 69.7442 23.7241 69.2642C23.2519 68.801 22.9917 68.1694 23.0002 67.5097C22.9945 66.8529 23.2575 66.2213 23.7241 65.7553C24.1794 65.2669 24.8214 64.9918 25.4916 65.0002C26.1618 64.9974 26.8009 65.2725 27.259 65.7553C27.7369 66.2157 28.0027 66.8501 27.9999 67.5097C28.0056 68.1722 27.7369 68.8066 27.259 69.2642C26.7952 69.7386 26.1561 70.0053 25.4916 69.9997Z" fill="white"/>
<path d="M60 69H55.5373L39.5826 44.2767C39.1848 43.6673 38.8552 43.017 38.5936 42.3396H38.4574C38.61 43.7516 38.6672 45.1718 38.6263 46.5893V69H35V38H39.7161L55.2457 62.2825C55.8915 63.2919 56.3138 63.983 56.5045 64.3584H56.5889C56.4091 62.8457 56.3355 61.3248 56.3682 59.8012V38.0027H59.9945V69H60Z" fill="white"/>
<path d="M84.9804 69H68V38H84.1925V41.2812H71.8217V51.5873H83.3541V54.8522H71.8217V65.5991H85L84.9804 69Z" fill="white"/>
<path d="M108.997 41.2812H99.7961V69H96.0984V41.2812H87V38H109V41.2812H108.997Z" fill="white"/>
<path d="M57.9664 91.1453C56.7053 91.7524 55.3128 92.0435 53.9119 91.9936C52.0272 92.0767 50.2013 91.3505 48.8954 90.0005C47.6119 88.5757 46.9352 86.7129 47.0079 84.8029C46.9129 82.7128 47.6762 80.6754 49.1219 79.1535C50.534 77.7204 52.4858 76.9415 54.5047 77.0052C55.6987 76.9636 56.8899 77.1715 58 77.6123V79.3448C56.9318 78.7571 55.7266 78.4605 54.5047 78.4799C52.9472 78.4356 51.4456 79.0704 50.397 80.2124C49.3064 81.4432 48.7416 83.0455 48.8255 84.681C48.7444 86.2305 49.2701 87.7524 50.2935 88.9249C51.2862 89.9838 52.6983 90.5604 54.1552 90.5022C55.4974 90.5383 56.8228 90.2001 57.9832 89.532L57.9664 91.1453Z" fill="#F2F2F2"/>
<path d="M64.9484 91.9976C63.5872 92.042 62.272 91.478 61.3464 90.4528C60.4209 89.3943 59.9419 88.0024 60.0095 86.5799C59.9229 85.0768 60.429 83.5987 61.4141 82.4819C62.4181 81.4761 63.7847 80.9399 65.1866 81.0066C66.5126 80.9343 67.8035 81.4594 68.7209 82.4485C69.6194 83.5598 70.074 84.9823 69.9902 86.4243C70.0605 87.8884 69.568 89.322 68.6208 90.4195C67.6763 91.4641 66.3367 92.042 64.9484 91.9976ZM65.0675 82.4985C64.1257 82.4569 63.2164 82.8597 62.5994 83.5932C61.9499 84.4545 61.6252 85.5269 61.6847 86.616C61.6252 87.6717 61.9499 88.7108 62.5994 89.5332C63.2246 90.2556 64.1311 90.6501 65.0675 90.6112C65.9876 90.6667 66.8807 90.2833 67.4869 89.5693C68.1012 88.708 68.4016 87.6495 68.3312 86.5826C68.3989 85.5102 68.0985 84.4489 67.4869 83.5793C66.8888 82.8486 65.993 82.4513 65.0675 82.4985Z" fill="#F2F2F2"/>
<path d="M78 82.7564C77.656 82.5256 77.2482 82.4155 76.8379 82.4443C76.1855 82.4679 75.5892 82.8245 75.2452 83.3961C74.7712 84.1696 74.5418 85.0742 74.5928 85.9867V91H73V81.1674H74.5928V83.2152C74.7686 82.5807 75.1152 82.0117 75.5968 81.5765C76.0122 81.2068 76.5448 81.0022 77.0928 81.0022C77.4011 80.9891 77.7095 81.0337 78 81.1333V82.7564Z" fill="#F2F2F2"/>
<path d="M88 86.9551H80.7693C80.72 87.9317 81.0318 88.8943 81.6417 89.6498C82.2816 90.3045 83.1649 90.6459 84.0674 90.5956C85.2269 90.5844 86.3455 90.1702 87.2479 89.4231V90.9957C86.1923 91.7092 84.9398 92.059 83.6763 91.9919C82.3855 92.059 81.133 91.533 80.2579 90.5564C79.3691 89.4203 78.9233 87.9876 79.0108 86.5326C78.9507 85.0775 79.432 83.6504 80.3618 82.5451C81.2178 81.5322 82.473 80.9669 83.7803 81.0061C84.9617 80.9389 86.1075 81.4286 86.8924 82.3353C87.68 83.3958 88.0684 84.7137 87.9863 86.0429L88 86.9551ZM86.2908 85.5392C86.3263 84.7277 86.0829 83.9302 85.6071 83.2838C85.134 82.7354 84.4421 82.4388 83.7256 82.478C82.9817 82.4696 82.2679 82.7802 81.7593 83.3342C81.1959 83.9442 80.8431 84.7221 80.7501 85.556L86.2908 85.5392Z" fill="#F2F2F2"/>
</svg>
