<svg width="115" height="115" viewBox="0 0 115 115" fill="none" xmlns="http://www.w3.org/2000/svg">
<g clip-path="url(#clip0_341_535)">
<path d="M57.1601 0.189606C25.6881 0.189606 0.173828 25.7032 0.173828 57.1752C0.173828 88.6485 25.6881 114.16 57.1601 114.16C88.6355 114.16 114.147 88.6485 114.147 57.1752C114.147 25.7053 88.6355 0.192328 57.1594 0.192328L57.1601 0.189606V0.189606ZM83.2936 82.3792C82.2729 84.0532 80.0817 84.584 78.4077 83.5564C65.0279 75.3837 48.1844 73.5328 28.3482 78.0649C26.4367 78.5004 24.5313 77.3027 24.0958 75.3905C23.6582 73.4784 24.8511 71.573 26.7674 71.1375C48.475 66.176 67.0953 68.3134 82.1164 77.4933C83.7904 78.5208 84.3212 80.7052 83.2936 82.3792V82.3792ZM90.2686 66.8606C88.9825 68.9531 86.247 69.6132 84.1579 68.3271C68.84 58.9098 45.4904 56.183 27.3723 61.6828C25.0226 62.3925 22.5409 61.0683 21.8277 58.7226C21.12 56.3729 22.4449 53.8959 24.7906 53.1814C45.4863 46.9018 71.2149 49.9436 88.8056 60.7532C90.8947 62.0393 91.5548 64.7749 90.2686 66.8613V66.8606ZM90.8675 50.7031C72.5011 39.7941 42.1988 38.7911 24.6633 44.1132C21.8474 44.9672 18.8696 43.3776 18.0163 40.5617C17.1629 37.7445 18.7512 34.7687 21.5691 33.9126C41.6987 27.8018 75.1618 28.9825 96.3073 41.5355C98.8455 43.0387 99.6758 46.3098 98.1719 48.8392C96.6748 51.372 93.3948 52.2069 90.8702 50.7031H90.8675Z" fill="#202123"/>
</g>
<defs>
<clipPath id="clip0_341_535">
<rect width="115" height="115" fill="white"/>
</clipPath>
</defs>
</svg>
