<svg width="15" height="15" viewBox="0 0 15 15" fill="none" xmlns="http://www.w3.org/2000/svg">
<path d="M7.50028 10.9459C5.60041 10.9459 4.05469 9.4003 4.05469 7.50028C4.05469 5.60041 5.60041 4.05469 7.50028 4.05469C9.4003 4.05469 10.9459 5.60041 10.9459 7.50028C10.9459 9.4003 9.4003 10.9459 7.50028 10.9459Z" fill="#F7BA3E"/>
<path d="M6.5492 3.39692C6.50546 3.39692 6.46336 3.37789 6.4346 3.34358C6.39879 3.30104 6.3895 3.24216 6.41048 3.19063L7.36146 0.85212C7.38438 0.795792 7.43921 0.758789 7.50018 0.758789C7.56116 0.758789 7.61599 0.795792 7.63891 0.85212L8.59004 3.19063C8.61101 3.24216 8.60157 3.30104 8.56577 3.34358C8.53012 3.38613 8.47349 3.4056 8.41926 3.39347C7.81328 3.26149 7.18663 3.26149 6.58096 3.39347C6.57047 3.39587 6.55984 3.39692 6.5492 3.39692Z" fill="#F7BA3E"/>
<path d="M7.50018 14.2417C7.43921 14.2417 7.38438 14.2048 7.36146 14.1484L6.41048 11.8098C6.3895 11.7583 6.39879 11.6994 6.4346 11.6569C6.4704 11.6143 6.52673 11.5952 6.58111 11.607C7.18678 11.7391 7.81343 11.7391 8.41941 11.607C8.47379 11.595 8.53027 11.6145 8.56592 11.6569C8.60172 11.6993 8.61116 11.7583 8.59019 11.8098L7.63906 14.1484C7.61599 14.2048 7.56116 14.2417 7.50018 14.2417Z" fill="#F7BA3E"/>
<path d="M3.24711 8.60113C3.22808 8.60113 3.20891 8.59753 3.19063 8.59019L0.85212 7.63906C0.795792 7.61599 0.758789 7.56116 0.758789 7.50018C0.758789 7.43921 0.795792 7.38438 0.85227 7.36146L3.19078 6.41048C3.24216 6.3895 3.30119 6.39879 3.34373 6.4346C3.38628 6.4704 3.40545 6.52688 3.39362 6.58111C3.32755 6.88387 3.294 7.19323 3.294 7.50018C3.294 7.80714 3.32755 8.11635 3.39362 8.41941C3.40545 8.47364 3.38628 8.53012 3.34373 8.56592C3.31617 8.58914 3.28186 8.60113 3.24711 8.60113Z" fill="#F7BA3E"/>
<path d="M11.7533 8.60113C11.7187 8.60113 11.6843 8.58914 11.6568 8.56592C11.6143 8.53027 11.5951 8.47379 11.607 8.41941C11.6729 8.1165 11.7064 7.80714 11.7064 7.50018C11.7064 7.19323 11.6729 6.88387 11.607 6.58111C11.5951 6.52688 11.6143 6.4704 11.6568 6.4346C11.6992 6.39879 11.7581 6.3895 11.8098 6.41048L14.1483 7.36146C14.2048 7.38438 14.2416 7.43921 14.2416 7.50018C14.2416 7.56116 14.2048 7.61599 14.1483 7.63891L11.8098 8.59004C11.7915 8.59738 11.7723 8.60113 11.7533 8.60113Z" fill="#F7BA3E"/>
<path d="M3.82029 5.31504C3.81609 5.31504 3.81175 5.31489 3.80755 5.31444C3.75212 5.30965 3.70388 5.27459 3.68231 5.22351L2.70122 2.89743C2.67755 2.84125 2.69028 2.77639 2.73327 2.73324C2.77642 2.6901 2.84144 2.67766 2.89747 2.70118L5.22354 3.68228C5.27478 3.70385 5.30983 3.75209 5.31447 3.80737C5.31927 3.8628 5.2929 3.91628 5.24616 3.94624C4.98505 4.11388 4.74281 4.30878 4.52573 4.5257C4.30881 4.74277 4.11376 4.98501 3.94627 5.24613C3.91856 5.28927 3.87092 5.31504 3.82029 5.31504Z" fill="#F7BA3E"/>
<path d="M12.1608 12.3107C12.1411 12.3107 12.1214 12.307 12.1025 12.2991L9.77655 11.318C9.72532 11.2962 9.69026 11.248 9.68562 11.1927C9.68082 11.1373 9.70719 11.0838 9.75393 11.0537C10.0153 10.8858 10.2577 10.6907 10.4742 10.4742C10.6907 10.2579 10.8857 10.0154 11.0537 9.75396C11.0838 9.70722 11.1365 9.6807 11.1927 9.68565C11.248 9.69029 11.2962 9.7255 11.3179 9.77658L12.299 12.1025C12.3225 12.1587 12.31 12.2237 12.2668 12.2667C12.2381 12.2956 12.1997 12.3107 12.1608 12.3107Z" fill="#F7BA3E"/>
<path d="M11.1798 5.31496C11.129 5.31496 11.0815 5.28934 11.0537 5.2462C10.8857 4.98463 10.6907 4.74239 10.4742 4.52577C10.2574 4.30899 10.015 4.11394 9.75393 3.94631C9.70704 3.91635 9.68083 3.86286 9.68562 3.80743C9.69026 3.75201 9.72547 3.70392 9.77655 3.68235L12.1025 2.70125C12.1584 2.67758 12.2235 2.69016 12.2667 2.73331C12.3098 2.77645 12.3224 2.84132 12.2989 2.8975L11.3178 5.22357C11.2961 5.27481 11.2478 5.30986 11.1925 5.31451C11.1883 5.31481 11.1842 5.31496 11.1798 5.31496Z" fill="#F7BA3E"/>
<path d="M2.83929 12.3109C2.80034 12.3109 2.76199 12.2956 2.73338 12.267C2.69023 12.2239 2.6775 12.159 2.70132 12.1028L3.68241 9.77691C3.70398 9.72567 3.75222 9.69062 3.8075 9.68598C3.86293 9.67953 3.91641 9.70755 3.94637 9.75429C4.11401 10.0153 4.30906 10.2576 4.52583 10.4746C4.74246 10.6912 4.9847 10.8861 5.24626 11.054C5.293 11.0841 5.31937 11.1376 5.31457 11.193C5.30978 11.2483 5.27473 11.2966 5.22364 11.3183L2.89757 12.2994C2.87869 12.3072 2.85906 12.3109 2.83929 12.3109Z" fill="#F7BA3E"/>
</svg>
