<svg width="115" height="115" viewBox="0 0 115 115" fill="none" xmlns="http://www.w3.org/2000/svg">
<circle cx="57.5" cy="57.5" r="57.5" fill="#202123"/>
<path d="M57.4988 35.1389C47.6175 35.1389 41.4419 40.1079 38.9719 50.0467C42.6776 45.077 47.0011 43.2135 51.9418 44.4563C54.7606 45.1643 56.7752 47.2223 59.0056 49.4986C62.6384 53.2073 66.8435 57.5 76.0278 57.5C85.9091 57.5 92.0848 52.5309 94.5555 42.5921C90.8498 47.5619 86.5263 49.4253 81.5856 48.1826C78.7668 47.4745 76.7522 45.4166 74.5218 43.1402C70.8883 39.4316 66.6838 35.1389 57.4988 35.1389ZM38.9719 57.5C29.0906 57.5 22.915 62.469 20.4443 72.4079C24.15 67.4381 28.4728 65.5746 33.4134 66.8174C36.233 67.5269 38.2469 69.5834 40.4773 71.8597C44.1101 75.5684 48.3159 79.8611 57.4995 79.8611C67.3815 79.8611 73.5572 74.892 76.0278 64.9532C72.3222 69.923 67.9987 71.7865 63.058 70.5437C60.2392 69.8356 58.2246 67.7777 55.9942 65.502C52.3614 61.7927 48.1562 57.5 38.9719 57.5Z" fill="#38BDF8"/>
</svg>
