<svg width="115" height="115" viewBox="0 0 115 115" fill="none" xmlns="http://www.w3.org/2000/svg">
<circle cx="57.5" cy="57.5" r="57.5" fill="#202123"/>
<path d="M21.0283 38.6168V42.784H34.5961V80.6211H44.224V42.784H57.7918V38.6935C57.7918 36.3926 57.7918 34.5263 57.6875 34.4752C57.6875 34.3985 49.4163 34.3729 39.3709 34.3729L21.1066 34.4496V38.6424L21.0283 38.6168ZM82.0051 34.3474C84.6665 34.9609 86.7017 36.137 88.5281 38.0032C89.4935 39.0259 90.9286 40.8155 91.033 41.2756C91.033 41.429 86.5191 44.4202 83.7794 46.082C83.675 46.1587 83.2576 45.724 82.8401 45.0593C81.4833 43.1675 80.1004 42.3494 77.9348 42.196C74.8038 41.9915 72.7164 43.6021 72.7164 46.2865C72.7164 47.1046 72.873 47.5648 73.1861 48.2295C73.8906 49.6356 75.1952 50.4792 79.2394 52.2177C86.7017 55.3623 89.9371 57.4331 91.894 60.3987C94.1118 63.7222 94.6075 68.9376 93.1203 72.8491C91.4504 77.1186 87.3801 80.0075 81.5616 80.9534C79.7352 81.2602 75.5604 81.2091 73.6035 80.8767C69.4288 80.1097 65.4368 78.0645 62.9841 75.4312C62.0187 74.4086 60.1662 71.6731 60.2706 71.4941L61.2621 70.8806L65.1759 68.6564L68.1242 66.969L68.8026 67.8638C69.6637 69.1932 71.5945 70.9828 72.7164 71.5964C76.1084 73.3093 80.6484 73.0792 82.8923 71.0851C83.8577 70.2159 84.2751 69.2955 84.2751 68.0172C84.2751 66.8412 84.0925 66.3043 83.4924 65.4095C82.6574 64.2847 80.9876 63.3643 76.291 61.319C70.89 59.0693 68.5939 57.6376 66.4544 55.439C65.228 54.1096 64.1061 52.0387 63.5843 50.3259C63.1929 48.8431 63.0624 45.2127 63.4277 43.7555C64.5496 38.6424 68.4895 35.0632 74.1254 34.0406C75.9518 33.6827 80.257 33.8361 82.0573 34.2962L82.0051 34.3474Z" fill="white"/>
</svg>
