<svg width="50" height="50" viewBox="0 0 50 50" fill="none" xmlns="http://www.w3.org/2000/svg">
<g clip-path="url(#clip0_168_1033)">
<path d="M48.8104 1.82764e-06H1.1875C0.872366 0.00055373 0.570326 0.126128 0.347686 0.349158C0.125046 0.572189 1.34759e-06 0.874449 1.83087e-06 1.18959V48.8125C-0.000272613 48.9688 0.0303096 49.1236 0.0899945 49.2681C0.149679 49.4125 0.237293 49.5438 0.347811 49.6543C0.458328 49.7648 0.589576 49.8524 0.734027 49.9121C0.878478 49.9718 1.03329 50.0024 1.18959 50.0021H48.8125C48.9687 50.0021 49.1234 49.9713 49.2677 49.9115C49.4121 49.8518 49.5432 49.7641 49.6537 49.6537C49.7641 49.5432 49.8517 49.4121 49.9115 49.2677C49.9713 49.1234 50.0021 48.9687 50.0021 48.8125V1.1875C50.0018 1.03128 49.9708 0.876649 49.9107 0.732426C49.8507 0.588204 49.7628 0.457219 49.6522 0.346949C49.5415 0.236679 49.4102 0.149285 49.2658 0.0897557C49.1214 0.0302264 48.9666 -0.000271999 48.8104 1.82764e-06V1.82764e-06ZM29.7625 26.7208H23.8104V45.2375H19.0479V26.7208H13.0958V22.6188H29.7625V26.7208V26.7208ZM31.0958 44.1792V39.2313C31.0958 39.2313 33.8 41.2688 37.0437 41.2688C40.2875 41.2688 40.1625 39.1479 40.1625 38.8563C40.1625 35.7792 30.9708 35.7792 30.9708 28.9583C30.9708 19.6833 44.3646 23.3438 44.3646 23.3438L44.1979 27.7521C44.1979 27.7521 41.9521 26.2542 39.4146 26.2542C36.8771 26.2542 35.9625 27.4625 35.9625 28.75C35.9625 32.0771 45.2375 31.7458 45.2375 38.4417C45.2375 48.7542 31.0958 44.1813 31.0958 44.1813V44.1792Z" fill="#3B90FA"/>
</g>
<defs>
<clipPath id="clip0_168_1033">
<rect width="50" height="50" rx="10" fill="white"/>
</clipPath>
</defs>
</svg>
