<svg width="166" height="160" viewBox="0 0 166 160" fill="none" xmlns="http://www.w3.org/2000/svg">
<path fill-rule="evenodd" clip-rule="evenodd" d="M85.7852 0.0360206C101.496 -0.682995 115.271 9.49381 128.538 18.7928C142.692 28.7146 159.881 37.6645 164.714 55.3621C169.527 72.985 159.777 90.8775 152.791 107.595C146.594 122.426 138.989 136.503 126.876 145.912C114.885 155.225 100.348 161.615 85.7852 159.641C71.9985 157.773 63.7442 142.784 51.4371 135.689C35.8671 126.713 13.2706 129.457 4.4181 112.735C-4.44637 95.9896 1.49371 73.5911 9.39468 56.2707C16.6576 40.3489 32.0889 32.492 45.5382 22.5914C58.3669 13.1476 70.3688 0.741563 85.7852 0.0360206Z" fill="#346DB5"/>
<path d="M77.863 112.339H77.5463C71.1669 112.283 64.8797 110.81 59.14 108.025C58.0843 107.529 57.2149 106.708 56.6594 105.682C56.1038 104.656 55.8912 103.48 56.0525 102.325C56.2281 101.162 56.7666 100.084 57.5912 99.2448C58.4158 98.406 59.4843 97.8492 60.6442 97.6538C64.2012 97.1792 67.6231 95.9802 70.6984 94.1309C65.3592 89.9565 61.2489 84.4154 58.8029 78.0949C56.3569 71.7744 55.6664 64.9098 56.8046 58.2288C56.959 57.1705 57.4141 56.1789 58.1158 55.3719C58.8176 54.5649 59.7364 53.9765 60.763 53.6767C61.7617 53.3631 62.8306 53.3496 63.8369 53.6382C64.8432 53.9267 65.7426 54.5044 66.4234 55.2996C68.7351 58.3309 71.64 60.8594 74.9611 62.7309C78.2822 64.6024 81.9498 65.7777 85.74 66.185C85.9211 61.5215 87.9252 57.1154 91.3213 53.9142C93.0171 52.2904 95.019 51.0203 97.2106 50.178C99.4021 49.3356 101.739 48.9379 104.086 49.0079C106.433 49.0779 108.742 49.6142 110.88 50.5857C113.017 51.5572 114.94 52.9443 116.536 54.6663C116.952 55.0339 117.468 55.2682 118.019 55.3387C118.569 55.4093 119.128 55.313 119.623 55.0621C120.567 54.617 121.618 54.4494 122.654 54.579C123.689 54.7085 124.666 55.1299 125.471 55.7938C126.276 56.4578 126.876 57.3369 127.2 58.3288C127.524 59.3206 127.56 60.3842 127.303 61.3955C126.39 65.1563 124.66 68.6701 122.236 71.6871C121.702 82.9476 116.737 93.5402 108.425 101.155C100.113 108.771 89.1271 112.791 77.863 112.339ZM77.863 104.423H78.1796C82.7819 104.581 87.3697 103.824 91.6773 102.196C95.9848 100.568 99.9263 98.1008 103.273 94.9379C106.62 91.7751 109.306 87.9793 111.175 83.7707C113.044 79.5621 114.059 75.0243 114.161 70.4205C114.226 69.1588 114.747 67.9635 115.625 67.0559C116.591 65.8337 117.414 64.5058 118.08 63.0975C116.654 63.1003 115.243 62.802 113.94 62.2222C112.638 61.6424 111.472 60.7942 110.519 59.733C109.603 58.8247 108.515 58.1084 107.319 57.6258C106.123 57.1432 104.842 56.9041 103.553 56.9225C102.25 56.8889 100.953 57.1128 99.7374 57.5815C98.5215 58.0502 97.4102 58.7544 96.4671 59.6538C95.1948 60.8611 94.262 62.3814 93.7618 64.0625C93.2616 65.7436 93.2117 67.5265 93.6171 69.233L94.6463 73.7455L90.015 74.0621C85.2694 74.4491 80.4963 73.7999 76.0264 72.1596C71.5564 70.5193 67.4964 67.9269 64.1275 64.5621C63.9831 69.7729 65.2866 74.9216 67.8931 79.4359C70.4996 83.9501 74.3071 87.6531 78.8921 90.133L82.6525 92.2705L80.1588 95.833C77.462 99.3698 73.7668 102.017 69.5505 103.433C72.2552 104.111 75.035 104.443 77.8234 104.423H77.863Z" fill="white"/>
</svg>
