<svg width="115" height="115" viewBox="0 0 115 115" fill="none" xmlns="http://www.w3.org/2000/svg">
<circle cx="57.5" cy="57.5" r="57.5" fill="#202123"/>
<mask id="mask0_341_571" style="mask-type:alpha" maskUnits="userSpaceOnUse" x="21" y="21" width="73" height="73">
<path fill-rule="evenodd" clip-rule="evenodd" d="M72.5706 92.8436C73.7057 93.2857 74.9999 93.2574 76.1456 92.7062L90.9829 85.568C92.542 84.8179 93.5335 83.2402 93.5335 81.5095V33.1074C93.5335 31.3767 92.542 29.799 90.9829 29.0489L76.1456 21.9104C74.642 21.1871 72.8825 21.3643 71.5629 22.3235C71.3744 22.4605 71.1948 22.6135 71.0263 22.7821L42.622 48.6916L30.2497 39.3015C29.0979 38.4274 27.487 38.499 26.4173 39.4719L22.4491 43.081C21.1407 44.271 21.1392 46.3291 22.4458 47.5211L33.1755 57.3083L22.4458 67.0956C21.1392 68.2875 21.1407 70.3457 22.4491 71.5357L26.4173 75.1448C27.487 76.1177 29.0979 76.1893 30.2497 75.3151L42.622 65.9251L71.0263 91.8346C71.4757 92.2841 72.0033 92.6226 72.5706 92.8436ZM75.5277 40.951L53.9754 57.3083L75.5277 73.6656V40.951Z" fill="white"/>
</mask>
<g mask="url(#mask0_341_571)">
<path d="M90.9832 29.0599L76.1342 21.9116C74.4154 21.0842 72.3614 21.4332 71.0125 22.7819L22.4025 67.0955C21.095 68.2874 21.0965 70.3455 22.4057 71.5355L26.3764 75.1446C27.4467 76.1175 29.0587 76.1891 30.2111 75.315L88.7487 30.9144C90.7126 29.4248 93.5333 30.8253 93.5333 33.2899V33.1176C93.5333 31.3875 92.5421 29.8105 90.9832 29.0599Z" fill="#0065A9"/>
<g filter="url(#filter0_d_341_571)">
<path d="M90.9832 85.5565L76.1342 92.7048C74.4154 93.5324 72.3614 93.1832 71.0125 91.8346L22.4025 47.521C21.095 46.3291 21.0965 44.2709 22.4057 43.0809L26.3764 39.4718C27.4467 38.499 29.0587 38.4273 30.2111 39.3014L88.7487 83.702C90.7126 85.1916 93.5333 83.7912 93.5333 81.3266V81.499C93.5333 83.2289 92.5421 84.806 90.9832 85.5565Z" fill="#007ACC"/>
</g>
<g filter="url(#filter1_d_341_571)">
<path d="M76.1341 92.706C74.4148 93.5329 72.3607 93.1831 71.0117 91.8343C72.6739 93.4962 75.5159 92.3192 75.5159 89.969V24.6472C75.5159 22.297 72.6739 21.12 71.0117 22.7818C72.3607 21.433 74.4148 21.0835 76.1341 21.9102L90.9805 29.0487C92.5405 29.7988 93.5326 31.3765 93.5326 33.1072V81.5092C93.5326 83.24 92.5405 84.8176 90.9804 85.5677L76.1341 92.706Z" fill="#1F9CF0"/>
</g>
<g style="mix-blend-mode:overlay" opacity="0.25">
<path fill-rule="evenodd" clip-rule="evenodd" d="M72.5267 92.8435C73.6617 93.2856 74.956 93.2573 76.1016 92.7061L90.9389 85.5679C92.498 84.8178 93.4895 83.2401 93.4895 81.5093V33.1074C93.4895 31.3765 92.4981 29.7989 90.939 29.0488L76.1016 21.9103C74.5982 21.187 72.8385 21.3642 71.5189 22.3233C71.3304 22.4604 71.1509 22.6133 70.9824 22.7819L42.5781 48.6914L30.2057 39.3014C29.054 38.4272 27.443 38.4989 26.3733 39.4717L22.4051 43.0808C21.0967 44.2709 21.0952 46.329 22.4019 47.5209L33.1316 57.3082L22.4019 67.0955C21.0952 68.2875 21.0967 70.3456 22.4051 71.5356L26.3733 75.1446C27.443 76.1175 29.054 76.1891 30.2057 75.315L42.5781 65.9249L70.9824 91.8345C71.4317 92.284 71.9593 92.6225 72.5267 92.8435ZM75.4838 40.951L53.9315 57.3082L75.4838 73.6655V40.951Z" fill="url(#paint0_linear_341_571)"/>
</g>
</g>
<defs>
<filter id="filter0_d_341_571" x="13.0895" y="30.3577" width="88.777" height="71.1251" filterUnits="userSpaceOnUse" color-interpolation-filters="sRGB">
<feFlood flood-opacity="0" result="BackgroundImageFix"/>
<feColorMatrix in="SourceAlpha" type="matrix" values="0 0 0 0 0 0 0 0 0 0 0 0 0 0 0 0 0 0 127 0" result="hardAlpha"/>
<feOffset/>
<feGaussianBlur stdDeviation="4.16667"/>
<feColorMatrix type="matrix" values="0 0 0 0 0 0 0 0 0 0 0 0 0 0 0 0 0 0 0.25 0"/>
<feBlend mode="overlay" in2="BackgroundImageFix" result="effect1_dropShadow_341_571"/>
<feBlend mode="normal" in="SourceGraphic" in2="effect1_dropShadow_341_571" result="shape"/>
</filter>
<filter id="filter1_d_341_571" x="62.6784" y="13.1331" width="39.1872" height="88.3502" filterUnits="userSpaceOnUse" color-interpolation-filters="sRGB">
<feFlood flood-opacity="0" result="BackgroundImageFix"/>
<feColorMatrix in="SourceAlpha" type="matrix" values="0 0 0 0 0 0 0 0 0 0 0 0 0 0 0 0 0 0 127 0" result="hardAlpha"/>
<feOffset/>
<feGaussianBlur stdDeviation="4.16667"/>
<feColorMatrix type="matrix" values="0 0 0 0 0 0 0 0 0 0 0 0 0 0 0 0 0 0 0.25 0"/>
<feBlend mode="overlay" in2="BackgroundImageFix" result="effect1_dropShadow_341_571"/>
<feBlend mode="normal" in="SourceGraphic" in2="effect1_dropShadow_341_571" result="shape"/>
</filter>
<linearGradient id="paint0_linear_341_571" x1="57.4562" y1="21.4666" x2="57.4562" y2="93.1499" gradientUnits="userSpaceOnUse">
<stop stop-color="white"/>
<stop offset="1" stop-color="white" stop-opacity="0"/>
</linearGradient>
</defs>
</svg>
