<svg width="136" height="122" viewBox="0 0 136 122" fill="none" xmlns="http://www.w3.org/2000/svg">
<path fill-rule="evenodd" clip-rule="evenodd" d="M42.6049 2.41901L29.6599 8.62144L26.9516 18.6922L36.4356 27.045L44.2296 14.1488L67 8.51282V105.161L61.3746 121L57.0243 110.068L54.6152 112.216L53.5192 100.923L45.3632 108.573L35.8617 64.9111L34.9366 54.7005L30.3311 55.8574L13.0392 42.0821V35.8734L21.9908 32.6345L14.2735 24.6029L13 13.517L23.9672 3.73841L42.1561 1L42.6049 2.41901ZM27.9027 8.1919L24.3432 5.43047L14.6038 14.1142L15.5532 22.3783L19.6586 17.2889L27.9027 8.1919ZM26.1285 34.7544L16.0118 24.2256L20.8255 18.2581L27.4586 10.9387L25.3149 18.9099L26.5762 26.29L34.9199 37.5076L26.1285 34.7544ZM37.4137 3.23473L29.1085 7.2141L26.1625 4.92864L37.4137 3.23473ZM35.8639 28.5578L27.2078 20.934L28.0204 25.6888L36.0876 36.5347L35.8639 28.5578ZM32.5934 42.0385L35.4766 39.2594L25.2914 36.0696L23.1325 33.8228L14.5646 36.9229V41.0137L32.5934 42.0385ZM30.6953 54.2146L16.1261 42.6083L32.2796 43.5264L34.6954 53.2098L30.6953 54.2146ZM36.3712 53.6302L34.0316 44.2524L44.8742 49.881L47.9632 55.1088L40.2745 50.8723L37.0376 60.9863L36.3712 53.6302ZM42.4407 53.7883L47.876 56.7835L44.2525 57.5321L42.4407 53.7883ZM37.4349 64.7429L40.8651 54.0248L43.3918 59.2457L49.397 58.0048L53.6351 84.6775L50.0801 90.9677L37.4349 64.7429ZM54.5061 80.4411L50.8322 57.3195L54.9699 52.2671L59.924 52.6608L54.5061 80.4411ZM59.4847 51.1177L55.0809 50.7678L50.103 42.6227L50.6121 35.1687L59.4847 51.1177ZM37.665 38.3673L48.6302 41.8014L49.2562 32.6357L44.4844 16.6651L37.3859 28.4104L37.665 38.3673ZM61.6345 51.855L51.169 33.0425L65.4746 29.4746V83.1403L55.3684 83.9846L61.6345 51.855ZM65.4746 10.4404V27.9239L50.5507 31.6461L45.6787 15.3401L65.4746 10.4404ZM54.8982 85.5327L65.4746 84.6494V104.282H62.0171L64.3065 99.3074L60.5982 91.5465L53.3007 88.3589L54.8982 85.5327ZM60.5494 105.785H65.1622L61.2934 116.678L57.6383 107.493L55.8445 109.092L55.0697 101.11L60.5494 105.785ZM49.3536 92.9642L53.1598 99.1852L46.2838 105.634L38.7336 70.939L49.3536 92.9642ZM60.5608 103.806L54.7198 98.8233L50.9079 92.5926L51.9325 90.78L52.2794 92.2502L56.8967 94.6302L62.538 99.5108L60.5608 103.806ZM53.6067 91.2376L53.3172 90.0103L59.4603 92.6938L61.2145 96.3655L57.7658 93.3818L53.6067 91.2376ZM37.1232 39.7751L48.8208 43.4385L53.7007 51.4232L50.1283 55.7855L45.9723 48.7519L34.1677 42.6239L37.1232 39.7751Z" fill="#E6222A"/>
<path d="M93 2.36954L93.4433 1L111 3.5614L106.391 7L93 2.36954Z" fill="#E6222A"/>
<path d="M69 9V28.1817L85.6327 32L91 14.3431L69 9Z" fill="#E6222A"/>
<path d="M81 101L75.3836 105.699H69L74.5388 121L78.2376 110.006L80.6967 112.167L81 101Z" fill="#E6222A"/>
<path d="M69 29L85 32.9563L74.4218 51.806L80.7575 84L69 83.0759V29Z" fill="#E6222A"/>
<path d="M81.3659 86.0201L69 85V105H74.0923L71.7531 99.9695L75.5427 92.1108L83 88.8845L81.3659 86.0201Z" fill="#E6222A"/>
<path d="M91.1449 109L83 99.5244L86.9599 93.2376L98 71L91.1449 109Z" fill="#E6222A"/>
<path d="M87 32.8693L92.377 15L99 25.8635L98.6299 38.5778L87.628 42L87 32.8693Z" fill="#E6222A"/>
<path d="M76 51L84.5105 35L85 42.4787L80.2256 50.6485L76 51Z" fill="#E6222A"/>
<path d="M80.9055 52L76 52.392L81.3639 80L85 57.0229L80.9055 52Z" fill="#E6222A"/>
<path d="M86.9966 43.6625L98.9728 40L102 42.8479L89.9127 48.971L85.6595 56L82 51.6389L86.9966 43.6625Z" fill="#E6222A"/>
<path d="M85 92.8117L81.0633 99.0308L75.0393 104L73 99.7124L78.8154 94.8457L83.5832 92.4679L83.9405 91L85 92.8117Z" fill="#E6222A"/>
<path d="M82.7042 91.1628L83 90L76.7767 92.5339L75 96L78.4935 93.1838L82.7042 91.1628Z" fill="#E6222A"/>
<path d="M100 37L100.275 26.9379L109 19L107.833 26.1359L100 37Z" fill="#E6222A"/>
<path d="M92.1198 59.2198L94.6119 54L98 64.7351L85.5223 91L82 84.7044L86.1888 57.986L92.1198 59.2198Z" fill="#E6222A"/>
<path d="M93 54L88 57.1992L91.3345 58L93 54Z" fill="#E6222A"/>
<path d="M113.824 33L110.44 36.289L100 39.3401L102.96 42L123 40.9584V36.1008L113.824 33Z" fill="#E6222A"/>
<path d="M103.395 43.0468L122 42L106.791 54L101 52.5576L103.395 43.0468Z" fill="#E6222A"/>
<path d="M91.1049 49.7218L88 55.0366L95.7165 50.7645L98.9827 61L99.6298 53.6093L102 44L91.1049 49.7218Z" fill="#E6222A"/>
<path d="M112.949 5L108 8.72777L116.57 17.9276L120.798 23L122 12.834L112.949 5Z" fill="#E6222A"/>
<path d="M120 24.5035L109.835 35.2004L101 38L109.384 26.5999L110.652 19.1023L108.497 11L115.088 18.3339L120 24.5035Z" fill="#E6222A"/>
</svg>
