<svg width="273" height="261" viewBox="0 0 273 261" fill="none" xmlns="http://www.w3.org/2000/svg">
<path d="M246.147 135.415C246.183 167.613 234.81 198.572 214.419 221.784C213.19 223.193 211.927 224.567 210.632 225.908C208.658 227.963 206.617 229.938 204.511 231.833C184.804 249.6 160.202 259.584 134.673 260.174C133.823 260.195 132.969 260.206 132.112 260.206C111.753 260.206 86.1454 248.306 62.9069 231.833C60.9843 230.47 59.0788 229.076 57.1904 227.65C56.3077 226.99 55.4293 226.32 54.5552 225.641C45.5924 218.715 37.085 211.11 29.0956 202.881C23.8646 197.509 18.9594 191.769 14.4111 185.698C-3.44468 161.596 -7.38302 139.88 18.0734 135.415C21.0873 134.889 24.0124 134.325 26.8488 133.726C30.9573 132.862 34.8892 131.929 38.6445 130.927C43.7031 129.581 48.4556 128.123 52.9022 126.55C54.3979 126.023 55.8594 125.486 57.2867 124.938C78.3875 116.828 92.5103 106.252 102.123 94.7774C103.754 92.835 105.257 90.8693 106.633 88.8801C108.738 85.8524 110.65 82.6697 112.356 79.3546C114.71 74.7485 116.688 69.9236 118.265 64.9364L118.352 64.6624C126.001 40.5184 123.674 18.1236 132.112 10.6282C168.183 -21.415 213.09 24.2176 234.169 78.0304C235.231 80.742 236.23 83.4699 237.167 86.2142C237.587 87.4401 237.993 88.6682 238.383 89.8987C239.41 93.1055 240.342 96.3204 241.179 99.5436C241.5 100.773 241.806 102.001 242.097 103.228C242.408 104.552 242.707 105.873 242.983 107.194C245.034 116.863 246.147 126.399 246.147 135.415Z" fill="#F2F2F2"/>
<path d="M134.673 260.174C133.823 260.195 132.969 260.206 132.112 260.206C111.753 260.206 86.1454 248.306 62.907 231.833C60.9843 230.47 59.0788 229.076 57.1904 227.65L58.8467 216.621L108.986 209.336L134.15 230.393L134.673 260.174Z" fill="#2F2E41"/>
<path d="M137.087 63.2399H129.942C129.721 63.24 129.509 63.3363 129.352 63.5075C129.196 63.6787 129.108 63.9109 129.108 64.1531V71.9751C129.108 72.0949 129.13 72.2134 129.172 72.3239C129.214 72.4345 129.275 72.5349 129.353 72.6194C129.43 72.7039 129.522 72.7708 129.623 72.8164C129.725 72.8619 129.833 72.8852 129.942 72.8849H137.087C137.308 72.8849 137.52 72.7892 137.676 72.6187C137.833 72.4482 137.921 72.2168 137.922 71.9751V64.1531C137.921 63.9111 137.833 63.6792 137.677 63.5081C137.52 63.337 137.308 63.2406 137.087 63.2399Z" fill="white"/>
<path d="M137.087 76.5693H129.942C129.721 76.5694 129.509 76.6657 129.352 76.8369C129.196 77.0082 129.108 77.2404 129.108 77.4826V85.3046C129.108 85.4243 129.13 85.5428 129.172 85.6534C129.214 85.7639 129.275 85.8643 129.353 85.9488C129.43 86.0333 129.522 86.1002 129.623 86.1458C129.725 86.1913 129.833 86.2146 129.942 86.2143H137.087C137.308 86.2144 137.52 86.1187 137.676 85.9482C137.833 85.7776 137.921 85.5462 137.922 85.3046V77.4826C137.921 77.2406 137.833 77.0087 137.677 76.8376C137.52 76.6665 137.308 76.57 137.087 76.5693Z" fill="#E6E6E6"/>
<path d="M137.087 89.8987H129.942C129.721 89.8988 129.509 89.9951 129.352 90.1663C129.196 90.3376 129.108 90.5698 129.108 90.8119V98.6304C129.108 98.7504 129.129 98.8693 129.171 98.9802C129.213 99.0911 129.274 99.1918 129.352 99.2767C129.429 99.3615 129.521 99.4288 129.623 99.4746C129.724 99.5204 129.833 99.5438 129.942 99.5436H137.087C137.309 99.5435 137.521 99.4473 137.677 99.276C137.834 99.1048 137.922 98.8726 137.922 98.6304V90.8119C137.921 90.5699 137.833 90.3381 137.677 90.1669C137.52 89.9958 137.308 89.8994 137.087 89.8987Z" fill="#E6E6E6"/>
<path d="M137.909 103.98C137.873 103.769 137.772 103.579 137.622 103.442C137.472 103.305 137.283 103.229 137.087 103.228H129.942C129.721 103.228 129.509 103.324 129.352 103.496C129.196 103.667 129.108 103.899 129.108 104.141V111.96C129.108 112.08 129.129 112.199 129.171 112.31C129.213 112.42 129.274 112.521 129.352 112.606C129.429 112.691 129.521 112.758 129.623 112.804C129.724 112.85 129.833 112.873 129.942 112.873H137.087C137.309 112.873 137.521 112.777 137.677 112.605C137.834 112.434 137.922 112.202 137.922 111.96V104.141C137.923 104.087 137.918 104.033 137.909 103.98Z" fill="#E6E6E6"/>
<path d="M137.411 116.628C137.309 116.581 137.199 116.557 137.087 116.557H129.942C129.833 116.557 129.724 116.581 129.623 116.627C129.521 116.672 129.429 116.74 129.352 116.824C129.274 116.909 129.213 117.01 129.171 117.121C129.129 117.232 129.108 117.351 129.108 117.471V125.289C129.107 125.409 129.129 125.528 129.17 125.639C129.212 125.75 129.274 125.851 129.351 125.936C129.429 126.021 129.521 126.088 129.622 126.134C129.724 126.18 129.833 126.203 129.942 126.202H137.087C137.309 126.202 137.521 126.106 137.677 125.935C137.834 125.764 137.922 125.531 137.922 125.289V117.471C137.921 117.291 137.873 117.115 137.782 116.965C137.691 116.816 137.563 116.698 137.411 116.628Z" fill="#E6E6E6"/>
<path d="M152.096 63.2399H144.951C144.729 63.24 144.517 63.3363 144.361 63.5075C144.204 63.6787 144.116 63.9109 144.116 64.1531V71.9751C144.116 72.0949 144.138 72.2134 144.18 72.3239C144.222 72.4345 144.284 72.5349 144.361 72.6194C144.439 72.7039 144.531 72.7708 144.632 72.8164C144.733 72.8619 144.841 72.8852 144.951 72.8849H152.096C152.316 72.8849 152.528 72.7892 152.685 72.6187C152.841 72.4482 152.929 72.2168 152.93 71.9751V64.1531C152.929 63.9111 152.841 63.6792 152.685 63.5081C152.529 63.337 152.317 63.2406 152.096 63.2399Z" fill="#E6E6E6"/>
<path d="M152.096 76.5693H144.951C144.729 76.5694 144.517 76.6657 144.361 76.8369C144.204 77.0082 144.116 77.2404 144.116 77.4826V85.3046C144.116 85.4243 144.138 85.5428 144.18 85.6534C144.222 85.7639 144.284 85.8643 144.361 85.9488C144.439 86.0333 144.531 86.1002 144.632 86.1458C144.733 86.1913 144.841 86.2146 144.951 86.2143H152.096C152.316 86.2144 152.528 86.1187 152.685 85.9482C152.841 85.7776 152.929 85.5462 152.93 85.3046V77.4826C152.929 77.2406 152.841 77.0087 152.685 76.8376C152.529 76.6665 152.317 76.57 152.096 76.5693Z" fill="#3B90FA"/>
<path d="M152.096 89.8987H144.951C144.729 89.8988 144.517 89.9951 144.361 90.1663C144.204 90.3376 144.116 90.5698 144.116 90.8119V98.6304C144.116 98.7504 144.137 98.8693 144.179 98.9802C144.221 99.0911 144.283 99.1918 144.36 99.2767C144.438 99.3615 144.53 99.4288 144.631 99.4746C144.732 99.5204 144.841 99.5438 144.951 99.5436H152.096C152.317 99.5435 152.529 99.4473 152.686 99.276C152.842 99.1048 152.93 98.8726 152.93 98.6304V90.8119C152.929 90.5699 152.841 90.3381 152.685 90.1669C152.529 89.9958 152.317 89.8994 152.096 89.8987Z" fill="#3B90FA"/>
<path d="M152.096 103.228H144.951C144.776 103.228 144.605 103.289 144.464 103.401C144.322 103.513 144.216 103.671 144.161 103.853C144.131 103.946 144.116 104.043 144.116 104.141V111.96C144.116 112.08 144.137 112.199 144.179 112.31C144.221 112.42 144.283 112.521 144.36 112.606C144.438 112.691 144.53 112.758 144.631 112.804C144.732 112.85 144.841 112.873 144.951 112.873H152.096C152.317 112.873 152.529 112.777 152.686 112.605C152.842 112.434 152.93 112.202 152.93 111.96V104.141C152.929 103.899 152.841 103.667 152.685 103.496C152.529 103.325 152.317 103.229 152.096 103.228Z" fill="#3B90FA"/>
<path d="M152.096 116.557H144.951C144.841 116.557 144.732 116.581 144.631 116.627C144.53 116.672 144.438 116.74 144.36 116.824C144.283 116.909 144.221 117.01 144.179 117.121C144.137 117.232 144.116 117.351 144.116 117.471V125.289C144.116 125.409 144.137 125.528 144.179 125.639C144.221 125.75 144.283 125.851 144.36 125.936C144.438 126.02 144.53 126.088 144.631 126.133C144.732 126.179 144.841 126.203 144.951 126.202H152.096C152.317 126.202 152.529 126.106 152.686 125.935C152.842 125.764 152.93 125.531 152.93 125.289V117.471C152.93 117.229 152.842 116.996 152.686 116.825C152.529 116.654 152.317 116.558 152.096 116.557Z" fill="#E6E6E6"/>
<path d="M167.104 63.2399H159.959C159.738 63.24 159.526 63.3363 159.37 63.5075C159.213 63.6787 159.125 63.9109 159.125 64.1531V71.9751C159.125 72.0949 159.147 72.2134 159.189 72.3239C159.231 72.4345 159.292 72.5349 159.37 72.6194C159.447 72.7039 159.539 72.7708 159.641 72.8164C159.742 72.8619 159.85 72.8852 159.959 72.8849H167.104C167.325 72.8849 167.537 72.7892 167.693 72.6187C167.85 72.4482 167.938 72.2168 167.939 71.9751V64.1531C167.938 63.9111 167.85 63.6792 167.694 63.5081C167.537 63.337 167.325 63.2406 167.104 63.2399Z" fill="#3B90FA"/>
<path d="M167.104 76.5693H159.959C159.738 76.5694 159.526 76.6657 159.37 76.8369C159.213 77.0082 159.125 77.2404 159.125 77.4826V85.3046C159.125 85.4243 159.147 85.5428 159.189 85.6534C159.231 85.7639 159.292 85.8643 159.37 85.9488C159.447 86.0333 159.539 86.1002 159.641 86.1458C159.742 86.1913 159.85 86.2146 159.959 86.2143H167.104C167.325 86.2144 167.537 86.1187 167.693 85.9482C167.85 85.7776 167.938 85.5462 167.939 85.3046V77.4826C167.938 77.2406 167.85 77.0087 167.694 76.8376C167.537 76.6665 167.325 76.57 167.104 76.5693Z" fill="#3B90FA"/>
<path d="M167.104 89.8987H159.959C159.738 89.8988 159.526 89.9951 159.37 90.1663C159.213 90.3376 159.125 90.5698 159.125 90.8119V98.6304C159.125 98.7504 159.146 98.8693 159.188 98.9802C159.23 99.0911 159.291 99.1918 159.369 99.2767C159.446 99.3615 159.539 99.4288 159.64 99.4746C159.741 99.5204 159.85 99.5438 159.959 99.5436H167.104C167.326 99.5435 167.538 99.4473 167.694 99.276C167.851 99.1048 167.939 98.8726 167.939 98.6304V90.8119C167.938 90.5699 167.85 90.3381 167.694 90.1669C167.537 89.9958 167.325 89.8994 167.104 89.8987Z" fill="#E6E6E6"/>
<path d="M167.104 103.228H159.959C159.738 103.228 159.526 103.324 159.37 103.496C159.213 103.667 159.125 103.899 159.125 104.141V111.96C159.125 112.08 159.146 112.199 159.188 112.31C159.23 112.42 159.291 112.521 159.369 112.606C159.446 112.691 159.539 112.758 159.64 112.804C159.741 112.85 159.85 112.873 159.959 112.873H167.104C167.326 112.873 167.538 112.777 167.694 112.605C167.851 112.434 167.939 112.202 167.939 111.96V104.141C167.938 103.899 167.85 103.667 167.694 103.496C167.537 103.325 167.325 103.229 167.104 103.228Z" fill="#3B90FA"/>
<path d="M167.104 116.557H159.959C159.85 116.557 159.741 116.581 159.64 116.627C159.539 116.672 159.446 116.74 159.369 116.824C159.291 116.909 159.23 117.01 159.188 117.121C159.146 117.232 159.125 117.351 159.125 117.471V125.289C159.125 125.409 159.146 125.528 159.188 125.639C159.23 125.75 159.291 125.851 159.369 125.936C159.446 126.02 159.539 126.088 159.64 126.133C159.741 126.179 159.85 126.203 159.959 126.202H167.104C167.326 126.202 167.538 126.106 167.694 125.935C167.851 125.764 167.939 125.531 167.939 125.289V117.471C167.939 117.229 167.851 116.996 167.694 116.825C167.538 116.654 167.326 116.558 167.104 116.557Z" fill="#3B90FA"/>
<path d="M182.113 63.2399H174.968C174.747 63.24 174.535 63.3363 174.378 63.5075C174.222 63.6787 174.134 63.9109 174.134 64.1531V71.9751C174.134 72.0949 174.156 72.2134 174.198 72.3239C174.24 72.4345 174.301 72.5349 174.379 72.6194C174.456 72.7039 174.548 72.7708 174.649 72.8164C174.75 72.8619 174.859 72.8852 174.968 72.8849H182.113C182.334 72.8849 182.546 72.7892 182.702 72.6187C182.859 72.4482 182.947 72.2168 182.948 71.9751V64.1531C182.947 63.9111 182.859 63.6792 182.703 63.5081C182.546 63.337 182.334 63.2406 182.113 63.2399Z" fill="#3B90FA"/>
<path d="M182.113 76.5693H174.968C174.747 76.5694 174.535 76.6657 174.378 76.8369C174.222 77.0082 174.134 77.2404 174.134 77.4826V85.3046C174.134 85.4243 174.156 85.5428 174.198 85.6534C174.24 85.7639 174.301 85.8643 174.379 85.9488C174.456 86.0333 174.548 86.1002 174.649 86.1458C174.75 86.1913 174.859 86.2146 174.968 86.2143H182.113C182.334 86.2144 182.546 86.1187 182.702 85.9482C182.859 85.7776 182.947 85.5462 182.948 85.3046V77.4826C182.947 77.2406 182.859 77.0087 182.703 76.8376C182.546 76.6665 182.334 76.57 182.113 76.5693Z" fill="white"/>
<path d="M182.113 89.8987H174.968C174.747 89.8988 174.535 89.9951 174.378 90.1663C174.222 90.3375 174.134 90.5698 174.134 90.8119V98.6304C174.134 98.7504 174.155 98.8693 174.197 98.9802C174.239 99.0911 174.3 99.1918 174.378 99.2767C174.455 99.3615 174.547 99.4288 174.649 99.4746C174.75 99.5204 174.859 99.5438 174.968 99.5436H182.113C182.334 99.5435 182.547 99.4473 182.703 99.276C182.86 99.1048 182.948 98.8726 182.948 98.6304V90.8119C182.947 90.5699 182.859 90.3381 182.703 90.1669C182.546 89.9958 182.334 89.8994 182.113 89.8987Z" fill="white"/>
<path d="M182.113 103.228H174.968C174.747 103.228 174.535 103.324 174.378 103.496C174.222 103.667 174.134 103.899 174.134 104.141V111.96C174.134 112.08 174.155 112.199 174.197 112.31C174.239 112.42 174.3 112.521 174.378 112.606C174.455 112.691 174.547 112.758 174.649 112.804C174.75 112.85 174.859 112.873 174.968 112.873H182.113C182.334 112.873 182.547 112.777 182.703 112.605C182.86 112.434 182.948 112.202 182.948 111.96V104.141C182.947 103.899 182.859 103.667 182.703 103.496C182.546 103.325 182.334 103.229 182.113 103.228Z" fill="#E6E6E6"/>
<path d="M182.113 116.557H174.968C174.859 116.557 174.75 116.581 174.649 116.627C174.547 116.672 174.455 116.74 174.378 116.824C174.3 116.909 174.239 117.01 174.197 117.121C174.155 117.232 174.134 117.351 174.134 117.471V125.289C174.134 125.409 174.155 125.528 174.197 125.639C174.239 125.75 174.3 125.851 174.378 125.936C174.455 126.02 174.547 126.088 174.649 126.133C174.75 126.179 174.859 126.203 174.968 126.202H182.113C182.334 126.202 182.547 126.106 182.703 125.935C182.86 125.764 182.948 125.531 182.948 125.289V117.471C182.948 117.229 182.86 116.996 182.703 116.825C182.547 116.654 182.334 116.558 182.113 116.557Z" fill="#3B90FA"/>
<path d="M197.122 63.2399H189.974C189.753 63.2408 189.542 63.3374 189.386 63.5085C189.23 63.6797 189.143 63.9115 189.143 64.1531V71.9751C189.143 72.2164 189.23 72.4478 189.386 72.6184C189.542 72.7889 189.753 72.8848 189.974 72.8849H197.122C197.343 72.885 197.555 72.7893 197.711 72.6187C197.868 72.4482 197.956 72.2168 197.957 71.9751V64.1531C197.956 63.9111 197.868 63.6792 197.711 63.5081C197.555 63.337 197.343 63.2406 197.122 63.2399Z" fill="white"/>
<path d="M197.122 76.5693H189.974C189.753 76.5702 189.542 76.6668 189.386 76.838C189.23 77.0091 189.142 77.2409 189.143 77.4826V85.3046C189.143 85.5458 189.23 85.7772 189.386 85.9478C189.542 86.1184 189.753 86.2142 189.974 86.2143H197.122C197.343 86.2144 197.555 86.1187 197.711 85.9481C197.868 85.7776 197.956 85.5462 197.957 85.3046V77.4826C197.956 77.2406 197.868 77.0087 197.711 76.8376C197.555 76.6665 197.343 76.57 197.122 76.5693Z" fill="white"/>
<path d="M197.122 89.8987H189.974C189.753 89.8995 189.542 89.9961 189.386 90.1673C189.23 90.3385 189.142 90.5703 189.143 90.8119V98.6304C189.142 98.7502 189.164 98.8688 189.205 98.9795C189.247 99.0902 189.308 99.1908 189.385 99.2757C189.462 99.3605 189.554 99.4278 189.655 99.4738C189.756 99.5198 189.865 99.5435 189.974 99.5436H197.122C197.343 99.5435 197.556 99.4473 197.712 99.276C197.868 99.1048 197.956 98.8726 197.957 98.6304V90.8119C197.956 90.5699 197.868 90.3381 197.711 90.1669C197.555 89.9958 197.343 89.8994 197.122 89.8987Z" fill="white"/>
<path d="M197.122 103.228H189.974C189.753 103.229 189.542 103.326 189.386 103.497C189.23 103.668 189.143 103.9 189.143 104.141V111.96C189.142 112.08 189.164 112.198 189.205 112.309C189.247 112.42 189.308 112.52 189.385 112.605C189.462 112.69 189.554 112.757 189.655 112.803C189.756 112.849 189.865 112.873 189.974 112.873H197.122C197.343 112.873 197.556 112.777 197.712 112.605C197.868 112.434 197.956 112.202 197.957 111.96V104.141C197.956 103.899 197.868 103.667 197.711 103.496C197.555 103.325 197.343 103.229 197.122 103.228Z" fill="#3B90FA"/>
<path d="M197.122 116.557H189.974C189.865 116.558 189.756 116.581 189.655 116.627C189.554 116.673 189.462 116.741 189.385 116.825C189.308 116.91 189.247 117.011 189.205 117.122C189.164 117.232 189.142 117.351 189.143 117.471V125.289C189.142 125.409 189.164 125.528 189.205 125.638C189.247 125.749 189.308 125.85 189.385 125.934C189.462 126.019 189.554 126.087 189.655 126.133C189.756 126.179 189.865 126.202 189.974 126.202H197.122C197.343 126.202 197.556 126.106 197.712 125.935C197.868 125.764 197.956 125.531 197.957 125.289V117.471C197.956 117.229 197.868 116.996 197.712 116.825C197.556 116.654 197.343 116.558 197.122 116.557Z" fill="#E6E6E6"/>
<path d="M212.131 63.2399H204.983C204.762 63.2408 204.55 63.3374 204.395 63.5085C204.239 63.6797 204.151 63.9115 204.151 64.1531V71.9751C204.151 72.2164 204.239 72.4478 204.395 72.6184C204.551 72.7889 204.762 72.8848 204.983 72.8849H212.131C212.352 72.8849 212.563 72.7892 212.72 72.6187C212.876 72.4482 212.965 72.2168 212.965 71.9751V64.1531C212.965 63.9111 212.877 63.6793 212.72 63.5082C212.564 63.3371 212.352 63.2406 212.131 63.2399Z" fill="white"/>
<path d="M212.131 76.5693H204.983C204.762 76.5702 204.55 76.6668 204.395 76.838C204.239 77.0091 204.151 77.2409 204.151 77.4826V85.3046C204.151 85.5458 204.239 85.7772 204.395 85.9478C204.551 86.1184 204.762 86.2142 204.983 86.2143H212.131C212.352 86.2143 212.563 86.1186 212.72 85.9481C212.876 85.7776 212.965 85.5462 212.965 85.3046V77.4826C212.965 77.2406 212.877 77.0087 212.72 76.8376C212.564 76.6665 212.352 76.57 212.131 76.5693Z" fill="white"/>
<path d="M212.131 89.8987H204.983C204.762 89.8995 204.55 89.9961 204.395 90.1673C204.239 90.3385 204.151 90.5703 204.151 90.8119V98.6304C204.151 98.7502 204.172 98.8688 204.214 98.9795C204.256 99.0902 204.317 99.1908 204.394 99.2757C204.471 99.3605 204.563 99.4278 204.664 99.4738C204.765 99.5198 204.873 99.5435 204.983 99.5436H212.131C212.352 99.5435 212.564 99.4473 212.721 99.276C212.877 99.1048 212.965 98.8726 212.965 98.6304V90.8119C212.965 90.5699 212.877 90.3381 212.72 90.167C212.564 89.9958 212.352 89.8994 212.131 89.8987Z" fill="#3B90FA"/>
<path d="M212.131 103.228H204.983C204.762 103.229 204.55 103.326 204.395 103.497C204.239 103.668 204.151 103.9 204.151 104.141V111.96C204.151 112.08 204.172 112.198 204.214 112.309C204.256 112.42 204.317 112.52 204.394 112.605C204.471 112.69 204.563 112.757 204.664 112.803C204.765 112.849 204.873 112.873 204.983 112.873H212.131C212.352 112.873 212.564 112.777 212.721 112.605C212.877 112.434 212.965 112.202 212.965 111.96V104.141C212.965 103.899 212.877 103.667 212.72 103.496C212.564 103.325 212.352 103.229 212.131 103.228Z" fill="#E6E6E6"/>
<path d="M212.131 116.557H204.983C204.873 116.558 204.765 116.581 204.664 116.627C204.563 116.673 204.471 116.741 204.394 116.825C204.317 116.91 204.256 117.011 204.214 117.122C204.172 117.232 204.151 117.351 204.151 117.471V125.289C204.151 125.409 204.172 125.528 204.214 125.638C204.256 125.749 204.317 125.85 204.394 125.934C204.471 126.019 204.563 126.087 204.664 126.133C204.765 126.179 204.873 126.202 204.983 126.202H212.131C212.352 126.202 212.564 126.106 212.721 125.935C212.877 125.764 212.965 125.531 212.965 125.289V117.471C212.965 117.229 212.877 116.996 212.721 116.825C212.564 116.654 212.352 116.558 212.131 116.557Z" fill="white"/>
<path d="M227.14 63.2399H219.991C219.771 63.2408 219.559 63.3374 219.403 63.5085C219.248 63.6797 219.16 63.9115 219.16 64.1531V71.9751C219.16 72.2164 219.248 72.4478 219.404 72.6184C219.56 72.7889 219.771 72.8848 219.991 72.8849H227.14C227.36 72.8849 227.572 72.7892 227.729 72.6187C227.885 72.4482 227.973 72.2168 227.974 71.9751V64.1531C227.973 63.9111 227.885 63.6793 227.729 63.5082C227.573 63.3371 227.361 63.2406 227.14 63.2399Z" fill="#3B90FA"/>
<path d="M227.14 76.5693H219.991C219.771 76.5702 219.559 76.6668 219.403 76.838C219.248 77.0091 219.16 77.2409 219.16 77.4826V85.3046C219.16 85.5458 219.248 85.7772 219.404 85.9478C219.56 86.1184 219.771 86.2142 219.991 86.2143H227.14C227.36 86.2143 227.572 86.1186 227.729 85.9481C227.885 85.7776 227.973 85.5462 227.974 85.3046V77.4826C227.973 77.2406 227.885 77.0087 227.729 76.8376C227.573 76.6665 227.361 76.57 227.14 76.5693Z" fill="#3B90FA"/>
<path d="M227.14 89.8987H219.991C219.771 89.8995 219.559 89.9961 219.403 90.1673C219.248 90.3385 219.16 90.5703 219.16 90.8119V98.6304C219.16 98.7502 219.181 98.8688 219.223 98.9795C219.264 99.0902 219.326 99.1908 219.403 99.2757C219.48 99.3605 219.572 99.4278 219.673 99.4738C219.774 99.5198 219.882 99.5435 219.991 99.5436H227.14C227.361 99.5435 227.573 99.4473 227.729 99.276C227.886 99.1048 227.974 98.8726 227.974 98.6304V90.8119C227.973 90.5699 227.885 90.3381 227.729 90.167C227.573 89.9958 227.361 89.8994 227.14 89.8987Z" fill="#E6E6E6"/>
<path d="M227.14 103.228H219.991C219.771 103.229 219.559 103.326 219.403 103.497C219.248 103.668 219.16 103.9 219.16 104.141V111.96C219.16 112.08 219.181 112.198 219.223 112.309C219.264 112.42 219.326 112.52 219.403 112.605C219.48 112.69 219.572 112.757 219.673 112.803C219.774 112.849 219.882 112.873 219.991 112.873H227.14C227.361 112.873 227.573 112.777 227.73 112.605C227.886 112.434 227.974 112.202 227.974 111.96V104.141C227.973 103.899 227.885 103.667 227.729 103.496C227.573 103.325 227.361 103.229 227.14 103.228Z" fill="white"/>
<path d="M227.14 116.557H219.991C219.882 116.558 219.774 116.581 219.673 116.627C219.572 116.673 219.48 116.741 219.403 116.825C219.326 116.91 219.264 117.011 219.223 117.122C219.181 117.232 219.16 117.351 219.16 117.471V125.289C219.16 125.409 219.181 125.528 219.223 125.638C219.264 125.749 219.326 125.85 219.403 125.934C219.48 126.019 219.572 126.087 219.673 126.133C219.774 126.179 219.882 126.202 219.991 126.202H227.14C227.361 126.202 227.573 126.106 227.73 125.935C227.886 125.764 227.974 125.531 227.974 125.289V117.471C227.974 117.229 227.886 116.996 227.73 116.825C227.573 116.654 227.361 116.558 227.14 116.557Z" fill="#3B90FA"/>
<path d="M242.148 63.2399H235C234.779 63.2408 234.568 63.3374 234.412 63.5085C234.256 63.6797 234.168 63.9115 234.168 64.1531V71.9751C234.168 72.2164 234.256 72.4478 234.412 72.6184C234.568 72.7889 234.779 72.8848 235 72.8849H242.148C242.369 72.8849 242.58 72.7892 242.737 72.6187C242.893 72.4482 242.982 72.2168 242.982 71.9751V64.1531C242.982 63.9111 242.894 63.6793 242.737 63.5082C242.581 63.3371 242.369 63.2406 242.148 63.2399Z" fill="#3B90FA"/>
<path d="M242.148 76.5693H235C234.779 76.5702 234.567 76.6668 234.412 76.838C234.256 77.0091 234.168 77.2409 234.168 77.4826V85.3046C234.168 85.5458 234.256 85.7772 234.412 85.9478C234.568 86.1184 234.779 86.2142 235 86.2143H242.148C242.369 86.2143 242.58 86.1186 242.737 85.9481C242.893 85.7776 242.982 85.5462 242.982 85.3046V77.4826C242.982 77.2406 242.894 77.0087 242.737 76.8376C242.581 76.6665 242.369 76.57 242.148 76.5693Z" fill="#3B90FA"/>
<path d="M242.148 89.8987H235C234.779 89.8995 234.567 89.9961 234.412 90.1673C234.256 90.3385 234.168 90.5703 234.168 90.8119V98.6304C234.168 98.7502 234.189 98.8688 234.231 98.9795C234.273 99.0902 234.334 99.1908 234.411 99.2757C234.488 99.3605 234.58 99.4278 234.681 99.4738C234.782 99.5198 234.89 99.5435 235 99.5436H242.148C242.369 99.5435 242.581 99.4473 242.738 99.276C242.894 99.1048 242.982 98.8726 242.982 98.6304V90.8119C242.982 90.5699 242.894 90.3381 242.737 90.167C242.581 89.9958 242.369 89.8994 242.148 89.8987Z" fill="#E6E6E6"/>
<path d="M242.148 103.228H235C234.779 103.229 234.568 103.326 234.412 103.497C234.256 103.668 234.168 103.9 234.168 104.141V111.96C234.168 112.08 234.189 112.198 234.231 112.309C234.273 112.42 234.334 112.52 234.411 112.605C234.488 112.69 234.58 112.757 234.681 112.803C234.782 112.849 234.89 112.873 235 112.873H242.148C242.369 112.873 242.581 112.777 242.738 112.605C242.894 112.434 242.982 112.202 242.982 111.96V104.141C242.982 103.899 242.894 103.667 242.737 103.496C242.581 103.325 242.369 103.229 242.148 103.228Z" fill="#3B90FA"/>
<path d="M242.148 116.557H235C234.89 116.558 234.782 116.581 234.681 116.627C234.58 116.673 234.488 116.741 234.411 116.825C234.334 116.91 234.273 117.011 234.231 117.122C234.189 117.232 234.168 117.351 234.168 117.471V125.289C234.168 125.409 234.189 125.528 234.231 125.638C234.273 125.749 234.334 125.85 234.411 125.934C234.488 126.019 234.58 126.087 234.681 126.133C234.782 126.179 234.89 126.202 235 126.202H242.148C242.369 126.202 242.581 126.106 242.738 125.935C242.894 125.764 242.982 125.531 242.982 125.289V117.471C242.982 117.229 242.894 116.996 242.738 116.825C242.581 116.654 242.369 116.558 242.148 116.557Z" fill="#3B90FA"/>
<path d="M257.157 63.2399H250.009C249.788 63.2408 249.576 63.3374 249.42 63.5085C249.265 63.6797 249.177 63.9115 249.177 64.1531V71.9751C249.177 72.2164 249.265 72.4478 249.421 72.6184C249.577 72.7889 249.788 72.8848 250.009 72.8849H257.157C257.377 72.8849 257.589 72.7892 257.746 72.6187C257.902 72.4482 257.99 72.2168 257.991 71.9751V64.1531C257.991 63.9111 257.902 63.6793 257.746 63.5082C257.59 63.3371 257.378 63.2406 257.157 63.2399Z" fill="#E6E6E6"/>
<path d="M257.157 76.5693H250.009C249.788 76.5702 249.576 76.6668 249.42 76.838C249.265 77.0091 249.177 77.2409 249.177 77.4826V85.3046C249.177 85.5458 249.265 85.7772 249.421 85.9478C249.577 86.1184 249.788 86.2142 250.009 86.2143H257.157C257.377 86.2143 257.589 86.1186 257.746 85.9481C257.902 85.7776 257.99 85.5462 257.991 85.3046V77.4826C257.991 77.2406 257.902 77.0087 257.746 76.8376C257.59 76.6665 257.378 76.57 257.157 76.5693Z" fill="#3B90FA"/>
<path d="M257.157 89.8987H250.009C249.788 89.8995 249.576 89.9961 249.42 90.1673C249.265 90.3385 249.177 90.5703 249.177 90.8119V98.6304C249.177 98.7502 249.198 98.8688 249.24 98.9795C249.281 99.0902 249.343 99.1908 249.42 99.2757C249.497 99.3605 249.589 99.4278 249.69 99.4738C249.791 99.5198 249.899 99.5435 250.009 99.5436H257.157C257.378 99.5435 257.59 99.4473 257.747 99.276C257.903 99.1048 257.991 98.8726 257.991 98.6304V90.8119C257.991 90.5699 257.902 90.3381 257.746 90.167C257.59 89.9958 257.378 89.8994 257.157 89.8987Z" fill="#3B90FA"/>
<path d="M257.157 103.228H250.009C249.788 103.229 249.576 103.326 249.42 103.497C249.265 103.668 249.177 103.9 249.177 104.141V111.96C249.177 112.08 249.198 112.198 249.24 112.309C249.281 112.42 249.343 112.52 249.42 112.605C249.497 112.69 249.589 112.757 249.69 112.803C249.791 112.849 249.899 112.873 250.009 112.873H257.157C257.378 112.873 257.59 112.777 257.747 112.605C257.903 112.434 257.991 112.202 257.991 111.96V104.141C257.991 103.899 257.902 103.667 257.746 103.496C257.59 103.325 257.378 103.229 257.157 103.228Z" fill="#3B90FA"/>
<path d="M257.157 116.557H250.009C249.899 116.558 249.791 116.581 249.69 116.627C249.589 116.673 249.497 116.741 249.42 116.825C249.343 116.91 249.281 117.011 249.24 117.122C249.198 117.232 249.177 117.351 249.177 117.471V125.289C249.177 125.409 249.198 125.528 249.24 125.638C249.281 125.749 249.343 125.85 249.42 125.934C249.497 126.019 249.589 126.087 249.69 126.133C249.791 126.179 249.899 126.202 250.009 126.202H257.157C257.378 126.202 257.59 126.106 257.747 125.935C257.903 125.764 257.991 125.531 257.991 125.289V117.471C257.991 117.229 257.903 116.996 257.747 116.825C257.59 116.654 257.378 116.558 257.157 116.557Z" fill="#E6E6E6"/>
<path d="M272.165 63.2399H265.017C264.797 63.2408 264.585 63.3374 264.429 63.5085C264.273 63.6797 264.186 63.9115 264.186 64.1531V71.9751C264.186 72.2164 264.274 72.4478 264.43 72.6184C264.585 72.7889 264.797 72.8848 265.017 72.8849H272.165C272.386 72.8849 272.598 72.7892 272.755 72.6187C272.911 72.4482 272.999 72.2168 273 71.9751V64.1531C272.999 63.9111 272.911 63.6793 272.755 63.5082C272.598 63.3371 272.387 63.2406 272.165 63.2399Z" fill="#E6E6E6"/>
<path d="M272.165 76.5693H265.017C264.797 76.5702 264.585 76.6668 264.429 76.838C264.273 77.0091 264.186 77.2409 264.186 77.4826V85.3046C264.186 85.5458 264.274 85.7772 264.43 85.9478C264.585 86.1184 264.797 86.2142 265.017 86.2143H272.165C272.386 86.2143 272.598 86.1186 272.755 85.9481C272.911 85.7776 272.999 85.5462 273 85.3046V77.4826C272.999 77.2406 272.911 77.0087 272.755 76.8376C272.598 76.6665 272.387 76.57 272.165 76.5693Z" fill="#E6E6E6"/>
<path d="M272.165 89.8987H265.017C264.797 89.8995 264.585 89.9961 264.429 90.1673C264.273 90.3385 264.186 90.5703 264.186 90.8119V98.6304C264.186 98.7502 264.207 98.8688 264.249 98.9795C264.29 99.0902 264.351 99.1908 264.429 99.2757C264.506 99.3605 264.598 99.4278 264.699 99.4738C264.8 99.5198 264.908 99.5435 265.017 99.5436H272.165C272.387 99.5435 272.599 99.4473 272.755 99.276C272.912 99.1048 273 98.8726 273 98.6304V90.8119C272.999 90.5699 272.911 90.3381 272.755 90.167C272.598 89.9958 272.387 89.8994 272.165 89.8987Z" fill="#3B90FA"/>
<path d="M272.165 103.228H265.017C264.797 103.229 264.585 103.326 264.429 103.497C264.273 103.668 264.186 103.9 264.186 104.141V111.96C264.186 112.08 264.207 112.198 264.249 112.309C264.29 112.42 264.351 112.52 264.429 112.605C264.506 112.69 264.598 112.757 264.699 112.803C264.8 112.849 264.908 112.873 265.017 112.873H272.165C272.387 112.873 272.599 112.777 272.755 112.605C272.912 112.434 273 112.202 273 111.96V104.141C272.999 103.899 272.911 103.667 272.755 103.496C272.598 103.325 272.387 103.229 272.165 103.228Z" fill="#E6E6E6"/>
<path d="M272.165 116.557H265.017C264.908 116.558 264.8 116.581 264.699 116.627C264.598 116.673 264.506 116.741 264.429 116.825C264.351 116.91 264.29 117.011 264.249 117.122C264.207 117.232 264.186 117.351 264.186 117.471V125.289C264.186 125.409 264.207 125.528 264.249 125.638C264.29 125.749 264.351 125.85 264.429 125.934C264.506 126.019 264.598 126.087 264.699 126.133C264.8 126.179 264.908 126.202 265.017 126.202H272.165C272.387 126.202 272.599 126.106 272.755 125.935C272.912 125.764 273 125.531 273 125.289V117.471C273 117.229 272.912 116.996 272.755 116.825C272.599 116.654 272.387 116.558 272.165 116.557Z" fill="#E6E6E6"/>
<path d="M107.878 231.834H107.679L107.849 231.809L107.878 231.834Z" fill="#2F2E41"/>
<path d="M90.7757 86.072C102.887 86.072 112.705 75.3282 112.705 62.0749C112.705 48.8217 102.887 38.0778 90.7757 38.0778C78.6644 38.0778 68.8462 48.8217 68.8462 62.0749C68.8462 75.3282 78.6644 86.072 90.7757 86.072Z" fill="#FFB6B6"/>
<path d="M109.98 44.4807C109.98 44.4807 115.716 32.4821 103.097 31.3913C103.097 31.3913 92.3398 20.713 81.375 29.4392C81.375 29.4392 75.3943 29.4392 72.1238 36.8452C72.1238 36.8452 67.4199 34.8931 66.3862 40.1176C66.3862 40.1176 62.9442 51.0253 66.3862 60.8424C69.8282 70.6594 70.9714 71.7501 70.9714 71.7501C70.9714 71.7501 65.3156 51.1683 79.0824 50.0774C92.8492 48.9866 108.255 39.5722 109.402 51.5707C110.549 63.5692 112.276 66.5256 112.276 66.5256C112.276 66.5256 123.173 49.3892 109.98 44.4807Z" fill="#2F2E41"/>
<path d="M147.503 121.215L147.432 121.622L146.639 126.202L141.16 157.884L140.836 159.749L140.156 163.693L139.225 169.074L137.161 180.999L136.571 184.416L136.349 185.698L136.272 186.148L135.659 189.685L135.473 190.753L133.977 202.881L132.671 213.449L137.042 218.233L134.436 221.085L132.725 231.809L132.728 231.833H62.9072C60.0826 229.831 57.2987 227.767 54.5554 225.641L55.13 220.934C55.13 220.934 57.1071 212.529 56.2758 211.525C55.4477 210.52 53.631 208.725 53.631 208.725L55.9196 202.881L56.2373 202.069L55.7045 189.976L55.6917 189.685L55.5152 185.698L55.4927 185.185L55.4574 184.416L54.7801 169.074L54.7673 168.821L54.5619 164.171L54.3693 159.749L54.2858 157.884L53.4609 139.223L52.9024 126.55L52.4146 115.518L54.3757 114.791L75.3513 106.99L84.04 94.6298L102.124 94.7773L110.976 94.8511L125.747 109.842L129.108 111.598L129.134 111.612L131.544 112.873L137.655 116.066L144.117 119.445L147.432 121.176L147.503 121.215Z" fill="#CACACA"/>
<path d="M86.3766 195.832C85.0515 196.394 83.6298 196.631 82.2119 196.526C80.794 196.422 79.4142 195.978 78.1698 195.227C76.9254 194.476 75.8467 193.436 75.0096 192.179C74.1724 190.922 73.5973 189.48 73.3246 187.954L39.1221 182.644L51.0118 167.926L81.6683 175.225C84.0417 174.894 86.4438 175.527 88.4193 177.004C90.3948 178.481 91.8065 180.7 92.3868 183.24C92.9672 185.78 92.6759 188.465 91.5682 190.786C90.4605 193.106 88.6133 194.902 86.3766 195.832V195.832Z" fill="#FFB6B6"/>
<path d="M71.1269 169.074C70.4934 168.195 69.5965 167.59 68.5945 167.364L54.5616 164.171L53.1204 163.844C52.2828 163.653 51.4917 163.271 50.7986 162.722C50.1055 162.173 49.5262 161.47 49.0986 160.659C48.655 159.807 48.3866 158.86 48.3122 157.884C48.2453 156.996 48.3424 156.103 48.5978 155.257L53.4606 139.223L56.6157 128.819C56.9981 127.564 57.2238 126.259 57.2866 124.938C57.4624 121.283 56.4289 117.68 54.3753 114.791C52.57 112.251 50.066 110.414 47.2332 109.551C44.4005 108.689 41.3893 108.846 38.6445 110C38.5642 110.032 38.4808 110.067 38.4005 110.102C36.4321 110.962 34.6734 112.311 33.2635 114.043C31.8536 115.775 30.831 117.842 30.2767 120.08L26.8487 133.726L19.7776 161.856C19.0698 164.675 18.9268 167.627 19.3584 170.512C19.7901 173.396 20.7861 176.145 22.2784 178.569C23.7708 180.993 25.7241 183.036 28.0048 184.557C30.2855 186.079 32.8397 187.043 35.4925 187.384L55.7042 189.976L65.0573 191.178C66.1389 191.32 67.2297 191.011 68.1124 190.313C68.9952 189.614 69.6051 188.577 69.8206 187.409C69.8357 187.345 69.8475 187.281 69.8559 187.216L70.0806 185.698L71.984 172.92L72.0032 172.79C72.1024 172.138 72.0756 171.471 71.9247 170.831C71.7738 170.191 71.502 169.592 71.1269 169.074Z" fill="#CACACA"/>
<path d="M108.162 196.242C109.547 196.593 110.985 196.609 112.375 196.286C113.765 195.964 115.074 195.312 116.209 194.376C117.344 193.441 118.278 192.244 118.945 190.871C119.612 189.498 119.995 187.981 120.069 186.428L153.245 175.893L139.578 163.157L110.168 175.114C107.776 175.152 105.479 176.15 103.714 177.917C101.948 179.684 100.837 182.099 100.589 184.703C100.342 187.307 100.977 189.92 102.372 192.047C103.768 194.174 105.828 195.666 108.162 196.242V196.242Z" fill="#FFB6B6"/>
<path d="M169.717 152.327L153.938 112.589C152.647 109.326 150.342 106.669 147.432 105.09C146.532 104.605 145.587 104.228 144.614 103.966C144.463 103.924 144.312 103.885 144.161 103.853C142.097 103.36 139.955 103.404 137.909 103.98C136.038 104.506 134.289 105.457 132.777 106.772C131.265 108.087 130.024 109.737 129.133 111.612C129.123 111.628 129.115 111.644 129.107 111.661C128.113 113.767 127.584 116.098 127.563 118.469C127.543 120.839 128.031 123.181 128.989 125.307L129.185 125.735L140.335 150.241C140.716 151.079 140.93 151.996 140.965 152.931C140.999 153.866 140.852 154.798 140.534 155.667C140.216 156.536 139.733 157.321 139.118 157.971C138.503 158.621 137.769 159.122 136.965 159.44L136.182 159.749L122.097 165.316C121.041 165.729 120.171 166.574 119.673 167.674C119.174 168.774 119.085 170.043 119.424 171.213L119.459 171.336L123.407 185.161C123.426 185.224 123.445 185.287 123.468 185.351C123.503 185.47 123.546 185.586 123.596 185.698C124.016 186.728 124.758 187.56 125.688 188.045C126.618 188.53 127.676 188.636 128.671 188.343L136.272 186.148L137.822 185.698L157.449 180.026C160.032 179.279 162.437 177.93 164.499 176.072C166.561 174.214 168.231 171.89 169.396 169.26C170.561 166.629 171.193 163.754 171.249 160.832C171.304 157.909 170.781 155.008 169.717 152.327L169.717 152.327Z" fill="#CACACA"/>
<path d="M14.4111 185.698C18.9595 191.769 23.8647 197.509 29.0957 202.881H174.166C175.564 202.883 176.903 203.492 177.891 204.574C178.879 205.656 179.435 207.122 179.436 208.652L179.645 248.879C188.57 244.392 196.927 238.663 204.511 231.833C206.616 229.94 208.657 227.965 210.632 225.908C211.925 224.566 213.188 223.192 214.419 221.784C223.652 211.26 231.128 199.046 236.509 185.698H14.4111Z" fill="#3F3D56"/>
<path d="M214.419 221.784C213.19 223.193 211.928 224.567 210.632 225.908H179.751V221.784H214.419Z" fill="white"/>
<path d="M147.214 89.8987C147.061 89.5906 146.835 89.3333 146.56 89.154C146.285 88.9747 145.971 88.8801 145.651 88.8801H40.4227C39.9509 88.8815 39.4989 89.0874 39.1656 89.4528C38.8323 89.8182 38.6449 90.3132 38.6445 90.8295V159.749H147.432V90.8295C147.434 90.5038 147.359 90.1832 147.214 89.8987Z" fill="#3F3D56"/>
<path d="M38.5493 157.883V166.388C38.5493 166.741 38.6128 167.09 38.7361 167.415C38.8594 167.741 39.0401 168.037 39.2679 168.286C39.4957 168.536 39.7662 168.733 40.0639 168.868C40.3615 169.003 40.6806 169.073 41.0028 169.073H81.1555V185.857H80.6221C80.5802 185.857 80.5388 185.866 80.5001 185.884C80.4614 185.901 80.4263 185.927 80.3967 185.959C80.3671 185.992 80.3436 186.03 80.3276 186.072C80.3116 186.115 80.3033 186.16 80.3033 186.206V187.373C80.3033 187.419 80.3116 187.464 80.3276 187.507C80.3436 187.549 80.3671 187.588 80.3967 187.62C80.4263 187.652 80.4614 187.678 80.5001 187.696C80.5388 187.713 80.5802 187.722 80.6221 187.722H105.548C105.59 187.722 105.632 187.713 105.67 187.696C105.709 187.678 105.744 187.652 105.774 187.62C105.803 187.588 105.827 187.549 105.843 187.507C105.859 187.464 105.867 187.419 105.867 187.373V186.206C105.867 186.16 105.859 186.115 105.843 186.072C105.827 186.03 105.803 185.992 105.774 185.959C105.744 185.927 105.709 185.901 105.67 185.884C105.632 185.866 105.59 185.857 105.548 185.857H105.015V169.073H145.168C145.49 169.073 145.809 169.003 146.107 168.868C146.404 168.733 146.675 168.536 146.903 168.286C147.13 168.037 147.311 167.741 147.434 167.415C147.558 167.09 147.621 166.741 147.621 166.388V157.883H38.5493Z" fill="#3F3D56"/>
<path d="M91.7673 133.473C97.3169 133.473 101.816 128.55 101.816 122.477C101.816 116.404 97.3169 111.481 91.7673 111.481C86.2176 111.481 81.7188 116.404 81.7188 122.477C81.7188 128.55 86.2176 133.473 91.7673 133.473Z" fill="#3B90FA"/>
<path d="M117.37 60.7637H115.765C115.765 47.487 103.757 38.7868 91.6436 38.7798C89.8817 38.7742 88.1236 38.9613 86.3957 39.3383C84.4506 39.7633 82.4317 40.2726 80.4481 40.9364C72.626 43.5601 65.372 48.632 65.372 60.7637C65.3703 63.1197 65.6443 65.4663 66.1872 67.7463L64.6337 68.1888C64.0575 65.7642 63.7663 63.269 63.7671 60.7637C63.7671 50.1634 67.744 42.8823 74.6128 38.541C78.2237 36.2579 82.6307 34.7863 87.6796 34.0697C89.7806 33.7639 91.9047 33.6933 94.0188 33.859C107.949 34.9548 117.37 46.644 117.37 60.7637Z" fill="#3B90FA"/>
<path d="M120.043 61.7366L119.411 56.6226C119.255 55.3311 118.686 54.1416 117.806 53.2648C117.241 52.6931 116.564 52.2696 115.827 52.0262C115.091 51.7828 114.313 51.7259 113.553 51.8598L112.548 52.0108C112.274 52.0504 112.009 52.1494 111.769 52.3019C111.529 52.4545 111.32 52.6576 111.152 52.8995C110.983 53.1405 110.86 53.4158 110.789 53.7094C110.718 54.003 110.701 54.3091 110.738 54.61L112.199 66.3904C112.259 66.8706 112.455 67.3179 112.761 67.669C113.066 68.0201 113.464 68.2572 113.9 68.3468C114.029 68.3751 114.16 68.3892 114.291 68.389C114.386 68.389 114.48 68.3819 114.574 68.3679L115.697 68.2028C116.382 68.1034 117.041 67.8517 117.634 67.4633C118.227 67.075 118.741 66.5581 119.144 65.9444C119.231 65.8109 119.315 65.6739 119.392 65.5334C119.993 64.3842 120.223 63.0464 120.043 61.7366Z" fill="#3B90FA"/>
<path d="M111.9 52.2252C111.605 52.3818 111.349 52.613 111.152 52.8995C110.983 53.1406 110.86 53.4159 110.789 53.7095C110.718 54.0031 110.701 54.3091 110.738 54.61L112.199 66.3905C112.259 66.8707 112.455 67.3179 112.761 67.669C113.066 68.0201 113.464 68.2573 113.9 68.3469L111.9 52.2252Z" fill="white"/>
<path d="M120.043 61.7366L119.411 56.6226C119.255 55.3311 118.687 54.1416 117.806 53.2648L119.26 64.9855C119.282 65.1737 119.326 65.3579 119.392 65.5334C119.993 64.3842 120.223 63.0464 120.043 61.7366Z" fill="#3F3D56"/>
<path d="M115.046 65.4213C115.485 65.3561 115.706 64.2125 115.539 62.8669C115.372 61.5214 114.881 60.4835 114.442 60.5486C114.002 60.6138 113.782 61.7575 113.949 63.103C114.115 64.4486 114.607 65.4865 115.046 65.4213Z" fill="#3F3D56"/>
<path d="M114.083 59.0991C114.522 59.0339 114.743 57.8902 114.576 56.5447C114.409 55.1991 113.918 54.1612 113.479 54.2264C113.04 54.2916 112.819 55.4352 112.986 56.7808C113.152 58.1263 113.644 59.1643 114.083 59.0991Z" fill="#3F3D56"/>
<path d="M120.181 61.5577C120.621 61.4925 120.841 60.3489 120.675 59.0034C120.508 57.6578 120.017 56.6199 119.577 56.6851C119.138 56.7503 118.917 57.8939 119.084 59.2394C119.251 60.585 119.742 61.6229 120.181 61.5577Z" fill="#3F3D56"/>
<path d="M91.6436 38.7798C89.8817 38.7742 88.1237 38.9613 86.3957 39.3383C84.4506 39.7633 82.4317 40.2726 80.4481 40.9364C77.3507 40.7713 75.0718 39.8932 74.6128 38.541C78.2237 36.2579 82.6307 34.7863 87.6796 34.0697C89.7807 33.7639 91.9047 33.6933 94.0188 33.859C94.2426 34.0026 94.4361 34.1963 94.5866 34.4276C94.7371 34.6588 94.8411 34.9223 94.8919 35.2007C95.0427 36.423 93.7685 37.7226 91.6436 38.7798Z" fill="#3F3D56"/>
<path d="M71.1529 72.9516L68.6814 61.7085C68.5933 61.3029 68.3976 60.9348 68.1189 60.6504C67.8403 60.3661 67.491 60.1782 67.1151 60.1104C67.0089 60.0923 66.9016 60.0829 66.7941 60.0823C66.6427 60.0829 66.4919 60.1029 66.3448 60.142L65.3883 60.3949C64.1567 60.7208 63.0937 61.568 62.4323 62.7507C61.771 63.9333 61.5655 65.3548 61.8608 66.7031L62.9681 71.7468C63.221 72.9343 63.8231 73.998 64.6821 74.7745C64.8213 74.8974 64.9671 75.0112 65.1186 75.1152C65.6567 75.4842 66.2568 75.7315 66.8836 75.8425C67.5104 75.9535 68.1512 75.9259 68.7681 75.7615L69.7214 75.5086C69.9735 75.4442 70.2106 75.3234 70.4179 75.1538C70.7262 74.9079 70.9607 74.5672 71.0915 74.175C71.2224 73.7829 71.2438 73.357 71.1529 72.9516Z" fill="#3B90FA"/>
<path d="M65.9716 70.8596C66.4025 70.7462 66.5165 69.584 66.2261 68.2638C65.9358 66.9436 65.3512 65.9653 64.9203 66.0788C64.4894 66.1923 64.3755 67.3545 64.6658 68.6747C64.9561 69.9948 65.5408 70.9731 65.9716 70.8596Z" fill="#3F3D56"/>
<path d="M62.7617 71.9134C63.1926 71.7999 63.3065 70.6377 63.0162 69.3175C62.7259 67.9974 62.1412 67.0191 61.7103 67.1326C61.2795 67.246 61.1655 68.4082 61.4558 69.7284C61.7462 71.0486 62.3308 72.0269 62.7617 71.9134Z" fill="#3F3D56"/>
<path d="M71.3101 72.9094L68.8386 61.6663C68.7423 61.2274 68.5298 60.8294 68.2278 60.522C67.9258 60.2146 67.5476 60.0116 67.1406 59.9382L70.5141 75.2943C70.8472 75.0273 71.1006 74.6583 71.2423 74.2338C71.384 73.8094 71.4076 73.3485 71.3101 72.9094Z" fill="white"/>
<path d="M62.4189 64.4763C62.3507 64.1636 62.2227 63.8703 62.0434 63.6157C61.6959 64.6003 61.6321 65.6776 61.8604 66.7031L62.9678 71.7468C63.2206 72.9343 63.8228 73.998 64.6818 74.7745L62.4189 64.4763Z" fill="#3F3D56"/>
</svg>
